<?xml version="1.0" encoding="UTF-8"?>
<!-- Generator: visioncortex VTracer 0.6.3 -->
<svg version="1.1" xmlns="http://www.w3.org/2000/svg" width="1280" height="1280">
<path d="M0 0 C422.4 0 844.8 0 1280 0 C1280 422.4 1280 844.8 1280 1280 C857.6 1280 435.2 1280 0 1280 C0 857.6 0 435.2 0 0 Z " fill="#FAFCFC" transform="translate(0,0)"/>
<path d="M0 0 C10.81 8.15 20.23 18.07 29.79 27.61 C32.2 30.02 34.63 32.41 37.06 34.81 C38.6 36.35 40.15 37.88 41.69 39.42 C42.77 40.49 42.77 40.49 43.88 41.58 C44.55 42.25 45.22 42.92 45.91 43.61 C46.79 44.49 46.79 44.49 47.69 45.38 C49.42 47.54 50.21 49.67 51.19 52.25 C30.88 72.65 10.55 93.05 -9.78 113.42 C-12.19 115.83 -14.59 118.24 -16.99 120.65 C-17.47 121.13 -17.95 121.61 -18.45 122.11 C-26.18 129.86 -33.91 137.62 -41.63 145.38 C-49.57 153.35 -57.51 161.32 -65.46 169.28 C-69.92 173.74 -74.38 178.21 -78.83 182.69 C-83.03 186.91 -87.23 191.12 -91.44 195.33 C-92.98 196.87 -94.51 198.41 -96.04 199.96 C-110.27 214.32 -121.72 223.41 -142.62 223.58 C-157.04 223.38 -168.81 216.26 -178.81 206.25 C-178.59 201.77 -176.82 199.8 -173.66 196.77 C-172.38 195.53 -172.38 195.53 -171.07 194.26 C-170.16 193.39 -169.25 192.52 -168.31 191.62 C-161.31 184.79 -154.7 178.08 -148.81 170.25 C-147.61 168.69 -146.41 167.14 -145.2 165.58 C-143.95 163.95 -142.7 162.32 -141.45 160.69 C-136.97 154.83 -132.38 149.04 -127.81 143.25 C-131.21 146.59 -134.31 149.99 -137.29 153.7 C-138.81 155.25 -138.81 155.25 -140.63 156.07 C-143.37 157.55 -145.14 159.41 -147.3 161.65 C-148.6 162.98 -148.6 162.98 -149.92 164.33 C-150.83 165.28 -151.75 166.22 -152.69 167.19 C-160.61 175.26 -168.7 182.56 -177.81 189.25 C-178.93 190.12 -180.05 191 -181.17 191.88 C-205.04 210.72 -229.16 220.82 -259.81 219.25 C-280.53 216.66 -298.7 201.15 -311.37 185.3 C-319.28 174.8 -326.95 162.89 -330.81 150.25 C-327.73 151.67 -324.96 153.44 -322.14 155.32 C-307.18 165.29 -292.7 170.85 -274.56 170.69 C-273.38 170.68 -272.19 170.67 -270.97 170.66 C-238.49 170.02 -212.01 150.15 -190.03 127.75 C-188.36 126.05 -186.67 124.35 -184.99 122.66 C-179.93 117.57 -174.97 112.44 -170.3 106.99 C-167.88 104.17 -165.34 101.47 -162.81 98.75 C-159.49 95.17 -156.19 91.58 -153 87.88 C-150.9 85.45 -148.74 83.17 -146.44 80.94 C-143.59 78.15 -141.11 75.18 -138.62 72.06 C-134.77 67.27 -130.65 62.93 -126.24 58.66 C-123.53 56.03 -120.99 53.34 -118.52 50.48 C-108.39 38.77 -97.15 27.63 -84.81 18.25 C-83.8 17.44 -82.79 16.62 -81.75 15.78 C-58.55 -2.84 -27.99 -17.58 0 0 Z " fill="#8BB939" transform="translate(418.8125,589.75)"/>
<path d="M0 0 C4.72 3.9 7.82 7.26 10 13 C9.47 13.52 8.94 14.04 8.4 14.57 C-5.51 28.15 -5.51 28.15 -18 43 C-19.09 44.41 -20.18 45.82 -21.28 47.23 C-29.35 57.22 -29.35 57.22 -36.05 68.11 C-37.18 70.37 -38.59 72.25 -40.12 74.25 C-40.66 74.96 -41.2 75.66 -41.76 76.39 C-42.17 76.92 -42.58 77.45 -43 78 C-42.34 78 -41.68 78 -41 78 C-40.75 77.44 -40.5 76.89 -40.24 76.31 C-35.43 67.37 -27.26 59.94 -20.1 52.84 C-18.63 51.38 -17.16 49.9 -15.7 48.43 C-10.23 42.95 -4.57 37.83 1.49 33 C4.12 30.9 6.69 28.74 9.25 26.56 C31.25 8.65 58.93 -6.05 88 -4 C104.91 -1.57 118.09 6.05 130 18 C130.73 18.67 131.46 19.34 132.21 20.03 C141.85 29.03 148.43 41.01 155.02 52.32 C155.91 53.84 156.81 55.36 157.71 56.88 C158.18 57.68 158.64 58.49 159.12 59.31 C159.52 59.99 159.91 60.67 160.32 61.36 C160.66 62.17 160.66 62.17 161 63 C160.67 63.66 160.34 64.32 160 65 C159.24 64.32 158.47 63.64 157.69 62.94 C150.71 57.2 143.37 52.88 134.94 49.69 C134.3 49.45 133.67 49.2 133.01 48.95 C110.26 40.76 87.3 44.45 65.94 54.44 C59.64 57.51 53.56 60.7 48 65 C47.25 65.57 46.51 66.14 45.74 66.72 C43.12 68.77 40.56 70.88 38 73 C37.22 73.64 37.22 73.64 36.42 74.29 C28.04 81.13 20.54 88.45 13.26 96.45 C10.45 99.54 7.54 102.5 4.56 105.44 C1.18 108.78 -2.01 112.21 -5.11 115.82 C-7.44 118.51 -9.84 121.13 -12.25 123.75 C-12.72 124.26 -13.18 124.76 -13.66 125.29 C-15.59 127.39 -17.53 129.48 -19.46 131.58 C-26.05 138.73 -26.05 138.73 -32.5 146 C-41.43 156.27 -50.85 166.03 -60.47 175.66 C-62.5 177.69 -64.53 179.73 -66.55 181.78 C-73.72 188.98 -80.96 195.76 -89 202 C-90.58 203.27 -92.17 204.54 -93.75 205.81 C-97.33 208.57 -100.98 210.93 -105 213 C-106.04 213.56 -107.09 214.12 -108.16 214.69 C-122.96 222.49 -138.2 225.91 -154.86 222.12 C-165.41 218.3 -174.29 212.04 -182.42 204.41 C-184.39 202.57 -186.38 200.82 -188.42 199.07 C-194.22 194.01 -199.71 188.62 -205.19 183.21 C-206.45 181.98 -207.71 180.75 -208.98 179.53 C-210.82 177.75 -212.65 175.95 -214.47 174.15 C-215.33 173.33 -215.33 173.33 -216.2 172.5 C-219.99 168.69 -219.99 168.69 -220.02 165.73 C-218.52 161.73 -215.88 159.33 -212.87 156.36 C-212.22 155.71 -211.57 155.06 -210.9 154.38 C-208.73 152.19 -206.53 150.02 -204.34 147.84 C-202.78 146.27 -201.22 144.71 -199.66 143.14 C-195.41 138.88 -191.15 134.63 -186.89 130.38 C-182.43 125.94 -177.98 121.48 -173.53 117.03 C-166.04 109.54 -158.55 102.06 -151.06 94.59 C-143.36 86.92 -135.67 79.23 -127.98 71.54 C-118.72 62.26 -109.44 52.99 -100.16 43.72 C-96.62 40.19 -93.09 36.65 -89.55 33.11 C-85.38 28.94 -81.21 24.77 -77.02 20.61 C-75.49 19.09 -73.96 17.56 -72.44 16.03 C-70.35 13.93 -68.25 11.85 -66.15 9.76 C-65.26 8.86 -65.26 8.86 -64.34 7.94 C-58.4 2.08 -51.81 -2.87 -43.75 -5.31 C-42.78 -5.62 -41.8 -5.92 -40.8 -6.24 C-26.84 -10.04 -12.21 -7.97 0 0 Z " fill="#009BCB" transform="translate(302,476)"/>
<path d="M0 0 C0.67 -0.01 1.35 -0.01 2.04 -0.02 C4.28 -0.03 6.52 -0.03 8.76 -0.03 C10.33 -0.03 11.9 -0.03 13.47 -0.04 C16.77 -0.05 20.07 -0.05 23.37 -0.04 C27.55 -0.04 31.73 -0.05 35.91 -0.08 C39.16 -0.09 42.41 -0.09 45.66 -0.09 C47.2 -0.09 48.74 -0.09 50.27 -0.1 C65.36 -0.19 80.49 1.15 94.45 7.27 C95.48 7.71 96.51 8.14 97.57 8.59 C113.87 18.15 123.61 33.86 128.95 51.65 C134.27 73.48 130.7 96.12 119.6 115.4 C114.46 123.74 108.1 130.56 99.45 135.27 C98.68 135.72 97.91 136.17 97.12 136.63 C77.58 147.35 52.19 145.46 30.57 145.52 C29.64 145.53 28.71 145.54 27.75 145.54 C25.09 145.55 22.43 145.55 19.77 145.54 C18.96 145.54 18.15 145.55 17.31 145.55 C11.68 145.51 11.68 145.51 9.45 143.27 C9.2 141.14 9.2 141.14 9.21 138.44 C9.21 137.42 9.2 136.4 9.2 135.35 C9.21 134.22 9.21 133.1 9.22 131.94 C9.22 130.76 9.22 129.58 9.22 128.36 C9.22 125.12 9.23 121.88 9.25 118.64 C9.26 115.25 9.26 111.87 9.26 108.48 C9.27 102.07 9.29 95.65 9.31 89.24 C9.33 81.94 9.34 74.64 9.35 67.34 C9.37 52.32 9.4 37.3 9.45 22.27 C8.23 22.21 7.02 22.15 5.77 22.09 C4.18 22.01 2.6 21.92 1.01 21.84 C0.21 21.8 -0.59 21.76 -1.42 21.72 C-7.44 21.39 -7.44 21.39 -8.55 20.27 C-8.68 17.28 -8.74 14.33 -8.74 11.34 C-8.75 10.5 -8.76 9.66 -8.78 8.8 C-8.78 8 -8.78 7.2 -8.78 6.37 C-8.79 5.64 -8.79 4.9 -8.79 4.14 C-8.15 -0.82 -3.98 0.02 0 0 Z " fill="#2C2B2B" transform="translate(524.55078125,551.725341796875)"/>
<path d="M0 0 C0.87 0.18 1.74 0.35 2.64 0.54 C4.11 0.85 4.11 0.85 5.61 1.17 C6.66 1.39 7.72 1.61 8.81 1.83 C11.32 2.35 13.82 2.88 16.32 3.41 C19.56 4.1 22.8 4.77 26.04 5.45 C49.95 10.43 73.8 15.55 97.49 21.53 C99.71 22.08 101.94 22.62 104.17 23.14 C105.23 23.39 106.28 23.63 107.38 23.89 C108.3 24.1 109.23 24.31 110.18 24.53 C113.04 25.43 115.29 26.73 117.79 28.36 C117.22 30.74 116.57 33.02 115.79 35.36 C117.11 34.37 118.43 33.38 119.79 32.36 C120.45 32.69 121.11 33.02 121.79 33.36 C116.59 38.61 111.38 43.86 106.16 49.1 C104.39 50.88 102.62 52.66 100.86 54.44 C82.46 73.02 82.46 73.02 72.79 80.36 C71.21 81.62 69.62 82.9 68.04 84.17 C64.46 86.92 60.81 89.28 56.79 91.36 C55.75 91.91 54.71 92.47 53.63 93.05 C38.83 100.85 23.59 104.27 6.93 100.48 C-3.62 96.65 -12.49 90.39 -20.62 82.76 C-22.59 80.93 -24.58 79.17 -26.63 77.43 C-32.43 72.36 -37.92 66.97 -43.4 61.57 C-44.66 60.33 -45.92 59.11 -47.19 57.88 C-49.03 56.1 -50.86 54.31 -52.68 52.5 C-53.25 51.96 -53.82 51.42 -54.41 50.86 C-55.97 49.29 -55.97 49.29 -58.21 46.36 C-57.97 42.16 -56.5 40.13 -53.61 37.19 C-52.47 36.02 -52.47 36.02 -51.3 34.82 C-50.47 33.99 -49.64 33.16 -48.79 32.3 C-47.94 31.44 -47.09 30.58 -46.21 29.69 C-44.41 27.88 -42.61 26.07 -40.8 24.26 C-38.03 21.49 -35.29 18.69 -32.55 15.89 C-30.8 14.13 -29.04 12.37 -27.29 10.61 C-26.06 9.35 -26.06 9.35 -24.81 8.06 C-24.03 7.3 -23.25 6.53 -22.45 5.74 C-21.78 5.06 -21.1 4.38 -20.4 3.68 C-17.38 1.85 -15.57 2.62 -12.21 3.36 C-10.05 2.03 -10.05 2.03 -8.21 0.36 C-5.2 -0.68 -3.09 -0.64 0 0 Z " fill="#2683A2" transform="translate(140.20703125,597.64453125)"/>
<path d="M0 0 C0.61 0.38 1.22 0.77 1.85 1.16 C13.51 9.82 19.49 26.07 22.31 39.69 C23 45 23 45 23 56 C-3.73 56 -30.46 56 -58 56 C-56.42 65.49 -51.87 70.82 -44.34 76.59 C-36.28 81.44 -25.47 81.52 -16.45 79.4 C-11.2 77.88 -6.09 76 -1 74 C1.24 77.46 2.64 80.58 3.69 84.56 C3.94 85.49 4.19 86.42 4.45 87.38 C5 90 5 90 5 94 C2.02 94.96 -0.96 95.92 -3.94 96.88 C-4.77 97.14 -5.6 97.41 -6.46 97.69 C-23.19 103.03 -37.77 103.85 -54.06 96.38 C-67.03 89.58 -74.98 79.63 -80.02 66.15 C-85.03 50.05 -82.35 32.6 -74.75 17.87 C-68.64 6.58 -59.06 -1.29 -46.76 -5.26 C-30.85 -9.53 -14.27 -9.06 0 0 Z " fill="#2C2B2B" transform="translate(752,597)"/>
<path d="M0 0 C6.84 5.57 10.51 13.42 12 22 C12.32 26.34 12.37 30.68 12.41 35.03 C12.43 36.26 12.45 37.49 12.47 38.76 C12.53 42.68 12.58 46.59 12.62 50.5 C12.66 53.16 12.7 55.82 12.74 58.48 C12.84 64.99 12.92 71.49 13 78 C14.26 78.07 14.26 78.07 15.55 78.15 C16.65 78.22 17.75 78.3 18.88 78.38 C19.97 78.44 21.06 78.51 22.18 78.59 C25 79 25 79 27 81 C27.23 83.06 27.23 83.06 27.2 85.57 C27.19 86.47 27.18 87.36 27.18 88.29 C27.15 89.69 27.15 89.69 27.12 91.12 C27.12 92.07 27.11 93.01 27.1 93.99 C27.07 96.33 27.04 98.66 27 101 C21.93 101.12 16.86 101.21 11.78 101.27 C10.06 101.3 8.33 101.33 6.61 101.38 C4.13 101.44 1.65 101.47 -0.83 101.49 C-1.6 101.51 -2.38 101.54 -3.17 101.57 C-5.35 101.57 -5.35 101.57 -9 101 C-11.01 98.47 -11.01 98.47 -12 96 C-17.9 97.91 -17.9 97.91 -23.69 100.12 C-31.82 103.2 -41.65 103.15 -49.75 100.04 C-59.02 95.78 -65.74 90.66 -70.88 81.75 C-74.35 70.16 -73 60.91 -67.48 50.39 C-61.84 41.25 -53.33 37.1 -43.18 34.54 C-32.15 32.67 -21.7 33.92 -11 37 C-11.06 34.44 -11.15 31.88 -11.25 29.31 C-11.26 28.59 -11.28 27.87 -11.29 27.13 C-11.52 22.23 -12.32 19.53 -16 16 C-25.51 12.09 -33.97 14.28 -43.45 17.03 C-46.63 17.9 -49.74 18.52 -53 19 C-56.22 14 -60 8.06 -60 2 C-56.69 0.87 -53.38 -0.25 -50.06 -1.38 C-49.14 -1.69 -48.21 -2.01 -47.26 -2.34 C-31.52 -7.64 -14.75 -9.27 0 0 Z " fill="#2C2B2B" transform="translate(1167,596)"/>
<path d="M0 0 C6.44 5.79 10.2 14.06 11.05 22.62 C11.19 26.12 11.24 29.62 11.26 33.14 C11.28 34.41 11.29 35.69 11.31 37 C11.36 40.36 11.39 43.72 11.42 47.07 C11.45 50.51 11.49 53.95 11.54 57.39 C11.62 64.12 11.69 70.84 11.75 77.57 C13.12 77.64 13.12 77.64 14.52 77.72 C15.71 77.79 16.9 77.87 18.12 77.95 C19.9 78.05 19.9 78.05 21.71 78.16 C24.75 78.57 24.75 78.57 26.75 80.57 C26.99 82.53 26.99 82.53 26.98 84.89 C26.97 85.73 26.97 86.58 26.97 87.45 C26.96 88.34 26.95 89.22 26.93 90.13 C26.93 91.47 26.93 91.47 26.93 92.83 C26.89 99.43 26.89 99.43 25.75 100.57 C23.08 100.66 20.44 100.69 17.77 100.67 C16.98 100.67 16.18 100.67 15.36 100.66 C12.8 100.66 10.24 100.65 7.68 100.63 C5.95 100.63 4.22 100.62 2.49 100.62 C-1.76 100.61 -6 100.59 -10.25 100.57 C-10.25 99.91 -10.25 99.25 -10.25 98.57 C-10.91 98.57 -11.57 98.57 -12.25 98.57 C-12.58 97.58 -12.91 96.59 -13.25 95.57 C-19.15 97.48 -19.15 97.48 -24.94 99.7 C-34.15 103.18 -44.3 102.26 -53.25 98.57 C-60.95 94.87 -67.62 90.15 -71.35 82.26 C-74.67 72.66 -74.53 61.84 -70.25 52.57 C-64.32 42.65 -55.92 37.34 -44.91 34.26 C-33.82 32.17 -22.98 33.1 -12.25 36.57 C-12.26 33.84 -12.31 31.11 -12.38 28.38 C-12.38 27.61 -12.37 26.84 -12.37 26.05 C-12.5 21.67 -12.5 21.67 -14.57 17.93 C-17.67 15.28 -20.19 13.85 -24.25 13.57 C-24.89 13.52 -25.52 13.47 -26.18 13.42 C-32.61 13.13 -38.14 14.74 -44.25 16.57 C-45.91 17.05 -47.58 17.51 -49.25 17.95 C-49.96 18.14 -50.66 18.33 -51.38 18.53 C-53.25 18.57 -53.25 18.57 -54.87 17.45 C-56.6 15.1 -57.48 12.82 -58.44 10.07 C-58.96 8.63 -58.96 8.63 -59.48 7.16 C-60.25 4.57 -60.25 4.57 -60.25 1.57 C-40.83 -5.54 -19.01 -13.2 0 0 Z " fill="#2C2B2B" transform="translate(946.25390625,596.4296875)"/>
<path d="M0 0 C44.83 -0.85 44.83 -0.85 57.47 10.15 C59.74 12.37 61.9 14.62 64 17 C65.03 18.16 65.03 18.16 66.09 19.35 C68.3 22.42 69.45 25.31 70.69 28.88 C71.1 30.05 71.52 31.22 71.95 32.43 C76.23 46.96 75.42 65.33 69.38 79.25 C63.44 89.79 54.64 96.79 43.27 100.42 C37.86 101.8 32.61 102.15 27.05 102.13 C26.31 102.13 25.56 102.13 24.8 102.14 C23.24 102.14 21.69 102.13 20.13 102.13 C17.74 102.12 15.36 102.13 12.97 102.14 C11.45 102.14 9.94 102.13 8.42 102.13 C7.71 102.13 6.99 102.14 6.26 102.14 C1.23 102.11 1.23 102.11 -1 101 C-1.02 89.6 -1.04 78.21 -1.05 66.81 C-1.06 61.52 -1.06 56.22 -1.08 50.93 C-1.09 45.81 -1.09 40.7 -1.09 35.58 C-1.1 33.64 -1.1 31.7 -1.11 29.75 C-1.13 19.79 -1.12 9.92 0 0 Z " fill="#FBFDFD" transform="translate(558,573)"/>
<path d="M0 0 C2.12 -0.01 4.24 -0.06 6.37 -0.11 C7.71 -0.12 9.06 -0.13 10.41 -0.13 C11.64 -0.15 12.87 -0.16 14.13 -0.17 C17.2 0.43 17.2 0.43 19.04 2.74 C20.48 6.08 21.69 9.47 22.82 12.93 C25.44 20.63 28.53 28.06 31.8 35.51 C34.71 42.21 37.4 48.97 39.9 55.83 C41.23 59.39 42.4 61.87 45.2 64.43 C47.02 59.71 48.83 55 50.64 50.28 C51.26 48.68 51.87 47.08 52.49 45.48 C53.38 43.17 54.27 40.86 55.16 38.55 C55.43 37.84 55.71 37.13 55.99 36.4 C57.62 32.12 59 27.85 60.2 23.43 C58.31 21.54 55.63 22.02 53.11 21.8 C51.2 21.43 51.2 21.43 49.2 19.43 C49.02 16.55 48.96 13.79 49.01 10.93 C49.01 10.14 49.01 9.36 49.01 8.55 C49.06 2.71 49.06 2.71 50.2 0.43 C57.16 0.4 64.12 0.38 71.08 0.37 C73.45 0.37 75.82 0.36 78.19 0.35 C81.58 0.34 84.98 0.33 88.38 0.33 C89.45 0.32 90.51 0.32 91.61 0.31 C93.08 0.31 93.08 0.31 94.58 0.31 C95.45 0.31 96.32 0.31 97.22 0.31 C99.2 0.43 99.2 0.43 100.2 1.43 C100.28 2.91 100.3 4.41 100.29 5.9 C100.29 7.25 100.29 7.25 100.28 8.62 C100.27 10.04 100.27 10.04 100.26 11.49 C100.25 12.44 100.25 13.39 100.25 14.36 C100.23 16.72 100.22 19.07 100.2 21.43 C95.25 21.76 90.3 22.09 85.2 22.43 C81.75 30.61 78.44 38.82 75.26 47.11 C74.82 48.25 74.39 49.38 73.94 50.55 C71.26 57.54 68.69 64.56 66.25 71.64 C64.22 77.45 61.96 83.15 59.64 88.86 C58.24 92.33 56.86 95.81 55.51 99.3 C55.13 100.27 54.76 101.23 54.37 102.23 C53.47 104.67 52.64 107.11 51.83 109.59 C50 115.14 47.85 120.55 45.7 125.99 C44.91 127.97 44.13 129.95 43.35 131.93 C43.01 132.79 42.67 133.66 42.32 134.55 C40.91 138.16 39.56 141.8 38.2 145.43 C31.27 145.43 24.34 145.43 17.2 145.43 C17.2 141.16 18.16 137.74 19.45 133.74 C19.68 133.02 19.9 132.29 20.14 131.55 C21.54 127.21 23.15 123.1 25.08 118.97 C26.69 115.29 28.12 111.56 29.51 107.8 C29.79 107.08 30.07 106.37 30.35 105.63 C33.33 97.44 31.03 91.38 27.63 83.74 C26.9 82.03 26.16 80.33 25.43 78.62 C25.05 77.76 24.68 76.89 24.29 76 C22.61 72.04 21.03 68.05 19.45 64.05 C15.46 53.98 11.31 43.98 7.14 33.98 C6.65 32.79 6.15 31.59 5.64 30.36 C5.19 29.29 4.74 28.22 4.28 27.11 C3.53 25.24 2.83 23.34 2.2 21.43 C1.14 21.45 0.08 21.47 -1.01 21.5 C-2.4 21.51 -3.79 21.53 -5.18 21.55 C-6.23 21.58 -6.23 21.58 -7.3 21.6 C-9.13 21.62 -10.97 21.53 -12.8 21.43 C-15.43 18.8 -15.06 16.88 -15.08 13.3 C-15.07 12.52 -15.06 11.73 -15.05 10.93 C-15.06 10.14 -15.07 9.36 -15.08 8.55 C-15.04 -1.9 -8.44 0.02 0 0 Z " fill="#2C2B2B" transform="translate(988.803466796875,591.574462890625)"/>
<path d="M0 0 C12.54 0 25.08 0 38 0 C39.64 3.29 40.41 5.48 41 9 C41.8 8.6 42.6 8.2 43.42 7.79 C55.39 2.02 66.55 -1.43 80 0 C82 2 82 2 82.23 3.97 C82.22 4.76 82.21 5.54 82.2 6.35 C82.19 7.2 82.18 8.05 82.18 8.93 C82.15 10.26 82.15 10.26 82.12 11.62 C82.12 12.52 82.11 13.42 82.1 14.34 C82.07 16.56 82.04 18.78 82 21 C80.74 21.04 79.49 21.07 78.2 21.11 C60.06 21.64 60.06 21.64 45 31 C38.38 40.84 39.61 54.3 39.38 65.75 C39.34 67.33 39.3 68.92 39.26 70.5 C39.16 74.33 39.08 78.17 39 82 C44.94 82.33 50.88 82.66 57 83 C58.2 85.4 58.11 86.89 58.1 89.57 C58.09 90.47 58.09 91.36 58.09 92.29 C58.08 93.69 58.08 93.69 58.06 95.12 C58.06 96.07 58.05 97.01 58.05 97.99 C58.04 100.33 58.02 102.66 58 105 C52.48 105.05 46.96 105.09 41.45 105.11 C39.57 105.12 37.69 105.13 35.81 105.15 C33.12 105.18 30.42 105.19 27.73 105.2 C26.88 105.21 26.04 105.22 25.17 105.23 C23.11 105.23 21.06 105.12 19 105 C16.14 102.14 16.7 99.28 16.7 95.45 C16.69 94.67 16.68 93.89 16.67 93.08 C16.65 90.5 16.63 87.92 16.62 85.34 C16.6 83.55 16.59 81.76 16.57 79.97 C16.52 75.26 16.49 70.55 16.46 65.84 C16.41 58.29 16.34 50.74 16.27 43.19 C16.25 40.55 16.23 37.9 16.21 35.26 C16.2 33.65 16.19 32.04 16.17 30.43 C16.17 29.68 16.17 28.94 16.17 28.18 C16.43 24.8 16.43 24.8 15 22 C12.69 21.79 10.38 21.63 8.06 21.5 C1.22 21.11 1.22 21.11 -1 20 C-1.03 17.04 -1.05 14.08 -1.06 11.12 C-1.07 10.28 -1.08 9.44 -1.09 8.57 C-1.09 7.77 -1.09 6.96 -1.1 6.13 C-1.1 5.39 -1.11 4.65 -1.11 3.88 C-1 2 -1 2 0 0 Z " fill="#2C2B2B" transform="translate(783,592)"/>
<path d="M0 0 C2.32 1.74 2.92 2.63 3.54 5.49 C3.76 12.8 3.76 12.8 1.78 15.91 C-4.34 21.54 -13.08 24.32 -21.19 25.44 C-26.43 24.84 -30.08 22.48 -34 19 C-36.12 15.52 -36.55 13.08 -36 9 C-33.9 4.59 -31.38 0.4 -27 -2 C-18.74 -4.67 -7.7 -4.13 0 0 Z " fill="#FAFCFC" transform="translate(1153,653)"/>
<path d="M0 0 C2.72 4.07 2.72 7.23 2.63 12.05 C1.87 15.59 1.07 16.48 -1.88 18.5 C-3.55 19.39 -5.26 20.22 -7 21 C-7.84 21.41 -8.68 21.82 -9.54 22.24 C-15.52 24.93 -20.69 26.41 -27.13 24.3 C-31.9 22.21 -34.84 19.89 -37 15 C-37.09 9.53 -36.01 5.76 -32.55 1.48 C-24.87 -5.82 -8.78 -4.99 0 0 Z " fill="#FAFCFC" transform="translate(932,653)"/>
<path d="M0 0 C0.69 0.05 1.38 0.09 2.09 0.14 C9.49 1.14 14.16 5.54 19 11 C24 18.34 24 18.34 24 21 C6.18 21 -11.64 21 -30 21 C-31 18 -31 18 -30.21 16.13 C-25.07 8.05 -18.56 2.47 -9.04 0.35 C-5.94 -0.18 -3.14 -0.22 0 0 Z " fill="#FAFCFC" transform="translate(726,610)"/>
<path d="M0 0 C1.1 0.93 2.21 1.87 3.31 2.8 C3.92 3.32 4.54 3.84 5.17 4.38 C7.98 6.87 10.49 9.59 13 12.38 C13.52 12.94 14.04 13.51 14.57 14.09 C17.87 17.72 21.13 21.38 24.3 25.12 C26.77 27.85 29.39 30.41 32 33 C32.04 31.65 32.04 31.65 32.08 30.28 C32.17 26.95 32.27 23.62 32.37 20.29 C32.42 18.85 32.46 17.41 32.5 15.97 C32.56 13.9 32.62 11.83 32.68 9.76 C32.72 8.51 32.76 7.27 32.79 5.98 C33 3 33 3 34 1 C36.48 1.5 36.48 1.5 39 2 C39.33 17.84 39.66 33.68 40 50 C34.67 46 30.36 42.61 26.06 37.75 C25.56 37.19 25.05 36.63 24.53 36.05 C23.5 34.91 22.48 33.77 21.46 32.63 C20.1 31.12 18.74 29.61 17.37 28.11 C13.77 24.15 10.35 20.18 7 16 C6.67 26.89 6.34 37.78 6 49 C4.35 49 2.7 49 1 49 C0 48 0 48 -0.12 46.06 C-0.12 45.21 -0.12 44.36 -0.11 43.48 C-0.11 42.52 -0.11 41.56 -0.11 40.57 C-0.11 39.52 -0.1 38.48 -0.1 37.4 C-0.1 36.34 -0.09 35.27 -0.09 34.18 C-0.09 30.76 -0.08 27.35 -0.06 23.94 C-0.06 21.63 -0.05 19.32 -0.05 17.01 C-0.04 11.34 -0.02 5.67 0 0 Z " fill="#2C2B2B" transform="translate(615,749)"/>
<path d="M0 0 C0.85 0.03 1.69 0.05 2.57 0.08 C7.62 0.33 11.43 0.88 15.75 3.75 C18.59 7.25 19.66 11.01 20.19 15.44 C19.48 20.79 16.9 24.35 12.75 27.75 C11.43 27.75 10.11 27.75 8.75 27.75 C11.38 32.49 14.77 36.42 18.34 40.46 C21.75 44.43 21.75 44.43 21.75 47.75 C22.41 47.75 23.07 47.75 23.75 47.75 C23.25 48.74 23.25 48.74 22.75 49.75 C15.38 47.87 11.66 42.72 6.69 37.25 C5.85 36.33 5.01 35.41 4.15 34.47 C-2.25 27.22 -2.25 27.22 -2.25 23.75 C-1.33 23.64 -0.42 23.53 0.52 23.42 C1.71 23.26 2.9 23.1 4.12 22.94 C5.9 22.71 5.9 22.71 7.71 22.48 C11.05 22.04 11.05 22.04 12.75 18.75 C13.25 15.33 13.25 15.33 12.75 11.75 C11.43 10.1 10.11 8.45 8.75 6.75 C1.82 6.25 1.82 6.25 -5.25 5.75 C-5.58 19.94 -5.91 34.13 -6.25 48.75 C-7.9 48.42 -9.55 48.09 -11.25 47.75 C-11.25 32.24 -11.25 16.73 -11.25 0.75 C-7.76 -1 -3.83 -0.19 0 0 Z " fill="#2C2B2B" transform="translate(909.25,749.25)"/>
<path d="M0 0 C2.49 2.96 3.21 5.62 4 9.38 C2.17 10.06 2.17 10.06 0 10.38 C-0.89 9.41 -1.77 8.44 -2.69 7.44 C-4.54 5.41 -5.55 4.48 -8.25 3.83 C-12.08 3.7 -14.32 3.93 -17.56 6.06 C-19.29 8.84 -19.66 10.17 -19 13.38 C-14.93 17.29 -9.64 17.86 -4.31 19.12 C-0.48 20.57 0.77 22 3 25.38 C3.66 26.37 4.32 27.36 5 28.38 C5.55 31.77 5.53 34.98 5 38.38 C2.81 41.31 2.81 41.31 0 43.38 C-0.76 43.95 -1.53 44.53 -2.31 45.12 C-7.39 47.49 -11.86 48.02 -17.12 46.25 C-21.58 44.33 -25.96 41.81 -27.94 37.19 C-28 35.38 -28 35.38 -27 33.38 C-24.94 32.75 -24.94 32.75 -23 32.38 C-22.42 33.32 -21.85 34.27 -21.25 35.25 C-18.77 38.83 -18.77 38.83 -15 40.38 C-10.68 40.79 -6.66 41.01 -3 38.38 C-1.56 35.49 -1.62 33.58 -2 30.38 C-5.51 25.1 -10.25 24.15 -16.11 22.32 C-19.92 21.07 -22.15 20.23 -25 17.38 C-26.46 12.98 -26.34 9.45 -24.94 5.06 C-18.96 -3.22 -8.8 -4.76 0 0 Z " fill="#2C2B2B" transform="translate(996,751.625)"/>
<path d="M0 0 C2.06 0.44 2.06 0.44 4 1 C4.03 2 4.07 3.01 4.1 4.04 C4.24 7.78 4.4 11.52 4.58 15.25 C4.65 16.87 4.71 18.48 4.77 20.1 C4.85 22.42 4.96 24.75 5.07 27.07 C5.09 27.79 5.11 28.51 5.13 29.25 C5.35 33.1 5.89 34.86 8.37 37.87 C12.78 41.44 15.16 42.5 20.71 42.39 C24.62 41.72 26.32 39.88 29 37 C30.2 33.4 30.23 30.03 30.32 26.27 C30.34 25.52 30.36 24.77 30.38 24 C30.44 21.6 30.5 19.21 30.56 16.81 C30.61 15.19 30.65 13.56 30.69 11.94 C30.8 7.96 30.9 3.98 31 0 C32.67 -0.04 34.33 -0.04 36 0 C37.92 1.92 37.21 5.42 37.24 8.04 C37.25 8.75 37.25 9.46 37.26 10.19 C37.28 11.71 37.29 13.22 37.3 14.74 C37.31 17.03 37.36 19.32 37.4 21.62 C37.57 37.03 37.57 37.03 31.62 43.5 C27.85 46.97 24.1 48.84 18.97 49.1 C12.62 48.81 6.53 46.52 2 42 C-2.05 34.95 -1.39 26.56 -1.28 18.7 C-1.25 16.48 -1.24 14.25 -1.23 12.02 C-1.16 1.16 -1.16 1.16 0 0 Z " fill="#2D2B2B" transform="translate(534,750)"/>
<path d="M0 0 C8.91 0 17.82 0 27 0 C27.33 1.65 27.66 3.3 28 5 C20.74 5 13.48 5 6 5 C5.98 7.29 5.96 9.58 5.94 11.94 C5.93 13.23 5.91 14.51 5.9 15.84 C5.63 18.86 5.63 18.86 7 20 C8.41 20.16 9.83 20.25 11.25 20.32 C12.53 20.38 12.53 20.38 13.84 20.44 C14.74 20.48 15.64 20.52 16.56 20.56 C17.92 20.63 17.92 20.63 19.29 20.69 C21.53 20.8 23.76 20.9 26 21 C26.33 22.65 26.66 24.3 27 26 C20.07 26 13.14 26 6 26 C5.98 28.45 5.96 30.91 5.94 33.44 C5.92 34.6 5.92 34.6 5.91 35.78 C5.9 37.52 5.95 39.26 6 41 C7.58 42.58 9.28 42.22 11.47 42.32 C12.82 42.38 12.82 42.38 14.2 42.44 C15.14 42.48 16.09 42.52 17.06 42.56 C18.01 42.61 18.96 42.65 19.94 42.69 C22.29 42.8 24.65 42.9 27 43 C27.33 44.65 27.66 46.3 28 48 C23.52 48.03 19.04 48.05 14.56 48.06 C13.28 48.07 12 48.08 10.69 48.09 C9.47 48.09 8.26 48.09 7 48.1 C5.88 48.1 4.75 48.11 3.59 48.11 C1 48 1 48 0 47 C-0.09 45.53 -0.12 44.05 -0.11 42.57 C-0.11 41.63 -0.11 40.69 -0.11 39.72 C-0.11 38.7 -0.1 37.67 -0.1 36.62 C-0.1 35.58 -0.09 34.54 -0.09 33.46 C-0.09 30.12 -0.08 26.78 -0.06 23.44 C-0.06 21.18 -0.05 18.92 -0.05 16.66 C-0.04 11.11 -0.02 5.55 0 0 Z " fill="#2D2B2B" transform="translate(827,750)"/>
<path d="M0 0 C2.98 2.11 4.09 4.92 5.54 8.17 C5.85 8.83 6.15 9.48 6.47 10.16 C7.11 11.55 7.74 12.94 8.37 14.34 C9.34 16.48 10.32 18.61 11.31 20.74 C11.93 22.09 12.55 23.44 13.17 24.79 C13.46 25.43 13.76 26.07 14.06 26.73 C16.09 31.25 16.09 31.25 16.09 33.48 C17.58 33.98 17.58 33.98 19.09 34.48 C21.01 30.5 22.93 26.52 24.84 22.54 C25.38 21.43 25.92 20.31 26.47 19.16 C29.45 12.97 32.36 6.77 35.09 0.48 C37.57 0.98 37.57 0.98 40.09 1.48 C39.45 5.81 37.86 9.45 35.97 13.36 C35.33 14.69 34.69 16.03 34.06 17.37 C33.73 18.05 33.41 18.73 33.07 19.43 C31.52 22.67 29.99 25.92 28.47 29.17 C28.18 29.78 27.89 30.4 27.59 31.03 C24.92 36.78 22.46 42.61 20.09 48.48 C16.28 47.03 15.19 45.36 13.5 41.71 C13.05 40.75 12.6 39.78 12.13 38.79 C11.66 37.76 11.2 36.73 10.72 35.67 C10.23 34.63 9.75 33.58 9.25 32.51 C7.85 29.5 6.47 26.49 5.09 23.48 C4.44 22.09 3.8 20.7 3.15 19.31 C1.78 16.38 0.43 13.43 -0.91 10.48 C-1.25 9.75 -1.58 9.01 -1.93 8.25 C-3.19 5.45 -3.91 3.59 -3.91 0.48 C-1.91 -0.52 -1.91 -0.52 0 0 Z " fill="#2D2B2B" transform="translate(747.9091796875,749.51953125)"/>
<path d="M0 0 C2.74 -0.32 2.74 -0.32 6 0 C8.23 2.23 8.23 2.23 10.19 5.19 C10.84 6.15 11.49 7.11 12.17 8.11 C13.34 9.96 14.48 11.84 15.57 13.75 C17.31 16.48 19.15 17.54 22 19 C22.22 18.33 22.45 17.65 22.68 16.96 C24.38 13.16 26.67 10.03 29.12 6.69 C29.83 5.72 29.83 5.72 30.54 4.73 C31.69 3.15 32.84 1.58 34 0 C35.98 0.33 37.96 0.66 40 1 C39.02 2.54 38.04 4.08 37.06 5.62 C36.43 6.64 35.8 7.66 35.15 8.71 C33 12 33 12 30.57 15.07 C22.68 25.3 22.64 35.4 23 48 C21.33 48.04 19.67 48.04 18 48 C17 47 17 47 16.91 45.23 C16.91 44.46 16.92 43.7 16.93 42.91 C16.86 31.91 16.16 24.77 9 16 C7.74 14.27 6.51 12.52 5.29 10.77 C4.49 9.61 3.67 8.46 2.85 7.32 C0 3.33 0 3.33 0 0 Z " fill="#2C2B2B" transform="translate(1157,750)"/>
<path d="M0 0 C1.29 0.01 2.59 0.01 3.92 0.02 C4.95 0.02 4.95 0.02 6 0.02 C8.2 0.03 10.4 0.04 12.6 0.05 C14.09 0.06 15.58 0.06 17.07 0.06 C20.73 0.08 24.38 0.09 28.04 0.11 C28.7 1.43 29.36 2.75 30.04 4.11 C29.71 4.44 29.38 4.77 29.04 5.11 C24.75 5.11 20.46 5.11 16.04 5.11 C16.04 18.97 16.04 32.83 16.04 47.11 C14.06 47.61 14.06 47.61 12.04 48.11 C10.04 46.11 10.04 46.11 9.81 42.21 C9.81 40.53 9.83 38.85 9.85 37.17 C9.85 36.28 9.85 35.4 9.85 34.49 C9.87 31.65 9.89 28.82 9.92 25.99 C9.93 24.07 9.93 22.15 9.94 20.23 C9.97 15.53 10 10.82 10.04 6.11 C9.2 6.09 8.35 6.06 7.49 6.04 C5.84 5.95 5.84 5.95 4.17 5.86 C3.08 5.82 1.98 5.77 0.86 5.72 C-1.96 5.11 -1.96 5.11 -3.34 3.07 C-3.55 2.42 -3.75 1.78 -3.96 1.11 C-2.96 0.11 -2.96 0.11 0 0 Z " fill="#2D2B2B" transform="translate(1092.959228515625,749.886474609375)"/>
<path d="M0 0 C3.69 0.69 3.69 0.69 5 2 C5.11 4.84 5.14 7.66 5.12 10.5 C5.12 11.37 5.12 12.24 5.12 13.14 C5.05 24.43 4.52 35.72 4 47 C2.52 47.5 2.52 47.5 1 48 C0.34 47.67 -0.32 47.34 -1 47 C-1.03 40.47 -1.04 33.93 -1.05 27.4 C-1.06 25.18 -1.07 22.95 -1.08 20.73 C-1.09 17.54 -1.09 14.35 -1.1 11.16 C-1.1 10.16 -1.11 9.16 -1.11 8.13 C-1.11 7.21 -1.11 6.28 -1.11 5.34 C-1.12 4.52 -1.12 3.71 -1.12 2.87 C-1 1 -1 1 0 0 Z " fill="#2D2B2B" transform="translate(1045,750)"/>
<path d="M0 0 C1.65 0.33 3.3 0.66 5 1 C5 16.51 5 32.02 5 48 C3.35 47.67 1.7 47.34 0 47 C-0.17 40.47 -0.33 33.93 -0.48 27.4 C-0.54 25.18 -0.59 22.95 -0.65 20.73 C-0.73 17.54 -0.81 14.35 -0.88 11.16 C-0.92 9.66 -0.92 9.66 -0.96 8.13 C-0.98 7.21 -1 6.28 -1.02 5.34 C-1.04 4.52 -1.06 3.71 -1.08 2.87 C-1 1 -1 1 0 0 Z " fill="#2C2B2B" transform="translate(700,750)"/>
</svg>
