<?xml version="1.0" encoding="UTF-8"?>
<!-- Generator: visioncortex VTracer 0.6.3 -->
<svg version="1.1" xmlns="http://www.w3.org/2000/svg" width="904" height="1280">
<path d="M0 0 C5.61 0 11.22 0 17 0 C17 17.82 17 35.64 17 54 C38.45 54 59.9 54 82 54 C82 36.18 82 18.36 82 0 C87.61 0 93.22 0 99 0 C99 40.26 99 80.52 99 122 C93.39 122 87.78 122 82 122 C82 103.85 82 85.7 82 67 C60.55 67 39.1 67 17 67 C17 85.15 17 103.3 17 122 C11.39 122 5.78 122 0 122 C0 81.74 0 41.48 0 0 Z " fill="#000204" transform="translate(344,486)"/>
<path d="M0 0 C5.61 0 11.22 0 17 0 C17.01 2.37 17.03 4.73 17.04 7.17 C17.09 15.02 17.16 22.87 17.24 30.72 C17.28 35.48 17.32 40.23 17.35 44.99 C17.37 49.59 17.41 54.18 17.46 58.78 C17.48 60.53 17.49 62.27 17.5 64.02 C17.55 77.25 17.92 89.46 27 100 C33.88 106.34 41.85 107.86 51 108 C59.25 107.44 66.74 104.26 72.63 98.37 C81.04 87.54 80.14 73.35 80.08 60.37 C80.06 57.93 80.06 55.48 80.05 53.04 C80.04 47.86 80.02 42.68 80 37.5 C79.98 31.47 79.96 25.44 79.94 19.41 C79.94 16.99 79.93 14.58 79.91 12.16 C79.91 10.7 79.91 9.23 79.9 7.76 C79.9 6.48 79.89 5.19 79.89 3.87 C80 1 80 1 81 0 C83.86 -0.07 86.7 -0.09 89.56 -0.06 C90.37 -0.06 91.18 -0.05 92.01 -0.05 C94 -0.04 96 -0.02 98 0 C98.05 9.96 98.08 19.93 98.1 29.89 C98.11 34.52 98.13 39.14 98.15 43.77 C98.17 48.24 98.18 52.72 98.19 57.19 C98.19 58.89 98.2 60.59 98.21 62.29 C98.32 79.83 97.07 95.87 85.17 109.81 C75.49 119.58 62.52 123.97 49 124.25 C34.55 123.95 22.72 119.4 12.28 109.34 C0.18 96.25 -0.45 79.71 -0.29 62.89 C-0.29 61.07 -0.28 59.25 -0.28 57.43 C-0.27 52.67 -0.24 47.92 -0.21 43.16 C-0.18 38.3 -0.16 33.43 -0.15 28.56 C-0.11 19.04 -0.06 9.52 0 0 Z " fill="#000204" transform="translate(480,486)"/>
<path d="M0 0 C1.58 0.01 3.16 0.02 4.75 0.04 C5.55 0.04 6.36 0.04 7.19 0.05 C9.19 0.06 11.19 0.08 13.18 0.1 C16.57 7.39 19.73 14.74 22.7 22.21 C23.33 23.79 23.33 23.79 23.97 25.4 C25.34 28.83 26.71 32.26 28.08 35.69 C29.03 38.09 29.99 40.49 30.95 42.89 C32.95 47.89 34.94 52.9 36.93 57.91 C39.24 63.69 41.54 69.48 43.86 75.26 C46.09 80.84 48.31 86.42 50.53 92.01 C51.48 94.38 52.43 96.75 53.37 99.12 C54.69 102.41 56 105.72 57.32 109.02 C57.71 110 58.1 110.98 58.51 111.99 C58.86 112.89 59.22 113.79 59.58 114.71 C59.9 115.49 60.21 116.27 60.53 117.07 C61.18 119.1 61.18 119.1 61.18 122.1 C58.58 122.21 55.98 122.28 53.37 122.35 C52.63 122.38 51.9 122.41 51.13 122.45 C48.98 122.49 48.98 122.49 45.18 122.1 C42.4 119.19 41.13 115.84 39.7 112.12 C39.26 110.98 38.82 109.83 38.37 108.65 C37.91 107.46 37.46 106.26 37 105.04 C36.53 103.84 36.07 102.64 35.59 101.41 C32.18 92.49 32.18 92.49 32.18 89.1 C14.03 89.1 -4.12 89.1 -22.82 89.1 C-23.81 92.4 -24.8 95.7 -25.82 99.1 C-27.23 103 -28.8 106.82 -30.38 110.66 C-30.98 112.15 -30.98 112.15 -31.59 113.68 C-31.97 114.62 -32.36 115.57 -32.76 116.54 C-33.11 117.39 -33.45 118.24 -33.81 119.12 C-34.82 121.1 -34.82 121.1 -36.82 122.1 C-39.54 122.17 -42.22 122.19 -44.94 122.16 C-46.35 122.15 -47.75 122.14 -49.16 122.13 C-50.36 122.12 -51.57 122.11 -52.82 122.1 C-44.69 100.66 -36.18 79.38 -27.65 58.1 C-25.84 53.6 -24.03 49.09 -22.23 44.58 C-20.19 39.5 -18.16 34.41 -16.12 29.33 C-15.81 28.56 -15.5 27.79 -15.19 27 C-14.59 25.51 -13.99 24.02 -13.39 22.53 C-11.94 18.91 -10.5 15.3 -9.07 11.68 C-8.79 10.98 -8.51 10.28 -8.23 9.56 C-7.48 7.65 -6.72 5.75 -5.97 3.84 C-4.4 0.11 -4.4 0.11 0 0 Z M4.18 18.1 C3.8 19.12 3.41 20.15 3.01 21.21 C1.54 25.11 0.06 29.01 -1.41 32.92 C-2.04 34.59 -2.68 36.26 -3.31 37.93 C-4.23 40.37 -5.15 42.81 -6.07 45.25 C-6.38 46.05 -6.68 46.86 -7 47.7 C-8.58 51.89 -10.19 56.07 -11.84 60.24 C-12.17 61.06 -12.49 61.88 -12.83 62.73 C-13.45 64.3 -14.08 65.87 -14.71 67.43 C-15.91 70.46 -16.82 72.8 -16.82 76.1 C-2.63 76.1 11.56 76.1 26.18 76.1 C24.14 69.3 22.01 62.74 19.46 56.14 C18.94 54.79 18.94 54.79 18.41 53.41 C17.32 50.55 16.22 47.7 15.12 44.85 C14.02 41.98 12.92 39.11 11.82 36.25 C11.14 34.47 10.46 32.7 9.77 30.92 C8.14 26.68 6.58 22.43 5.18 18.1 C4.85 18.1 4.52 18.1 4.18 18.1 Z " fill="#000204" transform="translate(257.81640625,485.90234375)"/>
<path d="M0 0 C2.74 2.01 4.56 4.14 6.56 6.88 C5.52 8.39 4.45 9.89 3.37 11.38 C2.78 12.21 2.19 13.05 1.58 13.91 C-0.44 15.88 -0.44 15.88 -2.88 16.34 C-5.9 15.8 -7.7 14.76 -10.25 13.07 C-17.76 8.11 -24.3 6.33 -33.25 6.44 C-34.14 6.45 -35.02 6.46 -35.93 6.46 C-42.72 6.64 -48.4 7.62 -54.44 10.88 C-55.24 11.29 -56.03 11.7 -56.85 12.13 C-67.06 18.13 -71.52 27.77 -74.44 38.88 C-77.98 52.9 -75.7 68.98 -68.87 81.57 C-63.02 91.04 -55.14 96.01 -44.5 99.25 C-31.36 101.89 -18.61 99.41 -7.4 92.28 C-5.34 90.89 -5.34 90.89 -3.44 88.88 C-1.25 88.32 -1.25 88.32 1.56 88.88 C4.12 91.01 6.35 93.39 8.56 95.88 C5.18 104.07 -4.14 108.67 -11.91 111.92 C-27.26 117.75 -44.34 117.39 -59.71 111.66 C-75.56 104.33 -85.47 91.38 -91.38 75.33 C-97.29 56.58 -94.64 36.62 -86.13 19.2 C-78.88 6.01 -66.81 -3.25 -52.48 -7.61 C-34 -12.22 -16.26 -9.51 0 0 Z " fill="#000204" transform="translate(701.44140625,494.12109375)"/>
<path d="M0 0 C2.64 0 5.28 0 8 0 C9.56 3.12 9.12 6.43 9.1 9.85 C9.1 10.54 9.1 11.22 9.09 11.93 C9.09 14.5 9.08 17.06 9.06 19.62 C9.04 25.36 9.02 31.09 9 37 C21.54 36.67 34.08 36.34 47 36 C42.71 26.71 42.71 26.71 35.67 21.16 C34 20 34 20 33 18 C32.5 14.24 32.66 12.52 34.75 9.31 C42.02 4.14 50.61 3.35 59.3 4.44 C64 5.42 67.36 6.75 70.31 10.8 C72.79 15.22 73.72 18.9 73 24 C71.45 28.32 69.55 32.18 67 36 C72.61 36.33 78.22 36.66 84 37 C84.08 34.4 84.16 31.8 84.25 29.12 C84.65 20.98 85.57 13.71 91.31 7.5 C97.53 4.03 103.16 3.29 110 5 C115.14 7.62 118.75 11.2 120.59 16.8 C122.07 24.76 121.73 32.79 118 40 C114.42 44.34 111.39 46.67 105.74 47.22 C101.27 47.38 97.72 47.1 93.56 45.38 C91.8 44.69 91.8 44.69 90 44 C89.01 44.66 88.02 45.32 87 46 C83.98 46.24 83.98 46.24 80.32 46.23 C79.67 46.23 79.02 46.23 78.35 46.23 C76.98 46.23 75.6 46.22 74.23 46.21 C72.14 46.19 70.05 46.19 67.96 46.19 C57.71 46.15 57.71 46.15 54.25 45.43 C51.84 44.78 51.84 44.78 49 46 C47.57 46.11 46.14 46.17 44.72 46.19 C43.85 46.21 42.99 46.22 42.11 46.24 C38.17 46.29 34.24 46.33 30.3 46.35 C28.23 46.37 26.16 46.39 24.09 46.43 C21.09 46.49 18.1 46.51 15.11 46.52 C14.18 46.55 13.26 46.57 12.31 46.59 C7.81 46.58 4.91 46.4 1.37 43.47 C0.59 42.65 -0.19 41.84 -1 41 C-1.99 41.5 -1.99 41.5 -3 42 C-10.7 42.65 -16.09 42.15 -22.25 37.19 C-26.54 31.82 -26.64 25.59 -26 19 C-25.04 14.34 -23.56 11.58 -20.25 8.12 C-14 4.04 -8.23 3.7 -1 4 C-0.67 2.68 -0.34 1.36 0 0 Z M-14.83 15.21 C-17.13 18.74 -17.12 22.88 -17 27 C-15.67 30.11 -15.01 31.5 -12 33 C-8.58 33.25 -5.94 33.43 -2.79 32 C-0.05 28.94 -0.57 25.7 -0.75 21.81 C-0.78 20.69 -0.78 20.69 -0.8 19.54 C-0.85 17.69 -0.92 15.85 -1 14 C-2.94 13.92 -4.87 13.86 -6.81 13.81 C-7.89 13.78 -8.97 13.74 -10.08 13.71 C-12.96 13.77 -12.96 13.77 -14.83 15.21 Z M46 14 C46 17.52 46.42 17.76 48.75 20.19 C52.04 23.84 53.96 27.53 56 32 C58.96 30.7 59.92 30.13 61.75 27.31 C63.17 23.55 63.53 20.99 63 17 C60.61 14.48 59.25 14.02 55.77 13.71 C54.03 13.76 54.03 13.76 52.25 13.81 C51.08 13.84 49.91 13.87 48.7 13.89 C47.81 13.93 46.92 13.96 46 14 Z M97.06 15.38 C94.73 18.94 94.8 21.63 94.75 25.88 C94.72 27.11 94.7 28.34 94.67 29.62 C95.02 33.2 95.4 34.57 98 37 C100.65 38.06 103.16 38.24 106 38 C108.82 36.38 110.43 35.22 111.81 32.25 C112.38 25.44 112.22 21.06 109 15 C105.29 13.14 100.46 12.96 97.06 15.38 Z " fill="#000204" transform="translate(483,734)"/>
<path d="M0 0 C0.99 0.1 1.98 0.21 3 0.31 C5.22 3.64 5.25 4.65 5.23 8.52 C5.23 10.11 5.23 10.11 5.23 11.73 C5.22 12.88 5.21 14.02 5.2 15.2 C5.19 16.37 5.19 17.54 5.19 18.75 C5.18 22.5 5.15 26.25 5.12 30 C5.11 32.54 5.11 35.08 5.1 37.62 C5.08 43.85 5.04 50.08 5 56.31 C14.57 56.31 24.14 56.31 34 56.31 C34.09 53.08 34.09 53.08 34.18 49.79 C34.25 47.71 34.31 45.63 34.37 43.55 C34.42 42.1 34.46 40.65 34.5 39.21 C34.55 37.13 34.62 35.05 34.68 32.97 C34.72 31.72 34.76 30.47 34.79 29.18 C35 26.31 35 26.31 36 25.31 C38.33 25.27 40.67 25.27 43 25.31 C44.37 28.05 44.22 30.36 44.32 33.41 C44.36 34.63 44.4 35.84 44.44 37.09 C44.48 38.36 44.52 39.63 44.56 40.94 C44.61 42.22 44.65 43.5 44.69 44.81 C44.8 47.98 44.9 51.15 45 54.31 C47.62 55.62 49.53 55.43 52.46 55.43 C53.6 55.43 54.74 55.43 55.92 55.43 C57.15 55.42 58.39 55.42 59.66 55.41 C60.93 55.41 62.19 55.41 63.49 55.41 C66.85 55.4 70.2 55.39 73.56 55.38 C76.99 55.37 80.41 55.37 83.84 55.36 C90.56 55.35 97.28 55.33 104 55.31 C104.08 52.92 104.14 50.52 104.19 48.12 C104.21 47.45 104.24 46.78 104.26 46.08 C104.33 41.61 103.76 38.86 101 35.31 C97.31 33.47 93.03 33.82 89 34.31 C86.23 36.28 86.23 36.28 84 38.31 C80.9 38.24 79.54 37.77 77.19 35.75 C76.8 35.28 76.4 34.8 76 34.31 C76.86 30.56 78.37 28.71 81.44 26.56 C87.13 23.31 93.1 22.63 99.53 23.76 C105.68 25.54 109.13 28.58 112.75 33.88 C115.57 39.38 115.37 45.21 115.72 51.29 C115.66 54.19 115.66 54.19 117 55.31 C119.35 55.55 121.71 55.73 124.06 55.88 C125.35 55.96 126.64 56.04 127.97 56.13 C129.47 56.22 129.47 56.22 131 56.31 C131 55.66 130.99 55 130.99 54.32 C130.94 47.49 130.91 40.66 130.89 33.83 C130.88 31.28 130.87 28.73 130.85 26.18 C130.82 22.52 130.81 18.86 130.8 15.2 C130.79 14.06 130.78 12.91 130.77 11.73 C130.77 10.67 130.77 9.61 130.77 8.52 C130.77 7.58 130.76 6.65 130.76 5.69 C131 3.31 131 3.31 133 0.31 C136 0 136 0 139 0.31 C141.54 2.86 141.26 3.77 141.27 7.29 C141.28 8.33 141.29 9.37 141.3 10.44 C141.3 12.13 141.3 12.13 141.3 13.86 C141.31 15.01 141.31 16.17 141.31 17.36 C141.32 19.82 141.32 22.27 141.32 24.72 C141.31 28.47 141.34 32.21 141.36 35.96 C141.36 38.34 141.36 40.72 141.36 43.11 C141.37 44.22 141.38 45.34 141.39 46.49 C141.35 53.36 140.98 58.8 136.37 64.23 C132.66 65.92 129.09 65.71 125.06 65.62 C124.26 65.63 123.47 65.63 122.64 65.63 C119.11 65.6 116.49 65.51 113.18 64.17 C112.46 63.89 111.74 63.6 111 63.31 C110.42 63.62 109.84 63.93 109.25 64.24 C106.32 65.64 104.06 65.57 100.83 65.57 C99.58 65.58 98.33 65.58 97.04 65.59 C95.69 65.59 94.33 65.58 92.97 65.58 C91.57 65.58 90.17 65.58 88.78 65.58 C85.85 65.59 82.93 65.58 80 65.57 C76.26 65.56 72.51 65.57 68.76 65.58 C65.88 65.59 63 65.59 60.11 65.58 C58.73 65.58 57.35 65.58 55.97 65.59 C54.04 65.59 52.11 65.58 50.17 65.57 C49.08 65.57 47.98 65.57 46.85 65.57 C44.04 65.32 42.38 64.77 40 63.31 C39.01 63.97 38.02 64.63 37 65.31 C34.39 65.54 31.88 65.66 29.26 65.68 C28.5 65.69 27.74 65.7 26.96 65.71 C25.36 65.73 23.75 65.73 22.15 65.74 C19.71 65.75 17.27 65.8 14.82 65.85 C13.26 65.86 11.7 65.87 10.14 65.87 C9.41 65.89 8.69 65.91 7.94 65.93 C4.1 65.9 1.55 65.35 -1.45 63.03 C-5.13 59.12 -5.12 56.17 -5.15 50.93 C-5.15 49.86 -5.16 48.78 -5.16 47.68 C-5.17 46.52 -5.17 45.37 -5.17 44.18 C-5.17 42.99 -5.17 41.8 -5.18 40.58 C-5.18 38.07 -5.19 35.56 -5.19 33.05 C-5.19 29.2 -5.21 25.34 -5.22 21.49 C-5.23 19.05 -5.23 16.62 -5.23 14.18 C-5.24 13.02 -5.24 11.86 -5.25 10.67 C-5.25 9.6 -5.25 8.53 -5.24 7.43 C-5.24 6.49 -5.25 5.55 -5.25 4.58 C-4.84 0.88 -3.57 0.37 0 0 Z " fill="#000204" transform="translate(256,714.6875)"/>
<path d="M0 0 C3.06 0.19 3.06 0.19 5.06 2.19 C5.3 4.48 5.3 4.48 5.29 7.37 C5.29 8.47 5.29 9.56 5.29 10.69 C5.28 11.85 5.27 13 5.26 14.2 C5.26 15.25 5.25 16.31 5.25 17.41 C5.24 21.37 5.21 25.34 5.19 29.31 C5.15 38.18 5.11 47.05 5.06 56.19 C26.18 55.86 47.3 55.53 69.06 55.19 C70.11 47.87 70.28 42.08 66.56 35.56 C62.54 33.35 58.54 33.42 54.06 34.19 C51.29 36.15 51.29 36.15 49.06 38.19 C45.96 38.11 44.6 37.65 42.25 35.62 C41.86 35.15 41.47 34.68 41.06 34.19 C41.92 30.44 43.44 28.59 46.5 26.44 C52.19 23.18 58.17 22.5 64.59 23.63 C70.73 25.41 74.15 28.45 77.81 33.69 C80.22 38.5 80.25 43.31 80.31 48.62 C80.34 49.9 80.36 51.18 80.39 52.5 C80.03 56.53 79.29 58.82 77.06 62.19 C73.07 65.2 70.09 65.57 65.15 65.59 C64.47 65.6 63.8 65.61 63.1 65.61 C60.88 65.63 58.66 65.63 56.44 65.62 C54.89 65.63 53.34 65.63 51.79 65.64 C48.54 65.65 45.3 65.64 42.05 65.63 C37.9 65.62 33.75 65.64 29.59 65.67 C26.39 65.69 23.19 65.69 19.99 65.68 C18.46 65.68 16.93 65.69 15.4 65.7 C13.26 65.72 11.12 65.71 8.98 65.69 C7.76 65.69 6.54 65.69 5.29 65.69 C1.45 65.09 -0.2 63.88 -2.94 61.19 C-4.25 58.56 -4.06 56.6 -4.07 53.65 C-4.07 52.49 -4.07 51.34 -4.08 50.14 C-4.07 48.89 -4.07 47.63 -4.07 46.34 C-4.07 45.06 -4.07 43.78 -4.07 42.45 C-4.07 39.74 -4.07 37.03 -4.07 34.31 C-4.06 30.83 -4.07 27.34 -4.07 23.85 C-4.08 20.54 -4.07 17.22 -4.07 13.9 C-4.07 12.65 -4.07 11.39 -4.08 10.09 C-4.07 8.94 -4.07 7.78 -4.07 6.59 C-4.07 5.57 -4.07 4.55 -4.06 3.5 C-3.87 0.02 -3.53 0.23 0 0 Z " fill="#000204" transform="translate(620.9375,714.8125)"/>
<path d="M0 0 C183.48 0 366.96 0 556 0 C556 0.99 556 1.98 556 3 C372.52 3 189.04 3 0 3 C0 2.01 0 1.02 0 0 Z " fill="#000204" transform="translate(174,670)"/>
<path d="M0 0 C4.77 4.32 7.3 9.42 7.83 15.86 C7.95 22.84 7.84 29.77 2.97 35.23 C-2.04 39.69 -6.08 40.75 -12.74 40.65 C-16.89 40.22 -20.1 38.97 -23.38 36.38 C-29.09 29.09 -28.9 21.22 -28.38 12.38 C-27.56 7.94 -25.92 4.56 -22.56 1.5 C-15.22 -3.39 -7.97 -3.84 0 0 Z M-16.81 9.12 C-19.76 13.37 -19.72 17.26 -19.38 22.38 C-18.46 25.73 -17.33 28.56 -14.62 30.88 C-11.25 31.63 -8.71 31.22 -5.38 30.38 C-1.51 26.28 -1.22 21.82 -1.38 16.38 C-2.05 13.38 -3 11.17 -4.38 8.38 C-8.59 6.27 -13.08 6.45 -16.81 9.12 Z " fill="#000204" transform="translate(231.375,740.625)"/>
<path d="M0 0 C3.06 0.19 3.06 0.19 5.06 2.19 C5.31 4.73 5.31 4.73 5.31 7.98 C5.31 9.2 5.31 10.41 5.31 11.66 C5.31 12.98 5.3 14.3 5.29 15.66 C5.29 17.02 5.29 18.38 5.29 19.74 C5.29 22.59 5.28 25.44 5.27 28.29 C5.25 31.95 5.25 35.61 5.25 39.27 C5.25 42.08 5.24 44.88 5.24 47.69 C5.23 49.7 5.23 51.71 5.23 53.71 C5.22 54.93 5.21 56.14 5.21 57.39 C5.2 58.47 5.2 59.54 5.2 60.64 C5.06 63.19 5.06 63.19 4.06 65.19 C1.42 65.19 -1.22 65.19 -3.94 65.19 C-3.96 56.86 -3.98 48.53 -3.99 40.21 C-3.99 36.34 -4 32.47 -4.01 28.61 C-4.02 24.88 -4.03 21.15 -4.03 17.42 C-4.03 16 -4.04 14.57 -4.04 13.15 C-4.05 11.16 -4.05 9.17 -4.05 7.18 C-4.05 6.04 -4.06 4.91 -4.06 3.74 C-3.89 0.08 -3.7 0.24 0 0 Z " fill="#000204" transform="translate(414.9375,714.8125)"/>
<path d="M0 0 C3 0.19 3 0.19 5 1.19 C5 1.85 5 2.51 5 3.19 C5.66 3.19 6.32 3.19 7 3.19 C7 2.53 7 1.87 7 1.19 C9.76 -0.19 11.95 -0 15 0.19 C17 2.19 17 2.19 17.2 4.35 C17.17 5.16 17.15 5.98 17.12 6.81 C17.11 7.63 17.09 8.45 17.07 9.29 C17.05 9.92 17.02 10.54 17 11.19 C14.04 12.67 11.26 12.25 8 12.19 C7.67 11.2 7.34 10.21 7 9.19 C6.34 9.19 5.68 9.19 5 9.19 C4.67 10.18 4.34 11.17 4 12.19 C-2.75 12.31 -2.75 12.31 -5 11.19 C-5.05 9.73 -5.09 8.27 -5.12 6.81 C-5.16 5.59 -5.16 5.59 -5.2 4.35 C-4.86 0.69 -3.51 0.22 0 0 Z " fill="#000204" transform="translate(469,719.8125)"/>
<path d="M0 0 C3 0.19 3 0.19 5 1.19 C6.42 8.55 6.42 8.55 4 12.19 C1.26 12.66 -1.2 12.37 -4 12.19 C-5.59 10.6 -5.17 8.94 -5.19 6.75 C-5.2 5.95 -5.22 5.14 -5.23 4.32 C-4.84 0.68 -3.49 0.22 0 0 Z " fill="#000204" transform="translate(681,782.8125)"/>
<path d="M0 0 C1.48 -0.03 2.96 -0.05 4.44 -0.06 C5.26 -0.07 6.08 -0.09 6.93 -0.1 C9 0 9 0 10 1 C10.1 2.5 10.13 4 10.12 5.5 C10.13 6.31 10.13 7.13 10.13 7.97 C10 10 10 10 9 11 C3.26 11.27 3.26 11.27 1 11 C-1 9 -1 9 -1.19 5.5 C-1 2 -1 2 0 0 Z " fill="#000204" transform="translate(295,784)"/>
<path d="M0 0 C5.98 0.12 5.98 0.12 7.09 1.23 C7.19 2.73 7.22 4.23 7.21 5.73 C7.22 6.55 7.22 7.36 7.22 8.2 C7.09 10.23 7.09 10.23 6.09 11.23 C4.57 11.3 3.05 11.31 1.53 11.29 C0.7 11.28 -0.13 11.27 -0.98 11.27 C-1.61 11.25 -2.25 11.24 -2.91 11.23 C-4.42 8.22 -4.09 5.55 -3.91 2.23 C-1.91 0.23 -1.91 0.23 0 0 Z " fill="#000204" transform="translate(224.91015625,723.76953125)"/>
<path d="M0 0 C1.24 0.02 1.24 0.02 2.5 0.04 C3.32 0.04 4.15 0.05 5 0.06 C5.64 0.07 6.28 0.09 6.93 0.1 C6.96 1.74 6.98 3.39 7 5.04 C7.01 5.95 7.02 6.87 7.03 7.81 C6.93 10.1 6.93 10.1 5.93 11.1 C4.12 11.23 4.12 11.23 1.93 11.22 C1.21 11.23 0.49 11.23 -0.25 11.23 C-2.07 11.1 -2.07 11.1 -3.07 10.1 C-3.16 8.6 -3.2 7.1 -3.19 5.6 C-3.19 4.78 -3.2 3.97 -3.2 3.13 C-3.02 0.35 -2.78 0.13 0 0 Z " fill="#000204" transform="translate(286.06640625,783.90234375)"/>
<path d="M0 0 C0.72 0 1.44 0.01 2.19 0.01 C2.91 0.01 3.63 0 4.38 0 C6.19 0.13 6.19 0.13 7.19 1.13 C7.26 2.82 7.27 4.51 7.25 6.2 C7.24 7.11 7.23 8.03 7.22 8.98 C7.21 9.69 7.2 10.4 7.19 11.13 C5.71 11.16 4.23 11.18 2.75 11.2 C1.51 11.21 1.51 11.21 0.25 11.23 C-1.81 11.13 -1.81 11.13 -2.81 10.13 C-2.91 8.64 -2.94 7.13 -2.94 5.63 C-2.94 4.82 -2.94 4 -2.95 3.16 C-2.78 0.56 -2.61 0.19 0 0 Z " fill="#000204" transform="translate(212.8125,723.8671875)"/>
</svg>
