<?xml version="1.0" encoding="UTF-8"?>
<!-- Generator: visioncortex VTracer 0.6.3 -->
<svg version="1.1" xmlns="http://www.w3.org/2000/svg" width="1280" height="452">
<path d="M0 0 C422.4 0 844.8 0 1280 0 C1280 149.16 1280 298.32 1280 452 C857.6 452 435.2 452 0 452 C0 302.84 0 153.68 0 0 Z " fill="#F9FCFE" transform="translate(0,0)"/>
<path d="M0 0 C0.99 0.33 1.98 0.66 3 1 C4.17 3.62 4.17 3.62 5.26 7.08 C5.66 8.32 6.05 9.57 6.46 10.85 C6.76 11.82 6.76 11.82 7.07 12.82 C7.68 14.8 8.31 16.77 8.95 18.74 C12 28.43 12 28.43 12 33 C8.63 34.5 6.8 35 3 35 C5.77 38.81 9.63 39.07 14 40 C8.86 44.13 3.66 48.17 -1.56 52.19 C-2.51 52.92 -3.45 53.66 -4.43 54.42 C-5.8 55.47 -5.8 55.47 -7.19 56.54 C-8.02 57.18 -8.85 57.82 -9.7 58.48 C-11.91 59.94 -13.36 60.79 -16 61 C-18.5 58.81 -18.5 58.81 -21 56 C-21.76 55.24 -22.53 54.47 -23.31 53.69 C-23.87 53.13 -24.43 52.57 -25 52 C-24.77 53.05 -24.77 53.05 -24.53 54.12 C-24.33 55.03 -24.14 55.94 -23.94 56.88 C-23.64 58.23 -23.64 58.23 -23.34 59.62 C-23 62 -23 62 -24 64 C-24.94 63.3 -25.89 62.6 -26.86 61.88 C-28.16 60.92 -29.45 59.96 -30.75 59 C-31.42 58.5 -32.1 58 -32.79 57.49 C-37.99 53.67 -43.31 50.14 -48.8 46.75 C-51 45 -51 45 -51.94 42.98 C-52.04 39.64 -49.93 37.58 -48 35 C-50.83 33.69 -50.83 33.69 -52.82 34.78 C-53.44 35.16 -54.05 35.54 -54.69 35.94 C-56.33 36.96 -56.33 36.96 -58 38 C-57.34 30.95 -55.12 24.41 -53 17.69 C-52.45 15.9 -52.45 15.9 -51.88 14.08 C-49.15 5.31 -49.15 5.31 -48 3 C-38.4 3.77 -29.94 6.52 -21 10 C-21 10.66 -21 11.32 -21 12 C-18.36 11.01 -15.72 10.02 -13 9 C-12 10 -12 10 -12 16 C-17.28 17.32 -22.56 18.64 -28 20 C-28.66 18.02 -29.32 16.04 -30 14 C-30.33 19.28 -30.66 24.56 -31 30 C-34 31 -34 31 -37 31 C-37.33 31.99 -37.66 32.98 -38 34 C-38.99 34 -39.98 34 -41 34 C-42.26 36.91 -43 38.8 -43 42 C-40.46 44.2 -40.46 44.2 -37.25 46.25 C-36.18 46.98 -35.12 47.7 -34.02 48.45 C-30.94 50.45 -30.94 50.45 -27 49 C-28.98 46.36 -30.96 43.72 -33 41 C-32.67 40.34 -32.34 39.68 -32 39 C-24.08 40.66 -24.08 40.66 -21.46 43.91 C-20.25 46.06 -20.25 46.06 -19.27 48.16 C-17.46 50.78 -16.11 51.39 -13 52 C-9.98 50.68 -9.98 50.68 -7.19 48.44 C-6.21 47.73 -5.24 47.03 -4.23 46.31 C-1.74 44.2 -1.74 44.2 -1.68 41.22 C-1.78 40.49 -1.89 39.76 -2 39 C-6.45 39.5 -6.45 39.5 -11 40 C-10.69 39.26 -10.38 38.51 -10.06 37.75 C-9.19 35.49 -8.52 33.35 -8 31 C-8.99 30.67 -9.98 30.34 -11 30 C-12.61 28.04 -12.61 28.04 -14.19 25.62 C-14.72 24.83 -15.25 24.04 -15.79 23.23 C-17 21 -17 21 -17 18 C-15.35 17.67 -13.7 17.34 -12 17 C-10.66 18.62 -9.33 20.25 -8 21.88 C-7.26 22.78 -6.51 23.68 -5.75 24.62 C-4 27 -4 27 -4 29 C-3.01 29 -2.02 29 -1 29 C-1 29.66 -1 30.32 -1 31 C0.65 30.34 2.3 29.68 4 29 C3.55 27.27 3.09 25.54 2.62 23.81 C2.37 22.85 2.11 21.89 1.85 20.89 C0.52 15.48 0.52 15.48 -3.12 11.69 C-3.74 11.46 -4.36 11.23 -5 11 C-4.62 8.56 -4.62 8.56 -4 6 C-3.34 5.67 -2.68 5.34 -2 5 C-1.28 3.36 -0.61 1.69 0 0 Z " fill="#333855" transform="translate(366,197)"/>
<path d="M0 0 C0.73 0.02 1.46 0.04 2.22 0.06 C7.55 0.24 7.55 0.24 8.75 1.44 C9.16 4.59 9.52 7.73 9.82 10.89 C10.31 15.14 10.6 16.28 13.75 19.44 C13.75 16.47 13.75 13.5 13.75 10.44 C17.01 10.44 18.14 10.55 20.75 12.44 C22.27 15.59 22.27 15.59 23.56 19.38 C23.79 20.01 24.02 20.64 24.26 21.29 C25.39 24.59 25.88 26.05 24.75 29.44 C23.1 29.77 21.45 30.1 19.75 30.44 C19.75 29.78 19.75 29.12 19.75 28.44 C18.76 28.44 17.77 28.44 16.75 28.44 C14.61 25.68 12.77 22.78 10.88 19.84 C8.97 17.16 8.97 17.16 5.99 17.09 C4.88 17.26 4.88 17.26 3.75 17.44 C6.32 22.37 8.63 26.62 12.75 30.44 C12.75 31.1 12.75 31.76 12.75 32.44 C13.74 32.93 13.74 32.93 14.75 33.44 C13.76 34.1 12.77 34.76 11.75 35.44 C11.42 36.43 11.09 37.42 10.75 38.44 C15.7 37.94 15.7 37.94 20.75 37.44 C19.76 37.93 19.76 37.93 18.75 38.44 C19.25 40.91 19.25 40.91 19.75 43.44 C17.87 45 15.98 46.54 14.06 48.06 C13.53 48.51 13 48.95 12.46 49.41 C10.86 50.66 10.86 50.66 7.75 52.44 C4.4 51.89 3.22 51.08 1.23 48.34 C0.8 47.55 0.38 46.76 -0.06 45.94 C-2.14 42.53 -2.14 42.53 -5.41 40.4 C-7.84 39.78 -7.84 39.78 -11.25 39.44 C-9.27 42.74 -7.29 46.04 -5.25 49.44 C-10.25 50.44 -10.25 50.44 -12.1 49.72 C-12.94 49.15 -12.94 49.15 -13.8 48.57 C-14.72 47.95 -14.72 47.95 -15.67 47.33 C-16.29 46.89 -16.92 46.45 -17.56 46 C-18.21 45.57 -18.85 45.13 -19.52 44.69 C-21.1 43.62 -22.68 42.53 -24.25 41.44 C-22.93 38.8 -21.61 36.16 -20.25 33.44 C-19.26 33.44 -18.27 33.44 -17.25 33.44 C-16.92 29.15 -16.59 24.86 -16.25 20.44 C-15.92 20.44 -15.59 20.44 -15.25 20.44 C-15.25 23.41 -15.25 26.38 -15.25 29.44 C-13.93 29.44 -12.61 29.44 -11.25 29.44 C-10.59 24.16 -9.93 18.88 -9.25 13.44 C-8.26 13.77 -7.27 14.1 -6.25 14.44 C-6.91 14.44 -7.57 14.44 -8.25 14.44 C-7.59 15.76 -6.93 17.08 -6.25 18.44 C-5.42 18.22 -4.59 18 -3.73 17.78 C-2.64 17.5 -1.56 17.22 -0.44 16.94 C0.64 16.66 1.72 16.38 2.83 16.09 C5.75 15.44 5.75 15.44 8.75 15.44 C8.25 12.47 8.25 12.47 7.75 9.44 C7.21 9.67 6.66 9.89 6.11 10.13 C5.39 10.42 4.67 10.7 3.94 11 C3.23 11.29 2.52 11.58 1.79 11.88 C-0.25 12.44 -0.25 12.44 -3.25 11.44 C-2.59 11.11 -1.93 10.78 -1.25 10.44 C-5.27 8.63 -8.86 7.1 -13.25 6.44 C-9.33 0.57 -6.93 -0.44 0 0 Z " fill="#FAFDFF" transform="translate(345.25,197.5625)"/>
<path d="M0 0 C-0.63 1.86 -0.63 1.86 -2 4 C-4.71 5.27 -4.71 5.27 -7.94 6.25 C-9.53 6.75 -9.53 6.75 -11.15 7.27 C-14 8 -14 8 -17 8 C-15.07 10.72 -13.05 13.36 -11 16 C-10.53 16.68 -10.06 17.36 -9.57 18.05 C-6.69 21.65 -4.85 22.85 -0.22 23.66 C3.52 23.98 7.24 24.03 11 24 C10.79 23.07 10.59 22.14 10.38 21.19 C10 18 10 18 12 15 C12.66 15 13.32 15 14 15 C15.23 17.46 15.17 19.19 15.19 21.94 C15.2 22.81 15.22 23.69 15.23 24.59 C15 27 15 27 13 30 C10.23 30.29 7.68 30.39 4.91 30.36 C4.07 30.36 3.24 30.36 2.38 30.36 C-0.39 30.37 -3.17 30.35 -5.94 30.33 C-7.86 30.33 -9.78 30.32 -11.7 30.32 C-15.73 30.32 -19.76 30.3 -23.78 30.28 C-28.96 30.25 -34.13 30.24 -39.3 30.24 C-43.27 30.23 -47.23 30.22 -51.2 30.21 C-53.11 30.21 -55.02 30.2 -56.92 30.2 C-59.59 30.19 -62.25 30.18 -64.91 30.16 C-65.7 30.16 -66.5 30.16 -67.32 30.16 C-72.77 30.11 -72.77 30.11 -75 29 C-77.04 28.77 -79.08 28.59 -81.12 28.44 C-82.77 28.31 -82.77 28.31 -84.45 28.18 C-85.71 28.09 -85.71 28.09 -87 28 C-88 25 -88 25 -87.06 22.12 C-84.72 18.58 -82.59 17.19 -78.94 15.18 C-76.97 13.98 -75.55 12.68 -74 11 C-72 13 -72 13 -71 23 C-56.15 23.5 -56.15 23.5 -41 24 C-41.5 22.51 -41.5 22.51 -42 21 C-41.01 20.01 -40.02 19.02 -39 18 C-38.61 18.81 -38.23 19.63 -37.83 20.47 C-36.26 23.22 -36.26 23.22 -33.55 23.57 C-32.6 23.54 -31.65 23.52 -30.68 23.49 C-29.65 23.47 -28.62 23.46 -27.56 23.44 C-26.49 23.4 -25.42 23.36 -24.31 23.31 C-22.69 23.28 -22.69 23.28 -21.03 23.24 C-18.35 23.19 -15.68 23.1 -13 23 C-13.76 21.88 -14.52 20.76 -15.29 19.65 C-15.72 19.03 -16.14 18.41 -16.58 17.77 C-18.7 15.12 -21.08 13.7 -24 12 C-22.95 8.52 -22.35 6.68 -20 4 C-13.57 1.12 -7.04 -0.26 0 0 Z " fill="#373C58" transform="translate(680,286)"/>
<path d="M0 0 C3 2 3 2 3.73 4.38 C4.15 6.92 4.58 9.46 5 12 C10.94 12.33 16.88 12.66 23 13 C22.34 11.35 21.68 9.7 21 8 C20.34 8 19.68 8 19 8 C18.67 7.01 18.34 6.02 18 5 C21.81 0.23 21.81 0.23 25.04 -0.4 C27.19 -0.44 27.19 -0.44 31 0 C33 2 33 2 33.19 5.44 C33 9 33 9 32 12 C36.14 12.22 40.28 12.39 44.43 12.49 C45.84 12.54 47.25 12.6 48.65 12.68 C57.05 13.38 57.05 13.38 64.35 9.99 C66.19 7.59 66.19 7.59 67.52 5.05 C69 3 69 3 71.68 2.22 C72.83 2.11 72.83 2.11 74 2 C79.36 8.43 79.36 8.43 79.5 13.19 C79.01 16.89 78.6 18.4 76 21 C71.15 20.22 66.62 18.6 62 17 C62 17.66 62 18.32 62 19 C54.21 19.02 46.42 19.04 38.63 19.05 C35.02 19.06 31.4 19.06 27.79 19.08 C24.3 19.09 20.81 19.09 17.32 19.09 C15.34 19.1 13.36 19.11 11.37 19.11 C9.57 19.11 9.57 19.11 7.73 19.11 C6.14 19.12 6.14 19.12 4.52 19.12 C2 19 2 19 0 18 C-2.04 17.77 -4.08 17.59 -6.12 17.44 C-7.77 17.31 -7.77 17.31 -9.45 17.18 C-10.71 17.09 -10.71 17.09 -12 17 C-13.07 13.74 -13.13 13.27 -11.5 10 C-8.55 6.46 -6.03 5.17 -2 3 C-1.34 2.01 -0.68 1.02 0 0 Z " fill="#383D5A" transform="translate(819,297)"/>
<path d="M0 0 C3.36 2.43 5.65 5.11 7.5 8.81 C8.03 13.26 8.11 16.74 5.88 20.69 C0.15 25.81 -4.79 26.35 -12.3 26.16 C-18.11 25.53 -21.72 23.41 -26 19.56 C-27.99 15.92 -28.26 12.82 -27.5 8.81 C-25.32 4.1 -22.56 1.59 -17.91 -0.5 C-11.94 -2.21 -5.85 -1.98 0 0 Z " fill="#333855" transform="translate(963.5,238.1875)"/>
<path d="M0 0 C1.32 0.33 2.64 0.66 4 1 C4 1.66 4 2.32 4 3 C4.66 3 5.32 3 6 3 C5.84 3.56 5.68 4.13 5.52 4.71 C4.98 7.07 4.81 9.24 4.72 11.66 C4.68 12.54 4.64 13.41 4.61 14.31 C4.54 16.15 4.46 17.99 4.39 19.82 C4.36 20.7 4.32 21.57 4.28 22.47 C4.25 23.27 4.22 24.07 4.19 24.89 C4 27 4 27 3 30 C-5.18 30.02 -13.36 30.04 -21.54 30.05 C-25.34 30.06 -29.13 30.06 -32.93 30.08 C-36.6 30.09 -40.26 30.09 -43.92 30.09 C-45.32 30.1 -46.72 30.1 -48.12 30.11 C-50.08 30.11 -52.03 30.11 -53.99 30.11 C-55.66 30.12 -55.66 30.12 -57.37 30.12 C-60 30 -60 30 -62 29 C-62.09 24.9 -62.14 20.79 -62.19 16.69 C-62.21 15.52 -62.24 14.35 -62.26 13.15 C-62.28 11.47 -62.28 11.47 -62.29 9.76 C-62.31 8.73 -62.32 7.7 -62.34 6.64 C-62 4 -62 4 -60.48 2.14 C-59.75 1.58 -59.75 1.58 -59 1 C-58 2 -58 2 -57.89 4.04 C-57.89 4.92 -57.9 5.79 -57.9 6.69 C-57.91 7.64 -57.91 8.58 -57.91 9.55 C-57.92 10.55 -57.93 11.54 -57.94 12.56 C-57.94 13.56 -57.95 14.56 -57.95 15.58 C-57.96 18.06 -57.98 20.53 -58 23 C-53.94 23.15 -49.89 23.26 -45.83 23.33 C-44.45 23.36 -43.07 23.4 -41.69 23.45 C-39.71 23.53 -37.72 23.56 -35.73 23.59 C-34.54 23.62 -33.35 23.65 -32.12 23.68 C-28.72 23.28 -28.72 23.28 -26.69 20.07 C-25.85 18.55 -25.85 18.55 -25 17 C-23.1 15.13 -21.12 13.64 -19 12 C-17.05 12.71 -17.05 12.71 -15 14 C-14.15 17.01 -14.18 19.86 -14 23 C-7.07 23.5 -7.07 23.5 0 24 C-0.25 21.78 -0.25 21.78 -0.51 19.51 C-0.71 17.57 -0.92 15.63 -1.12 13.69 C-1.24 12.71 -1.35 11.73 -1.46 10.73 C-1.56 9.79 -1.66 8.85 -1.76 7.89 C-1.85 7.02 -1.95 6.16 -2.04 5.27 C-2 3 -2 3 0 0 Z " fill="#383C59" transform="translate(544,286)"/>
<path d="M0 0 C9.6 0.77 18.06 3.52 27 7 C27 7.66 27 8.32 27 9 C29.64 8.01 32.28 7.02 35 6 C36 7 36 7 36 13 C30.72 14.32 25.44 15.64 20 17 C19.34 15.02 18.68 13.04 18 11 C17.67 16.28 17.34 21.56 17 27 C16.01 27.33 15.02 27.66 14 28 C13.34 27.67 12.68 27.34 12 27 C12 24.03 12 21.06 12 18 C8.82 20.9 6.68 23.46 4.62 27.25 C3.38 29.34 3.38 29.34 2 31 C-1.5 31.81 -1.5 31.81 -5 32 C-7.85 33.44 -7.85 33.44 -10 35 C-9.34 27.95 -7.12 21.41 -5 14.69 C-4.45 12.9 -4.45 12.9 -3.88 11.08 C-1.15 2.31 -1.15 2.31 0 0 Z " fill="#353A56" transform="translate(318,200)"/>
<path d="M0 0 C2.44 0.69 2.44 0.69 5 2 C5.88 4.5 5.88 4.5 6 7 C5.67 7.66 5.34 8.32 5 9 C4.93 10.71 4.92 12.42 4.94 14.12 C4.96 15.73 4.98 17.34 5 19 C8.3 20.32 11.6 21.64 15 23 C14.67 24.32 14.34 25.64 14 27 C13.32 27.11 12.65 27.22 11.95 27.33 C11.06 27.49 10.17 27.65 9.25 27.81 C8.37 27.96 7.49 28.11 6.58 28.27 C3.97 28.79 3.97 28.79 2.41 30.52 C-1.28 32.79 -4.82 32.41 -9.07 32.36 C-9.95 32.36 -10.83 32.36 -11.73 32.36 C-13.58 32.36 -15.43 32.35 -17.28 32.34 C-20.12 32.31 -22.96 32.32 -25.8 32.32 C-27.6 32.32 -29.4 32.31 -31.2 32.3 C-32.05 32.3 -32.9 32.3 -33.78 32.3 C-39.77 32.23 -39.77 32.23 -42 30 C-42.26 27.62 -42.26 27.62 -42.27 24.66 C-42.27 23.6 -42.27 22.53 -42.27 21.44 C-42.27 20.33 -42.26 19.21 -42.25 18.06 C-42.26 16.95 -42.27 15.84 -42.27 14.7 C-42.27 13.63 -42.27 12.57 -42.27 11.47 C-42.26 10.5 -42.26 9.52 -42.26 8.51 C-42 6 -42 6 -40 3 C-38.68 3.33 -37.36 3.66 -36 4 C-36 10.93 -36 17.86 -36 25 C-24.12 25.33 -12.24 25.66 0 26 C0 25.34 0 24.68 0 24 C-0.66 24 -1.32 24 -2 24 C-2 23.34 -2 22.68 -2 22 C-4.48 21.01 -4.48 21.01 -7 20 C-7 17 -7 17 -6 16 C-4 15.96 -2 15.96 0 16 C-0.14 14.56 -0.29 13.12 -0.44 11.69 C-0.52 10.89 -0.6 10.09 -0.68 9.26 C-0.95 6.84 -0.95 6.84 -2 4 C-1.06 1.81 -1.06 1.81 0 0 Z " fill="#333855" transform="translate(944,284)"/>
<path d="M0 0 C0.96 0 1.92 0.01 2.9 0.01 C3.84 -0.01 4.79 -0.02 5.76 -0.04 C11.14 -0.04 15.02 0.27 19.65 3.32 C21.67 5.87 21.66 7.11 21.53 10.38 C20.53 13.73 19.61 14.6 16.65 16.32 C17.26 19.71 18.58 21.62 20.65 24.32 C20.65 24.98 20.65 25.64 20.65 26.32 C17.9 26.32 16.17 26.31 13.65 25.32 C12.17 23.47 12.17 23.47 10.78 21.26 C8.72 18.08 8.72 18.08 5.31 16.76 C3.01 16.76 0.91 16.86 -1.35 17.32 C-2.85 18.82 -2.68 20.31 -2.91 22.38 C-3.05 23.68 -3.2 24.98 -3.35 26.32 C-5.01 26.36 -6.68 26.36 -8.35 26.32 C-10.82 23.85 -9.53 17.21 -9.54 13.88 C-9.55 12.81 -9.56 11.73 -9.57 10.62 C-9.57 9.6 -9.58 8.57 -9.58 7.51 C-9.58 6.57 -9.59 5.62 -9.59 4.64 C-9 -0.97 -4.46 0.03 0 0 Z " fill="#333855" transform="translate(909.34765625,236.677734375)"/>
<path d="M0 0 C1.01 0 2.02 0.01 3.06 0.01 C4.06 -0.01 5.06 -0.02 6.09 -0.04 C15.27 -0.05 15.27 -0.05 19.25 3.32 C21.03 5.75 21.28 6.87 21.06 9.88 C20.19 12.5 19.43 13.67 17.25 15.32 C16.59 15.32 15.93 15.32 15.25 15.32 C15.61 15.95 15.97 16.58 16.34 17.22 C17.04 18.45 17.04 18.45 17.75 19.7 C18.21 20.51 18.68 21.32 19.15 22.16 C20.25 24.32 20.25 24.32 20.25 26.32 C17.5 26.32 15.77 26.31 13.25 25.32 C11.76 23.47 11.76 23.47 10.37 21.26 C8.32 18.08 8.32 18.08 4.91 16.76 C2.61 16.76 0.5 16.86 -1.75 17.32 C-3.25 18.82 -3.08 20.31 -3.31 22.38 C-3.46 23.68 -3.6 24.98 -3.75 26.32 C-5.42 26.36 -7.09 26.36 -8.75 26.32 C-11.23 23.85 -9.94 17.21 -9.94 13.88 C-9.95 12.81 -9.96 11.73 -9.98 10.62 C-9.98 9.6 -9.98 8.57 -9.98 7.51 C-9.99 6.57 -9.99 5.62 -9.99 4.64 C-9.39 -1.1 -4.53 0.03 0 0 Z " fill="#333855" transform="translate(639.751953125,185.677734375)"/>
<path d="M0 0 C5.83 0.67 8.72 3.46 12.38 7.88 C14.3 11.58 14.22 13.07 13 17 C12.34 17.99 11.68 18.98 11 20 C9.12 20.34 9.12 20.34 6.81 20.31 C5.95 20.3 5.08 20.29 4.19 20.29 C3.26 20.27 2.32 20.25 1.36 20.23 C-0.62 20.23 -2.6 20.23 -4.57 20.23 C-7.69 20.21 -10.81 20.19 -13.93 20.13 C-16.94 20.09 -19.95 20.09 -22.96 20.11 C-23.89 20.08 -24.82 20.05 -25.78 20.02 C-28.42 20.05 -30.5 20.15 -33 21 C-35.27 23.42 -36.55 26.04 -38 29 C-38.66 29.66 -39.32 30.32 -40 31 C-43.2 30.8 -45.31 30.53 -47.88 28.56 C-49 27 -49 27 -49 25 C-47.93 25.08 -46.86 25.17 -45.75 25.25 C-42.03 25.31 -42.03 25.31 -39.5 23.38 C-37.7 21.04 -37.7 21.04 -38.19 18 C-38.59 16.51 -38.59 16.51 -39 15 C-39.19 14.22 -39.37 13.43 -39.56 12.62 C-39.78 11.82 -39.78 11.82 -40 11 C-39.01 10.34 -38.02 9.68 -37 9 C-36.34 10.32 -35.68 11.64 -35 13 C-21.14 13.5 -21.14 13.5 -7 14 C-6.34 12.02 -5.68 10.04 -5 8 C-4.67 7.34 -4.34 6.68 -4 6 C-3.34 6 -2.68 6 -2 6 C-1.34 4.02 -0.68 2.04 0 0 Z " fill="#3E435F" transform="translate(464,296)"/>
<path d="M0 0 C0.96 0 1.92 0.01 2.9 0.01 C3.84 -0.01 4.79 -0.02 5.76 -0.04 C11.12 -0.04 15.05 0.23 19.65 3.32 C21.2 6.41 20.95 8.92 20.65 12.32 C18.65 14.76 18.65 14.76 16.65 16.32 C16.94 17.04 17.23 17.77 17.53 18.51 C18.57 21.11 19.61 23.72 20.65 26.32 C17.9 26.32 16.17 26.31 13.65 25.32 C12.17 23.47 12.17 23.47 10.78 21.26 C8.72 18.08 8.72 18.08 5.31 16.76 C3.01 16.76 0.91 16.86 -1.35 17.32 C-2.85 18.82 -2.68 20.31 -2.91 22.38 C-3.05 23.68 -3.2 24.98 -3.35 26.32 C-5.01 26.36 -6.68 26.36 -8.35 26.32 C-10.82 23.85 -9.53 17.21 -9.54 13.88 C-9.55 12.81 -9.56 11.73 -9.57 10.62 C-9.57 9.6 -9.58 8.57 -9.58 7.51 C-9.58 6.57 -9.59 5.62 -9.59 4.64 C-9 -0.97 -4.46 0.03 0 0 Z " fill="#333855" transform="translate(574.34765625,236.677734375)"/>
<path d="M0 0 C0.33 0 0.66 0 1 0 C1 2.97 1 5.94 1 9 C1.66 9 2.32 9 3 9 C3 9.66 3 10.32 3 11 C3.82 11.13 4.64 11.27 5.48 11.4 C6.56 11.58 7.64 11.76 8.75 11.94 C9.82 12.11 10.88 12.29 11.98 12.46 C14.36 12.89 16.67 13.37 19 14 C20.32 12.02 21.64 10.04 23 8 C25.17 8.51 27 9 29 10 C29 10.66 29 11.32 29 12 C29.66 12.33 30.32 12.66 31 13 C30.01 13.66 29.02 14.32 28 15 C27.67 15.99 27.34 16.98 27 18 C30.3 17.67 33.6 17.34 37 17 C36.01 17.5 36.01 17.5 35 18 C35.5 20.47 35.5 20.47 36 23 C34.12 24.57 32.23 26.1 30.31 27.62 C29.78 28.07 29.25 28.52 28.71 28.98 C27.11 30.23 27.11 30.23 24 32 C20.65 31.45 19.47 30.65 17.48 27.91 C17.05 27.11 16.63 26.32 16.19 25.5 C14.11 22.09 14.11 22.09 10.84 19.96 C8.41 19.34 8.41 19.34 5 19 C6.98 22.3 8.96 25.6 11 29 C6 30 6 30 4.15 29.29 C3.59 28.91 3.03 28.52 2.45 28.13 C1.83 27.72 1.22 27.31 0.58 26.89 C-0.04 26.45 -0.67 26.01 -1.31 25.56 C-1.96 25.13 -2.6 24.69 -3.27 24.25 C-4.85 23.18 -6.43 22.09 -8 21 C-6.68 18.36 -5.36 15.72 -4 13 C-3.01 13 -2.02 13 -1 13 C-0.67 8.71 -0.34 4.42 0 0 Z " fill="#51566F" transform="translate(329,218)"/>
<path d="M0 0 C3.43 0.1 4.69 0.67 7.06 3.18 C7.7 4.07 8.34 4.96 9 5.88 C11.69 9.59 13.92 11.86 18 14 C18.25 13.44 18.5 12.87 18.76 12.29 C20.18 9.66 21.85 7.58 23.81 5.31 C24.48 4.52 25.15 3.74 25.83 2.93 C28.28 0.75 29.77 0.24 33 0 C34 1 34 1 34.11 3.41 C34.11 4.45 34.1 5.49 34.1 6.57 C34.09 7.69 34.09 8.82 34.09 9.97 C34.08 11.75 34.08 11.75 34.06 13.56 C34.06 14.75 34.05 15.94 34.05 17.16 C34.04 20.11 34.02 23.05 34 26 C32 26.04 30 26.04 28 26 C26.19 24.19 26.62 21.39 26.44 18.94 C26.31 17.28 26.31 17.28 26.18 15.59 C26.12 14.74 26.06 13.88 26 13 C24.85 14.12 23.71 15.25 22.56 16.38 C21.92 17 21.29 17.63 20.63 18.27 C18.92 19.92 18.92 19.92 18 22 C12.47 20.66 9.22 16.45 6 12 C6 11.34 6 10.68 6 10 C5.34 10 4.68 10 4 10 C4 15.28 4 20.56 4 26 C2.35 26 0.7 26 -1 26 C-3.48 23.52 -2.19 16.89 -2.19 13.56 C-2.2 12.49 -2.21 11.41 -2.22 10.3 C-2.23 9.28 -2.23 8.25 -2.23 7.19 C-2.23 6.24 -2.24 5.3 -2.24 4.32 C-2 2 -2 2 0 0 Z " fill="#333855" transform="translate(553,186)"/>
<path d="M0 0 C3.43 1.61 4.77 4.62 6.12 8 C6.78 12.68 5.83 15.17 3.12 19 C0.42 18.54 -1.86 18 -4.38 16.88 C-7.41 15.81 -8.75 16.35 -11.88 17 C-14.08 17.14 -16.28 17.25 -18.49 17.32 C-19.74 17.36 -20.98 17.4 -22.27 17.44 C-24.21 17.5 -24.21 17.5 -26.19 17.56 C-28.16 17.63 -28.16 17.63 -30.17 17.69 C-33.4 17.8 -36.64 17.9 -39.88 18 C-40.17 18.94 -40.46 19.88 -40.76 20.85 C-41.97 24.28 -42.92 25.89 -45.88 28 C-49.4 27.83 -50.9 26.98 -53.88 25 C-53.88 24.34 -53.88 23.68 -53.88 23 C-51.86 22.54 -49.84 22.09 -47.82 21.63 C-45.67 21.1 -45.67 21.1 -43.88 19 C-43.53 15.05 -43.79 12.39 -45.88 9 C-45.22 8.01 -44.55 7.02 -43.88 6 C-40.88 7 -40.88 7 -38.88 10 C-34.55 10.81 -30.14 10.69 -25.75 10.75 C-24.54 10.81 -23.33 10.87 -22.08 10.94 C-15.2 11.08 -15.2 11.08 -9.29 7.98 C-7.33 5.74 -5.61 3.43 -3.88 1 C-1.88 0 -1.88 0 0 0 Z " fill="#333855" transform="translate(747.875,299)"/>
<path d="M0 0 C2.81 1.69 2.81 1.69 4.81 4.69 C4.15 5.35 3.49 6.01 2.81 6.69 C-0.11 6.35 -2.65 5.53 -5.44 4.56 C-9.98 3.5 -13.64 3.92 -18.19 4.69 C-17.17 6.3 -17.17 6.3 -15.19 7.69 C-11.83 8.2 -8.55 8.49 -5.17 8.68 C-1.28 9.02 0.69 9.59 3.79 12.03 C5.81 14.69 5.81 14.69 6.38 18.31 C5.81 21.69 5.81 21.69 4 23.56 C-2.67 26.99 -12.04 26.93 -19.18 24.79 C-21.26 23.85 -23.23 22.87 -25.19 21.69 C-25.19 20.7 -25.19 19.71 -25.19 18.69 C-22.63 17.74 -21.57 17.52 -19.03 18.66 C-15.44 19.96 -12.13 19.91 -8.38 19.81 C-7.68 19.8 -6.99 19.79 -6.28 19.79 C-4.58 19.76 -2.88 19.73 -1.19 19.69 C-1.69 16.93 -1.69 16.93 -3.19 14.69 C-6.46 14.31 -9.73 13.97 -13.02 13.7 C-18.14 13.17 -21.11 11.85 -25.19 8.69 C-25.12 5.94 -25.12 5.94 -24.19 2.69 C-17.7 -2.92 -7.85 -3.09 0 0 Z " fill="#333855" transform="translate(628.1875,238.3125)"/>
<path d="M0 0 C0.99 0.33 1.98 0.66 3 1 C4.17 3.62 4.17 3.62 5.26 7.08 C5.66 8.32 6.05 9.57 6.46 10.85 C6.76 11.82 6.76 11.82 7.07 12.82 C7.68 14.8 8.31 16.77 8.95 18.74 C12 28.43 12 28.43 12 33 C8.63 34.5 6.8 35 3 35 C3 35.99 3 36.98 3 38 C-1.62 38.66 -6.24 39.32 -11 40 C-10.34 38.35 -9.68 36.7 -9 35 C-8.64 33.67 -8.3 32.34 -8 31 C-8.99 30.67 -9.98 30.34 -11 30 C-12.61 28.04 -12.61 28.04 -14.19 25.62 C-14.72 24.83 -15.25 24.04 -15.79 23.23 C-17 21 -17 21 -17 18 C-15.35 17.67 -13.7 17.34 -12 17 C-10.66 18.62 -9.33 20.25 -8 21.88 C-7.26 22.78 -6.51 23.68 -5.75 24.62 C-4 27 -4 27 -4 29 C-3.01 29 -2.02 29 -1 29 C-1 29.66 -1 30.32 -1 31 C0.65 30.34 2.3 29.68 4 29 C3.55 27.27 3.09 25.54 2.62 23.81 C2.37 22.85 2.11 21.89 1.85 20.89 C0.52 15.48 0.52 15.48 -3.12 11.69 C-3.74 11.46 -4.36 11.23 -5 11 C-4.62 8.56 -4.62 8.56 -4 6 C-3.34 5.67 -2.68 5.34 -2 5 C-1.28 3.36 -0.61 1.69 0 0 Z " fill="#343956" transform="translate(366,197)"/>
<path d="M0 0 C1.04 0.01 2.07 0.02 3.14 0.03 C4.26 0.04 5.39 0.04 6.54 0.05 C7.72 0.07 8.89 0.08 10.1 0.1 C11.88 0.12 11.88 0.12 13.69 0.13 C16.62 0.15 19.55 0.19 22.48 0.23 C22.81 1.88 23.14 3.53 23.48 5.23 C16.88 5.56 10.28 5.89 3.48 6.23 C3.15 7.22 2.82 8.21 2.48 9.23 C6.11 9.56 9.74 9.89 13.48 10.23 C13.81 11.88 14.14 13.53 14.48 15.23 C9.03 15.72 9.03 15.72 3.48 16.23 C3.15 17.88 2.82 19.53 2.48 21.23 C9.41 21.56 16.34 21.89 23.48 22.23 C23.81 23.55 24.14 24.87 24.48 26.23 C20.51 26.25 16.54 26.27 12.57 26.28 C11.22 26.29 9.87 26.29 8.52 26.3 C6.58 26.31 4.64 26.32 2.7 26.32 C0.95 26.33 0.95 26.33 -0.84 26.34 C-3.52 26.23 -3.52 26.23 -4.52 25.23 C-4.77 21.42 -4.71 17.6 -4.71 13.79 C-4.72 12.71 -4.73 11.64 -4.75 10.53 C-4.75 9.5 -4.75 8.48 -4.75 7.42 C-4.76 6.47 -4.76 5.52 -4.76 4.55 C-4.41 1.13 -3.38 0.3 0 0 Z " fill="#333855" transform="translate(470.52197265625,185.77294921875)"/>
<path d="M0 0 C5.02 1.5 8.02 4.51 11.69 8.06 C15.52 11.97 15.52 11.97 20 15 C20.05 14.08 20.1 13.17 20.15 12.23 C20.22 11.04 20.3 9.85 20.38 8.62 C20.44 7.44 20.51 6.26 20.59 5.04 C21 2 21 2 23 0 C24.32 0.33 25.64 0.66 27 1 C27 9.25 27 17.5 27 26 C22.24 25.05 21.36 24.86 18.12 21.81 C17.44 21.19 16.76 20.56 16.06 19.92 C15.38 19.29 14.7 18.65 14 18 C12.72 16.85 11.42 15.7 10.12 14.56 C9.57 14.07 9.02 13.58 8.45 13.07 C7.03 11.8 7.03 11.8 5 12 C4.67 16.62 4.34 21.24 4 26 C2.35 26 0.7 26 -1 26 C-3.48 23.52 -2.19 16.89 -2.19 13.56 C-2.2 12.49 -2.21 11.41 -2.22 10.3 C-2.23 9.28 -2.23 8.25 -2.23 7.19 C-2.23 6.24 -2.24 5.3 -2.24 4.32 C-2 2 -2 2 0 0 Z " fill="#333855" transform="translate(763,237)"/>
<path d="M0 0 C5.02 1.5 8.02 4.51 11.69 8.06 C15.52 11.97 15.52 11.97 20 15 C20.05 14.08 20.1 13.17 20.15 12.23 C20.22 11.04 20.3 9.85 20.38 8.62 C20.44 7.44 20.51 6.26 20.59 5.04 C21 2 21 2 23 0 C24.32 0.33 25.64 0.66 27 1 C27 9.25 27 17.5 27 26 C21.38 24.88 21.38 24.88 18.55 22.31 C17.95 21.78 17.35 21.25 16.73 20.7 C16.12 20.14 15.51 19.58 14.88 19 C13.65 17.89 12.42 16.79 11.18 15.69 C10.64 15.2 10.1 14.71 9.55 14.2 C7.89 12.78 7.89 12.78 5 12 C4.67 16.62 4.34 21.24 4 26 C2.35 26 0.7 26 -1 26 C-3.48 23.52 -2.19 16.89 -2.19 13.56 C-2.2 12.49 -2.21 11.41 -2.22 10.3 C-2.23 9.28 -2.23 8.25 -2.23 7.19 C-2.23 6.24 -2.24 5.3 -2.24 4.32 C-2 2 -2 2 0 0 Z " fill="#333855" transform="translate(763,186)"/>
<path d="M0 0 C2.82 1.3 5.05 2.74 7.38 4.79 C7.99 5.32 8.6 5.85 9.23 6.39 C9.86 6.94 10.48 7.49 11.12 8.06 C12.38 9.16 13.63 10.25 14.88 11.35 C15.43 11.83 15.98 12.32 16.55 12.82 C18.01 14.1 18.01 14.1 20 15 C20.05 14.08 20.1 13.17 20.15 12.23 C20.22 11.04 20.3 9.85 20.38 8.62 C20.44 7.44 20.51 6.26 20.59 5.04 C21 2 21 2 23 0 C24.32 0.33 25.64 0.66 27 1 C27 9.25 27 17.5 27 26 C20.25 24.88 20.25 24.88 17.71 22.35 C16.89 21.55 16.89 21.55 16.05 20.74 C15.5 20.19 14.94 19.63 14.38 19.06 C13.26 17.97 12.14 16.87 11.02 15.79 C10.3 15.06 10.3 15.06 9.55 14.31 C7.73 12.67 7.73 12.67 4 11 C4 15.95 4 20.9 4 26 C2.35 26 0.7 26 -1 26 C-3.48 23.52 -2.19 16.89 -2.19 13.56 C-2.2 12.49 -2.21 11.41 -2.22 10.3 C-2.23 9.28 -2.23 8.25 -2.23 7.19 C-2.23 6.24 -2.24 5.3 -2.24 4.32 C-2 2 -2 2 0 0 Z " fill="#333855" transform="translate(440,237)"/>
<path d="M0 0 C1.49 0.02 1.49 0.02 3.02 0.03 C4.63 0.04 4.63 0.04 6.28 0.05 C7.4 0.07 8.53 0.08 9.69 0.1 C11.4 0.12 11.4 0.12 13.14 0.13 C15.95 0.15 18.76 0.19 21.57 0.23 C21.9 1.88 22.23 3.53 22.57 5.23 C13.16 5.72 13.16 5.72 3.57 6.23 C3.24 7.22 2.91 8.21 2.57 9.23 C6.2 9.56 9.83 9.89 13.57 10.23 C13.9 11.88 14.23 13.53 14.57 15.23 C9.12 15.72 9.12 15.72 3.57 16.23 C3.24 17.88 2.91 19.53 2.57 21.23 C9.5 21.56 16.43 21.89 23.57 22.23 C23.9 23.55 24.23 24.87 24.57 26.23 C20.6 26.25 16.63 26.27 12.66 26.28 C11.31 26.29 9.96 26.29 8.61 26.3 C6.67 26.31 4.73 26.32 2.79 26.32 C1.04 26.33 1.04 26.33 -0.75 26.34 C-3.43 26.23 -3.43 26.23 -4.43 25.23 C-4.68 21.42 -4.62 17.6 -4.62 13.79 C-4.63 12.71 -4.64 11.64 -4.65 10.53 C-4.66 9.5 -4.66 8.48 -4.66 7.42 C-4.66 6.47 -4.67 5.52 -4.67 4.55 C-4.32 1.2 -3.34 0.31 0 0 Z " fill="#333855" transform="translate(534.43017578125,236.77294921875)"/>
<path d="M0 0 C1.49 0.02 1.49 0.02 3.02 0.03 C4.63 0.04 4.63 0.04 6.28 0.05 C7.4 0.07 8.53 0.08 9.69 0.1 C11.4 0.12 11.4 0.12 13.14 0.13 C15.95 0.15 18.76 0.19 21.57 0.23 C21.9 1.88 22.23 3.53 22.57 5.23 C13.16 5.72 13.16 5.72 3.57 6.23 C3.24 7.22 2.91 8.21 2.57 9.23 C6.2 9.56 9.83 9.89 13.57 10.23 C13.9 11.88 14.23 13.53 14.57 15.23 C9.12 15.72 9.12 15.72 3.57 16.23 C3.24 17.88 2.91 19.53 2.57 21.23 C9.5 21.56 16.43 21.89 23.57 22.23 C23.9 23.55 24.23 24.87 24.57 26.23 C20.6 26.25 16.63 26.27 12.66 26.28 C11.31 26.29 9.96 26.29 8.61 26.3 C6.67 26.31 4.73 26.32 2.79 26.32 C1.04 26.33 1.04 26.33 -0.75 26.34 C-3.43 26.23 -3.43 26.23 -4.43 25.23 C-4.68 21.42 -4.62 17.6 -4.62 13.79 C-4.63 12.71 -4.64 11.64 -4.65 10.53 C-4.66 9.5 -4.66 8.48 -4.66 7.42 C-4.66 6.47 -4.67 5.52 -4.67 4.55 C-4.32 1.2 -3.34 0.31 0 0 Z " fill="#333855" transform="translate(599.43017578125,185.77294921875)"/>
<path d="M0 0 C1.74 0.15 1.74 0.15 4 1 C6.01 3.41 6.01 3.41 8.11 6.57 C8.67 7.4 8.67 7.4 9.24 8.24 C10.42 10.01 11.58 11.79 12.75 13.56 C13.55 14.76 14.35 15.96 15.15 17.16 C17.11 20.1 19.06 23.05 21 26 C19 27 19 27 16.06 26.25 C13.25 25.1 11.8 24.4 10 22 C10 21.34 10 20.68 10 20 C7.41 20.03 4.84 20.1 2.25 20.19 C1.16 20.2 1.16 20.2 0.04 20.21 C-3.93 20.37 -5.6 20.57 -8.34 23.53 C-8.89 24.35 -9.44 25.16 -10 26 C-12.75 26.31 -12.75 26.31 -15 26 C-15.33 25.34 -15.66 24.68 -16 24 C-15.08 22.11 -15.08 22.11 -13.61 19.82 C-13.09 19 -12.56 18.17 -12.02 17.31 C-11.45 16.45 -10.89 15.58 -10.31 14.69 C-9.77 13.83 -9.23 12.98 -8.67 12.1 C-5.97 7.88 -3.24 3.82 0 0 Z " fill="#333855" transform="translate(736,186)"/>
<path d="M0 0 C1.57 2.08 2.91 4.09 4.25 6.31 C5.05 7.59 5.84 8.88 6.64 10.16 C7.03 10.8 7.43 11.45 7.83 12.11 C9.54 14.87 11.3 17.59 13.06 20.31 C16 24.88 16 24.88 16 26 C13.25 26.31 13.25 26.31 10 26 C9.43 25.18 8.86 24.36 8.27 23.51 C6.15 20.65 6.15 20.65 2.43 20.41 C0.46 20.45 0.46 20.45 -1.56 20.5 C-2.23 20.5 -2.91 20.49 -3.6 20.49 C-6.52 20.55 -8.52 20.64 -10.9 22.41 C-12.07 24.02 -12.07 24.02 -13 26 C-14.98 26 -16.96 26 -19 26 C-19 22.77 -18.62 22.04 -16.95 19.42 C-16.52 18.73 -16.09 18.05 -15.64 17.34 C-15.18 16.63 -14.72 15.92 -14.25 15.19 C-13.81 14.49 -13.36 13.79 -12.91 13.07 C-11.61 11.04 -10.31 9.02 -9 7 C-8.62 6.4 -8.24 5.8 -7.85 5.19 C-4.51 0 -4.51 0 0 0 Z " fill="#343956" transform="translate(530,186)"/>
<path d="M0 0 C1.49 1.74 1.49 1.74 3.03 4.16 C3.59 5.04 4.16 5.91 4.74 6.82 C5.32 7.74 5.9 8.67 6.5 9.62 C7.37 10.98 7.37 10.98 8.26 12.36 C11.1 16.81 13.78 21.22 16 26 C12.69 25.75 12.69 25.75 9 25 C8.58 24.34 8.16 23.67 7.73 22.99 C6.05 20.63 6.05 20.63 2.57 20.43 C1.23 20.41 -0.1 20.42 -1.44 20.44 C-2.76 20.42 -4.07 20.39 -5.43 20.37 C-9.15 20.65 -9.15 20.65 -11.27 23.48 C-11.84 24.31 -12.41 25.14 -13 26 C-16.25 26.81 -16.25 26.81 -19 27 C-18.43 23.41 -17.53 20.81 -15.64 17.71 C-15.16 16.94 -14.69 16.16 -14.2 15.36 C-13.7 14.56 -13.2 13.76 -12.69 12.94 C-12.2 12.14 -11.71 11.33 -11.21 10.51 C-4.74 0 -4.74 0 0 0 Z " fill="#333855" transform="translate(863,237)"/>
<path d="M0 0 C3.17 3.33 4.27 6.06 4.5 10.56 C4.31 14.8 3.14 17.04 0 20 C-3.24 21.62 -6.5 21.58 -10 21 C-13.33 19.3 -16.3 17.39 -18 14 C-18.39 9.9 -18.23 7.49 -16.44 3.75 C-11.55 -1.76 -6.73 -3.17 0 0 Z " fill="#333855" transform="translate(336,70)"/>
<path d="M0 0 C3.17 3.33 4.27 6.06 4.5 10.56 C4.31 14.8 3.14 17.04 0 20 C-3.25 21.63 -6.49 21.54 -10 21 C-12.9 19.82 -14.99 18.41 -17 16 C-18.61 11.99 -18.24 8.84 -17.06 4.75 C-12.57 -1.24 -6.96 -3.48 0 0 Z " fill="#333855" transform="translate(288,70)"/>
<path d="M0 0 C3.54 3.28 5.88 6.46 6.25 11.31 C5.98 15.24 5.43 16.96 3 20 C-0.43 22.57 -3.84 22.43 -8 22 C-11.7 19.97 -13.65 18.52 -16 15 C-16.47 10.83 -16.26 8.52 -14.38 4.75 C-10.24 -0.03 -6.17 -2.23 0 0 Z " fill="#333855" transform="translate(116,69)"/>
<path d="M0 0 C3.38 1.79 5.8 3.97 7.79 7.23 C4.89 8.1 2.73 8.68 -0.08 7.34 C-1.04 6.76 -1.04 6.76 -2.03 6.17 C-6.14 3.87 -8.77 4.21 -13.23 5.36 C-15.49 6.35 -16.68 7.31 -18.21 9.23 C-19.38 12.64 -19.38 12.64 -19.21 16.23 C-17.63 18.96 -17.63 18.96 -14.21 20.23 C-6.75 21.21 -6.75 21.21 0.02 18.68 C0.6 18.2 1.18 17.72 1.79 17.23 C4.04 17.54 4.04 17.54 5.79 18.23 C5.79 19.55 5.79 20.87 5.79 22.23 C0.85 26.82 -4.5 26.57 -10.91 26.51 C-16.83 26.01 -20.51 23.94 -24.65 19.79 C-26.37 16.97 -27.21 15.55 -27.21 12.23 C-25.87 7.28 -23.54 4 -19.21 1.23 C-13.19 -1.7 -6.37 -2.21 0 0 Z " fill="#333855" transform="translate(833.21484375,237.76953125)"/>
<path d="M0 0 C1.25 2.62 1.25 2.62 2 5 C-0.36 5.84 -1.52 6.21 -3.86 5.19 C-4.48 4.8 -5.11 4.4 -5.75 4 C-10.37 1.53 -12.95 1.59 -18 3 C-20.79 5.2 -22.52 6.83 -23.88 10.12 C-24.13 12.23 -24.13 12.23 -23 15 C-17.75 18.99 -12.34 18.83 -6 18 C-2.79 16.25 -2.79 16.25 -1 14 C0.32 15.32 1.64 16.64 3 18 C-3.16 23.46 -6.98 24.31 -15.25 24.21 C-20.46 23.81 -23.73 21.99 -27.88 18.75 C-30.52 15.33 -31 13.3 -31 9 C-29.05 3.49 -25.95 0.81 -21.06 -2.19 C-14.02 -4.96 -6.47 -3.9 0 0 Z " fill="#333855" transform="translate(713,189)"/>
<path d="M0 0 C2.12 0.38 2.12 0.38 4 1 C4.33 3.64 4.66 6.28 5 9 C10.28 9.33 15.56 9.66 21 10 C21 7.36 21 4.72 21 2 C21.66 1.34 22.32 0.68 23 0 C24.32 0.33 25.64 0.66 27 1 C27 9.25 27 17.5 27 26 C25.35 26 23.7 26 22 26 C20.34 24.34 20.64 22.22 20.44 19.94 C20.31 18.56 20.31 18.56 20.18 17.15 C20.12 16.44 20.06 15.73 20 15 C17.69 14.97 15.38 14.95 13.06 14.94 C11.13 14.92 11.13 14.92 9.16 14.9 C6.14 14.63 6.14 14.63 5 16 C4.77 17.68 4.59 19.37 4.44 21.06 C4.31 22.44 4.31 22.44 4.18 23.85 C4.12 24.56 4.06 25.27 4 26 C2.33 26.04 0.67 26.04 -1 26 C-3.48 23.52 -2.19 16.89 -2.19 13.56 C-2.2 12.49 -2.21 11.41 -2.22 10.3 C-2.23 9.28 -2.23 8.25 -2.23 7.19 C-2.23 6.24 -2.24 5.3 -2.24 4.32 C-2 2 -2 2 0 0 Z " fill="#333855" transform="translate(433,186)"/>
<path d="M0 0 C1.32 0.33 2.64 0.66 4 1 C4.33 7.27 4.66 13.54 5 20 C7.83 21.42 10.47 21.35 13.62 21.56 C14.81 21.65 16 21.73 17.23 21.82 C18.6 21.91 18.6 21.91 20 22 C20.02 21.4 20.04 20.81 20.06 20.2 C20.16 17.51 20.26 14.82 20.38 12.12 C20.41 11.19 20.44 10.25 20.47 9.29 C20.51 8.39 20.55 7.49 20.59 6.57 C20.62 5.74 20.65 4.92 20.68 4.06 C21 2 21 2 23 0 C25.12 0.38 25.12 0.38 27 1 C27.09 4.23 27.14 7.46 27.19 10.69 C27.21 11.6 27.24 12.51 27.26 13.45 C27.36 22.16 27.36 22.16 24 26 C17.97 28.01 9.59 28.18 3.49 26.18 C1.01 24.78 -0.71 23.58 -2 21 C-2.24 17.84 -2.19 14.67 -2.19 11.5 C-2.21 10.18 -2.21 10.18 -2.22 8.83 C-2.23 7.99 -2.23 7.15 -2.23 6.28 C-2.23 5.51 -2.24 4.74 -2.24 3.94 C-2 2 -2 2 0 0 Z " fill="#333855" transform="translate(404,237)"/>
<path d="M0 0 C1.32 0.66 2.64 1.32 4 2 C4 2.66 4 3.32 4 4 C4.66 4 5.32 4 6 4 C4.31 7.77 2 10.28 -0.86 13.22 C-2.22 14.93 -2.22 14.93 -1.8 17.03 C-0.97 19.26 -0.97 19.26 1 22 C0.97 24.74 0.45 27.28 0 30 C-5.28 30 -10.56 30 -16 30 C-17 26 -17 26 -15.25 22.94 C-13.58 20.76 -12.03 18.83 -10 17 C-10.69 14.25 -11.36 12.47 -13.69 10.78 C-15.43 9.8 -17.21 8.89 -19 8 C-18.67 6.02 -18.34 4.04 -18 2 C-14 2 -14 2 -12.4 3.46 C-11.92 4.09 -11.44 4.72 -10.94 5.38 C-8.99 7.89 -7.72 9.19 -5 11 C-2.81 7.71 -2.05 4.78 -1 1 C-0.67 0.67 -0.34 0.34 0 0 Z " fill="#404460" transform="translate(776,286)"/>
<path d="M0 0 C2.24 -0.33 2.24 -0.33 5 0 C7.17 2.27 7.17 2.27 9.19 5.25 C9.86 6.22 10.54 7.2 11.23 8.2 C13 11 13 11 13.99 13.23 C15.28 15.49 16.68 15.93 19 17 C19.42 16.28 19.42 16.28 19.84 15.55 C21.1 13.38 22.4 11.22 23.69 9.06 C24.12 8.31 24.56 7.55 25.01 6.78 C28.33 1.29 28.33 1.29 31.64 -0.13 C34 0 34 0 37 2 C36.6 2.56 36.2 3.12 35.79 3.7 C30.62 10.98 25.79 18.46 21 26 C18.12 26.1 16.61 26.09 14 25 C11.21 22.06 9.21 18.71 7.12 15.25 C6.54 14.34 5.96 13.44 5.37 12.5 C2.74 8.31 0.75 4.95 0 0 Z " fill="#333855" transform="translate(489,237)"/>
<path d="M0 0 C3.07 2.67 3.88 4.6 5 8.5 C5 12 5 12 3.4 14.68 C0.34 17.64 -1.18 17.67 -5.38 17.62 C-9.38 17.46 -12.56 17.29 -15.88 14.94 C-18 12 -18 12 -18.12 8.44 C-16.63 3.86 -14.85 2.08 -10.75 -0.31 C-6.95 -1.26 -3.74 -1.2 0 0 Z " fill="#FAFDFF" transform="translate(960,242)"/>
<path d="M0 0 C0.33 0 0.66 0 1 0 C1.03 1.6 1.05 3.21 1.06 4.81 C1.07 5.71 1.09 6.6 1.1 7.52 C1 10 1 10 0 13 C-0.99 13 -1.98 13 -3 13 C-4.26 15.91 -5 17.8 -5 21 C-2.53 23.17 -2.53 23.17 0.62 25.19 C1.67 25.9 2.71 26.62 3.79 27.36 C7.29 29.46 7.29 29.46 13 29 C13.66 33.62 14.32 38.24 15 43 C13.72 42.15 12.44 41.29 11.12 40.41 C8.59 38.72 6.04 37.03 3.49 35.35 C0.99 33.7 -1.51 32.04 -4 30.38 C-4.86 29.82 -5.71 29.26 -6.6 28.68 C-7.41 28.13 -8.22 27.59 -9.06 27.02 C-9.8 26.54 -10.53 26.05 -11.29 25.55 C-13.3 23.73 -13.76 22.68 -14 20 C-12.74 17.96 -12.74 17.96 -10.88 15.81 C-7.73 12.02 -5.3 8.22 -3.04 3.85 C-2 2 -2 2 0 0 Z " fill="#343956" transform="translate(328,218)"/>
<path d="M0 0 C4.82 -0.02 9.65 -0.04 14.47 -0.05 C16.11 -0.06 17.76 -0.07 19.4 -0.08 C21.75 -0.09 24.11 -0.09 26.46 -0.1 C27.2 -0.1 27.94 -0.11 28.7 -0.11 C30.47 -0.11 32.23 -0.06 34 0 C37.48 3.48 36.06 17.49 36.06 22.44 C36.05 23.96 36.03 25.48 36 27 C32.05 23.71 30.43 21.39 29.85 16.23 C29.8 15.55 29.74 14.88 29.69 14.19 C29.61 13.49 29.54 12.8 29.47 12.09 C29.29 10.39 29.14 8.7 29 7 C26.39 6.89 23.79 6.81 21.19 6.75 C20.08 6.7 20.08 6.7 18.95 6.65 C16.52 6.56 16.52 6.56 13 7 C10.94 8.85 10.94 8.85 10 11 C7.69 10.38 7.69 10.38 5 9 C3.31 5.94 3.31 5.94 2 3 C1.34 2.67 0.68 2.34 0 2 C0 1.34 0 0.68 0 0 Z " fill="#333855" transform="translate(324,192)"/>
<path d="M0 0 C1.25 0.01 2.5 0.01 3.79 0.02 C4.79 0.02 4.79 0.02 5.81 0.02 C7.94 0.03 10.07 0.04 12.2 0.05 C13.64 0.06 15.08 0.06 16.52 0.06 C20.06 0.08 23.59 0.09 27.13 0.11 C27.63 2.59 27.63 2.59 28.13 5.11 C27.35 5.17 26.57 5.23 25.76 5.3 C24.24 5.42 24.24 5.42 22.7 5.55 C21.69 5.63 20.68 5.71 19.64 5.8 C17.2 5.85 17.2 5.85 16.13 7.11 C15.98 8.53 15.88 9.95 15.82 11.37 C15.77 12.22 15.73 13.08 15.69 13.96 C15.65 14.85 15.61 15.75 15.57 16.68 C15.53 17.58 15.48 18.48 15.44 19.41 C15.33 21.64 15.23 23.88 15.13 26.11 C13.13 26.16 11.13 26.15 9.13 26.11 C7.58 24.56 7.92 23.01 7.82 20.86 C7.77 20.01 7.73 19.15 7.69 18.27 C7.63 16.92 7.63 16.92 7.57 15.55 C7.53 14.65 7.48 13.75 7.44 12.82 C7.33 10.58 7.23 8.35 7.13 6.11 C3.5 5.78 -0.13 5.45 -3.87 5.11 C-3.87 0.15 -3.87 0.15 0 0 Z " fill="#333855" transform="translate(396.867431640625,185.886474609375)"/>
<path d="M0 0 C1.29 0.01 2.59 0.01 3.92 0.02 C4.95 0.02 4.95 0.02 6 0.02 C8.2 0.03 10.4 0.04 12.6 0.05 C14.09 0.06 15.58 0.06 17.07 0.06 C20.73 0.08 24.38 0.09 28.04 0.11 C28.54 2.59 28.54 2.59 29.04 5.11 C28.19 5.17 27.33 5.23 26.45 5.3 C25.35 5.38 24.24 5.46 23.1 5.55 C22 5.63 20.9 5.71 19.76 5.8 C17.13 5.82 17.13 5.82 16.04 7.11 C15.88 8.53 15.79 9.95 15.72 11.37 C15.68 12.22 15.64 13.08 15.6 13.96 C15.56 14.85 15.52 15.75 15.48 16.68 C15.44 17.58 15.39 18.48 15.35 19.41 C15.24 21.64 15.14 23.88 15.04 26.11 C13.37 26.16 11.71 26.15 10.04 26.11 C8.49 24.56 8.82 23.01 8.72 20.86 C8.68 20.01 8.64 19.15 8.6 18.27 C8.54 16.92 8.54 16.92 8.48 15.55 C8.44 14.65 8.39 13.75 8.35 12.82 C8.24 10.58 8.14 8.35 8.04 6.11 C4.08 5.78 0.12 5.45 -3.96 5.11 C-3.96 0.15 -3.96 0.15 0 0 Z " fill="#333855" transform="translate(658.959228515625,236.886474609375)"/>
<path d="M0 0 C2.78 -0.48 4.29 -0.66 7 0 C9.74 1.95 12.19 4.07 14.67 6.35 C16.8 8.2 16.8 8.2 19.03 7.97 C21.49 6.76 23.27 5.2 25.31 3.38 C29.38 0.07 29.38 0.07 32.14 -0.24 C34.06 0.06 34.06 0.06 37 1 C36.28 1.56 35.57 2.13 34.83 2.71 C32.07 4.95 29.4 7.25 26.75 9.62 C25.44 10.79 25.44 10.79 24.11 11.98 C21.01 14.95 20.81 16.95 20.44 21.12 C20.35 22.04 20.27 22.95 20.18 23.88 C20.12 24.58 20.06 25.28 20 26 C18.33 26.04 16.67 26.04 15 26 C13.32 24.32 13.84 22.05 13.75 19.75 C13.35 15.15 13.35 15.15 10.94 11.25 C9.48 10.14 9.48 10.14 8 9 C6.55 7.78 5.12 6.55 3.69 5.31 C2.99 4.73 2.29 4.15 1.57 3.55 C1.05 3.04 0.54 2.53 0 2 C0 1.34 0 0.68 0 0 Z " fill="#333855" transform="translate(692,237)"/>
<path d="M0 0 C0.88 -0.03 1.75 -0.06 2.65 -0.09 C5.06 0.38 5.06 0.38 6.86 2.15 C8.13 4.5 8.42 5.73 8.31 8.38 C8.29 9.07 8.27 9.77 8.24 10.49 C8.06 12.38 8.06 12.38 7.44 14.56 C6.88 17.23 7.93 18.97 9.06 21.38 C6.25 21.19 6.25 21.19 3.06 20.38 C1.25 17.81 1.25 17.81 0.06 15.38 C-0.27 15.38 -0.6 15.38 -0.94 15.38 C-1.27 17.36 -1.6 19.34 -1.94 21.38 C-3.59 21.05 -5.24 20.72 -6.94 20.38 C-6.99 17.42 -7.03 14.46 -7.06 11.5 C-7.08 10.66 -7.1 9.82 -7.11 8.95 C-7.12 8.14 -7.13 7.34 -7.13 6.51 C-7.15 5.39 -7.15 5.39 -7.16 4.25 C-6.64 -0.06 -3.63 0.05 0 0 Z " fill="#414661" transform="translate(131.9375,68.625)"/>
<path d="M0 0 C0.99 0.33 1.98 0.66 3 1 C2.34 1 1.68 1 1 1 C1.66 2.32 2.32 3.64 3 5 C6.3 4.34 9.6 3.68 13 3 C13.43 4.05 13.87 5.1 14.31 6.19 C15.64 9.29 17.18 12.15 19 15 C18.01 15 17.02 15 16 15 C15.73 15.6 15.46 16.2 15.19 16.81 C13.13 20.6 13.13 20.6 11 22 C8.27 21.56 5.93 21.01 3.31 20.19 C2.61 19.98 1.91 19.78 1.19 19.57 C-0.55 19.06 -2.27 18.53 -4 18 C-3.34 17.34 -2.68 16.68 -2 16 C-1.53 13.28 -1.16 10.62 -0.88 7.88 C-0.79 7.12 -0.7 6.37 -0.61 5.59 C-0.4 3.73 -0.2 1.86 0 0 Z " fill="#F7FAFD" transform="translate(336,211)"/>
<path d="M0 0 C0.66 0.33 1.32 0.66 2 1 C2 7.93 2 14.86 2 22 C6.95 22.33 11.9 22.66 17 23 C16.67 20.69 16.34 18.38 16 16 C16.99 15.34 17.98 14.68 19 14 C21 16 21 16 21.27 18.02 C21.26 18.8 21.26 19.58 21.25 20.38 C21.26 21.15 21.26 21.92 21.27 22.71 C20.98 25.21 20.17 26.8 19 29 C15.88 29.03 12.75 29.05 9.62 29.06 C8.74 29.07 7.85 29.08 6.93 29.09 C5.65 29.09 5.65 29.09 4.35 29.1 C3.17 29.11 3.17 29.11 1.97 29.11 C0 29 0 29 -2 28 C-2.06 23.9 -2.09 19.79 -2.12 15.69 C-2.14 14.52 -2.16 13.35 -2.18 12.15 C-2.18 11.03 -2.19 9.91 -2.2 8.76 C-2.21 7.73 -2.22 6.7 -2.23 5.64 C-2 3 -2 3 0 0 Z " fill="#333855" transform="translate(556,287)"/>
<path d="M0 0 C1.38 2.12 1.38 2.12 2 4 C-1 5 -1 5 -3.94 4.31 C-7.05 3.66 -7.05 3.66 -9.38 5.62 C-11.28 8.4 -11.61 9.7 -11 13 C-7.81 15.13 -5.73 15.5 -2 16 C-2.99 14.02 -3.98 12.04 -5 10 C-3 8 -3 8 -0.44 7.81 C2 8 2 8 3 9 C3.07 10.69 3.08 12.38 3.06 14.06 C3.05 14.98 3.04 15.9 3.04 16.85 C3.02 17.56 3.01 18.27 3 19 C-0.96 21.2 -4.53 21.71 -9 21 C-12.75 18.98 -14.64 17.55 -17 14 C-17.47 9.87 -17.25 7.51 -15.44 3.75 C-10.91 -1.36 -6.25 -3.34 0 0 Z " fill="#333855" transform="translate(312,70)"/>
<path d="M0 0 C1.38 2.12 1.38 2.12 2 4 C-1 5 -1 5 -3.94 4.31 C-7.05 3.66 -7.05 3.66 -9.38 5.62 C-11.28 8.4 -11.61 9.7 -11 13 C-7.81 15.13 -5.73 15.5 -2 16 C-2.99 14.02 -3.98 12.04 -5 10 C-3 8 -3 8 -0.44 7.81 C2 8 2 8 3 9 C3.07 10.69 3.08 12.38 3.06 14.06 C3.05 14.98 3.04 15.9 3.04 16.85 C3.02 17.56 3.01 18.27 3 19 C-0.96 21.2 -4.53 21.71 -9 21 C-12.75 18.98 -14.64 17.55 -17 14 C-17.47 9.87 -17.25 7.51 -15.44 3.75 C-10.91 -1.36 -6.25 -3.34 0 0 Z " fill="#333855" transform="translate(170,70)"/>
<path d="M0 0 C4.23 1.51 5.63 4.33 8 8 C8.99 8.66 9.98 9.32 11 10 C11 7.36 11 4.72 11 2 C12.32 1.34 13.64 0.68 15 0 C16 1 16 1 16.11 2.95 C16.11 3.78 16.1 4.61 16.1 5.47 C16.09 6.37 16.09 7.27 16.09 8.2 C16.08 9.14 16.07 10.09 16.06 11.06 C16.06 12.01 16.05 12.96 16.05 13.94 C16.04 16.29 16.02 18.65 16 21 C12.77 20.68 11.32 20.32 8.98 18 C8.09 16.8 8.09 16.8 7.19 15.56 C6.28 14.36 6.28 14.36 5.36 13.13 C4 11 4 11 4 9 C3.34 9 2.68 9 2 9 C2 12.96 2 16.92 2 21 C0.68 20.67 -0.64 20.34 -2 20 C-2.05 17.04 -2.09 14.08 -2.12 11.12 C-2.14 10.28 -2.16 9.44 -2.18 8.57 C-2.18 7.77 -2.19 6.96 -2.2 6.13 C-2.21 5.02 -2.21 5.02 -2.23 3.88 C-2 2 -2 2 0 0 Z " fill="#333855" transform="translate(188,69)"/>
<path d="M0 0 C1.32 0 2.64 0 4 0 C7.06 7.31 10.08 14.63 13 22 C6.25 20.38 6.25 20.38 4 17 C1.42 16.75 1.42 16.75 -1 17 C-1.66 18.32 -2.32 19.64 -3 21 C-4.65 20.67 -6.3 20.34 -8 20 C-3.44 3.44 -3.44 3.44 0 0 Z " fill="#3F445F" transform="translate(216,69)"/>
<path d="M0 0 C3.01 1.42 4.88 3.58 7.12 6 C7.45 6.33 7.79 6.66 8.12 7 C8.27 10.88 8.16 14.26 7.12 18 C5.19 18.08 3.25 18.14 1.31 18.19 C0.23 18.22 -0.85 18.26 -1.96 18.29 C-4.88 18 -4.88 18 -6.83 16.86 C-8.44 13.99 -7.6 12.11 -6.75 9 C-6.48 7.95 -6.21 6.9 -5.93 5.81 C-4.74 2.65 -3.67 0 0 0 Z " fill="#333855" transform="translate(408.875,298)"/>
<path d="M0 0 C1.65 0.33 3.3 0.66 5 1 C5 9.25 5 17.5 5 26 C3.02 26 1.04 26 -1 26 C-3.48 23.52 -2.19 16.89 -2.19 13.56 C-2.2 12.49 -2.21 11.41 -2.22 10.3 C-2.23 9.28 -2.23 8.25 -2.23 7.19 C-2.23 6.24 -2.24 5.3 -2.24 4.32 C-2 2 -2 2 0 0 Z " fill="#333855" transform="translate(886,237)"/>
<path d="M0 0 C0.33 0.99 0.66 1.98 1 3 C4.3 2.67 7.6 2.34 11 2 C10.01 2.5 10.01 2.5 9 3 C9.33 4.65 9.66 6.3 10 8 C8.12 9.57 6.23 11.1 4.31 12.62 C3.78 13.07 3.25 13.52 2.71 13.98 C1.11 15.23 1.11 15.23 -2 17 C-5.28 16.29 -6.57 15.47 -8.81 13 C-10 11 -10 11 -10 9 C-9.4 8.94 -8.8 8.88 -8.19 8.81 C-5.14 7.68 -4.56 5.76 -3 3 C-2.34 3 -1.68 3 -1 3 C-0.67 2.01 -0.34 1.02 0 0 Z " fill="#F8FBFE" transform="translate(355,233)"/>
<path d="M0 0 C0.73 0.02 1.46 0.04 2.22 0.06 C7.55 0.24 7.55 0.24 8.75 1.44 C8.98 3.62 9.16 5.81 9.31 8 C9.44 9.8 9.44 9.8 9.57 11.63 C9.63 12.56 9.69 13.48 9.75 14.44 C9.42 14.44 9.09 14.44 8.75 14.44 C8.42 12.79 8.09 11.14 7.75 9.44 C7.21 9.67 6.66 9.89 6.11 10.13 C5.39 10.42 4.67 10.7 3.94 11 C3.23 11.29 2.52 11.58 1.79 11.88 C-0.25 12.44 -0.25 12.44 -3.25 11.44 C-2.59 11.11 -1.93 10.78 -1.25 10.44 C-5.27 8.63 -8.86 7.1 -13.25 6.44 C-9.33 0.57 -6.93 -0.44 0 0 Z " fill="#F7FAFD" transform="translate(345.25,197.5625)"/>
<path d="M0 0 C3.15 -0.26 4.62 -0.25 7.31 1.5 C8.15 2.24 8.15 2.24 9 3 C8.01 3.5 8.01 3.5 7 4 C6.77 4.93 6.55 5.86 6.31 6.81 C4.8 12.71 1.36 17.98 -2 23 C-2.66 23.33 -3.32 23.66 -4 24 C-3.34 22.02 -2.68 20.04 -2 18 C-2.99 18 -3.98 18 -5 18 C-4.57 11.18 -3.09 6.08 0 0 Z " fill="#FAFDFF" transform="translate(323,207)"/>
<path d="M0 0 C1.32 0.33 2.64 0.66 4 1 C4 9.25 4 17.5 4 26 C2.35 26 0.7 26 -1 26 C-3.48 23.52 -2.19 16.89 -2.19 13.56 C-2.2 12.49 -2.21 11.41 -2.22 10.3 C-2.23 9.28 -2.23 8.25 -2.23 7.19 C-2.23 6.24 -2.24 5.3 -2.24 4.32 C-2 2 -2 2 0 0 Z " fill="#333855" transform="translate(749,237)"/>
<path d="M0 0 C1.32 0.33 2.64 0.66 4 1 C4 9.25 4 17.5 4 26 C2.35 26 0.7 26 -1 26 C-3.48 23.52 -2.19 16.89 -2.19 13.56 C-2.2 12.49 -2.21 11.41 -2.22 10.3 C-2.23 9.28 -2.23 8.25 -2.23 7.19 C-2.23 6.24 -2.24 5.3 -2.24 4.32 C-2 2 -2 2 0 0 Z " fill="#333855" transform="translate(644,237)"/>
<path d="M0 0 C1.32 0.33 2.64 0.66 4 1 C4 9.25 4 17.5 4 26 C2.35 26 0.7 26 -1 26 C-3.48 23.52 -2.19 16.89 -2.19 13.56 C-2.2 12.49 -2.21 11.41 -2.22 10.3 C-2.23 9.28 -2.23 8.25 -2.23 7.19 C-2.23 6.24 -2.24 5.3 -2.24 4.32 C-2 2 -2 2 0 0 Z " fill="#333855" transform="translate(478,237)"/>
<path d="M0 0 C4.72 1.53 9.36 3.24 14 5 C14 5.33 14 5.66 14 6 C12.35 6 10.7 6 9 6 C10.98 9.3 12.96 12.6 15 16 C10 17 10 17 8.15 16.29 C7.59 15.91 7.03 15.52 6.45 15.13 C5.83 14.72 5.22 14.31 4.58 13.89 C3.96 13.45 3.33 13.01 2.69 12.56 C2.04 12.13 1.4 11.69 0.73 11.25 C-0.85 10.18 -2.43 9.09 -4 8 C-2.68 5.36 -1.36 2.72 0 0 Z " fill="#FAFDFF" transform="translate(325,231)"/>
<path d="M0 0 C1.32 0.33 2.64 0.66 4 1 C4 9.25 4 17.5 4 26 C2.35 26 0.7 26 -1 26 C-3.48 23.52 -2.19 16.89 -2.19 13.56 C-2.2 12.49 -2.21 11.41 -2.22 10.3 C-2.23 9.28 -2.23 8.25 -2.23 7.19 C-2.23 6.24 -2.24 5.3 -2.24 4.32 C-2 2 -2 2 0 0 Z " fill="#333855" transform="translate(671,186)"/>
<path d="M0 0 C0.99 0.33 1.98 0.66 3 1 C3.33 5.95 3.66 10.9 4 16 C6.64 16.33 9.28 16.66 12 17 C12.33 18.32 12.66 19.64 13 21 C10.69 21.03 8.38 21.05 6.06 21.06 C4.77 21.07 3.49 21.09 2.16 21.1 C-1 21 -1 21 -2 20 C-2.13 17.01 -2.19 14.05 -2.19 11.06 C-2.2 10.23 -2.21 9.39 -2.22 8.53 C-2.23 7.72 -2.23 6.92 -2.23 6.1 C-2.23 5.36 -2.24 4.62 -2.24 3.86 C-2 2 -2 2 0 0 Z " fill="#333855" transform="translate(256,69)"/>
<path d="M0 0 C0.99 0.33 1.98 0.66 3 1 C3.33 5.95 3.66 10.9 4 16 C6.64 16.33 9.28 16.66 12 17 C12.33 18.32 12.66 19.64 13 21 C10.69 21.03 8.38 21.05 6.06 21.06 C4.77 21.07 3.49 21.09 2.16 21.1 C-1 21 -1 21 -2 20 C-2.13 17.01 -2.19 14.05 -2.19 11.06 C-2.2 10.23 -2.21 9.39 -2.22 8.53 C-2.23 7.72 -2.23 6.92 -2.23 6.1 C-2.23 5.36 -2.24 4.62 -2.24 3.86 C-2 2 -2 2 0 0 Z " fill="#333855" transform="translate(232,69)"/>
<path d="M0 0 C0.66 0.33 1.32 0.66 2 1 C2.09 4.85 2.14 8.71 2.19 12.56 C2.23 14.19 2.23 14.19 2.26 15.85 C2.32 22.05 1.99 26.53 -1 32 C-3.98 26.97 -3.33 21.68 -3.31 16 C-3.33 14.91 -3.34 13.81 -3.36 12.69 C-3.36 11.64 -3.36 10.58 -3.36 9.5 C-3.37 8.54 -3.37 7.58 -3.37 6.59 C-2.94 3.6 -1.99 2.23 0 0 Z " fill="#333855" transform="translate(966,286)"/>
<path d="M0 0 C2.38 0.88 2.38 0.88 4.38 3.88 C4.62 7.44 4.62 7.44 4.38 10.88 C2.38 12.88 2.38 12.88 -0.5 13.25 C-3.62 12.88 -3.62 12.88 -6.06 11.25 C-7.62 8.88 -7.62 8.88 -7.62 5.81 C-6.62 2.88 -6.62 2.88 -4.88 0.94 C-2.62 -0.12 -2.62 -0.12 0 0 Z " fill="#FAFDFF" transform="translate(330.625,73.125)"/>
<path d="M0 0 C2.38 0.94 2.38 0.94 4.38 3.94 C4.62 7.5 4.62 7.5 4.38 10.94 C2.38 12.94 2.38 12.94 -0.5 13.31 C-3.62 12.94 -3.62 12.94 -6.06 11.25 C-7.62 8.94 -7.62 8.94 -7.62 6.44 C-6.06 2.51 -4.48 -0.11 0 0 Z " fill="#FAFDFF" transform="translate(282.625,73.0625)"/>
<path d="M0 0 C2.38 0.94 2.38 0.94 3.75 2.56 C4.63 5.9 4.07 8.59 3.38 11.94 C2.38 12.94 2.38 12.94 -0.44 13.19 C-3.9 12.92 -5.12 12.25 -7.62 9.94 C-7.14 3.53 -7.14 3.53 -4.88 0.94 C-2.62 -0.06 -2.62 -0.06 0 0 Z " fill="#FAFDFF" transform="translate(112.625,73.0625)"/>
<path d="M0 0 C0.99 0.66 1.98 1.32 3 2 C3.3 4.46 3.3 4.46 3.18 7.52 C3.14 8.63 3.1 9.73 3.05 10.87 C3 12.02 2.94 13.18 2.88 14.38 C2.84 15.52 2.8 16.67 2.77 17.86 C2.35 27.24 2.35 27.24 -1 31 C-2.38 26.09 -2.48 21.13 -2.75 16.06 C-2.82 15.07 -2.89 14.08 -2.96 13.06 C-3.43 4.09 -3.43 4.09 0 0 Z " fill="#333855" transform="translate(787,287)"/>
<path d="M0 0 C2.33 1.51 3.64 3.07 5.27 5.31 C5.79 6.01 6.31 6.72 6.84 7.44 C8.02 9.31 8.02 9.31 8.02 11.31 C9.01 11.31 10 11.31 11.02 11.31 C11.02 12.3 11.02 13.29 11.02 14.31 C8.71 14.64 6.4 14.97 4.02 15.31 C4.02 14.65 4.02 13.99 4.02 13.31 C3.03 12.98 2.04 12.65 1.02 12.31 C-0.59 10.35 -0.59 10.35 -2.17 7.94 C-2.7 7.15 -3.23 6.35 -3.78 5.54 C-4.98 3.31 -4.98 3.31 -4.98 0.31 C-1.98 -0.69 -1.98 -0.69 0 0 Z " fill="#3F445F" transform="translate(353.984375,214.6875)"/>
<path d="M0 0 C1.38 0.01 2.77 0.04 4.15 0.07 C4.85 0.08 5.56 0.09 6.29 0.1 C8.03 0.12 9.78 0.16 11.52 0.2 C11.85 2.18 12.18 4.16 12.52 6.2 C6.91 6.2 1.3 6.2 -4.48 6.2 C-4.81 4.88 -5.14 3.56 -5.48 2.2 C-3.48 0.2 -3.48 0.2 0 0 Z " fill="#FAFDFF" transform="translate(911.4765625,241.8046875)"/>
<path d="M0 0 C1.38 0.01 2.77 0.04 4.15 0.07 C4.85 0.08 5.56 0.09 6.29 0.1 C8.03 0.12 9.78 0.16 11.52 0.2 C11.85 2.18 12.18 4.16 12.52 6.2 C6.91 6.2 1.3 6.2 -4.48 6.2 C-4.81 4.88 -5.14 3.56 -5.48 2.2 C-3.48 0.2 -3.48 0.2 0 0 Z " fill="#FAFDFF" transform="translate(576.4765625,241.8046875)"/>
<path d="M0 0 C1.38 0.01 2.77 0.04 4.15 0.07 C4.85 0.08 5.56 0.09 6.29 0.1 C8.03 0.12 9.78 0.16 11.52 0.2 C11.85 2.18 12.18 4.16 12.52 6.2 C6.91 6.2 1.3 6.2 -4.48 6.2 C-4.81 4.88 -5.14 3.56 -5.48 2.2 C-3.48 0.2 -3.48 0.2 0 0 Z " fill="#FAFDFF" transform="translate(641.4765625,190.8046875)"/>
<path d="M0 0 C0.99 0.33 1.98 0.66 3 1 C3 7.6 3 14.2 3 21 C1.35 20.67 -0.3 20.34 -2 20 C-2.05 17.04 -2.09 14.08 -2.12 11.12 C-2.14 10.28 -2.16 9.44 -2.18 8.57 C-2.18 7.77 -2.19 6.96 -2.2 6.13 C-2.21 5.02 -2.21 5.02 -2.23 3.88 C-2 2 -2 2 0 0 Z " fill="#333855" transform="translate(147,69)"/>
<path d="M0 0 C0.66 0.33 1.32 0.66 2 1 C2 2.98 2 4.96 2 7 C-3.28 8.32 -8.56 9.64 -14 11 C-14.33 9.35 -14.66 7.7 -15 6 C-12.55 4.97 -10.09 3.95 -7.62 2.94 C-6.58 2.5 -6.58 2.5 -5.51 2.04 C-3.69 1.3 -1.85 0.65 0 0 Z " fill="#333855" transform="translate(352,206)"/>
<path d="M0 0 C0.66 0.33 1.32 0.66 2 1 C2 7.6 2 14.2 2 21 C0.68 20.67 -0.64 20.34 -2 20 C-2.05 17.04 -2.09 14.08 -2.12 11.12 C-2.14 10.28 -2.16 9.44 -2.18 8.57 C-2.18 7.77 -2.19 6.96 -2.2 6.13 C-2.21 5.02 -2.21 5.02 -2.23 3.88 C-2 2 -2 2 0 0 Z " fill="#333855" transform="translate(179,69)"/>
<path d="M0 0 C0.99 0 1.98 0 3 0 C4.07 2.3 5.06 4.64 6 7 C5.67 7.66 5.34 8.32 5 9 C1.53 7.02 1.53 7.02 -2 5 C-1.12 1.12 -1.12 1.12 0 0 Z " fill="#FAFDFF" transform="translate(889,304)"/>
<path d="M0 0 C2.31 0 4.62 0 7 0 C7.66 1.32 8.32 2.64 9 4 C4.95 5.16 2.78 4.84 -1 3 C-0.67 2.01 -0.34 1.02 0 0 Z " fill="#333855" transform="translate(681,321)"/>
<path d="M0 0 C1.13 0.41 2.27 0.82 3.44 1.25 C3.77 2.24 4.1 3.23 4.44 4.25 C-2.19 5.5 -2.19 5.5 -5.56 3.25 C-5.56 2.26 -5.56 1.27 -5.56 0.25 C-3.56 -0.75 -3.56 -0.75 0 0 Z " fill="#333855" transform="translate(605.5625,287.75)"/>
<path d="M0 0 C2.31 0 4.62 0 7 0 C7.66 1.32 8.32 2.64 9 4 C6.47 5.26 4.8 5.2 2 5 C1.01 4.34 0.02 3.68 -1 3 C-0.67 2.01 -0.34 1.02 0 0 Z " fill="#333855" transform="translate(404,289)"/>
<path d="M0 0 C2.31 0 4.62 0 7 0 C7.66 1.32 8.32 2.64 9 4 C5.68 5.11 4.32 4.85 1 4 C0.34 3.67 -0.32 3.34 -1 3 C-0.67 2.01 -0.34 1.02 0 0 Z " fill="#333855" transform="translate(637,321)"/>
<path d="M0 0 C0.66 1.32 1.32 2.64 2 4 C-0.82 4.78 -2.46 5.2 -5.25 4.19 C-7 3 -7 3 -8 1 C-5.29 -0.35 -2.99 -0.07 0 0 Z " fill="#333855" transform="translate(526,289)"/>
<path d="M0 0 C0.99 0.33 1.98 0.66 3 1 C4.19 4.06 4.19 4.06 5 7 C2.12 6.69 2.12 6.69 -1 6 C-1.66 5.01 -2.32 4.02 -3 3 C-2.01 2.01 -1.02 1.02 0 0 Z " fill="#FAFDFF" transform="translate(745,304)"/>
<path d="M0 0 C1.32 0 2.64 0 4 0 C6 3 6 3 6 6 C4.02 6 2.04 6 0 6 C-1.12 2.25 -1.12 2.25 0 0 Z " fill="#FAFDFF" transform="translate(407,304)"/>
<path d="M0 0 C1.71 1.62 3.37 3.29 5 5 C5 5.66 5 6.32 5 7 C2.69 7 0.38 7 -2 7 C-2.33 6.34 -2.66 5.68 -3 5 C-1.56 2.38 -1.56 2.38 0 0 Z " fill="#FAFDFF" transform="translate(527,194)"/>
<path d="M0 0 C1.71 1.62 3.37 3.29 5 5 C5 5.66 5 6.32 5 7 C2.69 7.33 0.38 7.66 -2 8 C-1.12 2.25 -1.12 2.25 0 0 Z " fill="#FAFDFF" transform="translate(860,245)"/>
<path d="M0 0 C2.53 2.36 3.89 3.66 5 7 C2.69 7 0.38 7 -2 7 C-2.33 6.34 -2.66 5.68 -3 5 C-1.56 2.38 -1.56 2.38 0 0 Z " fill="#FAFDFF" transform="translate(737,194)"/>
<path d="M0 0 C1.98 0 3.96 0 6 0 C6.66 1.32 7.32 2.64 8 4 C4.8 5.6 2.28 4.03 -1 3 C-0.67 2.01 -0.34 1.02 0 0 Z " fill="#333855" transform="translate(815,288)"/>
<path d="M0 0 C3 1 3 1 5 3 C5.99 3.66 6.98 4.32 8 5 C5.35 6.46 4.11 7 1 7 C-0.06 4.62 -0.06 4.62 -1 2 C-0.67 1.34 -0.34 0.68 0 0 Z " fill="#333855" transform="translate(757,275)"/>
</svg>
