<?xml version="1.0" encoding="UTF-8"?>
<!-- Generator: visioncortex VTracer 0.6.3 -->
<svg version="1.1" xmlns="http://www.w3.org/2000/svg" width="1280" height="1280">
<path d="M0 0 C422.4 0 844.8 0 1280 0 C1280 422.4 1280 844.8 1280 1280 C857.6 1280 435.2 1280 0 1280 C0 857.6 0 435.2 0 0 Z " fill="#F9FCFE" transform="translate(0,0)"/>
<path d="M0 0 C0.68 -0 1.36 -0 2.06 -0 C4.34 -0.01 6.63 -0.01 8.91 -0 C10.55 -0 12.18 -0.01 13.82 -0.01 C18.26 -0.01 22.71 -0.01 27.15 -0.01 C31.8 -0 36.44 -0.01 41.09 -0.01 C48.89 -0.01 56.68 -0.01 64.48 -0 C73.51 0 82.54 0 91.57 -0.01 C99.31 -0.01 107.05 -0.01 114.79 -0.01 C119.42 -0.01 124.05 -0.01 128.68 -0.01 C133.03 -0.01 137.38 -0.01 141.73 -0 C143.33 -0 144.93 -0 146.53 -0.01 C148.7 -0.01 150.88 -0.01 153.06 0 C154.28 0 155.5 0 156.75 0 C159.46 0.13 159.46 0.13 160.46 1.13 C160.56 3.17 160.59 5.21 160.59 7.26 C160.6 7.91 160.6 8.56 160.6 9.23 C160.61 11.44 160.6 13.64 160.6 15.85 C160.6 17.44 160.61 19.03 160.61 20.62 C160.62 25 160.62 29.39 160.62 33.78 C160.62 38.5 160.63 43.22 160.64 47.95 C160.65 56.15 160.66 64.34 160.66 72.54 C160.67 85.53 160.69 98.51 160.72 111.49 C160.72 115.94 160.73 120.38 160.74 124.83 C160.74 125.94 160.74 127.05 160.74 128.19 C160.77 140.86 160.78 153.52 160.8 166.18 C160.8 167.34 160.81 168.5 160.81 169.69 C160.83 188.38 160.85 207.08 160.87 225.77 C160.89 244.99 160.92 264.2 160.95 283.42 C160.98 295.26 160.99 307.09 160.99 318.93 C161 327.07 161.01 335.21 161.03 343.35 C161.04 348.03 161.05 352.71 161.04 357.39 C160.64 428.88 160.64 428.88 191.46 491.13 C191.94 491.65 192.42 492.17 192.91 492.71 C210.24 511.51 231.74 523.13 257.65 524.27 C285.69 525.03 311.83 523.52 334.46 505.13 C335.32 504.46 336.18 503.79 337.06 503.1 C365.44 479.75 373.02 438.12 376.48 403.85 C378.01 387.53 377.9 371.17 377.87 354.79 C377.86 350.04 377.88 345.29 377.89 340.54 C377.9 332.35 377.91 324.16 377.91 315.97 C377.9 304.13 377.92 292.29 377.94 280.45 C377.97 261.22 378 242 378.01 222.77 C378.01 221.06 378.01 221.06 378.01 219.3 C378.01 214.66 378.02 210.01 378.02 205.37 C378.03 192.52 378.04 179.68 378.05 166.83 C378.05 165.68 378.05 164.52 378.05 163.33 C378.07 144.14 378.1 124.94 378.13 105.75 C378.15 93.93 378.16 82.1 378.16 70.28 C378.16 62.2 378.17 54.13 378.18 46.05 C378.19 41.39 378.19 36.72 378.19 32.06 C378.18 27.8 378.19 23.54 378.2 19.28 C378.2 17.73 378.2 16.18 378.2 14.64 C378.19 12.55 378.2 10.46 378.21 8.36 C378.21 7.2 378.21 6.04 378.21 4.84 C378.46 2.13 378.46 2.13 380.46 0.13 C383.3 -0.12 383.3 -0.12 386.99 -0.13 C387.67 -0.13 388.35 -0.13 389.05 -0.14 C391.33 -0.14 393.61 -0.14 395.9 -0.13 C397.53 -0.13 399.16 -0.14 400.8 -0.14 C405.24 -0.15 409.68 -0.15 414.12 -0.14 C418.76 -0.14 423.4 -0.14 428.04 -0.14 C435.84 -0.15 443.63 -0.14 451.43 -0.13 C460.45 -0.12 469.47 -0.13 478.49 -0.14 C486.23 -0.15 493.96 -0.15 501.7 -0.14 C506.32 -0.14 510.95 -0.14 515.57 -0.15 C519.92 -0.15 524.27 -0.15 528.61 -0.14 C530.21 -0.13 531.81 -0.13 533.41 -0.14 C535.58 -0.14 537.76 -0.14 539.94 -0.13 C541.15 -0.13 542.37 -0.13 543.63 -0.12 C546.46 0.13 546.46 0.13 548.46 2.13 C548.71 5.03 548.71 5.03 548.72 8.84 C548.72 9.54 548.72 10.24 548.72 10.96 C548.73 13.34 548.73 15.71 548.72 18.08 C548.72 19.79 548.72 21.5 548.73 23.21 C548.74 27.93 548.73 32.64 548.73 37.36 C548.72 42.44 548.73 47.52 548.73 52.6 C548.74 62.57 548.74 72.54 548.73 82.5 C548.73 90.61 548.73 98.72 548.73 106.83 C548.73 107.99 548.73 109.14 548.73 110.33 C548.73 112.67 548.73 115.01 548.73 117.36 C548.74 139.36 548.73 161.37 548.72 183.37 C548.71 202.22 548.72 221.07 548.72 239.91 C548.74 261.8 548.74 283.7 548.73 305.59 C548.73 307.93 548.73 310.27 548.73 312.61 C548.73 313.76 548.73 314.91 548.73 316.1 C548.73 324.18 548.73 332.26 548.74 340.34 C548.74 350.22 548.74 360.1 548.73 369.97 C548.73 375.01 548.72 380.04 548.73 385.07 C548.76 409.46 548.56 433.54 544.21 457.63 C544 458.84 543.78 460.05 543.56 461.3 C533.69 515.09 508.14 563.21 464.46 597.13 C463.59 597.83 462.71 598.53 461.81 599.26 C426.92 626.57 383.9 640.72 340.66 647.61 C338.66 647.94 336.66 648.27 334.66 648.64 C314.49 652.13 293.88 652.46 273.47 652.39 C269.83 652.38 266.2 652.39 262.57 652.4 C241.98 652.41 221.67 651.14 201.34 647.81 C200.67 647.71 200 647.6 199.31 647.49 C175.1 643.59 150.96 638.12 128.46 628.13 C127.68 627.78 126.91 627.44 126.1 627.08 C88.83 610.37 56.39 586.43 32.46 553.13 C31.7 552.08 30.94 551.03 30.16 549.94 C7.97 518.07 -3 477.76 -7.25 439.65 C-7.42 438.13 -7.6 436.6 -7.8 435.08 C-8.81 426.66 -8.67 418.22 -8.66 409.75 C-8.66 407.99 -8.66 406.22 -8.66 404.45 C-8.66 399.62 -8.66 394.79 -8.65 389.95 C-8.65 384.73 -8.65 379.51 -8.65 374.29 C-8.65 365.25 -8.65 356.21 -8.64 347.18 C-8.63 334.11 -8.63 321.04 -8.63 307.97 C-8.63 286.77 -8.62 265.57 -8.61 244.37 C-8.6 223.77 -8.59 203.18 -8.59 182.58 C-8.59 181.31 -8.59 180.04 -8.59 178.74 C-8.59 172.37 -8.59 166 -8.59 159.63 C-8.58 106.79 -8.56 53.96 -8.54 1.13 C-5.66 -0.31 -3.21 0 0 0 Z " fill="#255375" transform="translate(613.5357818603516,200.87301635742188)"/>
<path d="M0 0 C1.26 -0 1.26 -0 2.55 -0 C34.45 0.04 66.22 2.45 97.65 7.91 C99.63 8.25 101.61 8.58 103.58 8.92 C118.61 11.48 133.3 14.75 147.94 18.94 C148.62 19.13 149.3 19.32 150 19.52 C151.92 20.07 153.83 20.63 155.74 21.2 C157.37 21.68 157.37 21.68 159.04 22.18 C161.62 23.25 161.62 23.25 163.62 26.25 C163.62 29.04 163.5 31.69 163.27 34.46 C163.21 35.28 163.15 36.1 163.08 36.95 C162.88 39.66 162.66 42.36 162.44 45.06 C162.29 46.95 162.14 48.84 162 50.73 C161.1 62.21 160.04 73.66 158.83 85.1 C157.27 100.11 156.15 115.16 154.98 130.21 C154.9 131.26 154.82 132.32 154.73 133.41 C154.58 135.4 154.42 137.39 154.27 139.37 C153.83 145.01 153.28 150.63 152.62 156.25 C149.29 155.67 146.42 154.85 143.34 153.46 C110.66 139.15 74.99 132.66 39.62 129.25 C38.68 129.16 37.73 129.06 36.76 128.96 C-0.44 125.52 -53.45 124.91 -84.13 149.45 C-93.41 157.61 -98.37 165.6 -101.19 177.75 C-101.94 191.78 -101.57 203.95 -92.38 215.25 C-91.91 215.84 -91.44 216.43 -90.96 217.04 C-85.34 223.35 -77.71 227.27 -70.38 231.25 C-69.66 231.64 -68.95 232.03 -68.21 232.43 C-38.15 248.58 -3.52 256.26 29.14 265.49 C54.88 272.77 80.14 280.18 103.62 293.25 C104.41 293.67 105.2 294.09 106 294.52 C118.98 301.49 130.65 309.45 141.62 319.25 C142.4 319.9 143.17 320.55 143.96 321.22 C148.68 325.19 152.68 329.52 156.62 334.25 C157.29 335.02 157.96 335.78 158.64 336.57 C178.51 359.95 190.71 386.05 195.62 416.25 C195.79 417.28 195.79 417.28 195.97 418.34 C201.9 456.2 198.6 497.13 185.62 533.25 C185.41 533.87 185.19 534.49 184.97 535.13 C174.65 564.23 152.33 592 127.62 610.25 C127 610.71 126.37 611.18 125.73 611.66 C117.02 618.08 108.47 623.7 98.62 628.25 C97.4 628.87 96.18 629.5 94.96 630.14 C62.02 647.26 25.5 654.16 -10.94 659.56 C-11.91 659.71 -12.88 659.86 -13.88 660.01 C-35.76 663.05 -57.81 663.58 -79.86 663.51 C-83.37 663.5 -86.88 663.51 -90.38 663.52 C-115.01 663.59 -139.09 661.62 -163.5 658.44 C-164.51 658.31 -165.53 658.17 -166.58 658.04 C-198.15 653.94 -229.6 649 -260.19 639.94 C-261.41 639.57 -261.41 639.57 -262.67 639.2 C-268.11 637.51 -268.11 637.51 -270.38 635.25 C-271.18 627.21 -270.07 619 -269.13 611.01 C-268.85 608.53 -268.57 606.05 -268.3 603.58 C-268.19 602.59 -268.19 602.59 -268.07 601.58 C-267.12 593.02 -266.26 584.44 -265.4 575.87 C-265.23 574.16 -265.06 572.46 -264.89 570.76 C-264.27 564.66 -263.66 558.57 -263.05 552.48 C-262.52 547.25 -261.99 542.02 -261.47 536.79 C-261.22 534.4 -260.98 532.01 -260.74 529.62 C-260.3 525.16 -259.84 520.7 -259.38 516.25 C-259.29 515.43 -259.2 514.61 -259.12 513.77 C-258.86 511.28 -258.59 508.8 -258.32 506.31 C-258.24 505.55 -258.16 504.78 -258.08 503.99 C-257.75 500.93 -257.35 498.19 -256.38 495.25 C-252.8 495.84 -249.93 496.8 -246.7 498.44 C-245.8 498.88 -244.9 499.33 -243.98 499.79 C-243.02 500.27 -242.05 500.75 -241.06 501.25 C-205.81 518.45 -167.29 528.88 -128.38 533.25 C-127.6 533.34 -126.83 533.43 -126.03 533.52 C-112.15 535.04 -98.41 535.57 -84.45 535.51 C-81.24 535.5 -78.04 535.51 -74.83 535.52 C-45.56 535.54 -14.54 534.05 7.94 513.09 C18.25 502.31 21.98 489.97 21.86 475.4 C21.48 459.38 18.01 446.54 6.51 435 C-26.45 403.56 -82.14 391.88 -124.99 379.95 C-144.09 374.63 -162.69 367.21 -180.38 358.25 C-182.02 357.43 -182.02 357.43 -183.7 356.59 C-198.02 349.15 -210.98 340.33 -222.94 329.53 C-224.8 327.87 -226.71 326.29 -228.62 324.69 C-258.09 298.67 -274.25 261.07 -277.09 222.23 C-278.73 192.43 -277.43 163.88 -268.38 135.25 C-268.14 134.52 -267.91 133.78 -267.68 133.03 C-259.89 108.94 -244.77 89.26 -227.38 71.25 C-226.66 70.48 -225.95 69.7 -225.22 68.91 C-218.11 61.37 -209.74 55.32 -201.38 49.25 C-200.81 48.83 -200.24 48.41 -199.65 47.98 C-165.39 23.12 -120.4 12.95 -79.38 6.25 C-78.37 6.08 -77.37 5.91 -76.34 5.74 C-51.17 1.5 -25.51 0.02 0 0 Z " fill="#255375" transform="translate(394.375,189.75)"/>
<path d="M0 0 C1.09 -0 1.09 -0 2.2 -0 C4.66 -0.01 7.13 -0 9.59 0 C11.37 0 13.15 -0 14.93 -0 C19.86 -0.01 24.79 -0 29.72 0 C35.07 0.01 40.42 0 45.77 0 C55.16 -0 64.55 0 73.93 0 C87.89 0.01 101.85 0.01 115.82 0.01 C139.3 0.01 162.78 0.01 186.26 0.02 C209.52 0.02 232.77 0.03 256.03 0.03 C256.76 0.03 257.48 0.03 258.22 0.03 C264.81 0.03 271.41 0.03 278 0.03 C294.39 0.03 310.78 0.03 327.17 0.03 C328.29 0.03 328.29 0.03 329.43 0.03 C365.76 0.04 402.08 0.04 438.41 0.05 C451.02 0.05 463.63 0.05 476.24 0.06 C477.02 0.06 477.8 0.06 478.61 0.06 C514.95 0.06 551.29 0.07 587.63 0.07 C589.99 0.07 592.35 0.07 594.71 0.07 C610.34 0.07 625.97 0.07 641.6 0.07 C672.7 0.08 703.81 0.08 734.91 0.08 C736.39 0.08 737.87 0.08 739.35 0.08 C822.62 0.09 905.9 0.1 1035.07 0.12 C1035.4 2.43 1035.73 4.74 1036.07 7.12 C949.05 7.14 862.04 7.15 737.52 7.17 C736.03 7.17 734.54 7.17 733.06 7.17 C701.86 7.17 670.66 7.17 639.46 7.18 C623.79 7.18 608.12 7.18 592.44 7.18 C590.08 7.18 587.72 7.18 585.35 7.18 C548.93 7.18 512.52 7.19 476.1 7.19 C475.31 7.19 474.53 7.19 473.72 7.19 C461.09 7.2 448.46 7.2 435.83 7.2 C399.46 7.21 363.09 7.21 326.72 7.22 C325.97 7.22 325.22 7.22 324.45 7.22 C308.05 7.22 291.65 7.22 275.24 7.22 C268.64 7.22 262.04 7.22 255.44 7.22 C254.36 7.22 254.36 7.22 253.25 7.22 C229.95 7.22 206.65 7.22 183.35 7.23 C159.24 7.24 135.13 7.24 111.02 7.24 C97.11 7.24 83.19 7.24 69.28 7.24 C60 7.25 50.73 7.25 41.45 7.25 C36.15 7.24 30.85 7.24 25.56 7.25 C20.75 7.25 15.94 7.25 11.13 7.25 C9.39 7.25 7.65 7.25 5.91 7.25 C3.57 7.25 1.23 7.25 -1.11 7.25 C-3.07 7.25 -3.07 7.25 -5.06 7.25 C-7.93 7.12 -7.93 7.12 -8.93 6.12 C-8.97 4.46 -8.97 2.79 -8.93 1.12 C-5.96 -0.36 -3.31 -0 0 0 Z " fill="#3BAAE2" transform="translate(125.92973148822784,883.8758015036583)"/>
<path d="M0 0 C1.09 -0 1.09 -0 2.2 -0 C4.66 -0.01 7.13 -0 9.59 -0 C11.37 -0 13.15 -0 14.93 -0 C19.86 -0.01 24.79 -0.01 29.72 -0 C35.06 -0 40.41 -0 45.76 -0.01 C55.15 -0.01 64.53 -0.01 73.92 -0.01 C87.88 -0 101.84 -0.01 115.8 -0.01 C139.27 -0.01 162.75 -0.01 186.23 -0.01 C186.94 -0.01 187.66 -0.01 188.39 -0.01 C189.47 -0.01 189.47 -0.01 190.57 -0.01 C212.38 -0.01 234.19 -0.01 256 -0.01 C257.45 -0.01 258.91 -0.01 260.37 -0.01 C266.23 -0.01 272.1 -0.01 277.96 -0.01 C294.35 -0.01 310.74 -0.01 327.12 -0.01 C327.87 -0.01 328.62 -0.01 329.39 -0.01 C353.18 -0.01 376.97 -0.01 400.76 -0.01 C401.54 -0.01 402.31 -0.01 403.1 -0.01 C415.64 -0.01 428.18 -0.01 440.72 -0 C490.45 0 540.18 -0 589.92 -0.01 C602.45 -0.01 614.98 -0.01 627.51 -0.01 C628.28 -0.01 629.06 -0.01 629.85 -0.01 C653.62 -0.01 677.39 -0.01 701.15 -0.01 C701.9 -0.01 702.65 -0.01 703.41 -0.01 C719.78 -0.01 736.15 -0.01 752.52 -0.01 C758.38 -0.01 764.24 -0.01 770.09 -0.01 C771.55 -0.01 773.01 -0.01 774.46 -0.01 C796.27 -0.01 818.08 -0.01 839.88 -0.01 C840.6 -0.01 841.32 -0.01 842.05 -0.01 C843.12 -0.01 843.12 -0.01 844.22 -0.01 C868.27 -0.01 892.33 -0.01 916.39 -0.01 C930.27 -0 944.15 -0 958.04 -0.01 C967.29 -0.01 976.55 -0.01 985.8 -0 C991.09 -0 996.38 -0 1001.66 -0.01 C1006.46 -0.01 1011.26 -0.01 1016.05 -0 C1017.79 -0 1019.52 -0 1021.26 -0 C1023.6 -0.01 1025.93 -0 1028.27 0 C1029.57 0 1030.87 0 1032.21 0 C1035.07 0.13 1035.07 0.13 1036.07 1.13 C1036.2 3.63 1036.2 3.63 1036.07 6.13 C1034.17 8.03 1030.79 7.25 1028.27 7.25 C1027.18 7.25 1027.18 7.25 1026.07 7.26 C1023.61 7.26 1021.14 7.26 1018.68 7.25 C1016.9 7.26 1015.13 7.26 1013.35 7.26 C1008.42 7.26 1003.49 7.26 998.55 7.26 C993.21 7.26 987.86 7.26 982.51 7.27 C973.13 7.27 963.74 7.27 954.35 7.27 C940.4 7.27 926.44 7.27 912.48 7.28 C886.11 7.29 859.73 7.29 833.36 7.29 C830.45 7.29 827.54 7.29 824.63 7.29 C823.9 7.29 823.18 7.29 822.44 7.29 C806.45 7.29 790.46 7.3 774.46 7.3 C767.89 7.3 761.31 7.3 754.73 7.3 C754 7.3 753.27 7.3 752.52 7.3 C710.85 7.31 669.18 7.31 627.51 7.31 C625.95 7.31 624.39 7.31 622.83 7.31 C615.79 7.31 608.74 7.31 601.7 7.31 C598.56 7.31 595.42 7.31 592.27 7.31 C590.7 7.31 589.13 7.31 587.56 7.31 C537.82 7.31 488.09 7.32 438.36 7.33 C425.83 7.33 413.3 7.34 400.76 7.34 C399.61 7.34 399.61 7.34 398.43 7.34 C374.66 7.35 350.89 7.35 327.12 7.35 C326.01 7.35 326.01 7.35 324.86 7.35 C308.49 7.35 292.12 7.35 275.75 7.35 C269.9 7.35 264.04 7.35 258.18 7.35 C256.73 7.35 255.27 7.35 253.81 7.35 C230.56 7.35 207.31 7.36 184.06 7.37 C160 7.38 135.95 7.38 111.89 7.37 C98.01 7.37 84.12 7.37 70.24 7.38 C60.98 7.39 51.73 7.38 42.47 7.38 C37.18 7.37 31.9 7.37 26.61 7.38 C21.81 7.39 17.02 7.39 12.22 7.38 C10.48 7.38 8.75 7.38 7.01 7.38 C4.68 7.39 2.34 7.38 0 7.37 C-1.3 7.37 -2.6 7.38 -3.94 7.38 C-6.93 7.13 -6.93 7.13 -8.93 5.13 C-8.93 3.81 -8.93 2.49 -8.93 1.13 C-5.96 -0.36 -3.31 0 0 0 Z " fill="#3BAAE2" transform="translate(125.92858082056046,991.8746508359909)"/>
<path d="M0 0 C1.07 -0.01 2.14 -0.03 3.25 -0.04 C6 0.19 6 0.19 8 2.19 C8.28 5.04 8.47 7.82 8.56 10.69 C8.53 16.1 8.53 16.1 10 21.19 C11 19.78 11 19.78 12.01 18.34 C12.9 17.08 13.8 15.82 14.69 14.56 C15.12 13.95 15.56 13.33 16.01 12.69 C23.73 1.82 23.73 1.82 27 0.19 C29.55 0.12 32.07 0.09 34.62 0.12 C35.68 0.13 35.68 0.13 36.77 0.14 C38.51 0.15 40.26 0.17 42 0.19 C42.5 1.67 42.5 1.67 43 3.19 C41.62 5.33 40.23 7.22 38.62 9.19 C38.17 9.76 37.72 10.32 37.26 10.91 C35.85 12.68 34.43 14.43 33 16.19 C32.55 16.74 32.1 17.3 31.64 17.87 C29.11 20.99 26.56 24.1 24 27.19 C25.6 32.22 28.63 35.94 31.81 40.06 C32.86 41.43 33.91 42.81 34.96 44.18 C35.47 44.85 35.98 45.51 36.5 46.2 C37.96 48.14 39.36 50.11 40.74 52.11 C42.79 54.9 43.78 56.11 47 57.19 C47.17 56.16 47.17 56.16 47.35 55.12 C48.11 51.71 49.24 48.6 50.48 45.33 C50.72 44.68 50.97 44.02 51.22 43.35 C52.02 41.23 52.82 39.11 53.62 37 C54.17 35.55 54.72 34.1 55.27 32.65 C56.35 29.8 57.44 26.94 58.52 24.09 C59.78 20.78 61.02 17.46 62.25 14.14 C62.85 12.53 63.46 10.92 64.06 9.31 C64.32 8.6 64.59 7.88 64.86 7.14 C66.19 3.64 66.78 2.33 70 0.19 C72.77 0.05 75.43 -0 78.19 0.06 C78.94 0.07 79.69 0.08 80.46 0.09 C82.31 0.11 84.15 0.15 86 0.19 C90.8 8.9 94.24 18.16 97.79 27.44 C98.82 30.15 99.87 32.85 100.91 35.55 C101.57 37.27 102.23 38.99 102.89 40.71 C103.21 41.52 103.52 42.33 103.84 43.16 C106 48.84 106 48.84 106 52.19 C106.66 52.19 107.32 52.19 108 52.19 C108.33 35.36 108.66 18.53 109 1.19 C111.3 0.04 112.58 0.07 115.13 0.09 C115.94 0.09 116.74 0.1 117.57 0.1 C118.84 0.11 118.84 0.11 120.12 0.12 C120.97 0.13 121.82 0.13 122.7 0.14 C124.8 0.15 126.9 0.17 129 0.19 C129.33 0.83 129.66 1.47 130.01 2.12 C131.54 5.08 133.08 8.04 134.62 11 C135.15 12 135.67 13.01 136.21 14.04 C139.73 20.8 143.33 27.51 147 34.19 C148.92 32.26 148.25 28.72 148.32 26.09 C148.35 25.03 148.35 25.03 148.38 23.94 C148.44 21.67 148.5 19.4 148.56 17.12 C148.61 15.59 148.65 14.05 148.69 12.51 C148.8 8.74 148.9 4.96 149 1.19 C151.62 -0.12 153.64 0.05 156.56 0.06 C157.55 0.06 158.55 0.06 159.57 0.05 C162 0.19 162 0.19 163 1.19 C163.09 3 163.12 4.81 163.11 6.63 C163.11 7.79 163.11 8.95 163.11 10.14 C163.11 11.41 163.1 12.67 163.1 13.97 C163.1 15.9 163.1 15.9 163.09 17.87 C163.09 21.29 163.08 24.72 163.07 28.14 C163.06 31.63 163.05 35.13 163.05 38.62 C163.04 45.48 163.02 52.33 163 59.19 C159.9 59.27 156.79 59.33 153.69 59.38 C152.81 59.4 151.93 59.43 151.02 59.45 C150.17 59.46 149.32 59.47 148.45 59.48 C147.28 59.5 147.28 59.5 146.08 59.53 C143.46 59.1 142.64 58.24 141 56.19 C140.1 54.61 139.27 53 138.48 51.36 C138.01 50.42 137.55 49.47 137.07 48.49 C136.35 47.01 136.35 47.01 135.62 45.5 C132.67 39.39 129.73 33.45 125.9 27.83 C125 26.19 125 26.19 125 23.19 C124.34 23.19 123.68 23.19 123 23.19 C123.33 35.07 123.66 46.95 124 59.19 C118.95 59.25 113.89 59.31 108.69 59.38 C106.3 59.42 106.3 59.42 103.87 59.46 C101.99 59.47 101.99 59.47 100.07 59.48 C98.79 59.5 97.51 59.51 96.19 59.53 C93 59.19 93 59.19 90 56.19 C89.01 53.22 88.02 50.25 87 47.19 C77.1 47.68 77.1 47.68 67 48.19 C65.35 51.82 63.7 55.45 62 59.19 C52.91 59.94 43.87 60.36 34.75 60.06 C33.95 60.05 33.16 60.04 32.33 60.03 C28.24 59.85 26.47 59.56 23.18 56.94 C21.18 54.42 19.25 51.91 17.44 49.25 C16.85 48.39 16.26 47.52 15.65 46.63 C15.1 45.82 14.56 45.02 14 44.19 C13.56 43.56 13.12 42.93 12.66 42.28 C10 38.43 10 38.43 10 36.19 C9.34 36.19 8.68 36.19 8 36.19 C8 43.78 8 51.37 8 59.19 C5.55 59.21 3.09 59.23 0.56 59.25 C-0.6 59.26 -0.6 59.26 -1.78 59.28 C-3.52 59.28 -5.26 59.24 -7 59.19 C-8 58.19 -8 58.19 -8.12 55.9 C-8.12 54.89 -8.12 53.88 -8.11 52.84 C-8.11 51.7 -8.11 50.56 -8.11 49.38 C-8.11 48.14 -8.1 46.9 -8.1 45.62 C-8.1 44.36 -8.09 43.09 -8.09 41.79 C-8.09 38.43 -8.08 35.06 -8.07 31.7 C-8.06 28.26 -8.05 24.83 -8.05 21.4 C-8.04 14.66 -8.02 7.93 -8 1.19 C-5.27 -0.18 -3.04 0.02 0 0 Z " fill="#255375" transform="translate(626,1027.8125)"/>
<path d="M0 0 C1.16 -0.06 1.16 -0.06 2.35 -0.11 C4.62 -0.15 4.62 -0.15 8.56 0.38 C11.11 3.81 12.53 7.59 14.02 11.57 C14.47 12.78 14.92 13.98 15.38 15.22 C15.62 15.84 15.85 16.47 16.09 17.12 C16.82 19.08 17.55 21.03 18.28 22.98 C19.26 25.58 20.23 28.17 21.2 30.76 C23.01 35.56 24.84 40.35 26.69 45.12 C26.97 45.86 27.25 46.6 27.54 47.36 C28.64 50.61 28.64 50.61 30.56 53.38 C30.89 36.21 31.22 19.06 31.56 1.38 C35.91 -0.8 41.79 0.19 46.56 0.19 C47.76 0.18 48.95 0.16 50.18 0.15 C66.78 0.12 66.78 0.12 73.5 4.12 C77.74 8.75 79.14 12.95 78.91 19.12 C78.31 23 76.94 25.23 74.56 28.38 C71.92 29.57 71.92 29.57 69.56 30.38 C69.94 31.1 70.31 31.83 70.7 32.58 C74.33 39.72 77.58 46.94 80.56 54.38 C81.22 54.38 81.88 54.38 82.56 54.38 C84.77 48.6 86.97 42.82 89.18 37.03 C89.93 35.07 90.68 33.11 91.42 31.15 C92.15 29.24 92.88 27.34 93.61 25.43 C94.31 23.58 95.02 21.73 95.73 19.88 C97.85 14.33 99.86 8.77 101.68 3.12 C102.56 1.38 102.56 1.38 105.56 0.38 C108.25 0.18 110.88 0.05 113.56 0 C114.29 -0.04 115.01 -0.07 115.76 -0.11 C117.88 -0.15 117.88 -0.15 121.56 0.38 C123.81 3.49 125.25 6.8 126.63 10.36 C127.01 11.33 127.39 12.29 127.77 13.28 C128.17 14.31 128.57 15.34 128.98 16.41 C129.39 17.47 129.81 18.54 130.23 19.64 C131.11 21.9 131.98 24.16 132.85 26.41 C134.18 29.86 135.52 33.31 136.87 36.76 C137.72 38.96 138.57 41.15 139.41 43.34 C139.82 44.37 140.22 45.4 140.63 46.47 C141 47.43 141.37 48.39 141.75 49.39 C142.24 50.66 142.24 50.66 142.74 51.95 C143.57 54.41 144.11 56.82 144.56 59.38 C141.94 59.4 139.31 59.42 136.69 59.44 C135.94 59.45 135.19 59.45 134.43 59.46 C128.79 59.49 128.79 59.49 126.56 58.38 C125.49 56.38 125.49 56.38 124.44 53.94 C123.91 52.73 123.91 52.73 123.37 51.5 C122.56 49.38 122.56 49.38 122.56 47.38 C112.66 47.87 112.66 47.87 102.56 48.38 C100.09 53.82 100.09 53.82 97.56 59.38 C93.04 59.4 88.52 59.42 84 59.43 C82.46 59.43 80.92 59.44 79.39 59.45 C77.18 59.46 74.97 59.47 72.76 59.47 C72.07 59.48 71.38 59.48 70.67 59.49 C65.79 59.49 65.79 59.49 63.56 58.38 C62.43 55.28 61.46 52.17 60.51 49.01 C59.32 45.25 58.05 42.43 55.56 39.38 C55.56 38.71 55.56 38.06 55.56 37.38 C52.92 37.38 50.28 37.38 47.56 37.38 C47.56 44.63 47.56 51.89 47.56 59.38 C43.04 59.4 38.52 59.42 34 59.43 C32.46 59.43 30.92 59.44 29.39 59.45 C27.18 59.46 24.97 59.47 22.76 59.47 C22.07 59.48 21.38 59.48 20.67 59.49 C15.79 59.49 15.79 59.49 13.56 58.38 C12.49 56.38 12.49 56.38 11.44 53.94 C11.08 53.13 10.73 52.33 10.37 51.5 C9.56 49.38 9.56 49.38 9.56 47.38 C-0.34 47.87 -0.34 47.87 -10.44 48.38 C-12.09 52.01 -13.74 55.63 -15.44 59.38 C-20.39 59.38 -25.34 59.38 -30.44 59.38 C-31.44 57.38 -31.44 57.38 -30.94 55.5 C-30.65 54.74 -30.35 53.98 -30.05 53.19 C-29.73 52.33 -29.4 51.46 -29.06 50.57 C-28.7 49.63 -28.33 48.69 -27.96 47.72 C-27.59 46.75 -27.22 45.78 -26.84 44.78 C-25.65 41.67 -24.45 38.55 -23.25 35.44 C-22.07 32.35 -20.89 29.27 -19.72 26.19 C-18.98 24.27 -18.25 22.35 -17.51 20.43 C-17.16 19.54 -16.82 18.64 -16.47 17.72 C-16.13 16.85 -15.8 15.98 -15.45 15.09 C-14.02 11.25 -12.68 7.38 -11.36 3.5 C-9.37 -1.07 -4.34 0.08 0 0 Z " fill="#255375" transform="translate(863.4375,1027.625)"/>
<path d="M0 0 C1.16 0.01 2.33 0.02 3.52 0.03 C5.41 0.04 5.41 0.04 7.33 0.05 C9.31 0.08 9.31 0.08 11.33 0.1 C12.67 0.11 14.01 0.12 15.35 0.13 C18.63 0.15 21.92 0.19 25.2 0.23 C25.76 1.41 26.32 2.6 26.89 3.82 C33.37 17.58 40.05 31.21 47.14 44.66 C47.53 45.41 47.92 46.15 48.32 46.91 C49.96 50.28 49.96 50.28 52.2 53.23 C52.21 52.59 52.22 51.96 52.23 51.3 C52.34 44.72 52.46 38.13 52.57 31.55 C52.62 29.09 52.66 26.63 52.7 24.17 C52.76 20.64 52.82 17.11 52.89 13.58 C52.9 12.47 52.92 11.37 52.94 10.23 C52.96 9.21 52.98 8.19 53 7.14 C53.01 6.23 53.03 5.33 53.04 4.4 C53.2 2.23 53.2 2.23 54.2 0.23 C57.35 0.2 60.49 0.18 63.64 0.16 C64.99 0.15 64.99 0.15 66.36 0.14 C67.21 0.14 68.07 0.13 68.95 0.13 C69.74 0.12 70.53 0.12 71.34 0.11 C73.2 0.23 73.2 0.23 74.2 1.23 C74.3 3.9 74.33 6.56 74.32 9.24 C74.32 10.07 74.32 10.91 74.32 11.78 C74.32 14.56 74.31 17.35 74.3 20.14 C74.3 22.06 74.3 23.99 74.3 25.92 C74.29 31 74.28 36.08 74.27 41.16 C74.26 46.34 74.26 51.52 74.25 56.71 C74.24 66.88 74.22 77.05 74.2 87.23 C69.79 87.34 65.37 87.41 60.95 87.48 C59.7 87.51 58.44 87.54 57.15 87.58 C55.34 87.6 55.34 87.6 53.5 87.62 C52.39 87.64 51.28 87.66 50.14 87.68 C46.52 87.12 45.44 86.06 43.2 83.23 C41.94 80.99 40.8 78.79 39.7 76.48 C39.01 75.05 38.31 73.63 37.62 72.2 C37.24 71.41 36.86 70.63 36.47 69.82 C34.04 64.83 31.55 59.88 29.08 54.91 C28.59 53.93 28.1 52.94 27.59 51.92 C27.11 50.95 26.63 49.98 26.13 48.99 C25.71 48.14 25.29 47.3 24.86 46.43 C22.39 41.65 19.79 36.94 17.2 32.23 C17.2 32.9 17.21 33.58 17.21 34.27 C17.23 41.26 17.25 48.25 17.26 55.24 C17.26 57.86 17.27 60.47 17.28 63.08 C17.29 66.83 17.3 70.57 17.3 74.32 C17.31 75.49 17.31 76.67 17.32 77.88 C17.32 79.5 17.32 79.5 17.32 81.16 C17.32 82.11 17.32 83.07 17.32 84.06 C17.2 86.23 17.2 86.23 16.2 87.23 C13.06 87.48 9.91 87.41 6.77 87.41 C5.44 87.43 5.44 87.43 4.08 87.45 C3.24 87.45 2.39 87.46 1.52 87.46 C0.74 87.46 -0.04 87.47 -0.84 87.47 C-2.8 87.23 -2.8 87.23 -4.8 85.23 C-5 82.59 -5.07 80.05 -5.06 77.41 C-5.06 76.61 -5.06 75.8 -5.07 74.97 C-5.08 72.29 -5.07 69.62 -5.06 66.95 C-5.06 65.09 -5.07 63.24 -5.07 61.39 C-5.07 57.5 -5.07 53.61 -5.06 49.72 C-5.05 44.73 -5.05 39.74 -5.07 34.75 C-5.07 30.93 -5.07 27.1 -5.06 23.27 C-5.06 21.43 -5.07 19.59 -5.07 17.75 C-5.08 15.18 -5.07 12.61 -5.06 10.04 C-5.06 9.28 -5.06 8.51 -5.07 7.72 C-5.01 0.41 -5.01 0.41 0 0 Z " fill="#255375" transform="translate(229.79736328125,897.77294921875)"/>
<path d="M0 0 C9.57 0 19.14 0 29 0 C35.62 12.27 41.75 24.7 47.7 37.3 C49.43 40.9 51.25 44.46 53.09 48.01 C54 50 54 50 54 52 C54.66 52 55.32 52 56 52 C56.33 52.66 56.66 53.32 57 54 C57.01 53.34 57.02 52.68 57.03 51.99 C57.14 45.13 57.25 38.27 57.37 31.41 C57.42 28.85 57.46 26.28 57.5 23.72 C57.55 20.04 57.62 16.37 57.68 12.69 C57.7 11.54 57.72 10.38 57.73 9.19 C57.75 8.13 57.77 7.07 57.79 5.98 C57.81 5.04 57.83 4.1 57.84 3.13 C58 1 58 1 59 0 C60.33 -0.1 61.67 -0.13 63 -0.13 C63.8 -0.13 64.61 -0.14 65.44 -0.14 C66.28 -0.13 67.13 -0.13 68 -0.12 C69.27 -0.13 69.27 -0.13 70.56 -0.14 C71.37 -0.14 72.17 -0.13 73 -0.13 C73.74 -0.13 74.49 -0.13 75.25 -0.13 C77 0 77 0 78 1 C78.1 3.68 78.13 6.33 78.11 9.01 C78.11 9.85 78.11 10.69 78.11 11.55 C78.11 14.34 78.11 17.12 78.1 19.91 C78.1 21.84 78.09 23.76 78.09 25.69 C78.09 30.77 78.08 35.85 78.07 40.93 C78.06 46.12 78.05 51.3 78.05 56.48 C78.04 66.65 78.02 76.83 78 87 C73.56 87.06 69.13 87.09 64.69 87.12 C63.42 87.14 62.16 87.16 60.86 87.18 C59.05 87.19 59.05 87.19 57.2 87.2 C56.08 87.21 54.97 87.22 53.82 87.23 C51 87 51 87 48 85 C46.67 82.64 45.47 80.31 44.31 77.88 C43.6 76.41 42.88 74.94 42.17 73.48 C41.81 72.73 41.44 71.98 41.07 71.21 C39.45 67.87 37.79 64.56 36.12 61.25 C35.47 59.94 34.82 58.63 34.16 57.32 C32.54 54.08 30.91 50.85 29.27 47.62 C28.58 46.25 28.58 46.25 27.88 44.85 C26.97 43.06 26.06 41.27 25.15 39.47 C24.53 38.25 24.53 38.25 23.91 37.01 C23.54 36.28 23.17 35.56 22.79 34.81 C22 33 22 33 22 31 C21.34 31 20.68 31 20 31 C20.33 49.48 20.66 67.96 21 87 C14.4 87 7.8 87 1 87 C-1.52 84.48 -1.24 82.94 -1.26 79.51 C-1.25 78.74 -1.25 77.97 -1.24 77.19 C-1.24 76.38 -1.25 75.57 -1.25 74.74 C-1.25 72.07 -1.24 69.39 -1.23 66.72 C-1.23 64.87 -1.23 63.01 -1.23 61.16 C-1.23 57.27 -1.22 53.38 -1.21 49.5 C-1.19 44.51 -1.18 39.52 -1.19 34.53 C-1.19 30.7 -1.18 26.87 -1.17 23.04 C-1.17 21.2 -1.17 19.36 -1.17 17.52 C-1.16 14.95 -1.16 12.38 -1.15 9.81 C-1.15 9.05 -1.15 8.28 -1.15 7.49 C-1.11 2.23 -1.11 2.23 0 0 Z " fill="#255375" transform="translate(557,898)"/>
<path d="M0 0 C6.51 -0.08 13.02 -0.13 19.53 -0.16 C21.74 -0.18 23.95 -0.2 26.17 -0.23 C29.36 -0.26 32.55 -0.28 35.74 -0.29 C36.72 -0.31 37.7 -0.32 38.7 -0.34 C47.39 -0.34 56.29 1.07 63 7 C68.11 13.13 68.52 18.98 68.37 26.77 C67.67 32.89 65.24 36.57 61 41 C57.69 42.88 57.69 42.88 55 44 C55.36 44.54 55.73 45.07 56.11 45.62 C60.65 52.7 63.45 59.99 66.15 67.89 C66.88 70.03 67.63 72.16 68.38 74.29 C72 84.66 72 84.66 72 87 C68.4 87.06 64.79 87.09 61.19 87.12 C60.16 87.14 59.14 87.16 58.08 87.18 C57.1 87.18 56.12 87.19 55.11 87.2 C54.2 87.21 53.29 87.22 52.36 87.23 C50 87 50 87 47 85 C46.13 82.9 46.13 82.9 45.42 80.31 C45.15 79.36 44.87 78.42 44.59 77.44 C44.04 75.47 43.49 73.49 42.96 71.51 C40.99 64.8 38.62 58.48 33 54 C29.61 53.02 26.51 52.82 23 53 C23.01 54.49 23.01 54.49 23.02 56.01 C23.03 59.69 23.05 63.37 23.05 67.04 C23.06 68.64 23.07 70.23 23.08 71.83 C23.09 74.11 23.09 76.4 23.1 78.68 C23.1 79.4 23.11 80.12 23.11 80.86 C23.11 82.57 23.06 84.29 23 86 C20.64 88.36 14.73 87.19 11.56 87.19 C10.09 87.21 10.09 87.21 8.59 87.22 C7.66 87.23 6.72 87.23 5.75 87.23 C4.89 87.23 4.03 87.24 3.14 87.24 C1 87 1 87 -1 85 C-1.19 82.36 -1.26 79.83 -1.24 77.19 C-1.24 76.38 -1.25 75.57 -1.25 74.74 C-1.25 72.07 -1.24 69.39 -1.23 66.72 C-1.23 64.87 -1.23 63.01 -1.23 61.16 C-1.23 57.27 -1.22 53.38 -1.21 49.5 C-1.19 44.51 -1.18 39.52 -1.19 34.53 C-1.19 30.7 -1.18 26.87 -1.17 23.04 C-1.17 21.2 -1.17 19.36 -1.17 17.52 C-1.16 14.95 -1.16 12.38 -1.15 9.81 C-1.15 9.05 -1.15 8.28 -1.15 7.49 C-1.11 2.23 -1.11 2.23 0 0 Z " fill="#255375" transform="translate(837,898)"/>
<path d="M0 0 C9.24 0 18.48 0 28 0 C28.99 2.56 29.98 5.12 31 7.75 C33.64 14.56 36.34 21.35 39.06 28.12 C41.61 34.48 44.11 40.84 46.49 47.26 C48.23 51.95 50 56.63 51.78 61.3 C52.28 62.62 52.79 63.94 53.29 65.26 C54.05 67.25 54.81 69.23 55.57 71.22 C56.28 73.09 56.99 74.96 57.71 76.83 C58.12 77.92 58.54 79.01 58.97 80.14 C59.79 82.42 60.48 84.63 61 87 C57.06 87.09 53.13 87.14 49.19 87.19 C48.07 87.21 46.95 87.24 45.79 87.26 C44.72 87.27 43.65 87.28 42.54 87.29 C41.55 87.31 40.56 87.32 39.54 87.34 C37 87 37 87 35.24 85.69 C33.29 83.03 32.39 79.98 31.38 76.88 C30.24 72.61 30.24 72.61 28 69 C25.71 68.91 23.41 68.89 21.12 68.9 C20.43 68.9 19.75 68.91 19.04 68.91 C16.84 68.91 14.64 68.92 12.44 68.94 C10.95 68.94 9.46 68.95 7.97 68.95 C4.31 68.96 0.66 68.98 -3 69 C-3.1 69.55 -3.2 70.09 -3.3 70.65 C-3.45 71.41 -3.6 72.16 -3.75 72.94 C-3.89 73.67 -4.03 74.4 -4.17 75.15 C-5.36 79.25 -7.27 83.1 -9 87 C-16.26 87 -23.52 87 -31 87 C-32.44 82.67 -30.62 79.58 -29.05 75.5 C-28.73 74.64 -28.41 73.78 -28.08 72.89 C-27.02 70.07 -25.95 67.25 -24.88 64.44 C-24.14 62.49 -23.41 60.55 -22.68 58.61 C-20.82 53.68 -18.95 48.75 -17.08 43.83 C-16.05 41.14 -15.03 38.45 -14.01 35.75 C-11.21 28.37 -8.4 20.98 -5.57 13.61 C-5.15 12.5 -4.72 11.38 -4.28 10.23 C-2.92 6.8 -1.46 3.4 0 0 Z " fill="#255375" transform="translate(341,898)"/>
<path d="M0 0 C1.41 -0 1.41 -0 2.85 -0 C3.84 -0 4.83 0 5.84 0.01 C7.33 0 7.33 0 8.84 -0 C9.78 -0 10.72 -0 11.69 0 C12.56 0 13.42 0 14.32 0 C16.34 0.13 16.34 0.13 17.34 1.13 C17.45 2.83 17.49 4.54 17.5 6.24 C17.51 7.34 17.52 8.43 17.53 9.55 C17.54 10.74 17.55 11.94 17.55 13.16 C17.58 15.67 17.61 18.18 17.64 20.69 C17.68 24.65 17.72 28.62 17.75 32.58 C17.77 36.4 17.82 40.22 17.87 44.04 C17.87 45.21 17.87 46.39 17.88 47.6 C17.97 53.98 18.1 60.46 21.34 66.13 C25 69.04 28.37 70 32.97 70.63 C37.23 70 39.18 69.08 42.34 66.13 C45.89 59.24 45.8 51.87 45.82 44.29 C45.84 43.09 45.85 41.89 45.87 40.65 C45.91 36.83 45.94 33.01 45.97 29.2 C46.01 25.35 46.05 21.51 46.09 17.67 C46.12 15.28 46.14 12.9 46.15 10.51 C46.17 9.44 46.18 8.37 46.19 7.27 C46.19 6.32 46.2 5.37 46.21 4.4 C46.34 2.13 46.34 2.13 47.34 0.13 C50.82 0.1 54.3 0.09 57.78 0.07 C59.27 0.06 59.27 0.06 60.79 0.04 C61.74 0.04 62.68 0.04 63.65 0.04 C64.96 0.03 64.96 0.03 66.3 0.02 C68.34 0.13 68.34 0.13 69.34 1.13 C69.46 3.04 69.5 4.95 69.52 6.85 C69.54 8.69 69.54 8.69 69.56 10.57 C69.57 11.92 69.58 13.27 69.58 14.62 C69.59 15.31 69.59 15.99 69.59 16.69 C69.62 20.3 69.63 23.91 69.64 27.52 C69.65 31.23 69.68 34.93 69.72 38.64 C69.75 41.51 69.76 44.37 69.76 47.24 C69.77 49.26 69.8 51.28 69.82 53.31 C69.8 61.36 68.7 67.79 65.34 75.13 C64.68 75.13 64.02 75.13 63.34 75.13 C63.14 75.69 62.93 76.25 62.72 76.82 C58.12 84.55 49.65 86.78 41.41 88.88 C28.23 89.96 16.55 88.57 5.34 81.13 C4.77 80.76 4.19 80.4 3.6 80.02 C-2.3 75.75 -4.5 69.05 -5.66 62.13 C-5.75 60.08 -5.78 58.03 -5.79 55.98 C-5.79 54.76 -5.79 53.55 -5.8 52.29 C-5.79 50.99 -5.79 49.68 -5.79 48.34 C-5.79 46.98 -5.79 45.62 -5.79 44.26 C-5.79 41.42 -5.79 38.59 -5.79 35.75 C-5.78 32.1 -5.78 28.46 -5.79 24.82 C-5.79 22.02 -5.79 19.22 -5.79 16.42 C-5.79 14.42 -5.79 12.42 -5.8 10.42 C-5.79 9.21 -5.79 8.01 -5.79 6.77 C-5.78 5.7 -5.78 4.63 -5.78 3.54 C-5.56 -0.68 -3.75 0 0 0 Z " fill="#255375" transform="translate(479.65625,897.8671875)"/>
<path d="M0 0 C1.01 0 2.01 0 3.05 0 C4.18 0 5.32 -0 6.49 -0.01 C7.73 0 8.96 0.01 10.23 0.02 C12.12 0.02 12.12 0.02 14.05 0.02 C16.72 0.02 19.38 0.03 22.05 0.04 C25.48 0.06 28.9 0.06 32.33 0.06 C35.59 0.06 38.85 0.07 42.11 0.08 C43.96 0.08 43.96 0.08 45.85 0.08 C47.55 0.09 47.55 0.09 49.29 0.1 C50.79 0.11 50.79 0.11 52.33 0.11 C54.6 0.25 54.6 0.25 55.6 1.25 C55.68 3.94 55.69 6.61 55.66 9.31 C55.66 10.07 55.66 10.83 55.65 11.61 C55.64 13.49 55.62 15.37 55.6 17.25 C54.02 17.28 54.02 17.28 52.41 17.32 C48.5 17.42 44.6 17.52 40.7 17.62 C39.01 17.66 37.32 17.7 35.63 17.74 C33.21 17.8 30.78 17.87 28.36 17.93 C27.22 17.96 27.22 17.96 26.05 17.98 C22.53 17.77 22.53 17.77 19.6 19.25 C19.53 21.6 19.52 23.96 19.54 26.31 C19.55 27.6 19.56 28.89 19.57 30.22 C19.58 31.22 19.59 32.22 19.6 33.25 C20.6 33.27 21.59 33.3 22.62 33.32 C26.29 33.42 29.97 33.52 33.65 33.62 C35.24 33.66 36.83 33.7 38.43 33.74 C40.71 33.8 43 33.87 45.29 33.93 C46 33.95 46.72 33.96 47.46 33.98 C52.49 34.13 52.49 34.13 53.6 35.25 C53.6 40.53 53.6 45.81 53.6 51.25 C42.38 51.25 31.16 51.25 19.6 51.25 C19.6 56.86 19.6 62.47 19.6 68.25 C21.63 70.27 25.75 69.48 28.54 69.53 C29.34 69.55 30.13 69.57 30.95 69.58 C33.5 69.64 36.05 69.7 38.6 69.75 C41.96 69.81 45.31 69.89 48.66 69.97 C49.44 69.98 50.22 69.99 51.03 70.01 C56.49 70.13 56.49 70.13 57.6 71.25 C57.68 73.94 57.69 76.61 57.66 79.31 C57.66 80.07 57.66 80.83 57.65 81.61 C57.64 83.49 57.62 85.37 57.6 87.25 C49.67 87.27 41.73 87.29 33.79 87.3 C30.11 87.3 26.42 87.31 22.74 87.32 C19.19 87.33 15.63 87.34 12.08 87.34 C10.72 87.34 9.36 87.35 8 87.35 C6.11 87.36 4.21 87.36 2.32 87.36 C0.69 87.36 0.69 87.36 -0.96 87.37 C-3.4 87.25 -3.4 87.25 -4.4 86.25 C-4.5 83.64 -4.54 81.06 -4.54 78.45 C-4.55 77.64 -4.55 76.82 -4.55 75.98 C-4.56 73.27 -4.56 70.56 -4.57 67.84 C-4.57 65.97 -4.57 64.09 -4.58 62.21 C-4.58 58.27 -4.58 54.33 -4.58 50.39 C-4.58 45.33 -4.6 40.28 -4.61 35.22 C-4.62 31.34 -4.63 27.46 -4.63 23.58 C-4.63 21.72 -4.63 19.85 -4.64 17.98 C-4.65 15.38 -4.65 12.77 -4.64 10.17 C-4.65 9.39 -4.65 8.62 -4.66 7.82 C-4.61 0.48 -4.61 0.48 0 0 Z " fill="#255375" transform="translate(771.3977203369141,897.7527618408203)"/>
<path d="M0 0 C7.59 0 15.18 0 23 0 C26.92 12.24 30.67 24.5 34.15 36.88 C34.89 39.49 35.64 42.1 36.38 44.71 C36.86 46.39 37.33 48.07 37.8 49.75 C38.03 50.52 38.25 51.29 38.48 52.09 C39.45 55.56 40 58.37 40 62 C40.66 62 41.32 62 42 62 C42.33 62.66 42.66 63.32 43 64 C43.21 63.26 43.42 62.51 43.63 61.75 C45.6 54.74 47.57 47.74 49.55 40.74 C50.56 37.14 51.58 33.54 52.59 29.94 C53.56 26.46 54.54 22.98 55.52 19.51 C55.9 18.19 56.27 16.86 56.64 15.53 C57.16 13.68 57.69 11.82 58.21 9.96 C58.51 8.9 58.81 7.85 59.11 6.76 C59.89 4.34 60.79 2.22 62 0 C65.46 -0.09 68.92 -0.14 72.38 -0.19 C73.36 -0.21 74.34 -0.24 75.36 -0.26 C76.77 -0.28 76.77 -0.28 78.21 -0.29 C79.51 -0.32 79.51 -0.32 80.85 -0.34 C81.56 -0.23 82.27 -0.12 83 0 C83.99 1.49 83.99 1.49 85 3 C84.32 5.98 84.32 5.98 82.99 9.68 C82.64 10.7 82.64 10.7 82.27 11.73 C81.49 13.97 80.68 16.2 79.88 18.44 C79.04 20.8 78.21 23.16 77.38 25.53 C76.8 27.17 76.23 28.81 75.65 30.45 C72.48 39.41 69.49 48.42 66.5 57.44 C66 58.93 65.51 60.42 65.01 61.92 C64.66 62.99 64.66 62.99 64.29 64.08 C63.83 65.46 63.37 66.84 62.92 68.22 C61.87 71.37 60.83 74.51 59.8 77.66 C59.45 78.75 59.09 79.85 58.72 80.97 C58.41 81.93 58.1 82.88 57.78 83.86 C57 86 57 86 56 87 C51.55 87.25 47.08 87.19 42.62 87.19 C40.74 87.21 40.74 87.21 38.81 87.22 C37.61 87.23 36.4 87.23 35.16 87.23 C34.05 87.23 32.95 87.24 31.8 87.24 C29 87 29 87 26 85 C25.04 82.72 24.24 80.54 23.5 78.2 C23.27 77.5 23.04 76.8 22.81 76.08 C22.05 73.76 21.31 71.44 20.56 69.12 C20.04 67.51 19.51 65.9 18.98 64.29 C17.88 60.92 16.78 57.54 15.68 54.17 C13.24 46.65 10.73 39.15 8.22 31.65 C7.45 29.36 6.69 27.06 5.92 24.77 C5.68 24.05 5.44 23.33 5.2 22.59 C4.74 21.21 4.28 19.84 3.82 18.46 C2.9 15.67 1.96 12.89 0.96 10.13 C-0.51 6.05 -1.08 4.33 0 0 Z " fill="#255375" transform="translate(679,898)"/>
<path d="M0 0 C1.05 -0.02 2.09 -0.03 3.17 -0.05 C9.52 -0.05 14.29 0.62 20.06 3.31 C20.56 3.81 20.56 3.81 21.06 4.31 C21.02 7 20.92 9.64 20.75 12.31 C20.71 13.06 20.68 13.81 20.64 14.59 C20.53 16.5 20.3 18.41 20.06 20.31 C18.06 21.31 18.06 21.31 15.36 20.42 C13.73 19.87 13.73 19.87 12.06 19.31 C2.68 17.95 -4.97 18.32 -13.94 21.31 C-14.36 24.14 -14.36 24.14 -13.94 27.31 C-9.7 31.81 -4.24 33.08 1.5 34.81 C9.99 37.39 16.7 39.64 21.88 47.31 C22.46 48.16 23.04 49 23.64 49.88 C27.05 55.74 26.89 62.98 25.64 69.53 C23.43 76.37 18.66 81.31 13.06 85.62 C-1.6 93.04 -19.57 90.96 -34.94 87.31 C-35.93 86.65 -36.92 85.99 -37.94 85.31 C-37.28 79.37 -36.62 73.43 -35.94 67.31 C-29.94 68.31 -29.94 68.31 -27 69.31 C-18.89 71.96 -8.81 73.03 -0.94 69.31 C0.42 68.16 0.42 68.16 0.44 65.06 C-0.04 60.25 -1.24 59.34 -4.94 56.31 C-7.61 55.05 -10.36 54.18 -13.19 53.31 C-32.31 46.99 -32.31 46.99 -36.9 38.54 C-40.04 31.23 -39.82 23.91 -37.03 16.52 C-33.55 9.5 -28.89 5.68 -21.56 3.1 C-20.26 2.71 -20.26 2.71 -18.94 2.31 C-17.93 1.96 -16.91 1.6 -15.87 1.23 C-10.68 -0.23 -5.35 -0.02 0 0 Z " fill="#255375" transform="translate(949.9375,896.6875)"/>
<path d="M0 0 C0.96 -0.01 1.91 -0.02 2.9 -0.04 C9.01 -0.05 14.41 0.58 20.31 2.19 C22.36 4.23 21.5 8.32 21.5 11.12 C21.51 11.87 21.52 12.61 21.54 13.37 C21.54 15.31 21.43 17.25 21.31 19.19 C20.65 19.85 19.99 20.51 19.31 21.19 C18.47 20.88 17.62 20.57 16.75 20.25 C7.53 17.4 -2.84 16.76 -11.69 21.19 C-12.09 23.51 -12.43 25.84 -12.69 28.19 C-5.79 32.11 1.3 34.65 8.89 36.87 C15.43 38.89 20.43 41.99 24.19 47.94 C27.98 55.23 27.56 64.99 25.68 72.82 C22.87 79.26 17.05 83.66 11.06 87 C-3.78 91.7 -18.76 91 -33.69 87.19 C-34.68 86.53 -35.67 85.87 -36.69 85.19 C-36.55 82.94 -36.4 80.69 -36.25 78.44 C-36.13 76.56 -36.13 76.56 -36 74.64 C-35.76 72 -35.44 69.71 -34.69 67.19 C-32.01 67.7 -29.38 68.27 -26.74 68.94 C-18.34 71.08 -7.73 73.72 0.31 69.19 C2.06 66.44 2.06 66.44 2.31 63.19 C0.39 58.97 -1.52 57.35 -5.75 55.56 C-6.73 55.14 -7.71 54.73 -8.72 54.3 C-11.37 53.31 -13.96 52.53 -16.69 51.81 C-23.62 49.85 -31.09 46.02 -35.31 40 C-38.53 33.41 -38.79 25.75 -37.07 18.65 C-34.37 11.7 -29.63 6.98 -22.86 3.9 C-20.16 2.89 -17.46 1.99 -14.69 1.19 C-13.77 0.92 -13.77 0.92 -12.84 0.65 C-8.62 -0.26 -4.29 0 0 0 Z " fill="#255375" transform="translate(154.6875,896.8125)"/>
<path d="M0 0 C7.92 0 15.84 0 24 0 C25.18 2.35 26.35 4.7 27.56 7.12 C27.95 7.9 28.34 8.68 28.75 9.49 C30.52 13.02 32.27 16.55 33.98 20.11 C34.29 20.74 34.6 21.38 34.92 22.03 C35.77 23.79 36.61 25.55 37.46 27.3 C38.87 30.23 38.87 30.23 42 32 C42.31 31.35 42.62 30.69 42.95 30.02 C44.38 27.01 45.82 24.01 47.25 21 C47.74 19.97 48.23 18.94 48.74 17.88 C56.62 1.38 56.62 1.38 58 0 C59.78 -0.09 61.56 -0.11 63.35 -0.1 C64.43 -0.09 65.51 -0.09 66.62 -0.09 C68.32 -0.08 68.32 -0.08 70.06 -0.06 C71.77 -0.06 71.77 -0.06 73.52 -0.05 C76.35 -0.04 79.17 -0.02 82 0 C83.13 3.75 83.13 3.75 82 5.97 C81.48 6.66 80.97 7.35 80.44 8.06 C78.13 11.27 76.12 14.49 74.27 17.98 C70.12 25.68 65.7 33.21 61.3 40.77 C60.66 41.87 60.02 42.98 59.36 44.11 C58.79 45.1 58.21 46.09 57.62 47.11 C57.09 48.06 56.55 49.02 56 50 C55.45 50.96 54.89 51.92 54.32 52.91 C52.76 56.57 52.57 59.4 52.49 63.37 C52.47 64.05 52.45 64.73 52.43 65.43 C52.38 67.58 52.35 69.73 52.31 71.88 C52.28 73.34 52.24 74.81 52.21 76.27 C52.12 79.85 52.06 83.42 52 87 C48.54 87.06 45.08 87.09 41.62 87.12 C40.64 87.14 39.66 87.16 38.64 87.18 C37.7 87.18 36.76 87.19 35.79 87.2 C34.49 87.21 34.49 87.21 33.15 87.23 C31 87 31 87 29 85 C28.81 82.15 28.81 82.15 28.87 78.52 C28.87 77.18 28.88 75.85 28.88 74.51 C28.88 73.47 28.88 73.47 28.88 72.4 C28.85 59.65 28.24 50.27 20 40 C19.04 38.45 18.1 36.89 17.19 35.31 C16.72 34.54 16.25 33.77 15.77 32.97 C12.77 27.94 9.87 22.86 6.96 17.77 C6.51 16.99 6.05 16.2 5.59 15.39 C5.15 14.63 4.72 13.88 4.27 13.1 C3.13 11.22 1.91 9.49 0.6 7.73 C-1 5 -1 5 0 0 Z " fill="#255375" transform="translate(1078,898)"/>
<path d="M0 0 C8.18 -0.05 16.36 -0.08 24.54 -0.1 C28.34 -0.11 32.13 -0.13 35.93 -0.15 C39.6 -0.17 43.26 -0.18 46.92 -0.19 C48.32 -0.19 49.72 -0.2 51.12 -0.21 C53.08 -0.23 55.03 -0.23 56.99 -0.23 C58.66 -0.23 58.66 -0.23 60.37 -0.24 C63 0 63 0 65 2 C65.15 4.59 65.19 7.04 65.12 9.62 C65.08 12.06 65.04 14.49 65 17 C54.61 17.5 54.61 17.5 44 18 C44.01 20.05 44.01 22.11 44.02 24.23 C44.03 31 44.04 37.77 44.05 44.55 C44.06 48.65 44.06 52.76 44.08 56.87 C44.09 60.83 44.09 64.8 44.09 68.76 C44.1 70.27 44.1 71.79 44.11 73.3 C44.11 75.42 44.11 77.53 44.11 79.64 C44.12 80.85 44.12 82.06 44.12 83.3 C44 86 44 86 43 87 C39.53 87.25 36.04 87.19 32.56 87.19 C31.09 87.21 31.09 87.21 29.59 87.22 C28.66 87.23 27.72 87.23 26.75 87.23 C25.89 87.23 25.03 87.24 24.14 87.24 C22 87 22 87 20 85 C19.72 82.22 19.72 82.22 19.68 78.62 C19.67 77.97 19.66 77.31 19.65 76.64 C19.62 74.48 19.6 72.31 19.59 70.15 C19.57 68.65 19.55 67.15 19.53 65.65 C19.48 61.7 19.44 57.75 19.4 53.8 C19.36 49.78 19.31 45.75 19.26 41.72 C19.16 33.81 19.08 25.91 19 18 C18.14 17.96 18.14 17.96 17.27 17.92 C14.7 17.81 12.13 17.69 9.56 17.56 C8.66 17.52 7.77 17.48 6.84 17.44 C5.56 17.38 5.56 17.38 4.25 17.32 C3.46 17.28 2.67 17.24 1.86 17.21 C0 17 0 17 -1 16 C-1.1 13.69 -1.13 11.38 -1.12 9.06 C-1.13 7.8 -1.13 6.53 -1.13 5.22 C-1 2 -1 2 0 0 Z " fill="#255375" transform="translate(1007,898)"/>
<path d="M0 0 C1.17 -0 2.33 -0.01 3.54 -0.01 C4.76 -0 5.99 0.01 7.25 0.02 C8.44 0.01 9.64 0 10.87 -0.01 C30.36 0.03 30.36 0.03 36.9 6.36 C40.27 11.12 40.47 16.4 39.81 22.02 C37.78 26.25 35 28.53 31.25 31.27 C31.54 31.8 31.83 32.34 32.13 32.89 C35.01 38.38 37.39 43.97 39.56 49.77 C39.83 50.47 40.1 51.18 40.37 51.91 C42.25 57 42.25 57 42.25 59.27 C39.64 59.4 37.05 59.5 34.44 59.58 C33.7 59.62 32.96 59.66 32.2 59.71 C30.04 59.75 30.04 59.75 26.25 59.27 C22.8 55.35 21.8 50.03 20.31 45.11 C19.23 42.2 18.52 40.38 16.25 38.27 C12.79 37.77 12.79 37.77 9.25 37.27 C8.92 44.53 8.59 51.79 8.25 59.27 C-5.5 59.39 -5.5 59.39 -7.75 58.27 C-7.8 51 -7.83 43.73 -7.85 36.46 C-7.86 33.09 -7.88 29.72 -7.9 26.34 C-7.93 22.47 -7.94 18.59 -7.95 14.71 C-7.96 13.5 -7.97 12.28 -7.98 11.03 C-7.98 9.91 -7.98 8.79 -7.98 7.63 C-7.98 6.64 -7.99 5.65 -7.99 4.63 C-7.48 -0.42 -4.27 0.01 0 0 Z " fill="#255375" transform="translate(345.75,1027.734375)"/>
<path d="M0 0 C1.17 0.01 2.33 0.01 3.53 0.02 C4.7 0.01 5.86 0.01 7.06 0 C10.03 0.27 10.03 0.27 12.03 2.27 C12.35 4.42 12.35 4.42 12.45 7.05 C12.48 8 12.52 8.94 12.56 9.91 C12.59 10.89 12.62 11.88 12.66 12.89 C12.69 13.88 12.73 14.88 12.77 15.9 C12.87 18.35 12.95 20.81 13.03 23.27 C18.31 23.27 23.59 23.27 29.03 23.27 C29.01 21.77 28.98 20.28 28.96 18.74 C28.94 16.79 28.92 14.84 28.91 12.89 C28.89 11.91 28.87 10.92 28.86 9.91 C28.85 8.49 28.85 8.49 28.84 7.05 C28.82 5.75 28.82 5.75 28.8 4.42 C29.03 2.27 29.03 2.27 31.03 0.27 C34.04 0.04 34.04 0.04 37.59 0.08 C39.36 0.09 39.36 0.09 41.16 0.1 C44.03 0.27 44.03 0.27 45.03 1.27 C45.13 3.08 45.15 4.89 45.14 6.7 C45.14 7.86 45.14 9.03 45.14 10.22 C45.14 11.49 45.13 12.75 45.13 14.05 C45.13 15.34 45.13 16.62 45.12 17.95 C45.12 21.37 45.11 24.8 45.1 28.22 C45.09 31.71 45.09 35.21 45.08 38.7 C45.07 45.55 45.05 52.41 45.03 59.27 C42.55 59.29 40.07 59.31 37.59 59.33 C36.89 59.34 36.18 59.34 35.45 59.35 C33.64 59.36 31.84 59.32 30.03 59.27 C28.35 57.58 28.8 55.45 28.71 53.14 C28.67 52.1 28.63 51.07 28.59 50 C28.55 48.91 28.51 47.82 28.47 46.7 C28.43 45.61 28.38 44.52 28.34 43.39 C28.23 40.68 28.13 37.97 28.03 35.27 C22.75 35.27 17.47 35.27 12.03 35.27 C12.03 43.19 12.03 51.11 12.03 59.27 C8.38 59.3 8.38 59.3 4.66 59.33 C3.89 59.34 3.13 59.35 2.34 59.36 C-2.75 59.38 -2.75 59.38 -4.97 58.27 C-5.02 51 -5.05 43.73 -5.07 36.46 C-5.08 33.09 -5.1 29.72 -5.12 26.34 C-5.14 22.47 -5.16 18.59 -5.16 14.71 C-5.17 13.5 -5.18 12.28 -5.2 11.03 C-5.2 9.91 -5.2 8.79 -5.2 7.63 C-5.2 6.64 -5.2 5.65 -5.21 4.63 C-4.83 0.89 -3.64 0.33 0 0 Z " fill="#255375" transform="translate(465.96875,1027.734375)"/>
<path d="M0 0 C0.72 -0.04 1.45 -0.07 2.2 -0.11 C4.31 -0.15 4.31 -0.15 8 0.38 C10.24 3.49 11.68 6.8 13.07 10.36 C13.45 11.33 13.82 12.29 14.21 13.28 C14.61 14.31 15.01 15.34 15.41 16.41 C15.83 17.47 16.24 18.54 16.67 19.64 C17.55 21.9 18.42 24.16 19.29 26.41 C20.62 29.86 21.96 33.31 23.3 36.76 C24.15 38.96 25 41.15 25.85 43.34 C26.25 44.37 26.65 45.4 27.07 46.47 C27.62 47.91 27.62 47.91 28.19 49.39 C28.52 50.23 28.84 51.08 29.18 51.95 C30.01 54.41 30.55 56.82 31 59.38 C28.37 59.4 25.75 59.42 23.12 59.44 C22.38 59.45 21.63 59.45 20.86 59.46 C15.23 59.49 15.23 59.49 13 58.38 C11.93 56.38 11.93 56.38 10.88 53.94 C10.52 53.13 10.17 52.33 9.8 51.5 C9 49.38 9 49.38 9 47.38 C-0.9 47.87 -0.9 47.87 -11 48.38 C-12.65 52.01 -14.3 55.63 -16 59.38 C-20.95 59.38 -25.9 59.38 -31 59.38 C-32.12 54.91 -32.12 54.91 -30.47 51.68 C-28.4 47.34 -26.62 42.94 -24.91 38.45 C-24.63 37.72 -24.36 37 -24.07 36.26 C-23.5 34.77 -22.93 33.27 -22.36 31.77 C-21.5 29.51 -20.64 27.25 -19.78 24.99 C-19.22 23.52 -18.65 22.04 -18.09 20.57 C-17.82 19.86 -17.55 19.15 -17.27 18.42 C-15.37 13.41 -13.59 8.37 -11.94 3.28 C-11.63 2.65 -11.32 2.02 -11 1.38 C-7.31 0.15 -3.84 0.08 0 0 Z " fill="#255375" transform="translate(977,1027.625)"/>
<path d="M0 0 C0.8 0 1.6 0.01 2.43 0.01 C4.41 0.03 6.39 0.04 8.38 0.06 C13.38 9.17 16.83 18.85 20.44 28.56 C21.36 31.03 22.28 33.49 23.2 35.95 C23.79 37.53 24.38 39.11 24.97 40.68 C26.81 45.6 28.72 50.49 30.74 55.33 C31.38 57.06 31.38 57.06 31.38 59.06 C28.77 59.14 26.17 59.2 23.56 59.25 C22.82 59.28 22.09 59.3 21.33 59.33 C19.17 59.36 19.17 59.36 15.38 59.06 C12.38 56.06 12.38 56.06 9.38 47.06 C2.44 47.06 -4.49 47.06 -11.62 47.06 C-12.62 50.36 -13.61 53.66 -14.62 57.06 C-14.95 57.72 -15.29 58.38 -15.62 59.06 C-20.57 59.06 -25.52 59.06 -30.62 59.06 C-31.62 57.06 -31.62 57.06 -30.78 54.28 C-30.33 53.1 -29.88 51.92 -29.41 50.71 C-29.17 50.07 -28.93 49.42 -28.68 48.76 C-27.87 46.65 -27.06 44.54 -26.25 42.44 C-25.7 40.99 -25.15 39.54 -24.59 38.1 C-23.76 35.9 -22.92 33.69 -22.08 31.5 C-20.31 26.89 -18.59 22.27 -16.89 17.64 C-16.48 16.53 -16.08 15.42 -15.66 14.28 C-14.9 12.21 -14.14 10.14 -13.39 8.06 C-12.89 6.69 -12.89 6.69 -12.37 5.29 C-11.93 4.09 -11.93 4.09 -11.49 2.87 C-9.42 -1.47 -4.13 -0.04 0 0 Z " fill="#255375" transform="translate(302.625,1027.9375)"/>
<path d="M0 0 C3.46 -0.06 6.92 -0.09 10.38 -0.12 C11.36 -0.14 12.34 -0.16 13.36 -0.18 C14.77 -0.19 14.77 -0.19 16.21 -0.2 C17.51 -0.21 17.51 -0.21 18.85 -0.23 C21 0 21 0 23 2 C23.19 4.71 23.25 7.32 23.23 10.03 C23.23 10.86 23.23 11.69 23.23 12.54 C23.23 15.29 23.21 18.04 23.2 20.79 C23.19 22.69 23.19 24.59 23.19 26.5 C23.18 31.51 23.16 36.53 23.14 41.54 C23.12 46.65 23.11 51.77 23.1 56.88 C23.08 66.92 23.04 76.96 23 87 C19.38 87.06 15.75 87.09 12.12 87.12 C11.09 87.14 10.06 87.16 9 87.18 C8.01 87.18 7.02 87.19 6.01 87.2 C5.1 87.21 4.19 87.22 3.25 87.23 C1 87 1 87 -1 85 C-1.19 82.36 -1.26 79.83 -1.24 77.19 C-1.24 76.38 -1.25 75.57 -1.25 74.74 C-1.25 72.07 -1.24 69.39 -1.23 66.72 C-1.23 64.87 -1.23 63.01 -1.23 61.16 C-1.23 57.27 -1.22 53.38 -1.21 49.5 C-1.19 44.51 -1.18 39.52 -1.19 34.53 C-1.19 30.7 -1.18 26.87 -1.17 23.04 C-1.17 21.2 -1.17 19.36 -1.17 17.52 C-1.16 14.95 -1.16 12.38 -1.15 9.81 C-1.15 9.05 -1.15 8.28 -1.15 7.49 C-1.11 2.23 -1.11 2.23 0 0 Z " fill="#255375" transform="translate(980,898)"/>
<path d="M0 0 C3.46 -0.06 6.92 -0.09 10.38 -0.12 C11.36 -0.14 12.34 -0.16 13.36 -0.18 C14.77 -0.19 14.77 -0.19 16.21 -0.2 C17.51 -0.21 17.51 -0.21 18.85 -0.23 C21 0 21 0 23 2 C23.19 4.68 23.26 7.25 23.24 9.92 C23.24 10.74 23.25 11.56 23.25 12.4 C23.25 15.11 23.24 17.82 23.23 20.54 C23.23 22.41 23.23 24.29 23.23 26.17 C23.23 30.11 23.22 34.05 23.21 37.98 C23.19 43.04 23.18 48.1 23.19 53.16 C23.19 57.04 23.18 60.92 23.17 64.8 C23.17 66.67 23.17 68.53 23.17 70.4 C23.16 73 23.16 75.6 23.15 78.21 C23.15 79.38 23.15 79.38 23.15 80.57 C23.11 85.89 23.11 85.89 22 87 C18.53 87.25 15.04 87.19 11.56 87.19 C10.09 87.21 10.09 87.21 8.59 87.22 C7.66 87.23 6.72 87.23 5.75 87.23 C4.89 87.23 4.03 87.24 3.14 87.24 C1 87 1 87 -1 85 C-1.19 82.36 -1.26 79.83 -1.24 77.19 C-1.24 76.38 -1.25 75.57 -1.25 74.74 C-1.25 72.07 -1.24 69.39 -1.23 66.72 C-1.23 64.87 -1.23 63.01 -1.23 61.16 C-1.23 57.27 -1.22 53.38 -1.21 49.5 C-1.19 44.51 -1.18 39.52 -1.19 34.53 C-1.19 30.7 -1.18 26.87 -1.17 23.04 C-1.17 21.2 -1.17 19.36 -1.17 17.52 C-1.16 14.95 -1.16 12.38 -1.15 9.81 C-1.15 9.05 -1.15 8.28 -1.15 7.49 C-1.11 2.23 -1.11 2.23 0 0 Z " fill="#255375" transform="translate(650,898)"/>
<path d="M0 0 C3.46 -0.06 6.92 -0.09 10.38 -0.12 C11.36 -0.14 12.34 -0.16 13.36 -0.18 C14.77 -0.19 14.77 -0.19 16.21 -0.2 C17.51 -0.21 17.51 -0.21 18.85 -0.23 C21 0 21 0 23 2 C23.19 4.68 23.26 7.25 23.24 9.92 C23.24 10.74 23.25 11.56 23.25 12.4 C23.25 15.11 23.24 17.82 23.23 20.54 C23.23 22.41 23.23 24.29 23.23 26.17 C23.23 30.11 23.22 34.05 23.21 37.98 C23.19 43.04 23.18 48.1 23.19 53.16 C23.19 57.04 23.18 60.92 23.17 64.8 C23.17 66.67 23.17 68.53 23.17 70.4 C23.16 73 23.16 75.6 23.15 78.21 C23.15 79.38 23.15 79.38 23.15 80.57 C23.11 85.89 23.11 85.89 22 87 C18.53 87.25 15.04 87.19 11.56 87.19 C10.09 87.21 10.09 87.21 8.59 87.22 C7.66 87.23 6.72 87.23 5.75 87.23 C4.89 87.23 4.03 87.24 3.14 87.24 C1 87 1 87 -1 85 C-1.19 82.36 -1.26 79.83 -1.24 77.19 C-1.24 76.38 -1.25 75.57 -1.25 74.74 C-1.25 72.07 -1.24 69.39 -1.23 66.72 C-1.23 64.87 -1.23 63.01 -1.23 61.16 C-1.23 57.27 -1.22 53.38 -1.21 49.5 C-1.19 44.51 -1.18 39.52 -1.19 34.53 C-1.19 30.7 -1.18 26.87 -1.17 23.04 C-1.17 21.2 -1.17 19.36 -1.17 17.52 C-1.16 14.95 -1.16 12.38 -1.15 9.81 C-1.15 9.05 -1.15 8.28 -1.15 7.49 C-1.11 2.23 -1.11 2.23 0 0 Z " fill="#255375" transform="translate(191,898)"/>
<path d="M0 0 C1.07 -0.01 2.14 -0.03 3.25 -0.04 C6 0.19 6 0.19 8 2.19 C8.28 5.04 8.47 7.82 8.56 10.69 C8.53 16.1 8.53 16.1 10 21.19 C11 19.78 11 19.78 12.01 18.34 C12.9 17.08 13.8 15.82 14.69 14.56 C15.12 13.95 15.56 13.33 16.01 12.69 C23.73 1.82 23.73 1.82 27 0.19 C29.55 0.12 32.07 0.09 34.62 0.12 C35.68 0.13 35.68 0.13 36.77 0.14 C38.51 0.15 40.26 0.17 42 0.19 C42.5 1.67 42.5 1.67 43 3.19 C41.62 5.33 40.23 7.22 38.62 9.19 C38.17 9.76 37.72 10.32 37.26 10.91 C35.85 12.68 34.43 14.43 33 16.19 C32.55 16.74 32.1 17.3 31.64 17.87 C29.11 20.99 26.56 24.1 24 27.19 C25.6 32.22 28.63 35.94 31.81 40.06 C32.86 41.43 33.91 42.81 34.96 44.18 C35.47 44.85 35.98 45.51 36.5 46.2 C37.96 48.13 39.36 50.1 40.74 52.08 C42.72 54.8 44.3 56.29 47 58.19 C47 58.85 47 59.51 47 60.19 C43.6 60.16 40.21 60.09 36.81 60 C35.37 59.99 35.37 59.99 33.9 59.98 C26.75 59.76 26.75 59.76 23.05 56.95 C22.37 56.04 21.7 55.13 21 54.19 C20.07 52.97 20.07 52.97 19.12 51.72 C18.57 50.91 18.01 50.09 17.44 49.25 C16.85 48.39 16.26 47.52 15.65 46.63 C15.1 45.82 14.56 45.02 14 44.19 C13.56 43.56 13.12 42.93 12.66 42.28 C10 38.43 10 38.43 10 36.19 C9.34 36.19 8.68 36.19 8 36.19 C8 43.78 8 51.37 8 59.19 C5.55 59.21 3.09 59.23 0.56 59.25 C-0.6 59.26 -0.6 59.26 -1.78 59.28 C-3.52 59.28 -5.26 59.24 -7 59.19 C-8 58.19 -8 58.19 -8.12 55.9 C-8.12 54.89 -8.12 53.88 -8.11 52.84 C-8.11 51.7 -8.11 50.56 -8.11 49.38 C-8.11 48.14 -8.1 46.9 -8.1 45.62 C-8.1 44.36 -8.09 43.09 -8.09 41.79 C-8.09 38.43 -8.08 35.06 -8.07 31.7 C-8.06 28.26 -8.05 24.83 -8.05 21.4 C-8.04 14.66 -8.02 7.93 -8 1.19 C-5.27 -0.18 -3.04 0.02 0 0 Z " fill="#255375" transform="translate(626,1027.8125)"/>
<path d="M0 0 C1.23 0.01 1.23 0.01 2.49 0.01 C3.38 0.01 4.27 0.02 5.19 0.02 C6.12 0.03 7.05 0.04 8.02 0.06 C9.42 0.06 9.42 0.06 10.85 0.06 C17.81 0.1 17.81 0.1 18.95 1.24 C19.05 3.92 19.08 6.57 19.07 9.25 C19.07 10.09 19.07 10.93 19.07 11.79 C19.07 14.58 19.06 17.37 19.05 20.15 C19.05 22.08 19.05 24.01 19.05 25.93 C19.04 31.01 19.03 36.1 19.02 41.18 C19.01 46.36 19.01 51.54 19 56.72 C18.99 66.9 18.97 77.07 18.95 87.24 C15.49 87.27 12.04 87.29 8.58 87.31 C7.59 87.31 6.61 87.32 5.59 87.33 C4.18 87.34 4.18 87.34 2.74 87.34 C1.87 87.35 1 87.35 0.11 87.36 C-2.05 87.24 -2.05 87.24 -4.05 86.24 C-4.09 75.33 -4.13 64.41 -4.15 53.49 C-4.16 48.42 -4.18 43.35 -4.2 38.28 C-4.22 33.39 -4.23 28.5 -4.24 23.62 C-4.24 21.75 -4.25 19.88 -4.26 18.01 C-4.27 15.4 -4.28 12.79 -4.27 10.18 C-4.28 9.4 -4.29 8.62 -4.3 7.82 C-4.27 0.51 -4.27 0.51 0 0 Z " fill="#255375" transform="translate(410.047119140625,897.757080078125)"/>
<path d="M0 0 C0 3.63 0 7.26 0 11 C-0.66 11.33 -1.32 11.66 -2 12 C-2.99 11.67 -3.98 11.34 -5 11 C-7.31 10.9 -9.62 10.87 -11.94 10.88 C-13.78 10.87 -13.78 10.87 -15.65 10.87 C-18.33 10.97 -20.47 11.2 -23 12 C-23 13.65 -23 15.3 -23 17 C-18.79 19.34 -14.18 20.56 -9.58 21.88 C-3.86 23.67 -0.98 26.68 2.81 31.12 C4.91 36.2 4.99 41.84 3.34 47.09 C1.04 51.63 -2.58 54.65 -7 57 C-11.73 58.43 -16.48 58.18 -21.38 58.19 C-22.31 58.2 -23.24 58.21 -24.2 58.22 C-29.19 58.24 -33.35 58.04 -38 56 C-39.67 54.33 -39.21 52.34 -39.25 50.06 C-39.28 49.17 -39.3 48.27 -39.33 47.35 C-39.22 46.57 -39.11 45.8 -39 45 C-38.01 44.34 -37.02 43.68 -36 43 C-34.46 43.48 -32.91 43.97 -31.38 44.48 C-26.07 45.64 -20.4 45.31 -15 45 C-13.73 43.96 -13.73 43.96 -13.88 41.62 C-13.89 38.89 -13.89 38.89 -15 36 C-17.23 35.15 -17.23 35.15 -19.94 34.62 C-27.2 32.82 -34.83 30.6 -39 24 C-40.79 18.62 -41.08 12.42 -38.62 7.19 C-34.79 1.46 -27.55 -0.81 -21.12 -2.38 C-13.89 -3.59 -6.58 -3.29 0 0 Z " fill="#255375" transform="translate(454,1030)"/>
<path d="M0 0 C0.9 -0 1.8 -0.01 2.73 -0.01 C4.64 -0.02 6.55 -0.02 8.46 -0.02 C11.39 -0.02 14.32 -0.04 17.25 -0.06 C19.11 -0.06 20.96 -0.06 22.81 -0.06 C24.13 -0.07 24.13 -0.07 25.48 -0.08 C31.68 -0.06 31.68 -0.06 33.91 2.17 C34.14 4.52 34.14 4.52 34.09 7.23 C34.09 8.13 34.08 9.03 34.07 9.95 C33.91 12.17 33.91 12.17 32.91 13.17 C30.72 13.24 28.53 13.25 26.34 13.23 C24.55 13.22 24.55 13.22 22.71 13.2 C21.79 13.19 20.86 13.18 19.91 13.17 C19.91 14.46 19.91 14.46 19.92 15.78 C19.94 19.05 19.95 22.32 19.96 25.59 C19.97 26.99 19.97 28.39 19.98 29.79 C20.04 39.63 19.69 49.36 18.91 59.17 C17.84 59.18 16.78 59.19 15.68 59.2 C14.46 59.21 13.23 59.22 11.97 59.23 C9.61 59.25 7.26 59.24 4.91 59.17 C3.91 58.17 3.91 58.17 3.79 56.38 C3.79 55.21 3.79 55.21 3.79 54.02 C3.79 53.13 3.79 52.25 3.79 51.35 C3.8 49.91 3.8 49.91 3.81 48.45 C3.81 47.47 3.81 46.49 3.81 45.49 C3.82 42.36 3.83 39.23 3.84 36.11 C3.85 33.99 3.85 31.88 3.86 29.76 C3.87 24.56 3.89 19.37 3.91 14.17 C2.99 14.12 2.08 14.07 1.13 14.02 C-0.06 13.94 -1.24 13.87 -2.47 13.79 C-3.65 13.72 -4.84 13.65 -6.05 13.58 C-9.09 13.17 -9.09 13.17 -11.09 11.17 C-11.29 8.79 -11.29 8.79 -11.22 6.04 C-11.2 5.13 -11.18 4.22 -11.16 3.29 C-11.14 2.59 -11.12 1.89 -11.09 1.17 C-7.67 -0.54 -3.76 0 0 0 Z " fill="#255375" transform="translate(803.09375,1027.83203125)"/>
<path d="M0 0 C1.17 0.01 2.33 0.01 3.53 0.02 C4.7 0.01 5.86 0.01 7.06 0 C10.03 0.27 10.03 0.27 12.03 2.27 C12.27 4.67 12.27 4.67 12.26 7.73 C12.26 8.87 12.26 10.01 12.26 11.18 C12.25 12.42 12.24 13.66 12.23 14.93 C12.22 16.19 12.22 17.45 12.22 18.75 C12.21 22.11 12.19 25.47 12.17 28.83 C12.15 32.25 12.14 35.68 12.13 39.1 C12.11 45.82 12.07 52.54 12.03 59.27 C9.57 59.29 7.11 59.31 4.66 59.33 C3.96 59.34 3.26 59.34 2.54 59.35 C-2.74 59.38 -2.74 59.38 -4.97 58.27 C-5.02 51 -5.05 43.73 -5.07 36.46 C-5.08 33.09 -5.1 29.72 -5.12 26.34 C-5.14 22.47 -5.16 18.59 -5.16 14.71 C-5.17 13.5 -5.18 12.28 -5.2 11.03 C-5.2 9.91 -5.2 8.79 -5.2 7.63 C-5.2 6.64 -5.2 5.65 -5.21 4.63 C-4.83 0.89 -3.64 0.33 0 0 Z " fill="#255375" transform="translate(396.96875,1027.734375)"/>
<path d="M0 0 C2.96 -0.08 5.92 -0.14 8.88 -0.19 C9.72 -0.21 10.56 -0.24 11.43 -0.26 C12.23 -0.27 13.04 -0.28 13.87 -0.29 C14.98 -0.32 14.98 -0.32 16.12 -0.34 C17.05 -0.17 17.05 -0.17 18 0 C20.08 3.12 20.24 3.54 19.98 7.01 C19.92 7.77 19.87 8.53 19.82 9.31 C19.76 10.09 19.69 10.88 19.62 11.69 C19.57 12.48 19.51 13.28 19.45 14.1 C19.31 16.07 19.16 18.03 19 20 C15.85 20.03 12.71 20.05 9.56 20.06 C8.66 20.07 7.77 20.08 6.84 20.09 C5.56 20.09 5.56 20.09 4.25 20.1 C3.46 20.1 2.67 20.11 1.86 20.11 C0 20 0 20 -1 19 C-1.1 16.18 -1.14 13.38 -1.12 10.56 C-1.13 9.77 -1.13 8.98 -1.14 8.17 C-1.13 2.25 -1.13 2.25 0 0 Z " fill="#3BAAE2" transform="translate(555,1049)"/>
<path d="M0 0 C1.42 -0.02 1.42 -0.02 2.86 -0.04 C7.17 0.31 9.86 1.41 13 4.38 C15.16 7.97 15.29 10.06 14.69 14.19 C12.47 17.09 11.17 18.03 7.69 19.19 C5.29 19.26 2.9 19.27 0.5 19.25 C-0.77 19.24 -2.04 19.23 -3.36 19.22 C-4.82 19.21 -4.82 19.21 -6.31 19.19 C-7.91 16 -7.41 12.56 -7.38 9.06 C-7.37 8.31 -7.37 7.55 -7.36 6.78 C-7.35 4.91 -7.33 3.05 -7.31 1.19 C-4.75 -0.09 -2.86 0.02 0 0 Z " fill="#FAFDFF" transform="translate(867.3125,914.8125)"/>
<path d="M0 0 C0.66 0 1.32 0 2 0 C3.14 3.79 4.28 7.58 5.42 11.37 C5.99 13.29 6.58 15.22 7.16 17.14 C7.52 18.35 7.88 19.56 8.25 20.8 C8.75 22.47 8.75 22.47 9.27 24.18 C10 27 10 27 10 30 C4.06 30 -1.88 30 -8 30 C-9.13 25.48 -8.66 24.2 -7.13 19.92 C-6.72 18.76 -6.31 17.6 -5.89 16.41 C-5.45 15.2 -5.01 13.99 -4.56 12.75 C-4.13 11.53 -3.69 10.31 -3.25 9.05 C-2.17 6.03 -1.09 3.01 0 0 Z " fill="#FAFDFF" transform="translate(354,920)"/>
<path d="M0 0 C3.21 0.08 4.24 0.41 7.12 2.12 C9.19 4.38 9.19 4.38 10.31 6.31 C10.19 8.38 10.19 8.38 8.31 11.12 C4.6 13.8 2.61 13.87 -1.82 13.75 C-3.81 13.38 -3.81 13.38 -5.81 11.38 C-6.08 9.28 -6.08 9.28 -6.06 6.88 C-6.07 6.08 -6.07 5.29 -6.08 4.47 C-5.57 0.42 -3.83 0.38 0 0 Z " fill="#FAFDFF" transform="translate(359.8125,1039.625)"/>
<path d="M0 0 C3.38 1.19 3.93 1.9 6 5 C5.88 8.06 5.88 8.06 5 11 C2.06 12.96 -0.27 13.23 -3.75 13.12 C-4.55 13.11 -5.35 13.09 -6.17 13.07 C-6.78 13.05 -7.38 13.02 -8 13 C-9.26 10.48 -9.1 8.69 -9.06 5.88 C-9.05 4.96 -9.04 4.05 -9.04 3.12 C-9.02 2.42 -9.01 1.72 -9 1 C-5.98 -0.51 -3.34 -0.17 0 0 Z " fill="#FAFDFF" transform="translate(920,1040)"/>
<path d="M0 0 C2.1 3.15 3.02 5.82 4.12 9.44 C4.48 10.57 4.83 11.7 5.2 12.87 C6 16 6 16 6 20 C2.37 20 -1.26 20 -5 20 C-6.17 15.33 -5.18 12.66 -3.62 8.31 C-3.39 7.62 -3.16 6.93 -2.91 6.22 C-1.16 1.16 -1.16 1.16 0 0 Z " fill="#F9FCFE" transform="translate(703,1043)"/>
<path d="M0 0 C2.21 3.32 3.05 6.16 4.12 10 C4.48 11.24 4.83 12.47 5.2 13.75 C6 17 6 17 6 20 C2.04 20 -1.92 20 -6 20 C-5.46 14.08 -4.3 4.3 0 0 Z " fill="#F9FCFE" transform="translate(302,1043)"/>
<path d="M0 0 C0.66 0 1.32 0 2 0 C2.84 2.25 3.67 4.5 4.5 6.75 C4.74 7.38 4.98 8.02 5.22 8.67 C6.45 12.03 7 14.37 7 18 C3.04 18 -0.92 18 -5 18 C-3.85 11.66 -2.43 5.97 0 0 Z " fill="#FAFDFF" transform="translate(862,1045)"/>
<path d="M0 0 C3.78 2.52 3.94 4.14 5.19 8.44 C5.53 9.59 5.88 10.74 6.23 11.93 C7 15 7 15 7 18 C3.37 18 -0.26 18 -4 18 C-5.36 13.93 -3.95 11.19 -2.56 7.31 C-2.32 6.61 -2.08 5.91 -1.83 5.19 C-1.23 3.45 -0.61 1.73 0 0 Z " fill="#FAFDFF" transform="translate(975,1045)"/>
</svg>
