<?xml version="1.0" encoding="UTF-8"?>
<!-- Generator: visioncortex VTracer 0.6.3 -->
<svg version="1.1" xmlns="http://www.w3.org/2000/svg" width="1280" height="1201">
<path d="M0 0 C0.69 0.28 1.37 0.56 2.08 0.84 C6.78 2.77 11.39 4.86 16 7 C16.87 7.4 17.74 7.8 18.64 8.22 C40.86 18.53 61.61 30.41 82 44 C82 44.66 82 45.32 82 46 C83.03 46.34 83.03 46.34 84.08 46.68 C87.71 48.32 90.61 50.59 93.69 53.06 C94.6 53.79 94.6 53.79 95.54 54.53 C100.23 58.29 104.71 62.23 109.11 66.32 C110.9 68.06 110.9 68.06 113 69 C113 69.66 113 70.32 113 71 C113.57 71.25 114.14 71.49 114.73 71.75 C117.38 73.21 119.19 74.93 121.33 77.06 C122.53 78.26 122.53 78.26 123.75 79.48 C124.58 80.31 125.4 81.14 126.25 82 C127.09 82.83 127.93 83.67 128.8 84.52 C129.59 85.32 130.38 86.12 131.2 86.94 C131.93 87.67 132.66 88.4 133.41 89.15 C135 91 135 91 135 93 C135.66 93 136.32 93 137 93 C138.4 94.53 139.72 96.13 141 97.75 C141.81 98.76 142.62 99.78 143.45 100.82 C143.87 101.35 144.29 101.88 144.73 102.43 C146.7 104.87 148.77 107.24 150.81 109.62 C161.33 122.25 170.22 136.14 179 150 C179.56 150.88 179.56 150.88 180.14 151.78 C184.98 159.34 189.18 167.05 193.08 175.13 C194.39 177.8 195.74 180.46 197.08 183.12 C200.56 190.01 203.87 196.95 207 204 C207.65 205.42 208.29 206.84 208.94 208.25 C212.36 215.77 215.65 223.2 218.02 231.13 C218.84 233.52 219.76 235.68 220.82 237.97 C223.6 244.11 225.54 250.51 227.56 256.94 C227.95 258.15 228.33 259.36 228.73 260.61 C230.89 267.38 233.04 274.16 235 281 C235.26 281.83 235.26 281.83 235.53 282.68 C236.18 285.89 236.16 288.98 236.2 292.26 C236.21 292.99 236.22 293.73 236.22 294.49 C236.25 296.96 236.28 299.43 236.3 301.9 C236.32 303.68 236.34 305.45 236.36 307.23 C236.41 312.1 236.46 316.97 236.5 321.84 C236.53 324.95 236.56 328.05 236.59 331.15 C237.08 379.56 237.28 427.98 237.46 476.39 C237.54 498.48 237.64 520.56 237.73 542.65 C237.74 545.07 237.76 547.5 237.77 549.92 C237.93 587.28 238.14 624.64 238.47 662.01 C238.5 665.51 238.53 669.02 238.56 672.53 C238.6 677.21 238.64 681.89 238.68 686.57 C238.7 688.31 238.7 688.31 238.72 690.09 C238.74 692.43 238.76 694.77 238.78 697.11 C239.08 730.99 239.33 764.87 239.56 798.75 C239.57 799.56 239.57 800.38 239.58 801.22 C240.15 886.14 240.1 971.07 240 1056 C269.11 1055.96 298.21 1055.91 327.32 1055.82 C330.75 1055.81 334.18 1055.8 337.62 1055.79 C338.65 1055.79 338.65 1055.79 339.69 1055.79 C350.77 1055.76 361.85 1055.74 372.92 1055.73 C384.29 1055.71 395.65 1055.69 407.02 1055.65 C413.4 1055.62 419.78 1055.61 426.17 1055.61 C432.17 1055.61 438.18 1055.59 444.18 1055.56 C446.39 1055.55 448.6 1055.55 450.8 1055.55 C453.81 1055.56 456.82 1055.54 459.83 1055.52 C461.14 1055.53 461.14 1055.53 462.49 1055.54 C467.34 1055.48 467.34 1055.48 471.51 1053.17 C473.67 1050.02 474 1047.82 474 1044 C472.42 1039.71 470.03 1036.22 466 1034 C463.17 1033.81 460.58 1033.79 457.77 1033.93 C455.95 1033.98 454.14 1034.04 452.33 1034.09 C451.35 1034.13 450.37 1034.17 449.35 1034.2 C443.84 1034.4 438.32 1034.52 432.81 1034.64 C431.56 1034.67 430.3 1034.7 429.01 1034.73 C412.13 1035.11 395.24 1035.37 378.35 1035.49 C373.33 1035.52 368.31 1035.57 363.29 1035.66 C358.49 1035.74 353.69 1035.78 348.89 1035.8 C347.1 1035.81 345.31 1035.84 343.51 1035.88 C329.78 1036.17 329.78 1036.17 325.39 1033.28 C323.58 1031.26 322.27 1029.39 321 1027 C320.36 1025.91 319.72 1024.81 319.06 1023.69 C317.25 1017.38 316.89 1011.6 319.5 1005.5 C320.32 1004.33 321.16 1003.16 322 1002 C322.55 1001.06 323.1 1000.13 323.66 999.16 C324.29 998.16 324.92 997.16 325.56 996.12 C326.14 995.18 326.72 994.23 327.32 993.26 C333.67 987.91 345.88 989.83 353.85 989.79 C355.09 989.78 356.33 989.77 357.61 989.76 C360.98 989.74 364.35 989.72 367.72 989.7 C371.3 989.67 374.88 989.65 378.46 989.62 C384.49 989.58 390.53 989.54 396.57 989.5 C404.19 989.45 411.81 989.4 419.43 989.34 C426.1 989.29 432.78 989.24 439.45 989.2 C442.12 989.18 444.79 989.16 447.45 989.14 C468.97 989 490.48 989 512 989 C512 1033.55 512 1078.1 512 1124 C475.17 1124.49 475.17 1124.49 462.25 1124.66 C461.4 1124.67 460.56 1124.68 459.68 1124.69 C400.42 1125.46 341.16 1126.19 281.89 1126.69 C280.24 1126.7 278.59 1126.71 276.93 1126.73 C276.12 1126.73 275.31 1126.74 274.47 1126.75 C268.75 1126.8 263.03 1126.85 257.3 1126.91 C250.35 1126.99 243.39 1127.05 236.44 1127.1 C232.9 1127.12 229.36 1127.15 225.82 1127.19 C222.01 1127.24 218.19 1127.26 214.37 1127.28 C213.25 1127.3 212.13 1127.31 210.98 1127.33 C209.96 1127.33 208.94 1127.33 207.9 1127.34 C207.02 1127.34 206.14 1127.35 205.23 1127.36 C202.44 1126.91 201.73 1126.19 200 1124 C199.62 1121.96 199.62 1121.96 199.62 1119.57 C199.61 1118.65 199.6 1117.74 199.59 1116.8 C199.59 1115.79 199.6 1114.78 199.6 1113.74 C199.6 1112.67 199.59 1111.6 199.58 1110.49 C199.56 1106.86 199.57 1103.23 199.57 1099.6 C199.56 1096.98 199.55 1094.36 199.54 1091.75 C199.52 1086.03 199.51 1080.32 199.5 1074.61 C199.49 1066.11 199.47 1057.61 199.44 1049.11 C199.4 1034.77 199.37 1020.44 199.34 1006.1 C199.32 991.82 199.29 977.53 199.25 963.25 C199.25 962.36 199.25 961.47 199.24 960.55 C199.23 956.02 199.22 951.49 199.21 946.96 C199.12 914.79 199.04 882.61 198.97 850.43 C198.91 819.5 198.84 788.57 198.77 757.64 C198.76 756.7 198.76 755.76 198.76 754.79 C198.71 734 198.66 713.21 198.6 692.43 C198.6 689.62 198.59 686.82 198.58 684.01 C198.58 683.09 198.58 682.16 198.57 681.21 C198.57 679.35 198.56 677.49 198.56 675.63 C198.55 671.01 198.54 666.38 198.52 661.76 C198.47 642.09 198.43 622.42 198.38 602.75 C198.38 601.9 198.38 601.05 198.38 600.17 C198.38 598.45 198.37 596.74 198.37 595.02 C198.23 529.77 198.05 464.53 197.58 399.28 C197.55 395 197.52 390.73 197.49 386.45 C197.24 349.31 197.24 349.31 196.67 312.18 C196.63 310.46 196.6 308.75 196.58 307.04 C196.35 293.33 194.35 281.02 190 268 C189.59 266.71 189.18 265.42 188.77 264.13 C179.68 235.08 179.68 235.08 167.25 207.37 C166.33 205.62 165.45 203.85 164.6 202.07 C157.18 186.66 148.55 171.49 138 158 C137.25 156.99 136.49 155.99 135.71 154.95 C122.13 136.87 106.99 119.81 89 106 C87.99 105.19 86.97 104.39 85.93 103.55 C78.81 97.92 71.43 92.86 63.72 88.07 C62.04 87.03 60.38 85.97 58.72 84.91 C51.05 80.07 43.18 75.91 35 72 C33.26 71.15 33.26 71.15 31.48 70.29 C13.26 61.52 -5.82 53.93 -25.5 49.19 C-32.69 47.2 -36.95 43.34 -42 38 C-42.93 37.15 -43.86 36.31 -44.81 35.44 C-51.32 28.18 -53.37 21.93 -53.28 12.23 C-52.7 5.57 -49.05 1.25 -44 -3 C-31.05 -13.08 -13.2 -5.42 0 0 Z " fill="#000000" transform="translate(768,7)"/>
<path d="M0 0 C0.91 -0.03 1.82 -0.06 2.75 -0.09 C10.6 -0.16 16.6 1.66 22.69 6.69 C27.37 12.47 28.54 17.04 27.81 24.31 C26.02 33.1 21.16 39.35 13.81 44.31 C10.62 45.77 7.4 46.97 4.09 48.14 C1.13 49.2 -1.66 50.4 -4.5 51.75 C-9.6 54.12 -14.8 56.1 -20.09 57.99 C-25.94 60.12 -31.55 62.69 -37.19 65.31 C-38.07 65.72 -38.96 66.13 -39.87 66.55 C-50.73 71.6 -61.46 76.86 -72 82.56 C-72.88 83.03 -73.75 83.5 -74.65 83.99 C-80.8 87.37 -86.51 91.19 -92.19 95.31 C-92.86 95.8 -93.54 96.29 -94.24 96.79 C-96.64 98.52 -99.04 100.26 -101.44 102.01 C-104.01 103.87 -106.15 105.3 -109.19 106.31 C-109.19 106.97 -109.19 107.63 -109.19 108.31 C-110.66 109.6 -112.19 110.82 -113.75 112 C-117.76 115.11 -121.36 118.34 -124.81 122.06 C-126.19 123.31 -126.19 123.31 -128.19 123.31 C-128.68 124.8 -128.68 124.8 -129.19 126.31 C-129.85 126.31 -130.51 126.31 -131.19 126.31 C-131.42 126.87 -131.66 127.42 -131.9 127.99 C-133.5 130.88 -135.51 133.02 -137.75 135.44 C-140.82 138.63 -140.82 138.63 -143.19 142.31 C-143.85 142.31 -144.51 142.31 -145.19 142.31 C-145.47 142.9 -145.75 143.49 -146.04 144.1 C-147.08 146.1 -148.18 147.87 -149.47 149.71 C-149.92 150.35 -150.36 150.98 -150.82 151.64 C-151.29 152.32 -151.76 152.99 -152.25 153.69 C-163.94 170.58 -174.71 187.74 -182.68 206.73 C-183.93 209.7 -185.25 212.6 -186.62 215.5 C-196.98 238.28 -204.42 262.57 -210.31 286.85 C-210.97 289.45 -211.67 292.01 -212.41 294.59 C-215.78 306.62 -216.88 317.6 -216.71 330.05 C-216.7 331.92 -216.7 333.8 -216.7 335.68 C-216.69 340.74 -216.64 345.81 -216.59 350.87 C-216.54 356.35 -216.52 361.83 -216.5 367.3 C-216.44 379.89 -216.33 392.47 -216.22 405.05 C-216.18 409.16 -216.14 413.27 -216.11 417.38 C-215.96 434.41 -215.8 451.44 -215.61 468.47 C-215.19 508.37 -214.93 548.28 -214.7 588.19 C-214.69 590.87 -214.67 593.56 -214.66 596.24 C-214.38 643.62 -214.15 690.99 -213.95 738.37 C-213.93 743.34 -213.91 748.31 -213.89 753.29 C-213.86 759.5 -213.84 765.72 -213.81 771.93 C-213.81 773.16 -213.8 774.39 -213.79 775.66 C-213.74 788.99 -213.68 802.32 -213.63 815.64 C-213.58 829.29 -213.53 842.93 -213.47 856.57 C-213.46 858.22 -213.46 858.22 -213.45 859.89 C-213.32 890.87 -213.05 921.84 -212.63 952.82 C-212.15 987.44 -212.06 1022.06 -212.12 1056.68 C-212.13 1064.43 -212.13 1072.18 -212.14 1079.93 C-212.15 1095.73 -212.17 1111.52 -212.19 1127.31 C-226.71 1127.31 -241.23 1127.31 -256.19 1127.31 C-256.23 1056.43 -256.26 985.54 -256.24 914.66 C-256.24 913.59 -256.24 912.52 -256.24 911.41 C-256.23 888.99 -256.23 866.57 -256.22 844.15 C-256.21 831.18 -256.2 818.21 -256.2 805.24 C-256.2 804.05 -256.2 802.86 -256.2 801.64 C-256.18 761.05 -256.2 720.46 -256.22 679.87 C-256.25 635.14 -256.25 590.41 -256.21 545.69 C-256.21 539.24 -256.2 532.8 -256.2 526.36 C-256.2 525.09 -256.2 523.81 -256.2 522.51 C-256.18 502.03 -256.2 481.55 -256.22 461.08 C-256.25 440.37 -256.24 419.66 -256.21 398.95 C-256.19 386.58 -256.19 374.2 -256.23 361.83 C-256.25 353.51 -256.24 345.19 -256.21 336.87 C-256.19 332.12 -256.19 327.38 -256.22 322.64 C-256.34 302.49 -255.49 285.19 -248.2 266.13 C-246.39 261.11 -245.07 255.96 -243.69 250.81 C-233.42 213.7 -221.85 174.07 -199.19 142.31 C-198.3 141.03 -197.42 139.74 -196.54 138.45 C-183.69 119.82 -167.79 98.58 -149.19 85.31 C-148.53 85.31 -147.87 85.31 -147.19 85.31 C-146.69 83.83 -146.69 83.83 -146.19 82.31 C-144.82 80.96 -144.82 80.96 -143.1 79.61 C-142.48 79.13 -141.86 78.64 -141.22 78.14 C-140.25 77.39 -140.25 77.39 -139.25 76.62 C-138.6 76.11 -137.96 75.6 -137.29 75.08 C-132.45 71.31 -132.45 71.31 -130.19 71.31 C-130.19 70.65 -130.19 69.99 -130.19 69.31 C-128.66 67.98 -128.66 67.98 -126.54 66.49 C-125.78 65.96 -125.02 65.42 -124.24 64.87 C-123.44 64.32 -122.64 63.76 -121.81 63.19 C-120.62 62.34 -120.62 62.34 -119.41 61.48 C-113.45 57.31 -113.45 57.31 -111.19 57.31 C-111.19 56.65 -111.19 55.99 -111.19 55.31 C-109.52 54.04 -109.52 54.04 -107 52.5 C-106 51.88 -105.01 51.27 -103.98 50.63 C-103.39 50.27 -102.81 49.92 -102.2 49.55 C-99.88 48.12 -97.56 46.68 -95.24 45.24 C-90.71 42.43 -86.17 39.63 -81.64 36.83 C-79.53 35.53 -77.43 34.22 -75.33 32.91 C-74.25 32.24 -73.17 31.57 -72.06 30.88 C-71.17 30.32 -70.28 29.76 -69.37 29.19 C-60.02 23.67 -50.34 18.74 -40.7 13.76 C-38.49 12.62 -36.29 11.47 -34.08 10.33 C-32.66 9.59 -31.23 8.85 -29.8 8.11 C-29.15 7.78 -28.51 7.44 -27.84 7.09 C-18.58 2.33 -10.38 0.11 0 0 Z " fill="#000000" transform="translate(535.1875,6.6875)"/>
<path d="M0 0 C1.11 1.05 1.11 1.05 2.24 2.11 C2.86 2.7 3.49 3.28 4.13 3.88 C14.87 14.23 23.73 27.27 31.24 40.11 C31.24 40.77 31.24 41.43 31.24 42.11 C32.06 41.95 32.06 41.95 32.9 41.78 C50.61 38.21 50.61 38.21 57.68 36.86 C58.46 36.71 59.24 36.56 60.05 36.41 C62.47 36.08 64.8 36.06 67.24 36.11 C67.55 34.6 67.55 34.6 67.86 33.05 C69.5 27.38 73.13 23.5 77.99 20.3 C86.48 17.2 92.8 16.31 101.24 20.11 C107.87 23.71 111.9 28.89 114.24 36.11 C114.24 37.1 114.24 38.09 114.24 39.11 C115.04 39.3 115.04 39.3 115.86 39.49 C127.4 42.52 139.24 48.24 148.24 56.11 C148.24 56.77 148.24 57.43 148.24 58.11 C148.83 58.37 149.42 58.63 150.03 58.9 C157.44 62.98 162.07 72.07 166.24 79.11 C166.81 80.05 166.81 80.05 167.39 81 C181.56 106.37 179.32 142.93 172.92 170.13 C172.16 173.44 171.68 176.75 171.24 180.11 C171.96 180.52 172.68 180.93 173.43 181.36 C174.82 182.16 174.82 182.16 176.24 182.99 C177.63 183.79 177.63 183.79 179.05 184.61 C179.77 185.1 180.49 185.6 181.24 186.11 C181.24 186.77 181.24 187.43 181.24 188.11 C181.95 188.34 182.65 188.57 183.38 188.81 C186.79 190.37 189.1 192.47 191.93 194.93 C195.96 198.22 195.96 198.22 201 199.04 C203.49 198.2 205.83 197.18 208.24 196.11 C215.69 195.49 222.24 197.6 228.24 202.11 C233.54 207.72 235.68 214.26 235.5 221.99 C235.02 225.89 233.63 229.46 232.24 233.11 C230.92 235.97 230.92 235.97 232.09 238.1 C232.53 238.87 232.97 239.64 233.43 240.43 C236.74 246.72 238.51 253.24 240.24 260.11 C240.47 260.98 240.69 261.85 240.93 262.74 C245.67 282.9 239.71 303.82 229.19 321.13 C221.81 332.39 213.57 342.49 203.24 351.11 C202.29 351.92 201.35 352.73 200.38 353.56 C195.25 357.93 190.1 362.1 184.41 365.73 C181.27 367.73 178.23 369.88 175.18 372.01 C173.24 373.11 173.24 373.11 170.24 373.11 C170.88 376.41 171.53 379.7 172.18 382.99 C172.36 383.93 172.54 384.86 172.73 385.83 C172.91 386.72 173.08 387.62 173.27 388.54 C173.43 389.37 173.59 390.2 173.76 391.05 C174.16 393.16 174.16 393.16 175.24 395.11 C175.47 397.66 175.66 400.19 175.8 402.74 C175.87 403.8 175.87 403.8 175.93 404.88 C176.04 406.62 176.14 408.37 176.24 410.11 C177.17 410.25 178.1 410.38 179.06 410.52 C182.43 411.15 184.49 412.09 187.24 414.11 C187.24 414.77 187.24 415.43 187.24 416.11 C188.23 416.44 189.22 416.77 190.24 417.11 C195.32 422.88 196.01 429.29 195.72 436.73 C194.82 443.07 192.06 447.71 187.36 451.99 C183.66 454.51 179.78 456.95 175.2 457.24 C172.87 458.02 172.87 458.02 171.85 461.22 C171.41 462.58 170.98 463.94 170.55 465.3 C163.91 484.43 150.48 500.06 132.24 509.11 C103.62 522.08 71.63 521.32 41.44 514.8 C38.38 514.14 35.32 513.6 32.24 513.11 C31.87 513.72 31.51 514.33 31.13 514.96 C28.28 519.56 25.38 523.99 22.07 528.27 C21.52 528.97 20.97 529.68 20.41 530.41 C19.3 531.83 18.19 533.23 17.06 534.63 C16.55 535.28 16.04 535.94 15.52 536.61 C15.06 537.19 14.59 537.77 14.12 538.36 C13.03 540.11 13.03 540.11 13.56 542.21 C13.78 542.84 14.01 543.47 14.24 544.11 C16.33 551.47 17.33 558.32 14.18 565.54 C10.59 571.6 5.93 575.79 -0.76 578.11 C-9.29 579.26 -15.64 578.91 -22.76 574.11 C-26.94 574.48 -30.37 576.22 -34.14 577.99 C-52.28 586.03 -73.15 586.66 -91.77 579.67 C-121.6 567.69 -147.44 541.75 -161.76 513.11 C-166.21 513.72 -170.64 514.4 -175.07 515.11 C-176.1 515.28 -177.13 515.44 -178.19 515.61 C-180.74 515.99 -180.74 515.99 -182.76 517.11 C-183.78 517.17 -184.8 517.23 -185.84 517.3 C-189.71 517.56 -193.06 517.94 -196.76 519.11 C-199.4 522.17 -200.67 525.26 -201.76 529.11 C-202.42 529.11 -203.08 529.11 -203.76 529.11 C-204.09 530.1 -204.42 531.09 -204.76 532.11 C-210.53 537.19 -216.93 537.88 -224.37 537.61 C-229.18 536.91 -233.11 535.36 -236.76 532.11 C-238 529.94 -238 529.94 -238.76 528.11 C-239.42 528.11 -240.08 528.11 -240.76 528.11 C-243.05 525.06 -243.81 522.74 -244.2 519.05 C-244.58 516.92 -244.58 516.92 -245.76 515.11 C-248.53 513.76 -251.3 513.03 -254.27 512.22 C-265.02 508.81 -273.82 501.94 -281.76 494.11 C-282.7 493.29 -282.7 493.29 -283.65 492.45 C-292.47 484.41 -297.73 473.16 -301.76 462.11 C-302.06 461.35 -302.35 460.59 -302.66 459.81 C-310.83 436.43 -307.6 406.95 -302.45 383.28 C-301.79 380.23 -301.25 377.19 -300.76 374.11 C-301.4 373.71 -302.05 373.31 -302.71 372.9 C-308.13 369.49 -313.48 365.99 -318.76 362.36 C-319.83 361.63 -320.91 360.89 -322.01 360.13 C-324.76 358.11 -324.76 358.11 -326.39 356.29 C-327.07 355.71 -327.07 355.71 -327.76 355.11 C-329.78 355.28 -329.78 355.28 -331.76 356.11 C-338.82 358.34 -345.85 359.07 -352.91 356.25 C-355.87 354.63 -358.69 352.8 -360.76 350.11 C-360.76 349.45 -360.76 348.79 -360.76 348.11 C-361.42 348.11 -362.08 348.11 -362.76 348.11 C-366.71 339.88 -367.69 332.85 -364.76 324.11 C-363.76 322.45 -362.76 320.78 -361.76 319.11 C-362.21 315.93 -363.58 313.08 -364.83 310.14 C-374.03 288.4 -374.02 267.71 -365.45 245.86 C-361.1 236.1 -355.7 227.62 -348.78 219.49 C-346.76 217.18 -346.76 217.18 -345.12 214.8 C-344.67 214.24 -344.22 213.69 -343.76 213.11 C-343.1 213.11 -342.44 213.11 -341.76 213.11 C-341.43 212.12 -341.1 211.13 -340.76 210.11 C-340.1 210.11 -339.44 210.11 -338.76 210.11 C-338.76 209.45 -338.76 208.79 -338.76 208.11 C-337.3 206.61 -337.3 206.61 -335.39 204.99 C-334.76 204.45 -334.13 203.91 -333.49 203.36 C-331.76 202.11 -331.76 202.11 -329.76 202.11 C-329.76 201.45 -329.76 200.79 -329.76 200.11 C-328.28 198.8 -328.28 198.8 -326.21 197.32 C-325.45 196.78 -324.7 196.23 -323.92 195.67 C-323.1 195.09 -322.29 194.52 -321.45 193.93 C-320.63 193.34 -319.82 192.76 -318.97 192.16 C-313.03 187.94 -307 183.89 -300.76 180.11 C-301.38 176.3 -302.05 172.5 -302.73 168.71 C-302.91 167.72 -303.09 166.72 -303.27 165.7 C-303.64 163.64 -304.01 161.58 -304.39 159.52 C-305.25 154.67 -306.02 150.07 -305.76 145.11 C-306.84 144.96 -306.84 144.96 -307.95 144.8 C-314.27 143.26 -318.14 139.32 -321.76 134.11 C-324.35 129.2 -325.43 124.68 -324.76 119.11 C-323.15 114.01 -321.33 109.19 -317.76 105.11 C-317.1 105.11 -316.44 105.11 -315.76 105.11 C-315.76 104.45 -315.76 103.79 -315.76 103.11 C-314.51 102.46 -313.26 101.82 -312.01 101.18 C-311.32 100.82 -310.62 100.46 -309.9 100.09 C-307.76 99.11 -307.76 99.11 -305.73 98.78 C-305.08 98.56 -304.43 98.34 -303.76 98.11 C-302.52 95.35 -301.52 92.72 -300.57 89.86 C-296.21 77.75 -289.28 66.94 -279.76 58.11 C-279.1 58.11 -278.44 58.11 -277.76 58.11 C-277.76 57.45 -277.76 56.79 -277.76 56.11 C-267.05 46.76 -253.41 41.38 -239.76 38.11 C-238.52 37.76 -237.27 37.4 -235.98 37.03 C-228.32 35.36 -220.32 35.72 -212.51 35.74 C-211.67 35.74 -210.82 35.74 -209.95 35.73 C-197.57 35.74 -185.98 36.63 -173.94 39.66 C-169.93 40.5 -165.85 40.8 -161.76 41.11 C-161.14 40.17 -160.53 39.23 -159.89 38.25 C-159.04 36.96 -158.18 35.66 -157.32 34.36 C-156.88 33.68 -156.44 33 -155.98 32.3 C-153.79 28.99 -151.58 25.81 -148.99 22.8 C-144.31 17.76 -144.31 17.76 -142.87 11.39 C-143.68 8.87 -144.69 6.53 -145.76 4.11 C-146.28 -1.97 -145.73 -7.18 -142.06 -12.22 C-136.76 -18.47 -132.57 -21.68 -124.32 -22.7 C-118.47 -23.09 -114 -22.31 -108.98 -19.11 C-105.76 -17.49 -105.76 -17.49 -102.46 -19.02 C-100.76 -20.01 -100.76 -20.01 -99.01 -21.01 C-64.18 -40 -27.27 -25.19 0 0 Z M-94.32 -17.39 C-95.81 -16.78 -95.81 -16.78 -97.33 -16.17 C-100.04 -14.99 -100.04 -14.99 -101.76 -11.89 C-101.07 -10.17 -100.36 -8.45 -99.57 -6.77 C-96.99 -0.78 -97.62 5.13 -99.76 11.11 C-101.89 14.05 -101.89 14.05 -103.76 16.11 C-103.76 16.77 -103.76 17.43 -103.76 18.11 C-105.08 18.8 -106.42 19.46 -107.76 20.11 C-108.71 20.65 -109.66 21.19 -110.64 21.74 C-116.78 24.33 -125.1 24.51 -131.3 22.14 C-133.12 21.13 -134.94 20.12 -136.76 19.11 C-140.03 20.18 -141.57 21.82 -143.45 24.63 C-143.92 25.33 -144.39 26.02 -144.88 26.73 C-145.35 27.46 -145.83 28.18 -146.32 28.93 C-146.81 29.64 -147.29 30.35 -147.78 31.08 C-149.13 33.08 -150.45 35.09 -151.76 37.11 C-152.37 38.05 -152.98 38.98 -153.6 39.94 C-155 42.14 -155 42.14 -154.76 45.11 C-154.04 45.36 -153.31 45.61 -152.57 45.86 C-149.21 47 -145.86 48.15 -142.51 49.3 C-140.8 49.88 -140.8 49.88 -139.06 50.47 C-128.24 54.19 -117.77 58.5 -107.45 63.43 C-106.64 63.81 -105.84 64.19 -105.01 64.59 C-97.47 68.2 -90.09 72.09 -82.76 76.11 C-81.45 76.82 -81.45 76.82 -80.12 77.55 C-77.2 79.14 -74.35 80.71 -71.62 82.6 C-70.92 83.08 -70.23 83.56 -69.51 84.05 C-68.91 84.49 -68.31 84.94 -67.68 85.39 C-65.69 86.36 -65.69 86.36 -63.31 85.41 C-60.86 84.16 -58.53 82.83 -56.2 81.36 C-51.58 78.55 -46.86 76.11 -42.01 73.74 C-39.13 72.3 -36.31 70.79 -33.49 69.25 C-21 62.44 -8.04 56.89 5.24 51.8 C6.09 51.48 6.93 51.15 7.81 50.81 C13.55 48.65 19.34 46.8 25.24 45.11 C24.46 40.46 22.86 37.72 20.11 33.86 C19.71 33.29 19.3 32.72 18.89 32.13 C15.98 28.07 12.97 24.09 9.87 20.18 C7.71 17.45 5.65 14.65 3.6 11.84 C2.24 10.11 0.89 8.56 -0.76 7.11 C-1.42 7.11 -2.08 7.11 -2.76 7.11 C-3.09 6.12 -3.42 5.13 -3.76 4.11 C-4.42 4.11 -5.08 4.11 -5.76 4.11 C-5.76 3.45 -5.76 2.79 -5.76 2.11 C-7.81 0.29 -9.85 -1.4 -12.01 -3.07 C-12.97 -3.81 -12.97 -3.81 -13.94 -4.57 C-29.09 -16.12 -45.41 -23.26 -64.57 -23.2 C-66.1 -23.22 -66.1 -23.22 -67.65 -23.25 C-77.19 -23.25 -85.54 -21.04 -94.32 -17.39 Z M-271.76 59.11 C-272.39 59.59 -273.01 60.06 -273.66 60.54 C-281.38 66.72 -286.73 74.51 -291.2 83.24 C-291.54 83.89 -291.88 84.55 -292.24 85.23 C-294.52 89.89 -295.35 93.94 -295.76 99.11 C-294.57 99.51 -293.37 99.9 -292.14 100.3 C-286.4 102.49 -282.39 105.54 -279.45 110.99 C-276.46 117.67 -276.28 123.32 -278.76 130.11 C-281.58 136.62 -285.89 140.98 -292.45 143.86 C-294.54 144.65 -296.64 145.41 -298.76 146.11 C-299.04 153.27 -298.29 159.76 -296.76 166.74 C-296.57 167.65 -296.38 168.56 -296.18 169.49 C-295.72 171.7 -295.24 173.91 -294.76 176.11 C-289.6 175.49 -285.31 173.12 -280.7 170.86 C-273.47 167.38 -266.23 164.07 -258.76 161.11 C-258.12 160.85 -257.48 160.59 -256.82 160.33 C-238.2 152.79 -219.16 147.26 -199.76 142.11 C-199.5 141.03 -199.23 139.94 -198.96 138.82 C-198.6 137.38 -198.24 135.93 -197.89 134.49 C-197.71 133.78 -197.54 133.06 -197.36 132.33 C-197.1 131.27 -197.1 131.27 -196.83 130.2 C-196.67 129.56 -196.52 128.92 -196.36 128.26 C-195.59 125.51 -194.67 122.82 -193.76 120.11 C-193.1 118.02 -192.43 115.92 -191.77 113.82 C-191.4 112.63 -191.02 111.44 -190.63 110.22 C-189.85 107.76 -189.07 105.29 -188.3 102.83 C-184.45 90.72 -179.46 79.27 -174.14 67.74 C-173.66 66.7 -173.18 65.66 -172.69 64.59 C-168.87 56.28 -168.87 56.28 -166.93 52.51 C-165.62 50.26 -165.62 50.26 -165.76 48.11 C-181.61 44.03 -196.3 41.93 -212.7 41.93 C-213.88 41.91 -215.07 41.9 -216.29 41.89 C-236.27 41.86 -255.83 46.71 -271.76 59.11 Z M48.99 44.49 C47.96 44.68 47.96 44.68 46.91 44.87 C43.16 45.6 39.73 46.56 36.24 48.11 C37.5 52.29 39.13 56.08 41.05 59.97 C50.73 79.55 58.27 100.03 64.48 120.95 C64.78 121.92 65.08 122.9 65.39 123.91 C66.24 127.11 66.24 127.11 66.82 131.03 C67.46 135.04 68.33 138.49 70.24 142.11 C74.95 145.12 79.9 146.06 85.3 147.11 C86.76 147.45 88.23 147.8 89.69 148.15 C91.86 148.67 94.04 149.19 96.22 149.69 C101.9 150.98 107.31 152.68 112.74 154.8 C113.48 155.09 114.23 155.38 114.99 155.67 C116.41 156.22 117.83 156.78 119.24 157.34 C121.17 158.09 123.11 158.78 125.06 159.46 C135.05 162.96 144.45 167.47 153.9 172.24 C154.94 172.75 155.97 173.27 157.04 173.8 C157.97 174.27 158.9 174.74 159.86 175.22 C162.33 176.43 162.33 176.43 165.24 175.11 C172.12 142.49 177.17 106.27 158 76.55 C152.31 68.66 146.51 61.41 138.24 56.11 C137.63 55.69 137.02 55.26 136.39 54.82 C129.9 50.48 122.14 46.11 114.24 46.11 C113.86 46.93 113.49 47.75 113.1 48.6 C112.59 49.68 112.08 50.75 111.55 51.86 C110.8 53.46 110.8 53.46 110.04 55.1 C107.42 59.48 103.95 62.19 99.24 64.11 C91.72 65.9 84.9 64.98 78.05 61.49 C71.97 56.35 68.65 50.63 66.24 43.11 C60.28 42.79 54.82 43.4 48.99 44.49 Z M-159.76 51.11 C-167.04 62.48 -171.81 74.65 -176.63 87.21 C-177.69 89.92 -178.78 92.62 -179.88 95.31 C-181.7 99.87 -183.25 104.48 -184.7 109.18 C-184.95 109.98 -185.2 110.79 -185.46 111.62 C-186.23 114.12 -187 116.61 -187.76 119.11 C-188.01 119.93 -188.26 120.74 -188.52 121.57 C-189.23 123.9 -189.94 126.22 -190.64 128.55 C-190.85 129.25 -191.07 129.96 -191.29 130.68 C-192.28 134.02 -192.76 136.59 -192.76 140.11 C-191.55 139.91 -191.55 139.91 -190.31 139.7 C-182.38 138.37 -174.46 137.05 -166.53 135.74 C-164.27 135.36 -162.02 134.99 -159.77 134.61 C-157.35 134.21 -154.93 133.82 -152.51 133.43 C-151.77 133.3 -151.03 133.18 -150.27 133.05 C-146.54 132.44 -142.91 132.04 -139.14 131.91 C-127.27 131.4 -121.45 127.78 -112.79 119.89 C-109.07 116.64 -105.07 113.77 -101.07 110.86 C-99.86 109.98 -99.86 109.98 -98.63 109.07 C-82.51 97.31 -82.51 97.31 -75.76 94.11 C-75.76 93.45 -75.76 92.79 -75.76 92.11 C-74.44 91.78 -73.12 91.45 -71.76 91.11 C-73.94 84.59 -83.57 81.66 -89.39 78.74 C-91.21 77.84 -93.03 76.95 -94.86 76.05 C-96.81 75.09 -98.75 74.12 -100.69 73.14 C-114.14 66.34 -127.45 59.94 -141.76 55.11 C-143.41 54.52 -143.41 54.52 -145.09 53.92 C-146.14 53.55 -147.18 53.18 -148.26 52.8 C-149.18 52.47 -150.1 52.15 -151.04 51.81 C-154.04 51.04 -156.68 50.99 -159.76 51.11 Z M28.24 50.11 C13.31 54.08 -0.73 59.38 -14.64 66.1 C-16.97 67.21 -19.32 68.29 -21.67 69.36 C-31.07 73.68 -40.18 78.31 -49.07 83.61 C-49.95 84.13 -50.82 84.65 -51.72 85.18 C-52.91 85.9 -52.91 85.9 -54.12 86.64 C-54.83 87.07 -55.53 87.5 -56.26 87.94 C-56.75 88.33 -57.25 88.72 -57.76 89.11 C-57.76 89.77 -57.76 90.43 -57.76 91.11 C-55.81 92.66 -55.81 92.66 -53.25 94.25 C-52.27 94.88 -51.3 95.51 -50.29 96.17 C-49.23 96.85 -48.17 97.53 -47.07 98.24 C-36.85 104.93 -27.05 112 -17.39 119.49 C-16.61 120.09 -15.83 120.69 -15.03 121.3 C-12.76 123.11 -12.76 123.11 -10.68 125.06 C-4.68 130.44 0.8 131.36 8.71 132.01 C12.23 132.3 15.74 132.69 19.25 133.07 C20.34 133.19 20.34 133.19 21.45 133.3 C29.91 134.23 38.25 135.78 46.61 137.36 C47.34 137.5 48.06 137.64 48.81 137.78 C49.52 137.91 50.22 138.05 50.95 138.18 C51.63 138.31 52.3 138.44 53 138.57 C54.83 138.92 56.66 139.27 58.49 139.63 C61.1 140.17 61.1 140.17 63.24 140.11 C58.65 115.64 50.4 91.37 39.24 69.11 C38.53 67.66 37.83 66.21 37.13 64.76 C36.42 63.29 35.7 61.83 34.99 60.36 C34.49 59.34 34.49 59.34 33.99 58.3 C32.41 55.13 31 52.39 28.24 50.11 Z M-71.95 97.43 C-73.02 98.16 -74.09 98.9 -75.2 99.65 C-75.78 100.05 -76.35 100.45 -76.95 100.86 C-78.79 102.14 -80.65 103.39 -82.51 104.64 C-89.9 109.62 -97.11 114.78 -104.2 120.18 C-104.94 120.74 -105.68 121.3 -106.44 121.87 C-107.12 122.4 -107.81 122.92 -108.51 123.46 C-109.11 123.93 -109.72 124.39 -110.34 124.87 C-111.9 126.08 -111.9 126.08 -112.76 128.11 C-81.08 128.11 -49.4 128.11 -16.76 128.11 C-17.09 127.45 -17.42 126.79 -17.76 126.11 C-18.42 126.11 -19.08 126.11 -19.76 126.11 C-19.76 125.45 -19.76 124.79 -19.76 124.11 C-21.39 122.63 -21.39 122.63 -23.52 121.14 C-24.31 120.57 -25.1 120 -25.92 119.41 C-26.75 118.82 -27.59 118.23 -28.45 117.61 C-29.27 117.02 -30.08 116.42 -30.92 115.81 C-34.79 113.04 -38.27 110.76 -42.76 109.11 C-42.76 108.45 -42.76 107.79 -42.76 107.11 C-44.2 105.94 -44.2 105.94 -46.09 104.84 C-46.79 104.4 -47.48 103.97 -48.21 103.53 C-48.95 103.08 -49.69 102.64 -50.45 102.18 C-51.17 101.73 -51.89 101.29 -52.63 100.83 C-54.04 99.97 -55.45 99.12 -56.86 98.27 C-58.45 97.3 -60.03 96.3 -61.59 95.3 C-66 92.89 -68.17 94.83 -71.95 97.43 Z M-89.01 133.14 C-93.43 133.16 -97.85 133.25 -102.27 133.37 C-103.94 133.41 -105.62 133.43 -107.29 133.43 C-120.42 133.46 -126.61 136.92 -135.76 146.11 C-137.66 147.7 -139.6 149.18 -141.57 150.68 C-143.96 152.45 -143.96 152.45 -145.76 154.11 C-145.76 154.77 -145.76 155.43 -145.76 156.11 C-146.75 156.44 -147.74 156.77 -148.76 157.11 C-148.76 157.77 -148.76 158.43 -148.76 159.11 C-149.35 159.38 -149.94 159.64 -150.55 159.92 C-152.83 161.15 -154.33 162.42 -156.15 164.25 C-156.79 164.88 -157.43 165.51 -158.09 166.17 C-158.77 166.85 -159.45 167.53 -160.15 168.24 C-160.86 168.94 -161.56 169.64 -162.29 170.37 C-163.77 171.85 -165.26 173.34 -166.74 174.83 C-169.01 177.11 -171.3 179.39 -173.58 181.66 C-175.02 183.1 -176.46 184.54 -177.9 185.99 C-178.93 187.01 -178.93 187.01 -179.99 188.06 C-180.61 188.69 -181.24 189.33 -181.89 189.98 C-182.44 190.54 -183 191.1 -183.57 191.67 C-184.97 193.06 -184.97 193.06 -184.76 195.11 C-186.25 195.61 -186.25 195.61 -187.76 196.11 C-190.06 198.66 -192.11 201.36 -194.21 204.07 C-196.76 207.11 -196.76 207.11 -199.5 209.41 C-205.3 214.42 -207.26 218.28 -207.86 225.8 C-207.92 226.81 -207.97 227.82 -208.03 228.85 C-208.1 229.93 -208.18 231.01 -208.25 232.13 C-209.07 245.79 -209.06 259.48 -209.02 273.16 C-209.01 276.17 -209.01 279.18 -209.02 282.2 C-209.05 292.17 -208.99 302.14 -208.76 312.11 C-208.74 313.33 -208.71 314.55 -208.68 315.8 C-208.59 319.11 -208.43 322.4 -208.25 325.7 C-208.22 326.64 -208.19 327.58 -208.16 328.54 C-207.68 335.24 -205.27 338.6 -200.56 343.32 C-198.76 345.11 -198.76 345.11 -197.76 347.11 C-197.1 347.11 -196.44 347.11 -195.76 347.11 C-195.55 347.64 -195.34 348.17 -195.12 348.72 C-193.23 352.06 -190.64 354.66 -188.01 357.43 C-186.92 358.59 -185.84 359.75 -184.75 360.91 C-183.97 361.74 -183.97 361.74 -183.18 362.58 C-181.47 364.43 -179.82 366.32 -178.2 368.24 C-175.61 371.31 -175.61 371.31 -172.76 374.11 C-172.1 374.11 -171.44 374.11 -170.76 374.11 C-170.43 375.1 -170.1 376.09 -169.76 377.11 C-169.1 377.11 -168.44 377.11 -167.76 377.11 C-167.43 378.1 -167.1 379.09 -166.76 380.11 C-166.1 380.11 -165.44 380.11 -164.76 380.11 C-164.76 380.77 -164.76 381.43 -164.76 382.11 C-163.12 383.48 -161.45 384.8 -159.76 386.11 C-157.3 388.51 -154.91 390.97 -152.52 393.43 C-151.71 394.26 -150.9 395.08 -150.07 395.93 C-149.31 396.72 -148.54 397.51 -147.75 398.32 C-145.96 400.34 -145.96 400.34 -143.76 400.11 C-143.76 400.77 -143.76 401.43 -143.76 402.11 C-142.28 403.7 -142.28 403.7 -140.39 405.24 C-139.45 406.05 -139.45 406.05 -138.49 406.87 C-136.85 408.31 -136.85 408.31 -134.76 408.11 C-134.76 408.77 -134.76 409.43 -134.76 410.11 C-129.38 416.44 -123.5 419.51 -115.3 420.21 C-114.35 420.26 -113.4 420.32 -112.42 420.38 C-110.88 420.49 -110.88 420.49 -109.3 420.6 C-95.94 421.44 -82.55 421.42 -69.16 421.37 C-65.44 421.36 -61.72 421.37 -58 421.38 C-44.47 421.42 -30.96 421.37 -17.45 420.29 C-16.53 420.22 -15.6 420.15 -14.65 420.08 C-7.02 419.36 -2.86 416.36 3.05 411.55 C4.03 410.77 5 409.98 6.01 409.17 C6.74 408.49 7.48 407.81 8.24 407.11 C8.24 406.45 8.24 405.79 8.24 405.11 C8.77 404.9 9.3 404.69 9.84 404.47 C13.18 402.58 15.79 399.99 18.55 397.36 C19.71 396.27 20.87 395.18 22.04 394.09 C22.59 393.57 23.14 393.06 23.71 392.52 C25.53 390.85 27.4 389.25 29.3 387.68 C32 385.32 34.06 382.93 36.24 380.11 C36.9 379.78 37.56 379.45 38.24 379.11 C38.24 378.45 38.24 377.79 38.24 377.11 C38.9 377.11 39.56 377.11 40.24 377.11 C41.7 375.66 41.7 375.66 43.24 373.74 C46.1 370.37 49.09 367.22 52.24 364.11 C56.45 359.94 60.41 355.64 64.24 351.11 C65.17 350.02 66.11 348.93 67.04 347.83 C68.05 346.66 69.05 345.48 70.05 344.3 C70.53 343.74 71.01 343.17 71.51 342.59 C76.2 337.09 76.2 337.09 77.86 330.26 C77.94 329.26 78.03 328.26 78.11 327.23 C78.19 326.14 78.27 325.05 78.35 323.93 C78.43 322.78 78.52 321.63 78.6 320.45 C79.47 307.38 79.54 294.32 79.5 281.24 C79.49 278.49 79.49 275.74 79.5 272.99 C79.55 258.85 79.42 244.73 78.57 230.61 C78.52 229.56 78.48 228.51 78.43 227.43 C77.74 217.99 73.73 212.66 66.8 206.53 C64.37 204.33 62.28 201.89 60.11 199.43 C59.41 198.66 58.71 197.89 57.98 197.1 C56.24 195.11 56.24 195.11 54.24 192.11 C53.58 192.11 52.92 192.11 52.24 192.11 C52.03 191.58 51.82 191.04 51.6 190.49 C49.71 187.19 47.11 184.7 44.43 182.04 C43.57 181.18 43.57 181.18 42.7 180.3 C41.5 179.1 40.29 177.9 39.09 176.7 C37.24 174.86 35.4 173.01 33.56 171.16 C32.39 169.99 31.22 168.83 30.05 167.66 C29.5 167.1 28.95 166.55 28.38 165.97 C25.79 163.04 25.79 163.04 22.24 162.11 C21.91 161.12 21.58 160.13 21.24 159.11 C20.58 159.11 19.92 159.11 19.24 159.11 C19.24 158.45 19.24 157.79 19.24 157.11 C17.75 155.53 17.75 155.53 15.86 153.99 C15.24 153.45 14.61 152.91 13.96 152.36 C12.32 150.92 12.32 150.92 10.24 151.11 C10.24 150.45 10.24 149.79 10.24 149.11 C8.58 147.61 6.86 146.19 5.11 144.8 C4.16 144.04 3.21 143.28 2.23 142.5 C1.24 141.71 0.26 140.92 -0.76 140.11 C-1.65 139.26 -2.54 138.4 -3.46 137.52 C-6.89 134.68 -10.2 134.3 -14.54 134.19 C-15.3 134.15 -16.05 134.11 -16.83 134.07 C-19.3 133.96 -21.78 133.88 -24.26 133.8 C-26.01 133.73 -27.77 133.66 -29.52 133.59 C-46.78 132.93 -64.02 132.77 -81.28 133.08 C-83.86 133.11 -86.43 133.13 -89.01 133.14 Z M5.24 137.11 C8.85 140.76 12.53 144.32 16.3 147.8 C16.82 148.29 17.33 148.77 17.87 149.27 C20.5 151.7 22.9 153.75 26.24 155.11 C26.24 155.77 26.24 156.43 26.24 157.11 C27.64 158.54 27.64 158.54 29.52 160.03 C34.67 164.41 39.42 169.15 44.19 173.93 C45.69 175.44 47.21 176.95 48.72 178.46 C49.68 179.42 50.65 180.39 51.61 181.35 C52.47 182.22 53.34 183.08 54.23 183.98 C56.24 186.11 56.24 186.11 57.24 188.11 C57.9 188.11 58.56 188.11 59.24 188.11 C59.49 188.67 59.73 189.23 59.99 189.8 C61.47 192.54 63.17 194.79 65.24 197.11 C65.9 197.11 66.56 197.11 67.24 197.11 C67.44 197.67 67.65 198.23 67.86 198.8 C69.79 202.04 72.28 203.8 75.24 206.11 C75.12 204.01 74.99 201.9 74.86 199.8 C74.76 198.04 74.76 198.04 74.65 196.25 C74.31 192.12 73.56 188.09 72.79 184.02 C72.24 181.13 71.73 178.23 71.24 175.32 C71.07 174.36 70.91 173.4 70.74 172.41 C70.4 170.45 70.07 168.5 69.74 166.54 C69.25 163.73 68.75 160.92 68.24 158.11 C68.08 157.25 67.93 156.39 67.77 155.5 C67.62 154.71 67.46 153.91 67.3 153.09 C67.1 152.04 67.1 152.04 66.9 150.98 C66.08 148.66 65.17 147.62 63.24 146.11 C61.33 145.41 61.33 145.41 59.2 145.09 C58.38 144.94 57.57 144.79 56.73 144.63 C55.84 144.48 54.96 144.33 54.05 144.18 C53.13 144.01 52.21 143.85 51.26 143.68 C48.26 143.14 45.25 142.63 42.24 142.11 C40.15 141.74 38.06 141.37 35.97 141 C25.75 139.22 15.62 137.52 5.24 137.11 Z M-146.16 137.88 C-147.19 138.05 -148.22 138.21 -149.28 138.38 C-150.37 138.56 -151.45 138.74 -152.57 138.93 C-154.25 139.2 -154.25 139.2 -155.97 139.48 C-169 141.62 -181.92 144.01 -194.76 147.11 C-198.64 161.74 -201.26 176.39 -203.45 191.36 C-203.65 192.7 -203.65 192.7 -203.85 194.07 C-204.42 198.11 -204.94 202.02 -204.76 206.11 C-203.05 204.83 -201.39 203.5 -199.76 202.11 C-199.76 201.45 -199.76 200.79 -199.76 200.11 C-199.1 200.11 -198.44 200.11 -197.76 200.11 C-196.18 198.63 -196.18 198.63 -194.64 196.74 C-194.1 196.11 -193.56 195.49 -193 194.84 C-191.57 193.2 -191.57 193.2 -191.76 191.11 C-191.1 191.11 -190.44 191.11 -189.76 191.11 C-188.46 189.83 -188.46 189.83 -187.07 188.05 C-181.68 181.72 -175.74 175.94 -169.86 170.08 C-167.83 168.06 -165.81 166.03 -163.79 164 C-157.62 157.83 -151.47 151.71 -144.76 146.11 C-143.09 144.66 -141.43 143.2 -139.76 141.74 C-138.62 140.74 -138.62 140.74 -137.45 139.71 C-136.89 139.19 -136.34 138.66 -135.76 138.11 C-135.76 137.78 -135.76 137.45 -135.76 137.11 C-139.32 137.03 -142.64 137.32 -146.16 137.88 Z M-209.04 150.14 C-210.27 150.46 -210.27 150.46 -211.54 150.79 C-212.39 151.02 -213.25 151.25 -214.14 151.49 C-214.99 151.71 -215.84 151.93 -216.71 152.16 C-220.86 153.26 -224.8 154.46 -228.76 156.11 C-230.74 156.73 -232.72 157.34 -234.7 157.93 C-245.72 161.29 -256.35 165.17 -266.76 170.11 C-267.98 170.68 -269.2 171.24 -270.43 171.81 C-277.6 175.13 -284.72 178.52 -291.76 182.11 C-290.82 192.2 -287.09 201.74 -283.09 210.98 C-281.66 214.35 -280.38 217.76 -279.07 221.18 C-275.42 230.54 -270.57 239.3 -265.76 248.11 C-265.18 249.19 -264.6 250.27 -264 251.38 C-262.59 253.96 -261.18 256.54 -259.76 259.11 C-258.64 261.18 -257.51 263.24 -256.39 265.3 C-255.88 266.22 -255.38 267.14 -254.86 268.09 C-254.5 268.76 -254.14 269.43 -253.76 270.11 C-249.99 268.64 -248.67 266.81 -246.64 263.36 C-243.34 257.93 -239.74 252.81 -235.96 247.71 C-233.55 244.72 -233.55 244.72 -232.76 241.11 C-232.1 241.11 -231.44 241.11 -230.76 241.11 C-229.8 239.73 -228.85 238.33 -227.94 236.9 C-225.41 233.06 -222.38 229.55 -219.48 225.97 C-216.71 222.92 -216.71 222.92 -215.76 219.11 C-215.1 219.11 -214.44 219.11 -213.76 219.11 C-211.75 214.84 -211.25 210.69 -210.82 206.05 C-209.21 190.24 -206.6 174.72 -203.39 159.16 C-203.07 157.63 -203.07 157.63 -202.75 156.07 C-202.56 155.16 -202.37 154.26 -202.17 153.32 C-201.7 151.16 -201.7 151.16 -201.76 149.11 C-204.5 149.11 -206.41 149.45 -209.04 150.14 Z M72.24 149.11 C72.36 149.84 72.48 150.57 72.61 151.32 C77.24 179.11 77.24 179.11 77.73 182.1 C78.07 184.14 78.42 186.17 78.78 188.21 C79.96 195.05 80.79 201.84 81.27 208.77 C81.75 213.95 82.96 216.93 86.24 221.11 C86.72 221.73 87.19 222.35 87.68 222.99 C89.35 225.15 91.04 227.29 92.74 229.43 C102.99 242.5 112.41 256.05 121.24 270.11 C125.38 268.73 126.47 265.9 128.55 262.3 C128.95 261.62 129.35 260.95 129.75 260.25 C133.19 254.34 136.26 248.27 139.24 242.11 C139.6 241.41 139.96 240.71 140.33 239.98 C143.78 233.22 146.8 226.31 149.74 219.3 C150.2 218.21 150.66 217.13 151.13 216.01 C158.89 199.61 158.89 199.61 162.24 182.11 C156.12 179.19 150 176.27 143.88 173.37 C142.02 172.48 140.16 171.6 138.31 170.71 C121.02 162.48 102.47 156.22 83.99 151.3 C83.17 151.08 82.34 150.86 81.49 150.64 C80.72 150.44 79.95 150.24 79.16 150.03 C78.13 149.76 78.13 149.76 77.08 149.49 C75.06 149.01 75.06 149.01 72.24 149.11 Z M-305.76 190.49 C-308.69 192.65 -311.45 194.59 -314.76 196.11 C-314.76 196.77 -314.76 197.43 -314.76 198.11 C-315.49 198.37 -316.21 198.63 -316.96 198.89 C-319.88 200.17 -322.07 201.65 -324.57 203.61 C-325.36 204.22 -326.15 204.83 -326.97 205.46 C-327.56 206 -328.15 206.55 -328.76 207.11 C-328.76 207.77 -328.76 208.43 -328.76 209.11 C-329.33 209.35 -329.89 209.6 -330.47 209.84 C-347.16 219.1 -358.74 241.94 -364.09 259.45 C-365.08 263.36 -365.61 267.09 -365.76 271.11 C-365.8 272.04 -365.84 272.96 -365.88 273.91 C-366.19 287.68 -363.24 300.88 -356.76 313.11 C-356.18 312.97 -355.61 312.82 -355.01 312.68 C-354.27 312.49 -353.53 312.3 -352.76 312.11 C-351.89 311.86 -351.89 311.86 -351.01 311.6 C-344.28 310.14 -336.97 310 -330.76 313.18 C-325.24 316.79 -322.11 321.06 -320.39 327.43 C-319.01 335.11 -320.17 341.26 -323.76 348.11 C-323.84 350.1 -323.84 350.1 -322.76 352.11 C-320.8 353.74 -318.94 355.11 -316.82 356.49 C-316.24 356.88 -315.66 357.27 -315.06 357.67 C-313.3 358.83 -311.54 359.98 -309.76 361.11 C-308.78 361.75 -307.79 362.38 -306.78 363.03 C-302.12 366.17 -302.12 366.17 -296.76 367.11 C-296.52 366.21 -296.28 365.3 -296.03 364.37 C-294.33 358.19 -292.58 352.24 -289.82 346.44 C-288.54 343.62 -287.47 340.76 -286.39 337.86 C-278.4 316.9 -267.6 296.17 -255.76 277.11 C-256.59 275.66 -257.42 274.2 -258.25 272.75 C-258.98 271.47 -259.7 270.2 -260.43 268.92 C-262.1 265.99 -263.79 263.07 -265.54 260.18 C-270.99 251.16 -275.38 241.69 -279.76 232.11 C-280.13 231.31 -280.5 230.52 -280.88 229.69 C-284.64 221.51 -288.2 213.41 -290.89 204.8 C-292.05 201.24 -293.47 197.81 -294.93 194.37 C-295.82 191.97 -296.32 189.63 -296.76 187.11 C-301.32 187.11 -302.22 187.84 -305.76 190.49 Z M167.24 187.11 C167.05 187.72 166.87 188.32 166.68 188.94 C165.81 191.75 164.93 194.56 164.05 197.36 C163.76 198.31 163.47 199.26 163.17 200.24 C160.92 207.39 158.23 214.25 155.24 221.11 C154.82 222.08 154.4 223.04 153.97 224.03 C148.75 235.91 143.26 247.41 136.43 258.46 C134.46 261.65 132.79 264.93 131.18 268.32 C130.24 270.11 130.24 270.11 127.86 273.3 C127.33 274.23 126.79 275.16 126.24 276.11 C127.3 279.54 128.96 282.52 130.78 285.6 C131.52 286.86 131.52 286.86 132.27 288.16 C132.8 289.05 133.32 289.94 133.86 290.86 C138.84 299.46 143.24 308.15 147.34 317.19 C148.76 320.23 150.32 323.2 151.86 326.18 C158.43 339.23 162.71 353.25 167.24 367.11 C173.56 366.23 178.05 362.61 183.24 359.11 C184.69 358.15 184.69 358.15 186.18 357.16 C189.79 354.75 189.79 354.75 193.24 352.11 C193.24 351.45 193.24 350.79 193.24 350.11 C194.05 349.78 194.05 349.78 194.88 349.43 C197.99 347.7 200.46 345.4 203.05 342.99 C203.58 342.5 204.11 342.01 204.65 341.51 C208.76 337.65 212.96 333.72 216.24 329.11 C216.24 328.45 216.24 327.79 216.24 327.11 C216.9 327.11 217.56 327.11 218.24 327.11 C219.78 325.04 221.18 322.98 222.55 320.8 C222.95 320.16 223.36 319.53 223.77 318.87 C234.92 300.92 238.69 281.2 234.71 260.35 C232.96 253.07 229.78 246.68 226.24 240.11 C224.78 240.59 223.32 241.07 221.86 241.55 C221.05 241.82 220.24 242.08 219.4 242.36 C217.23 243.07 217.23 243.07 215.24 244.11 C208.13 244.87 203.17 243.07 197.24 239.11 C192.46 234.8 189.61 230.37 188.87 223.88 C188.72 215.94 189.46 210.56 194.24 204.11 C182.04 192.76 182.04 192.76 167.24 187.11 Z M-214.76 228.11 C-216.33 230.05 -217.84 232 -219.32 233.99 C-219.75 234.54 -220.17 235.1 -220.61 235.67 C-223.01 238.57 -223.01 238.57 -223.76 242.11 C-224.42 242.11 -225.08 242.11 -225.76 242.11 C-226.09 243.43 -226.42 244.75 -226.76 246.11 C-227.42 246.11 -228.08 246.11 -228.76 246.11 C-230.34 248.25 -230.34 248.25 -231.95 250.99 C-234.31 254.82 -236.73 258.57 -239.32 262.24 C-239.89 263.05 -240.46 263.86 -241.04 264.7 C-242.21 266.33 -243.4 267.96 -244.61 269.56 C-245.46 270.73 -245.46 270.73 -246.32 271.93 C-246.84 272.61 -247.36 273.3 -247.89 274.01 C-249.02 276.14 -249.02 276.14 -248.11 278.55 C-244.08 286.2 -239.06 293.22 -233.93 300.16 C-231.92 302.89 -229.95 305.65 -227.99 308.42 C-221.66 317.48 -221.66 317.48 -214.76 326.11 C-214.43 326.11 -214.1 326.11 -213.76 326.11 C-213.73 324.09 -213.71 322.07 -213.7 320.05 C-213.69 318.93 -213.68 317.8 -213.66 316.64 C-213.69 312.86 -213.97 309.11 -214.26 305.34 C-214.84 296.93 -214.91 288.56 -214.89 280.14 C-214.89 277.62 -214.89 275.09 -214.9 272.56 C-214.9 263.77 -214.65 255.07 -213.98 246.3 C-213.71 242.41 -213.66 238.58 -213.7 234.68 C-213.71 233.42 -213.72 232.16 -213.73 230.87 C-213.74 229.96 -213.75 229.05 -213.76 228.11 C-214.09 228.11 -214.42 228.11 -214.76 228.11 Z M84.24 228.11 C84.14 236.95 84.14 245.73 84.74 254.55 C85.77 270.61 85.67 286.8 84.6 302.85 C84.09 310.6 84.15 318.35 84.24 326.11 C86.81 323.57 89.23 321.13 91.24 318.11 C91.24 317.45 91.24 316.79 91.24 316.11 C91.9 316.11 92.56 316.11 93.24 316.11 C94.72 314.07 94.72 314.07 96.24 311.43 C98.98 306.98 101.93 302.83 105.18 298.74 C108.63 294.32 111.9 289.84 114.93 285.11 C115.59 284.08 116.25 283.05 116.94 281.99 C118.44 278.67 118.49 277.49 117.24 274.11 C115.89 271.73 115.89 271.73 114.24 269.49 C112.43 266.94 111.24 265.11 110.24 262.11 C109.58 262.11 108.92 262.11 108.24 262.11 C108.03 261.47 107.83 260.82 107.62 260.15 C105.66 255.85 102.91 252.28 100.11 248.49 C99.53 247.69 98.95 246.9 98.35 246.08 C97.19 244.49 96.02 242.91 94.86 241.32 C93.44 239.38 92.03 237.44 90.64 235.49 C89.93 234.5 89.22 233.51 88.49 232.49 C87.87 231.63 87.26 230.77 86.63 229.89 C86.17 229.3 85.71 228.72 85.24 228.11 C84.91 228.11 84.58 228.11 84.24 228.11 Z M-253.76 284.11 C-266.61 307.6 -278.75 330.87 -287.76 356.11 C-288.39 357.86 -288.39 357.86 -289.02 359.64 C-291.16 365.73 -291.16 365.73 -291.76 372.11 C-290.72 372.63 -289.68 373.15 -288.61 373.69 C-287.94 374.02 -287.27 374.36 -286.58 374.7 C-285.11 375.44 -283.63 376.18 -282.16 376.91 C-279.07 378.45 -275.99 379.99 -272.93 381.58 C-261.72 387.38 -249.73 391.2 -237.76 395.11 C-236.36 395.58 -234.95 396.06 -233.55 396.53 C-228.03 398.37 -222.5 400.13 -216.95 401.86 C-215.93 402.19 -214.9 402.52 -213.85 402.86 C-212.87 403.16 -211.88 403.47 -210.87 403.79 C-209.54 404.2 -209.54 404.2 -208.18 404.63 C-205.64 405.14 -204.19 404.96 -201.76 404.11 C-201.9 403.44 -202.04 402.78 -202.19 402.09 C-204.75 389.84 -207.19 377.7 -208.4 365.25 C-208.66 362.09 -208.66 362.09 -209.76 359.11 C-209.94 357.69 -210.08 356.27 -210.19 354.84 C-210.26 354.01 -210.34 353.19 -210.41 352.34 C-210.56 350.61 -210.7 348.89 -210.84 347.16 C-211.56 339.27 -214.72 335.01 -219.64 328.93 C-229.3 316.78 -238.23 304.13 -246.74 291.15 C-249.11 287.53 -249.11 287.53 -251.76 284.11 C-252.42 284.11 -253.08 284.11 -253.76 284.11 Z M122.24 284.11 C118.27 288.02 118.27 288.02 117.24 293.11 C116.58 293.11 115.92 293.11 115.24 293.11 C113.69 295.22 113.69 295.22 112.11 297.93 C108.91 303.13 105.43 308.03 101.74 312.9 C100.05 314.94 100.05 314.94 100.24 317.11 C99.58 317.11 98.92 317.11 98.24 317.11 C96.94 318.71 95.73 320.37 94.55 322.05 C91.46 326.45 88.23 330.61 84.68 334.65 C80.82 341.23 80.71 349.75 79.86 357.18 C78.83 365.84 77.62 374.45 76.18 383.05 C76.01 384.03 75.85 385 75.68 386.01 C74.81 391.16 73.81 396.25 72.61 401.34 C72.17 403.14 72.17 403.14 72.24 405.11 C79.86 403.72 87.28 401.83 94.74 399.74 C95.8 399.45 96.87 399.16 97.96 398.86 C104.59 397 110.89 394.76 117.24 392.11 C119.2 391.34 121.16 390.58 123.12 389.82 C135.14 385.11 146.83 380.15 158.24 374.11 C159.57 373.44 160.9 372.77 162.24 372.11 C160.56 360.85 156.31 350.28 151.99 339.8 C151.26 338.03 151.26 338.03 150.52 336.22 C147.09 327.97 143.44 319.91 139.25 312.01 C138.13 309.91 137.04 307.8 135.96 305.69 C130.29 294.47 130.29 294.47 123.24 284.11 C122.91 284.11 122.58 284.11 122.24 284.11 Z M-204.76 348.11 C-204.07 364.07 -201.37 379.53 -198.26 395.18 C-197.96 396.76 -197.96 396.76 -197.65 398.37 C-197.45 399.35 -197.25 400.33 -197.04 401.34 C-196.87 402.21 -196.69 403.08 -196.51 403.98 C-195.87 406.47 -195.87 406.47 -192.76 408.11 C-190.4 408.68 -188.02 409.17 -185.64 409.61 C-184.38 409.85 -183.12 410.09 -181.82 410.33 C-181.15 410.46 -180.49 410.58 -179.8 410.71 C-177.76 411.11 -175.75 411.59 -173.73 412.07 C-167.68 413.44 -161.53 414.18 -155.38 414.97 C-153.3 415.24 -151.23 415.51 -149.16 415.79 C-142.98 416.72 -142.98 416.72 -136.76 417.11 C-138.34 412.71 -141.83 410.29 -145.32 407.43 C-150.54 403.08 -155.43 398.6 -160.09 393.66 C-161.63 391.89 -161.63 391.89 -163.76 392.11 C-164.09 391.12 -164.42 390.13 -164.76 389.11 C-165.42 389.11 -166.08 389.11 -166.76 389.11 C-166.76 388.45 -166.76 387.79 -166.76 387.11 C-168.1 385.45 -168.1 385.45 -169.76 384.11 C-170.42 384.11 -171.08 384.11 -171.76 384.11 C-172.09 383.12 -172.42 382.13 -172.76 381.11 C-173.42 381.11 -174.08 381.11 -174.76 381.11 C-175.09 380.12 -175.42 379.13 -175.76 378.11 C-176.42 378.11 -177.08 378.11 -177.76 378.11 C-177.98 377.57 -178.19 377.03 -178.41 376.46 C-180.23 373.3 -182.72 370.99 -185.32 368.49 C-190.64 363.35 -190.64 363.35 -191.76 361.11 C-192.42 361.11 -193.08 361.11 -193.76 361.11 C-194.01 360.55 -194.25 359.99 -194.51 359.41 C-195.98 356.71 -197.77 354.65 -199.82 352.36 C-200.54 351.56 -201.25 350.76 -201.98 349.94 C-202.57 349.34 -203.16 348.73 -203.76 348.11 C-204.09 348.11 -204.42 348.11 -204.76 348.11 Z M74.24 348.11 C72.86 349.4 71.53 350.74 70.24 352.11 C70.24 352.77 70.24 353.43 70.24 354.11 C69.58 354.11 68.92 354.11 68.24 354.11 C66.43 355.83 66.43 355.83 64.61 357.99 C63.98 358.71 63.35 359.43 62.7 360.17 C61.04 361.97 61.04 361.97 61.24 364.11 C60.58 364.11 59.92 364.11 59.24 364.11 C57.77 365.56 57.77 365.56 56.24 367.49 C52.48 371.94 48.38 375.97 44.18 380.01 C42.01 381.88 42.01 381.88 42.24 384.11 C41.35 384.51 41.35 384.51 40.45 384.91 C38.15 386.16 36.67 387.46 34.86 389.34 C34.25 389.96 33.64 390.58 33.01 391.22 C32.38 391.86 31.76 392.51 31.11 393.18 C29.86 394.46 28.61 395.74 27.36 397.02 C26.53 397.88 26.53 397.88 25.69 398.75 C24.24 400.11 24.24 400.11 22.24 401.11 C22.24 401.77 22.24 402.43 22.24 403.11 C21.71 403.33 21.18 403.54 20.63 403.76 C17.33 405.63 14.73 408.16 11.99 410.74 C11.16 411.51 11.16 411.51 10.31 412.3 C8.95 413.57 7.59 414.84 6.24 416.11 C9.79 417.3 11.83 416.94 15.53 416.44 C17.43 416.19 17.43 416.19 19.36 415.93 C20.71 415.74 22.07 415.55 23.43 415.36 C24.8 415.17 26.18 414.99 27.55 414.8 C36.84 413.51 46.07 412.1 55.24 410.11 C56.25 409.96 57.26 409.81 58.3 409.65 C61.06 409.11 62.87 408.61 65.24 407.11 C66.33 404.86 66.33 404.86 66.88 402.17 C67.23 400.68 67.23 400.68 67.59 399.17 C68.57 394.54 69.46 389.91 70.24 385.24 C70.4 384.26 70.57 383.28 70.74 382.27 C71.9 375.33 73.01 368.38 74.05 361.43 C74.19 360.55 74.32 359.67 74.46 358.76 C74.58 357.95 74.7 357.13 74.82 356.29 C74.93 355.58 75.03 354.86 75.14 354.13 C75.25 351.93 74.87 350.21 74.24 348.11 Z M-294.76 378.11 C-295.97 383.94 -297.14 389.76 -298.27 395.6 C-298.67 397.62 -299.07 399.63 -299.47 401.64 C-304.1 428.17 -301.27 457 -286.76 480.11 C-286.1 480.11 -285.44 480.11 -284.76 480.11 C-284.53 480.83 -284.3 481.55 -284.06 482.29 C-282.51 485.66 -280.58 487.69 -277.95 490.3 C-276.67 491.59 -276.67 491.59 -275.37 492.91 C-272.86 495.03 -270.87 496.11 -267.76 497.11 C-267.76 497.77 -267.76 498.43 -267.76 499.11 C-265.25 500.44 -262.73 501.75 -260.2 503.05 C-259.49 503.42 -258.79 503.8 -258.06 504.18 C-253.56 506.49 -249.82 507.69 -244.76 508.11 C-244.5 507.58 -244.23 507.05 -243.96 506.5 C-242.89 504.37 -241.83 502.24 -240.76 500.11 C-240.42 499.39 -240.08 498.66 -239.73 497.91 C-238.43 495.5 -237.3 495.14 -234.76 494.11 C-233.77 493.58 -232.78 493.04 -231.76 492.49 C-225.74 489.95 -217.98 489.93 -211.89 492.3 C-203.11 497.39 -200.34 503.08 -196.76 512.11 C-186.25 511.03 -176.06 509.56 -165.76 507.11 C-166.38 502.43 -168.36 498.62 -170.51 494.49 C-171.24 493.05 -171.98 491.61 -172.71 490.17 C-173.06 489.47 -173.42 488.77 -173.78 488.05 C-183.35 469.1 -189.59 448.62 -195.33 428.25 C-195.58 427.42 -195.83 426.59 -196.08 425.73 C-196.76 423.11 -196.76 423.11 -197.17 420.17 C-197.68 417.09 -198.2 414.82 -199.76 412.11 C-203.73 409.78 -207.84 408.99 -212.32 408.11 C-214.62 407.59 -216.91 407.07 -219.2 406.55 C-220.87 406.2 -220.87 406.2 -222.57 405.83 C-228.74 404.44 -234.81 402.66 -240.64 400.18 C-244.34 398.64 -248.07 397.34 -251.89 396.11 C-256.08 394.74 -259.91 393.16 -263.8 391.1 C-265.91 390.04 -268.05 389.2 -270.26 388.36 C-275.81 386.22 -281.05 383.51 -286.32 380.75 C-290.33 378.66 -290.33 378.66 -294.76 378.11 Z M158.18 379.91 C157.38 380.29 156.59 380.67 155.78 381.06 C154.94 381.47 154.1 381.88 153.24 382.3 C151.5 383.14 149.76 383.97 148.02 384.8 C146.77 385.41 146.77 385.41 145.5 386.02 C131.87 392.6 117.89 398.04 103.49 402.68 C102.58 402.98 101.67 403.28 100.73 403.59 C95.89 405.15 91.19 406.35 86.16 407.11 C77.79 408.46 77.79 408.46 70.24 412.11 C66.42 417.51 65.89 424.4 64.88 430.78 C63.7 436.93 61.64 442.8 59.68 448.74 C59.31 449.89 58.95 451.03 58.57 452.22 C56.16 459.7 53.35 466.9 50.24 474.11 C49.48 475.93 48.72 477.75 47.96 479.56 C47.22 481.31 46.48 483.05 45.74 484.8 C45.37 485.67 45.01 486.54 44.63 487.44 C42.45 492.58 40.04 497.42 37.17 502.21 C36.02 504.21 36.02 504.21 36.24 507.11 C68.52 515.7 104.65 517.76 134.74 501.24 C135.91 500.54 137.08 499.84 138.24 499.11 C138.24 498.45 138.24 497.79 138.24 497.11 C138.96 496.88 139.67 496.65 140.41 496.41 C143.79 494.86 145.81 492.94 148.43 490.3 C149.29 489.45 150.15 488.6 151.03 487.72 C153.16 485.21 154.24 483.22 155.24 480.11 C155.9 480.11 156.56 480.11 157.24 480.11 C158.78 477.06 160.29 474 161.8 470.93 C162.24 470.06 162.68 469.2 163.13 468.31 C163.54 467.47 163.95 466.62 164.37 465.76 C164.75 464.99 165.13 464.22 165.53 463.43 C166.41 460.56 166.24 458.93 165.24 456.11 C163.54 455.33 161.84 454.56 160.08 453.92 C157.13 452.63 155.34 450.5 153.24 448.11 C152.68 447.52 152.12 446.92 151.55 446.3 C148.06 440.49 147.68 434.55 149.24 428.11 C151.54 421.22 154.73 415.89 161.3 412.56 C164.25 411.33 167.21 410.17 170.24 409.11 C169.16 398.6 167.69 388.41 165.24 378.11 C162.12 378.11 160.92 378.57 158.18 379.91 Z M-192.76 414.11 C-189.65 438.48 -179.97 464.31 -168.76 486.11 C-168.04 487.57 -167.31 489.02 -166.59 490.48 C-164.67 494.37 -162.72 498.24 -160.76 502.11 C-160.43 502.77 -160.1 503.43 -159.76 504.11 C-137.58 501.23 -115.38 489.35 -95.76 479.11 C-95.1 478.77 -94.45 478.43 -93.77 478.09 C-86.16 474.16 -78.74 470.11 -71.76 465.11 C-74.84 461.81 -78.13 459.36 -81.89 456.86 C-82.94 456.16 -84 455.45 -85.08 454.72 C-87.53 452.94 -87.53 452.94 -89.76 453.11 C-89.76 452.45 -89.76 451.79 -89.76 451.11 C-91.42 449.94 -93.14 448.85 -94.89 447.8 C-98.22 445.75 -101.38 443.75 -104.32 441.18 C-106.48 438.9 -106.48 438.9 -108.76 439.11 C-108.76 438.45 -108.76 437.79 -108.76 437.11 C-110.09 436.2 -111.43 435.31 -112.8 434.46 C-115.22 432.8 -117.35 430.9 -119.57 428.99 C-124.36 425.17 -127.74 423.73 -133.76 423.11 C-135.07 422.97 -136.38 422.82 -137.73 422.67 C-140.03 422.42 -142.32 422.17 -144.62 421.93 C-152.75 421.06 -160.74 419.64 -168.76 418.11 C-169.48 417.98 -170.19 417.84 -170.93 417.7 C-172 417.5 -172 417.5 -173.1 417.29 C-173.81 417.15 -174.52 417.02 -175.25 416.88 C-177.19 416.51 -179.14 416.14 -181.08 415.76 C-184.97 415.08 -188.84 414.57 -192.76 414.11 Z M56.06 415.1 C54.99 415.31 53.93 415.52 52.83 415.74 C51.12 416.08 51.12 416.08 49.36 416.43 C34.22 419.38 19.06 421.89 3.7 423.38 C-0.1 423.78 -3.29 424.5 -6.76 426.11 C-6.76 426.77 -6.76 427.43 -6.76 428.11 C-7.31 428.37 -7.87 428.63 -8.43 428.89 C-11.1 430.29 -13.53 431.9 -16.01 433.61 C-16.9 434.22 -17.8 434.83 -18.71 435.46 C-19.39 436 -20.07 436.55 -20.76 437.11 C-20.76 437.77 -20.76 438.43 -20.76 439.11 C-21.3 439.36 -21.84 439.61 -22.4 439.86 C-25.3 441.4 -27.89 443.22 -30.57 445.11 C-36.2 449.06 -41.9 452.89 -47.65 456.66 C-51.16 458.98 -54.61 461.31 -57.76 464.11 C-57.76 464.77 -57.76 465.43 -57.76 466.11 C-45.22 473.04 -32.66 479.88 -19.76 486.11 C-19.13 486.42 -18.5 486.73 -17.85 487.05 C-10.05 490.85 -2.21 494.17 6.01 496.99 C8.96 498.02 11.85 499.12 14.74 500.3 C20.03 502.44 24.47 504.23 30.24 504.11 C36.72 491.61 42.72 479.14 47.57 465.92 C48.41 463.64 49.35 461.41 50.3 459.18 C53.45 451.34 55.77 443.18 58.24 435.11 C58.49 434.3 58.74 433.49 59 432.65 C59.71 430.33 60.41 428 61.11 425.68 C61.33 424.97 61.54 424.27 61.77 423.54 C62.75 420.21 63.24 417.63 63.24 414.11 C60.74 414.11 58.51 414.61 56.06 415.1 Z M-113.76 426.11 C-109.88 430.2 -105.72 433.58 -101.2 436.93 C-100.49 437.45 -99.78 437.98 -99.06 438.52 C-94.04 442.23 -88.94 445.77 -83.71 449.16 C-81.54 450.6 -79.44 452.06 -77.34 453.6 C-76.77 454.02 -76.19 454.44 -75.6 454.87 C-73.98 456.04 -72.37 457.23 -70.77 458.43 C-67.44 460.3 -65.52 460.47 -61.76 460.11 C-61.76 459.45 -61.76 458.79 -61.76 458.11 C-61.05 457.85 -60.33 457.59 -59.59 457.32 C-54.62 455.2 -50.27 452.06 -45.76 449.11 C-44.87 448.54 -43.97 447.98 -43.05 447.39 C-42.23 446.87 -41.41 446.34 -40.57 445.8 C-39.47 445.1 -39.47 445.1 -38.34 444.38 C-37.82 443.96 -37.3 443.54 -36.76 443.11 C-36.76 442.45 -36.76 441.79 -36.76 441.11 C-36.06 440.87 -35.36 440.62 -34.64 440.36 C-31.37 438.94 -28.62 437.24 -25.76 435.11 C-25.76 434.45 -25.76 433.79 -25.76 433.11 C-25.23 432.87 -24.69 432.62 -24.14 432.36 C-21.19 430.81 -18.48 429.03 -15.76 427.11 C-15.76 426.78 -15.76 426.45 -15.76 426.11 C-18.49 426.09 -21.22 426.07 -23.95 426.05 C-25.07 426.04 -25.07 426.04 -26.22 426.03 C-30.76 426.01 -35.23 426.21 -39.75 426.61 C-47.29 427.23 -54.8 427.26 -62.35 427.24 C-64.69 427.24 -67.03 427.24 -69.37 427.25 C-77.52 427.25 -85.56 426.99 -93.69 426.34 C-97.84 426.03 -101.97 426 -106.14 426.05 C-107.26 426.06 -107.26 426.06 -108.4 426.06 C-110.19 426.08 -111.98 426.09 -113.76 426.11 Z M-73.89 472.99 C-75.34 473.82 -76.79 474.66 -78.24 475.49 C-80.45 476.77 -82.66 478.05 -84.87 479.34 C-106.79 492.12 -130.4 502.02 -154.76 509.11 C-154.26 513.49 -153.38 516.21 -150.76 519.74 C-150.13 520.6 -149.49 521.46 -148.84 522.35 C-148.15 523.26 -147.47 524.17 -146.76 525.11 C-146.08 526.07 -145.39 527.02 -144.68 528 C-128.66 550.03 -106.69 572.17 -78.76 577.11 C-61.25 579.29 -44.53 577.42 -28.76 569.11 C-29.39 566.51 -30.1 563.99 -30.89 561.43 C-32.62 554.35 -31.36 548.15 -27.86 541.83 C-25.01 537.37 -21.69 534.99 -16.76 533.11 C-7.83 531.42 -0.04 532.38 8.24 536.11 C12.71 531.88 16.26 527.39 19.19 521.98 C20.75 519.2 22.52 516.56 24.29 513.91 C25.47 512.01 25.47 512.01 25.24 509.11 C24.2 508.82 23.17 508.53 22.1 508.22 C-0.15 501.67 -21.54 492.44 -41.76 481.11 C-43.44 480.19 -45.13 479.26 -46.81 478.34 C-49.95 476.62 -53.08 474.89 -56.2 473.14 C-57.13 472.63 -57.13 472.63 -58.07 472.1 C-59.67 471.17 -61.22 470.14 -62.76 469.11 C-67.45 469.11 -69.99 470.68 -73.89 472.99 Z " fill="#000000" transform="translate(704.76171875,169.88671875)"/>
<path d="M0 0 C1.85 1.85 1.15 4.87 1.16 7.35 C1.16 8.02 1.17 8.69 1.17 9.38 C1.19 11.64 1.2 13.9 1.21 16.17 C1.21 17.78 1.22 19.4 1.24 21.02 C1.26 25.42 1.28 29.82 1.3 34.22 C1.33 38.81 1.35 43.41 1.38 48 C1.43 56.7 1.47 65.41 1.52 74.11 C1.58 85.87 1.64 97.63 1.71 109.39 C1.81 127.93 1.91 146.46 2 165 C30.38 164.67 58.76 164.34 88 164 C90.65 158.7 89.38 155.49 88 150 C86.89 150.01 86.89 150.01 85.75 150.02 C78.72 150.09 71.69 150.1 64.66 150.08 C61.04 150.06 57.43 150.06 53.82 150.11 C50.32 150.15 46.83 150.14 43.33 150.11 C41.37 150.1 39.4 150.13 37.43 150.17 C29.07 150.04 24.85 148.31 18.98 142.3 C12.36 134.63 10.82 129.22 10.88 119.25 C10.87 118.47 10.87 117.69 10.86 116.89 C10.87 111.13 10.87 111.13 12 110 C14.76 109.84 17.49 109.74 20.25 109.68 C21.14 109.66 22.03 109.64 22.94 109.62 C25.96 109.55 28.98 109.49 32 109.44 C33.04 109.42 34.08 109.4 35.15 109.37 C56.1 108.97 77.05 108.89 98 108.88 C100.51 108.87 103.01 108.87 105.52 108.87 C109.48 108.86 113.45 108.86 117.42 108.87 C118.91 108.87 120.39 108.87 121.87 108.86 C123.9 108.86 125.93 108.87 127.96 108.87 C129.11 108.87 130.26 108.87 131.44 108.87 C134 109 134 109 135 110 C135.1 111.59 135.12 113.19 135.12 114.79 C135.12 115.82 135.12 116.86 135.12 117.92 C135.12 119.07 135.12 120.22 135.11 121.4 C135.11 123.23 135.11 123.23 135.11 125.1 C135.11 128.41 135.11 131.72 135.1 135.03 C135.1 138.13 135.1 141.23 135.09 144.33 C135.09 153.41 135.08 162.48 135.06 171.56 C135.04 191.84 135.02 212.11 135 233 C70.98 233 6.96 233 -59 233 C-59 254.78 -59 276.56 -59 299 C-60.79 300.79 -63.19 300.13 -65.57 300.14 C-66.37 300.13 -67.17 300.13 -67.99 300.13 C-69.25 300.13 -69.25 300.13 -70.53 300.13 C-73.31 300.14 -76.09 300.14 -78.88 300.13 C-80.8 300.13 -82.72 300.13 -84.65 300.14 C-88.69 300.14 -92.73 300.14 -96.76 300.13 C-101.95 300.12 -107.14 300.13 -112.33 300.13 C-116.31 300.14 -120.28 300.14 -124.26 300.13 C-126.17 300.13 -128.08 300.13 -130 300.14 C-132.67 300.14 -135.34 300.13 -138.01 300.13 C-138.81 300.13 -139.61 300.13 -140.43 300.14 C-145.89 300.11 -145.89 300.11 -147 299 C-148.29 285.7 -148 272.35 -148 259 C-132.82 259 -117.64 259 -102 259 C-102 253.06 -102 247.12 -102 241 C-103.35 241.01 -104.71 241.02 -106.1 241.03 C-111.1 241.07 -116.11 241.09 -121.12 241.11 C-123.29 241.12 -125.45 241.13 -127.62 241.15 C-130.74 241.18 -133.85 241.19 -136.96 241.2 C-137.93 241.21 -138.91 241.22 -139.91 241.23 C-140.81 241.23 -141.71 241.23 -142.64 241.23 C-143.83 241.23 -143.83 241.23 -145.05 241.24 C-147 241 -147 241 -149 239 C-149.28 236.46 -149.28 236.46 -149.32 233.19 C-149.34 231.96 -149.36 230.73 -149.38 229.46 C-149.39 228.09 -149.4 226.72 -149.41 225.35 C-149.43 223.92 -149.45 222.49 -149.47 221.06 C-149.53 217.2 -149.56 213.33 -149.6 209.47 C-149.63 206.27 -149.67 203.06 -149.71 199.86 C-149.97 177.95 -150.1 156.04 -150.12 134.12 C-150.13 132.84 -150.13 131.56 -150.13 130.24 C-150.14 126.66 -150.14 123.09 -150.13 119.51 C-150.14 117.92 -150.14 117.92 -150.14 116.3 C-150.14 115.34 -150.13 114.39 -150.13 113.4 C-150.13 112.57 -150.13 111.74 -150.13 110.88 C-150 109 -150 109 -149 108 C-146.12 107.89 -143.26 107.85 -140.38 107.85 C-139.48 107.85 -138.57 107.85 -137.64 107.84 C-134.64 107.84 -131.63 107.83 -128.63 107.83 C-126.55 107.83 -124.47 107.83 -122.39 107.82 C-118.03 107.82 -113.66 107.81 -109.3 107.81 C-103.7 107.81 -98.09 107.8 -92.49 107.78 C-88.19 107.77 -83.9 107.77 -79.6 107.77 C-77.54 107.77 -75.47 107.77 -73.4 107.76 C-70.52 107.75 -67.63 107.75 -64.75 107.76 C-63.89 107.75 -63.03 107.75 -62.14 107.74 C-56.23 107.77 -56.23 107.77 -54 110 C-53.73 112.25 -53.73 112.25 -53.7 115.08 C-53.68 116.13 -53.66 117.19 -53.65 118.28 C-53.64 119.43 -53.63 120.57 -53.62 121.75 C-53.6 122.93 -53.59 124.1 -53.57 125.3 C-53.52 129.06 -53.48 132.81 -53.44 136.56 C-53.39 140.32 -53.35 144.08 -53.29 147.83 C-53.26 150.17 -53.24 152.52 -53.21 154.86 C-53.2 155.91 -53.19 156.97 -53.17 158.05 C-53.16 158.99 -53.15 159.92 -53.14 160.88 C-53.23 162.98 -53.23 162.98 -52 164 C-47.02 164.38 -43.92 164.21 -40 161 C-39.24 158.04 -39.24 158.04 -39.36 154.57 C-39.35 153.58 -39.35 153.58 -39.34 152.58 C-39.31 150.38 -39.33 148.17 -39.34 145.97 C-39.33 144.4 -39.32 142.82 -39.31 141.24 C-39.28 136.96 -39.28 132.67 -39.29 128.39 C-39.29 123.91 -39.27 119.43 -39.25 114.96 C-39.21 106.48 -39.2 98 -39.19 89.52 C-39.19 79.87 -39.16 70.22 -39.12 60.57 C-39.05 40.71 -39.01 20.86 -39 1 C-34.75 0.83 -30.5 0.66 -26.25 0.5 C-25.06 0.45 -23.88 0.4 -22.65 0.36 C-5.67 -0.29 -5.67 -0.29 0 0 Z M-108.62 145.38 C-112.31 149.44 -112.21 151.8 -112.31 157.25 C-112.35 158.55 -112.39 159.86 -112.43 161.2 C-111.94 165.57 -110.79 167.66 -108 171 C-105.12 172.41 -105.12 172.41 -102 172 C-98.86 169.49 -97.28 167.83 -96 164 C-95.47 157.09 -95.33 151.02 -99 145 C-102.75 142.31 -105.13 142.21 -108.62 145.38 Z " fill="#000000" transform="translate(488,901)"/>
<path d="M0 0 C0.87 0.15 1.74 0.31 2.64 0.47 C9.13 1.68 15.01 4.29 21 7 C21.97 7.43 22.94 7.86 23.94 8.31 C34.89 13.45 46.77 21 55 30 C55 30.66 55 31.32 55 32 C55.66 32 56.32 32 57 32 C62 37.48 62 37.48 62 40 C62.66 40 63.32 40 64 40 C83.84 64.59 89.9 95.04 87.73 125.88 C84 156.28 67.81 182.36 44.21 201.45 C42 203 42 203 40 203 C40 203.66 40 204.32 40 205 C26.4 212.8 13.47 219.71 -2 223 C-2.69 223.17 -3.38 223.34 -4.09 223.51 C-11.46 225.21 -18.65 225.35 -26.19 225.31 C-27.47 225.31 -28.76 225.31 -30.08 225.3 C-39.1 225.2 -47.3 224.5 -56 222 C-57.28 221.69 -57.28 221.69 -58.58 221.38 C-73.87 217.4 -87.74 208.74 -99.81 198.8 C-101.97 196.98 -101.97 196.98 -104.29 195.39 C-104.85 194.93 -105.42 194.47 -106 194 C-106 193.34 -106 192.68 -106 192 C-106.66 192 -107.32 192 -108 192 C-123.92 176.98 -134.72 155.28 -139 134 C-139.31 132.53 -139.31 132.53 -139.62 131.04 C-144.99 101.68 -138 71.2 -121.14 46.76 C-111.12 32.76 -99.6 22.09 -85 13 C-84.39 12.62 -83.77 12.23 -83.14 11.84 C-57.99 -3.51 -28.33 -5.98 0 0 Z " fill="#000000" transform="translate(666,329)"/>
<path d="M0 0 C10.59 -0.05 21.18 -0.08 31.76 -0.1 C36.68 -0.11 41.6 -0.13 46.51 -0.15 C51.26 -0.17 56.01 -0.18 60.75 -0.19 C62.56 -0.19 64.37 -0.2 66.18 -0.21 C68.72 -0.23 71.25 -0.23 73.79 -0.23 C74.54 -0.23 75.28 -0.24 76.05 -0.25 C80.41 -0.23 83.94 0.39 88 2 C88.2 121.88 88.2 121.88 87.56 161.44 C87.53 163.41 87.53 163.41 87.5 165.42 C87.45 168.99 87.38 172.55 87.32 176.12 C87.3 177.13 87.28 178.15 87.27 179.19 C87.24 180.54 87.24 180.54 87.21 181.92 C87.18 183.07 87.18 183.07 87.16 184.26 C87 186 87 186 86 187 C83.14 187.1 80.3 187.13 77.44 187.11 C76.09 187.11 76.09 187.11 74.72 187.11 C71.74 187.11 68.76 187.11 65.78 187.1 C63.72 187.1 61.65 187.09 59.59 187.09 C54.16 187.09 48.72 187.08 43.28 187.07 C37.74 187.06 32.2 187.05 26.65 187.05 C15.77 187.04 4.88 187.02 -6 187 C-7.14 183.57 -7.21 180.77 -7.32 177.16 C-7.34 176.47 -7.36 175.79 -7.38 175.09 C-7.42 173.63 -7.46 172.17 -7.5 170.72 C-7.56 168.56 -7.63 166.41 -7.69 164.25 C-7.92 156.48 -8.03 148.72 -8.01 140.94 C-8.01 139.64 -8.01 139.64 -8.01 138.32 C-8.01 136.21 -8 134.11 -8 132 C-9.41 132 -9.41 132 -10.86 132.01 C-19.94 132.03 -29.02 132.04 -38.11 132.05 C-42.77 132.06 -47.43 132.06 -52.1 132.08 C-71.81 132.12 -91.49 132.05 -111.19 131.46 C-124.29 131.07 -137.38 130.85 -150.49 130.72 C-151.43 130.71 -152.37 130.7 -153.34 130.69 C-161.98 130.6 -170.62 130.52 -179.27 130.45 C-184.08 130.41 -188.89 130.36 -193.7 130.31 C-196.38 130.28 -199.07 130.26 -201.75 130.24 C-203.36 130.22 -204.98 130.21 -206.59 130.19 C-207.71 130.18 -207.71 130.18 -208.84 130.18 C-213.89 130.11 -213.89 130.11 -215 129 C-215.1 127.4 -215.13 125.79 -215.13 124.19 C-215.13 123.14 -215.13 122.1 -215.14 121.03 C-215.13 119.88 -215.13 118.72 -215.13 117.54 C-215.13 116.33 -215.13 115.12 -215.13 113.88 C-215.14 110.56 -215.14 107.24 -215.13 103.93 C-215.13 100.46 -215.13 96.99 -215.14 93.53 C-215.14 87.7 -215.14 81.88 -215.13 76.06 C-215.12 69.32 -215.13 62.58 -215.13 55.84 C-215.14 50.06 -215.14 44.29 -215.13 38.51 C-215.13 35.05 -215.13 31.6 -215.14 28.15 C-215.14 24.29 -215.13 20.44 -215.13 16.59 C-215.13 15.44 -215.13 14.29 -215.14 13.11 C-215.13 12.06 -215.13 11.02 -215.13 9.94 C-215.13 9.03 -215.13 8.12 -215.13 7.18 C-215 5 -215 5 -214 3 C-205.39 3.11 -196.79 3.22 -188.18 3.34 C-184.18 3.39 -180.18 3.45 -176.18 3.5 C-172.31 3.55 -168.44 3.6 -164.57 3.65 C-163.11 3.67 -161.64 3.69 -160.18 3.71 C-150.42 3.83 -140.73 4.25 -131 5 C-130.71 10.57 -130.43 16.14 -130.15 21.71 C-130.05 23.6 -129.95 25.49 -129.85 27.38 C-129.71 30.11 -129.58 32.84 -129.44 35.57 C-129.39 36.41 -129.35 37.24 -129.3 38.11 C-129.26 38.91 -129.22 39.71 -129.18 40.53 C-129.15 41.23 -129.11 41.92 -129.08 42.64 C-128.98 45.76 -129 48.88 -129 52 C-122.73 52 -116.46 52 -110 52 C-110.01 50.59 -110.01 49.17 -110.02 47.72 C-110.03 42.49 -110.05 37.26 -110.05 32.03 C-110.06 29.76 -110.07 27.5 -110.08 25.23 C-110.09 21.98 -110.09 18.73 -110.1 15.48 C-110.1 14.46 -110.11 13.44 -110.11 12.39 C-110.11 11.45 -110.11 10.51 -110.11 9.54 C-110.12 8.71 -110.12 7.88 -110.12 7.02 C-110 5 -110 5 -109 3 C-77.98 3 -46.96 3 -15 3 C-15 20.49 -15 37.98 -15 56 C-10.38 56 -5.76 56 -1 56 C-1.01 54.89 -1.02 53.78 -1.04 52.64 C-1.12 40.65 -0.86 28.69 -0.5 16.71 C-0.45 15.08 -0.4 13.45 -0.35 11.82 C-0.24 7.88 -0.12 3.94 0 0 Z M-64.69 36.25 C-69.01 41.4 -68.51 47.52 -68 54 C-67.15 57.51 -66.02 60.19 -63.12 62.5 C-60.24 63.18 -58.77 63.11 -56 62 C-52.26 57.45 -51.47 54.28 -51.56 48.44 C-51.56 47.16 -51.57 45.88 -51.57 44.56 C-52.02 40.84 -52.73 38.95 -55 36 C-59.07 33.29 -60.89 33.07 -64.69 36.25 Z M-178.31 37.38 C-180.96 41.49 -181.19 43.83 -181.25 48.75 C-181.28 49.96 -181.3 51.17 -181.33 52.42 C-180.97 56.34 -180.08 58.68 -178 62 C-175.26 64.26 -175.26 64.26 -172.56 63.88 C-169.23 62.74 -168.05 61.9 -166 59 C-163.58 52.2 -163.59 45.8 -166 39 C-167.55 36.28 -167.55 36.28 -170 35 C-174.11 34.23 -175.36 34.34 -178.31 37.38 Z M39.37 41.35 C37.65 43.42 37.62 44.46 37.61 47.12 C37.6 47.96 37.59 48.8 37.58 49.66 C37.59 50.58 37.59 51.5 37.6 52.44 C37.59 53.41 37.58 54.38 37.58 55.37 C37.56 58.58 37.56 61.79 37.57 64.99 C37.56 67.22 37.56 69.44 37.55 71.67 C37.54 76.34 37.54 81.01 37.55 85.68 C37.57 91.66 37.55 97.65 37.52 103.63 C37.5 108.23 37.5 112.83 37.5 117.42 C37.5 119.63 37.5 121.84 37.49 124.04 C37.47 127.13 37.48 130.21 37.5 133.3 C37.49 134.21 37.48 135.13 37.47 136.07 C37.52 140.26 37.67 142.46 39.91 146.11 C41.78 148.22 41.78 148.22 44 148 C44 148.66 44 149.32 44 150 C48.1 150.4 50.27 150.51 53.7 148.1 C56.92 143.77 56.72 140.43 56.68 135.16 C56.69 134.18 56.7 133.19 56.71 132.18 C56.75 128.92 56.74 125.67 56.73 122.41 C56.74 120.14 56.75 117.88 56.76 115.61 C56.78 110.87 56.78 106.12 56.76 101.37 C56.74 95.29 56.78 89.21 56.83 83.13 C56.87 78.45 56.87 73.78 56.86 69.1 C56.86 66.86 56.87 64.61 56.89 62.37 C56.92 59.23 56.9 56.1 56.87 52.97 C56.89 52.04 56.91 51.12 56.93 50.16 C56.85 46.5 56.78 44 54.49 41.05 C48.77 35.89 45.31 36.44 39.37 41.35 Z " fill="#000000" transform="translate(862,1007)"/>
<path d="M0 0 C13.72 13.72 4.64 38.6 5 58 C89.65 58.49 89.65 58.49 176 59 C176 40.52 176 22.04 176 3 C182.1 -3.1 187.45 -4.17 196 -4.44 C203.23 -4.27 208.63 -2.97 214.09 1.84 C217.03 6.71 216.53 11.35 216.47 16.93 C216.47 18.14 216.47 19.35 216.48 20.6 C216.48 23.9 216.46 27.21 216.44 30.51 C216.42 33.97 216.42 37.43 216.42 40.89 C216.41 46.69 216.39 52.5 216.36 58.3 C216.32 65.76 216.3 73.22 216.29 80.67 C216.28 87.08 216.26 93.49 216.24 99.89 C216.24 101.96 216.23 104.02 216.23 106.08 C216.22 109.92 216.2 113.75 216.18 117.58 C216.17 118.73 216.17 119.88 216.17 121.06 C216.16 122.1 216.15 123.14 216.15 124.21 C216.14 125.11 216.14 126.02 216.13 126.95 C216 129 216 129 215 130 C213.62 130.1 212.23 130.13 210.84 130.13 C209.93 130.13 209.03 130.13 208.1 130.13 C206.6 130.13 206.6 130.13 205.06 130.13 C204 130.13 202.95 130.13 201.86 130.13 C198.29 130.14 194.71 130.13 191.14 130.13 C188.59 130.13 186.05 130.13 183.5 130.13 C177.28 130.14 171.05 130.14 164.83 130.14 C159.78 130.13 154.72 130.13 149.67 130.13 C148.59 130.13 148.59 130.13 147.49 130.13 C146.03 130.13 144.57 130.13 143.12 130.14 C129.42 130.14 115.73 130.13 102.03 130.13 C90.27 130.12 78.51 130.13 66.75 130.13 C53.11 130.14 39.47 130.14 25.83 130.13 C24.37 130.13 22.92 130.13 21.47 130.13 C20.75 130.13 20.04 130.13 19.3 130.13 C14.25 130.13 9.2 130.13 4.15 130.14 C-2.65 130.14 -9.44 130.14 -16.23 130.13 C-18.73 130.13 -21.23 130.13 -23.73 130.13 C-27.13 130.14 -30.53 130.13 -33.93 130.13 C-34.93 130.13 -35.94 130.13 -36.97 130.13 C-37.87 130.13 -38.78 130.13 -39.71 130.13 C-40.5 130.13 -41.28 130.13 -42.09 130.13 C-44 130 -44 130 -46 129 C-46.12 112.51 -46.2 96.02 -46.26 79.53 C-46.28 71.87 -46.32 64.22 -46.38 56.56 C-46.43 49.89 -46.46 43.22 -46.47 36.54 C-46.48 33.01 -46.49 29.48 -46.53 25.94 C-46.57 22 -46.57 18.06 -46.57 14.11 C-46.59 12.94 -46.6 11.77 -46.62 10.56 C-46.57 2.63 -46.57 2.63 -43.58 -0.68 C-42.3 -1.33 -42.3 -1.33 -41 -2 C-40.38 -2.39 -39.76 -2.78 -39.12 -3.19 C-27.06 -7.8 -11.32 -5.77 0 0 Z " fill="#000000" transform="translate(46,1009)"/>
<path d="M0 0 C3.73 2.15 6.5 3.92 8.98 7.5 C11 10.13 11 10.13 14.41 10.53 C21.88 10.82 21.88 10.82 27.95 7.14 C28.67 6.05 29.39 4.96 30.14 3.83 C35.74 -0.72 41.15 -1.94 48.28 -1.57 C56.02 -0.47 60.57 3.57 65.5 9.46 C69.14 14.73 69.69 20.52 69.14 26.83 C67.5 35.05 63.21 40.83 56.51 45.77 C49.4 48.95 42.39 48.35 35.21 45.75 C31.21 43.98 28.73 41.87 26.57 38.08 C23.58 35.32 22.21 35.35 18.2 35.14 C13.21 35.33 13.21 35.33 9.39 38.52 C9.04 39.06 8.7 39.61 8.34 40.17 C5.6 43.96 0.96 46.25 -3.43 47.64 C-11.98 48.3 -18.01 47.25 -24.86 41.83 C-30.98 34.76 -33.41 29.67 -33.23 20.23 C-32.56 14.08 -30.38 9.27 -25.93 4.95 C-18.33 -1.02 -9.35 -3.81 0 0 Z " fill="#000000" transform="translate(673.86328125,945.16796875)"/>
<path d="M0 0 C5.84 3.89 9.42 9.16 11 16 C12.01 23.74 10.44 29.58 6 36 C1.35 41.38 -3.93 44.81 -11 46 C-18.65 45.61 -25.36 43.22 -31 38 C-32.68 35.73 -33.76 33.58 -35 31 C-35.41 30.24 -35.83 29.47 -36.25 28.69 C-38.2 21.71 -37.43 15.47 -34.2 9.04 C-30.66 3.04 -26.62 -0.47 -20.19 -3.19 C-12.33 -5.19 -6.95 -3.86 0 0 Z " fill="#000000" transform="translate(1240,1148)"/>
<path d="M0 0 C6.11 3.98 9.29 8.25 11.45 15.23 C12.97 22.85 10.88 29.63 6.63 36.07 C2.15 41.88 -2.84 44.53 -10 46 C-16.26 46.33 -21.53 43.73 -27 41 C-27 40.34 -27 39.68 -27 39 C-27.99 38.67 -28.98 38.34 -30 38 C-31.35 36.26 -31.35 36.26 -32.62 34.12 C-33.05 33.43 -33.48 32.73 -33.91 32.01 C-36.82 26.64 -36.54 20.95 -36 15 C-34.09 8.72 -29.87 3.06 -24.56 -0.75 C-15.57 -5.14 -8.6 -4.96 0 0 Z " fill="#000000" transform="translate(150,951)"/>
</svg>
