<?xml version="1.0" encoding="UTF-8"?>
<!-- Generator: visioncortex VTracer 0.6.3 -->
<svg version="1.1" xmlns="http://www.w3.org/2000/svg" width="1280" height="1104">
<path d="M0 0 C422.4 0 844.8 0 1280 0 C1280 364.32 1280 728.64 1280 1104 C857.6 1104 435.2 1104 0 1104 C0 739.68 0 375.36 0 0 Z " fill="#FBFCFE" transform="translate(0,0)"/>
<path d="M0 0 C8.5 0.59 16.77 1.91 25.15 3.44 C26.51 3.69 27.87 3.93 29.24 4.18 C32.12 4.7 35 5.22 37.89 5.75 C42.44 6.57 46.98 7.4 51.53 8.22 C56.86 9.18 62.19 10.14 67.51 11.1 C78.71 13.13 89.92 15.14 101.12 17.12 C101.98 17.28 102.84 17.43 103.73 17.59 C118.84 20.27 133.95 22.93 149.06 25.59 C151.51 26.02 153.96 26.45 156.41 26.88 C169.41 29.17 182.41 31.44 195.44 33.56 C201.58 34.56 207.7 35.68 213.82 36.84 C220.29 38.06 226.78 39.22 233.28 40.36 C235.37 40.72 237.46 41.09 239.55 41.46 C244.74 42.37 249.94 43.29 255.14 44.2 C260.25 45.1 265.36 46 270.46 46.89 C271.19 47.02 271.92 47.15 272.66 47.28 C283.47 49.19 294.27 51.13 305.07 53.11 C317.97 55.46 330.9 57.74 343.83 59.96 C362.25 63.11 380.66 66.32 399.03 69.73 C403.61 70.58 408.18 71.36 412.78 72.08 C413.82 72.25 414.86 72.42 415.93 72.59 C417.82 72.89 419.71 73.18 421.6 73.44 C422.41 73.58 423.22 73.71 424.05 73.85 C424.75 73.95 425.45 74.05 426.16 74.16 C429.02 75.47 429.66 77.19 431 80 C431.88 82.79 432.67 85.53 433.39 88.36 C433.72 89.62 433.72 89.62 434.06 90.9 C434.8 93.7 435.52 96.51 436.25 99.31 C436.78 101.32 437.3 103.32 437.83 105.33 C438.67 108.52 439.51 111.72 440.35 114.92 C443.33 126.29 446.38 137.63 449.43 148.98 C454.71 168.64 459.94 188.32 465.12 208 C469.65 225.16 474.22 242.31 478.88 259.44 C479.15 260.45 479.42 261.46 479.71 262.51 C480.77 266.41 481.83 270.32 482.89 274.22 C487.44 290.99 491.89 307.79 496.32 324.59 C497.54 329.24 498.77 333.9 500 338.56 C500.46 340.31 500.46 340.31 500.93 342.09 C504.66 356.23 508.43 370.34 512.36 384.43 C514.64 392.64 516.84 400.88 519 409.12 C519.3 410.28 519.61 411.43 519.92 412.62 C520.19 413.67 520.47 414.73 520.75 415.82 C520.99 416.75 521.23 417.68 521.48 418.64 C522 421 522 421 522 424 C516.82 420.27 511.95 416.29 507.12 412.12 C500.47 406.38 493.67 400.86 486.73 395.45 C480.34 390.47 474.06 385.4 467.9 380.13 C463.39 376.29 458.76 372.62 454.09 368.98 C449.66 365.53 445.31 362.01 440.98 358.45 C431.38 350.56 421.72 342.74 412 335 C406.01 330.22 400.05 325.41 394.12 320.55 C386.11 314 378.09 307.45 370 301 C362.25 294.81 354.57 288.53 346.88 282.27 C339.72 276.45 332.56 270.63 325.34 264.88 C322.79 262.83 320.27 260.76 317.75 258.69 C313.67 255.34 309.54 252.06 305.38 248.81 C298.59 243.51 291.95 238.05 285.32 232.56 C276.06 224.91 266.73 217.36 257.34 209.88 C254.79 207.83 252.27 205.76 249.75 203.69 C245.59 200.27 241.37 196.93 237.12 193.62 C231.94 189.58 226.89 185.41 221.9 181.13 C217.39 177.29 212.76 173.62 208.09 169.98 C203.66 166.53 199.3 163 194.96 159.43 C182.56 149.24 170.12 139.08 157.44 129.23 C150.87 124.12 144.47 118.87 138.18 113.41 C133.85 109.67 129.39 106.17 124.82 102.72 C120.96 99.78 117.24 96.72 113.56 93.56 C108.62 89.33 103.57 85.26 98.44 81.26 C91.9 76.16 85.48 70.92 79.06 65.68 C75.58 62.84 72.1 60.02 68.62 57.19 C67.95 56.64 67.27 56.09 66.58 55.52 C62.29 52.04 57.99 48.58 53.67 45.14 C50.2 42.36 46.76 39.55 43.31 36.75 C37.34 31.89 31.33 27.06 25.31 22.25 C20.68 18.55 16.09 14.81 11.52 11.04 C8.27 8.41 4.94 5.9 1.58 3.41 C1.06 2.94 0.54 2.48 0 2 C0 1.34 0 0.68 0 0 Z " fill="#BD1B5D" transform="translate(114,264)"/>
<path d="M0 0 C0.66 0.33 1.32 0.66 2 1 C1.32 1.61 0.64 2.22 -0.07 2.85 C-8.96 10.9 -17.45 19.33 -25.92 27.83 C-27.49 29.39 -29.05 30.96 -30.62 32.52 C-33.97 35.88 -37.31 39.23 -40.66 42.58 C-45.95 47.89 -51.25 53.19 -56.54 58.49 C-63.97 65.93 -71.4 73.37 -78.83 80.8 C-79.29 81.28 -79.76 81.75 -80.25 82.23 C-83.58 85.57 -86.92 88.91 -90.25 92.25 C-94.07 96.07 -97.88 99.89 -101.7 103.72 C-102.17 104.19 -102.64 104.66 -103.12 105.14 C-110.98 113.01 -118.83 120.88 -126.69 128.74 C-131.95 134.01 -137.21 139.28 -142.47 144.55 C-145.74 147.83 -149.02 151.11 -152.29 154.39 C-153.8 155.9 -155.32 157.42 -156.83 158.93 C-158.9 161.01 -160.97 163.08 -163.04 165.16 C-163.64 165.75 -164.23 166.35 -164.84 166.96 C-168.5 170.61 -172.29 174.06 -176.21 177.44 C-178.77 179.67 -181.14 182.05 -183.53 184.47 C-184.01 184.95 -184.49 185.44 -184.99 185.94 C-186.49 187.45 -188 188.98 -189.5 190.5 C-195.22 196.3 -200.92 202.05 -207.12 207.35 C-210.58 210.39 -213.77 213.71 -217 217 C-221.6 221.69 -226.27 226.18 -231.25 230.47 C-233.26 232.23 -235.14 234.08 -237 236 C-240.22 239.27 -243.59 242.29 -247.07 245.29 C-249.53 247.47 -251.82 249.81 -254.13 252.16 C-255.93 253.93 -257.8 255.6 -259.72 257.25 C-263.91 260.9 -267.97 264.68 -272 268.5 C-276.63 272.88 -281.31 277.18 -286.12 281.36 C-288.79 283.69 -291.4 286.09 -294 288.5 C-297.96 292.15 -301.95 295.74 -306.02 299.27 C-308.31 301.27 -310.56 303.32 -312.81 305.38 C-316.28 308.5 -319.81 311.51 -323.44 314.44 C-327.24 317.51 -330.9 320.69 -334.5 324 C-338.89 328.04 -343.42 331.84 -348.06 335.59 C-351.37 338.31 -354.63 341.08 -357.88 343.88 C-359.07 344.9 -360.26 345.92 -361.45 346.95 C-362.03 347.45 -362.62 347.96 -363.23 348.48 C-370.47 354.7 -377.75 360.87 -385.23 366.79 C-387.36 368.49 -389.47 370.2 -391.58 371.93 C-399.21 378.18 -406.93 384.3 -414.78 390.26 C-419.22 393.64 -423.63 397.04 -428 400.5 C-469.37 433.13 -512.58 463.67 -557 492 C-559.43 484.71 -553.94 474.78 -551.31 467.81 C-548.37 459.86 -545.58 451.87 -542.94 443.81 C-540.31 435.81 -537.53 427.89 -534.57 420 C-532.44 414.27 -530.47 408.5 -528.56 402.69 C-526.19 395.47 -523.69 388.32 -521.06 381.19 C-517.84 372.43 -514.85 363.62 -511.93 354.76 C-509.62 347.78 -507.15 340.88 -504.57 334 C-502.44 328.27 -500.47 322.5 -498.56 316.69 C-496.17 309.41 -493.65 302.19 -491 295 C-488.38 287.87 -485.87 280.72 -483.5 273.5 C-480.82 265.35 -477.94 257.28 -474.98 249.23 C-472.71 243.02 -470.56 236.78 -468.5 230.5 C-466.18 223.45 -463.75 216.46 -461.19 209.5 C-458.09 201.07 -455.11 192.61 -452.19 184.12 C-451.77 182.93 -451.36 181.73 -450.94 180.5 C-448.86 174.48 -446.81 168.46 -444.8 162.42 C-443.82 159.47 -442.83 156.53 -441.84 153.58 C-441.37 152.16 -440.9 150.74 -440.43 149.32 C-439.78 147.33 -439.11 145.35 -438.45 143.37 C-438.07 142.24 -437.69 141.1 -437.31 139.93 C-435.95 136.88 -434.51 135.17 -432 133 C-430.76 133.6 -430.76 133.6 -429.5 134.21 C-371.31 160.9 -293.36 130.06 -237.81 109.7 C-217.58 102.15 -197.71 93.65 -177.88 85.1 C-172.1 82.6 -166.29 80.17 -160.48 77.74 C-152.77 74.51 -145.19 71.12 -137.73 67.35 C-132.46 64.74 -127.1 62.33 -121.75 59.88 C-112.08 55.42 -102.5 50.82 -93 46.02 C-86.71 42.84 -80.37 39.77 -74 36.75 C-55.49 27.95 -37.07 18.87 -19.02 9.14 C-14.78 6.87 -10.49 4.83 -6.07 2.92 C-3.96 2.02 -3.96 2.02 -1.86 0.82 C-0.94 0.41 -0.94 0.41 0 0 Z " fill="#FA8001" transform="translate(1205,196)"/>
<path d="M0 0 C3.2 2.29 3.67 5.01 4.33 8.75 C4.51 9.9 4.51 9.9 4.69 11.06 C4.81 11.85 4.94 12.64 5.07 13.46 C5.91 19.22 6.29 24.92 6.31 30.75 C6.32 31.49 6.32 32.22 6.33 32.98 C6.29 36.18 6.06 38.83 4.97 41.85 C1.88 51.87 5.88 64.7 7.9 74.78 C8.71 78.87 9.49 82.97 10.28 87.07 C10.58 88.64 10.88 90.21 11.19 91.78 C19.41 134.46 19.41 134.46 9.25 150.88 C4.4 157.47 0.07 161.12 -8 163 C-17.44 164.1 -24.75 164.02 -32.59 158.2 C-37.41 153.79 -41.37 148.87 -44.59 143.2 C-45.06 142.47 -45.52 141.75 -46 141 C-46.66 141 -47.32 141 -48 141 C-57.25 156.88 -57.25 156.88 -57.35 174.75 C-54.18 184.51 -48.74 190.68 -39.82 195.68 C-20.37 204.76 1.27 203.58 21.19 196.61 C24.86 195.23 28.43 193.65 32 192 C33.05 191.53 34.09 191.05 35.17 190.56 C41.48 187.56 47.31 184.06 53.03 180.04 C56 178 56 178 59.09 176.24 C63.58 173.52 66.43 171.66 68.18 166.58 C68.64 164.01 69.05 161.43 69.4 158.84 C70.36 152.66 72.23 145.35 77.16 141.17 C77.77 140.79 78.37 140.4 79 140 C80 141 80 141 80.13 143.04 C80.12 148.14 79.87 152.98 79 158 C83.36 156.58 86 154.44 89.31 151.31 C92.64 148.2 95.97 145.14 99.44 142.19 C104.25 137.95 107.6 134.66 108.18 128.07 C107.86 124.4 106.06 122 104 119 C98.31 120 92.93 121.34 87.44 123.12 C81.88 124.75 76.76 125.43 71 125.5 C70.29 125.52 69.59 125.54 68.86 125.56 C63.79 125.5 60.92 124.14 57 121 C53.5 117.13 52.63 113.44 52.72 108.25 C54.17 96.62 58.94 85.76 68.09 78.38 C72.67 75.08 76.39 74.44 82 75 C89.63 76.93 94.72 82.04 100.2 87.34 C101.13 88.22 102.05 89.1 103 90 C103.78 90.79 104.56 91.59 105.36 92.41 C108.36 94.22 110.16 94.37 113.59 93.73 C118.93 92.11 123.88 89.56 128.88 87.12 C148.65 77.54 148.65 77.54 158 77.62 C158.91 77.62 159.81 77.61 160.75 77.6 C161.49 77.73 162.24 77.86 163 78 C166.83 83.75 165.51 91.13 164.35 97.7 C162.11 106.88 158.53 114.74 154 123 C151.32 114.97 153.19 105.28 154 97 C147.4 94.8 139.75 99.99 133.81 102.94 C132.8 103.44 132.8 103.44 131.76 103.95 C128.59 105.56 125.57 107.23 122.64 109.25 C120 111 120 111 118 111 C117.99 111.93 117.99 111.93 117.97 112.87 C117.33 146.72 117.33 146.72 108 156 C106.05 157.81 104.07 159.55 102.03 161.26 C100.13 162.88 98.42 164.58 96.69 166.38 C93.78 169.34 90.67 171.95 87.44 174.56 C85.62 176.04 83.81 177.52 82 179 C81.32 179.56 80.63 180.12 79.93 180.7 C77.36 182.98 76.06 184.33 75.75 187.81 C80.43 199.75 89.02 206.39 100.27 211.84 C112.83 217.19 130.74 215.44 143.27 210.61 C150.03 207.76 156.56 204.51 163 201 C164.12 200.39 165.23 199.79 166.38 199.16 C169.95 197.16 173.49 195.1 177 193 C178.23 192.26 178.23 192.26 179.49 191.51 C197.46 180.84 197.46 180.84 213 167 C213.48 166.52 213.95 166.04 214.44 165.54 C216.09 163.84 216.09 163.84 218 161 C217.7 158.35 217.7 158.35 217 156 C216.35 156.28 215.7 156.55 215.02 156.84 C214.15 157.2 213.28 157.56 212.38 157.94 C211.52 158.3 210.66 158.66 209.77 159.03 C203.95 161.07 198.17 161.21 192.06 161.25 C190.9 161.28 190.9 161.28 189.72 161.31 C183.05 161.36 178.45 160.01 173.19 155.69 C169.52 151.18 168.42 146.64 168.55 140.82 C170.15 130.72 175.26 117.23 182.91 110.26 C185.28 108.83 186.62 108.6 189.38 108.62 C190.47 108.61 190.47 108.61 191.59 108.6 C197.62 109.6 201.97 113.37 206.44 117.25 C207.01 117.74 207.58 118.22 208.16 118.72 C211.79 121.86 215.23 125.09 218.44 128.66 C220.57 130.49 222.27 131.29 225 132 C236.74 129.37 248.38 122.51 256.38 113.6 C258 112 258 112 261 111 C263.39 114.88 263.81 119.02 264.5 123.44 C265.45 132.03 265.45 132.03 270.21 138.78 C276.3 141.44 283.63 141.01 289.93 139.12 C295.31 136.64 300.32 133.44 303 128 C305.78 116 300.21 99.84 296.77 88.35 C293.65 77.87 291.91 67.52 290.62 56.69 C290.54 55.97 290.45 55.26 290.37 54.52 C288.02 34.57 288.02 34.57 290.31 25.69 C290.56 24.7 290.8 23.72 291.05 22.7 C292.01 19.98 293.15 18.19 295 16 C295.99 16.33 296.98 16.66 298 17 C301.38 24.57 301.96 32.6 302.85 40.75 C304.84 58.79 307.6 76.67 310.62 94.56 C310.82 95.73 311.01 96.9 311.21 98.1 C311.77 101.45 312.34 104.79 312.91 108.13 C313.08 109.13 313.25 110.12 313.42 111.15 C314.82 120.14 314.82 120.14 319.68 127.52 C325.29 130.25 329.22 131.14 335.44 131.12 C336.55 131.13 337.66 131.13 338.81 131.13 C341.66 131.01 344.23 130.65 347 130 C346.84 129.13 346.67 128.27 346.5 127.38 C344.65 113.74 346.36 103.34 354.32 92.09 C360.72 84.11 369.35 79.22 379 76 C378 73.3 377.01 71.01 375.38 68.62 C373.07 64.23 373.53 60.75 374.8 56.02 C377.8 46.51 377.8 46.51 381 43 C381.66 43 382.32 43 383 43 C384.37 45.01 384.37 45.01 385.88 47.69 C387.58 50.66 389.1 53.11 391.38 55.69 C393 58 393 58 392.88 61.31 C393.12 68.4 399.09 73.42 403.97 78.17 C406.3 80.27 408.73 82.23 411.19 84.19 C432.48 101.43 432.48 101.43 434.39 112.2 C434.64 117.26 433.38 121.67 431.79 126.43 C430.72 129.9 430.12 133.4 429.53 136.97 C429 139 429 139 427 141 C424.11 141.23 424.11 141.23 420.46 141.2 C418.51 141.19 418.51 141.19 416.52 141.18 C415.14 141.16 413.76 141.14 412.38 141.12 C410.99 141.11 409.6 141.11 408.21 141.1 C404.81 141.07 401.4 141.04 398 141 C397.34 143.06 396.68 145.13 396.03 147.19 C395.66 148.34 395.29 149.49 394.92 150.67 C391.49 163.08 395.65 176.31 401.4 187.38 C404.51 192.48 407.67 196.18 413 199 C417.86 200.03 420.69 198.89 424.75 196.31 C433.69 189.57 440.28 180.49 446.07 171.02 C456.29 155.04 468.48 138.46 487.68 133.41 C492.28 132.6 495.59 133.04 499.45 135.67 C502.31 138.29 503.99 140.85 505.94 144.19 C506.63 145.35 507.33 146.51 508.02 147.67 C508.68 148.77 509.33 149.87 510 151 C514.97 159.61 514.97 159.61 523 165 C541.15 167.29 556.42 160.14 571.85 151.67 C575 150 575 150 578 149 C573.82 141.64 567.72 139 560 136 C552.83 134.03 547.56 134.97 541 138 C540.01 138 539.02 138 538 138 C536.12 134.24 537.16 129.99 538 126 C540.85 118.97 546.29 114.14 553.13 111.04 C555.4 110.22 557.66 109.58 560 109 C560.79 108.8 561.57 108.59 562.38 108.38 C586.63 103 617.5 108.24 640 118 C641.36 118.96 642.7 119.95 644 121 C642.79 127.84 641.14 134.3 637 140 C633.62 141.75 633.62 141.75 631.59 142.29 C628.02 143.27 624.66 144.71 621.25 146.12 C613.63 149.25 613.63 149.25 610 150 C617.59 158.3 626.19 162.09 637.42 163.25 C652.3 163.67 667.19 157.65 678.33 147.98 C682.15 144.28 685.11 140.48 688 136 C690.12 133.69 690.12 133.69 693 131 C693.71 130.32 694.42 129.64 695.16 128.93 C704.25 120.43 716.09 110.51 729.25 110.75 C733.06 111.36 734.93 112.39 737.38 115.38 C743.37 124.81 746.1 135.9 745 147 C743.98 150.5 742.56 153.71 741 157 C740.41 158.37 739.83 159.75 739.25 161.12 C738.84 162.07 738.42 163.02 738 164 C723.06 163.35 708.66 160.59 697.21 150.41 C696 149 696 149 696 147 C695.01 147 694.02 147 693 147 C692.6 147.88 692.6 147.88 692.2 148.77 C690.96 151.08 689.62 152.71 687.84 154.61 C686.9 155.61 686.9 155.61 685.95 156.64 C685.28 157.33 684.62 158.03 683.94 158.75 C683.26 159.47 682.58 160.18 681.88 160.92 C670.41 172.93 658.71 183.63 641.31 184.43 C639.35 184.45 637.39 184.45 635.44 184.44 C634.46 184.46 633.48 184.48 632.48 184.5 C617.57 184.49 606.19 175.12 596 165 C594.64 163.35 593.3 161.69 592 160 C582.63 161.1 575.25 167.06 567.75 172.44 C553.14 182.63 539.24 188.51 520.98 186.6 C514.64 185.32 509.19 182.23 505.24 177 C502.85 173.15 500.81 169.09 498.71 165.08 C496.5 161.09 494.2 157.1 490 155 C483.07 154.28 479.43 155.73 474 160 C461.62 170.26 453.02 182.43 444.21 195.71 C427.72 220.57 427.72 220.57 420.12 222.5 C414.28 223.39 410.79 222.02 406 218.55 C393.87 208.71 388.95 194.41 387.28 179.21 C386.89 174.18 386.79 169.16 386.75 164.12 C386.74 163.26 386.73 162.39 386.72 161.5 C386.75 156.44 387.29 151.86 388.56 146.96 C389.16 144.29 389.14 141.73 389 139 C377.07 138.19 367.13 143.09 356.74 148.33 C346.28 153.55 335.96 157.29 324.31 153.94 C320.05 151.45 316.57 148.39 313 145 C309.8 146.37 308.12 147.82 306 150.56 C299.75 157.96 292.19 164.34 282.43 165.38 C270.14 166.1 270.14 166.1 264.75 161.62 C259.06 155.49 256.71 148.21 256 140 C252.86 140 252.03 140.35 249.42 141.86 C248.73 142.26 248.05 142.65 247.34 143.05 C246.63 143.47 245.92 143.88 245.19 144.31 C231.88 152 231.88 152 229 152 C228.94 152.99 228.87 153.99 228.81 155.01 C227.58 169.86 222.28 181.82 211 192 C200.47 200.76 188.63 207.82 177 215 C175.77 215.76 174.55 216.53 173.32 217.29 C170.23 219.21 167.11 221.11 164 223 C163.02 223.62 162.04 224.23 161.03 224.87 C153.67 229.38 146.26 232.48 138 235 C136.43 235.48 136.43 235.48 134.82 235.97 C121.82 239.46 107.35 239.88 95 234 C90.71 231.31 86.84 228.31 83 225 C82.31 224.41 81.62 223.82 80.91 223.21 C72.92 215.82 68.87 205.97 65 196 C60.71 197.51 57.08 199.75 53.31 202.25 C52.06 203.07 50.8 203.88 49.54 204.7 C47.5 206.02 45.46 207.35 43.43 208.68 C21.04 222.74 -4.85 229.38 -31 224 C-43.09 220.25 -54.89 212.15 -60.87 200.92 C-67.56 187.71 -68.26 174.66 -68 160 C-68.58 159.96 -69.16 159.93 -69.76 159.89 C-76.23 159.34 -80.56 157.62 -86 154 C-86 153.34 -86 152.68 -86 152 C-87.05 152.6 -88.1 153.2 -89.19 153.81 C-89.83 154.17 -90.48 154.54 -91.15 154.91 C-93.13 156.03 -93.13 156.03 -95.31 157.75 C-99.47 159.68 -103.5 159.7 -108 159 C-111.12 157 -111.12 157 -113 155 C-116.48 156.27 -119.26 157.76 -122.25 159.94 C-130.28 165.35 -138.25 166.45 -147.74 167.38 C-150.88 167.78 -150.88 167.78 -152.82 169.12 C-154.6 171.96 -155.21 174.87 -156 178.12 C-156.34 179.48 -156.69 180.84 -157.04 182.2 C-157.51 184.08 -157.51 184.08 -158 186 C-160.93 197.31 -167.16 202.97 -177 209 C-209.82 228.29 -251.94 244.86 -290.57 236.03 C-305.98 231.4 -317.61 219.35 -325.19 205.5 C-334.39 186.08 -333.58 166.08 -327 146 C-324.71 139.94 -321.98 134.09 -319.12 128.27 C-318.05 126.11 -317.02 123.93 -316 121.74 C-311.19 111.63 -311.19 111.63 -307 109 C-306.34 109.33 -305.68 109.66 -305 110 C-305.39 110.97 -305.77 111.94 -306.17 112.94 C-309.15 120.54 -311.65 128.03 -313.45 135.99 C-314.44 140.19 -315.76 144.07 -317.42 148.05 C-322.44 160.18 -322.56 171.03 -317.69 183.28 C-311.98 196.48 -302.05 206.88 -289 213 C-258.34 223.22 -218 208.57 -190.56 195 C-175.84 188.19 -175.84 188.19 -165 177 C-163.32 166.3 -168.89 158.41 -174.25 149.62 C-177.82 143.77 -179.71 138.96 -179 132 C-177.3 126.75 -175.68 123.11 -171 120 C-163.97 129.23 -163.97 129.23 -162.62 134.94 C-161.83 137.77 -161.52 138.7 -158.93 140.19 C-156.63 140.96 -154.38 141.52 -152 142 C-151.01 142.33 -150.02 142.66 -149 143 C-138.25 143.78 -128.51 142.86 -119.88 135.95 C-116.86 132.81 -114.77 129.17 -112.64 125.39 C-110.92 122.89 -109.8 122.05 -107 121 C-104.89 124.17 -104.24 126.51 -103.38 130.19 C-103.11 131.27 -102.85 132.36 -102.59 133.48 C-102.39 134.31 -102.2 135.14 -102 136 C-99.65 136.77 -99.65 136.77 -97 137 C-92.91 134.4 -91.95 128.94 -90.38 124.62 C-89 122 -89 122 -86.84 121.13 C-86.23 121.09 -85.63 121.05 -85 121 C-84.87 121.89 -84.87 121.89 -84.74 122.79 C-83.76 128.32 -82.6 131.41 -78 135 C-73.38 136.54 -68.83 136.51 -64 136 C-59.81 133.69 -58.43 131.46 -57 127 C-56.48 119.81 -56.97 112.65 -57.77 105.5 C-58.53 97.3 -58.48 90.54 -55 83 C-54.34 83 -53.68 83 -53 83 C-51.35 85.94 -50.67 88.33 -50.32 91.68 C-50.17 93.03 -50.17 93.03 -50.01 94.41 C-49.91 95.37 -49.8 96.33 -49.69 97.31 C-47.91 111.55 -45.18 126.34 -33.56 135.88 C-25.79 141.86 -17.46 141.67 -8 141 C-3.24 139.95 1.01 137.78 5 135 C8.99 127.02 4.83 115.83 2.81 107.65 C1.85 103.73 0.95 99.8 0.05 95.88 C-0.31 94.33 -0.67 92.78 -1.03 91.23 C-1.19 90.5 -1.36 89.78 -1.53 89.03 C-1.94 87.26 -2.36 85.49 -2.77 83.73 C-6.33 68.14 -6.41 52.54 -6.5 36.62 C-6.51 35.54 -6.52 34.46 -6.53 33.34 C-6.56 30.2 -6.55 27.06 -6.53 23.91 C-6.54 22.98 -6.55 22.04 -6.56 21.08 C-6.46 13.84 -5.32 5.32 0 0 Z " fill="#00376D" transform="translate(342,684)"/>
<path d="M0 0 C0.26 0.53 0.53 1.05 0.8 1.6 C1.68 3.36 2.56 5.11 3.45 6.87 C8.3 16.49 12.99 26.19 17.66 35.89 C21.76 44.42 25.93 52.92 30.19 61.38 C35.95 72.84 41.5 84.41 47 96 C54.81 112.43 54.81 112.43 62.87 128.72 C66 134.94 69 141.22 72 147.5 C76.57 157.05 81.22 166.55 86 176 C90.63 185.16 95.16 194.35 99.5 203.65 C101.84 208.63 104.26 213.55 106.73 218.46 C111.17 227.31 115.5 236.21 119.81 245.12 C120.94 247.45 122.07 249.78 123.2 252.11 C123.89 253.54 124.58 254.96 125.27 256.39 C125.59 257.04 125.9 257.69 126.23 258.36 C126.52 258.98 126.82 259.6 127.13 260.24 C127.94 261.87 128.83 263.46 129.73 265.04 C132.32 271.09 130.78 277.01 129.39 283.21 C129.14 284.37 129.14 284.37 128.88 285.56 C128.52 287.19 128.16 288.83 127.8 290.46 C127.26 292.9 126.73 295.34 126.2 297.78 C123.98 307.91 121.55 317.96 119 328 C114.37 346.54 110.15 365.16 106.11 383.84 C104.44 391.53 102.75 399.2 100.8 406.83 C98.93 414.28 97.23 421.77 95.5 429.25 C95.06 431.13 94.63 433.01 94.19 434.9 C91.1 448.19 88.06 461.49 85.02 474.79 C84.79 475.81 84.55 476.83 84.31 477.88 C84.08 478.9 83.85 479.92 83.6 480.98 C80.67 493.81 77.68 506.63 74.56 519.42 C71.79 530.79 69.17 542.19 66.55 553.59 C66.16 555.27 65.77 556.95 65.39 558.64 C65.1 559.9 65.1 559.9 64.8 561.2 C63.38 567.35 61.95 573.5 60.52 579.64 C60.31 580.53 60.11 581.42 59.89 582.33 C59.68 583.22 59.48 584.11 59.26 585.03 C55.14 602.69 51.1 620.36 47.13 638.05 C44.15 651.38 41.1 664.69 38 678 C37.67 676.68 37.34 675.36 37 674 C36.34 674 35.68 674 35 674 C34.97 673.38 34.94 672.76 34.91 672.12 C33.54 644.77 32.16 617.41 30.62 590.06 C29.32 566.8 28.05 543.54 26.79 520.27 C25.09 488.96 23.38 457.64 21.66 426.32 C19.98 395.86 18.31 365.4 16.66 334.94 C16.5 332.07 16.34 329.2 16.19 326.33 C15.19 307.95 14.19 289.56 13.2 271.18 C12.66 261.33 12.13 251.47 11.6 241.61 C11.49 239.66 11.38 237.72 11.28 235.77 C9.81 208.57 8.3 181.38 6.75 154.18 C5.46 131.47 4.24 108.77 3.08 86.05 C2.96 83.74 2.84 81.42 2.73 79.11 C2.64 77.4 2.64 77.4 2.55 75.65 C2.1 66.84 1.63 58.02 1.15 49.2 C1.08 47.91 1.01 46.61 0.94 45.27 C0.6 39.04 0.26 32.81 -0.09 26.57 C-0.21 24.35 -0.33 22.12 -0.45 19.89 C-0.51 18.89 -0.56 17.89 -0.62 16.85 C-1.38 2.76 -1.38 2.76 0 0 Z " fill="#FA8001" transform="translate(604,7)"/>
<path d="M0 0 C2.52 2.52 2.81 4.41 3.69 7.86 C4 9.04 4.3 10.22 4.62 11.43 C4.93 12.67 5.24 13.91 5.56 15.19 C5.88 16.41 6.2 17.63 6.52 18.88 C8.49 26.58 9.99 33.93 10.24 41.9 C10.51 49.65 11.77 56.41 13.96 63.88 C15.09 68.08 15.69 72.24 16.13 76.56 C16.22 77.37 16.3 78.19 16.39 79.03 C17.43 90.2 17.09 101.41 16.88 112.61 C15.97 134.42 15.97 134.42 24 154 C25.86 155.84 25.86 155.84 27.88 157.25 C28.51 157.73 29.15 158.21 29.8 158.7 C38.18 163.65 49.68 163.41 58.96 161.16 C63.06 160 67.03 158.54 71 157 C71.87 156.66 72.75 156.33 73.65 155.98 C79.46 153.72 85.24 151.39 91 149 C90.31 145.84 90.31 145.84 87.67 144.65 C86.23 144.02 86.23 144.02 84.75 143.38 C83.32 142.74 83.32 142.74 81.86 142.09 C75.59 139.71 68.45 138.58 62.12 141.19 C59.74 143.22 58.55 145.3 57 148 C54.58 147.72 52.17 147.42 49.75 147.12 C49.07 147.05 48.39 146.97 47.68 146.89 C44.09 146.43 41.11 145.91 38 144 C38.16 135.86 41.74 128.81 46 122 C51.86 116.58 57.69 114.72 65.55 114.85 C69.69 115.1 73.65 115.89 77.69 116.81 C78.62 117.02 79.55 117.24 80.51 117.45 C92.86 120.46 104.65 125.2 116.51 129.69 C130.27 134.85 143.96 138.92 158.34 141.96 C161.99 142.74 165.49 143.72 169 145 C168.5 151.34 167.62 162.38 163 167 C154.33 168.2 146.91 165.62 138.88 162.68 C135.92 161.61 132.94 160.64 129.94 159.69 C128.94 159.36 127.93 159.04 126.9 158.7 C120.7 157.2 117 158.12 111.38 161.06 C110.46 161.54 110.46 161.54 109.53 162.02 C105.63 164.06 101.84 166.25 98.06 168.5 C78.31 180.19 54.73 189.43 31.4 185.57 C24.61 183.68 19.47 179.59 15.5 173.81 C7.4 159.11 7.95 141.33 7.76 125.02 C7.53 106.33 6.48 88.41 3 70 C2.76 68.56 2.52 67.13 2.28 65.69 C1.26 59.73 -0.01 53.9 -1.52 48.04 C-9.61 16.51 -9.61 16.51 -2 2 C-1.34 1.34 -0.68 0.68 0 0 Z " fill="#00376D" transform="translate(1102,685)"/>
<path d="M0 0 C8.31 4.81 13.69 13.01 16.19 22.25 C18.12 36.06 16.43 48.62 8.31 60.12 C2.09 66.49 -3.88 69.03 -12.75 69.19 C-18.01 69.15 -21.65 68.04 -26.44 65.94 C-27.76 65.61 -29.08 65.28 -30.44 64.94 C-30.77 76.49 -31.1 88.04 -31.44 99.94 C-36.06 99.94 -40.68 99.94 -45.44 99.94 C-48.11 97.27 -47.69 95.26 -47.72 91.63 C-47.72 90.74 -47.71 89.86 -47.71 88.95 C-47.72 88.01 -47.72 87.08 -47.73 86.12 C-47.74 83.03 -47.74 79.94 -47.74 76.85 C-47.74 74.71 -47.75 72.56 -47.75 70.42 C-47.76 65.93 -47.76 61.43 -47.75 56.94 C-47.75 51.17 -47.76 45.4 -47.79 39.63 C-47.8 35.21 -47.8 30.78 -47.8 26.35 C-47.8 24.23 -47.81 22.1 -47.82 19.97 C-47.83 17 -47.82 14.03 -47.81 11.06 C-47.82 10.18 -47.83 9.29 -47.83 8.38 C-47.83 7.57 -47.82 6.76 -47.81 5.93 C-47.81 5.23 -47.81 4.52 -47.81 3.8 C-47.32 1.36 -46.37 0.46 -44.44 -1.06 C-41.03 -1.8 -37.85 -1.78 -34.44 -1.06 C-31.81 1.94 -31.81 1.94 -30.44 4.94 C-29.39 4.15 -28.33 3.37 -27.25 2.56 C-19.24 -3.4 -9.1 -4.19 0 0 Z " fill="#00386E" transform="translate(378.4375,996.0625)"/>
<path d="M0 0 C8.84 5.57 13.15 14.76 15.56 24.61 C16.51 36.75 15.6 47.46 8.35 57.57 C3.04 63.62 -3.49 66.85 -11.44 67.61 C-24.51 68.36 -33.21 67.07 -43.44 58.61 C-50.21 52.28 -52.53 43.69 -52.92 34.62 C-53.05 23.92 -50.55 13.96 -42.95 6.06 C-31.38 -4.68 -14.11 -6.79 0 0 Z " fill="#00386E" transform="translate(458.44140625,997.38671875)"/>
<path d="M0 0 C7.34 4.7 12.73 12.14 15.16 20.52 C16 24.43 15.85 28.38 15.88 32.37 C15.9 33.23 15.92 34.09 15.94 34.97 C16 45.4 12.9 53.17 5.62 60.68 C-3.44 68.27 -14.44 68.46 -25.75 67.47 C-33.51 66.21 -41.35 61.68 -46.31 55.55 C-52.06 46.2 -54.01 35.03 -51.64 24.39 C-48.66 13.81 -44.64 5.81 -34.89 0.27 C-23.69 -5.16 -11.28 -5.42 0 0 Z " fill="#00386E" transform="translate(300.375,997.3203125)"/>
<path d="M0 0 C1.16 0 2.31 0.01 3.5 0.01 C6.44 0.31 6.44 0.31 8.44 2.31 C8.68 5.03 8.81 7.66 8.85 10.38 C8.87 11.09 8.89 11.79 8.91 12.52 C8.97 15.16 9.01 17.8 9.06 20.44 C9.19 26.34 9.31 32.24 9.44 38.31 C23.3 38.64 37.16 38.97 51.44 39.31 C51.44 26.77 51.44 14.23 51.44 1.31 C54.86 0.17 57.52 0.21 61.12 0.25 C62.89 0.26 62.89 0.26 64.7 0.28 C65.6 0.29 66.51 0.3 67.44 0.31 C69.1 3.63 68.57 7.34 68.55 10.98 C68.55 11.88 68.55 12.78 68.55 13.7 C68.55 16.68 68.54 19.66 68.54 22.63 C68.53 24.69 68.53 26.75 68.53 28.81 C68.53 34.24 68.52 39.67 68.51 45.1 C68.5 50.63 68.49 56.17 68.49 61.71 C68.48 72.58 68.46 83.44 68.44 94.31 C65.79 94.34 63.15 94.36 60.5 94.38 C59.75 94.38 58.99 94.39 58.21 94.4 C56.29 94.41 54.36 94.36 52.44 94.31 C50.39 92.26 51.2 87.98 51.16 85.16 C51.13 83.93 51.13 83.93 51.1 82.68 C51.02 79.17 50.95 75.65 50.89 72.14 C50.83 69.58 50.78 67.03 50.72 64.47 C50.71 63.67 50.69 62.87 50.68 62.04 C50.94 58.37 50.94 58.37 49.44 55.31 C46.56 55.21 43.72 55.17 40.84 55.18 C39.55 55.18 39.55 55.18 38.23 55.18 C36.41 55.18 34.58 55.18 32.75 55.18 C29.95 55.19 27.14 55.18 24.34 55.18 C22.57 55.18 20.8 55.18 19.03 55.18 C18.19 55.18 17.34 55.18 16.47 55.17 C12.65 54.81 12.65 54.81 9.44 56.31 C9.28 59.12 9.18 61.91 9.12 64.72 C9.1 65.56 9.08 66.41 9.06 67.27 C8.99 69.97 8.93 72.67 8.88 75.38 C8.83 77.2 8.79 79.03 8.74 80.85 C8.64 85.34 8.54 89.83 8.44 94.31 C5.62 94.34 2.81 94.36 0 94.38 C-0.8 94.38 -1.6 94.39 -2.43 94.4 C-4.48 94.41 -6.52 94.36 -8.56 94.31 C-10.63 92.25 -9.72 87.83 -9.72 84.98 C-9.73 84.11 -9.73 83.24 -9.74 82.34 C-9.75 79.44 -9.76 76.53 -9.77 73.63 C-9.77 71.62 -9.78 69.61 -9.78 67.61 C-9.79 63.39 -9.8 59.17 -9.8 54.95 C-9.81 49.54 -9.83 44.12 -9.86 38.71 C-9.88 34.56 -9.88 30.41 -9.89 26.25 C-9.89 24.26 -9.9 22.26 -9.91 20.27 C-9.93 17.48 -9.93 14.69 -9.92 11.9 C-9.93 11.07 -9.94 10.24 -9.95 9.39 C-9.91 3.75 -9.91 3.75 -8.23 1.6 C-5.61 -0.42 -3.24 -0.05 0 0 Z " fill="#00376D" transform="translate(18.5625,968.6875)"/>
<path d="M0 0 C1.75 -0.02 1.75 -0.02 3.53 -0.04 C6.5 0.19 6.5 0.19 8.5 2.19 C8.76 4.73 8.76 4.73 8.77 7.98 C8.78 9.19 8.79 10.41 8.8 11.66 C8.8 12.64 8.8 12.64 8.8 13.64 C8.81 15.68 8.83 17.72 8.85 19.77 C8.9 25.58 8.93 31.39 8.96 37.2 C8.97 40.76 9 44.32 9.04 47.87 C9.06 49.87 9.06 51.88 9.06 53.88 C9.15 62.04 9.45 68.48 14.81 75 C20.06 79.27 24.24 80.6 31 80.56 C32.27 80.57 33.54 80.58 34.84 80.59 C39.96 80.03 43.26 78.53 46.75 74.75 C52.45 66.4 51.65 57.49 51.71 47.67 C51.73 45.69 51.75 43.71 51.77 41.73 C51.83 36.88 51.87 32.02 51.9 27.16 C51.92 24.42 51.94 21.69 51.98 18.95 C52.01 16.38 52.03 13.8 52.03 11.23 C52.05 10.07 52.07 8.91 52.08 7.72 C52.09 6.7 52.1 5.67 52.11 4.62 C52.24 3.82 52.37 3.01 52.5 2.19 C56.13 -0.23 57.88 -0.02 62.19 0.06 C63.37 0.08 64.55 0.1 65.76 0.12 C67.12 0.15 67.12 0.15 68.5 0.19 C69.86 2.91 69.63 5.08 69.65 8.13 C69.65 9.38 69.66 10.63 69.66 11.92 C69.67 13.29 69.67 14.66 69.67 16.03 C69.67 17.44 69.67 18.85 69.68 20.26 C69.68 23.21 69.69 26.17 69.69 29.13 C69.69 32.9 69.7 36.67 69.72 40.44 C69.73 43.35 69.73 46.26 69.73 49.18 C69.73 50.56 69.73 51.95 69.74 53.34 C69.8 64.24 69.67 73.93 63.5 83.19 C62.96 84.03 62.43 84.88 61.88 85.75 C53.15 94.7 42.99 96.22 31 96.44 C18.07 96.2 7.91 94.12 -1.38 84.5 C-10.5 73.16 -9.66 58.32 -9.63 44.53 C-9.63 43.38 -9.63 42.22 -9.64 41.04 C-9.64 38.62 -9.63 36.21 -9.63 33.8 C-9.62 30.1 -9.63 26.4 -9.64 22.71 C-9.64 20.35 -9.63 18 -9.63 15.65 C-9.64 13.99 -9.64 13.99 -9.64 12.3 C-9.64 11.28 -9.63 10.26 -9.63 9.2 C-9.63 8.3 -9.63 7.41 -9.63 6.48 C-9.5 4.19 -9.5 4.19 -8.5 1.19 C-5.65 -0.24 -3.17 0.02 0 0 Z " fill="#00386E" transform="translate(656.5,968.8125)"/>
<path d="M0 0 C7.59 6.8 10.33 13 12 23 C12 27.29 12 31.58 12 36 C-2.52 36.33 -17.04 36.66 -32 37 C-29.28 46.21 -29.28 46.21 -22.72 50.91 C-14.85 54.07 -6.54 53.34 1.56 51.47 C4.12 50.98 6.41 50.85 9 51 C10 52 10 52 10.1 54.72 C10.09 55.82 10.07 56.93 10.06 58.06 C10.05 59.17 10.04 60.27 10.04 61.41 C10.02 62.26 10.01 63.12 10 64 C-3.09 68.09 -19.96 69.76 -32.66 63.74 C-41.19 58.95 -45.76 53.25 -49 44 C-51.57 31.81 -49.28 20.13 -43.45 9.19 C-41.16 5.73 -38.38 3.36 -35 1 C-33.76 0.13 -33.76 0.13 -32.5 -0.75 C-22.73 -5.63 -9.19 -6.59 0 0 Z " fill="#00386E" transform="translate(153,998)"/>
<path d="M0 0 C7.23 4.31 11.03 9.74 13.69 17.68 C15.14 23.99 15.48 30.47 15.44 36.94 C13.91 38.47 12.51 38.1 10.38 38.14 C9.52 38.16 8.66 38.18 7.77 38.2 C6.37 38.23 6.37 38.23 4.93 38.25 C3.98 38.27 3.03 38.3 2.05 38.32 C-1.01 38.38 -4.07 38.44 -7.12 38.5 C-9.19 38.54 -11.26 38.59 -13.33 38.63 C-18.4 38.74 -23.48 38.84 -28.56 38.94 C-28.11 40.39 -27.64 41.85 -27.18 43.3 C-26.92 44.11 -26.66 44.92 -26.39 45.76 C-24.95 49.54 -22.66 50.87 -19.28 52.84 C-11.41 56.01 -3.1 55.28 5 53.41 C7.44 52.94 7.44 52.94 12.44 52.94 C12.44 57.23 12.44 61.52 12.44 65.94 C0.07 69.72 -15.12 71.24 -27.56 66.94 C-36.95 61.84 -42.72 55.54 -45.83 45.28 C-48.46 33.26 -46.3 22.08 -40.19 11.5 C-31.67 -1.01 -13.9 -6.46 0 0 Z " fill="#00386E" transform="translate(973.5625,996.0625)"/>
<path d="M0 0 C1.28 0.01 2.56 0.02 3.88 0.03 C4.87 0.04 5.86 0.05 6.88 0.06 C11.3 8.58 15.16 17.23 18.75 26.12 C19.25 27.33 19.75 28.54 20.26 29.79 C20.96 31.52 20.96 31.52 21.68 33.29 C22.1 34.32 22.52 35.36 22.96 36.43 C23.88 39.06 23.88 39.06 23.88 42.06 C25.19 42.39 26.52 42.72 27.88 43.06 C27.97 42.25 28.07 41.44 28.17 40.6 C29.02 36.31 30.5 32.49 32.12 28.44 C32.44 27.65 32.75 26.85 33.08 26.04 C34 23.71 34.94 21.39 35.88 19.06 C36.6 17.26 36.6 17.26 37.34 15.43 C38.5 12.63 39.67 9.84 40.88 7.06 C41.3 6.06 41.3 6.06 41.74 5.04 C42.5 3.38 42.5 3.38 43.88 1.06 C47.3 -0.08 49.96 -0.04 53.56 0 C55.33 0.01 55.33 0.01 57.14 0.03 C58.04 0.04 58.94 0.05 59.88 0.06 C59.88 0.72 59.88 1.38 59.88 2.06 C60.54 2.06 61.19 2.06 61.88 2.06 C56.31 16.03 50.41 29.85 44.38 43.62 C43 46.77 41.63 49.93 40.25 53.08 C39.02 55.92 37.78 58.75 36.54 61.59 C35.94 62.96 35.34 64.34 34.74 65.72 C31.29 73.64 27.78 81.52 24.13 89.35 C22.64 92.56 21.25 95.8 19.88 99.06 C19.55 99.72 19.21 100.38 18.88 101.06 C13.92 101.06 8.97 101.06 3.88 101.06 C2.49 96.91 3.83 95.38 5.66 91.45 C6.26 90.13 6.86 88.8 7.46 87.48 C8.41 85.4 9.37 83.32 10.34 81.24 C11.27 79.24 12.18 77.22 13.09 75.2 C13.39 74.59 13.68 73.98 13.98 73.35 C16.31 68.14 15.9 64.23 14.17 58.9 C13.9 58.28 13.62 57.65 13.34 57.02 C13.01 56.27 12.68 55.52 12.35 54.76 C11.99 53.95 11.62 53.14 11.25 52.31 C10.45 50.48 9.64 48.64 8.84 46.8 C8.15 45.24 8.15 45.24 7.45 43.65 C4.56 37.07 1.7 30.48 -1.15 23.89 C-2.18 21.52 -3.21 19.16 -4.25 16.8 C-4.88 15.32 -5.52 13.85 -6.16 12.37 C-6.46 11.69 -6.76 11.01 -7.07 10.32 C-8.52 6.93 -9.12 4.82 -9.12 1.06 C-6.12 -0.44 -3.33 -0.03 0 0 Z " fill="#00376D" transform="translate(1206.125,994.9375)"/>
<path d="M0 0 C6.21 3.97 10.29 8.82 12.12 16 C12.4 19.99 12.36 23.96 12.32 27.96 C12.32 29.11 12.31 30.25 12.31 31.43 C12.3 35.08 12.28 38.73 12.25 42.38 C12.24 44.85 12.23 47.33 12.22 49.81 C12.2 55.87 12.17 61.94 12.12 68 C9.65 68.03 7.17 68.05 4.69 68.06 C3.98 68.07 3.27 68.08 2.54 68.09 C0.74 68.1 -1.07 68.05 -2.88 68 C-5.02 65.85 -4.09 60.94 -4.12 57.96 C-4.15 56.08 -4.19 54.2 -4.22 52.32 C-4.27 49.36 -4.31 46.39 -4.35 43.42 C-4.39 40.56 -4.44 37.7 -4.5 34.84 C-4.5 33.96 -4.51 33.08 -4.52 32.17 C-4.64 26.13 -5.06 20.72 -8.5 15.56 C-11.97 13.28 -14.92 13.22 -18.88 14 C-23.32 15.61 -27.44 17.24 -30.48 20.97 C-32.49 25.34 -32.35 29.36 -32.39 34.11 C-32.4 35.08 -32.42 36.05 -32.44 37.05 C-32.5 40.14 -32.53 43.23 -32.56 46.31 C-32.6 48.41 -32.63 50.51 -32.67 52.6 C-32.75 57.74 -32.82 62.87 -32.88 68 C-35.35 68.03 -37.83 68.05 -40.31 68.06 C-41.02 68.07 -41.73 68.08 -42.46 68.09 C-44.26 68.1 -46.07 68.05 -47.88 68 C-48.88 67 -48.88 67 -49 64.37 C-48.99 63.2 -48.99 62.03 -48.99 60.83 C-48.99 60.18 -48.99 59.54 -48.99 58.88 C-48.99 56.74 -48.98 54.6 -48.97 52.46 C-48.97 50.99 -48.97 49.51 -48.97 48.03 C-48.96 44.13 -48.95 40.23 -48.94 36.34 C-48.93 32.36 -48.93 28.39 -48.92 24.41 C-48.91 16.61 -48.9 8.8 -48.88 1 C-46.23 -0.32 -44.2 -0.1 -41.25 -0.06 C-39.75 -0.05 -39.75 -0.05 -38.21 -0.04 C-37.44 -0.02 -36.67 -0.01 -35.88 0 C-35.54 1.98 -35.22 3.96 -34.88 6 C-34.22 6 -33.55 6 -32.88 6 C-32.88 6.66 -32.88 7.32 -32.88 8 C-32.31 7.6 -31.74 7.2 -31.15 6.79 C-21.6 0.24 -11.7 -4.08 0 0 Z " fill="#00376D" transform="translate(794.875,995)"/>
<path d="M0 0 C1.77 0.01 1.77 0.01 3.57 0.03 C4.48 0.04 5.38 0.05 6.31 0.06 C9.72 6.53 12.35 13.14 14.88 20 C15.26 21.03 15.65 22.07 16.04 23.13 C22.31 39.99 22.31 39.99 22.31 44.06 C23.3 44.06 24.29 44.06 25.31 44.06 C25.59 43.25 25.87 42.44 26.15 41.61 C27.2 38.53 28.26 35.46 29.31 32.39 C29.76 31.07 30.21 29.75 30.66 28.43 C32.19 23.97 33.74 19.51 35.31 15.06 C35.65 14.12 35.65 14.12 35.99 13.15 C36.63 11.34 37.29 9.54 37.96 7.73 C38.34 6.69 38.72 5.64 39.11 4.56 C40.31 2.06 40.31 2.06 43.31 0.06 C46.45 -0.13 46.45 -0.13 50 -0.06 C51.18 -0.04 52.36 -0.03 53.57 -0.01 C54.93 0.03 54.93 0.03 56.31 0.06 C56.31 0.72 56.31 1.38 56.31 2.06 C56.97 2.06 57.63 2.06 58.31 2.06 C51.13 24.41 42.14 46.32 33.31 68.06 C30.54 68.2 27.77 68.3 25 68.38 C24.21 68.42 23.43 68.46 22.62 68.5 C20.43 68.55 18.46 68.5 16.31 68.06 C14.54 66.21 14.54 66.21 13.31 63.06 C12.85 61.97 12.85 61.97 12.37 60.86 C11.18 58.05 10.06 55.21 8.94 52.38 C8.51 51.31 8.09 50.24 7.66 49.14 C6.2 45.45 4.75 41.76 3.31 38.06 C3.03 37.34 2.75 36.62 2.46 35.88 C0.66 31.25 -1.14 26.62 -2.93 21.99 C-3.52 20.46 -4.11 18.93 -4.7 17.39 C-5.54 15.24 -6.37 13.08 -7.2 10.91 C-7.45 10.27 -7.7 9.62 -7.96 8.95 C-9.02 6.15 -9.69 4.08 -9.69 1.06 C-6.27 -0.08 -3.6 -0.04 0 0 Z " fill="#00386E" transform="translate(862.6875,994.9375)"/>
<path d="M0 0 C2.29 -0.03 4.58 -0.05 6.88 -0.06 C8.15 -0.07 9.43 -0.09 10.74 -0.1 C14 0 14 0 16 1 C16.31 3.72 16.51 6.33 16.62 9.06 C16.75 11.68 16.87 14.3 17 17 C22.61 17.33 28.22 17.66 34 18 C36.03 22.06 35.05 27.6 35 32 C28.73 32.33 22.46 32.66 16 33 C16.05 38.22 16.11 43.43 16.21 48.64 C16.24 50.42 16.26 52.19 16.27 53.97 C16.29 56.52 16.34 59.06 16.39 61.61 C16.39 62.41 16.39 63.2 16.39 64.02 C16.49 68.42 16.49 68.42 18.82 72.01 C22 73.46 24.72 73.25 28.19 73.12 C30.46 73.05 32.73 73.01 35 73 C36 74 36 74 36.1 76.94 C36.09 78.14 36.07 79.33 36.06 80.56 C36.05 81.76 36.04 82.96 36.04 84.19 C36.02 85.12 36.01 86.05 36 87 C24.57 89.12 15 88.5 4.62 83.31 C0.79 79.93 -0.64 75.73 -1.3 70.74 C-1.44 68.31 -1.49 65.9 -1.51 63.47 C-1.53 62.59 -1.55 61.72 -1.57 60.81 C-1.62 58.04 -1.65 55.27 -1.69 52.5 C-1.72 50.61 -1.76 48.72 -1.79 46.83 C-1.88 42.22 -1.94 37.61 -2 33 C-3.17 32.91 -3.17 32.91 -4.37 32.82 C-5.38 32.73 -6.39 32.65 -7.44 32.56 C-8.45 32.48 -9.46 32.4 -10.5 32.32 C-13 32 -13 32 -14 31 C-14.2 28.82 -14.2 28.82 -14.25 26.12 C-14.28 25.24 -14.3 24.36 -14.33 23.45 C-14 21 -14 21 -12.81 19.19 C-10.37 17.58 -8.71 17.7 -5.81 17.81 C-4.46 17.85 -4.46 17.85 -3.08 17.89 C-2.05 17.95 -2.05 17.95 -1 18 C-1.01 16.87 -1.02 15.74 -1.04 14.57 C-1.04 13.09 -1.05 11.61 -1.06 10.12 C-1.07 9.38 -1.08 8.63 -1.09 7.86 C-1.11 2.23 -1.11 2.23 0 0 Z " fill="#00386E" transform="translate(1155,977)"/>
<path d="M0 0 C1.32 2.64 1.1 4.68 1.06 7.62 C1.05 8.63 1.04 9.63 1.04 10.66 C1.02 11.43 1.01 12.21 1 13 C0.41 12.94 -0.19 12.88 -0.8 12.82 C-2.56 12.64 -4.32 12.47 -6.07 12.3 C-8 12.1 -9.92 11.87 -11.83 11.61 C-18.2 10.8 -22.18 11.25 -28 14 C-28.33 16.31 -28.66 18.62 -29 21 C-26.05 22.27 -23.1 23.29 -20 24.15 C-19.28 24.35 -18.56 24.55 -17.81 24.76 C-16.32 25.17 -14.82 25.57 -13.33 25.97 C-7.3 27.66 -2.75 29.93 1.38 34.81 C4.33 40.52 3.91 47.81 3 54 C-0.49 60.23 -5.01 64.9 -12 67 C-22.25 69.03 -33.94 69.07 -44 66 C-46 64 -46 64 -46.2 61.18 C-46.17 60.09 -46.15 59 -46.12 57.88 C-46.11 56.78 -46.09 55.68 -46.07 54.55 C-46.05 53.71 -46.02 52.87 -46 52 C-44.89 52.16 -43.78 52.32 -42.64 52.48 C-37.67 53.1 -32.75 53.22 -27.75 53.25 C-26.87 53.27 -25.98 53.29 -25.07 53.31 C-20.05 53.37 -20.05 53.37 -15.42 51.64 C-13.8 50.04 -13.8 50.04 -13.5 47.56 C-14.17 44.11 -15.25 43.2 -18 41 C-20.75 40.1 -23.39 39.36 -26.19 38.69 C-33.14 36.83 -39.19 34.67 -44 29 C-46.64 23.59 -47.01 18.37 -45.28 12.59 C-42.59 6.07 -39.17 1.82 -32.75 -1.31 C-23.08 -4.87 -9.28 -4.68 0 0 Z " fill="#00386E" transform="translate(603,997)"/>
<path d="M0 0 C1 1 1 1 1.1 3.94 C1.09 5.14 1.07 6.33 1.06 7.56 C1.05 8.76 1.04 9.96 1.04 11.19 C1.02 12.12 1.01 13.05 1 14 C-0.67 13.64 -0.67 13.64 -2.37 13.27 C-14.29 10.57 -14.29 10.57 -26 13 C-28.37 15.95 -28.37 15.95 -28 20 C-22.12 23.31 -16.22 25.28 -9.72 26.99 C-3.75 28.68 -0.88 31.51 2.78 36.36 C5.33 41.87 4.77 48.1 4 54 C1.61 59.51 -2.69 63.29 -8 66 C-18.04 69.76 -32.93 69.5 -43 66 C-45 64 -45 64 -45.2 61.18 C-45.17 60.09 -45.15 59 -45.12 57.88 C-45.11 56.78 -45.09 55.68 -45.07 54.55 C-45.05 53.71 -45.02 52.87 -45 52 C-43.89 52.16 -42.77 52.33 -41.62 52.5 C-36.65 53.05 -31.69 53.15 -26.69 53.19 C-25.9 53.2 -25.11 53.21 -24.3 53.23 C-18.82 53.33 -18.82 53.33 -14 51 C-13 48.08 -13 48.08 -13 45 C-15.18 41.73 -15.52 41.56 -19.07 40.61 C-20.29 40.26 -20.29 40.26 -21.53 39.91 C-22.38 39.67 -23.24 39.43 -24.12 39.19 C-32.36 36.75 -38.15 34.21 -44 27.81 C-46 22.19 -45.98 15.7 -43.75 10.12 C-39.85 3.17 -35.73 -0.04 -28.26 -2.59 C-18.95 -4.27 -8.65 -3.86 0 0 Z " fill="#00386E" transform="translate(1096,997)"/>
<path d="M0 0 C1.17 0.01 2.33 0.01 3.53 0.02 C4.7 0.01 5.86 0.01 7.06 0 C10.03 0.27 10.03 0.27 12.03 2.27 C12.28 4.06 12.28 4.06 12.27 6.26 C12.27 7.1 12.28 7.94 12.28 8.8 C12.27 9.72 12.27 10.63 12.26 11.58 C12.26 12.55 12.26 13.51 12.26 14.51 C12.26 17.71 12.24 20.91 12.23 24.12 C12.22 26.33 12.22 28.55 12.22 30.77 C12.21 36.61 12.19 42.45 12.17 48.3 C12.15 54.25 12.14 60.21 12.13 66.17 C12.11 77.87 12.07 89.57 12.03 101.27 C9.39 101.29 6.74 101.31 4.09 101.33 C3.34 101.34 2.58 101.34 1.81 101.35 C-0.12 101.36 -2.04 101.32 -3.97 101.27 C-5.89 99.35 -5.1 96.5 -5.12 93.94 C-5.11 93.03 -5.11 92.12 -5.11 91.19 C-5.12 90.23 -5.12 89.28 -5.12 88.3 C-5.13 85.13 -5.14 81.97 -5.14 78.8 C-5.14 76.61 -5.14 74.42 -5.15 72.23 C-5.15 67.63 -5.15 63.03 -5.15 58.43 C-5.15 52.52 -5.17 46.62 -5.18 40.71 C-5.2 36.18 -5.2 31.66 -5.2 27.13 C-5.2 24.95 -5.2 22.77 -5.21 20.6 C-5.22 17.55 -5.22 14.51 -5.21 11.47 C-5.22 10.57 -5.22 9.66 -5.23 8.72 C-5.19 0.46 -5.19 0.46 0 0 Z " fill="#00386E" transform="translate(493.96875,961.734375)"/>
<path d="M0 0 C1.17 0.01 2.33 0.01 3.53 0.02 C4.7 0.01 5.86 0.01 7.06 0 C10.03 0.27 10.03 0.27 12.03 2.27 C12.28 4.06 12.28 4.06 12.27 6.26 C12.27 7.1 12.28 7.94 12.28 8.8 C12.27 9.72 12.27 10.63 12.26 11.58 C12.26 12.55 12.26 13.51 12.26 14.51 C12.26 17.71 12.24 20.91 12.23 24.12 C12.22 26.33 12.22 28.55 12.22 30.77 C12.21 36.61 12.19 42.45 12.17 48.3 C12.15 54.25 12.14 60.21 12.13 66.17 C12.11 77.87 12.07 89.57 12.03 101.27 C9.39 101.29 6.74 101.31 4.09 101.33 C3.34 101.34 2.58 101.34 1.81 101.35 C-0.12 101.36 -2.04 101.32 -3.97 101.27 C-5.89 99.35 -5.1 96.5 -5.12 93.94 C-5.11 93.03 -5.11 92.12 -5.11 91.19 C-5.12 90.23 -5.12 89.28 -5.12 88.3 C-5.13 85.13 -5.14 81.97 -5.14 78.8 C-5.14 76.61 -5.14 74.42 -5.15 72.23 C-5.15 67.63 -5.15 63.03 -5.15 58.43 C-5.15 52.52 -5.17 46.62 -5.18 40.71 C-5.2 36.18 -5.2 31.66 -5.2 27.13 C-5.2 24.95 -5.2 22.77 -5.21 20.6 C-5.22 17.55 -5.22 14.51 -5.21 11.47 C-5.22 10.57 -5.22 9.66 -5.23 8.72 C-5.19 0.46 -5.19 0.46 0 0 Z " fill="#00386E" transform="translate(185.96875,961.734375)"/>
<path d="M0 0 C1 1 1 1 1.1 4.16 C1.09 5.45 1.07 6.74 1.06 8.06 C1.05 9.35 1.04 10.64 1.04 11.97 C1.02 12.97 1.01 13.97 1 15 C0.24 15.09 -0.52 15.17 -1.31 15.26 C-8.23 16.2 -14.47 17.51 -20 22 C-21.73 24.88 -22.26 27.06 -22.32 30.4 C-22.34 31.26 -22.36 32.12 -22.38 33.01 C-22.4 34.39 -22.4 34.39 -22.41 35.8 C-22.43 36.75 -22.45 37.69 -22.47 38.67 C-22.53 41.7 -22.58 44.72 -22.62 47.75 C-22.66 49.8 -22.7 51.86 -22.74 53.91 C-22.84 58.94 -22.92 63.97 -23 69 C-25.48 69.03 -27.96 69.05 -30.44 69.06 C-31.14 69.07 -31.85 69.08 -32.58 69.09 C-34.39 69.1 -36.19 69.05 -38 69 C-39.8 67.2 -39.15 64.49 -39.16 62.06 C-39.17 60.79 -39.18 59.52 -39.19 58.21 C-39.2 56.81 -39.2 55.41 -39.2 54.01 C-39.21 52.58 -39.21 51.16 -39.22 49.73 C-39.23 46.73 -39.24 43.74 -39.24 40.75 C-39.25 36.91 -39.27 33.07 -39.3 29.23 C-39.32 26.28 -39.32 23.33 -39.32 20.39 C-39.33 18.97 -39.33 17.55 -39.35 16.14 C-39.36 14.16 -39.36 12.18 -39.36 10.2 C-39.36 9.07 -39.36 7.95 -39.37 6.78 C-39 4 -39 4 -37.63 2.13 C-35.31 0.53 -33.6 0.7 -30.81 0.81 C-29.91 0.84 -29.01 0.87 -28.08 0.89 C-27.05 0.95 -27.05 0.95 -26 1 C-23 6.75 -23 6.75 -23 9 C-22.34 9 -21.68 9 -21 9 C-20.76 8.4 -20.53 7.79 -20.29 7.17 C-16.23 0.32 -7.18 -0.68 0 0 Z " fill="#00386E" transform="translate(1043,994)"/>
<path d="M0 0 C4.32 3.88 5.81 6.83 6.31 12.62 C6 16 6 16 4.5 17.94 C3.76 18.46 3.76 18.46 3 19 C0.66 16.87 -0.71 14.88 -2 12 C-4.71 15.2 -5.93 18.26 -7.19 22.25 C-7.53 23.33 -7.88 24.41 -8.23 25.52 C-8.61 26.75 -8.61 26.75 -9 28 C-8.2 28.35 -7.41 28.7 -6.59 29.07 C6.21 35.03 6.21 35.03 9 41 C8.88 44.94 8.88 44.94 8 48 C7.21 48.19 6.43 48.39 5.62 48.59 C0.05 49.97 -5.5 51.37 -11 53 C-10.45 61.62 -9.3 70.09 -7.9 78.61 C-7.32 82.15 -6.77 85.7 -6.21 89.25 C-6.1 89.94 -6 90.62 -5.88 91.33 C-2.44 113.34 -1.76 133.24 -7 155 C-9.72 151.06 -9.11 146.88 -8.91 142.32 C-8.86 140.52 -8.81 138.73 -8.77 136.93 C-8.74 135.98 -8.72 135.04 -8.69 134.06 C-8.27 115.85 -9.69 99.18 -14.15 81.51 C-16.94 70.42 -19.37 58.81 -15.06 47.71 C-13.31 44.88 -11.09 43.98 -8 43 C-7.34 43 -6.68 43 -6 43 C-6 42.34 -6 41.68 -6 41 C-6.66 41 -7.32 41 -8 41 C-8 40.34 -8 39.68 -8 39 C-8.99 39 -9.98 39 -11 39 C-11.5 41.48 -11.5 41.48 -12 44 C-12.66 44 -13.32 44 -14 44 C-14.71 41.23 -15.12 39.44 -14.34 36.65 C-13.88 33.1 -14.98 31.75 -16.94 28.81 C-20 24.16 -20 24.16 -20 22 C-20.97 22.02 -21.94 22.04 -22.94 22.06 C-26 22 -26 22 -27 21 C-27.13 19.4 -27.18 17.79 -27.19 16.19 C-27.2 15.31 -27.22 14.44 -27.23 13.54 C-26.98 10.83 -26.52 9.25 -25 7 C-24.01 6.67 -23.02 6.34 -22 6 C-21.28 6.89 -20.56 7.77 -19.81 8.69 C-15.5 14.05 -15.5 14.05 -10 18 C-9.82 17.35 -9.64 16.7 -9.45 16.02 C-5.73 3.09 -5.73 3.09 -1.81 0.62 C-1.21 0.42 -0.62 0.21 0 0 Z " fill="#00376D" transform="translate(100,703)"/>
<path d="M0 0 C6.07 3.59 8.78 8.93 10.75 15.5 C11.53 23.3 11.71 32 6.62 38.44 C2.83 42.14 0.05 43.32 -5.25 43.5 C-10.5 43.4 -13.48 42.13 -17.41 38.71 C-22.2 33.55 -23.38 27.25 -23.29 20.39 C-22.45 13.39 -20.42 6.67 -15 2 C-10.43 -0.69 -5.15 -0.79 0 0 Z " fill="#FCFDFF" transform="translate(446,1008)"/>
<path d="M0 0 C5.45 2.52 7.51 5.75 10 11 C11.92 18.58 12.42 28.04 9.09 35.28 C6.91 38.72 4.67 41.16 1 43 C-4.96 44.33 -9.78 43.59 -15 40.44 C-18.79 37.5 -21.24 34.82 -22 30 C-22.62 21.93 -23.05 14.18 -19 7 C-13.12 0.82 -8.52 -0.92 0 0 Z " fill="#FCFDFF" transform="translate(288,1008)"/>
<path d="M0 0 C1.06 0 2.13 0.01 3.22 0.01 C5.94 0.31 5.94 0.31 7.94 2.31 C8.18 5.06 8.18 5.06 8.16 8.6 C8.16 9.24 8.17 9.89 8.17 10.55 C8.16 12.68 8.15 14.81 8.13 16.95 C8.13 18.42 8.13 19.9 8.12 21.38 C8.12 25.27 8.1 29.16 8.07 33.04 C8.05 37.01 8.05 40.98 8.04 44.95 C8.01 52.74 7.98 60.52 7.94 68.31 C5.29 68.34 2.65 68.36 0 68.38 C-0.75 68.38 -1.51 68.39 -2.29 68.4 C-4.21 68.41 -6.14 68.36 -8.06 68.31 C-9.86 66.51 -9.21 63.8 -9.22 61.37 C-9.23 60.1 -9.24 58.83 -9.25 57.52 C-9.26 56.12 -9.26 54.72 -9.27 53.32 C-9.27 51.89 -9.28 50.47 -9.28 49.04 C-9.29 46.05 -9.3 43.05 -9.3 40.06 C-9.31 36.22 -9.33 32.38 -9.36 28.54 C-9.38 25.59 -9.38 22.65 -9.39 19.7 C-9.39 18.28 -9.4 16.87 -9.41 15.45 C-9.43 13.47 -9.42 11.49 -9.42 9.51 C-9.42 8.38 -9.43 7.26 -9.43 6.1 C-9.06 3.31 -9.06 3.31 -7.72 1.45 C-5.19 -0.29 -3.02 -0.05 0 0 Z " fill="#00386E" transform="translate(534.0625,994.6875)"/>
<path d="M0 0 C3.8 3.04 5.52 7.51 6.1 12.22 C6.21 14.8 6.22 17.36 6.19 19.94 C6.2 20.81 6.21 21.68 6.22 22.58 C6.2 28.5 5.49 33.01 1.28 37.52 C-3.63 41.27 -5.91 42.38 -12.19 41.88 C-17.02 40.14 -20.88 37.84 -24.19 33.88 C-25.04 29.48 -24.84 25.03 -24.81 20.56 C-24.84 19.35 -24.88 18.14 -24.91 16.89 C-24.92 6.93 -24.92 6.93 -21.43 2.64 C-15.14 -3.32 -7.36 -4.91 0 0 Z " fill="#FCFDFF" transform="translate(371.1875,1010.125)"/>
<path d="M0 0 C0.99 0.5 0.99 0.5 2 1 C2.46 2.78 2.46 2.78 2.81 4.94 C3.26 7.11 3.26 7.11 4 9 C6.3 10.14 6.3 10.14 9 11 C12.59 14.06 14.74 16.8 15.75 21.44 C14.72 26.32 12.93 29.83 9 33 C4.66 34.09 0.58 33.11 -3.75 32.31 C-7.77 31.93 -8.84 32.55 -12 35 C-13.06 35.94 -14.13 36.87 -15.19 37.81 C-29.4 50.16 -47.54 54.68 -66 55 C-66.66 54.67 -67.32 54.34 -68 54 C-68 53.34 -68 52.68 -68 52 C-67.04 51.79 -66.08 51.58 -65.1 51.37 C-47.76 47.44 -33.05 40.36 -18 31 C-18.29 30.09 -18.29 30.09 -18.58 29.16 C-20.22 22.96 -20.01 18.95 -17.26 13.12 C-14.16 7.89 -9.42 6.16 -3.99 4.03 C-1.67 3.03 -1.67 3.03 0 0 Z " fill="#00386E" transform="translate(708,852)"/>
<path d="M0 0 C1.19 0.01 2.38 0.02 3.6 0.03 C4.52 0.04 5.43 0.05 6.38 0.06 C7.78 2.87 7.49 5.2 7.49 8.35 C7.49 8.99 7.49 9.64 7.49 10.3 C7.49 12.43 7.48 14.56 7.47 16.7 C7.47 18.17 7.47 19.65 7.47 21.13 C7.46 25.02 7.45 28.91 7.44 32.79 C7.43 36.76 7.43 40.73 7.42 44.7 C7.41 52.49 7.4 60.27 7.38 68.06 C4.9 68.09 2.42 68.11 -0.06 68.12 C-0.77 68.13 -1.48 68.14 -2.21 68.15 C-4.01 68.16 -5.82 68.11 -7.62 68.06 C-8.62 67.06 -8.62 67.06 -8.75 64.44 C-8.74 63.27 -8.74 62.1 -8.74 60.89 C-8.74 60.25 -8.74 59.6 -8.74 58.94 C-8.74 56.8 -8.73 54.66 -8.72 52.53 C-8.72 51.05 -8.72 49.57 -8.72 48.09 C-8.71 44.19 -8.7 40.3 -8.69 36.4 C-8.68 32.42 -8.68 28.45 -8.67 24.47 C-8.66 16.67 -8.65 8.87 -8.62 1.06 C-5.74 -0.38 -3.21 -0.03 0 0 Z " fill="#00386E" transform="translate(834.625,994.9375)"/>
<path d="M0 0 C1.08 -0 2.15 -0.01 3.26 -0.01 C5.88 0.12 5.88 0.12 6.88 1.12 C6.97 3.21 6.99 5.3 6.99 7.39 C6.99 8.04 6.99 8.7 6.99 9.37 C6.99 11.54 6.98 13.71 6.97 15.88 C6.97 17.38 6.97 18.88 6.97 20.38 C6.96 24.34 6.95 28.3 6.94 32.25 C6.93 36.29 6.93 40.32 6.92 44.36 C6.91 52.28 6.9 60.2 6.88 68.12 C4.4 68.15 1.92 68.17 -0.56 68.19 C-1.27 68.2 -1.98 68.2 -2.71 68.21 C-4.51 68.22 -6.32 68.18 -8.12 68.12 C-9.12 67.12 -9.12 67.12 -9.25 64.5 C-9.24 63.33 -9.24 62.16 -9.24 60.95 C-9.24 60.31 -9.24 59.67 -9.24 59 C-9.24 56.86 -9.23 54.73 -9.22 52.59 C-9.22 51.11 -9.22 49.63 -9.22 48.15 C-9.21 44.26 -9.2 40.36 -9.19 36.46 C-9.18 32.49 -9.18 28.51 -9.17 24.54 C-9.16 16.73 -9.15 8.93 -9.12 1.12 C-5.87 0.04 -3.42 -0.01 0 0 Z " fill="#00386E" transform="translate(226.125,994.875)"/>
<path d="M0 0 C1.08 0.02 2.15 0.03 3.26 0.05 C5.88 0.25 5.88 0.25 6.88 1.25 C6.97 3.34 6.99 5.43 6.99 7.51 C6.99 8.17 6.99 8.82 6.99 9.49 C6.99 11.66 6.98 13.83 6.97 16 C6.97 17.5 6.97 19.01 6.97 20.51 C6.96 24.46 6.95 28.42 6.94 32.38 C6.93 36.41 6.93 40.45 6.92 44.48 C6.91 52.4 6.9 60.33 6.88 68.25 C4.4 68.28 1.92 68.3 -0.56 68.31 C-1.27 68.32 -1.98 68.33 -2.71 68.34 C-4.51 68.35 -6.32 68.3 -8.12 68.25 C-9.92 66.45 -9.27 63.74 -9.29 61.31 C-9.3 60.04 -9.31 58.77 -9.32 57.46 C-9.32 56.06 -9.32 54.66 -9.33 53.26 C-9.33 51.83 -9.34 50.41 -9.35 48.98 C-9.36 45.98 -9.36 42.99 -9.37 40 C-9.37 36.16 -9.39 32.32 -9.42 28.48 C-9.44 25.53 -9.45 22.58 -9.45 19.64 C-9.45 18.22 -9.46 16.8 -9.47 15.39 C-9.49 13.41 -9.49 11.43 -9.48 9.45 C-9.49 8.32 -9.49 7.2 -9.49 6.03 C-9.12 3.25 -9.12 3.25 -7.78 1.38 C-5.24 -0.36 -3.04 -0.07 0 0 Z " fill="#00386E" transform="translate(1124.125,994.75)"/>
<path d="M0 0 C5.67 0.42 11.36 2 16.12 5.17 C17.51 6.99 17.51 6.99 18.12 9.17 C17.33 11.61 17.33 11.61 15.93 14.17 C15.26 15.44 15.26 15.44 14.58 16.73 C11.82 21.34 11.82 21.34 10.12 23.17 C4.86 24.35 0.09 22.86 -4.88 21.17 C-7.96 21.39 -9.59 21.98 -12.17 23.69 C-16.86 26.25 -21.68 25.79 -26.88 25.17 C-30.04 24.17 -32.07 23.02 -34.88 21.17 C-36.29 16.93 -34.88 14.63 -33.19 10.62 C-30.81 6.17 -27.7 3.78 -22.88 2.17 C-20.1 3.13 -20.1 3.13 -16.94 4.54 C-12.03 6.72 -12.03 6.72 -6.88 8.17 C-6.61 7.59 -6.34 7.01 -6.07 6.42 C-5.67 5.68 -5.28 4.93 -4.88 4.17 C-4.35 3.02 -4.35 3.02 -3.82 1.86 C-1.88 0.17 -1.88 0.17 0 0 Z " fill="#00386E" transform="translate(240.87890625,875.83203125)"/>
<path d="M0 0 C2.92 1.07 5.25 2.38 7.82 4.13 C9.13 4.99 9.13 4.99 10.46 5.86 C13.21 8.57 13.54 10.11 13.57 13.94 C12.46 16.86 12.46 16.86 10.82 19.69 C10.29 20.63 9.76 21.58 9.21 22.55 C7.57 24.94 7.57 24.94 4.57 26.94 C-0.38 26.83 -3.54 24.83 -7.5 22.1 C-9.48 20.91 -11.17 20.38 -13.43 19.94 C-13.71 20.73 -14 21.51 -14.3 22.32 C-15.43 24.94 -15.43 24.94 -17.43 26.94 C-24.82 27.91 -30.4 27.36 -36.43 22.94 C-36.76 22.61 -37.09 22.28 -37.43 21.94 C-37.29 15.43 -34.64 11.76 -30.43 6.94 C-29.93 6.37 -29.44 5.79 -28.94 5.2 C-27.43 3.94 -27.43 3.94 -24.11 4 C-20.16 5.01 -17.78 6.7 -14.43 8.94 C-10.55 8.69 -8.96 6.63 -6.49 3.82 C-5.84 3.07 -5.19 2.33 -4.52 1.56 C-2.43 -0.06 -2.43 -0.06 0 0 Z " fill="#00386E" transform="translate(609.42578125,872.05859375)"/>
<path d="M0 0 C2.85 0.86 4.87 1.99 7.32 3.67 C8.09 4.18 8.86 4.69 9.65 5.22 C11.64 6.79 11.64 6.79 13.64 9.79 C13.27 13.75 11.75 17.03 10.07 20.61 C9.62 21.58 9.16 22.56 8.7 23.56 C8.35 24.3 8 25.03 7.64 25.79 C10.31 28 12.98 30.02 15.89 31.92 C18.64 33.79 18.64 33.79 19.64 35.79 C19.7 42.37 18.66 47.54 14.64 52.79 C11.34 54.05 9.92 53.9 6.59 52.65 C5.04 51.82 5.04 51.82 3.45 50.98 C1.88 50.17 1.88 50.17 0.28 49.34 C-2.36 47.79 -2.36 47.79 -4.36 45.79 C-4.26 41.64 -3.01 39.08 -0.74 35.73 C1.31 32.64 1.31 32.64 1.7 28.98 C0.12 25.74 -1.95 24.51 -5.11 22.9 C-10.07 20.31 -10.07 20.31 -11.7 17.47 C-12.75 13.22 -10.89 10.87 -8.86 7.18 C-4.13 -0.36 -4.13 -0.36 0 0 Z " fill="#00386E" transform="translate(814.36328125,732.20703125)"/>
<path d="M0 0 C2.2 1.74 2.94 2.65 3.43 5.46 C3.44 13.61 1.79 20.38 -1 28 C-1.37 29.14 -1.75 30.28 -2.13 31.45 C-3.22 34.5 -4.29 37.25 -6 40 C-9.19 40.88 -9.19 40.88 -13 41 C-15.63 42.36 -18.07 43.92 -20.57 45.5 C-27.48 49.76 -33.99 51.15 -42.06 51.25 C-43.27 51.28 -44.48 51.3 -45.72 51.33 C-49.22 50.98 -50.66 50.59 -53 48 C-53 46.68 -53 45.36 -53 44 C-51.73 44.05 -50.47 44.09 -49.16 44.14 C-36.49 44.67 -36.49 44.67 -25 40 C-24.04 39.42 -23.08 38.84 -22.1 38.25 C-16.75 35.01 -16.75 35.01 -12 31 C-12.37 27.86 -13.03 24.88 -13.81 21.81 C-14.1 15.87 -12.42 9.89 -8.54 5.25 C-5.96 3.05 -3.12 1.32 0 0 Z " fill="#00376D" transform="translate(481,704)"/>
<path d="M0 0 C-6.67 14.1 -22.86 18.83 -36.47 24.01 C-51.38 29.83 -65.9 36.76 -79 46 C-79.66 45.67 -80.32 45.34 -81 45 C-80.74 40.77 -79.04 37.93 -76.18 34.86 C-66.03 26.18 -51.87 21.92 -39.66 16.87 C-31.97 13.69 -24.33 10.44 -16.81 6.88 C-16.06 6.52 -15.31 6.17 -14.53 5.8 C-2.1 -0.18 -2.1 -0.18 0 0 Z " fill="#00386E" transform="translate(1233,730)"/>
<path d="M0 0 C0.99 0.5 0.99 0.5 2 1 C2.56 4.12 2.39 6.29 0.86 9.09 C-10.28 24.46 -27.71 30.92 -45.7 34.25 C-55.37 35.79 -65.23 35.85 -75 36 C-73.51 35.5 -73.51 35.5 -72 35 C-72 34.34 -72 33.68 -72 33 C-62.81 29.98 -53.64 27.11 -44.25 24.79 C-26.15 20.31 -11.85 15.21 0 0 Z " fill="#00376D" transform="translate(979,703)"/>
<path d="M0 0 C3 1.62 3 1.62 4 3.62 C4.73 7.92 3.78 10.47 1.56 14.06 C-4.55 22.59 -13.69 28.52 -24 30.62 C-26.33 30.66 -28.67 30.67 -31 30.62 C-31.33 29.3 -31.66 27.99 -32 26.62 C-28.99 25.08 -26.01 23.63 -22.88 22.38 C-15.65 19.32 -8.35 15.43 -3 9.62 C-10.94 6.98 -17.44 9.84 -25 12.62 C-25.76 9.91 -26.17 8.17 -25.31 5.45 C-23.76 3.28 -22.47 2.54 -20.06 1.44 C-19.37 1.11 -18.68 0.79 -17.97 0.46 C-12.05 -2.04 -6.02 -2.46 0 0 Z " fill="#00386E" transform="translate(212,751.375)"/>
<path d="M0 0 C0.99 0.33 1.98 0.66 3 1 C0.36 10.98 -3.58 19.89 -8.09 29.13 C-9.25 31.51 -10.35 33.9 -11.44 36.31 C-11.72 36.95 -12.01 37.58 -12.31 38.24 C-13.74 41.9 -14.14 45.14 -14.12 49.06 C-14.13 49.92 -14.13 50.78 -14.13 51.66 C-14.09 54.16 -14.09 54.16 -13 57 C-10.5 58.7 -10.5 58.7 -8 60 C-7.9 59.07 -7.79 58.14 -7.69 57.19 C-6.99 53.97 -6.52 52.97 -4 51 C-1.52 54.73 -1.62 56.59 -2 61 C-3.31 63.75 -3.31 63.75 -5 66 C-5.41 66.6 -5.83 67.2 -6.25 67.81 C-9.14 69.78 -11.62 69.36 -15 69 C-17.97 67.56 -18.81 66.4 -20.25 63.44 C-23.53 48.41 -16.95 35.07 -10.1 22.1 C-8.18 18.43 -6.34 14.71 -4.5 11 C-3.82 9.65 -3.15 8.29 -2.47 6.94 C-1.98 5.97 -1.5 5 -1 4 C-0.34 4 0.32 4 1 4 C0.67 2.68 0.34 1.36 0 0 Z " fill="#00386E" transform="translate(43,709)"/>
<path d="M0 0 C3.65 1.25 4.78 1.67 7 5 C7.23 8.07 7.23 8.07 7.19 11.56 C7.18 12.72 7.17 13.88 7.17 15.07 C7 18 7 18 6 20 C5.34 20 4.68 20 4 20 C1 14.25 1 14.25 1 12 C-3.9 14.28 -5.66 17.45 -7.81 22.19 C-8.12 22.84 -8.44 23.5 -8.76 24.17 C-9.52 25.77 -10.26 27.39 -11 29 C-16.4 27.34 -17.74 24.65 -20.38 19.9 C-21.88 17.7 -21.88 17.7 -24.69 17.73 C-25.45 17.82 -26.21 17.91 -27 18 C-27.92 13.28 -28.23 10.33 -26 6 C-21.97 6.28 -20.26 6.78 -17.12 9.44 C-15 12 -15 12 -15 14 C-13.35 14.33 -11.7 14.66 -10 15 C-9.7 14.34 -9.39 13.67 -9.08 12.99 C-6.61 7.77 -4.4 3.77 0 0 Z " fill="#00386E" transform="translate(1059,720)"/>
<path d="M0 0 C2.7 2.04 3.98 3.64 5.31 6.75 C5.5 9.19 5.5 9.19 4.31 11.75 C1.34 15 -1.74 17.33 -6.09 18.27 C-12.29 18.53 -18.4 17.05 -23.69 13.75 C-24.97 11.61 -24.97 11.61 -25.69 9.75 C-18.74 1.77 -10.57 -4.91 0 0 Z " fill="#FCFDFF" transform="translate(724.6875,782.25)"/>
<path d="M0 0 C0.99 0.31 1.98 0.62 3 0.94 C5 2 5 2 5.89 3.71 C6.06 7.35 4.01 8.95 1.69 11.62 C0.46 13.07 0.46 13.07 -0.8 14.54 C-2.16 16.06 -3.56 17.56 -5 19 C-11.1 18.65 -16.76 17.12 -22 14 C-20.23 7.56 -17.52 2 -12.25 -2.19 C-7.52 -3.37 -4.38 -1.84 0 0 Z " fill="#00386E" transform="translate(1218,868)"/>
<path d="M0 0 C4.93 0.15 9.18 3.08 13 6 C15 9 15 9 14.81 11.31 C13.15 16.81 10.19 21.27 7 26 C4.87 24.88 2.75 23.75 0.62 22.62 C0.02 22.31 -0.58 21.99 -1.2 21.66 C-3.79 20.29 -5.92 19.08 -8 17 C-8.89 12.45 -7.58 9.96 -5.12 6.25 C-3.51 3.96 -1.98 1.98 0 0 Z " fill="#00386E" transform="translate(479,817)"/>
<path d="M0 0 C0.99 0 1.98 0 3 0 C4.83 4.58 6.09 9.1 5 14 C3.61 16.34 2.07 18.36 0.31 20.43 C-1.11 21.79 -1.11 21.79 -1 23 C4.67 22.38 10.34 21.72 16 21 C14.49 24.83 12.41 26.73 9 29 C3.21 31.32 -2.83 31.64 -9 31 C-11.33 29.98 -11.33 29.98 -13 29 C-11.82 22.28 -7.03 19.07 -2 15 C-2.39 13.8 -2.78 12.61 -3.19 11.38 C-4.08 7.89 -4.04 7.11 -2.69 3.56 C-1 1 -1 1 0 0 Z " fill="#01376D" transform="translate(929,874)"/>
<path d="M0 0 C1.38 0.01 2.77 0.04 4.15 0.07 C4.85 0.08 5.56 0.09 6.29 0.1 C8.03 0.12 9.78 0.16 11.52 0.2 C13.12 3.38 12.63 6.82 12.59 10.32 C12.58 11.07 12.58 11.83 12.57 12.61 C12.56 14.47 12.54 16.33 12.52 18.2 C9.71 18.22 6.9 18.24 4.09 18.26 C3.28 18.27 2.48 18.27 1.65 18.28 C-0.39 18.29 -2.43 18.25 -4.48 18.2 C-6.46 16.21 -5.66 12.46 -5.66 9.76 C-5.68 9.06 -5.69 8.37 -5.7 7.65 C-5.71 5.83 -5.6 4.01 -5.48 2.2 C-3.48 0.2 -3.48 0.2 0 0 Z " fill="#00386E" transform="translate(1119.4765625,961.8046875)"/>
<path d="M0 0 C1.89 0.01 1.89 0.01 3.81 0.02 C5.07 0.01 6.33 0.01 7.62 0 C10.81 0.27 10.81 0.27 12.81 2.27 C12.96 5.01 13 7.65 12.94 10.39 C12.93 11.14 12.92 11.9 12.91 12.68 C12.89 14.54 12.85 16.4 12.81 18.27 C10 18.29 7.19 18.31 4.38 18.33 C3.57 18.34 2.77 18.34 1.94 18.35 C-0.1 18.36 -2.14 18.32 -4.19 18.27 C-6.17 16.28 -5.37 12.53 -5.38 9.83 C-5.39 9.13 -5.4 8.44 -5.41 7.72 C-5.42 5.9 -5.31 4.08 -5.19 2.27 C-3.19 0.27 -3.19 0.27 0 0 Z " fill="#00386E" transform="translate(830.1875,961.734375)"/>
<path d="M0 0 C0.66 0.33 1.32 0.66 2 1 C1.21 7.62 -3.08 10.88 -8 15 C-16.01 20.57 -24.31 26.06 -34.25 26.81 C-35.27 26.9 -36.28 26.99 -37.33 27.08 C-40 27 -40 27 -43 25 C-42.51 23.51 -42.51 23.51 -42 22 C-39.84 21.11 -39.84 21.11 -36.94 20.31 C-24.96 16.57 -13.95 10.62 -4 3 C-2.67 2 -1.33 1 0 0 Z " fill="#00386E" transform="translate(1088,862)"/>
<path d="M0 0 C1.28 0.01 2.56 0.02 3.88 0.03 C4.87 0.04 5.86 0.05 6.88 0.06 C8.47 3.25 7.98 6.69 7.94 10.19 C7.93 10.94 7.93 11.7 7.92 12.47 C7.91 14.34 7.89 16.2 7.88 18.06 C5.23 18.09 2.58 18.11 -0.06 18.12 C-0.82 18.13 -1.57 18.14 -2.35 18.15 C-4.27 18.16 -6.2 18.11 -8.12 18.06 C-9.12 17.06 -9.12 17.06 -9.22 13.46 C-9.22 11.98 -9.2 10.49 -9.19 9 C-9.18 8.24 -9.18 7.48 -9.17 6.7 C-9.16 4.82 -9.14 2.94 -9.12 1.06 C-6.12 -0.44 -3.33 -0.03 0 0 Z " fill="#00386E" transform="translate(534.125,961.9375)"/>
<path d="M0 0 C1.9 0.02 1.9 0.02 3.84 0.04 C5.74 0.05 5.74 0.05 7.69 0.06 C10.78 0.23 10.78 0.23 11.78 1.23 C11.85 4.09 11.87 6.93 11.84 9.79 C11.84 10.6 11.83 11.41 11.83 12.24 C11.81 14.23 11.8 16.23 11.78 18.23 C9.13 18.26 6.49 18.28 3.84 18.29 C3.09 18.3 2.33 18.31 1.55 18.32 C-0.37 18.33 -2.3 18.28 -4.22 18.23 C-6.2 16.25 -5.41 12.5 -5.41 9.79 C-5.42 9.1 -5.43 8.4 -5.45 7.69 C-5.45 5.87 -5.34 4.05 -5.22 2.23 C-3.22 0.23 -3.22 0.23 0 0 Z " fill="#00386E" transform="translate(221.22265625,961.76953125)"/>
<path d="M0 0 C3.41 2.43 5.68 4.52 8 8 C8 9.98 8 11.96 8 14 C0.08 14 -7.84 14 -16 14 C-17 10 -17 10 -15.31 6.94 C-11.07 1.55 -6.99 -0.82 0 0 Z " fill="#FCFDFF" transform="translate(963,1007)"/>
<path d="M0 0 C4.89 3.58 5.9 7.54 6.88 13.38 C-1.38 13.38 -9.62 13.38 -18.12 13.38 C-19.12 10.38 -19.12 10.38 -17.88 7.38 C-13.87 0.5 -7.98 -2.35 0 0 Z " fill="#FCFDFF" transform="translate(141.125,1007.625)"/>
<path d="M0 0 C4.44 2.37 7.6 5.36 11.06 8.94 C11.58 9.46 12.1 9.99 12.63 10.53 C13.63 11.55 14.63 12.57 15.63 13.6 C16.86 14.85 18.11 16.09 19.37 17.32 C21 19 21 19 21 20 C18.44 20.05 15.88 20.09 13.31 20.12 C12.59 20.14 11.87 20.16 11.13 20.18 C7.01 20.21 3.57 20.17 0 18 C-1.48 14.87 -0.93 11.8 -0.56 8.44 C-0.26 5.59 0 2.87 0 0 Z " fill="#FCFDFF" transform="translate(738,783)"/>
<path d="M0 0 C1.82 1.57 1.82 1.57 3 3 C-8.88 9.48 -8.88 9.48 -14 9 C-17.53 6.81 -20.37 4.21 -23 1 C-23 0.34 -23 -0.32 -23 -1 C-15.84 -3.39 -7.11 -2.18 0 0 Z " fill="#FCFDFF" transform="translate(949,812)"/>
<path d="M0 0 C2.32 1.7 3.05 3.45 3.67 6.22 C-2.99 7.72 -9.62 8.33 -16.02 5.72 C-16.78 5.23 -17.55 4.73 -18.33 4.22 C-18.08 1.85 -18.08 1.85 -17.33 -0.78 C-12.09 -5.01 -5.35 -2.89 0 0 Z " fill="#FCFDFF" transform="translate(424.33203125,782.77734375)"/>
<path d="M0 0 C4.15 1.8 7.3 3.48 9.23 7.68 C9.48 8.44 9.74 9.21 10 10 C-3.21 10.39 -3.21 10.39 -9 8 C-9.66 7.01 -10.32 6.02 -11 5 C-8.52 -0.49 -5.93 -0.57 0 0 Z " fill="#FCFDFF" transform="translate(535,815)"/>
<path d="M0 0 C2.29 1.84 3.38 3.46 5 6 C5 6.99 5 7.98 5 9 C-1.31 7.89 -6.38 6.07 -12 3 C-12 2.34 -12 1.68 -12 1 C-8.24 -1.66 -4.21 -1.45 0 0 Z " fill="#FCFDFF" transform="translate(1067,816)"/>
<path d="M0 0 C3.15 0.34 4.61 0.58 6.81 2.94 C8 5 8 5 8 7 C1.25 6.12 1.25 6.12 -1 5 C-0.67 3.35 -0.34 1.7 0 0 Z " fill="#FCFDFF" transform="translate(707,870)"/>
<path d="M0 0 C0.66 0.33 1.32 0.66 2 1 C2 2.65 2 4.3 2 6 C0.35 6.33 -1.3 6.66 -3 7 C-3.66 5.68 -4.32 4.36 -5 3 C-2.62 1.44 -2.62 1.44 0 0 Z " fill="#FCFDFF" transform="translate(700,866)"/>
<path d="M0 0 C0.99 0.33 1.98 0.66 3 1 C3.12 4.38 3.12 4.38 3 8 C2.34 8.66 1.68 9.32 1 10 C1 9.01 1 8.02 1 7 C0.34 7 -0.32 7 -1 7 C-0.67 4.69 -0.34 2.38 0 0 Z " fill="#FCFDFF" transform="translate(475,715)"/>
</svg>
