<?xml version="1.0" encoding="utf-8"?>
<!-- Generator: Adobe Illustrator 23.0.5, SVG Export Plug-In . SVG Version: 6.00 Build 0)  -->
<svg version="1.1" xmlns="http://www.w3.org/2000/svg" xmlns:xlink="http://www.w3.org/1999/xlink" x="0px" y="0px"
	 viewBox="0 0 1000 1000" style="enable-background:new 0 0 1000 1000;" xml:space="preserve">
<style type="text/css">
	.st0{fill:#F9F9F3;stroke:#111111;stroke-width:0.25;stroke-miterlimit:10;}
	.st1{fill:#FFFFFF;}
	.st2{fill:#DFBDA7;}
	.st3{fill:#111111;}
	.st4{fill:#F9F9F3;}
	.st5{fill:#80B568;}
	.st6{fill:#28396E;}
	.st7{fill:#383838;}
</style>
<g id="Layer_1">
</g>
<g id="Layer_2">
	<g>
		<path class="st0" d="M173.43,433.66c0,33.28,6,65.29,17.06,95.17l80.48,0.02c-14.19-29-22.11-61.23-22.11-95.2
			c0-25.75,4.55-50.5,12.93-73.6l-78.44,0.5C176.88,383.95,173.43,408.44,173.43,433.66z"/>
		<path class="st0" d="M483.01,135.82c-133.86,0-248.13,79.58-293.2,191.61h78.56l-0.01,0.03
			c39.35-73.15,118.08-123.07,208.78-123.07c130.08,0,235.52,102.65,235.52,229.27S607.22,662.93,477.14,662.93
			c-78.32,0-147.71-37.21-190.53-94.46l-83.17,0.52c51.92,96.47,157.62,162.51,279.56,162.51c173.28,0,313.75-133.35,313.75-297.84
			S656.29,135.82,483.01,135.82z"/>
	</g>
	<polygon class="st1" points="189.81,327.43 189.81,327.44 189.81,327.43 	"/>
	<polygon class="st1" points="178.79,360.56 178.79,360.56 178.79,360.55 	"/>
	<path class="st0" d="M445.8,572.32h-45.55v117.12c16.5-15.03,31.71-32.25,45.55-51.81V572.32z"/>
	<path class="st2" d="M368.75,574.91h-44.59l0,167.46c16.06-6.82,30.96-15.48,44.59-26.18L368.75,574.91z"/>
	<path class="st2" d="M281.2,568.5l-35.18,0.22l0.83,199.31c9.84-2.08,23.54-5.78,38.25-9.9L281.2,568.5z"/>
	<path class="st0" d="M382.38,400.63c37.37,23.73,61,78.34,58.78,125.19h-44.59C397.12,480.15,394.11,435.54,382.38,400.63z"/>
	<path class="st2" d="M379.52,400.63c-40.5,34.91-56.18,80.44-55.37,125.19h44.59C364.06,478.68,369.86,438.39,379.52,400.63z"/>
	<path class="st2" d="M284.2,528.85h-39c12.29-74.67,48.39-127.21,134.32-131C318.87,430.68,282.87,473.39,284.2,528.85z"/>
	<path class="st0" d="M494.67,531.15h-12.06c1.09-41.33-20.93-106.38-100.23-133.29c46.17,1.13,89.83,11.86,122,66.65"/>
	<polygon class="st0" points="428.75,371.92 428.75,388.56 470.68,396.47 	"/>
	<g>
		<polygon class="st4" points="425.75,356.9 472.94,358.9 425.75,360.9 		"/>
	</g>
	<polygon class="st0" points="412.15,337.15 424.01,350.38 461.68,319.13 	"/>
	<g>
		<line class="st3" x1="405.91" y1="328.83" x2="436.52" y2="300.4"/>
		<polygon class="st4" points="404.55,327.37 436.52,300.4 407.27,330.3 		"/>
	</g>
	<polygon class="st0" points="385.25,267.31 395.79,325.94 375.2,325.94 	"/>
	<g>
		<line class="st3" x1="363.56" y1="327.88" x2="335.68" y2="298.97"/>
		<polygon class="st4" points="362.13,329.26 335.68,298.97 365,326.49 		"/>
	</g>
	<polygon class="st0" points="357.84,337.22 345.36,350.04 305.65,316.31 	"/>
	<g>
		<line class="st3" x1="341.93" y1="359.72" x2="299.47" y2="360.06"/>
		<polygon class="st4" points="341.94,361.72 299.47,360.06 341.91,357.72 		"/>
	</g>
	<polygon class="st0" points="342.06,375.04 342.06,391.42 301.65,397.63 	"/>
	<path class="st2" d="M383.88,332.44c-20.32,5.05-33,28.77-31.64,51.75l31.64,0V332.44z"/>
	<path class="st0" d="M387.97,332.44l0,51.75l32.32,0C420.29,360.95,411.92,339.89,387.97,332.44z"/>
	<g>
		<path class="st2" d="M741.76,191.07l-62.78-41.23l-25.56,33.7l45.97,35.44L741.76,191.07z M685.12,182.98
			c0-6.89,5.59-12.48,12.48-12.48c6.89,0,12.48,5.59,12.48,12.48s-5.59,12.48-12.48,12.48C690.7,195.46,685.12,189.87,685.12,182.98
			z"/>
		<path class="st2" d="M712.42,444.15l121.48,21.26l-10.64-78.28l-111.59,29.53L712.42,444.15z M809.24,413.79
			c6.89,0,12.48,5.59,12.48,12.48c0,6.89-5.59,12.48-12.48,12.48c-6.89,0-12.48-5.59-12.48-12.48
			C796.76,419.38,802.35,413.79,809.24,413.79z"/>
		<path class="st2" d="M636.55,606.09l54.21,107.92l60.09-58.62l-93.14-70.17L636.55,606.09z M707.15,649.61
			c7.43,0,13.45,5.81,13.45,12.97s-6.02,12.97-13.45,12.97c-7.43,0-13.45-5.81-13.45-12.97S699.73,649.61,707.15,649.61z"/>
	</g>
	<path class="st5" d="M472.94,223.92c6.55-2.84,13.1-5.69,19.65-8.53c3.06-1.33,6.13-2.62,9.18-3.98c2.87-1.28,5.58-3,8.63-3.86
		c4.11-1.16,8.35-0.08,12.4,0.8c4.6,1,9.17,2.14,13.72,3.36c8.98,2.43,17.85,5.23,26.67,8.17
		c64.13,24.61,116.18,78.36,137.85,143.62c20.05,60.4,13.75,128.2-17.71,183.54c-12.55,22.07-28.83,41.98-47.98,58.64
		c-19.92,17.33-42.87,31.06-67.49,40.58c-26.87,10.39-55.55,15.71-84.32,16.46c-2.18,0.06-21.05-1.2-21.49-0.26
		c37.91-80.53,80.79-163.87,76.89-220.63C522.94,357.97,503.97,279.67,472.94,223.92z"/>
	<path class="st6" d="M295.22,146.43c148.46,63.32,276.94,27.16,390.93-81.25c33.07,2.17-112.03,120.06-213.2,158.74
		c28.02,51.33,52.08,133.35,65.99,217.92c25.82-80.72,104.32-145.73,234.29-190.13C558.57,356.45,555.3,482.45,523.12,560.73
		C465.92,706.34,360.56,745.1,230.83,771.3C544.66,715.64,618.3,295.08,295.22,146.43z"/>
	<g>
		<path class="st7" d="M292.23,781.26c0.89-0.89,2-1.33,3.33-1.33c0.59,0,1.26,0.15,2.07,0.44c0.74,0.22,1.33,0.59,1.78,1.11
			l7.18,10.29l2.37,2.81c0.89,1.04,1.7,1.78,2.59,2.22l-3.41,11.33c-1.11-0.52-2.81-0.96-5.18-1.41c-2.3-0.37-4.37-0.52-6.22-0.59
			c-4.74,0-8.07,0.59-10.15,1.85c0.15,1.33,0.37,3.04,0.74,5.11c0.3,2,0.52,3.78,0.67,5.48c0.15,1.63,0.3,3.63,0.59,6.07
			c0.22,2.37,0.3,4,0.37,5.04c0,1.48-0.15,2.52-0.52,3.26c-0.3,0.67-0.67,1.33-1.19,2c-0.37,0.67-1.04,1.56-2.15,2.81
			c0-2.52-0.15-5.18-0.44-8l-0.96-7.04c-0.22-2-0.44-3.93-0.74-5.85c-0.15-1.78-0.37-3.56-0.74-5.48l-0.52-4.67
			c0-3.85,1.33-6.3,4.15-7.48s5.11-1.93,6.96-2.37c1.78-0.37,3.7-0.52,5.78-0.59c-0.74-1.7-1.7-3.04-3.04-4
			c-1.04-0.67-2.22-0.96-3.63-1.04c-1.33,0-2.74,0.59-4.22,1.78c-1.48,1.11-2.67,2.74-3.56,4.89c0-1.56,0.22-3.11,0.74-4.67
			c0.44-1.56,1.11-3.11,2.07-4.81c0.89-1.63,1.78-3.04,2.67-4.22C290.45,783.11,291.26,782.15,292.23,781.26z"/>
		<path class="st7" d="M323.93,798.07c2.96-7.93,5.7-11.63,8.22-11.26c1.85,0.3,3.41,1.7,4.81,4.22c1.33,2.44,2.3,4.67,2.89,6.74
			c0.59,2,0.89,4.22,0.89,6.67h4.22v11.11h-4.81c-0.3,1.26-0.59,2.37-1.04,3.41c-4.96,14.44-12.74,17.33-26.66,9.78
			c-0.74-0.37-1.11-0.67-1.11-1.04c0-0.3,0.44-0.44,1.48-0.52l5.11,0.59c3.26,0,6.74-1.33,10.44-4.07c3.63-2.67,5.85-5.33,6.74-8.15
			c-1.33,0-2.22,0-2.81-0.07c-0.44,0-1.41-0.15-2.96-0.44c-1.41-0.22-3.04-0.74-4.89-1.63c-1.78-0.89-2.67-2.89-2.67-6.07
			C321.78,805.11,322.45,802.07,323.93,798.07z M335.11,804.44c-0.22-2.07-0.81-3.85-1.85-5.48c-0.96-1.56-1.93-2.3-3.04-2.37
			c-1.48,0-2.67,1.26-3.56,3.85c0,0.44,0,0.74,0.07,1.04c0.07,0.22,0.22,0.52,0.59,0.89c0.3,0.3,0.96,0.67,2.07,1.11
			c1.04,0.37,1.93,0.59,2.74,0.81C332.89,804.37,333.85,804.37,335.11,804.44z"/>
		<path class="st7" d="M359.7,804.44v11.11h-14.74v-11.11H359.7z"/>
		<path class="st7" d="M374.44,804.44v11.11H359.7v-11.11H374.44z"/>
		<path class="st7" d="M400.37,802.07c0,1.56,0.74,2.3,2.37,2.37h5.56v11.11h-4.22c-2.15,0-3.63-1.19-4.52-3.63
			c0,0.74,0,1.26-0.15,1.63c-0.15,0.15-0.3,0.37-0.44,0.81c-0.15,0.37-0.3,0.74-0.52,1.19h-24v-11.11h20.59c0-1.11,0-1.93-0.15-2.44
			c-0.07-0.52-0.3-1.26-0.74-2.3c-0.3-0.89-0.67-1.85-1.18-2.89c-0.44-0.96-0.96-2-1.7-3.19l5.18-10.29c1.18,2.67,2,5.18,2.44,7.63
			c0.45,2.37,0.82,4.44,1.11,6.22C400.22,798.96,400.29,800.59,400.37,802.07z M383.26,820.59l7.48,7.7l-5.93,6.96l-7.63-7.85
			L383.26,820.59z M396.07,820.59l7.41,7.7l-5.85,6.96L390,827.4L396.07,820.59z"/>
		<path class="st7" d="M428.29,786c1.04-0.89,2.15-1.63,3.48-2.22c1.19-0.59,2.3-0.89,3.48-0.96c1.26,0,2.37,0.52,3.41,1.63
			c1.04,1.04,1.78,2.74,2.37,5.11c0.07,0.81,0.15,1.7,0.37,2.67c0.15,0.89,0.22,1.78,0.22,2.74c0,1.56-0.22,3.11-0.82,4.74
			c-0.52,1.56-1.48,3.11-2.89,4.74h7.11v11.11h-36.74v-11.11h9.85c-0.22-0.52-0.3-1.19-0.37-2.07c0-1.33,0.3-2.89,1.04-4.74
			c0.67-1.78,1.93-3.78,3.93-6.07C424.66,789.34,426.51,787.48,428.29,786z M422.81,763.49l7.48,7.63l-6.07,7.11l-7.48-7.93
			L422.81,763.49z M434.14,801.41c0-2.07-0.3-3.93-0.96-5.56c-0.59-1.63-1.33-2.44-2.3-2.52c-1.26,0-2.59,0.59-4.15,1.78
			c-1.48,1.11-2.67,2.67-3.63,4.81c0.89,1.48,1.7,2.59,2.59,3.48c0.82,0.81,1.78,1.19,3.04,1.26c0.96,0,1.93-0.3,3.04-1.04
			C432.81,802.96,433.55,802.22,434.14,801.41z"/>
		<path class="st7" d="M460.21,815.55h-15.18v-11.11h10.74c0-4.15-0.37-9.04-1.26-14.81c-0.81-5.7-1.33-9.41-1.63-11.11
			c-0.15-1.7-0.3-3.33-0.52-4.89l-0.96-2.81l4.37-8.67c0.44,1.56,0.89,2.81,1.41,3.85c0.44,0.96,1.04,2.07,1.93,3.48
			c0.82,1.26,2.07,2.22,3.78,3.04l-3.92,6.44l1.33,12.29l0.67,9.11c0.07,0.37,0.07,0.67,0.15,1.04l0.07,2.37l-0.22,6.67
			c-0.07,0.89-0.15,1.78-0.3,2.74C460.58,814,460.44,814.74,460.21,815.55z"/>
		<path class="st7" d="M464.81,776.6l6.44-11.78c0,2.15,0.22,6.37,0.82,12.67c0.52,6.22,0.89,10.74,1.26,13.63
			c0.67,6.3-0.59,19.48-4.59,23.78c0-2.67-0.22-6-0.74-10.07c-0.44-4-0.74-7.04-1.04-9.26L464.81,776.6z"/>
		<path class="st7" d="M508.58,779.71l5.78-9.92l1.63,10.22l1.85,12.44l1.33,8.22c0.52,1.48,1.26,2.52,2.22,3.11
			c0.67,0.15,1.26,0.3,1.92,0.52c0.59,0.07,1.26,0.07,2.15,0.15h1.56v11.11h-8.44c-1.33,0-2.15-0.3-2.59-0.89
			c-0.15-0.15-0.3-0.37-0.59-0.67c-0.15-0.3-0.3-0.81-0.44-1.56l-0.81-3.93l-1.04-4.89l-1.33,1.78l-0.74,1.63l-1.26,2.74
			c-0.15,0.44-0.3,0.89-0.59,1.48c-0.15,0.44-0.37,0.74-0.81,1.04c-0.3,0.52-0.74,0.74-1.48,0.81l-7.48-1.85
			c-4.3-1.04-7.18-1.56-8.81-1.56l0.52-3.33l1.04-4.59c0.3-0.96,0.52-1.78,0.82-2.52c0.22-0.67,0.59-1.7,1.18-3.19
			c0.59-1.41,1.19-2.59,1.85-3.56c0.67-0.96,1.41-1.85,2.37-2.81c0.89-0.89,2.37-2.07,4.52-3.56c2.07-1.48,4.15-2.59,6.22-3.48
			L508.58,779.71z M496.58,762.15l4.89,6l-5.04,5.48l-4.74-6.07L496.58,762.15z M509.1,790.82c-2,0.74-3.85,1.7-5.63,2.89
			c-1.7,1.19-2.96,2.67-3.92,4.52c2.44,1.41,5.11,2.07,8.07,2.15c1.04,0,1.85-0.07,2.52-0.37c0.67-0.22,1.04-0.37,1.26-0.59
			c0.15-0.15,0.37-0.37,0.67-0.81l-1.78-10.44L509.1,790.82z M506.21,762.15l4.89,6l-4.89,5.48l-4.96-5.93L506.21,762.15z"/>
		<path class="st7" d="M541.77,804.44v11.11h-14.74v-11.11H541.77z"/>
		<path class="st7" d="M556.5,804.44v11.11h-14.74v-11.11H556.5z"/>
		<path class="st7" d="M561.62,798.59l3.63-9.11c0.52-1.26,1.7-2.3,3.63-3.19c1.93-0.81,4-1.19,6.22-1.26
			c2.22,0,4.67,0.81,7.41,2.52c2.67,1.63,4,3.93,4.07,6.96l-0.07,0.96c-0.22,1.78-0.37,2.81-0.52,3.11c0,0.22-0.22,0.81-0.81,1.78
			c-0.45,0.89-1.33,2.22-2.74,4.07h7.78v11.11h-10.07c-0.37,0-0.89-0.15-1.56-0.44c-0.59-0.3-1.04-0.81-1.48-1.56
			c-0.15,0.44-0.67,0.89-1.56,1.41c-0.81,0.37-1.48,0.52-2.07,0.59H556.5v-11.11h16.07c0.3-0.3,0.44-0.67,0.52-1.19
			c0-1.11-0.96-2.15-3.04-3.19C568.06,799.11,565.24,798.67,561.62,798.59z"/>
		<path class="st7" d="M616.28,815.55l-14.67-6.81c-0.15,0-0.3,0.07-0.52,0.37c-0.15,0.22-0.22,0.67-0.37,1.33
			c-0.15,0.3-0.3,0.67-0.44,1.26c-0.15,0.52-0.37,1.04-0.67,1.56c-0.3,0.44-0.67,0.89-1.18,1.48c-0.44,0.44-1.04,0.67-1.93,0.81
			h-6.3v-11.11h8.67c1.93-5.33,4-9.85,6.37-13.7c2.37-3.78,4.96-5.63,7.85-5.7c0.44,0,1.11,0.07,2.07,0.37c0.96,0,2.3,2.52,4,7.7
			c1.7,5.04,2.52,8.96,2.59,11.85c0,0.67-0.74,2.52-2.22,5.63C618.06,813.55,617.02,815.18,616.28,815.55z M616.72,804.74
			c-0.15-1.48-0.44-2.81-0.89-4.07c-0.3-1.26-0.74-2.52-1.48-3.78c-0.59-1.26-1.26-2-2.15-2.37c-0.82-0.3-1.41-0.44-1.78-0.52
			c-0.89,0-1.7,0.44-2.52,1.33c-0.74,0.81-1.26,1.48-1.63,2.07c-0.3,0.52-0.59,1.33-1.04,2.44l2.81,1.48
			c0.89,0.44,1.78,0.89,2.81,1.33c1.04,0.37,2,0.74,2.89,1.11L616.72,804.74z"/>
		<path class="st7" d="M629.69,762.82c0.44,3.11,0.74,5.78,1.04,8c0.15,2.15,0.22,4.52,0.3,7.11l1.26,18.89
			c0,2.15,0.07,3.78,0.3,5.04c0.22,1.11,0.44,1.78,0.81,2.15c0.3,0.07,0.74,0.15,1.41,0.3c0.59,0.07,0.96,0.07,1.26,0.15h3.11v11.11
			h-9.11c-0.89,0-1.63-0.37-2.37-1.26c-0.37-0.59-0.67-1.63-0.96-3.18c-0.22-2.44-0.37-4.59-0.59-6.52
			c-0.07-1.93-0.07-3.85-0.15-5.93l-1.04-16.29c0-1.56-0.15-3.33-0.44-5.48c-0.3-2.07-0.44-3.56-0.59-4.59l3.11-5.26L629.69,762.82z
			"/>
		<path class="st7" d="M653.91,804.44v11.11h-14.74v-11.11H653.91z"/>
		<path class="st7" d="M660.72,798.67c0.96-4.59,2.22-7.55,3.92-8.96c1.63-1.33,2.89-2.22,3.85-2.74c0.96-0.44,2-0.67,3.26-0.74
			c1.19,0,2.67,0.3,4.44,0.96c1.78,0.59,3.93,1.78,6.59,3.7l6.15,4.15c1.48,0.96,3.04,1.93,4.81,2.89c1.63,0.89,4.59,1.63,8.89,2.3
			l-4.96,9.33c-1.19-0.52-2.37-0.89-3.7-1.11c-1.18-0.15-2.52-0.22-4.15-0.3c-2.44,0-4.81,0.37-7.18,1.11
			c-2.3,0.74-4.67,1.93-7.11,3.7c-2.37,1.7-4.52,2.52-6.44,2.59h-15.18v-11.11h17.18c0.67,0,1.33-0.07,2-0.22
			c0.67-0.15,1.7-0.44,3.11-0.89l4-1.26c-2.37-1.48-4.67-2.67-6.96-3.7c-2.22-0.96-4.37-1.41-6.44-1.48
			C664.5,796.89,662.5,797.48,660.72,798.67z M678.35,819.92l7.41,7.55l-5.93,7.26l-7.41-7.78L678.35,819.92z"/>
		<path class="st7" d="M286.84,853.96h24.24v5.92h-17.14v7.86h15.1v5.92h-15.1v14.82h-7.1V853.96z"/>
		<path class="st7" d="M337.08,888.47h-7.01c-0.52-0.71-0.76-1.56-0.71-2.56c-1.33,1.28-2.51,2.13-3.55,2.65
			c-1.33,0.66-2.89,0.99-4.69,0.99c-5.26,0-7.77-2.65-7.58-7.91c0.19-4.59,2.65-7.29,7.43-8.1c2.42-0.09,4.64-0.47,6.68-1.18
			c1.18-0.43,1.71-1.37,1.66-2.89c-0.05-1.56-1.51-2.32-4.36-2.32c-2.75,0-4.21,1.37-4.36,4.17h-6.25c0.05-5.97,3.6-8.95,10.61-8.95
			c2.51,0,4.5,0.33,6.06,0.95c3.08,1.28,4.59,3.65,4.59,7.2v14.02c0,1.14,0.47,2.13,1.47,3.03V888.47z M329.31,876.4
			c-0.8,0.47-1.85,0.8-3.13,0.99c-0.99,0.14-2.04,0.24-3.03,0.38c-1.75,0.33-3.03,1.61-3.03,3.27c0,0.76,0.19,1.42,0.62,1.94
			c0.52,0.8,1.42,1.18,2.7,1.18c0.38,0,0.81-0.05,1.23-0.09c3.08-0.52,4.64-2.56,4.64-6.2V876.4z"/>
		<path class="st7" d="M339.02,862.81h7.34l5.54,18.66l5.35-18.66h6.82l-10.89,30.97c-0.28,1.18-0.95,2.27-1.94,3.27
			c-1.18,1.18-4.07,1.8-8.66,1.8v-5.4c3.6,0.33,5.68-1.04,5.68-3.55c0-0.47-0.09-0.95-0.24-1.42L339.02,862.81z"/>
		<path class="st7" d="M370.37,886.44c-2.51-2.32-3.79-5.78-3.79-10.46s1.28-8.14,3.79-10.46c2.27-2.08,5.21-3.13,8.85-3.13
			c3.65,0,6.58,1.04,8.85,3.13c2.51,2.32,3.79,5.78,3.79,10.46s-1.28,8.14-3.79,10.46c-2.27,2.08-5.21,3.13-8.85,3.13
			C375.57,889.56,372.64,888.52,370.37,886.44z M374.49,870.96c-0.8,1.47-1.23,3.13-1.23,5.02c0,1.89,0.43,3.55,1.23,5.02
			c1.09,1.94,2.65,2.89,4.73,2.89c2.08,0,3.65-0.95,4.74-2.89c0.8-1.47,1.23-3.13,1.23-5.02c0-1.89-0.43-3.55-1.23-5.02
			c-1.09-1.94-2.65-2.89-4.74-2.89C377.14,868.07,375.57,869.01,374.49,870.96z"/>
		<path class="st7" d="M419.75,862.81v25.66h-6.63v-3.17h-0.09c-1.42,2.46-3.5,3.88-6.25,4.26c-2.79-0.05-4.88-0.47-6.3-1.28
			c-2.42-1.37-3.6-3.93-3.6-7.62v-17.85h6.63v15.91c0,1.66,0.19,2.84,0.57,3.46c0.66,1.18,2.08,1.66,4.21,1.52
			c2.98-0.24,4.59-1.66,4.83-4.31v-16.57H419.75z"/>
		<path class="st7" d="M432.39,888.47h-6.63v-25.66h6.63v3.83h0.09c0.99-1.47,1.94-2.56,2.84-3.17c1.09-0.8,2.32-1.18,3.74-1.18
			c0.43,0,0.85,0.05,1.28,0.09c1.47,0.19,2.65,0.62,3.55,1.23c0.52,0.38,1.37,1.23,2.51,2.51c0.9-1.23,1.75-2.13,2.56-2.7
			c1.18-0.81,2.7-1.18,4.5-1.18c0.62,0,1.23,0.05,1.94,0.14c4.36,0.57,6.53,3.31,6.53,8.29v17.8h-6.63v-17.66
			c0-1.66-1.09-2.56-3.31-2.7c-1.56-0.09-2.84,0.43-3.74,1.56c-0.71,0.9-1.09,1.94-1.09,3.08v15.72h-6.63v-17.66
			c-0.38-1.75-1.61-2.65-3.65-2.7c-1.23-0.05-2.27,0.33-3.13,1.09c-0.9,0.85-1.37,2.04-1.37,3.55V888.47z"/>
		<path class="st7" d="M498.16,853.96h7.1v23.82c0,4.88-2.18,8.33-6.49,10.37c-1.99,0.95-4.36,1.42-7.05,1.42
			c-2.41,0-4.64-0.38-6.68-1.14c-4.78-2.65-7.15-6.2-7.15-10.65v-23.82h7.1v23.91c0,3.69,2.18,5.54,6.53,5.54
			c4.4,0,6.63-1.85,6.63-5.54V853.96z"/>
		<path class="st7" d="M511.52,888.47v-25.66h6.63v3.88h0.09c1.28-2.65,3.69-4.31,6.3-4.31c6.58,0,9.85,2.98,9.85,8.9v17.19h-6.63
			v-15.25c0-1.52-0.24-2.65-0.71-3.36c-0.71-1.09-2.08-1.61-4.07-1.61c-3.22,0-4.83,1.42-4.83,4.31v15.91H511.52z"/>
		<path class="st7" d="M540.59,859.88v-5.92h6.63v5.92H540.59z M540.59,888.47v-25.66h6.63v25.66H540.59z"/>
		<path class="st7" d="M551.24,862.81h7.01l5.35,18.8l5.35-18.8h7.01l-8.9,25.66h-6.96L551.24,862.81z"/>
		<path class="st7" d="M584.67,877.73c-0.19,1.75,0.09,3.13,0.81,4.12c1.14,1.56,2.65,2.37,4.5,2.37c2.32,0,4.54-1.42,4.92-2.98
			h6.53c-0.52,2.37-2.08,4.36-4.59,6.01c-2.32,1.56-4.69,2.32-7.1,2.32c-2.46,0-4.69-0.66-6.68-1.94c-2.32-1.52-3.88-3.55-4.59-6.11
			c-0.24-0.76-0.38-1.8-0.47-3.13c-0.14-1.85-0.09-3.69,0.24-5.49c1.18-7.01,5.02-10.51,11.55-10.51c4.4,0,7.62,1.7,9.75,5.07
			c1.47,2.37,2.22,5.16,2.22,8.38c0,0.52,0,1.14-0.05,1.89H584.67z M594.85,873.28c0-3.41-1.56-5.21-4.64-5.35
			c-1.85-0.09-3.31,0.47-4.31,1.7c-0.85,0.99-1.28,2.23-1.23,3.65H594.85z"/>
		<path class="st7" d="M606.22,888.47v-25.66h6.63v4.97h0.09c0.43-1.52,1.47-2.84,3.08-4.02c1.37-0.99,2.65-1.47,3.83-1.47
			c0.28,0,0.57,0.05,0.9,0.09v6.77c-0.95-0.09-1.7-0.14-2.27-0.14c-3.27,0-5.16,1.66-5.63,5.02v14.44H606.22z"/>
		<path class="st7" d="M629.56,880.95c0.43,1.37,1.14,2.32,2.13,2.84c0.71,0.33,1.89,0.62,3.65,0.81c1.33,0.14,2.37-0.05,3.08-0.62
			c0.62-0.52,0.95-1.14,0.95-1.94c0-1.23-0.57-1.99-1.66-2.32l-8.24-2.37c-3.6-1.04-5.45-3.13-5.49-6.25
			c-0.05-2.84,0.99-5.07,3.13-6.72c1.61-1.23,3.88-1.89,6.77-1.99c3.17-0.09,5.82,0.52,7.95,1.89c2.51,1.66,3.79,3.93,3.79,6.82
			h-6.39c-0.05-0.9-0.19-1.56-0.43-1.99c-0.33-0.52-0.99-0.95-2.04-1.28c-0.9-0.28-1.71-0.43-2.46-0.43c-0.99,0-1.99,0.24-2.89,0.76
			c-0.71,0.38-1.04,0.99-1.04,1.8c0,0.85,0.52,1.42,1.56,1.7l9.56,2.6c1.28,0.33,2.37,1.04,3.27,2.13c1,1.18,1.52,2.56,1.52,4.07
			c0,1.61-0.38,3.13-1.14,4.5c-0.99,1.8-2.46,3.03-4.4,3.74c-1.85,0.62-3.98,0.9-6.44,0.85c-2.41-0.05-4.31-0.38-5.63-0.99
			c-3.65-1.61-5.54-4.17-5.63-7.62H629.56z"/>
		<path class="st7" d="M651.15,859.88v-5.92h6.63v5.92H651.15z M651.15,888.47v-25.66h6.63v25.66H651.15z"/>
		<path class="st7" d="M661.81,863.33h3.27v-6.96h6.63v6.96h3.69v4.4h-3.69v14.44c0,1.47,0.38,2.23,1.09,2.23l2.51,0.05v4.5
			c-1.09,0.38-2.18,0.57-3.17,0.62c-4.21,0.19-6.53-1.52-7.05-5.11v-16.71h-3.27V863.33z"/>
		<path class="st7" d="M677.34,862.81h7.34l5.54,18.66l5.35-18.66h6.82l-10.89,30.97c-0.28,1.18-0.95,2.27-1.94,3.27
			c-1.18,1.18-4.07,1.8-8.66,1.8v-5.4c3.6,0.33,5.68-1.04,5.68-3.55c0-0.47-0.09-0.95-0.24-1.42L677.34,862.81z"/>
	</g>
</g>
</svg>
