<?xml version="1.0" encoding="UTF-8"?>
<!-- Generator: visioncortex VTracer 0.6.3 -->
<svg version="1.1" xmlns="http://www.w3.org/2000/svg" width="1280" height="640">
<path d="M0 0 C0.87 0.46 1.74 0.93 2.64 1.4 C24.06 13.55 39.92 34.01 46.79 57.64 C53.31 82.2 49.8 108.64 37.11 130.62 C34.1 135.43 30.72 139.73 27 144 C26.54 144.6 26.09 145.2 25.62 145.81 C12.41 162.84 -11.14 173.27 -32 176 C-44.3 176.67 -56.12 176.48 -68 173 C-68.99 172.73 -69.97 172.47 -70.99 172.19 C-84.26 168.24 -95.8 161.3 -106 152 C-107.06 151.06 -107.06 151.06 -108.14 150.11 C-125.04 134.3 -135.2 110.79 -136.24 87.83 C-136.87 62.03 -129.08 38.35 -111.25 19.34 C-110.5 18.57 -109.76 17.8 -109 17 C-108.35 16.29 -107.7 15.58 -107.04 14.84 C-80.16 -13.74 -33.63 -17.97 0 0 Z " fill="#0C0403" transform="translate(229,163)"/>
<path d="M0 0 C0.63 1.9 1.18 3.82 1.69 5.75 C5.64 18.96 12.36 28.48 22 38 C22.79 38.79 23.59 39.58 24.4 40.4 C33.68 49.19 44.66 56.08 56.02 61.84 C58 63 58 63 59 65 C52.81 64.47 47.31 63.45 41.44 61.44 C40.67 61.18 39.89 60.91 39.1 60.64 C21.02 54.29 5.53 44.53 -8 31 C-7.46 37.74 -6.12 43.67 -3.94 50.06 C-3.63 50.98 -3.32 51.89 -3 52.83 C3.12 70.34 12.16 85.55 25 99 C25.53 99.6 26.05 100.2 26.6 100.82 C41.6 117.29 64.78 124.92 86.23 127.57 C89 128 89 128 90 129 C90.09 131.21 90.12 133.42 90.11 135.63 C90.11 136.32 90.11 137.02 90.11 137.73 C90.11 140.03 90.11 142.33 90.1 144.63 C90.1 146.22 90.09 147.81 90.09 149.4 C90.09 153.59 90.08 157.79 90.07 161.98 C90.06 166.26 90.05 170.53 90.05 174.81 C90.04 183.21 90.02 191.6 90 200 C85.4 200.08 81.3 200.08 76.82 198.93 C75.9 198.7 74.98 198.46 74.03 198.22 C73.07 197.96 72.11 197.7 71.12 197.44 C70.12 197.17 69.11 196.9 68.07 196.62 C40.68 189.09 16.99 176.08 -4 157 C-4.69 156.39 -5.37 155.77 -6.08 155.14 C-35.28 127.57 -48.61 83.09 -50.16 44.06 C-50.55 29.3 -50.49 14.58 -48 0 C-3.42 -1.71 -3.42 -1.71 0 0 Z " fill="#0C0403" transform="translate(78,284)"/>
<path d="M0 0 C6.68 -0.03 13.35 -0.04 20.03 -0.05 C22.3 -0.06 24.57 -0.07 26.84 -0.08 C30.1 -0.09 33.36 -0.09 36.62 -0.1 C37.64 -0.1 38.67 -0.11 39.72 -0.11 C40.66 -0.11 41.6 -0.11 42.57 -0.11 C43.4 -0.12 44.24 -0.12 45.1 -0.12 C47 0 47 0 48 1 C48.23 2.69 48.4 4.38 48.54 6.07 C48.67 7.65 48.67 7.65 48.8 9.26 C50.44 30.67 50.44 30.67 50 40 C49.96 40.9 49.92 41.79 49.88 42.72 C47.98 80.59 38.13 121.61 11.06 149.85 C9.2 151.79 7.55 153.79 5.88 155.88 C-15.5 180.24 -50.74 195.15 -82 201 C-84.33 201.03 -86.67 201.03 -89 201 C-90.26 187.69 -90.15 174.36 -90.13 161 C-90.12 157.09 -90.13 153.17 -90.14 149.26 C-90.14 146.78 -90.13 144.3 -90.13 141.82 C-90.13 140.65 -90.14 139.47 -90.14 138.27 C-90.14 137.19 -90.13 136.12 -90.13 135.02 C-90.13 134.07 -90.13 133.12 -90.13 132.15 C-90 130 -90 130 -89 129 C-87.13 128.7 -85.25 128.41 -83.38 128.15 C-62.67 125.2 -43.65 117.07 -28 103 C-27.4 102.47 -26.81 101.95 -26.19 101.4 C-10.28 86.45 -0.99 66.65 5 46 C5.51 44.3 5.51 44.3 6.03 42.57 C7.2 38.48 8 35.28 8 31 C7.38 31.64 6.76 32.28 6.12 32.94 C5.09 33.96 4.04 34.98 3 36 C2.33 36.67 1.66 37.33 0.97 38.02 C-14.39 52.63 -37.75 64.33 -59 66 C-58 63 -58 63 -55.84 61.78 C-54.88 61.36 -53.92 60.94 -52.94 60.5 C-47.46 57.89 -42.54 54.83 -37.56 51.38 C-36.55 50.67 -36.55 50.67 -35.52 49.96 C-29.62 45.81 -24.48 41.63 -19.82 36.11 C-18.68 34.79 -17.5 33.5 -16.28 32.27 C-12.14 28 -9.41 23.39 -6.75 18.12 C-6.42 17.48 -6.09 16.83 -5.75 16.16 C-3.94 12.43 -2.55 8.72 -1.39 4.74 C-0.99 3.4 -0.99 3.4 -0.59 2.04 C-0.4 1.37 -0.2 0.69 0 0 Z " fill="#0C0403" transform="translate(296,283)"/>
<path d="M0 0 C18.84 7.6 34.44 20.11 49 34 C49.79 34.74 50.58 35.48 51.4 36.24 C80.23 63.9 96.96 107.17 98.11 146.72 C98.17 150.25 98.19 153.78 98.19 157.3 C98.19 159.5 98.21 161.69 98.22 163.88 C98.23 165.3 98.23 166.73 98.23 168.16 C98.23 169.42 98.24 170.69 98.24 171.99 C98 176 98 176 96 186 C81.15 186 66.3 186 51 186 C50.9 180.93 50.79 175.85 50.69 170.62 C49.89 141.63 44.7 112.2 23.06 91.06 C21 89 21 89 20 86 C18.23 84.99 18.23 84.99 16 84 C12.93 82 9.91 79.94 6.88 77.88 C4.61 76.4 2.43 75.18 0 74 C-1.1 28.5 -1.1 28.5 -1.12 12.25 C-1.13 11.21 -1.13 10.16 -1.14 9.09 C-1.14 8.16 -1.13 7.23 -1.13 6.27 C-1.13 5.48 -1.13 4.69 -1.13 3.88 C-1 2 -1 2 0 0 Z " fill="#0C0403" transform="translate(246,79)"/>
<path d="M0 0 C0.28 9.51 0.49 19.02 0.62 28.53 C0.68 32.95 0.77 37.36 0.91 41.78 C1.04 46.05 1.11 50.31 1.14 54.58 C1.16 56.2 1.2 57.83 1.27 59.45 C1.46 64.54 1.45 69.09 0 74 C-3.56 77.71 -7.48 79.68 -12 82 C-31.13 97.25 -42.52 117.84 -46 142 C-46.56 148.87 -46.39 155.74 -46.25 162.62 C-46.23 164.42 -46.21 166.22 -46.2 168.02 C-46.15 172.34 -46.08 176.67 -46 181 C-56.32 181.69 -66.59 182.16 -76.94 182.12 C-78.66 182.13 -78.66 182.13 -80.41 182.14 C-82.05 182.13 -82.05 182.13 -83.71 182.13 C-84.69 182.13 -85.66 182.13 -86.66 182.13 C-89 182 -89 182 -91 181 C-92.42 172.73 -92.24 164.3 -92.25 155.94 C-92.25 155.19 -92.25 154.44 -92.25 153.66 C-92.21 127.47 -88.27 102.21 -78 78 C-77.71 77.31 -77.42 76.62 -77.11 75.9 C-63.13 43.38 -38.86 18.83 -8 2 C-7.35 1.63 -6.69 1.26 -6.02 0.87 C-4 0 -4 0 0 0 Z " fill="#0C0403" transform="translate(122,80)"/>
<path d="M0 0 C0.93 -0 1.86 -0.01 2.82 -0.01 C5.37 -0.01 7.92 -0.01 10.46 -0.01 C11.55 -0.01 11.55 -0.01 12.67 -0.01 C17.51 0.01 17.51 0.01 18.62 1.12 C18.85 2.93 19.02 4.74 19.16 6.56 C19.25 7.68 19.33 8.81 19.42 9.97 C19.51 11.15 19.6 12.34 19.69 13.56 C19.82 15.29 19.82 15.29 19.96 17.05 C20.47 23.76 20.75 30.4 20.62 37.12 C18.98 37.45 17.32 37.78 15.62 38.12 C15.04 36.52 15.04 36.52 14.44 34.88 C13.84 33.29 13.23 31.71 12.62 30.12 C12.25 29.11 11.87 28.1 11.49 27.06 C11.08 26.01 10.67 24.96 10.25 23.88 C9.87 22.88 9.49 21.88 9.1 20.86 C6.86 16.71 4.19 14.73 -0.18 13.03 C-3.34 12.13 -5.92 11.85 -9.2 11.81 C-10.33 11.79 -11.47 11.77 -12.64 11.75 C-14.41 11.73 -14.41 11.73 -16.21 11.71 C-17.85 11.68 -17.85 11.68 -19.53 11.66 C-23.6 11.59 -27.68 11.55 -31.75 11.5 C-40.87 11.38 -49.98 11.25 -59.38 11.12 C-59.38 32.25 -59.38 53.37 -59.38 75.12 C-52.82 75.02 -46.26 74.92 -39.5 74.81 C-37.45 74.79 -35.4 74.76 -33.29 74.74 C-31.63 74.7 -29.98 74.67 -28.32 74.64 C-27.49 74.63 -26.65 74.62 -25.79 74.62 C-18.88 74.45 -11.73 73.45 -5.94 69.44 C-2.11 63.77 -0.97 57.84 -0.38 51.12 C1.61 51.12 3.58 51.12 5.62 51.12 C6.39 65.1 6.73 79.06 6.75 93.06 C6.75 93.8 6.75 94.55 6.76 95.31 C6.76 97.43 6.76 99.54 6.76 101.65 C6.76 102.88 6.76 104.1 6.75 105.36 C6.62 108.12 6.62 108.12 5.62 109.12 C3.96 109.17 2.29 109.17 0.62 109.12 C0.38 108.1 0.14 107.08 -0.11 106.02 C-0.45 104.66 -0.79 103.3 -1.12 101.94 C-1.28 101.26 -1.44 100.59 -1.6 99.9 C-2.74 95.41 -3.98 92.29 -7.38 89.12 C-13.62 86.24 -18.74 85.71 -25.56 85.83 C-26.51 85.84 -27.45 85.84 -28.42 85.84 C-31.41 85.86 -34.39 85.9 -37.38 85.94 C-39.41 85.95 -41.45 85.97 -43.48 85.98 C-48.45 86.01 -53.41 86.06 -58.38 86.12 C-58.27 94.55 -58.15 102.97 -58.04 111.39 C-57.98 115.31 -57.93 119.22 -57.88 123.13 C-57.83 126.9 -57.78 130.67 -57.72 134.45 C-57.7 135.89 -57.68 137.33 -57.67 138.77 C-57.64 140.79 -57.61 142.8 -57.58 144.82 C-57.56 146.54 -57.56 146.54 -57.53 148.3 C-57.49 151.2 -57.49 151.2 -56.38 154.12 C-50.29 156.22 -44.67 156.37 -38.29 156.21 C-37.34 156.19 -36.4 156.17 -35.42 156.15 C-33.44 156.11 -31.45 156.07 -29.47 156.01 C-26.45 155.94 -23.43 155.89 -20.42 155.84 C-18.48 155.8 -16.54 155.75 -14.6 155.71 C-13.71 155.69 -12.82 155.68 -11.9 155.67 C-1.65 155.35 6.78 152.38 13.94 144.81 C18.25 139.74 21.48 133.97 24.8 128.22 C26.62 125.12 26.62 125.12 27.62 124.12 C29.29 124.08 30.96 124.08 32.62 124.12 C32.07 129.74 31 134.72 29.19 140.05 C28.95 140.77 28.72 141.49 28.47 142.23 C27.97 143.72 27.47 145.22 26.96 146.72 C26.18 149.01 25.42 151.31 24.66 153.61 C24.17 155.07 23.68 156.53 23.19 157.99 C22.96 158.68 22.74 159.37 22.5 160.07 C21.51 162.98 20.83 164.92 18.62 167.12 C16.46 167.39 16.46 167.39 13.72 167.41 C12.17 167.43 12.17 167.43 10.58 167.45 C9.44 167.45 8.3 167.46 7.12 167.46 C5.92 167.47 4.73 167.48 3.49 167.5 C0.2 167.52 -3.09 167.55 -6.38 167.56 C-9.82 167.58 -13.26 167.61 -16.7 167.64 C-22.47 167.69 -28.25 167.72 -34.02 167.76 C-40.71 167.8 -47.39 167.85 -54.08 167.9 C-60.5 167.95 -66.92 168 -73.34 168.05 C-76.08 168.06 -78.81 168.08 -81.55 168.11 C-85.37 168.14 -89.19 168.16 -93 168.18 C-94.72 168.19 -94.72 168.19 -96.47 168.21 C-97.5 168.21 -98.53 168.22 -99.6 168.22 C-100.5 168.23 -101.41 168.23 -102.34 168.24 C-104.38 168.12 -104.38 168.12 -105.38 167.12 C-105.5 164.62 -105.5 164.62 -105.38 162.12 C-103.7 160.45 -101.49 160.88 -99.19 160.75 C-94.62 160.35 -91.18 159.88 -87.38 157.12 C-83.75 151.7 -83.96 146.69 -84.02 140.4 C-84.02 139.33 -84.01 138.27 -84.01 137.16 C-84.01 133.63 -84.03 130.09 -84.05 126.56 C-84.05 124.08 -84.05 121.61 -84.05 119.13 C-84.06 113.94 -84.07 108.74 -84.09 103.55 C-84.12 96.94 -84.13 90.34 -84.14 83.74 C-84.14 77.39 -84.16 71.04 -84.17 64.68 C-84.17 63.5 -84.18 62.31 -84.18 61.09 C-84.2 49.5 -84.29 37.92 -84.76 26.34 C-84.79 25.49 -84.82 24.64 -84.85 23.77 C-85.07 19.26 -85.45 15.28 -87.38 11.12 C-93.46 7.92 -99.58 7.49 -106.38 7.12 C-106.76 5.47 -107.09 3.8 -107.38 2.12 C-105.49 0.24 -102.23 0.95 -99.72 0.92 C-98.67 0.9 -98.67 0.9 -97.6 0.89 C-95.26 0.86 -92.92 0.83 -90.58 0.81 C-88.93 0.79 -87.28 0.77 -85.63 0.75 C-81.21 0.69 -76.79 0.64 -72.36 0.59 C-69.64 0.56 -66.91 0.53 -64.18 0.5 C-42.79 0.25 -21.4 0.03 0 0 Z " fill="#0C0403" transform="translate(476.375,164.875)"/>
<path d="M0 0 C0.15 5.55 0.29 11.09 0.43 16.64 C0.48 18.52 0.52 20.4 0.57 22.28 C0.82 31.61 1.05 40.94 1.09 50.28 C1.1 51.56 1.11 52.84 1.12 54.16 C1 57 1 57 0 58 C-1.67 58.04 -3.33 58.04 -5 58 C-5.35 56.46 -5.35 56.46 -5.7 54.89 C-8.72 41.86 -12.4 28.24 -23.77 19.99 C-33.71 13.9 -43.25 10.62 -55 12 C-62.47 13.89 -69.07 17.47 -73.32 24.04 C-76.45 30.22 -77.27 36.4 -75.41 43.13 C-69.06 58.09 -48.13 66.31 -34.8 73.61 C-24.07 79.5 -13.55 85.29 -4 93 C-3.31 93.53 -2.61 94.06 -1.9 94.6 C5.78 101.19 11.12 113.08 12 123 C12.1 124.1 12.1 124.1 12.2 125.23 C12.54 139.33 6.9 150.6 -2.54 160.7 C-8.38 166.15 -15.39 169.71 -23 172 C-23.94 172.31 -23.94 172.31 -24.9 172.62 C-42.14 177.41 -59.82 172.31 -76.17 166.73 C-79.93 165.76 -83.44 165.22 -87 167 C-87.73 169.31 -88.4 171.65 -89 174 C-90.67 174.04 -92.33 174.04 -94 174 C-95 173 -95 173 -95.12 170.75 C-95.12 169.76 -95.12 168.77 -95.11 167.75 C-95.11 166.62 -95.11 165.5 -95.11 164.35 C-95.11 162.52 -95.11 162.52 -95.1 160.65 C-95.1 159.41 -95.09 158.17 -95.09 156.89 C-95.09 153.58 -95.08 150.28 -95.07 146.97 C-95.06 143.6 -95.05 140.23 -95.05 136.86 C-95.04 130.24 -95.02 123.62 -95 117 C-91.25 115.88 -91.25 115.88 -89 117 C-88.29 119.5 -87.68 121.96 -87.12 124.5 C-83.99 137.73 -79.32 147.76 -67.66 155.46 C-56.79 161.75 -44.62 163.85 -32.23 161.47 C-24.45 159.03 -18.7 154.62 -14 148 C-11.06 142.12 -10.91 134.78 -12.72 128.5 C-18.36 114.99 -30.64 109 -42.94 102.31 C-83.62 79.78 -83.62 79.78 -93 64 C-93.41 63.32 -93.82 62.65 -94.24 61.95 C-98.98 52.47 -98.71 38.89 -95.44 28.94 C-89.56 15.69 -80.02 7.26 -66.65 2.09 C-51.03 -3 -35.24 0.07 -20.44 6.25 C-16.81 7.76 -13.97 8.87 -10 8 C-7.96 5.39 -7.05 3.14 -6 0 C-3.51 -1.25 -2.59 -0.78 0 0 Z " fill="#0C0403" transform="translate(978,158)"/>
<path d="M0 0 C1.12 -0 2.24 -0.01 3.39 -0.01 C5.21 -0.01 5.21 -0.01 7.07 -0 C8.31 -0 9.55 -0.01 10.83 -0.01 C13.46 -0.01 16.08 -0.01 18.71 -0 C22.08 0 25.45 0 28.83 -0 C32.03 -0.01 35.24 -0.01 38.45 -0 C39.67 -0.01 40.88 -0.01 42.14 -0.01 C43.81 -0 43.81 -0 45.52 0 C46.51 0 47.5 0 48.52 0 C50.76 0.13 50.76 0.13 51.76 1.13 C51.8 2.8 51.8 4.46 51.76 6.13 C50.81 6.23 49.86 6.33 48.88 6.43 C47.62 6.58 46.37 6.73 45.07 6.88 C43.83 7.02 42.59 7.16 41.31 7.3 C37.28 8.24 35.56 9.09 32.76 12.13 C30.01 18.18 29.33 23.13 29.36 29.72 C29.35 30.64 29.35 31.57 29.34 32.52 C29.32 35.56 29.32 38.6 29.32 41.64 C29.31 43.77 29.3 45.9 29.28 48.03 C29.24 53.63 29.22 59.23 29.21 64.83 C29.18 73.77 29.14 82.71 29.09 91.65 C29.07 94.75 29.07 97.86 29.06 100.96 C29 118.41 28.42 135.47 17.76 150.13 C17.33 150.72 16.9 151.32 16.46 151.93 C7.4 163.44 -6.26 168.5 -20.24 171.13 C-25 171.55 -29.71 171.61 -34.49 171.57 C-36.4 171.56 -36.4 171.56 -38.35 171.54 C-54.56 171.26 -68.62 167.93 -81.24 157.13 C-94.16 143.4 -97.26 127.7 -97.49 109.47 C-97.5 108.55 -97.52 107.63 -97.53 106.68 C-97.56 104.7 -97.59 102.72 -97.62 100.74 C-97.67 97.59 -97.72 94.44 -97.78 91.3 C-97.93 82.36 -98.08 73.42 -98.21 64.48 C-98.29 59 -98.39 53.51 -98.49 48.03 C-98.52 45.95 -98.56 43.87 -98.58 41.8 C-98.37 26.62 -98.37 26.62 -102.24 12.13 C-105.79 8.76 -109.79 8.52 -114.55 7.94 C-115.81 7.78 -117.06 7.62 -118.35 7.46 C-119.3 7.35 -120.26 7.24 -121.24 7.13 C-121.57 6.14 -121.9 5.15 -122.24 4.13 C-121.24 2.13 -121.24 2.13 -119.58 1.51 C-116.6 1.03 -113.75 1.01 -110.73 1.02 C-109.76 1.02 -109.76 1.02 -108.77 1.02 C-106.65 1.02 -104.53 1.02 -102.41 1.03 C-100.94 1.03 -99.46 1.04 -97.99 1.04 C-94.11 1.04 -90.24 1.05 -86.37 1.06 C-82.41 1.07 -78.46 1.08 -74.5 1.08 C-66.75 1.09 -58.99 1.11 -51.24 1.13 C-50.11 4.88 -50.11 4.88 -51.24 7.13 C-54.21 7.49 -57.17 7.57 -60.16 7.69 C-63.54 8.17 -65.42 9.28 -68.24 11.13 C-68.9 11.13 -69.56 11.13 -70.24 11.13 C-72.99 18.46 -73.4 25.64 -73.32 33.4 C-73.32 34.24 -73.31 35.07 -73.31 35.94 C-73.3 37.88 -73.28 39.82 -73.27 41.76 C-73.24 44.85 -73.22 47.93 -73.2 51.02 C-73.16 58.57 -73.09 66.11 -73 73.66 C-72.96 77.64 -72.92 81.63 -72.89 85.61 C-72.87 89.54 -72.82 93.46 -72.78 97.39 C-72.76 98.86 -72.75 100.33 -72.74 101.79 C-72.66 117.8 -71.92 137.02 -60.44 149.31 C-48.91 158.87 -35.49 159.32 -21.24 158.13 C-9.45 156.16 0.87 150.15 8.51 141 C17.3 127.88 16.2 110.74 16.12 95.61 C16.12 93.57 16.13 91.54 16.13 89.5 C16.13 85.27 16.12 81.03 16.1 76.79 C16.08 71.39 16.07 65.98 16.08 60.58 C16.08 56.39 16.08 52.2 16.07 48 C16.06 46.01 16.06 44.02 16.06 42.03 C16.98 25.49 16.98 25.49 11.82 10.5 C7.38 7.54 2.65 7.8 -2.52 7.51 C-5.24 7.13 -5.24 7.13 -7.24 5.13 C-6.45 -0.08 -4.99 0 0 0 Z " fill="#0C0403" transform="translate(812.23828125,161.87060546875)"/>
<path d="M0 0 C1.38 -0 1.38 -0 2.78 -0.01 C5.27 -0.01 7.76 -0.01 10.24 -0.01 C10.95 -0.01 11.65 -0.01 12.37 -0.01 C17.01 0.01 17.01 0.01 18.12 1.12 C19.49 9.04 19.46 17.11 19.69 25.12 C19.73 26.58 19.77 28.04 19.82 29.5 C19.92 33.04 20.03 36.58 20.12 40.12 C18.14 40.12 16.16 40.12 14.12 40.12 C13.92 39.13 13.71 38.15 13.5 37.12 C11.68 29.09 9.93 22.42 3.12 17.12 C-2.62 13.66 -8.69 13 -15.27 13.03 C-17.07 13.03 -17.07 13.03 -18.91 13.04 C-20.16 13.05 -21.4 13.05 -22.69 13.06 C-23.95 13.07 -25.22 13.07 -26.52 13.08 C-29.64 13.09 -32.76 13.1 -35.88 13.12 C-36.02 42.92 -35.86 72.72 -35.56 102.51 C-35.52 106.38 -35.48 110.25 -35.45 114.11 C-35.42 118.74 -35.37 123.37 -35.32 127.99 C-35.3 129.72 -35.28 131.44 -35.27 133.17 C-35.25 135.55 -35.23 137.94 -35.19 140.32 C-35.19 141.01 -35.19 141.7 -35.19 142.42 C-35.09 148.15 -34.67 153.38 -30.44 157.5 C-26.52 159.98 -23.23 160.35 -18.69 160.69 C-17.6 160.77 -16.51 160.86 -15.39 160.94 C-14.56 161 -13.73 161.06 -12.88 161.12 C-12.83 162.79 -12.83 164.46 -12.88 166.12 C-13.88 167.12 -13.88 167.12 -16.61 167.25 C-17.84 167.24 -19.06 167.24 -20.32 167.24 C-21.33 167.24 -21.33 167.24 -22.36 167.24 C-24.6 167.24 -26.83 167.23 -29.07 167.22 C-30.61 167.22 -32.16 167.22 -33.7 167.22 C-37.78 167.21 -41.85 167.2 -45.93 167.19 C-50.09 167.18 -54.24 167.18 -58.4 167.17 C-66.56 167.16 -74.72 167.15 -82.88 167.12 C-82.92 165.46 -82.92 163.79 -82.88 162.12 C-80.71 159.96 -75.89 160.74 -72.95 160.6 C-68.49 159.91 -65.8 158.38 -63.12 154.75 C-61.04 150.36 -60.75 146.25 -60.75 141.44 C-60.75 140.3 -60.75 139.17 -60.75 138 C-60.75 136.76 -60.76 135.53 -60.76 134.26 C-60.76 132.95 -60.76 131.64 -60.76 130.29 C-60.76 126.72 -60.77 123.14 -60.77 119.56 C-60.78 115.82 -60.78 112.07 -60.78 108.33 C-60.78 101.25 -60.79 94.17 -60.8 87.08 C-60.81 79.02 -60.82 70.95 -60.82 62.89 C-60.84 46.3 -60.85 29.71 -60.88 13.12 C-65.14 13.19 -69.41 13.28 -73.68 13.39 C-75.13 13.42 -76.58 13.45 -78.03 13.47 C-90.68 13.41 -90.68 13.41 -101.86 18.7 C-107.33 25.61 -109.41 32.54 -110.88 41.12 C-112.54 41.17 -114.21 41.17 -115.88 41.12 C-116.88 40.12 -116.88 40.12 -116.91 37.72 C-116.87 36.67 -116.83 35.62 -116.79 34.54 C-116.75 33.38 -116.7 32.22 -116.66 31.03 C-116.6 29.8 -116.55 28.57 -116.5 27.31 C-116.46 26.13 -116.41 24.95 -116.37 23.73 C-116.07 16.17 -115.53 8.66 -114.88 1.12 C-28.11 0.03 -28.11 0.03 0 0 Z " fill="#0C0403" transform="translate(1124.875,159.875)"/>
<path d="M0 0 C23.1 0 46.2 0 70 0 C70 1.65 70 3.3 70 5 C68.57 5.16 68.57 5.16 67.11 5.33 C65.23 5.57 65.23 5.57 63.31 5.81 C62.07 5.96 60.83 6.11 59.55 6.27 C56.03 6.99 53.87 7.87 51 10 C47.55 16.38 47.87 23.63 47.93 30.68 C47.94 31.64 47.94 32.6 47.95 33.59 C47.96 35.67 47.97 37.74 47.99 39.82 C48.01 43.12 48.02 46.42 48.03 49.73 C48.07 59.12 48.11 68.51 48.17 77.9 C48.21 83.65 48.23 89.4 48.25 95.15 C48.25 97.33 48.27 99.5 48.29 101.68 C48.46 121.79 48.29 142.34 34 158 C25.78 166.34 17.88 170.16 6.19 170.25 C5.16 170.28 5.16 170.28 4.11 170.31 C-3.33 170.37 -8.99 167.75 -14.48 162.73 C-18.18 158.52 -19.29 153.9 -19.12 148.38 C-18.41 144.03 -16.69 141.64 -13.17 139.04 C-9.23 137.15 -5.21 136.96 -1 138 C4.69 141.4 6.42 146.57 8.87 152.42 C10.85 156.9 10.85 156.9 15.07 159.18 C17.96 159.28 17.96 159.28 19.61 157.73 C24.44 151.71 23.25 141.8 23.17 134.55 C23.16 133.34 23.15 132.12 23.15 130.87 C23.13 127.56 23.1 124.25 23.07 120.94 C23.03 117.46 23.01 113.98 22.99 110.5 C22.94 104.66 22.89 98.82 22.83 92.98 C22.77 86.25 22.72 79.52 22.67 72.78 C22.63 66.28 22.58 59.78 22.52 53.28 C22.5 50.52 22.48 47.77 22.46 45.01 C22.43 41.16 22.39 37.3 22.35 33.45 C22.35 32.31 22.34 31.18 22.33 30.02 C22.26 20.83 22.26 20.83 20 12 C15.36 8.05 11.26 6.93 5.31 6.44 C4.32 6.35 3.32 6.27 2.3 6.18 C1.16 6.09 1.16 6.09 0 6 C-1.12 2.25 -1.12 2.25 0 0 Z " fill="#0C0403" transform="translate(619,164)"/>
<path d="M0 0 C2.88 0.31 2.88 0.31 6 1 C6.66 1.99 7.32 2.98 8 4 C7.67 4.66 7.34 5.32 7 6 C8.99 6.38 10.99 6.71 13 7 C13.33 6.67 13.66 6.34 14 6 C16.55 5.72 19.1 5.55 21.65 5.38 C24.19 5.21 24.19 5.21 26 3 C29.44 3.35 31.07 4.05 34 6 C34 7.32 34 8.64 34 10 C30.69 11.65 27.01 11.1 23.38 11.06 C22.57 11.06 21.77 11.05 20.95 11.05 C18.96 11.04 16.98 11.02 15 11 C17.2 13.2 19.56 15.07 22 17 C21.67 18.32 21.34 19.64 21 21 C16.05 21 11.1 21 6 21 C6 22.32 6 23.64 6 25 C6.99 25 7.98 25 9 25 C9.5 23.51 9.5 23.51 10 22 C11.13 21.95 12.26 21.9 13.43 21.85 C14.91 21.78 16.39 21.7 17.88 21.62 C18.62 21.59 19.37 21.56 20.14 21.53 C24.53 21.44 24.53 21.44 28 19 C31.34 19.33 33.57 20.74 36 23 C36 23.99 36 24.98 36 26 C33.03 26.66 30.06 27.32 27 28 C26.99 28.83 26.98 29.65 26.97 30.51 C26.92 34.26 26.83 38 26.75 41.75 C26.74 43.05 26.72 44.35 26.71 45.7 C26.67 46.95 26.64 48.2 26.61 49.48 C26.59 50.64 26.57 51.79 26.55 52.98 C25.9 56.58 24.89 57.82 22 60 C19.81 59.88 19.81 59.88 18 59 C17.67 58.34 17.34 57.68 17 57 C14.98 56.35 14.98 56.35 13 56 C13 54.68 13 53.36 13 52 C15.97 51.5 15.97 51.5 19 51 C19 43.41 19 35.82 19 28 C16.36 27.67 13.72 27.34 11 27 C11.35 27.58 11.7 28.16 12.06 28.76 C16.88 37.04 16.88 37.04 17 42 C16.34 42.99 15.68 43.98 15 45 C13.14 44.88 13.14 44.88 11 44 C9.73 41.28 9.73 41.28 8.75 37.94 C8.41 36.83 8.08 35.73 7.73 34.59 C7.49 33.74 7.25 32.88 7 32 C6.99 32.77 6.97 33.54 6.96 34.34 C6.88 37.83 6.78 41.32 6.69 44.81 C6.66 46.03 6.64 47.24 6.62 48.49 C6.58 49.66 6.55 50.82 6.51 52.02 C6.49 53.09 6.46 54.17 6.43 55.27 C5.96 58.27 5.37 59.19 3 61 C1.68 60.34 0.36 59.68 -1 59 C-1.5 47.12 -1.5 47.12 -2 35 C-3.08 37.75 -3.08 37.75 -4.19 40.56 C-5.72 44.27 -7.21 47.61 -9.62 50.81 C-12.13 54.18 -13.49 57.12 -15 61 C-16.65 60.67 -18.3 60.34 -20 60 C-20 51.42 -20 42.84 -20 34 C-21.32 34.99 -22.64 35.98 -24 37 C-25.32 37 -26.64 37 -28 37 C-27.46 32.66 -25.97 30.24 -23.31 26.81 C-19.49 21.74 -16.16 16.51 -13 11 C-10.04 11.61 -8.62 12.25 -6 14 C-6 14.66 -6 15.32 -6 16 C-4.35 16 -2.7 16 -1 16 C-1.01 15.01 -1.02 14.03 -1.04 13.01 C-1.04 11.73 -1.05 10.45 -1.06 9.12 C-1.07 7.85 -1.09 6.57 -1.1 5.26 C-1 2 -1 2 0 0 Z M6 9 C6 11.31 6 13.62 6 16 C7.65 16 9.3 16 11 16 C9.02 12.54 9.02 12.54 7 9 C6.67 9 6.34 9 6 9 Z M-11 21 C-13.16 26.25 -13.24 30.81 -13.12 36.38 C-13.12 37.21 -13.11 38.04 -13.1 38.89 C-13.07 40.93 -13.04 42.96 -13 45 C-10.82 42.82 -10.58 42 -9.93 39.09 C-9.76 38.33 -9.58 37.56 -9.4 36.78 C-9.23 35.99 -9.05 35.19 -8.88 34.38 C-8.69 33.57 -8.51 32.77 -8.32 31.95 C-7.88 29.97 -7.44 27.98 -7 26 C-4.03 26.5 -4.03 26.5 -1 27 C-1 25.02 -1 23.04 -1 21 C-4.3 21 -7.6 21 -11 21 Z " fill="#0C0403" transform="translate(978,424)"/>
<path d="M0 0 C2.31 0 4.62 0 7 0 C8.6 4 7.29 7.05 6 11 C6.85 10.83 7.7 10.65 8.57 10.47 C12.16 9.98 15.27 10.11 18.88 10.44 C20.03 10.54 21.18 10.64 22.37 10.75 C23.24 10.83 24.1 10.91 25 11 C25 7.37 25 3.74 25 0 C27.31 0 29.62 0 32 0 C33.12 1.56 33.12 1.56 34 4 C33.12 7.75 33.12 7.75 32 11 C37.59 10.8 37.59 10.8 42 8 C45.44 8.35 47.07 9.05 50 11 C50 12.32 50 13.64 50 15 C46.81 16.59 43.37 16.1 39.88 16.06 C39.12 16.06 38.37 16.05 37.59 16.05 C35.73 16.04 33.86 16.02 32 16 C32 18.97 32 21.94 32 25 C33.38 24.61 34.76 24.22 36.19 23.81 C39.72 23 40.64 22.84 44.06 24.38 C44.7 24.91 45.34 25.45 46 26 C45.44 30.14 43.01 32.89 40.5 36.06 C37.2 40.2 37.2 40.2 35 45 C40.55 47.93 46 50.17 52 52 C52 54 52 54 49.94 56.19 C47 58 47 58 43.81 58.19 C39.19 56.75 36.09 54.4 32.33 51.4 C30.17 49.81 30.17 49.81 28.02 50.11 C25.53 51.21 23.27 52.54 20.94 53.94 C14.04 57.78 5.97 60 -2 59 C-3.62 57.62 -3.62 57.62 -5 56 C-7.1 54.82 -7.1 54.82 -9 54 C-9 53.01 -9 52.02 -9 51 C-7 50 -7 50 0 50 C-0.33 45.38 -0.66 40.76 -1 36 C-1.99 36.99 -2.98 37.98 -4 39 C-6.52 38.84 -7.78 38.16 -9.81 36.69 C-11 35 -11 35 -10.86 33.04 C-10 31 -10 31 -7.93 29.73 C-6.7 29.25 -6.7 29.25 -5.44 28.75 C-4.61 28.41 -3.78 28.08 -2.93 27.73 C-2.3 27.49 -1.66 27.25 -1 27 C-1 24.03 -1 21.06 -1 18 C-3.64 17.67 -6.28 17.34 -9 17 C-9.56 15.06 -9.56 15.06 -10 13 C-7.95 10.95 -3.7 11.3 -1 11 C-1.01 10.37 -1.02 9.75 -1.04 9.1 C-1.04 8.28 -1.05 7.47 -1.06 6.62 C-1.07 5.81 -1.09 5 -1.1 4.16 C-1 2 -1 2 0 0 Z M6 17 C6 19.64 6 22.28 6 25 C8.97 24.34 11.94 23.68 15 23 C15.33 23.66 15.66 24.32 16 25 C18.97 25 21.94 25 25 25 C25 22.03 25 19.06 25 16 C18.56 15.89 12.37 16.04 6 17 Z M12 27 C9.25 28.17 7.88 28.76 6 31 C5.22 34.93 5.44 38.76 5.62 42.75 C5.65 43.83 5.68 44.91 5.71 46.02 C5.78 48.68 5.88 51.34 6 54 C12.8 51.75 18.38 49.5 24 45 C23.04 39.74 21.75 34.63 19 30 C15.92 28.86 15.92 28.86 13 29 C12.67 28.34 12.34 27.68 12 27 Z M25 29 C23.69 31.83 23.69 31.83 24.78 33.82 C25.35 34.75 25.35 34.75 25.94 35.69 C26.62 36.78 27.3 37.87 28 39 C28.66 39 29.32 39 30 39 C31.4 37.55 31.4 37.55 32.69 35.69 C33.37 34.77 33.37 34.77 34.07 33.82 C34.38 33.22 34.69 32.62 35 32 C34.67 31.01 34.34 30.02 34 29 C31.03 29 28.06 29 25 29 Z " fill="#0C0403" transform="translate(897,426)"/>
<path d="M0 0 C0.99 0.5 0.99 0.5 2 1 C2 14 2 27 2 40 C0.06 41.81 0.06 41.81 -3 43 C-5.43 42.69 -7.66 42.13 -10.01 41.45 C-12.06 40.77 -12.06 40.77 -14 42 C-15.89 42.1 -17.79 42.13 -19.69 42.13 C-21.47 42.13 -21.47 42.13 -23.3 42.14 C-24.59 42.14 -25.88 42.13 -27.21 42.13 C-28.55 42.13 -29.89 42.13 -31.22 42.14 C-34.02 42.14 -36.82 42.14 -39.62 42.13 C-43.21 42.12 -46.8 42.13 -50.39 42.13 C-53.15 42.14 -55.9 42.14 -58.66 42.13 C-60.63 42.13 -62.6 42.14 -64.56 42.14 C-66.36 42.13 -66.36 42.13 -68.18 42.13 C-69.24 42.13 -70.29 42.13 -71.37 42.13 C-74 42 -74 42 -77 41 C-81.55 41.74 -83.46 42.3 -86.31 46 C-87.15 47.48 -87.15 47.48 -88 49 C-90 51 -90 51 -92.62 51.12 C-93.41 51.08 -94.19 51.04 -95 51 C-94.34 49.68 -93.68 48.36 -93 47 C-92.34 47 -91.68 47 -91 47 C-90.67 45.68 -90.34 44.36 -90 43 C-91.2 43.08 -92.39 43.16 -93.62 43.25 C-98.1 43.26 -100.54 41.89 -104 39 C-106.98 34.53 -106.73 30.23 -106 25 C-104 21.81 -104 21.81 -101 20 C-96.12 19.3 -94.07 19.45 -89.69 21.69 C-84.36 26.28 -83.57 30.25 -83 37 C-82.01 37 -81.02 37 -80 37 C-80.06 35.82 -80.12 34.64 -80.18 33.42 C-80.22 31.86 -80.27 30.31 -80.31 28.75 C-80.35 27.97 -80.4 27.2 -80.44 26.39 C-80.49 24.16 -80.47 22.19 -80 20 C-77.54 17.45 -77.54 17.45 -75 16 C-74.67 16 -74.34 16 -74 16 C-73.5 26.39 -73.5 26.39 -73 37 C-56.83 37 -40.66 37 -24 37 C-24.99 34.03 -24.99 34.03 -26 31 C-29.43 29.28 -33.38 29.75 -37.16 29.68 C-38.07 29.66 -38.98 29.64 -39.91 29.62 C-42.82 29.56 -45.72 29.5 -48.62 29.44 C-50.59 29.39 -52.56 29.35 -54.52 29.31 C-59.35 29.2 -64.17 29.1 -69 29 C-69.5 27.52 -69.5 27.52 -70 26 C-65.74 24.13 -61.47 22.4 -57.1 20.81 C-46.08 17.62 -46.08 17.62 -37.8 10.88 C-37.54 10.26 -37.27 9.64 -37 9 C-38.32 8.34 -39.64 7.68 -41 7 C-41 6.34 -41 5.68 -41 5 C-38.19 4.38 -38.19 4.38 -35 4 C-34.01 4.66 -33.02 5.32 -32 6 C-31.48 9.94 -31.47 12.17 -33.64 15.55 C-36.35 18.37 -38.61 19.43 -42.25 20.81 C-43.33 21.23 -44.41 21.65 -45.52 22.08 C-46.34 22.38 -47.16 22.69 -48 23 C-46.99 23.01 -46.99 23.01 -45.97 23.03 C-42.92 23.08 -39.86 23.17 -36.81 23.25 C-35.76 23.26 -34.7 23.28 -33.62 23.29 C-25.76 23.54 -25.76 23.54 -21.82 25.92 C-18.6 29.6 -18.91 32.19 -19 37 C-17.68 37 -16.36 37 -15 37 C-15.06 35.82 -15.12 34.64 -15.18 33.42 C-15.22 31.86 -15.27 30.31 -15.31 28.75 C-15.35 27.97 -15.4 27.2 -15.44 26.39 C-15.49 24.16 -15.47 22.19 -15 20 C-12.54 17.45 -12.54 17.45 -10 16 C-9.67 16 -9.34 16 -9 16 C-8.5 26.39 -8.5 26.39 -8 37 C-6.68 37 -5.36 37 -4 37 C-4.06 36.02 -4.11 35.04 -4.17 34.03 C-4.37 30.4 -4.54 26.76 -4.7 23.12 C-4.78 21.55 -4.86 19.97 -4.95 18.4 C-5.08 16.14 -5.18 13.87 -5.27 11.61 C-5.32 10.91 -5.36 10.21 -5.41 9.48 C-5.48 7.48 -5.48 7.48 -5 4 C-2.48 1.52 -2.48 1.52 0 0 Z M-101 25 C-101.87 27.71 -101.87 27.71 -102 31 C-100.52 33.62 -99.14 35.86 -97 38 C-94.67 38.04 -92.33 38.04 -90 38 C-89.12 34.56 -88.73 32.63 -90.12 29.31 C-92.19 26.77 -94.08 25.46 -97 24 C-98.37 23.95 -98.37 23.95 -101 25 Z " fill="#0C0403" transform="translate(572,79)"/>
<path d="M0 0 C3.06 0.12 3.06 0.12 5.06 1.12 C4.9 1.66 4.75 2.19 4.58 2.73 C3.95 5.65 3.84 8.43 3.75 11.42 C3.68 13.23 3.68 13.23 3.62 15.07 C3.58 16.33 3.54 17.58 3.5 18.88 C3.44 20.78 3.44 20.78 3.37 22.72 C3.26 25.86 3.16 28.99 3.06 32.12 C5.57 30.87 5.93 29.62 7.06 27.12 C9.91 28.4 12.2 29.58 14.06 32.12 C13.73 33.44 13.4 34.76 13.06 36.12 C9.76 36.78 6.46 37.44 3.06 38.12 C3.11 40.26 3.11 40.26 3.17 42.43 C3.2 44.29 3.22 46.14 3.25 48 C3.28 48.94 3.3 49.87 3.33 50.84 C3.34 51.74 3.35 52.63 3.36 53.55 C3.37 54.38 3.39 55.21 3.4 56.06 C3.23 57.08 3.23 57.08 3.06 58.12 C0.06 60.12 0.06 60.12 -2.94 60.12 C-3.84 57.42 -4.06 55.89 -4.04 53.11 C-4.03 52.36 -4.03 51.6 -4.03 50.82 C-4.01 49.64 -4.01 49.64 -4 48.44 C-4 47.64 -3.99 46.84 -3.99 46.02 C-3.97 44.06 -3.96 42.09 -3.94 40.12 C-4.83 40.27 -4.83 40.27 -5.74 40.42 C-8.43 40.85 -11.12 41.27 -13.81 41.69 C-15.22 41.91 -15.22 41.91 -16.65 42.15 C-17.55 42.29 -18.44 42.42 -19.37 42.57 C-20.19 42.7 -21.02 42.83 -21.87 42.96 C-23.94 43.12 -23.94 43.12 -25.94 42.12 C-25.94 40.81 -25.94 39.49 -25.94 38.12 C-25.28 38.12 -24.62 38.12 -23.94 38.12 C-24.93 36.81 -25.92 35.49 -26.94 34.12 C-26.96 34.84 -26.98 35.56 -27 36.3 C-27.09 39.53 -27.2 42.77 -27.31 46 C-27.34 47.13 -27.37 48.26 -27.41 49.42 C-27.44 50.49 -27.48 51.57 -27.52 52.68 C-27.55 53.67 -27.59 54.67 -27.62 55.69 C-27.94 58.12 -27.94 58.12 -29.94 60.12 C-31.26 59.8 -32.58 59.47 -33.94 59.12 C-34.27 51.87 -34.6 44.61 -34.94 37.12 C-36.05 38.57 -37.16 40.01 -38.31 41.5 C-40.12 43.84 -41.85 46.04 -43.94 48.12 C-44.93 48.12 -45.92 48.12 -46.94 48.12 C-46.44 43.02 -44.79 39.83 -42 35.56 C-39.57 31.82 -37.44 28.34 -35.94 24.12 C-39.24 24.12 -42.54 24.12 -45.94 24.12 C-46.27 22.48 -46.6 20.82 -46.94 19.12 C-42.98 18.8 -39.02 18.46 -34.94 18.12 C-34.61 16.14 -34.28 14.17 -33.94 12.12 C-34.6 12.29 -35.26 12.45 -35.94 12.62 C-39.67 13.25 -43.16 13.19 -46.94 13.12 C-46.67 11.23 -46.67 11.23 -45.94 9.12 C-44.31 8.15 -44.31 8.15 -42.23 7.49 C-41.48 7.24 -40.73 6.99 -39.95 6.74 C-38.77 6.37 -38.77 6.37 -37.56 6 C-36.01 5.5 -34.46 5 -32.91 4.49 C-32.22 4.28 -31.53 4.06 -30.82 3.84 C-28.66 3.1 -28.66 3.1 -25.94 1.12 C-21.59 0.55 -19.56 1.85 -15.94 4.12 C-13.91 4.9 -11.87 5.61 -9.8 6.28 C-6.93 7.58 -5.31 9.21 -4.12 12.12 C-3.94 14.12 -3.94 14.12 -5.94 17.12 C-8.19 17 -8.19 17 -10.94 16.12 C-13.06 13.19 -13.06 13.19 -14.94 10.12 C-17.66 7.85 -17.66 7.85 -20.2 8.37 C-21 8.58 -21.8 8.78 -22.62 9 C-23.43 9.2 -24.24 9.41 -25.07 9.62 C-25.69 9.78 -26.3 9.95 -26.94 10.12 C-26.94 12.76 -26.94 15.4 -26.94 18.12 C-25.95 17.46 -24.96 16.81 -23.94 16.12 C-20.18 16.48 -17.16 17.81 -13.81 19.5 C-12.96 19.92 -12.12 20.34 -11.24 20.77 C-7.68 22.86 -6.2 24.14 -5.12 28.19 C-5.06 29.16 -5 30.13 -4.94 31.12 C-6.94 33.12 -6.94 33.12 -9.31 33.25 C-13.5 31.46 -14.18 28.22 -15.94 24.12 C-19.9 24.12 -23.86 24.12 -27.94 24.12 C-27.03 26.45 -27.03 26.45 -24 27.56 C-20.94 29.12 -20.94 29.12 -18.94 32.12 C-19.31 34.31 -19.31 34.31 -19.94 36.12 C-17.64 35.84 -15.35 35.55 -13.06 35.25 C-11.79 35.09 -10.51 34.93 -9.2 34.76 C-5.87 34.43 -5.87 34.43 -3.94 32.12 C-3.67 28.93 -3.67 28.93 -3.78 25.18 C-3.78 24.5 -3.79 23.82 -3.79 23.11 C-3.81 20.93 -3.84 18.75 -3.88 16.56 C-3.9 14.38 -3.93 12.19 -3.95 10 C-3.96 8.02 -3.99 6.03 -4.02 4.05 C-3.91 0.17 -3.91 0.17 0 0 Z " fill="#0C0403" transform="translate(803.9375,424.875)"/>
<path d="M0 0 C4.07 2.14 6.15 4.18 8.09 8.28 C8.47 10.85 8.7 13.2 8.78 15.78 C8.81 16.51 8.84 17.24 8.88 17.99 C8.97 20.42 9.03 22.85 9.09 25.28 C9.12 26.17 9.15 27.06 9.18 27.98 C9.25 30.75 9.3 33.51 9.34 36.28 C9.37 37.14 9.39 38 9.41 38.88 C9.44 45.77 8.54 52.4 3.97 57.78 C-1.36 60.56 -5.95 60.83 -11.72 59.22 C-15.75 56.77 -17.94 54.07 -19.5 49.59 C-20.11 46.16 -20.09 42.74 -20.11 39.26 C-20.12 38.1 -20.12 38.1 -20.13 36.91 C-20.14 35.27 -20.14 33.62 -20.15 31.98 C-20.16 29.49 -20.19 26.99 -20.22 24.5 C-20.23 22.9 -20.23 21.3 -20.23 19.7 C-20.25 18.96 -20.26 18.22 -20.27 17.46 C-20.25 12.35 -19.29 8.82 -16.91 4.28 C-12.07 -0.31 -6.59 -2.49 0 0 Z " fill="#0C0403" transform="translate(155.90625,79.71875)"/>
<path d="M0 0 C3.48 2.32 4.84 4.17 6.81 7.88 C7.38 11.14 7.37 14.35 7.34 17.66 C7.35 18.59 7.35 19.52 7.36 20.48 C7.36 22.44 7.35 24.41 7.33 26.37 C7.31 29.37 7.33 32.36 7.36 35.36 C7.36 37.27 7.35 39.18 7.34 41.09 C7.35 41.98 7.36 42.88 7.37 43.79 C7.29 49.29 6.54 52.56 2.81 56.88 C-2.67 60.14 -6.17 60.16 -12.19 58.88 C-16.46 57.57 -18 54.64 -20.19 50.88 C-21.56 46.99 -21.37 42.93 -21.39 38.86 C-21.4 37.69 -21.4 37.69 -21.41 36.5 C-21.42 34.86 -21.42 33.22 -21.43 31.58 C-21.44 29.08 -21.47 26.59 -21.5 24.09 C-21.51 22.49 -21.51 20.89 -21.52 19.29 C-21.53 18.55 -21.54 17.82 -21.55 17.05 C-21.53 11.94 -20.57 8.42 -18.19 3.88 C-12.72 -1.31 -7.2 -2.54 0 0 Z " fill="#0C0403" transform="translate(192.1875,80.125)"/>
<path d="M0 0 C3.52 2.27 6.14 4.65 7.41 8.74 C8.08 12.16 8 15.61 8.02 19.09 C8.02 19.89 8.03 20.69 8.03 21.51 C8.04 23.21 8.05 24.9 8.05 26.59 C8.06 29.17 8.09 31.75 8.12 34.33 C8.13 35.98 8.14 37.62 8.14 39.27 C8.15 40.04 8.17 40.81 8.18 41.59 C8.15 47.46 6.76 51.47 2.94 56.06 C-0.79 59.13 -3.2 59.81 -8.06 59.81 C-12.88 59.07 -15.97 56.33 -19.19 52.81 C-20.32 50.54 -20.33 49.25 -20.36 46.73 C-20.38 45.89 -20.39 45.05 -20.4 44.18 C-20.41 43.27 -20.42 42.36 -20.43 41.42 C-20.43 40.48 -20.44 39.55 -20.45 38.58 C-20.46 36.59 -20.47 34.61 -20.48 32.62 C-20.5 29.59 -20.54 26.56 -20.59 23.53 C-20.6 21.6 -20.61 19.67 -20.61 17.73 C-20.63 16.83 -20.65 15.93 -20.67 15 C-20.65 9.44 -19.96 6.19 -16.19 1.81 C-10.8 -1.78 -6.07 -2.26 0 0 Z " fill="#0C0403" transform="translate(226.1875,80.1875)"/>
<path d="M0 0 C0.66 0.33 1.32 0.66 2 1 C1.99 1.99 1.99 2.98 1.98 4 C1.97 7.66 1.95 11.33 1.95 14.99 C1.94 16.58 1.93 18.16 1.92 19.75 C1.91 22.03 1.91 24.31 1.9 26.59 C1.9 27.3 1.89 28.01 1.89 28.74 C1.83 32.5 1.83 32.5 3 36 C5.71 36.31 8.34 36.51 11.06 36.62 C11.82 36.66 12.58 36.7 13.36 36.74 C15.24 36.84 17.12 36.92 19 37 C18.2 36.2 17.39 35.39 16.56 34.56 C15.38 33.38 14.19 32.19 13 31 C10.67 30.63 8.34 30.3 6 30 C7.07 27.08 7.78 25.22 10 23 C16.97 21.7 24.94 21.27 32 22 C32.99 22.99 32.99 22.99 34 24 C33.85 29.05 30.73 32.95 28 37 C30.64 36.67 33.28 36.34 36 36 C35.97 35.05 35.95 34.1 35.92 33.13 C35.84 29.6 35.77 26.07 35.73 22.55 C35.7 21.02 35.67 19.5 35.62 17.97 C35.56 15.78 35.53 13.59 35.51 11.39 C35.49 10.07 35.46 8.75 35.43 7.39 C36 4 36 4 38.47 1.54 C41 0 41 0 42 0 C42.33 11.88 42.66 23.76 43 36 C44.98 36.33 46.96 36.66 49 37 C48.67 25.78 48.34 14.56 48 3 C49.65 2.01 51.3 1.02 53 0 C55.11 2.11 54.33 6.65 54.42 9.56 C54.45 10.42 54.48 11.28 54.51 12.16 C54.56 13.98 54.62 15.81 54.67 17.63 C54.75 20.42 54.85 23.22 54.96 26.01 C55.01 27.78 55.06 29.54 55.11 31.31 C55.14 32.15 55.18 32.99 55.21 33.85 C55.26 36.21 55.26 36.21 55 40 C51.74 42.17 50.77 42.25 47 42.19 C46.13 42.18 45.27 42.17 44.38 42.17 C42 42 42 42 39 41 C38.01 41.5 38.01 41.5 37 42 C32.84 42.28 28.8 42.14 24.69 41.44 C21.91 40.99 20.66 41.32 18 42 C16.67 42.09 15.33 42.13 14 42.13 C13.26 42.13 12.51 42.14 11.75 42.14 C10.61 42.13 10.61 42.13 9.44 42.12 C8.67 42.13 7.9 42.13 7.11 42.14 C3.82 42.13 1.14 42.05 -2 41 C-7.17 41.88 -7.17 41.88 -10.75 45.44 C-11.16 46.28 -11.58 47.13 -12 48 C-13.38 49.81 -13.38 49.81 -15 51 C-17.69 51.19 -17.69 51.19 -20 51 C-18.98 47.95 -18.23 47.13 -16 45 C-15.67 44.34 -15.34 43.68 -15 43 C-16.18 43.12 -17.35 43.25 -18.56 43.38 C-23.05 43.36 -25.4 41.93 -28.58 38.85 C-31.06 35.61 -31.55 33.06 -32 29 C-31.3 25.57 -30.22 24.23 -27.81 21.69 C-24.22 19.53 -22.13 19.48 -18 20 C-13.44 21.91 -11.29 24.67 -9 29 C-8.42 31.7 -8.19 34.23 -8 37 C-6.51 36.5 -6.51 36.5 -5 36 C-3.63 33.26 -3.87 31.06 -3.87 28 C-3.87 26.81 -3.86 25.61 -3.86 24.37 C-3.87 22.49 -3.87 22.49 -3.88 20.56 C-3.87 19.31 -3.87 18.06 -3.86 16.76 C-3.86 15.56 -3.87 14.36 -3.87 13.13 C-3.87 12.03 -3.87 10.92 -3.87 9.79 C-3.88 6.91 -3.88 6.91 -5 4 C-3.35 2.68 -1.7 1.36 0 0 Z M-23 24 C-24.32 25.32 -25.64 26.64 -27 28 C-25.88 32.65 -25.88 32.65 -23.81 36.94 C-20.92 38.63 -18.26 38.24 -15 38 C-13.7 36.91 -13.7 36.91 -13.75 34.25 C-14.04 30.53 -14.62 28.86 -17 26 C-20.08 24.64 -20.08 24.64 -23 24 Z M18 29 C20.97 30.98 20.97 30.98 24 33 C26.67 30.29 26.67 30.29 28 27 C22.41 26.4 22.41 26.4 18 29 Z " fill="#0C0403" transform="translate(678,79)"/>
<path d="M0 0 C0.99 0.5 0.99 0.5 2 1 C2.07 6.52 2.13 12.03 2.16 17.55 C2.18 19.43 2.2 21.31 2.23 23.19 C2.26 25.88 2.28 28.58 2.29 31.27 C2.31 32.12 2.32 32.96 2.34 33.83 C2.34 36.19 2.34 36.19 2 40 C-1 42 -1 42 -4.88 42.31 C-9.37 42.75 -10.88 44.79 -14 48 C-17.36 49.06 -19.62 49.52 -22.97 48.26 C-26.26 46.52 -27.8 45.6 -29 42 C-46.49 42 -63.98 42 -82 42 C-82.33 44.31 -82.66 46.62 -83 49 C-88.9 52.93 -97.21 50.69 -104 50 C-104.33 48.35 -104.66 46.7 -105 45 C-101.6 43.95 -98.55 43.7 -95 44 C-92.81 45.5 -92.81 45.5 -91 47 C-90.01 47 -89.02 47 -88 47 C-87.99 46.23 -87.97 45.46 -87.96 44.66 C-87.88 41.17 -87.78 37.68 -87.69 34.19 C-87.66 32.97 -87.64 31.76 -87.62 30.51 C-87.58 29.34 -87.55 28.18 -87.51 26.98 C-87.49 25.91 -87.46 24.83 -87.43 23.73 C-87 21 -87 21 -85.59 19.13 C-84 18 -84 18 -82 18 C-82 24.27 -82 30.54 -82 37 C-80.35 37 -78.7 37 -77 37 C-77.12 36.31 -77.24 35.63 -77.36 34.92 C-77.49 34.02 -77.62 33.12 -77.75 32.19 C-77.89 31.29 -78.03 30.4 -78.17 29.48 C-78 27 -78 27 -76.14 25.18 C-74 24 -74 24 -72 24 C-71.5 25.98 -71.5 25.98 -71 28 C-70.27 27.78 -69.54 27.57 -68.79 27.34 C-61.9 25.51 -55.55 24.7 -48.44 24.69 C-47.66 24.68 -46.89 24.68 -46.09 24.67 C-42.29 24.72 -39.18 24.77 -36 27 C-33.98 29.69 -33.98 30.85 -34.38 34.25 C-34.58 35.16 -34.79 36.06 -35 37 C-33.68 37 -32.36 37 -31 37 C-31.1 36.11 -31.21 35.23 -31.31 34.31 C-31 31 -31 31 -28.94 28.19 C-25.4 25.56 -23.39 25 -19 25 C-13.83 26.72 -11.57 29.25 -9 34 C-9 34.99 -9 35.98 -9 37 C-7.35 37 -5.7 37 -4 37 C-4.33 25.78 -4.66 14.56 -5 3 C-3.35 2.01 -1.7 1.02 0 0 Z M-72 35 C-72 35.66 -72 36.32 -72 37 C-67.76 37.05 -63.53 37.09 -59.29 37.11 C-57.85 37.12 -56.41 37.13 -54.97 37.15 C-52.9 37.18 -50.83 37.19 -48.76 37.2 C-47.51 37.21 -46.27 37.22 -44.98 37.23 C-41.88 37.32 -41.88 37.32 -40 35 C-40.32 32.4 -40.32 32.4 -41 30 C-57.09 29.55 -57.09 29.55 -72 35 Z M-26 31 C-26.39 35.05 -26.39 37.33 -24.31 40.88 C-21.75 43.23 -20.46 43.91 -17 44 C-16.01 43.34 -15.02 42.68 -14 42 C-13.24 37.84 -13.85 36.23 -16.12 32.62 C-18.76 29.72 -18.76 29.72 -22.25 29.56 C-24.9 29.71 -24.9 29.71 -26 31 Z " fill="#0C0403" transform="translate(981,79)"/>
<path d="M0 0 C2.01 0.29 4.01 0.62 6 1 C6.56 2.94 6.56 2.94 7 5 C6.67 5.33 6.34 5.66 6 6 C5.96 8.33 5.96 10.67 6 13 C8.42 13.08 10.83 13.14 13.25 13.19 C13.93 13.21 14.61 13.24 15.32 13.26 C19.61 13.33 21.81 12.88 25 10 C28.33 10.21 30.63 11.71 33 14 C33 15.32 33 16.64 33 18 C28.08 19.29 23.23 19.11 18.19 19.06 C17.3 19.06 16.42 19.05 15.51 19.05 C13.34 19.04 11.17 19.02 9 19 C15.5 29.5 23.03 37.89 35 42 C35 42.99 35 43.98 35 45 C32.45 47.04 30.86 48.02 27.56 47.94 C24.33 46.76 21.78 45 19 43 C18.01 43.66 17.02 44.32 16 45 C12.32 45.27 8.7 45.09 5 45 C5 49.62 5 54.24 5 59 C2.52 59.5 2.52 59.5 0 60 C-1.94 58.06 -1.4 54.53 -1.56 51.94 C-1.65 50.65 -1.73 49.36 -1.82 48.03 C-1.88 47.03 -1.94 46.03 -2 45 C-2.63 45.01 -3.25 45.02 -3.9 45.04 C-5.12 45.05 -5.12 45.05 -6.38 45.06 C-7.59 45.08 -7.59 45.08 -8.84 45.1 C-11 45 -11 45 -13 44 C-13 43.34 -13 42.68 -13 42 C-13.74 42.59 -14.47 43.18 -15.23 43.79 C-16.21 44.54 -17.18 45.29 -18.19 46.06 C-19.15 46.82 -20.11 47.57 -21.11 48.35 C-24 50 -24 50 -26.86 49.75 C-27.57 49.5 -28.27 49.25 -29 49 C-27.82 45.47 -26.92 45.02 -23.94 42.94 C-15.92 36.9 -8.22 27.65 -5 18 C-5.56 18.04 -6.12 18.08 -6.7 18.12 C-9.23 18.3 -11.77 18.46 -14.31 18.62 C-15.63 18.72 -15.63 18.72 -16.98 18.82 C-17.83 18.87 -18.68 18.92 -19.55 18.98 C-20.72 19.06 -20.72 19.06 -21.92 19.14 C-24 19 -24 19 -27 17 C-26.67 16.01 -26.34 15.02 -26 14 C-18.08 13.67 -10.16 13.34 -2 13 C-1.86 11.04 -1.71 9.08 -1.56 7.06 C-1.12 1.12 -1.12 1.12 0 0 Z M5 25 C5 29.62 5 34.24 5 39 C6.32 39.33 7.64 39.66 9 40 C11.25 38.65 11.25 38.65 13 37 C11.62 34.15 10.11 31.44 8.44 28.75 C8 28.04 7.57 27.34 7.12 26.61 C6.75 26.08 6.38 25.55 6 25 C5.67 25 5.34 25 5 25 Z M-2 28 C-3.55 29.78 -5.07 31.6 -6.56 33.44 C-7.8 34.95 -7.8 34.95 -9.07 36.5 C-11.1 38.6 -11.1 38.6 -11 40 C-7.7 40 -4.4 40 -1 40 C-1 36.04 -1 32.08 -1 28 C-1.33 28 -1.66 28 -2 28 Z " fill="#0C0403" transform="translate(720,425)"/>
<path d="M0 0 C8.07 -0.02 16.13 -0.04 24.2 -0.05 C27.94 -0.06 31.69 -0.06 35.44 -0.08 C39.05 -0.09 42.66 -0.09 46.27 -0.09 C47.65 -0.1 49.03 -0.1 50.41 -0.11 C52.34 -0.11 54.27 -0.11 56.2 -0.11 C57.29 -0.12 58.39 -0.12 59.53 -0.12 C62 0 62 0 63 1 C63.1 3.84 63.14 6.66 63.12 9.5 C63.13 10.7 63.13 10.7 63.14 11.92 C63.13 17.87 63.13 17.87 62 19 C60.14 19.13 58.27 19.19 56.41 19.22 C55.22 19.24 54.02 19.27 52.79 19.29 C50.84 19.32 50.84 19.32 48.85 19.35 C47.51 19.37 46.17 19.4 44.83 19.42 C42.02 19.47 39.21 19.52 36.4 19.56 C32.79 19.61 29.19 19.68 25.58 19.74 C22.81 19.79 20.05 19.84 17.28 19.88 C15.3 19.91 13.33 19.95 11.35 19.99 C10.15 20 8.95 20.02 7.72 20.04 C6.66 20.05 5.6 20.07 4.51 20.09 C2 20 2 20 0 19 C0 12.73 0 6.46 0 0 Z " fill="#0C0403" transform="translate(524,265)"/>
<path d="M0 0 C3.5 0.38 3.5 0.38 5.62 1.5 C6.24 1.79 6.86 2.08 7.5 2.38 C8.2 2.09 8.9 1.8 9.62 1.5 C13.88 -0.17 17.99 -0.26 22.5 0.38 C25.6 2.57 26.3 3.79 27.5 7.38 C27.6 6.59 27.71 5.81 27.81 5 C28.5 2.38 28.5 2.38 31.5 0.38 C37.72 -0.18 37.72 -0.18 40.18 1.57 C41.91 3.93 41.93 5.6 42.06 8.5 C42.15 11.12 42.15 11.12 42.5 13.38 C43.16 13.7 43.82 14.04 44.5 14.38 C44.5 11.74 44.5 9.1 44.5 6.38 C43.84 6.05 43.18 5.71 42.5 5.38 C42.83 4.06 43.16 2.74 43.5 1.38 C46.5 1.01 49.5 0.68 52.5 0.38 C53.45 0.27 54.4 0.17 55.38 0.06 C57.5 0.38 57.5 0.38 59.12 2 C60.9 5.06 60.8 7.12 60.69 10.62 C60.65 12.24 60.65 12.24 60.61 13.89 C60.57 14.71 60.54 15.53 60.5 16.38 C61.16 16.38 61.82 16.38 62.5 16.38 C62.5 17.37 62.5 18.36 62.5 19.38 C58 19.57 53.5 19.75 48.99 19.91 C47.46 19.97 45.93 20.03 44.4 20.1 C42.2 20.19 40 20.27 37.79 20.35 C37.11 20.38 36.42 20.42 35.72 20.45 C32.03 20.57 30.67 20.49 27.5 18.38 C27.5 17.38 27.5 16.39 27.5 15.38 C26.84 15.38 26.18 15.38 25.5 15.38 C25.07 16.33 25.07 16.33 24.62 17.31 C23.5 19.38 23.5 19.38 21.5 20.38 C19.5 20.41 17.5 20.42 15.5 20.38 C16 21.16 16.49 21.94 17 22.75 C18.5 25.38 18.5 25.38 18.5 27.38 C14.87 27.38 11.24 27.38 7.5 27.38 C8.16 26.06 8.82 24.74 9.5 23.38 C9.67 20.71 9.67 20.71 9.5 18.38 C8.51 19.04 7.52 19.69 6.5 20.38 C3.91 20.68 3.91 20.68 1 20.69 C0.04 20.7 -0.92 20.72 -1.91 20.74 C-4.5 20.38 -4.5 20.38 -6.32 19.05 C-8.12 16.49 -7.82 14.41 -7.5 11.38 C-6.84 10.71 -6.18 10.06 -5.5 9.38 C-6.16 7.73 -6.82 6.07 -7.5 4.38 C-5.07 1.26 -4.01 0.43 0 0 Z M-1.5 4.38 C-1.5 5.37 -1.5 6.36 -1.5 7.38 C-0.51 7.05 0.48 6.71 1.5 6.38 C1.5 5.71 1.5 5.06 1.5 4.38 C0.51 4.38 -0.48 4.38 -1.5 4.38 Z M33.5 4.38 C33.5 5.37 33.5 6.36 33.5 7.38 C34.49 7.05 35.48 6.71 36.5 6.38 C36.17 5.71 35.84 5.06 35.5 4.38 C34.84 4.38 34.18 4.38 33.5 4.38 Z M7.5 5.38 C7.5 8.35 7.5 11.31 7.5 14.38 C8.49 14.7 9.48 15.04 10.5 15.38 C10.5 12.07 10.5 8.77 10.5 5.38 C9.51 5.38 8.52 5.38 7.5 5.38 Z M17.5 5.38 C15.32 7.14 15.32 7.14 15.3 9.32 C15.34 10.4 15.34 10.4 15.38 11.5 C15.42 12.78 15.46 14.06 15.5 15.38 C16.82 15.7 18.14 16.04 19.5 16.38 C22.07 12.52 21.33 10.79 20.5 6.38 C19.51 6.05 18.52 5.71 17.5 5.38 Z M51.5 5.38 C50.24 6.41 50.24 6.41 50.4 8.66 C50.41 9.58 50.43 10.49 50.44 11.44 C50.45 12.36 50.46 13.28 50.46 14.22 C50.48 14.93 50.49 15.64 50.5 16.38 C51.82 16.38 53.14 16.38 54.5 16.38 C54.5 12.75 54.5 9.12 54.5 5.38 C53.51 5.38 52.52 5.38 51.5 5.38 Z M-0.5 11.38 C-0.83 12.69 -1.16 14.01 -1.5 15.38 C-0.51 15.05 0.48 14.71 1.5 14.38 C1.5 13.38 1.5 12.39 1.5 11.38 C0.84 11.38 0.18 11.38 -0.5 11.38 Z M34.5 11.38 C34.17 12.69 33.84 14.01 33.5 15.38 C34.49 15.05 35.48 14.71 36.5 14.38 C36.5 13.38 36.5 12.39 36.5 11.38 C35.84 11.38 35.18 11.38 34.5 11.38 Z " fill="#0C0403" transform="translate(509.5,374.625)"/>
<path d="M0 0 C0.66 0 1.32 0 2 0 C2.33 7.92 2.66 15.84 3 24 C8.28 24 13.56 24 19 24 C17.35 22.35 15.7 20.7 14 19 C13.67 18.67 13.34 18.34 13 18 C10.67 17.63 8.34 17.3 6 17 C6.57 13.71 7.38 12.08 10 10 C12.31 9.49 12.31 9.49 15 9.31 C15.97 9.25 16.93 9.18 17.93 9.12 C22.62 8.94 27.3 8.92 32 9 C33.11 10.75 33.11 10.75 34 13 C33.39 15.04 33.39 15.04 32.25 17.06 C31.88 17.73 31.52 18.41 31.14 19.1 C30.14 20.76 29.08 22.39 28 24 C30.64 24 33.28 24 36 24 C36.08 22.93 36.16 21.86 36.25 20.75 C37.06 16.69 37.82 15.51 41 13 C43.87 11.57 45.81 11.69 49 12 C53.31 14.28 56.17 16.42 58 21 C58.79 25.81 58.74 28.92 55.94 33 C52.42 35.39 50.25 36 46 36 C43.36 34.8 41.6 33.8 39.86 31.47 C36.95 29.17 33.63 29.12 30.06 28.75 C29.35 28.66 28.63 28.57 27.89 28.48 C24.29 28.06 21.47 28.03 18 29 C15.3 29.12 12.64 29.19 9.94 29.19 C9.22 29.2 8.5 29.21 7.76 29.22 C3.96 29.24 2.24 29.16 -1 27 C-1.74 27.53 -1.74 27.53 -2.5 28.06 C-6.12 29.42 -9.35 29 -13 28 C-16.94 25.6 -18.88 23.49 -20 19 C-20.68 14.46 -20.63 11.9 -17.94 8.06 C-14.47 5.63 -12.21 5.15 -8 5 C-5.56 5.44 -5.56 5.44 -4 6 C-3.57 5.07 -3.57 5.07 -3.12 4.12 C-2 2 -2 2 0 0 Z M-13 10 C-15.27 11.87 -15.27 11.87 -15.38 14.81 C-14.91 18.79 -13.94 20.29 -11 23 C-7.96 24.06 -7.96 24.06 -5 24 C-2.73 22.13 -2.73 22.13 -2.62 19.19 C-3.09 15.21 -4.06 13.71 -7 11 C-10.04 9.94 -10.04 9.94 -13 10 Z M19 14 C19 14.99 19 15.98 19 17 C21.44 18.72 21.44 18.72 24 20 C26.34 17.33 26.34 17.33 27 14 C24.36 14 21.72 14 19 14 Z M41 19 C41.14 22.84 41.45 25.25 43.75 28.38 C46.3 30.21 47.86 30.92 51 31 C53.02 30.06 53.02 30.06 54 28 C54 24 53.22 22.29 50.75 19.12 C48.21 16.82 48.21 16.82 45.31 16.56 C42.81 16.81 42.81 16.81 41 19 Z " fill="#0C0403" transform="translate(1021,92)"/>
<path d="M0 0 C6 0 6 0 8 1 C8 6.28 8 11.56 8 17 C11.84 17.09 11.84 17.09 15.75 17.19 C16.55 17.21 17.35 17.24 18.17 17.27 C22.55 17.32 24.74 16.88 28 14 C31.51 14.86 33.66 16.29 36 19 C35.34 20.32 34.68 21.64 34 23 C26.08 23 18.16 23 10 23 C11.05 25.21 12.1 27.41 13.19 29.69 C13.67 30.72 13.67 30.72 14.16 31.76 C18.64 40.94 27.72 47.95 37 52 C36 55 36 55 33.75 56.25 C30.45 57.15 29.21 57.2 26 56 C16.54 50.4 10.92 41.58 6 32 C5.79 32.63 5.58 33.26 5.37 33.91 C1.39 44.96 -5.43 51.8 -16 57 C-18.81 57.74 -21.07 57.94 -24 58 C-23.82 56.2 -23.82 56.2 -23 54 C-20.74 52.36 -20.74 52.36 -17.88 50.75 C-8.42 44.96 -3.97 38.67 -1 28 C-0.66 26.33 -0.32 24.67 0 23 C-0.63 23.01 -1.25 23.01 -1.9 23.02 C-4.72 23.04 -7.55 23.05 -10.38 23.06 C-11.36 23.07 -12.34 23.08 -13.36 23.09 C-14.77 23.09 -14.77 23.09 -16.21 23.1 C-17.51 23.11 -17.51 23.11 -18.85 23.11 C-21 23 -21 23 -23 22 C-23 20.68 -23 19.36 -23 18 C-12.11 17.5 -12.11 17.5 -1 17 C-0.67 11.39 -0.34 5.78 0 0 Z " fill="#0C0403" transform="translate(1040,425)"/>
<path d="M0 0 C1.55 0.1 1.55 0.1 3.12 0.2 C5.67 0.36 8.21 0.55 10.75 0.75 C11.08 3.39 11.41 6.03 11.75 8.75 C13.01 5.84 13.75 3.95 13.75 0.75 C16.1 0.55 18.46 0.37 20.81 0.19 C22.12 0.08 23.43 -0.02 24.79 -0.13 C28.62 -0.25 31.99 -0.04 35.75 0.75 C38.3 3.55 38.71 5.44 39.19 9.19 C38.67 13.38 37.39 15.49 34.75 18.75 C32.04 20.1 29.74 19.82 26.75 19.75 C27.25 20.53 27.74 21.32 28.25 22.12 C29.75 24.75 29.75 24.75 29.75 26.75 C26.12 26.75 22.49 26.75 18.75 26.75 C19.41 25.43 20.07 24.11 20.75 22.75 C21.11 20.63 21.11 20.63 21.16 18.42 C21.2 17.62 21.24 16.82 21.28 16 C21.31 15.18 21.34 14.35 21.38 13.5 C21.41 12.66 21.45 11.82 21.49 10.95 C21.59 8.89 21.67 6.82 21.75 4.75 C20.76 4.75 19.77 4.75 18.75 4.75 C18.16 6.64 18.16 6.64 17.56 8.56 C12.88 22.62 12.88 22.62 8.75 26.75 C5.75 27.06 5.75 27.06 2.75 26.75 C2.09 25.76 1.43 24.77 0.75 23.75 C0.19 24.24 -0.36 24.73 -0.93 25.23 C-3.65 27.01 -5.09 27.13 -8.31 27.06 C-9.6 27.06 -9.6 27.06 -10.91 27.05 C-13.25 26.75 -13.25 26.75 -16.25 24.75 C-16.18 23.82 -16.11 22.89 -16.03 21.93 C-15.94 20.7 -15.85 19.46 -15.75 18.19 C-15.66 16.97 -15.56 15.75 -15.47 14.5 C-15.18 10.76 -15.18 10.76 -15.47 7.04 C-15.25 3.75 -15.25 3.75 -13.95 1.3 C-9.5 -1.25 -5 -0.4 0 0 Z M-9.25 3.75 C-9.25 5.73 -9.25 7.71 -9.25 9.75 C-8.26 9.75 -7.27 9.75 -6.25 9.75 C-6.25 7.77 -6.25 5.79 -6.25 3.75 C-7.24 3.75 -8.23 3.75 -9.25 3.75 Z M-0.25 4.75 C-0.52 5.88 -0.79 7.02 -1.06 8.19 C-2.25 11.75 -2.25 11.75 -4.88 13.19 C-5.66 13.37 -6.44 13.56 -7.25 13.75 C-7.25 14.08 -7.25 14.41 -7.25 14.75 C-4.94 15.08 -2.63 15.41 -0.25 15.75 C0.41 17.73 1.07 19.71 1.75 21.75 C4.06 21.09 6.37 20.43 8.75 19.75 C8.35 13.43 6.04 9.1 2.75 3.75 C1.53 3.68 1.53 3.68 -0.25 4.75 Z M28.75 4.75 C26.36 6.69 26.36 6.69 26.56 10.25 C26.51 13.6 26.51 13.6 27.75 15.75 C29.07 15.75 30.39 15.75 31.75 15.75 C33.14 12.98 32.94 10.82 32.75 7.75 C32.09 6.76 31.43 5.77 30.75 4.75 C30.09 4.75 29.43 4.75 28.75 4.75 Z M-11.25 19.75 C-11.25 20.41 -11.25 21.07 -11.25 21.75 C-8.34 22.56 -6.79 22.97 -3.94 21.81 C-3.38 21.46 -2.82 21.11 -2.25 20.75 C-2.25 20.42 -2.25 20.09 -2.25 19.75 C-5.22 19.75 -8.19 19.75 -11.25 19.75 Z " fill="#0C0403" transform="translate(408.25,375.25)"/>
<path d="M0 0 C0.72 0.14 1.43 0.29 2.17 0.44 C5.3 1.06 8.1 1.06 11.29 0.99 C12.48 0.98 13.67 0.96 14.89 0.94 C17.39 0.9 19.89 0.84 22.38 0.79 C23.57 0.77 24.75 0.76 25.98 0.74 C27.6 0.71 27.6 0.71 29.26 0.68 C32 1 32 1 33.94 2.27 C35 4 35 4 34.58 5.85 C34.39 6.56 34.2 7.27 34 8 C33.89 9.37 33.83 10.75 33.79 12.13 C33.77 12.93 33.75 13.73 33.73 14.55 C33.71 15.83 33.71 15.83 33.68 17.14 C33.66 18.02 33.64 18.9 33.62 19.81 C33.56 22.63 33.5 25.44 33.44 28.25 C33.39 30.16 33.35 32.07 33.31 33.98 C33.2 38.65 33.1 43.33 33 48 C30.52 48.5 30.52 48.5 28 49 C27.5 46.52 27.5 46.52 27 44 C20.07 44 13.14 44 6 44 C6 46.31 6 48.62 6 51 C5.34 51.66 4.68 52.32 4 53 C1.88 52.62 1.88 52.62 0 52 C-0.17 44.76 -0.33 37.51 -0.48 30.27 C-0.54 27.8 -0.59 25.33 -0.65 22.86 C-0.73 19.33 -0.81 15.79 -0.88 12.25 C-0.91 11.14 -0.93 10.03 -0.96 8.89 C-0.98 7.87 -1 6.85 -1.02 5.8 C-1.04 4.89 -1.06 3.99 -1.08 3.06 C-1 1 -1 1 0 0 Z M6 8 C5.9 9.83 5.87 11.67 5.88 13.5 C5.87 14.5 5.87 15.5 5.87 16.53 C5.72 18.94 5.72 18.94 7 20 C8.4 20.1 9.81 20.13 11.22 20.13 C12.07 20.13 12.92 20.14 13.79 20.14 C14.69 20.13 15.58 20.13 16.5 20.12 C17.84 20.13 17.84 20.13 19.21 20.14 C20.48 20.13 20.48 20.13 21.78 20.13 C22.57 20.13 23.35 20.13 24.16 20.13 C26.02 20.2 26.02 20.2 27 19 C27.1 17.17 27.13 15.33 27.12 13.5 C27.13 12.5 27.13 11.5 27.13 10.47 C27.28 8.06 27.28 8.06 26 7 C24.6 6.9 23.19 6.87 21.78 6.87 C20.93 6.87 20.08 6.86 19.21 6.86 C18.31 6.87 17.42 6.87 16.5 6.88 C15.16 6.87 15.16 6.87 13.79 6.86 C12.52 6.87 12.52 6.87 11.22 6.87 C10.04 6.87 10.04 6.87 8.84 6.87 C6.98 6.8 6.98 6.8 6 8 Z M6 25 C5.93 27.35 5.92 29.71 5.94 32.06 C5.96 34.35 5.98 36.64 6 39 C12.93 39 19.86 39 27 39 C27.02 36.71 27.04 34.42 27.06 32.06 C27.07 30.77 27.09 29.49 27.1 28.16 C27.37 25.14 27.37 25.14 26 24 C24.6 23.9 23.19 23.87 21.78 23.87 C20.93 23.87 20.08 23.86 19.21 23.86 C18.31 23.87 17.42 23.87 16.5 23.88 C15.16 23.87 15.16 23.87 13.79 23.86 C12.52 23.87 12.52 23.87 11.22 23.87 C10.04 23.87 10.04 23.87 8.84 23.87 C6.98 23.8 6.98 23.8 6 25 Z " fill="#0C0403" transform="translate(642,430)"/>
<path d="M0 0 C0.66 0.33 1.32 0.66 2 1 C2.24 6.48 2.46 11.96 2.65 17.44 C2.72 19.31 2.79 21.17 2.87 23.04 C2.99 25.72 3.09 28.4 3.17 31.08 C3.21 31.91 3.26 32.74 3.3 33.6 C3.45 39.36 3.45 39.36 1.22 42.55 C-1.88 44.57 -4.38 44.13 -8 44 C-8.66 44.66 -9.32 45.32 -10 46 C-10.52 45.68 -11.04 45.35 -11.57 45.02 C-14.75 43.69 -17.37 43.73 -20.81 43.69 C-22.15 43.67 -23.48 43.64 -24.82 43.62 C-26.91 43.59 -29.01 43.56 -31.1 43.54 C-33.13 43.52 -35.16 43.48 -37.19 43.44 C-38.4 43.43 -39.61 43.41 -40.86 43.4 C-45.81 42.77 -45.81 42.77 -48 40 C-48.35 36.94 -48.47 34.24 -48.39 31.18 C-48.38 30.31 -48.38 29.45 -48.37 28.57 C-48.35 25.81 -48.3 23.06 -48.25 20.31 C-48.23 18.45 -48.21 16.58 -48.2 14.72 C-48.15 10.14 -48.08 5.57 -48 1 C-46 2 -44 3 -42 4 C-42.33 15.22 -42.66 26.44 -43 38 C-35.08 37.67 -27.16 37.34 -19 37 C-20.84 26.66 -20.84 26.66 -25 23 C-27.63 22.75 -27.63 22.75 -30 23 C-31.32 25.64 -31.1 27.68 -31.06 30.62 C-31.05 31.63 -31.04 32.63 -31.04 33.66 C-31.02 34.43 -31.01 35.21 -31 36 C-31.99 36.5 -31.99 36.5 -33 37 C-35.5 35.56 -35.5 35.56 -38 33 C-38.99 28.61 -38.53 25.08 -36.56 21.06 C-32.97 18.17 -29.59 17.18 -25 17 C-20.63 18.46 -18.44 20.18 -16 24 C-15.2 26.22 -14.47 28.48 -13.81 30.75 C-13.47 31.92 -13.12 33.09 -12.77 34.3 C-12.39 35.63 -12.39 35.63 -12 37 C-9.36 37.33 -6.72 37.66 -4 38 C-4.06 36.99 -4.11 35.98 -4.17 34.94 C-4.37 31.19 -4.54 27.44 -4.7 23.69 C-4.78 22.07 -4.86 20.45 -4.95 18.83 C-5.08 16.5 -5.18 14.16 -5.27 11.83 C-5.32 11.11 -5.36 10.38 -5.41 9.64 C-5.48 7.58 -5.48 7.58 -5 4 C-2.48 1.51 -2.48 1.51 0 0 Z " fill="#0C0403" transform="translate(1130,78)"/>
<path d="M0 0 C2.98 1.52 2.98 1.52 6 4 C6.48 6.85 6.58 8.8 6.37 11.61 C6.34 12.34 6.31 13.06 6.27 13.81 C6.17 16.13 6.02 18.44 5.88 20.75 C5.8 22.32 5.72 23.89 5.65 25.46 C5.46 29.31 5.24 33.16 5 37 C6.98 36.5 6.98 36.5 9 36 C8.94 34.89 8.88 33.78 8.82 32.64 C8.78 31.18 8.73 29.71 8.69 28.25 C8.62 27.16 8.62 27.16 8.56 26.04 C8.47 22.07 8.61 20.41 11.39 17.48 C14 16 14 16 16 16 C16.33 22.6 16.66 29.2 17 36 C24.26 36.33 31.52 36.66 39 37 C38.57 35.27 38.13 33.53 37.69 31.75 C37.44 30.78 37.2 29.8 36.95 28.8 C35.99 25.97 35.03 24.17 33 22 C30.46 21.42 30.46 21.42 28 22 C25.72 25.42 25.78 26.68 25.88 30.69 C25.9 32.18 25.9 32.18 25.93 33.7 C25.95 34.46 25.98 35.22 26 36 C21.17 34.34 21.17 34.34 19.62 31.25 C18.93 27.63 18.88 25.52 20 22 C22.59 18.47 24.73 16.75 29 16 C33.29 16 34.76 16.3 38 19 C41.49 22.77 42.74 25.8 43.75 30.81 C43.99 31.97 44.23 33.14 44.48 34.33 C44.65 35.21 44.82 36.09 45 37 C47.31 37 49.62 37 52 37 C51.08 39.3 50.42 40.72 48.35 42.13 C45.18 43.3 42.56 43.14 39.19 43.01 C38.54 42.99 37.89 42.97 37.22 42.94 C35.84 42.89 34.47 42.84 33.1 42.78 C31.01 42.69 28.91 42.61 26.82 42.54 C16.61 42.16 16.61 42.16 13.7 41.41 C11.9 40.78 11.9 40.78 10 42 C7.91 42.02 7.91 42.02 5.5 41.81 C4.71 41.76 3.91 41.7 3.09 41.64 C1 41 1 41 -0.12 39.47 C-1.38 35.93 -1.27 32.48 -1.23 28.77 C-1.23 27.98 -1.23 27.19 -1.23 26.37 C-1.23 24.71 -1.22 23.04 -1.21 21.37 C-1.19 18.81 -1.19 16.25 -1.19 13.69 C-1.18 12.07 -1.17 10.45 -1.17 8.83 C-1.17 8.06 -1.17 7.29 -1.16 6.5 C-1.12 1.12 -1.12 1.12 0 0 Z " fill="#0C0403" transform="translate(373,79)"/>
<path d="M0 0 C2.44 1.56 2.44 1.56 4 4 C4.57 7.98 4.67 10.05 2.31 13.38 C-0.23 15.16 -1.92 15.76 -5 16 C-5.66 15.67 -6.32 15.34 -7 15 C-7.33 16.32 -7.66 17.64 -8 19 C-8.99 19 -9.98 19 -11 19 C-11.33 20.26 -11.66 21.52 -12 22.81 C-16.74 37 -28.33 46.33 -41.02 53.07 C-44.7 54.85 -47.1 55.3 -51 54 C-49.95 51.01 -49.13 50.08 -46.36 48.44 C-45.31 47.96 -44.26 47.49 -43.19 47 C-36.4 43.9 -32.01 40.4 -27.5 34.44 C-26.77 33.49 -26.04 32.54 -25.28 31.56 C-22.16 27.08 -20.14 22 -18 17 C-22.25 17.45 -26.5 17.91 -30.75 18.38 C-31.96 18.5 -33.16 18.63 -34.41 18.76 C-35.57 18.89 -36.73 19.02 -37.92 19.15 C-38.99 19.26 -40.06 19.38 -41.16 19.5 C-43.82 19.97 -45.68 20.64 -48 22 C-50.94 20.38 -50.94 20.38 -54 18 C-54.88 14.75 -54.88 14.75 -55 12 C-54.35 12.17 -53.7 12.35 -53.03 12.52 C-49.14 13.14 -45.41 12.89 -41.5 12.62 C-40.71 12.58 -39.91 12.53 -39.09 12.47 C-36.73 12.32 -34.36 12.16 -32 12 C-30.74 11.91 -29.48 11.83 -28.18 11.74 C-22.75 11.35 -17.37 10.87 -12 10 C-11.92 8.91 -11.84 7.81 -11.75 6.69 C-11 3 -11 3 -9.38 1.06 C-6.02 -0.44 -3.63 -0.45 0 0 Z M-6 5 C-6.68 6.89 -6.68 6.89 -7 9 C-6.34 9.66 -5.68 10.32 -5 11 C-2.89 10.68 -2.89 10.68 -1 10 C-1.33 8.35 -1.66 6.7 -2 5 C-3.32 5 -4.64 5 -6 5 Z " fill="#0C0403" transform="translate(557,425)"/>
<path d="M0 0 C3.79 0.39 5.51 2.24 8 5 C7 8 7 8 5.33 8.88 C4.64 9.1 3.96 9.33 3.25 9.56 C2.17 9.93 2.17 9.93 1.08 10.3 C0.05 10.65 0.05 10.65 -1 11 C-2.67 11.66 -4.34 12.32 -6 13 C-6 13.99 -6 14.98 -6 16 C-3.58 15.91 -1.17 15.81 1.25 15.69 C1.93 15.66 2.61 15.64 3.32 15.62 C7.56 15.39 9.78 14.72 13 12 C16.17 12.85 18.26 14.17 21 16 C21 17.32 21 18.64 21 20 C18.34 21.33 16.31 21.11 13.34 21.1 C12.21 21.09 11.09 21.09 9.94 21.09 C8.76 21.08 7.59 21.07 6.38 21.06 C5.19 21.06 4.01 21.05 2.79 21.05 C-0.14 21.04 -3.07 21.02 -6 21 C-5.95 21.88 -5.91 22.76 -5.86 23.67 C-5.81 25.41 -5.81 25.41 -5.75 27.19 C-5.7 28.34 -5.66 29.48 -5.61 30.67 C-6.08 34.65 -7.15 36.24 -10 39 C-12.75 39.31 -12.75 39.31 -15 39 C-15.33 38.34 -15.66 37.68 -16 37 C-17.64 36.28 -19.31 35.61 -21 35 C-21 33.68 -21 32.36 -21 31 C-18.36 31 -15.72 31 -13 31 C-13 27.7 -13 24.4 -13 21 C-14.07 21.01 -14.07 21.01 -15.17 21.02 C-18.41 21.04 -21.64 21.05 -24.88 21.06 C-26.57 21.08 -26.57 21.08 -28.29 21.09 C-29.37 21.09 -30.45 21.09 -31.55 21.1 C-32.55 21.1 -33.54 21.11 -34.57 21.11 C-37 21 -37 21 -39 20 C-38.67 18.68 -38.34 17.36 -38 16 C-29.75 16 -21.5 16 -13 16 C-13 13.69 -13 11.38 -13 9 C-12.34 8.67 -11.68 8.34 -11 8 C-12.7 7.94 -12.7 7.94 -14.43 7.89 C-15.91 7.82 -17.39 7.75 -18.88 7.69 C-19.62 7.66 -20.37 7.64 -21.14 7.62 C-23.1 7.52 -25.05 7.27 -27 7 C-27.66 6.01 -28.32 5.02 -29 4 C-28.67 3.34 -28.34 2.68 -28 2 C-26.78 1.96 -26.78 1.96 -25.54 1.92 C-21.88 1.81 -18.22 1.69 -14.56 1.56 C-13.28 1.52 -12 1.48 -10.69 1.44 C-8.86 1.38 -8.86 1.38 -7 1.32 C-5.88 1.28 -4.75 1.24 -3.59 1.21 C-1.07 1.29 -1.07 1.29 0 0 Z " fill="#0C0403" transform="translate(1121,446)"/>
<path d="M0 0 C2.4 0.32 3.81 0.86 5.75 2.31 C7 4 7 4 7 8 C6.11 8.27 5.23 8.54 4.31 8.81 C1.23 9.92 -1.22 11.3 -4 13 C-4.66 13 -5.32 13 -6 13 C-6 13.99 -6 14.98 -6 16 C-3.58 15.91 -1.17 15.81 1.25 15.69 C1.93 15.66 2.61 15.64 3.32 15.62 C7.55 15.39 9.78 14.72 13 12 C16.51 12.86 18.66 14.29 21 17 C20 20 20 20 18 21 C16.19 21.08 14.37 21.11 12.55 21.1 C11.48 21.09 10.4 21.09 9.29 21.09 C8.17 21.08 7.04 21.07 5.88 21.06 C4.17 21.06 4.17 21.06 2.43 21.05 C-0.38 21.04 -3.19 21.02 -6 21 C-5.95 22.21 -5.95 22.21 -5.89 23.45 C-5.87 24.52 -5.84 25.59 -5.81 26.69 C-5.76 28.27 -5.76 28.27 -5.71 29.89 C-6.06 33.66 -7.3 36.3 -10 39 C-11.67 39.04 -13.33 39.04 -15 39 C-15.33 38.01 -15.66 37.02 -16 36 C-17.65 35.67 -19.3 35.34 -21 35 C-21 33.68 -21 32.36 -21 31 C-18.36 31 -15.72 31 -13 31 C-13 27.7 -13 24.4 -13 21 C-21.25 21 -29.5 21 -38 21 C-38.33 19.35 -38.66 17.7 -39 16 C-30.42 16 -21.84 16 -13 16 C-13 13.69 -13 11.38 -13 9 C-12.2 9.02 -11.39 9.04 -10.56 9.06 C-8.07 9.3 -8.07 9.3 -7 8 C-13.93 7.67 -20.86 7.34 -28 7 C-28.33 6.01 -28.66 5.02 -29 4 C-28.67 3.34 -28.34 2.68 -28 2 C-26.78 1.96 -26.78 1.96 -25.54 1.92 C-21.88 1.81 -18.22 1.69 -14.56 1.56 C-13.28 1.52 -12 1.48 -10.69 1.44 C-8.86 1.38 -8.86 1.38 -7 1.32 C-5.88 1.28 -4.75 1.24 -3.59 1.21 C-1.07 1.29 -1.07 1.29 0 0 Z " fill="#0C0403" transform="translate(863,446)"/>
<path d="M0 0 C2 2 2 2 2 6 C-5.92 6.5 -5.92 6.5 -14 7 C-14.66 11.95 -15.32 16.9 -16 22 C-14.61 21.88 -13.23 21.76 -11.8 21.64 C-9.97 21.51 -8.14 21.38 -6.31 21.25 C-5.4 21.17 -4.49 21.09 -3.55 21 C0.8 20.72 3.26 20.59 7.14 22.73 C9 25 9 25 9 29 C8.11 28.99 7.22 28.98 6.3 28.97 C2.92 28.93 -0.46 28.91 -3.85 28.89 C-5.3 28.88 -6.75 28.87 -8.2 28.85 C-19.14 28.72 -30.08 28.98 -40.75 31.7 C-41.86 31.85 -41.86 31.85 -43 32 C-45.8 29.78 -47.62 28.09 -48.81 24.69 C-48.91 23.85 -48.91 23.85 -49 23 C-47.06 22.44 -47.06 22.44 -45 22 C-44.67 22.33 -44.34 22.66 -44 23 C-42.37 23.09 -40.73 23.11 -39.09 23.1 C-37.61 23.09 -37.61 23.09 -36.09 23.09 C-34.53 23.08 -34.53 23.08 -32.94 23.06 C-31.89 23.06 -30.85 23.05 -29.77 23.05 C-27.18 23.04 -24.59 23.02 -22 23 C-22.33 18.05 -22.66 13.1 -23 8 C-27.16 7.93 -30.61 7.91 -34.69 8.81 C-38 9 -38 9 -40.94 6.81 C-43 4 -43 4 -43 0 C-42.28 0.17 -41.56 0.33 -40.83 0.51 C-38.03 0.99 -35.63 1.05 -32.8 0.91 C-31.82 0.87 -30.83 0.83 -29.82 0.78 C-28.3 0.7 -28.3 0.7 -26.75 0.62 C-25.75 0.58 -24.75 0.54 -23.72 0.49 C-18.41 0.24 -13.16 -0.14 -7.89 -0.83 C-5.11 -1.08 -2.68 -0.72 0 0 Z " fill="#0C0403" transform="translate(419,440)"/>
<path d="M0 0 C3.88 0.27 5.73 0.79 8.81 3.25 C11.03 6.03 11.81 7.49 12 11 C11.67 11.66 11.34 12.32 11 13 C12.65 13 14.3 13 16 13 C17.98 9.04 19.96 5.08 22 1 C26.48 1.9 27.77 2.25 31 5 C29.53 8.87 27.53 10.01 24 12 C23.67 12.66 23.34 13.32 23 14 C23.64 13.77 24.28 13.55 24.94 13.32 C27.75 12.51 30.07 11.98 33 12 C35.94 13.88 37.94 16.2 40 19 C39 22 39 22 37.29 22.91 C36.6 23.15 35.9 23.38 35.19 23.62 C34.5 23.86 33.81 24.1 33.11 24.35 C31.08 24.97 29.06 25.51 27 26 C26.51 24.51 26.51 24.51 26 23 C26.66 21.68 27.32 20.36 28 19 C15.13 19.33 2.26 19.66 -11 20 C-11.99 22.31 -12.98 24.62 -14 27 C-14.66 27.66 -15.32 28.32 -16 29 C-18.12 28.62 -18.12 28.62 -20 28 C-20.69 25.75 -20.69 25.75 -21 23 C-20.05 21.63 -19.04 20.3 -18 19 C-16.87 16.37 -15.95 13.71 -15 11 C-14.01 11.66 -13.02 12.32 -12 13 C-10.68 13 -9.36 13 -8 13 C-8.64 12.09 -9.28 11.19 -9.94 10.25 C-11.61 7.61 -12.54 6.01 -13 3 C-10 2 -10 2 -6.44 3.56 C-3.59 5.29 -3.02 5.96 -1.5 9.12 C-1 12 -1 12 -2 14 C0.64 13.67 3.28 13.34 6 13 C5.65 12.48 5.3 11.96 4.94 11.43 C0.42 4.5 0.42 4.5 0 0 Z " fill="#0C0403" transform="translate(1102,424)"/>
<path d="M0 0 C4.91 0.43 7.63 2.47 11 6 C11.44 9.25 11.44 9.25 11 12 C10.67 12.33 10.34 12.66 10 13 C11.98 13 13.96 13 16 13 C17.98 9.04 19.96 5.08 22 1 C27.02 2 27.86 2.4 31 6 C28.88 9.18 27.27 10.16 24 12 C23.67 12.33 23.34 12.66 23 13 C27.65 13.27 27.65 13.27 32 12 C33.18 12.9 34.34 13.82 35.5 14.75 C36.15 15.26 36.8 15.77 37.47 16.3 C39 18 39 18 39 22 C37.4 22.7 35.8 23.38 34.19 24.06 C32.85 24.64 32.85 24.64 31.48 25.22 C29 26 29 26 26 25 C26.51 22.83 27 21 28 19 C15.13 19.33 2.26 19.66 -11 20 C-12.32 22.64 -13.64 25.28 -15 28 C-16.32 28.33 -17.64 28.66 -19 29 C-20.75 27.56 -20.75 27.56 -22 26 C-20.88 23.03 -19.78 20.67 -18 18 C-17.61 16.01 -17.27 14.01 -17 12 C-16.01 11.67 -15.02 11.34 -14 11 C-13.34 11.66 -12.68 12.32 -12 13 C-9.93 13.64 -9.93 13.64 -8 14 C-10.03 9.68 -10.03 9.68 -13 6 C-12.62 3.88 -12.62 3.88 -12 2 C-7.6 3.2 -4.87 4.39 -2 8 C-1.19 10.12 -1.19 10.12 -1 12 C-1.33 12.66 -1.66 13.32 -2 14 C0.64 13.67 3.28 13.34 6 13 C5.57 12.4 5.13 11.79 4.69 11.17 C4.13 10.37 3.57 9.57 3 8.75 C2.44 7.96 1.89 7.17 1.31 6.36 C0 4 0 4 0 0 Z " fill="#0C0403" transform="translate(844,424)"/>
<path d="M0 0 C0.66 0 1.32 0 2 0 C2.33 7.92 2.66 15.84 3 24 C3.99 23.67 4.98 23.34 6 23 C5.93 21.89 5.86 20.78 5.79 19.64 C5.73 18.18 5.68 16.71 5.62 15.25 C5.57 14.52 5.52 13.79 5.47 13.04 C5.41 10.89 5.41 10.89 6 7 C9.02 4.48 9.02 4.48 12 3 C13.17 5.35 13.12 6.74 13.1 9.35 C13.09 10.2 13.09 11.05 13.09 11.93 C13.08 13.26 13.08 13.26 13.06 14.62 C13.06 15.52 13.05 16.42 13.05 17.34 C13.04 19.56 13.02 21.78 13 24 C14.32 24 15.64 24 17 24 C16.88 22.81 16.76 21.62 16.64 20.39 C16.51 18.82 16.38 17.25 16.25 15.69 C16.17 14.9 16.09 14.12 16 13.31 C15.84 11.14 15.74 9.16 16 7 C17.8 4.96 17.8 4.96 20 4 C20.99 4 21.98 4 23 4 C23.28 7.58 23.52 11.16 23.75 14.75 C23.83 15.77 23.91 16.78 24 17.83 C24.44 25.31 24.44 25.31 22.27 28.71 C19.73 30.15 18.76 30.36 15.94 29.81 C15.27 29.7 14.59 29.58 13.9 29.46 C12 29 12 29 9 28 C7.85 28.19 6.69 28.37 5.5 28.56 C2 29 2 29 -1 27 C-1.74 27.53 -1.74 27.53 -2.5 28.06 C-6.12 29.42 -9.35 29.01 -13 28 C-16.55 25.76 -18.4 23.83 -20 20 C-20.8 15.27 -20.69 12 -17.94 8 C-13.88 5.24 -10.39 4.57 -5.56 5.44 C-5.05 5.62 -4.53 5.81 -4 6 C-3.57 5.07 -3.57 5.07 -3.12 4.12 C-2 2 -2 2 0 0 Z M-14.94 11.06 C-16.22 13.05 -16.22 13.05 -16.06 15.88 C-14.57 20.27 -12.92 21.51 -9 24 C-5.64 23.87 -5.64 23.87 -3 22 C-3.46 15.81 -3.46 15.81 -7 11 C-11.07 9.72 -11.07 9.72 -14.94 11.06 Z " fill="#0C0403" transform="translate(761,92)"/>
<path d="M0 0 C1.47 0.08 1.47 0.08 2.97 0.17 C3.98 0.24 5 0.31 6.05 0.39 C7.08 0.45 8.11 0.51 9.17 0.57 C11.71 0.73 14.26 0.89 16.8 1.07 C17.13 3.71 17.46 6.35 17.8 9.07 C19.05 6.17 19.8 4.28 19.8 1.07 C22.11 1.07 24.42 1.07 26.8 1.07 C26.8 2.06 26.8 3.05 26.8 4.07 C26.14 4.07 25.48 4.07 24.8 4.07 C24.56 4.97 24.56 4.97 24.32 5.88 C19.74 22.13 19.74 22.13 14.8 27.07 C11.67 27.2 11.67 27.2 8.8 27.07 C8.47 26.08 8.14 25.09 7.8 24.07 C7.18 24.57 6.56 25.06 5.92 25.57 C1.61 27.65 -2.48 27.69 -7.2 27.07 C-8.19 26.41 -9.18 25.75 -10.2 25.07 C-10.13 24.16 -10.06 23.24 -9.98 22.29 C-9.89 21.07 -9.8 19.84 -9.7 18.57 C-9.61 17.3 -9.51 16.02 -9.41 14.71 C-9.25 11.88 -9.24 9.21 -9.39 6.39 C-9.2 3.07 -9.2 3.07 -7.52 1.37 C-4.72 -0.2 -3.18 -0.2 0 0 Z M-3.2 4.07 C-3.2 6.05 -3.2 8.03 -3.2 10.07 C-2.21 10.07 -1.22 10.07 -0.2 10.07 C-0.2 8.09 -0.2 6.11 -0.2 4.07 C-1.19 4.07 -2.18 4.07 -3.2 4.07 Z M5.8 5.07 C5.53 6.21 5.26 7.34 4.98 8.51 C3.8 12.07 3.8 12.07 1.17 13.51 C0.39 13.7 -0.4 13.88 -1.2 14.07 C-1.2 14.4 -1.2 14.73 -1.2 15.07 C1.11 15.4 3.42 15.73 5.8 16.07 C6.46 18.05 7.12 20.03 7.8 22.07 C10.11 21.41 12.42 20.75 14.8 20.07 C14.39 13.76 12.08 9.42 8.8 4.07 C7.57 4 7.57 4 5.8 5.07 Z M-5.2 20.07 C-5.2 20.73 -5.2 21.39 -5.2 22.07 C-2.29 22.88 -0.74 23.29 2.11 22.14 C2.67 21.79 3.22 21.44 3.8 21.07 C3.8 20.74 3.8 20.41 3.8 20.07 C0.83 20.07 -2.14 20.07 -5.2 20.07 Z " fill="#0C0403" transform="translate(1116.203125,374.92578125)"/>
<path d="M0 0 C1.05 0.56 1.05 0.56 2.12 1.12 C2.74 1.41 3.36 1.7 4 2 C4.58 1.71 5.15 1.42 5.75 1.12 C9.22 -0.61 12.14 -0.18 16 0 C16.99 0.33 17.98 0.66 19 1 C19.33 0.67 19.66 0.34 20 0 C21.52 -0.07 23.04 -0.08 24.56 -0.06 C25.39 -0.05 26.22 -0.04 27.07 -0.04 C27.7 -0.02 28.34 -0.01 29 0 C28.98 0.61 28.95 1.23 28.93 1.86 C28.91 2.67 28.89 3.48 28.88 4.31 C28.85 5.11 28.83 5.91 28.8 6.74 C28.84 9.28 28.84 9.28 31 12 C30.68 14.63 30.19 16.63 29 19 C27.04 19.45 27.04 19.45 24.62 19.69 C23.83 19.77 23.04 19.86 22.23 19.95 C20 20 20 20 17 19 C17 14.67 17 10.33 17 6 C15.35 6 13.7 6 12 6 C12.14 7.6 12.29 9.21 12.44 10.81 C12.52 11.71 12.6 12.6 12.68 13.52 C12.93 16.13 12.93 16.13 14 19 C10.7 19 7.4 19 4 19 C4 18.01 4 17.02 4 16 C4.66 16 5.32 16 6 16 C6 12.37 6 8.74 6 5 C5.34 5 4.68 5 4 5 C4 6.32 4 7.64 4 9 C0.37 9 -3.26 9 -7 9 C-6.01 10.32 -5.02 11.64 -4 13 C-2.68 13 -1.36 13 0 13 C0.33 12.34 0.66 11.68 1 11 C1.99 11 2.98 11 4 11 C3.71 14.23 3.5 16.38 1.44 18.94 C-2.19 20.52 -5.27 20.27 -9 19 C-11.7 16.22 -12.19 13.75 -12.38 10 C-12.23 6.31 -11.38 3.91 -9 1 C-5.73 -0.09 -3.43 -0.21 0 0 Z M-6 4 C-6 4.66 -6 5.32 -6 6 C-5.01 6 -4.02 6 -3 6 C-3 5.34 -3 4.68 -3 4 C-3.99 4 -4.98 4 -6 4 Z M22 4 C22 4.66 22 5.32 22 6 C23.32 6.33 24.64 6.66 26 7 C25.67 6.01 25.34 5.02 25 4 C24.01 4 23.02 4 22 4 Z M20 12 C20.66 13.32 21.32 14.64 22 16 C22.99 16 23.98 16 25 16 C24.67 15.01 24.34 14.02 24 13 C21.98 12.27 21.98 12.27 20 12 Z " fill="#0C0403" transform="translate(666,375)"/>
<path d="M0 0 C2.47 1.02 2.47 1.02 5 3 C5.46 5.78 5.59 7.96 5.49 10.73 C5.48 11.48 5.47 12.23 5.47 13 C5.44 15.4 5.38 17.79 5.31 20.19 C5.29 21.81 5.26 23.44 5.24 25.06 C5.19 29.04 5.1 33.02 5 37 C6.98 36.5 6.98 36.5 9 36 C8.93 34.89 8.86 33.78 8.79 32.64 C8.73 31.18 8.68 29.71 8.62 28.25 C8.57 27.52 8.52 26.79 8.47 26.04 C8.41 23.89 8.41 23.89 9 20 C12.02 17.48 12.02 17.48 15 16 C16.65 19.31 16.1 22.99 16.06 26.62 C16.06 27.43 16.05 28.23 16.05 29.05 C16.04 31.04 16.02 33.02 16 35 C17.65 35.66 19.3 36.32 21 37 C20.67 25.78 20.34 14.56 20 3 C21.98 2.01 23.96 1.02 26 0 C26.27 5.48 26.5 10.96 26.7 16.44 C26.78 18.31 26.86 20.17 26.95 22.04 C27.08 24.72 27.18 27.4 27.27 30.08 C27.32 30.91 27.36 31.74 27.41 32.6 C27.56 38.37 27.56 38.37 24.71 41.57 C21.06 43.49 18.94 42.95 15 42 C14.01 41.67 13.02 41.34 12 41 C11.01 41.5 11.01 41.5 10 42 C3.53 42.35 3.53 42.35 0 40 C-1.25 36.26 -1.14 32.77 -1.13 28.87 C-1.13 28.07 -1.13 27.28 -1.14 26.47 C-1.14 24.79 -1.13 23.12 -1.13 21.45 C-1.13 18.88 -1.13 16.31 -1.14 13.74 C-1.14 12.11 -1.13 10.49 -1.13 8.87 C-1.13 8.09 -1.14 7.32 -1.14 6.53 C-1.11 1.11 -1.11 1.11 0 0 Z " fill="#0C0403" transform="translate(809,79)"/>
<path d="M0 0 C0.22 5.66 0.41 11.32 0.59 16.98 C0.66 18.91 0.72 20.83 0.8 22.76 C0.91 25.52 0.99 28.29 1.07 31.05 C1.11 31.92 1.15 32.78 1.19 33.67 C1.25 36.1 1.25 36.1 1 40 C-2.2 42.14 -3.02 42.23 -6.69 42.12 C-7.5 42.11 -8.3 42.09 -9.14 42.07 C-9.75 42.05 -10.37 42.02 -11 42 C-11.25 42.93 -11.5 43.86 -11.75 44.81 C-13.09 48.22 -13.78 49.35 -17 51 C-19.75 51.19 -19.75 51.19 -22 51 C-20.89 47.66 -19.53 46.36 -17 44 C-18.2 43.94 -19.39 43.88 -20.62 43.81 C-25.47 43.21 -27.61 41.47 -31 38 C-33.32 34.94 -33.41 31.77 -33.33 27.97 C-32.81 24.86 -31.21 23.15 -29 21 C-25.73 19.36 -22.52 19.34 -19 20 C-14.64 22.37 -12.39 25.02 -10.56 29.62 C-10 33 -10 33 -10 37 C-8.35 37 -6.7 37 -5 37 C-5.33 25.78 -5.66 14.56 -6 3 C-1 0 -1 0 0 0 Z M-28 26 C-28.42 30.64 -27.78 33.25 -25 37 C-22.27 38.37 -20.02 38.13 -17 38 C-15.64 36.85 -15.64 36.85 -15.69 33.75 C-15.75 30 -15.75 30 -17.56 27.06 C-19.94 24.65 -19.94 24.65 -23.69 24.62 C-26.84 24.63 -26.84 24.63 -28 26 Z " fill="#0C0403" transform="translate(461,79)"/>
<path d="M0 0 C0 2.97 0 5.94 0 9 C1.09 8.77 2.19 8.55 3.31 8.31 C7 8 7 8 8.72 9.06 C10.62 11.93 10.29 14.29 10.19 17.69 C10.16 18.87 10.13 20.05 10.11 21.26 C10.07 22.17 10.04 23.07 10 24 C10.99 24 11.98 24 13 24 C13 20.37 13 16.74 13 13 C12.34 13 11.68 13 11 13 C11.33 11.68 11.66 10.36 12 9 C17.29 8.16 21.69 7.81 27 9 C28.32 11.64 28.3 13.93 28.5 16.88 C28.75 20.45 29.12 23.5 30 27 C17.46 27 4.92 27 -8 27 C-7.34 25.68 -6.68 24.36 -6 23 C-5.73 20.78 -5.73 20.78 -5.8 18.45 C-5.81 17.61 -5.82 16.76 -5.82 15.89 C-5.84 15.02 -5.86 14.15 -5.88 13.25 C-5.88 12.36 -5.89 11.47 -5.9 10.56 C-5.93 8.37 -5.96 6.19 -6 4 C-6.66 4 -7.32 4 -8 4 C-7.19 2.06 -7.19 2.06 -6 0 C-3 -1 -3 -1 0 0 Z M1 13 C-0.26 14.03 -0.26 14.03 -0.1 16.29 C-0.09 17.2 -0.07 18.12 -0.06 19.06 C-0.05 19.98 -0.04 20.9 -0.04 21.85 C-0.02 22.56 -0.01 23.27 0 24 C1.32 24 2.64 24 4 24 C4 20.37 4 16.74 4 13 C3.01 13 2.02 13 1 13 Z M20 13 C18.74 14.03 18.74 14.03 18.9 16.29 C18.91 17.2 18.93 18.12 18.94 19.06 C18.95 19.98 18.96 20.9 18.96 21.85 C18.98 22.56 18.99 23.27 19 24 C20.32 23.67 21.64 23.34 23 23 C23.02 21.72 23.04 20.44 23.06 19.12 C23.07 18.41 23.09 17.69 23.1 16.95 C23.13 14.92 23.13 14.92 22 13 C21.34 13 20.68 13 20 13 Z " fill="#0C0403" transform="translate(1029,367)"/>
<path d="M0 0 C2.27 1 2.27 1 4 3 C4.21 5.96 3.73 8.77 3.25 11.69 C3.14 12.48 3.02 13.28 2.91 14.1 C2.62 16.07 2.31 18.04 2 20 C3.85 20.19 3.85 20.19 5.74 20.39 C12.79 21.28 18.57 24.32 23 30 C23.31 32.81 23.31 32.81 23 35 C20.77 35.73 20.77 35.73 18 36 C15.79 34.45 15.79 34.45 13.62 32.25 C9.68 28.26 7.67 27.43 2 25 C2 34.24 2 43.48 2 53 C0.68 53.66 -0.64 54.32 -2 55 C-4.05 53.34 -4.92 52.46 -5.36 49.82 C-5.35 48.97 -5.35 48.12 -5.34 47.25 C-5.34 46.29 -5.34 45.33 -5.34 44.34 C-5.32 43.31 -5.31 42.27 -5.29 41.21 C-5.29 40.15 -5.28 39.08 -5.28 37.99 C-5.26 34.6 -5.23 31.21 -5.19 27.81 C-5.17 25.51 -5.16 23.21 -5.15 20.92 C-5.11 15.28 -5.06 9.64 -5 4 C-6.32 3.67 -7.64 3.34 -9 3 C-9 2.01 -9 1.02 -9 0 C-5.85 -1.58 -3.37 -0.7 0 0 Z " fill="#0C0403" transform="translate(592,428)"/>
<path d="M0 0 C2.44 1.5 2.44 1.5 4 3 C4.62 2.5 5.24 2.01 5.88 1.5 C10.15 -0.55 14.33 -0.81 19 0 C20.79 1.11 20.79 1.11 22 3 C22.29 6.14 22.29 6.14 22.19 9.69 C22.15 11.46 22.15 11.46 22.11 13.26 C22.07 14.17 22.04 15.07 22 16 C22.66 16 23.32 16 24 16 C24 16.99 24 17.98 24 19 C19.5 19.22 15 19.41 10.49 19.59 C8.96 19.66 7.43 19.72 5.9 19.8 C3.7 19.91 1.5 19.99 -0.71 20.07 C-1.73 20.13 -1.73 20.13 -2.78 20.19 C-5.64 20.28 -7.52 20.32 -9.94 18.69 C-11.57 16.09 -11.32 13.99 -11 11 C-10.34 10.34 -9.68 9.68 -9 9 C-9.33 8.67 -9.66 8.34 -10 8 C-10.25 5.06 -10.25 5.06 -10 2 C-6.29 -0.47 -4.39 -0.39 0 0 Z M-5 4 C-5 4.99 -5 5.98 -5 7 C-4.01 6.67 -3.02 6.34 -2 6 C-2.33 5.34 -2.66 4.68 -3 4 C-3.66 4 -4.32 4 -5 4 Z M4 4 C4 7.3 4 10.6 4 14 C4.99 14.33 5.98 14.66 7 15 C7 11.7 7 8.4 7 5 C6.01 4.67 5.02 4.34 4 4 Z M14 5 C11.82 6.76 11.82 6.76 11.8 8.95 C11.84 10.02 11.84 10.02 11.88 11.12 C11.92 12.4 11.96 13.68 12 15 C13.95 15.59 13.95 15.59 16 16 C17.9 14.1 17.12 11.43 17.13 8.91 C17.12 6.91 17.12 6.91 16 5 C15.34 5 14.68 5 14 5 Z M-4 11 C-4.33 12.32 -4.66 13.64 -5 15 C-4.01 14.67 -3.02 14.34 -2 14 C-2 13.01 -2 12.02 -2 11 C-2.66 11 -3.32 11 -4 11 Z " fill="#0C0403" transform="translate(919,375)"/>
<path d="M0 0 C3.32 0.54 6.21 0.12 9.54 -0.3 C11.96 -0.6 14.25 -0.78 16.69 -0.56 C19.47 2.22 19.27 4.5 19.75 8.38 C20.38 13.48 20.38 13.48 21.69 18.44 C15.09 18.44 8.49 18.44 1.69 18.44 C2.02 17.45 2.35 16.46 2.69 15.44 C2.73 13.1 2.73 10.77 2.69 8.44 C-0.94 8.44 -4.57 8.44 -8.31 8.44 C-7.65 9.76 -6.99 11.08 -6.31 12.44 C-3.29 11.85 -0.29 11.21 2.69 10.44 C2.35 13.5 1.83 15.24 0 17.75 C-2.31 19.44 -2.31 19.44 -5.25 19.94 C-9.16 19.3 -10.7 18.43 -13.31 15.44 C-14.52 11.67 -14.56 8.45 -13.62 4.62 C-10.27 -0.97 -6.13 -1.49 0 0 Z M-7.31 3.44 C-7.31 4.1 -7.31 4.76 -7.31 5.44 C-6.32 5.44 -5.33 5.44 -4.31 5.44 C-4.31 4.78 -4.31 4.12 -4.31 3.44 C-5.3 3.44 -6.29 3.44 -7.31 3.44 Z M10.69 4.44 C9.43 5.47 9.43 5.47 9.59 7.72 C9.6 8.64 9.61 9.56 9.62 10.5 C9.63 11.42 9.64 12.34 9.65 13.29 C9.66 14 9.68 14.71 9.69 15.44 C11.01 15.44 12.33 15.44 13.69 15.44 C13.69 11.81 13.69 8.18 13.69 4.44 C12.7 4.44 11.71 4.44 10.69 4.44 Z " fill="#0C0403" transform="translate(845.3125,375.5625)"/>
<path d="M0 0 C0.66 0.33 1.32 0.66 2 1 C1.99 2.25 1.98 3.51 1.96 4.8 C1.96 6.45 1.95 8.1 1.94 9.75 C1.93 10.58 1.92 11.4 1.91 12.25 C1.91 13.05 1.91 13.85 1.9 14.67 C1.9 15.41 1.89 16.14 1.89 16.89 C2 19.05 2.41 20.93 3 23 C4.32 23.33 5.64 23.66 7 24 C6.88 22.81 6.76 21.62 6.64 20.39 C6.51 18.82 6.38 17.25 6.25 15.69 C6.17 14.9 6.09 14.12 6 13.31 C5.84 11.14 5.73 9.16 6 7 C7.86 4.96 7.86 4.96 10 4 C10.66 4 11.32 4 12 4 C12.17 7.27 12.33 10.54 12.5 13.81 C12.55 14.74 12.6 15.67 12.64 16.63 C12.69 17.52 12.73 18.41 12.78 19.33 C12.82 20.15 12.87 20.98 12.91 21.82 C13.12 26.83 13.12 26.83 11.78 28.7 C9.45 30.4 8.32 30.21 5.5 29.81 C4.73 29.72 3.95 29.62 3.16 29.52 C1 29 1 29 -2 27 C-2.52 27.35 -3.03 27.7 -3.56 28.06 C-7.52 29.58 -11.2 28.71 -15.07 27.18 C-18.53 25.06 -19.81 21.77 -21 18 C-21.3 14.85 -20.9 13.16 -20 10 C-17.28 6.88 -15.45 6.11 -11.44 5.12 C-8.11 5 -6.7 5.16 -4 7 C-4 5.68 -4 4.36 -4 3 C-2 1.25 -2 1.25 0 0 Z M-14.75 11.12 C-16.27 13.02 -16.27 13.02 -16 15.88 C-14.75 19.78 -13.23 21.5 -10 24 C-7.37 24.67 -7.37 24.67 -5 24 C-2.73 21.2 -2.73 21.2 -3 18.12 C-4.4 13.77 -6.24 12.56 -10 10 C-12.93 9.73 -12.93 9.73 -14.75 11.12 Z " fill="#0C0403" transform="translate(874,92)"/>
<path d="M0 0 C2.88 2.5 2.88 2.5 5 5 C5.7 4.18 6.4 3.35 7.12 2.5 C10 0 10 0 13 -0.62 C17.02 0.21 18.52 1.79 21 5 C21 6.32 21 7.64 21 9 C17.37 9 13.74 9 10 9 C10.66 10.32 11.32 11.64 12 13 C15.02 12.41 18.02 11.77 21 11 C20.66 14.06 20.14 15.8 18.31 18.31 C16 20 16 20 13.12 20.56 C8.84 19.79 7.13 17.98 4 15 C3.32 15.85 2.64 16.69 1.94 17.56 C-1 20 -1 20 -4.62 19.94 C-8 19 -8 19 -11 17 C-12.24 13.29 -12.56 9.86 -12 6 C-8.69 0.82 -6.16 -0.72 0 0 Z M-5 4 C-6.38 5.16 -6.38 5.16 -6.31 8.38 C-6.4 12.04 -6.4 12.04 -4 13.94 C-3.34 14.29 -2.68 14.64 -2 15 C-1.35 14.29 -1.35 14.29 -0.69 13.56 C1 12 1 12 4 11 C3.67 9.68 3.34 8.36 3 7 C1.68 7 0.36 7 -1 7 C-1.33 6.01 -1.66 5.02 -2 4 C-2.99 4 -3.98 4 -5 4 Z M11 4 C11 4.66 11 5.32 11 6 C11.99 5.67 12.98 5.34 14 5 C13.01 4.67 12.02 4.34 11 4 Z " fill="#0C0403" transform="translate(878,375)"/>
<path d="M0 0 C2.88 2.5 2.88 2.5 5 5 C5.68 4.18 6.36 3.35 7.06 2.5 C10 0 10 0 13.62 -0.44 C17 0 17 0 20 2 C20.19 4.62 20.19 4.62 20 7 C18.35 7.33 16.7 7.66 15 8 C14.67 6.68 14.34 5.36 14 4 C13.01 4.66 12.02 5.32 11 6 C11.33 8.31 11.66 10.62 12 13 C13.32 13 14.64 13 16 13 C16.66 12.34 17.32 11.68 18 11 C18.99 11 19.98 11 21 11 C20.45 14.37 19.95 16.08 18 19 C12.99 20.31 12.99 20.31 10 20 C7 17.56 7 17.56 5 15 C4.5 15.96 4.5 15.96 4 16.94 C1.44 19.58 -0.39 19.9 -3.99 20.14 C-6 20 -6 20 -9 18.75 C-11.71 15.02 -11.7 12.18 -11.48 7.64 C-11 5 -11 5 -8.88 1.81 C-5.45 -0.35 -3.97 -0.83 0 0 Z M-5 4 C-5.33 4.66 -5.66 5.32 -6 6 C-4.68 5.67 -3.36 5.34 -2 5 C-2.99 4.67 -3.98 4.34 -5 4 Z M-6 9 C-5.67 10.32 -5.34 11.64 -5 13 C-1.69 14.04 -0.4 14.19 2.81 12.69 C3.53 12.13 4.26 11.57 5 11 C5 10.34 5 9.68 5 9 C1.37 9 -2.26 9 -6 9 Z " fill="#0C0403" transform="translate(1001,375)"/>
<path d="M0 0 C0.99 0 1.98 0 3 0 C3.33 1.65 3.66 3.3 4 5 C7.63 5.33 11.26 5.66 15 6 C15.33 8.31 15.66 10.62 16 13 C17.46 10.35 18 9.11 18 6 C20.31 6 22.62 6 25 6 C23.92 10.74 22 15.09 20.12 19.56 C19.77 20.43 19.42 21.29 19.06 22.18 C18.71 23.01 18.37 23.84 18.01 24.69 C17.69 25.45 17.38 26.2 17.06 26.98 C15.93 29.13 14.91 30.49 13 32 C9.81 32.19 9.81 32.19 7 32 C6.67 30.35 6.34 28.7 6 27 C7.98 26.34 9.96 25.68 12 25 C11.55 19.55 10.4 14.42 7 10 C5.68 9.67 4.36 9.34 3 9 C3.33 12.3 3.66 15.6 4 19 C4.99 19 5.98 19 7 19 C6.67 20.65 6.34 22.3 6 24 C3.69 24.62 3.69 24.62 1 25 C0.01 24.34 -0.98 23.68 -2 23 C-2.44 20 -2.44 20 -2.56 16.44 C-2.64 14.29 -2.77 12.14 -3 10 C-3.66 9.67 -4.32 9.34 -5 9 C-5 6 -5 6 -3.06 3.94 C-2.38 3.3 -1.7 2.66 -1 2 C-0.67 1.34 -0.34 0.68 0 0 Z " fill="#0C0403" transform="translate(711,370)"/>
<path d="M0 0 C0.3 3.09 0.27 4.59 -1.47 7.21 C-6.08 12.13 -10.82 16.69 -16 21 C-16.93 21.8 -17.86 22.59 -18.82 23.41 C-36.55 38.5 -36.55 38.5 -43 39 C-47.04 36.44 -48.65 35.34 -49.88 30.69 C-49.92 29.8 -49.96 28.91 -50 28 C-49.01 27.34 -48.02 26.68 -47 26 C-46.34 27.32 -45.68 28.64 -45 30 C-38.37 28.17 -33.22 25.55 -27.69 21.5 C-26.96 20.98 -26.23 20.45 -25.48 19.91 C-18.04 14.47 -11.12 8.46 -4.86 1.69 C-3 0 -3 0 0 0 Z " fill="#0C0403" transform="translate(495,440)"/>
<path d="M0 0 C0.95 -0.03 1.9 -0.06 2.88 -0.09 C5.44 0.38 5.44 0.38 7.27 2.01 C8.77 5.04 8.73 7.25 8.62 10.62 C8.6 11.7 8.57 12.78 8.54 13.89 C8.51 14.71 8.47 15.53 8.44 16.38 C9.43 16.05 10.42 15.71 11.44 15.38 C11.49 13.94 11.53 12.5 11.56 11.06 C11.59 10.26 11.61 9.46 11.63 8.64 C11.6 6.09 11.6 6.09 9.44 3.38 C14.06 0.38 14.06 0.38 17.44 0.38 C17.49 1.41 17.54 2.45 17.59 3.52 C17.66 4.89 17.74 6.26 17.81 7.62 C17.84 8.31 17.87 8.99 17.91 9.69 C18.14 13.62 18.63 15.76 20.44 19.38 C10.54 19.38 0.64 19.38 -9.56 19.38 C-8.9 18.06 -8.24 16.74 -7.56 15.38 C-7.32 13.01 -7.32 13.01 -7.44 10.62 C-7.46 9.83 -7.47 9.03 -7.49 8.2 C-7.52 7.6 -7.54 7 -7.56 6.38 C-8.22 6.05 -8.88 5.71 -9.56 5.38 C-9.56 4.38 -9.56 3.39 -9.56 2.38 C-6.31 0.45 -3.76 0.05 0 0 Z M-0.56 5.38 C-1.82 6.41 -1.82 6.41 -1.66 8.66 C-1.65 9.58 -1.64 10.49 -1.62 11.44 C-1.62 12.36 -1.61 13.28 -1.6 14.22 C-1.59 14.93 -1.57 15.64 -1.56 16.38 C-0.24 16.38 1.08 16.38 2.44 16.38 C2.44 12.75 2.44 9.12 2.44 5.38 C1.45 5.38 0.46 5.38 -0.56 5.38 Z " fill="#0C0403" transform="translate(615.5625,374.625)"/>
<path d="M0 0 C6.77 4.82 6.77 4.82 8 9 C8.45 13.97 8.16 17.05 5 21 C1.55 23.24 -1.7 23.38 -5.75 23.62 C-6.92 23.7 -8.09 23.77 -9.3 23.85 C-10.19 23.9 -11.08 23.95 -12 24 C-11.92 25.09 -11.84 26.19 -11.75 27.31 C-12 31 -12 31 -13.88 32.94 C-16 34 -16 34 -18 34 C-18.11 31.9 -18.19 29.79 -18.25 27.69 C-18.32 25.93 -18.32 25.93 -18.39 24.14 C-18 21 -18 21 -16.11 19.08 C-14 18 -14 18 -12 18 C-12.66 17.01 -13.32 16.02 -14 15 C-14.55 11.61 -14.54 8.39 -14 5 C-9.95 -0.37 -6.47 -1.78 0 0 Z M-7 5 C-9.28 6.86 -9.28 6.86 -9.31 9.81 C-8.95 13.49 -8.45 15.23 -6 18 C-2.5 19.07 -2.5 19.07 1 19 C1.66 18.34 2.32 17.68 3 17 C2.75 12.56 2.41 9.05 -1 6 C-4 5.01 -4 5.01 -7 5 Z " fill="#0C0403" transform="translate(636,98)"/>
<path d="M0 0 C2.96 -0.03 5.92 -0.05 8.88 -0.06 C9.72 -0.07 10.56 -0.08 11.43 -0.09 C12.23 -0.09 13.04 -0.09 13.87 -0.1 C14.98 -0.11 14.98 -0.11 16.12 -0.11 C18 0 18 0 20 1 C20 3.31 20 5.62 20 8 C19.34 8 18.68 8 18 8 C18 11.3 18 14.6 18 18 C15 18 15 18 12 16 C11.01 16 10.02 16 9 16 C9 18.31 9 20.62 9 23 C11.64 23 14.28 23 17 23 C17.66 21.68 18.32 20.36 19 19 C19.99 19 20.98 19 22 19 C21.12 24.75 21.12 24.75 20 27 C13.07 27 6.14 27 -1 27 C-0.5 25.51 -0.5 25.51 0 24 C0.66 24 1.32 24 2 24 C2 17.4 2 10.8 2 4 C1.01 3.67 0.02 3.34 -1 3 C-0.67 2.01 -0.34 1.02 0 0 Z M9 4 C7.64 5.13 7.64 5.13 7.94 8.06 C7.96 9.03 7.98 10 8 11 C9.85 11.69 9.85 11.69 12 12 C12.99 11.34 13.98 10.68 15 10 C15 9.34 15 8.68 15 8 C15.66 8 16.32 8 17 8 C16.67 7.01 16.34 6.02 16 5 C13.67 4.62 11.34 4.29 9 4 Z " fill="#0C0403" transform="translate(370,367)"/>
<path d="M0 0 C2.98 1.52 2.98 1.52 6 4 C6.48 6.85 6.58 8.8 6.37 11.61 C6.34 12.34 6.31 13.06 6.27 13.81 C6.17 16.13 6.02 18.44 5.88 20.75 C5.8 22.32 5.72 23.89 5.65 25.46 C5.46 29.31 5.24 33.16 5 37 C6.98 37 8.96 37 11 37 C10.88 35.81 10.76 34.62 10.64 33.39 C10.51 31.82 10.38 30.25 10.25 28.69 C10.17 27.9 10.09 27.12 10 26.31 C9.84 24.14 9.73 22.16 10 20 C11.86 17.96 11.86 17.96 14 17 C14.66 17 15.32 17 16 17 C16.28 20.77 16.52 24.54 16.75 28.31 C16.87 29.92 16.87 29.92 17 31.56 C17.05 32.59 17.11 33.62 17.17 34.68 C17.23 35.62 17.3 36.57 17.36 37.55 C17 40 17 40 15.13 41.82 C12.59 43.22 11.35 43.26 8.5 42.88 C7.75 42.79 6.99 42.7 6.22 42.62 C3.35 41.82 2.07 41.18 0 39 C-0.44 36.03 -0.63 33.41 -0.64 30.43 C-0.66 29.59 -0.68 28.76 -0.7 27.89 C-0.74 26.13 -0.77 24.36 -0.78 22.59 C-0.81 19.88 -0.87 17.16 -0.93 14.45 C-0.96 12.73 -0.99 11.02 -1.02 9.3 C-1.03 8.49 -1.05 7.67 -1.06 6.83 C-1.08 4.89 -1.05 2.94 -1 1 C-0.67 0.67 -0.34 0.34 0 0 Z " fill="#0C0403" transform="translate(788,79)"/>
<path d="M0 0 C3.3 0 6.6 0 10 0 C10 1.32 10 2.64 10 4 C9.34 4 8.68 4 8 4 C8.33 10.27 8.66 16.54 9 23 C14.77 23.55 14.77 23.55 18 21 C18.38 18.06 18.6 15.32 18.69 12.38 C18.72 11.57 18.76 10.77 18.79 9.95 C18.87 7.96 18.94 5.98 19 4 C18.01 3.67 17.02 3.34 16 3 C16.33 2.01 16.66 1.02 17 0 C18.28 -0.06 19.56 -0.12 20.88 -0.19 C21.95 -0.24 21.95 -0.24 23.05 -0.29 C23.7 -0.2 24.34 -0.1 25 0 C25.66 0.99 26.32 1.98 27 3 C26.01 3.66 25.02 4.32 24 5 C23.56 6.86 23.56 6.86 23.63 8.99 C23.61 9.78 23.59 10.57 23.58 11.38 C23.57 13.04 23.56 14.69 23.56 16.35 C23.42 22.45 23.42 22.45 21.09 25.51 C18.05 27.68 16.31 28.16 12.62 28.19 C11.85 28.2 11.08 28.22 10.29 28.23 C7.71 27.97 6.18 27.39 4 26 C1.99 22.98 1.73 22.19 1.59 18.77 C1.55 17.97 1.51 17.16 1.47 16.34 C1.42 15.09 1.42 15.09 1.38 13.81 C1.34 12.97 1.3 12.12 1.26 11.25 C1.16 9.17 1.08 7.08 1 5 C0.34 4.67 -0.32 4.34 -1 4 C-0.67 2.68 -0.34 1.36 0 0 Z " fill="#0C0403" transform="translate(581,367)"/>
<path d="M0 0 C4.62 0.97 7.27 3.32 9.8 7.17 C12.28 13.95 12.5 18.74 9.94 25.43 C8.67 28.1 7.45 29.75 4.99 31.42 C2.24 31.67 2.24 31.67 -0.01 31.42 C1.36 28.46 2.98 25.98 4.99 23.42 C3.17 23.51 3.17 23.51 1.3 23.61 C-2.67 23.57 -4.94 23.14 -8.01 20.42 C-10.73 16.57 -11.99 13.47 -12.07 8.73 C-10.05 2.44 -6.83 -0.48 0 0 Z M-6.01 5.42 C-7.12 8.86 -7.1 10.2 -5.7 13.61 C-4.15 16.44 -4.15 16.44 -2.01 18.42 C1.53 18.67 1.53 18.67 4.99 18.42 C6.28 17.33 6.28 17.33 6.37 14.73 C5.84 10.1 4.31 8.66 0.99 5.42 C-2.04 4.08 -2.77 4.34 -6.01 5.42 Z " fill="#0C0403" transform="translate(599.0078125,98.58203125)"/>
<path d="M0 0 C1.07 0.02 2.13 0.05 3.23 0.07 C5.81 0.31 5.81 0.31 6.81 1.31 C6.88 2.83 6.9 4.35 6.88 5.88 C6.87 6.7 6.86 7.53 6.85 8.38 C6.84 9.02 6.82 9.66 6.81 10.31 C5.49 10.31 4.17 10.31 2.81 10.31 C1.06 7.81 1.06 7.81 -0.19 5.31 C-1.51 5.64 -2.83 5.97 -4.19 6.31 C-1.65 9.06 0.96 11.07 4.06 13.12 C7.2 15.45 7.72 15.89 8.62 19.88 C7.55 24.43 6.83 25.81 2.81 28.31 C-1.55 28.72 -5.82 28.6 -10.19 28.31 C-10.19 24.68 -10.19 21.05 -10.19 17.31 C-9.2 17.64 -8.21 17.97 -7.19 18.31 C-6.79 19.3 -6.79 19.3 -6.38 20.31 C-5.79 21.3 -5.79 21.3 -5.19 22.31 C-2.13 23.13 -2.13 23.13 0.81 23.31 C0.47 20.46 0.05 19.5 -2.22 17.64 C-3.03 17.14 -3.85 16.64 -4.69 16.12 C-9.19 13.31 -9.19 13.31 -10.19 12.31 C-10.78 5.12 -10.78 5.12 -8.55 2.07 C-5.51 -0.19 -3.75 -0.13 0 0 Z " fill="#0C0403" transform="translate(796.1875,366.6875)"/>
<path d="M0 0 C1.05 0.56 1.05 0.56 2.12 1.12 C2.74 1.41 3.36 1.7 4 2 C6.03 1.15 6.03 1.15 8 0 C9.32 0 10.64 0 12 0 C12 5.28 12 10.56 12 16 C12.66 16 13.32 16 14 16 C14 16.99 14 17.98 14 19 C11.03 19 8.06 19 5 19 C5.33 17.68 5.66 16.36 6 15 C6.07 13.42 6.09 11.83 6.06 10.25 C6.05 9.45 6.04 8.65 6.04 7.83 C6.02 7.22 6.01 6.62 6 6 C5.34 6 4.68 6 4 6 C3.67 6.66 3.34 7.32 3 8 C0.56 7.62 0.56 7.62 -2 7 C-2.33 6.34 -2.66 5.68 -3 5 C-3.66 5 -4.32 5 -5 5 C-5.84 8.38 -6.11 10.67 -5 14 C-2.13 13.43 -1.14 13.14 1 11 C1.99 11 2.98 11 4 11 C3.52 16.42 3.52 16.42 1.31 18.88 C-1.71 20.34 -3.68 20.42 -7 20 C-10.14 18.22 -10.84 17.48 -12 14 C-12.42 5.15 -12.42 5.15 -10 2 C-6.77 -0.31 -3.88 -0.32 0 0 Z " fill="#0C0403" transform="translate(817,375)"/>
<path d="M0 0 C0.33 7.26 0.66 14.52 1 22 C1.66 22.33 2.32 22.66 3 23 C3 23.99 3 24.98 3 26 C-1.57 28.64 -5.85 28.65 -11 28 C-14.06 26.5 -14.06 26.5 -16 24 C-17.27 19.43 -17.56 16.4 -15.56 12.06 C-12.89 8.87 -12.58 8.55 -8.75 8.06 C-7.51 8.04 -6.27 8.02 -5 8 C-5.33 7.01 -5.66 6.02 -6 5 C-6.66 4.67 -7.32 4.34 -8 4 C-7 1 -7 1 -5.12 -0.25 C-3 -1 -3 -1 0 0 Z M-9 12 C-10.57 14.49 -11.04 15.66 -10.69 18.62 C-10.08 20.99 -10.08 20.99 -9 23 C-7.68 23 -6.36 23 -5 23 C-4.97 21.54 -4.95 20.08 -4.94 18.62 C-4.93 17.81 -4.91 17 -4.9 16.16 C-4.86 13.95 -4.86 13.95 -6 12 C-6.99 12 -7.98 12 -9 12 Z " fill="#0C0403" transform="translate(959,367)"/>
<path d="M0 0 C0.84 -0 1.69 -0 2.56 -0 C3.45 -0 4.34 0 5.25 0.01 C6.14 0 7.02 0 7.94 -0 C8.78 -0 9.63 -0 10.5 0 C11.28 0 12.06 0 12.86 0 C14.82 0.13 14.82 0.13 16.82 1.13 C16.82 3.44 16.82 5.75 16.82 8.13 C15.83 8.13 14.84 8.13 13.82 8.13 C13.49 7.14 13.16 6.15 12.82 5.13 C11.5 5.13 10.18 5.13 8.82 5.13 C8.82 11.4 8.82 17.67 8.82 24.13 C9.81 24.46 10.8 24.79 11.82 25.13 C11.82 25.79 11.82 26.45 11.82 27.13 C7.86 27.13 3.9 27.13 -0.18 27.13 C-0.18 26.14 -0.18 25.15 -0.18 24.13 C0.48 24.13 1.14 24.13 1.82 24.13 C1.82 17.86 1.82 11.59 1.82 5.13 C-1.18 6.13 -2.13 6.89 -4.18 9.13 C-4.84 8.8 -5.5 8.47 -6.18 8.13 C-5.15 0.01 -5.15 0.01 0 0 Z " fill="#0C0403" transform="translate(975.18359375,366.8671875)"/>
<path d="M0 0 C2.94 1.88 2.94 1.88 5 5 C5.74 9.37 5.95 13.31 3.74 17.25 C1.11 19.9 -1.16 19.91 -4.77 20.18 C-8.15 19.91 -9.77 18.44 -12 16 C-13.53 12.94 -13.23 10.38 -13 7 C-10.12 0.83 -6.75 -0.81 0 0 Z M-6 4 C-7.13 9.1 -7.13 9.1 -5.56 13.94 C-5.05 14.62 -4.53 15.3 -4 16 C-3.01 15.67 -2.02 15.34 -1 15 C-0.08 11.41 0.25 9.58 -1.25 6.12 C-1.83 5.42 -2.4 4.72 -3 4 C-3.99 4 -4.98 4 -6 4 Z " fill="#0C0403" transform="translate(1100,375)"/>
<path d="M0 0 C2.7 1.8 4.54 3.08 6 6 C6.58 13.09 6.58 13.09 4.12 16.94 C0.98 19.99 0.98 19.99 -2.06 20.02 C-8.35 19.47 -8.35 19.47 -11.06 17.5 C-12.72 13.07 -12.91 8.2 -11.09 3.8 C-8.56 -0.37 -4.52 -0.55 0 0 Z M-5 4 C-7.33 6.82 -7.33 6.82 -6.75 10 C-6.14 13.15 -6.14 13.15 -4 16 C-3.01 16 -2.02 16 -1 16 C0.26 13.48 -0.08 12.15 -0.44 9.38 C-0.59 8.15 -0.59 8.15 -0.75 6.9 C-0.83 6.27 -0.91 5.65 -1 5 C-2.32 4.67 -3.64 4.34 -5 4 Z " fill="#0C0403" transform="translate(757,375)"/>
<path d="M0 0 C2.7 1.8 4.54 3.08 6 6 C6.55 11.69 5.59 14.56 2 19 C-1.5 20.75 -5.28 19.85 -9 19 C-11.06 17.5 -11.06 17.5 -12 15 C-12.57 10.6 -12.48 7.1 -10.69 3 C-7.75 -0.48 -4.31 -0.43 0 0 Z M-5 4 C-7.33 6.82 -7.33 6.82 -6.75 10 C-6.14 13.15 -6.14 13.15 -4 16 C-3.01 16 -2.02 16 -1 16 C0.51 12.98 0.18 10.33 0 7 C-0.66 6.01 -1.32 5.02 -2 4 C-2.99 4 -3.98 4 -5 4 Z " fill="#0C0403" transform="translate(1071,375)"/>
<path d="M0 0 C0.33 1.98 0.66 3.96 1 6 C-2.72 6.2 -3.77 6.15 -7 4 C-6.73 5.98 -6.73 5.98 -6 8 C-5.01 8.33 -4.02 8.66 -3 9 C-3 9.99 -3 10.98 -3 12 C-4.32 12 -5.64 12 -7 12 C-7 15.96 -7 19.92 -7 24 C-6.01 24 -5.02 24 -4 24 C-4 24.99 -4 25.98 -4 27 C-7.63 27 -11.26 27 -15 27 C-15 26.01 -15 25.02 -15 24 C-14.34 24 -13.68 24 -13 24 C-13 20.04 -13 16.08 -13 12 C-13.99 12 -14.98 12 -16 12 C-16 11.01 -16 10.02 -16 9 C-15.01 9 -14.02 9 -13 9 C-12.9 8.07 -12.79 7.14 -12.69 6.19 C-11.99 2.93 -11.62 1.92 -9 0 C-5.52 -1.16 -3.54 -0.71 0 0 Z " fill="#0C0403" transform="translate(779,367)"/>
<path d="M0 0 C1.19 -0 1.19 -0 2.41 -0.01 C4.5 0.12 4.5 0.12 6.5 1.12 C5.5 4.12 5.5 4.12 3.5 5.12 C3.49 5.68 3.48 6.23 3.47 6.81 C3.42 9.33 3.33 11.85 3.25 14.38 C3.23 15.68 3.23 15.68 3.21 17.02 C2.96 23.48 2.96 23.48 0.65 26.71 C-2.23 28.61 -4.12 28.57 -7.5 28.12 C-8.16 27.46 -8.82 26.81 -9.5 26.12 C-9.12 23.5 -9.12 23.5 -8.5 21.12 C-7.18 21.12 -5.86 21.12 -4.5 21.12 C-4.17 15.51 -3.84 9.9 -3.5 4.12 C-4.49 3.8 -5.48 3.46 -6.5 3.12 C-6.5 2.46 -6.5 1.81 -6.5 1.12 C-4.13 -0.06 -2.63 -0.01 0 0 Z " fill="#0C0403" transform="translate(496.5,366.875)"/>
<path d="M0 0 C2 1 4 2 6 3 C6.07 7.93 6.13 12.86 6.16 17.79 C6.18 19.47 6.2 21.14 6.23 22.82 C6.26 25.23 6.28 27.64 6.29 30.05 C6.31 30.8 6.32 31.55 6.34 32.32 C6.34 37.49 6.34 37.49 4.67 40 C3 41 3 41 0 41 C0 27.47 0 13.94 0 0 Z " fill="#0C0403" transform="translate(1136,79)"/>
<path d="M0 0 C2.46 1.01 2.46 1.01 5 3 C5.51 5.82 5.68 8.03 5.63 10.84 C5.63 11.61 5.63 12.37 5.64 13.16 C5.64 14.78 5.62 16.4 5.6 18.02 C5.56 20.49 5.58 22.96 5.6 25.44 C5.59 27.01 5.58 28.58 5.57 30.16 C5.57 30.9 5.58 31.64 5.58 32.4 C5.5 35.74 5.45 37.53 3.09 39.99 C1 41 1 41 -1 41 C-1.02 35.32 -1.04 29.64 -1.05 23.97 C-1.06 22.03 -1.07 20.1 -1.08 18.17 C-1.09 15.39 -1.09 12.62 -1.1 9.85 C-1.1 8.98 -1.11 8.11 -1.11 7.21 C-1.11 5.14 -1.06 3.07 -1 1 C-0.67 0.67 -0.34 0.34 0 0 Z " fill="#0C0403" transform="translate(988,79)"/>
<path d="M0 0 C2.46 1.01 2.46 1.01 5 3 C5.49 5.82 5.66 8.03 5.59 10.84 C5.59 11.61 5.59 12.37 5.59 13.16 C5.59 14.78 5.57 16.4 5.54 18.02 C5.5 20.49 5.5 22.96 5.51 25.44 C5.5 27.01 5.48 28.58 5.47 30.16 C5.47 30.9 5.47 31.64 5.47 32.4 C5.4 35.37 5.34 37.49 3.66 39.99 C2 41 2 41 -1 41 C-1.02 35.32 -1.04 29.64 -1.05 23.97 C-1.06 22.03 -1.07 20.1 -1.08 18.17 C-1.09 15.39 -1.09 12.62 -1.1 9.85 C-1.1 8.98 -1.11 8.11 -1.11 7.21 C-1.11 5.14 -1.06 3.07 -1 1 C-0.67 0.67 -0.34 0.34 0 0 Z " fill="#0C0403" transform="translate(579,79)"/>
<path d="M0 0 C3.3 0 6.6 0 10 0 C9.67 1.32 9.34 2.64 9 4 C9.99 5.49 9.99 5.49 11 7 C11.33 4.69 11.66 2.38 12 0 C14.31 0 16.62 0 19 0 C18.21 3.97 16.55 7.56 14.94 11.25 C14.66 11.9 14.37 12.55 14.08 13.22 C13.39 14.81 12.7 16.41 12 18 C10.68 18 9.36 18 8 18 C7 15.88 6 13.75 5 11.62 C4.44 10.44 3.89 9.26 3.31 8.04 C2 5 2 5 2 3 C1.34 3 0.68 3 0 3 C0 2.01 0 1.02 0 0 Z " fill="#0C0403" transform="translate(635,376)"/>
<path d="M0 0 C2.47 1.06 2.47 1.06 5 3 C5.55 6.14 5.55 6.14 5.45 9.97 C5.44 10.65 5.43 11.32 5.42 12.02 C5.39 14.18 5.32 16.34 5.25 18.5 C5.2 20.66 5.16 22.82 5.12 24.98 C5.08 26.94 5.02 28.9 4.97 30.86 C4.84 34.03 4.84 34.03 6 37 C4.68 38.32 3.36 39.64 2 41 C1.01 40.67 0.02 40.34 -1 40 C-1.02 34.46 -1.04 28.93 -1.05 23.39 C-1.06 21.51 -1.07 19.62 -1.08 17.74 C-1.09 15.03 -1.09 12.33 -1.1 9.63 C-1.1 8.78 -1.11 7.93 -1.11 7.06 C-1.11 5.04 -1.06 3.02 -1 1 C-0.67 0.67 -0.34 0.34 0 0 Z " fill="#0C0403" transform="translate(840,79)"/>
<path d="M0 0 C0.99 0.33 1.98 0.66 3 1 C3 2.65 3 4.3 3 6 C4.32 6 5.64 6 7 6 C7 6.99 7 7.98 7 9 C5.68 9 4.36 9 3 9 C3.33 12.3 3.66 15.6 4 19 C4.99 19 5.98 19 7 19 C6.81 20.88 6.81 20.88 6 23 C3.44 24.25 3.44 24.25 1 25 C-1.81 22.72 -2.92 21.64 -3.39 17.98 C-3.34 16.92 -3.3 15.85 -3.25 14.75 C-3.21 13.67 -3.18 12.59 -3.14 11.48 C-3.09 10.66 -3.05 9.84 -3 9 C-3.66 9 -4.32 9 -5 9 C-4.67 7.68 -4.34 6.36 -4 5 C-3.34 5 -2.68 5 -2 5 C-1.34 3.35 -0.68 1.7 0 0 Z " fill="#0C0403" transform="translate(451,370)"/>
<path d="M0 0 C0 7.92 0 15.84 0 24 C0.99 24.33 1.98 24.66 3 25 C3 25.66 3 26.32 3 27 C-0.63 27 -4.26 27 -8 27 C-7.34 25.68 -6.68 24.36 -6 23 C-5.64 20.88 -5.64 20.88 -5.59 18.67 C-5.55 17.87 -5.51 17.07 -5.47 16.25 C-5.44 15.43 -5.41 14.6 -5.38 13.75 C-5.34 12.91 -5.3 12.07 -5.26 11.2 C-5.16 9.14 -5.08 7.07 -5 5 C-5.99 4.67 -6.98 4.34 -8 4 C-7.19 2.06 -7.19 2.06 -6 0 C-3 -1 -3 -1 0 0 Z " fill="#0C0403" transform="translate(1085,367)"/>
<path d="M0 0 C2.47 1.15 4.05 2.05 6 4 C5.62 6.12 5.62 6.12 5 8 C4.36 8.1 3.72 8.21 3.06 8.31 C2.38 8.54 1.7 8.77 1 9 C0.67 9.99 0.34 10.98 0 12 C-1.93 13.86 -1.93 13.86 -4.31 15.75 C-5.09 16.38 -5.87 17.02 -6.68 17.67 C-9 19 -9 19 -11.29 18.7 C-11.86 18.47 -12.42 18.24 -13 18 C-11.6 14.89 -9.93 12.63 -7.62 10.12 C-4.73 6.9 -2.29 3.67 0 0 Z " fill="#0C0403" transform="translate(964,423)"/>
<path d="M0 0 C0.06 1.05 0.12 2.1 0.18 3.18 C0.27 4.55 0.35 5.93 0.44 7.31 C0.48 8 0.52 8.69 0.56 9.4 C0.75 12.47 1.02 15.07 2 18 C-1.3 18 -4.6 18 -8 18 C-7.5 16.51 -7.5 16.51 -7 15 C-6.78 13.11 -6.59 11.21 -6.44 9.31 C-6.31 7.82 -6.31 7.82 -6.18 6.3 C-6.12 5.54 -6.06 4.78 -6 4 C-6.66 4 -7.32 4 -8 4 C-7.69 2.06 -7.69 2.06 -7 0 C-3.87 -1.04 -3.01 -0.93 0 0 Z " fill="#0C0403" transform="translate(705,376)"/>
<path d="M0 0 C6.69 0.16 10.33 1.1 15 6 C15.33 6.99 15.66 7.98 16 9 C15.01 10.49 15.01 10.49 14 12 C9.06 11.56 6.66 9.19 3 6 C0.78 4.72 0.78 4.72 -1 4 C-0.67 2.68 -0.34 1.36 0 0 Z " fill="#0C0403" transform="translate(448,432)"/>
<path d="M0 0 C3.19 2.38 3.19 2.38 5 5 C4.81 7.31 4.81 7.31 4 9 C2.25 9.68 2.25 9.68 0 10 C-2 8.86 -2 8.86 -4 7.19 C-6.58 5.07 -8.96 3.39 -12 2 C-12 1.01 -12 0.02 -12 -1 C-8.24 -2.88 -3.86 -1.23 0 0 Z " fill="#0C0403" transform="translate(451,447)"/>
<path d="M0 0 C4.76 0.56 8.59 2.59 12 6 C12.04 7.67 12.04 9.33 12 11 C9.77 11.78 9.77 11.78 7 12 C4.76 10.13 4.76 10.13 2.69 7.56 C1.64 6.3 1.64 6.3 0.57 5 C0.05 4.34 -0.46 3.68 -1 3 C-0.67 2.01 -0.34 1.02 0 0 Z " fill="#0C0403" transform="translate(474,428)"/>
<path d="M0 0 C7.21 1.44 7.21 1.44 10.56 3.81 C12 6 12 6 11.75 8.75 C11.5 9.49 11.25 10.24 11 11 C5.65 10.68 2.72 7.5 -1 4 C-0.67 2.68 -0.34 1.36 0 0 Z " fill="#0C0403" transform="translate(482,424)"/>
<path d="M0 0 C3.3 0 6.6 0 10 0 C10.38 1.66 10.71 3.32 11 5 C10 6 10 6 8 6.13 C7.2 6.13 6.39 6.13 5.56 6.12 C4.76 6.13 3.96 6.13 3.13 6.13 C1 6 1 6 -1 5 C-0.67 3.35 -0.34 1.7 0 0 Z " fill="#0C0403" transform="translate(467,382)"/>
<path d="M0 0 C2.13 0.68 2.13 0.68 4.25 -0.06 C4.87 -0.21 5.49 -0.35 6.12 -0.5 C6.78 0.16 7.45 0.82 8.12 1.5 C7.79 2.82 7.47 4.14 7.12 5.5 C3.5 5.5 -0.13 5.5 -3.88 5.5 C-3.88 3.85 -3.88 2.2 -3.88 0.5 C-1.88 -0.5 -1.88 -0.5 0 0 Z " fill="#0C0403" transform="translate(819.875,124.5)"/>
<path d="M0 0 C3.3 0 6.6 0 10 0 C10.33 1.65 10.66 3.3 11 5 C6.98 5.85 3.93 6.4 0 5 C-0.33 4.01 -0.66 3.02 -1 2 C-0.67 1.34 -0.34 0.68 0 0 Z " fill="#0C0403" transform="translate(555,87)"/>
<path d="M0 0 C3.63 0 7.26 0 11 0 C11 1.65 11 3.3 11 5 C7.25 6.12 7.25 6.12 5 5 C4.34 5.19 3.68 5.37 3 5.56 C2.34 5.71 1.68 5.85 1 6 C0.34 5.34 -0.32 4.68 -1 4 C-0.67 2.68 -0.34 1.36 0 0 Z " fill="#0C0403" transform="translate(1008,86)"/>
<path d="M0 0 C3.63 0 7.26 0 11 0 C11.33 1.32 11.66 2.64 12 4 C10.19 5.06 10.19 5.06 8 6 C7.01 5.67 6.02 5.34 5 5 C4.01 5.33 3.02 5.66 2 6 C1.34 5.67 0.68 5.34 0 5 C0 3.35 0 1.7 0 0 Z " fill="#0C0403" transform="translate(860,86)"/>
<path d="M0 0 C2.41 0.57 3.79 0.25 6.12 -0.5 C7.19 1.38 7.19 1.38 8.12 3.5 C7.79 4.16 7.47 4.82 7.12 5.5 C3.5 5.5 -0.13 5.5 -3.88 5.5 C-3.88 3.85 -3.88 2.2 -3.88 0.5 C-1.88 -0.5 -1.88 -0.5 0 0 Z " fill="#0C0403" transform="translate(768.875,124.5)"/>
<path d="M0 0 C2.13 0.68 2.13 0.68 4.25 -0.06 C4.87 -0.21 5.49 -0.35 6.12 -0.5 C6.79 0.16 7.44 0.82 8.12 1.5 C7.8 2.82 7.46 4.14 7.12 5.5 C3.82 5.5 0.52 5.5 -2.88 5.5 C-3.2 3.85 -3.54 2.2 -3.88 0.5 C-1.88 -0.5 -1.88 -0.5 0 0 Z " fill="#0C0403" transform="translate(383.875,124.5)"/>
<path d="M0 0 C3.3 0 6.6 0 10 0 C10.33 1.32 10.66 2.64 11 4 C9.12 5.06 9.12 5.06 7 6 C6.34 5.67 5.68 5.34 5 5 C4.34 5.19 3.68 5.37 3 5.56 C2.34 5.71 1.68 5.85 1 6 C0.34 5.34 -0.32 4.68 -1 4 C-0.67 2.68 -0.34 1.36 0 0 Z " fill="#0C0403" transform="translate(748,86)"/>
<path d="M0 0 C2.06 0.19 2.06 0.19 4 1 C4.33 1.99 4.66 2.98 5 4 C4.01 4.99 3.02 5.98 2 7 C1.01 6.67 0.02 6.34 -1 6 C-1.81 4.06 -1.81 4.06 -2 2 C-1.34 1.34 -0.68 0.68 0 0 Z " fill="#0C0403" transform="translate(778,87)"/>
<path d="M0 0 C2.06 0.19 2.06 0.19 4 1 C4.33 1.99 4.66 2.98 5 4 C4.67 4.66 4.34 5.32 4 6 C2.35 6 0.7 6 -1 6 C-1.62 4.12 -1.62 4.12 -2 2 C-1.34 1.34 -0.68 0.68 0 0 Z " fill="#0C0403" transform="translate(494,87)"/>
<path d="M0 0 C2.12 0.94 2.12 0.94 4 2 C3.69 3.94 3.69 3.94 3 6 C2.01 6.33 1.02 6.66 0 7 C-0.99 6.01 -1.98 5.02 -3 4 C-2.67 3.01 -2.34 2.02 -2 1 C-1.34 0.67 -0.68 0.34 0 0 Z " fill="#0C0403" transform="translate(630,366)"/>
<path d="M0 0 C-0.33 1.65 -0.66 3.3 -1 5 C-2.65 4.67 -4.3 4.34 -6 4 C-6 2.68 -6 1.36 -6 0 C-3.51 -1.25 -2.59 -0.78 0 0 Z " fill="#0C0403" transform="translate(407,125)"/>
<path d="M0 0 C1.32 0.66 2.64 1.32 4 2 C3.67 3.32 3.34 4.64 3 6 C1.68 6 0.36 6 -1 6 C-1.62 4.12 -1.62 4.12 -2 2 C-1.34 1.34 -0.68 0.68 0 0 Z " fill="#0C0403" transform="translate(701,366)"/>
<path d="M0 0 C1.68 0.29 3.34 0.62 5 1 C4.67 2.32 4.34 3.64 4 5 C2.68 5.33 1.36 5.66 0 6 C-0.38 4.34 -0.71 2.68 -1 1 C-0.67 0.67 -0.34 0.34 0 0 Z " fill="#0C0403" transform="translate(1107,125)"/>
<path d="M0 0 C2.06 0.44 2.06 0.44 4 1 C3.67 2.65 3.34 4.3 3 6 C1.35 5.67 -0.3 5.34 -2 5 C-1.12 1.12 -1.12 1.12 0 0 Z " fill="#0C0403" transform="translate(799,124)"/>
<path d="M0 0 C0.99 0.33 1.98 0.66 3 1 C3 2.65 3 4.3 3 6 C2.01 6.33 1.02 6.66 0 7 C-0.99 6.01 -1.98 5.02 -3 4 C-2.67 3.01 -2.34 2.02 -2 1 C-1.34 0.67 -0.68 0.34 0 0 Z " fill="#0C0403" transform="translate(826,366)"/>
</svg>
