<?xml version="1.0" encoding="UTF-8"?>
<!-- Generator: visioncortex VTracer 0.6.3 -->
<svg version="1.1" xmlns="http://www.w3.org/2000/svg" width="1280" height="1280">
<path d="M0 0 C422.4 0 844.8 0 1280 0 C1280 422.4 1280 844.8 1280 1280 C857.6 1280 435.2 1280 0 1280 C0 857.6 0 435.2 0 0 Z " fill="#17417C" transform="translate(0,0)"/>
<path d="M0 0 C1.95 2.27 1.95 2.27 4.12 5.38 C7 9.38 9.93 13.14 13.31 16.75 C18.88 22.79 23.68 29.39 28.52 36.01 C29.57 37.42 30.63 38.81 31.7 40.2 C32.25 40.92 32.8 41.63 33.36 42.37 C33.87 43.02 34.37 43.66 34.89 44.33 C36 46 36 46 36 48 C36.99 48.33 37.98 48.66 39 49 C40.28 50.39 40.28 50.39 41.57 52.18 C42.05 52.83 42.53 53.49 43.02 54.17 C43.53 54.87 44.04 55.58 44.56 56.31 C49.02 62.4 53.62 68.25 58.5 74 C61.74 77.89 64.86 81.88 67.97 85.87 C70.71 89.37 73.48 92.83 76.31 96.25 C80.24 101.01 84.03 105.87 87.81 110.75 C92.28 116.51 96.76 122.25 101.31 127.94 C101.8 128.55 102.29 129.15 102.79 129.78 C105.07 132.63 107.38 135.46 109.71 138.27 C110.53 139.25 111.35 140.24 112.19 141.25 C112.9 142.1 113.62 142.95 114.36 143.83 C116 146 116 146 117 149 C117.66 149 118.32 149 119 149 C120.81 151.43 122.41 153.97 124.05 156.52 C126.25 159.32 127.78 160.47 131 162 C133.68 162.27 136.12 162.38 138.8 162.35 C139.58 162.35 140.36 162.35 141.16 162.35 C143.77 162.35 146.37 162.33 148.98 162.31 C150.85 162.3 152.72 162.3 154.59 162.3 C158.61 162.29 162.63 162.28 166.65 162.26 C173.01 162.22 179.37 162.21 185.72 162.2 C198.06 162.17 210.4 162.12 222.74 162.08 C238.46 162.01 254.18 161.97 269.9 161.93 C276.22 161.92 282.55 161.9 288.87 161.86 C292.8 161.85 296.72 161.84 300.65 161.83 C302.48 161.82 304.3 161.81 306.13 161.8 C308.61 161.79 311.1 161.78 313.58 161.78 C314.31 161.77 315.04 161.76 315.79 161.76 C320.77 161.77 320.77 161.77 323 164 C323.28 166.37 323.28 166.37 323.32 169.37 C323.35 171.05 323.35 171.05 323.38 172.76 C323.39 173.98 323.4 175.19 323.41 176.45 C323.43 177.69 323.45 178.93 323.47 180.2 C323.52 183.5 323.56 186.8 323.6 190.1 C323.64 193.46 323.69 196.83 323.74 200.19 C323.84 206.79 323.92 213.4 324 220 C324.56 220 325.12 220 325.7 220.01 C339.31 220.07 352.92 220.14 366.53 220.24 C373.11 220.28 379.7 220.32 386.28 220.35 C392.63 220.37 398.97 220.41 405.32 220.46 C407.75 220.48 410.18 220.49 412.6 220.5 C415.99 220.51 419.38 220.54 422.77 220.57 C423.78 220.57 424.79 220.56 425.83 220.56 C426.75 220.58 427.67 220.59 428.62 220.6 C429.42 220.61 430.23 220.61 431.05 220.62 C431.69 220.74 432.34 220.87 433 221 C435.44 224.66 435.25 226.38 435.25 230.73 C435.25 231.42 435.25 232.11 435.25 232.82 C435.26 235.13 435.25 237.44 435.24 239.75 C435.24 241.4 435.25 243.05 435.25 244.71 C435.25 249.2 435.25 253.7 435.24 258.2 C435.23 262.89 435.23 267.59 435.23 272.29 C435.23 280.17 435.22 288.06 435.21 295.95 C435.19 305.08 435.18 314.21 435.19 323.34 C435.19 332.11 435.18 340.88 435.17 349.66 C435.17 353.39 435.17 357.13 435.17 360.87 C435.17 365.27 435.16 369.67 435.15 374.07 C435.15 375.68 435.15 377.3 435.15 378.92 C435.15 381.12 435.14 383.32 435.13 385.52 C435.13 387.37 435.13 387.37 435.13 389.26 C435 392 435 392 434 393 C432.1 393.1 430.19 393.12 428.29 393.12 C427.04 393.13 425.79 393.13 424.5 393.13 C423.09 393.13 421.68 393.13 420.27 393.12 C418.79 393.12 417.3 393.12 415.81 393.13 C411.69 393.13 407.57 393.13 403.45 393.12 C398.97 393.12 394.5 393.12 390.03 393.12 C382.18 393.12 374.34 393.12 366.49 393.12 C354.82 393.11 343.15 393.11 331.47 393.11 C311.85 393.12 292.22 393.11 272.59 393.11 C253.14 393.1 233.7 393.1 214.25 393.09 C212.44 393.09 212.44 393.09 210.6 393.09 C204.46 393.09 198.33 393.09 192.2 393.09 C148.73 393.09 105.26 393.08 61.79 393.08 C19.55 393.07 -22.68 393.06 -64.92 393.05 C-66.88 393.05 -66.88 393.05 -68.87 393.05 C-81.93 393.05 -95 393.05 -108.07 393.05 C-134.69 393.05 -161.31 393.05 -187.93 393.04 C-189.15 393.04 -190.38 393.04 -191.64 393.04 C-273.42 393.03 -355.21 393.02 -437 393 C-438.45 390.1 -438.12 387.59 -438.12 384.34 C-438.12 383.31 -438.12 383.31 -438.12 382.25 C-438.12 379.92 -438.12 377.59 -438.11 375.26 C-438.11 373.59 -438.11 371.93 -438.11 370.26 C-438.11 365.73 -438.11 361.2 -438.1 356.67 C-438.1 351.94 -438.09 347.21 -438.09 342.48 C-438.09 333.51 -438.08 324.55 -438.07 315.59 C-438.06 305.38 -438.06 295.18 -438.05 284.98 C-438.04 263.98 -438.02 242.99 -438 222 C-435.64 220.82 -434.25 220.88 -431.62 220.88 C-430.7 220.88 -429.78 220.88 -428.83 220.88 C-427.82 220.88 -426.81 220.88 -425.77 220.89 C-424.7 220.89 -423.64 220.89 -422.54 220.89 C-419.02 220.89 -415.49 220.89 -411.96 220.9 C-409.52 220.9 -407.08 220.91 -404.64 220.91 C-398.2 220.91 -391.77 220.92 -385.33 220.93 C-378.77 220.94 -372.21 220.95 -365.65 220.95 C-352.77 220.96 -339.88 220.98 -327 221 C-327 220.28 -327 219.55 -327.01 218.8 C-327.03 211.99 -327.04 205.18 -327.05 198.37 C-327.06 194.86 -327.06 191.36 -327.08 187.86 C-327.09 183.83 -327.09 179.81 -327.1 175.79 C-327.11 173.89 -327.11 173.89 -327.11 171.96 C-327.11 170.8 -327.11 169.63 -327.11 168.44 C-327.12 167.41 -327.12 166.38 -327.12 165.32 C-327 163 -327 163 -326 162 C-323.48 161.9 -320.99 161.87 -318.48 161.88 C-317.28 161.88 -317.28 161.88 -316.06 161.88 C-313.37 161.88 -310.68 161.88 -307.99 161.89 C-306.06 161.89 -304.14 161.89 -302.22 161.89 C-296.99 161.89 -291.76 161.89 -286.52 161.9 C-281.06 161.9 -275.6 161.91 -270.13 161.91 C-259.78 161.91 -249.43 161.92 -239.08 161.93 C-227.3 161.94 -215.51 161.94 -203.73 161.95 C-179.49 161.96 -155.24 161.98 -131 162 C-130.72 161.4 -130.43 160.81 -130.14 160.19 C-128.48 157 -126.23 154.3 -124 151.5 C-123.51 150.88 -123.02 150.26 -122.52 149.63 C-119.38 145.68 -116.18 141.8 -112.94 137.94 C-108.67 132.85 -104.59 127.63 -100.57 122.36 C-94.48 114.38 -88.29 106.49 -81.81 98.81 C-77.9 94.17 -74.31 89.37 -70.79 84.44 C-68.89 81.85 -66.87 79.46 -64.75 77.06 C-62.31 74.19 -60 71.22 -57.69 68.25 C-53.56 62.97 -49.36 57.75 -45.11 52.57 C-39.81 46.12 -34.65 39.56 -29.5 33 C-25.77 28.25 -22.04 23.5 -18.25 18.8 C-16.39 16.49 -14.55 14.16 -12.72 11.83 C-11.54 10.34 -10.37 8.86 -9.19 7.38 C-8.62 6.65 -8.06 5.93 -7.48 5.18 C-6.94 4.51 -6.41 3.84 -5.86 3.15 C-5.38 2.54 -4.9 1.94 -4.41 1.31 C-3 0 -3 0 0 0 Z " fill="#F9FCFE" transform="translate(631,174)"/>
<path d="M0 0 C1.12 -0 2.24 -0.01 3.39 -0.01 C4.63 -0.01 5.86 -0 7.13 -0 C9.08 -0.01 9.08 -0.01 11.06 -0.01 C14.63 -0.01 18.21 -0.01 21.78 -0.01 C25.54 -0 29.31 -0.01 33.07 -0.01 C39.43 -0.01 45.78 -0.01 52.14 -0 C59.4 0 66.66 0 73.93 -0.01 C80.21 -0.01 86.49 -0.01 92.77 -0.01 C96.5 -0.01 100.23 -0.01 103.96 -0.01 C119.21 -0.02 134.46 0.09 149.71 0.57 C150.98 0.61 152.25 0.65 153.56 0.68 C173.99 1.39 193.09 5.81 207.73 21.13 C208.73 22.07 208.73 22.07 209.76 23.03 C225.47 37.93 232.01 56.79 232.76 78.01 C232.95 95.39 227.33 112.36 215.55 125.4 C212.22 128.56 208.63 131.38 205.02 134.21 C202.67 135.92 202.67 135.92 201.73 138.13 C202.47 138.4 203.21 138.66 203.97 138.94 C222.32 146.03 234.61 159.4 243.44 176.75 C247.28 186.81 248.23 196.29 248.17 207 C248.19 208.26 248.21 209.52 248.23 210.82 C248.22 222.74 245.73 233.73 239.73 244.13 C239.36 244.87 238.98 245.61 238.6 246.37 C229.69 262.99 213.89 273.6 196.31 279.22 C183.74 283 171.9 283.27 158.91 283.24 C157.1 283.24 155.3 283.24 153.5 283.24 C148.62 283.24 143.74 283.24 138.86 283.23 C133.76 283.22 128.65 283.22 123.55 283.22 C113.89 283.22 104.23 283.21 94.58 283.2 C83.58 283.19 72.58 283.18 61.58 283.18 C38.96 283.17 16.35 283.15 -6.27 283.13 C-7.48 280.71 -7.4 279.21 -7.39 276.51 C-7.4 275.53 -7.4 274.55 -7.4 273.54 C-7.4 272.46 -7.39 271.37 -7.39 270.26 C-7.39 269.11 -7.39 267.97 -7.39 266.79 C-7.4 263.6 -7.39 260.41 -7.39 257.22 C-7.38 253.79 -7.38 250.35 -7.38 246.92 C-7.39 240.97 -7.38 235.01 -7.38 229.06 C-7.37 220.45 -7.37 211.85 -7.36 203.24 C-7.36 189.27 -7.36 175.31 -7.35 161.35 C-7.34 147.78 -7.33 134.21 -7.33 120.65 C-7.33 119.81 -7.33 118.97 -7.33 118.11 C-7.32 113.92 -7.32 109.73 -7.32 105.53 C-7.31 70.73 -7.29 35.93 -7.27 1.13 C-4.7 -0.16 -2.88 0 0 0 Z " fill="#F9FCFE" transform="translate(838.2709197998047,617.8730163574219)"/>
<path d="M0 0 C1.97 -0.05 1.97 -0.05 3.99 -0.11 C5.72 -0.17 5.72 -0.17 7.48 -0.24 C12.31 0.37 15.26 2.65 18.55 6.13 C19.05 6.81 19.56 7.48 20.08 8.17 C20.65 8.91 21.21 9.65 21.79 10.42 C22.35 11.18 22.92 11.94 23.5 12.73 C24.09 13.5 24.67 14.27 25.27 15.06 C29.54 20.73 29.54 20.73 30.69 24.17 C32.17 24.66 32.17 24.66 33.69 25.17 C35.05 26.64 35.05 26.64 36.44 28.53 C36.96 29.22 37.48 29.92 38.02 30.64 C38.84 31.77 38.84 31.77 39.69 32.92 C43.78 38.38 47.91 43.75 52.38 48.92 C56.32 53.5 60.06 58.19 63.71 63.01 C67.24 67.64 70.91 72.13 74.63 76.6 C78.9 81.76 83.13 86.95 87.25 92.23 C92.79 99.34 98.47 106.33 104.18 113.31 C105.59 115.05 107 116.78 108.41 118.52 C109.6 119.98 109.6 119.98 110.81 121.48 C111.84 122.74 111.84 122.74 112.88 124.03 C114.61 126.15 114.61 126.15 116.43 127.84 C117.69 129.17 117.69 129.17 117.69 131.17 C118.35 131.17 119.01 131.17 119.69 131.17 C120.68 133.64 120.68 133.64 121.69 136.17 C122.35 136.17 123.01 136.17 123.69 136.17 C125.18 138.01 125.18 138.01 127 140.67 C130.6 145.74 134.38 150.6 138.31 155.42 C138.85 156.08 139.39 156.74 139.94 157.42 C141.52 159.34 143.1 161.26 144.69 163.17 C145.24 163.83 145.79 164.49 146.35 165.17 C146.88 165.81 147.41 166.44 147.96 167.09 C148.44 167.66 148.91 168.23 149.41 168.81 C150.67 170.3 150.67 170.3 152.69 171.17 C152.69 169.87 152.69 169.87 152.7 168.55 C152.76 147.55 152.83 126.55 152.92 105.56 C152.97 95.4 153.01 85.25 153.04 75.1 C153.06 66.25 153.09 57.4 153.14 48.55 C153.16 43.87 153.18 39.18 153.19 34.49 C153.19 30.08 153.21 25.68 153.24 21.27 C153.25 19.65 153.26 18.03 153.25 16.4 C153.25 14.2 153.27 11.99 153.29 9.79 C153.29 8.55 153.3 7.31 153.3 6.04 C153.43 5.09 153.56 4.14 153.69 3.17 C157.14 0.87 158.44 0.91 162.51 0.91 C163.7 0.9 164.89 0.9 166.13 0.89 C167.42 0.89 168.71 0.9 170.04 0.9 C171.37 0.9 172.71 0.9 174.05 0.9 C176.84 0.89 179.64 0.9 182.44 0.91 C186.03 0.92 189.62 0.91 193.21 0.9 C195.97 0.89 198.73 0.89 201.49 0.9 C203.45 0.9 205.42 0.9 207.39 0.89 C209.18 0.9 209.18 0.9 211 0.91 C212.58 0.91 212.58 0.91 214.19 0.91 C216.69 1.17 216.69 1.17 218.69 3.17 C218.94 5.21 218.94 5.21 218.94 7.79 C218.94 8.77 218.94 9.75 218.95 10.75 C218.94 11.84 218.94 12.92 218.93 14.04 C218.93 15.76 218.93 15.76 218.93 17.51 C218.94 20.7 218.93 23.88 218.92 27.07 C218.91 30.51 218.92 33.94 218.92 37.37 C218.92 43.33 218.91 49.28 218.9 55.23 C218.88 63.84 218.88 72.45 218.88 81.06 C218.87 95.02 218.86 108.98 218.84 122.95 C218.82 136.51 218.81 150.08 218.8 163.65 C218.8 164.48 218.8 165.32 218.8 166.18 C218.79 170.37 218.79 174.57 218.79 178.76 C218.77 213.56 218.73 248.37 218.69 283.17 C210.82 283.29 202.96 283.38 195.09 283.44 C192.42 283.46 189.74 283.5 187.07 283.54 C183.22 283.61 179.37 283.63 175.52 283.66 C174.33 283.68 173.14 283.71 171.91 283.73 C162.64 283.74 162.64 283.74 159.03 280.81 C156.61 278.08 154.38 275.33 152.25 272.35 C149.71 268.88 147.19 265.49 144.31 262.29 C140.63 258.19 137.27 253.86 133.88 249.52 C130.26 244.87 126.55 240.3 122.81 235.75 C118.73 230.78 114.74 225.74 110.73 220.71 C103.81 212.03 96.81 203.44 89.56 195.04 C85.61 190.46 81.76 185.83 78.09 181 C76.85 179.38 75.56 177.8 74.25 176.23 C72.69 174.17 72.69 174.17 72.69 172.17 C72.03 172.17 71.37 172.17 70.69 172.17 C69.41 170.59 68.22 168.96 67.06 167.29 C61.74 159.79 55.96 152.71 50.13 145.6 C47.52 142.43 44.95 139.24 42.44 135.98 C38.99 131.51 35.44 127.12 31.88 122.73 C31.3 122.02 30.72 121.31 30.13 120.57 C29.31 119.57 29.31 119.57 28.48 118.55 C27.99 117.94 27.5 117.34 27 116.72 C25.62 115.05 25.62 115.05 23.69 113.17 C22.74 117.17 22.55 120.92 22.53 125.03 C22.53 125.71 22.52 126.39 22.52 127.09 C22.5 129.35 22.49 131.62 22.48 133.88 C22.47 135.51 22.46 137.13 22.45 138.76 C22.43 143.17 22.41 147.58 22.39 151.99 C22.36 156.6 22.34 161.21 22.31 165.83 C22.26 174.56 22.21 183.29 22.17 192.02 C22.12 201.96 22.07 211.89 22.01 221.83 C21.9 242.28 21.79 262.72 21.69 283.17 C0.9 283.17 -19.89 283.17 -41.31 283.17 C-42.52 280.76 -42.44 279.26 -42.43 276.56 C-42.44 275.1 -42.44 275.1 -42.44 273.61 C-42.44 271.99 -42.44 271.99 -42.43 270.34 C-42.43 269.19 -42.43 268.05 -42.43 266.88 C-42.44 263.7 -42.43 260.52 -42.43 257.35 C-42.42 253.93 -42.42 250.5 -42.43 247.08 C-42.43 241.15 -42.42 235.22 -42.42 229.29 C-42.41 220.71 -42.41 212.13 -42.4 203.56 C-42.4 189.64 -42.4 175.73 -42.39 161.81 C-42.38 148.3 -42.37 134.78 -42.37 121.26 C-42.37 120.43 -42.37 119.59 -42.37 118.74 C-42.36 114.56 -42.36 110.38 -42.36 106.2 C-42.35 71.52 -42.33 36.85 -42.31 2.17 C-39.28 0.65 -36.1 0.93 -32.77 0.85 C-32.01 0.83 -31.25 0.81 -30.46 0.79 C-28.84 0.74 -27.22 0.7 -25.6 0.66 C-23.18 0.61 -20.75 0.54 -18.33 0.47 C-14.41 0.37 -10.49 0.29 -6.56 0.22 C-4.37 0.17 -2.19 0.09 0 0 Z " fill="#F9FCFE" transform="translate(235.31103515625,617.83251953125)"/>
<path d="M0 0 C3.3 1.4 5 2.92 7.14 5.78 C7.71 6.54 8.28 7.29 8.87 8.07 C9.77 9.27 9.77 9.27 10.69 10.5 C15.24 16.49 19.86 22.2 24.98 27.71 C27.95 31.09 30.5 34.74 33.1 38.41 C35.34 41.46 37.78 44.25 40.3 47.07 C42.64 49.73 44.78 52.53 46.93 55.34 C49.5 58.65 52.13 61.92 54.75 65.19 C59.13 70.65 63.47 76.14 67.79 81.66 C71.28 86.12 74.85 90.5 78.44 94.88 C83.36 100.89 88.06 107.03 92.68 113.27 C96.51 118.41 100.55 123.31 104.7 128.2 C107.66 131.81 110.37 135.57 113.09 139.37 C116.24 143.71 119.62 147.85 123 152 C124.01 153.25 125.03 154.51 126.04 155.76 C131.11 162.02 136.2 168.26 141.38 174.44 C144.68 178.39 147.89 182.38 151.03 186.46 C153.63 189.81 156.28 193.13 158.94 196.44 C159.46 197.09 159.99 197.75 160.52 198.42 C162.74 201.18 164.95 203.94 167.16 206.7 C168.42 208.26 169.67 209.82 170.91 211.39 C172.07 212.83 173.23 214.28 174.39 215.72 C175.91 217.6 177.42 219.49 178.94 221.38 C179.42 221.97 179.91 222.57 180.41 223.18 C183.91 227.58 183.91 227.58 184.45 230.13 C184.63 230.75 184.81 231.36 185 232 C185.99 232.33 186.98 232.66 188 233 C188 233.66 188 234.32 188 235 C188.66 235 189.32 235 190 235 C190 235.66 190 236.32 190 237 C65.92 237 -58.16 237 -186 237 C-186.33 236.01 -186.66 235.02 -187 234 C-186.34 233.38 -185.68 232.76 -185 232.12 C-180.96 228.07 -177.53 223.5 -174 219 C-173.14 217.91 -172.28 216.82 -171.43 215.73 C-167.71 211.01 -164 206.29 -160.31 201.55 C-154.89 194.63 -149.4 187.77 -143.84 180.96 C-139.89 176.11 -136.01 171.22 -132.16 166.28 C-128.69 161.85 -125.13 157.48 -121.56 153.12 C-116.64 147.11 -111.94 140.97 -107.31 134.72 C-103.54 129.66 -99.58 124.82 -95.5 120 C-91.3 114.96 -87.29 109.76 -83.24 104.59 C-80.2 100.7 -77.09 96.85 -74 93 C-72.52 91.16 -71.05 89.31 -69.58 87.47 C-68.01 85.51 -66.44 83.55 -64.87 81.59 C-63.22 79.52 -61.56 77.45 -59.91 75.38 C-56.94 71.65 -53.96 67.94 -50.94 64.25 C-45.19 57.22 -39.56 50.15 -34.16 42.84 C-31.94 39.92 -29.62 37.11 -27.25 34.31 C-22.57 28.76 -18.16 23.03 -13.78 17.25 C-9.32 11.38 -4.72 5.65 0 0 Z " fill="#16407B" transform="translate(628,270)"/>
<path d="M0 0 C1.79 -0.01 1.79 -0.01 3.62 -0.02 C5.56 -0.02 5.56 -0.02 7.55 -0.02 C8.88 -0.03 10.22 -0.03 11.56 -0.03 C14.36 -0.04 17.17 -0.04 19.97 -0.04 C23.57 -0.04 27.17 -0.05 30.77 -0.07 C33.53 -0.08 36.29 -0.08 39.05 -0.08 C41.03 -0.09 43 -0.1 44.97 -0.11 C46.17 -0.1 47.36 -0.1 48.59 -0.1 C49.65 -0.1 50.7 -0.1 51.79 -0.1 C54.3 0.15 54.3 0.15 56.3 2.15 C56.55 5.02 56.55 5.02 56.55 8.78 C56.55 9.47 56.55 10.16 56.56 10.87 C56.57 13.2 56.56 15.52 56.55 17.84 C56.55 19.51 56.56 21.17 56.56 22.83 C56.57 26.42 56.57 30.01 56.57 33.6 C56.57 39.29 56.58 44.99 56.6 50.68 C56.65 66.87 56.67 83.07 56.68 99.26 C56.68 108.2 56.7 117.13 56.73 126.07 C56.75 130.79 56.76 135.52 56.75 140.24 C55.13 173.25 55.13 173.25 66.3 203.15 C66.98 204.14 66.98 204.14 67.68 205.16 C76.63 216.93 92.2 221.61 106.02 224.77 C111.09 225.35 116.14 225.29 121.23 225.27 C122.29 225.27 123.35 225.28 124.44 225.28 C132.2 225.27 138.96 224.83 146.3 222.15 C147.55 221.73 147.55 221.73 148.84 221.3 C159.3 217.73 168.83 212.39 175.3 203.15 C176.4 200.75 176.4 200.75 177.3 198.15 C177.79 197.03 178.29 195.92 178.8 194.77 C183.7 182.91 183.45 170.97 183.45 158.38 C183.46 156.69 183.46 155 183.47 153.31 C183.48 149.68 183.49 146.06 183.5 142.43 C183.51 136.7 183.53 130.97 183.55 125.24 C183.61 108.95 183.67 92.66 183.7 76.36 C183.72 67.35 183.75 58.34 183.79 49.34 C183.81 44.57 183.82 39.81 183.83 35.04 C183.83 30.57 183.84 26.09 183.87 21.62 C183.88 19.98 183.88 18.33 183.88 16.69 C183.87 14.45 183.89 12.21 183.9 9.98 C183.91 8.72 183.91 7.47 183.91 6.18 C184.3 3.15 184.3 3.15 185.65 1.24 C188.15 -0.42 190.23 -0.24 193.21 -0.24 C195.03 -0.26 195.03 -0.26 196.89 -0.27 C198.2 -0.27 199.51 -0.26 200.86 -0.25 C202.22 -0.26 203.58 -0.26 204.94 -0.26 C207.78 -0.27 210.63 -0.26 213.48 -0.25 C217.13 -0.23 220.78 -0.24 224.43 -0.26 C227.23 -0.27 230.04 -0.26 232.84 -0.26 C234.84 -0.25 236.84 -0.26 238.85 -0.27 C240.06 -0.26 241.27 -0.25 242.52 -0.24 C244.12 -0.24 244.12 -0.24 245.76 -0.24 C246.6 -0.11 247.43 0.02 248.3 0.15 C250.73 3.8 250.55 5.52 250.56 9.87 C250.56 10.55 250.57 11.24 250.57 11.95 C250.58 14.26 250.58 16.57 250.57 18.88 C250.58 20.53 250.58 22.19 250.59 23.84 C250.6 28.35 250.6 32.85 250.6 37.36 C250.6 41.13 250.6 44.91 250.61 48.68 C250.62 57.62 250.62 66.55 250.61 75.48 C250.61 84.64 250.62 93.8 250.64 102.96 C250.66 110.85 250.66 118.75 250.66 126.64 C250.66 131.34 250.66 136.04 250.68 140.74 C250.84 200.44 250.84 200.44 238.31 226.04 C237.19 228.25 237.19 228.25 236.3 231.15 C235.64 231.48 234.98 231.81 234.3 232.15 C233.82 233.22 233.35 234.29 232.86 235.4 C226.24 249.1 212.92 260.25 200.3 268.15 C199.69 268.57 199.08 269 198.45 269.45 C193.24 273.02 187.68 274.95 181.72 276.96 C178.94 277.92 176.34 279 173.67 280.21 C157.8 286.7 139.69 287.36 122.8 287.33 C122.03 287.33 121.27 287.33 120.49 287.33 C98.18 287.27 75.65 285.04 55.3 275.15 C53.59 274.36 53.59 274.36 51.85 273.56 C35.1 265.68 19.95 253.38 9.3 238.15 C8.71 237.3 8.11 236.46 7.5 235.59 C-6.8 213.27 -8.92 185.29 -8.78 159.52 C-8.77 158.02 -8.77 156.52 -8.77 155.02 C-8.75 150.4 -8.73 145.77 -8.7 141.15 C-8.7 139.72 -8.69 138.3 -8.68 136.87 C-8.64 127.72 -8.57 118.58 -8.5 109.43 C-8.47 105.59 -8.44 101.76 -8.42 97.93 C-8.36 90.73 -8.31 83.54 -8.26 76.34 C-8.2 68.12 -8.14 59.91 -8.08 51.69 C-7.95 34.84 -7.83 17.99 -7.7 1.15 C-5.03 -0.19 -2.99 0.01 0 0 Z " fill="#F9FCFE" transform="translate(521.703125,618.854736328125)"/>
<path d="M0 0 C13.13 -0.07 26.25 -0.12 39.38 -0.16 C45.48 -0.17 51.57 -0.19 57.67 -0.23 C63.55 -0.26 69.44 -0.28 75.33 -0.28 C77.57 -0.29 79.81 -0.3 82.05 -0.32 C85.2 -0.34 88.35 -0.34 91.5 -0.34 C92.88 -0.36 92.88 -0.36 94.28 -0.37 C100.62 -0.34 106.03 0.88 112 3 C112 3.66 112 4.32 112 5 C112.6 5.26 113.19 5.51 113.81 5.77 C118.91 8.63 122.74 15.03 124.52 20.48 C126.22 29.44 126.33 38.87 121.56 46.88 C117.87 51.89 114.16 56.26 108 58 C107.03 58.35 106.06 58.7 105.06 59.06 C98.93 60.94 93.08 61.15 86.72 61.15 C85.35 61.15 85.35 61.15 83.95 61.16 C80.94 61.16 77.93 61.17 74.92 61.17 C72.83 61.17 70.73 61.17 68.64 61.18 C64.26 61.18 59.88 61.19 55.5 61.19 C49.87 61.19 44.25 61.2 38.62 61.22 C34.3 61.23 29.98 61.23 25.66 61.23 C23.59 61.23 21.51 61.23 19.44 61.24 C16.54 61.25 13.65 61.25 10.76 61.24 C9.9 61.25 9.04 61.25 8.15 61.26 C2.23 61.23 2.23 61.23 0 59 C-0.24 56.52 -0.24 56.52 -0.23 53.36 C-0.23 52.18 -0.23 50.99 -0.23 49.78 C-0.22 48.5 -0.21 47.22 -0.2 45.9 C-0.19 44.59 -0.19 43.28 -0.19 41.94 C-0.18 38.46 -0.16 34.99 -0.14 31.51 C-0.12 27.97 -0.11 24.42 -0.1 20.88 C-0.08 13.92 -0.04 6.96 0 0 Z " fill="#17417C" transform="translate(896,786)"/>
<path d="M0 0 C11.04 -0.07 22.08 -0.12 33.12 -0.16 C38.25 -0.17 43.38 -0.19 48.5 -0.23 C53.46 -0.26 58.41 -0.28 63.36 -0.28 C65.25 -0.29 67.13 -0.3 69.02 -0.32 C90.38 -0.49 90.38 -0.49 98.81 4.75 C105.67 11.8 109.08 19.02 109.38 28.94 C109.14 37.15 107.25 44.57 102 51 C101.34 51 100.68 51 100 51 C99.67 51.99 99.34 52.98 99 54 C90.23 60.85 77.17 59.44 66.62 59.62 C64.83 59.66 63.04 59.7 61.25 59.74 C47.5 60.01 33.75 60.1 20 60.12 C19.05 60.13 18.1 60.13 17.11 60.13 C14.43 60.14 11.75 60.14 9.06 60.13 C8.26 60.13 7.45 60.14 6.62 60.14 C1.12 60.12 1.12 60.12 0 59 C-0.09 57.16 -0.12 55.31 -0.11 53.47 C-0.11 52.29 -0.11 51.11 -0.11 49.89 C-0.11 48.61 -0.1 47.32 -0.1 46 C-0.1 44.69 -0.09 43.38 -0.09 42.03 C-0.09 38.55 -0.08 35.06 -0.07 31.58 C-0.06 28.03 -0.05 24.48 -0.05 20.92 C-0.04 13.95 -0.02 6.97 0 0 Z " fill="#16407B" transform="translate(896,674)"/>
<path d="M0 0 C1.55 0 3.1 0 4.65 0 C8.68 0.01 12.7 0.02 16.73 0.03 C20.86 0.04 24.99 0.04 29.12 0.05 C37.19 0.06 45.25 0.08 53.32 0.1 C54.82 5.95 55.61 11.37 55.55 17.41 C55.55 18.2 55.55 19 55.55 19.81 C55.55 22.43 55.53 25.04 55.51 27.66 C55.5 29.51 55.49 31.37 55.49 33.22 C55.37 58.18 54.84 83.14 54.32 108.1 C44.27 98.09 35.5 86.99 26.91 75.72 C24.65 72.78 22.35 69.92 19.88 67.16 C13.43 59.95 7.66 52.13 1.75 44.47 C1.14 43.68 0.53 42.9 -0.1 42.08 C-1.29 40.55 -2.47 39.02 -3.64 37.49 C-6.97 33.19 -10.43 29.06 -14.04 24.99 C-16.42 22.24 -18.62 19.38 -20.8 16.47 C-23.28 13.2 -25.78 9.97 -28.48 6.89 C-30.68 4.1 -30.68 4.1 -30.68 1.1 C-20.43 0.21 -10.28 -0.04 0 0 Z " fill="#16407B" transform="translate(839.6796875,395.90234375)"/>
<path d="M0 0 C1.12 -0.01 1.12 -0.01 2.25 -0.01 C4.71 -0.02 7.16 -0.02 9.62 -0.02 C11.32 -0.03 13.03 -0.03 14.74 -0.03 C18.32 -0.04 21.9 -0.04 25.48 -0.04 C30.07 -0.04 34.65 -0.05 39.23 -0.07 C42.76 -0.08 46.29 -0.08 49.82 -0.08 C51.51 -0.08 53.2 -0.09 54.89 -0.1 C57.26 -0.11 59.62 -0.1 61.98 -0.1 C62.68 -0.1 63.38 -0.11 64.09 -0.11 C68.02 -0.09 71.02 0.43 74.56 2.15 C72.55 7.08 68.92 10.24 64.56 13.15 C64.06 12.65 64.06 12.65 63.56 12.15 C63.42 13.22 63.42 13.22 63.29 14.31 C62.41 17.71 60.97 19.72 58.87 22.52 C58.14 23.49 57.41 24.46 56.66 25.46 C54.61 28.08 52.5 30.6 50.3 33.1 C47.91 35.91 45.64 38.81 43.37 41.71 C42.9 42.31 42.43 42.91 41.94 43.53 C40.48 45.4 39.02 47.27 37.56 49.15 C31.73 56.6 25.87 64.02 19.85 71.32 C16.85 75.01 13.94 78.76 11.02 82.51 C6.49 88.29 1.8 93.93 -2.94 99.55 C-3.79 100.58 -3.79 100.58 -4.67 101.63 C-5.44 102.54 -5.44 102.54 -6.22 103.47 C-7.64 105.24 -7.64 105.24 -8.44 108.15 C-9.43 107.82 -10.42 107.49 -11.44 107.15 C-11.44 72.17 -11.44 37.19 -11.44 1.15 C-7.51 0.16 -4.01 -0 0 0 Z " fill="#16407B" transform="translate(375.443115234375,395.854736328125)"/>
<path d="M0 0 C2.64 0 5.28 0 8 0 C10.47 2.47 10.24 3.86 10.25 7.23 C10.24 8.29 10.24 8.29 10.23 9.38 C10.23 10.11 10.23 10.83 10.23 11.58 C10.23 13.12 10.22 14.66 10.21 16.2 C10.19 18.56 10.19 20.92 10.19 23.28 C10.18 24.77 10.17 26.26 10.17 27.75 C10.17 28.46 10.17 29.17 10.16 29.91 C10.12 34.88 10.12 34.88 9 36 C5.59 36.25 2.17 36.19 -1.25 36.19 C-2.68 36.21 -2.68 36.21 -4.14 36.22 C-12.85 36.24 -12.85 36.24 -17 34 C-17.99 34.99 -17.99 34.99 -19 36 C-21.55 36.2 -23.96 36.28 -26.5 36.25 C-27.19 36.26 -27.88 36.27 -28.59 36.27 C-33.75 36.25 -33.75 36.25 -36 34 C-36.33 34.66 -36.66 35.32 -37 36 C-56.38 36.05 -75.75 36.08 -95.13 36.1 C-104.12 36.11 -113.12 36.13 -122.11 36.15 C-129.95 36.17 -137.79 36.18 -145.63 36.19 C-149.78 36.19 -153.94 36.2 -158.09 36.21 C-161.99 36.23 -165.9 36.23 -169.81 36.23 C-171.24 36.23 -172.68 36.23 -174.11 36.24 C-176.07 36.25 -178.03 36.24 -179.98 36.24 C-181.63 36.24 -181.63 36.24 -183.3 36.25 C-186 36 -186 36 -189 34 C-189 33.34 -189 32.68 -189 32 C-189.57 32.32 -190.14 32.64 -190.73 32.98 C-194.44 34.65 -198.01 34.58 -202 34 C-205.19 32.26 -207.45 30.55 -210 28 C-210.6 23.18 -210.61 18.53 -208.81 14 C-206.27 11.2 -203.88 9.26 -200.03 8.73 C-197.79 8.63 -195.56 8.64 -193.31 8.69 C-192.16 8.68 -192.16 8.68 -190.97 8.68 C-185.27 8.73 -185.27 8.73 -183 11 C-182.85 13.74 -182.81 16.38 -182.88 19.12 C-182.88 19.88 -182.89 20.63 -182.9 21.41 C-182.93 23.27 -182.96 25.14 -183 27 C-179.35 27.83 -175.94 28.15 -172.2 28.21 C-170.49 28.24 -170.49 28.24 -168.74 28.27 C-167.52 28.28 -166.3 28.3 -165.04 28.32 C-163.78 28.34 -162.53 28.36 -161.23 28.38 C-157.9 28.43 -154.57 28.48 -151.23 28.53 C-147.83 28.58 -144.42 28.64 -141.02 28.69 C-134.35 28.8 -127.67 28.9 -121 29 C-121.02 28.01 -121.05 27.03 -121.07 26.01 C-121.09 24.73 -121.11 23.45 -121.12 22.12 C-121.15 20.85 -121.17 19.57 -121.2 18.26 C-121 15 -121 15 -119 13 C-116.12 12.62 -116.12 12.62 -113 13 C-110.62 15 -110.62 15 -109 17 C-108.44 16.4 -107.89 15.8 -107.31 15.19 C-101.75 9.93 -96.56 8.84 -89 9 C-84.83 9.79 -82.42 11.51 -79.62 14.75 C-78 18 -78 18 -77.62 21.69 C-77.42 22.78 -77.21 23.87 -77 25 C-74.07 27.01 -74.07 27.01 -71 28 C-71.06 26.95 -71.12 25.9 -71.19 24.81 C-70.99 20.76 -70.56 19.09 -68 16 C-66.35 15.3 -64.68 14.64 -63 14 C-61.86 12.73 -61.86 12.73 -60.69 11.44 C-57.27 8.34 -54.46 7.88 -50 8 C-46.76 8.21 -43.97 8.64 -41 10 C-37.49 14.41 -36.39 18.69 -35.39 24.18 C-35.17 26.01 -35.17 26.01 -34 27 C-32.15 27.07 -30.29 27.08 -28.44 27.06 C-27.43 27.05 -26.41 27.04 -25.37 27.04 C-24.2 27.02 -24.2 27.02 -23 27 C-21.52 24.04 -21.65 21.16 -21.44 17.88 C-21.35 16.59 -21.27 15.31 -21.18 13.99 C-21.12 13 -21.06 12.02 -21 11 C-17.62 10.88 -17.62 10.88 -14 11 C-12 13 -12 13 -11.8 16.04 C-11.83 17.22 -11.85 18.41 -11.88 19.62 C-11.89 20.81 -11.91 22 -11.93 23.23 C-11.95 24.14 -11.98 25.06 -12 26 C-8.06 27.26 -5.52 27 -1 27 C-0.67 18.09 -0.34 9.18 0 0 Z " fill="#F6FAFD" transform="translate(776,1003)"/>
<path d="M0 0 C0.33 0.99 0.66 1.98 1 3 C1.64 3.15 2.28 3.31 2.95 3.47 C3.96 3.73 3.96 3.73 5 4 C7.83 9.28 8.33 12.89 7.23 18.73 C5.16 22.56 2.9 24.97 -1 27 C-6.35 27.9 -11.66 27.79 -17.06 27.73 C-18.7 27.73 -20.34 27.74 -21.98 27.75 C-26.42 27.76 -30.86 27.74 -35.3 27.71 C-39.95 27.68 -44.6 27.69 -49.25 27.69 C-57.05 27.68 -64.85 27.66 -72.66 27.62 C-81.68 27.57 -90.7 27.55 -99.73 27.56 C-109.34 27.56 -118.95 27.54 -128.56 27.51 C-131.33 27.5 -134.09 27.5 -136.86 27.5 C-141.21 27.5 -145.56 27.48 -149.91 27.45 C-151.5 27.44 -153.1 27.44 -154.7 27.44 C-156.87 27.44 -159.05 27.42 -161.23 27.4 C-162.44 27.4 -163.66 27.39 -164.92 27.39 C-168.26 26.97 -169.5 26.15 -172 24 C-174.02 24.23 -174.02 24.23 -176 25 C-182.56 25.74 -186.6 24.82 -192 21 C-193.97 17.05 -193.44 12.3 -193 8 C-190.98 3.88 -189.31 1.54 -185 0 C-182.1 -0.26 -179.22 -0.23 -176.31 -0.19 C-175.14 -0.19 -175.14 -0.19 -173.94 -0.19 C-168.14 -0.14 -168.14 -0.14 -167 1 C-166.76 3.86 -166.58 6.7 -166.44 9.56 C-166.39 10.37 -166.35 11.18 -166.31 12.01 C-166.2 14 -166.1 16 -166 18 C-162.73 18.73 -159.68 19.13 -156.34 19.16 C-154.98 19.17 -154.98 19.17 -153.59 19.19 C-152.6 19.19 -151.62 19.2 -150.61 19.21 C-149.57 19.22 -148.52 19.23 -147.45 19.24 C-144 19.27 -140.55 19.29 -137.11 19.32 C-134.71 19.34 -132.32 19.36 -129.93 19.38 C-123.64 19.43 -117.35 19.48 -111.06 19.53 C-104.63 19.58 -98.21 19.64 -91.79 19.69 C-79.19 19.8 -66.6 19.9 -54 20 C-54.43 18.96 -54.87 17.93 -55.31 16.86 C-55.88 15.49 -56.44 14.12 -57 12.75 C-57.29 12.07 -57.57 11.39 -57.87 10.68 C-59.29 7.19 -60 4.83 -60 1 C-55.6 0.85 -51.21 0.77 -46.81 0.69 C-45.57 0.65 -44.32 0.6 -43.04 0.56 C-33.99 0.44 -33.99 0.44 -31.06 2.1 C-29.7 3.46 -29.7 3.46 -28 6 C-27.67 6.33 -27.34 6.66 -27 7 C-26.9 8.48 -26.87 9.96 -26.88 11.44 C-26.87 12.24 -26.87 13.04 -26.87 13.87 C-27 16 -27 16 -28 18 C-25.69 18.66 -23.38 19.32 -21 20 C-21.33 19.34 -21.66 18.68 -22 18 C-22.56 12.93 -22.56 9.08 -20.19 4.5 C-14.52 -1.98 -7.83 -1.24 0 0 Z " fill="#F9FCFE" transform="translate(1009,1012)"/>
<path d="M0 0 C7.24 -0.03 14.49 -0.04 21.73 -0.05 C24.2 -0.06 26.67 -0.07 29.14 -0.08 C32.67 -0.09 36.21 -0.09 39.75 -0.1 C40.86 -0.1 41.97 -0.11 43.11 -0.11 C44.64 -0.11 44.64 -0.11 46.2 -0.11 C47.11 -0.12 48.01 -0.12 48.94 -0.12 C51 0 51 0 52 1 C52.09 2.57 52.12 4.14 52.11 5.7 C52.11 6.7 52.11 7.71 52.11 8.74 C52.11 9.83 52.1 10.91 52.1 12.04 C52.1 13.14 52.09 14.25 52.09 15.39 C52.09 18.95 52.08 22.51 52.06 26.06 C52.06 28.47 52.05 30.87 52.05 33.28 C52.04 39.18 52.02 45.09 52 51 C44.76 51.03 37.51 51.04 30.27 51.05 C27.8 51.06 25.33 51.07 22.86 51.08 C19.33 51.09 15.79 51.09 12.25 51.1 C11.14 51.1 10.03 51.11 8.89 51.11 C7.36 51.11 7.36 51.11 5.8 51.11 C4.44 51.12 4.44 51.12 3.06 51.12 C1 51 1 51 0 50 C-0.09 48.43 -0.12 46.86 -0.11 45.3 C-0.11 44.3 -0.11 43.29 -0.11 42.26 C-0.11 41.17 -0.1 40.09 -0.1 38.96 C-0.1 37.86 -0.09 36.75 -0.09 35.61 C-0.09 32.05 -0.08 28.49 -0.06 24.94 C-0.06 22.53 -0.05 20.13 -0.05 17.72 C-0.04 11.82 -0.02 5.91 0 0 Z " fill="#17417C" transform="translate(954,456)"/>
<path d="M0 0 C7.24 -0.03 14.49 -0.04 21.73 -0.05 C24.2 -0.06 26.67 -0.07 29.14 -0.08 C32.67 -0.09 36.21 -0.09 39.75 -0.1 C40.86 -0.1 41.97 -0.11 43.11 -0.11 C44.64 -0.11 44.64 -0.11 46.2 -0.11 C47.11 -0.12 48.01 -0.12 48.94 -0.12 C51 0 51 0 52 1 C52.09 2.57 52.12 4.14 52.11 5.7 C52.11 6.7 52.11 7.71 52.11 8.74 C52.11 9.83 52.1 10.91 52.1 12.04 C52.1 13.14 52.09 14.25 52.09 15.39 C52.09 18.95 52.08 22.51 52.06 26.06 C52.06 28.47 52.05 30.87 52.05 33.28 C52.04 39.18 52.02 45.09 52 51 C44.76 51.03 37.51 51.04 30.27 51.05 C27.8 51.06 25.33 51.07 22.86 51.08 C19.33 51.09 15.79 51.09 12.25 51.1 C11.14 51.1 10.03 51.11 8.89 51.11 C7.36 51.11 7.36 51.11 5.8 51.11 C4.44 51.12 4.44 51.12 3.06 51.12 C1 51 1 51 0 50 C-0.09 48.43 -0.12 46.86 -0.11 45.3 C-0.11 44.3 -0.11 43.29 -0.11 42.26 C-0.11 41.17 -0.1 40.09 -0.1 38.96 C-0.1 37.86 -0.09 36.75 -0.09 35.61 C-0.09 32.05 -0.08 28.49 -0.06 24.94 C-0.06 22.53 -0.05 20.13 -0.05 17.72 C-0.04 11.82 -0.02 5.91 0 0 Z " fill="#17417C" transform="translate(252,456)"/>
<path d="M0 0 C1.59 -0.04 1.59 -0.04 3.21 -0.08 C6.06 0.25 6.06 0.25 7.84 1.59 C11.15 6.07 12.46 9.67 12.06 15.25 C12.72 15.25 13.38 15.25 14.06 15.25 C14.06 15.91 14.06 16.57 14.06 17.25 C42.77 16.76 42.77 16.76 72.06 16.25 C72.39 12.62 72.72 8.99 73.06 5.25 C79.81 5.12 79.81 5.12 82.06 6.25 C82.06 9.22 82.06 12.19 82.06 15.25 C83.05 15.58 84.04 15.91 85.06 16.25 C85.12 15.47 85.18 14.69 85.25 13.88 C85.37 12.36 85.37 12.36 85.5 10.81 C85.62 9.3 85.62 9.3 85.75 7.75 C86.06 5.25 86.06 5.25 87.06 4.25 C92.59 4.01 92.59 4.01 95.06 5.25 C95.06 8.55 95.06 11.85 95.06 15.25 C96.38 15.58 97.7 15.91 99.06 16.25 C99.14 14.99 99.14 14.99 99.21 13.7 C99.29 12.6 99.36 11.5 99.44 10.38 C99.51 9.28 99.58 8.19 99.65 7.07 C100.06 4.25 100.06 4.25 102.06 2.25 C104.37 2.58 106.68 2.91 109.06 3.25 C109.06 10.18 109.06 17.11 109.06 24.25 C96.88 24.65 96.88 24.65 92.06 21.25 C91.57 22.73 91.57 22.73 91.06 24.25 C85.8 24.57 82.62 23.92 78.06 21.25 C77.57 22.73 77.57 22.73 77.06 24.25 C76.26 24.24 75.46 24.24 74.64 24.23 C67.07 24.19 59.51 24.19 51.95 24.23 C48.06 24.25 44.17 24.25 40.29 24.22 C36.53 24.19 32.78 24.2 29.02 24.24 C27.59 24.25 26.16 24.24 24.73 24.22 C16.81 23.84 16.81 23.84 9.93 27.04 C8.32 29.15 8.32 29.15 7.19 31.38 C6.06 33.25 6.06 33.25 2.62 34.88 C-1.61 35.32 -3.98 34.7 -7.94 33.25 C-7.94 31.27 -7.94 29.29 -7.94 27.25 C-6.84 27.27 -5.75 27.29 -4.62 27.31 C-0.99 27.44 -0.99 27.44 2.06 26.25 C1.47 26.01 0.88 25.77 0.27 25.52 C-9.53 21.36 -9.53 21.36 -11.94 18.25 C-12.82 12.72 -12.94 7.95 -10.06 3.06 C-6.63 0.13 -4.47 0.06 0 0 Z " fill="#F9FCFE" transform="translate(277.9375,1014.75)"/>
<path d="M0 0 C2.55 2.06 3.85 3.86 5.25 6.81 C5.25 7.8 5.25 8.79 5.25 9.81 C5.91 9.81 6.57 9.81 7.25 9.81 C6.92 11.79 6.59 13.77 6.25 15.81 C6.91 16.14 7.57 16.47 8.25 16.81 C8.25 16.15 8.25 15.49 8.25 14.81 C9.57 15.14 10.89 15.47 12.25 15.81 C12.23 15.22 12.2 14.63 12.18 14.02 C12.08 9.47 12.11 5.95 14.25 1.81 C17.12 1.69 17.12 1.69 20.25 1.81 C22.25 3.81 22.25 3.81 22.48 5.88 C22.47 6.7 22.46 7.53 22.45 8.38 C22.44 9.28 22.43 10.17 22.43 11.1 C22.4 12.5 22.4 12.5 22.38 13.94 C22.37 14.88 22.36 15.83 22.35 16.8 C22.32 19.14 22.29 21.48 22.25 23.81 C14.4 23.89 6.56 23.94 -1.29 23.98 C-3.96 23.99 -6.63 24.01 -9.3 24.04 C-13.14 24.08 -16.98 24.09 -20.82 24.11 C-22.6 24.13 -22.6 24.13 -24.42 24.15 C-30.61 24.15 -35.36 24.01 -40.75 20.81 C-42.89 17.61 -42.98 16.79 -42.88 13.12 C-42.86 12.32 -42.84 11.51 -42.82 10.68 C-42.8 10.06 -42.77 9.45 -42.75 8.81 C-40.44 9.14 -38.13 9.47 -35.75 9.81 C-35.42 11.13 -35.09 12.45 -34.75 13.81 C-29.68 15.08 -25.02 16.08 -19.75 15.81 C-19.87 14.05 -19.87 14.05 -20 12.25 C-19.98 7.34 -18.72 4.73 -15.75 0.81 C-10.7 -1.77 -5.26 -2.27 0 0 Z " fill="#F5F9FC" transform="translate(239.75,1015.1875)"/>
<path d="M0 0 C5.75 -0.12 5.75 -0.12 8 1 C8.41 3.5 8.41 3.5 8.63 6.79 C8.72 7.95 8.8 9.12 8.89 10.33 C8.97 11.56 9.04 12.79 9.12 14.06 C9.21 15.3 9.3 16.53 9.39 17.81 C9.6 20.87 9.8 23.93 10 27 C19.02 27.69 27.94 28.15 37 28 C36.53 21.8 36.53 21.8 33 17 C30.04 16.33 30.04 16.33 27 17 C26.4 17.66 25.8 18.32 25.19 19 C22.56 21.4 21.71 21.27 18.25 21.25 C16.83 21.19 15.41 21.11 14 21 C14.19 16.9 14.72 15.3 17.56 12.25 C22.5 8.61 27.64 7.72 33.69 8.12 C37.82 8.76 40.14 9.82 43 13 C46.4 18.14 47.39 22.73 48.11 28.79 C48.2 29.49 48.29 30.18 48.38 30.9 C48.59 32.6 48.8 34.3 49 36 C42.2 36.03 35.4 36.04 28.6 36.05 C26.29 36.06 23.97 36.07 21.66 36.08 C18.34 36.09 15.02 36.09 11.7 36.1 C10.14 36.11 10.14 36.11 8.54 36.11 C7.58 36.11 6.62 36.11 5.63 36.11 C4.79 36.12 3.94 36.12 3.06 36.12 C1 36 1 36 -1 35 C-1.02 30.34 -1.04 25.67 -1.05 21.01 C-1.06 19.42 -1.07 17.84 -1.08 16.25 C-1.09 13.97 -1.09 11.69 -1.1 9.41 C-1.1 8.7 -1.11 7.99 -1.11 7.26 C-1.11 2.23 -1.11 2.23 0 0 Z " fill="#F8FBFE" transform="translate(1021,1003)"/>
<path d="M0 0 C2.49 2.49 2.33 3.61 2.56 7.06 C2.54 10.34 2.54 10.34 4 13 C5.35 13.23 6.7 13.41 8.06 13.56 C9.36 13.71 10.66 13.85 12 14 C11.99 13.24 11.98 12.48 11.96 11.7 C11.96 10.71 11.95 9.71 11.94 8.69 C11.93 7.7 11.91 6.72 11.9 5.7 C12 3 12 3 13 0 C15.88 -0.12 15.88 -0.12 19 0 C21 2 21 2 21.24 3.96 C21.24 4.73 21.23 5.51 21.23 6.32 C21.23 7.16 21.23 8.01 21.22 8.88 C21.21 9.77 21.2 10.65 21.19 11.56 C21.19 12.9 21.19 12.9 21.19 14.26 C21.14 20.86 21.14 20.86 20 22 C17.38 22.13 14.8 22.19 12.19 22.19 C11.46 22.2 10.74 22.21 9.99 22.22 C6.08 22.24 3.39 21.95 0 20 C-3.83 20.18 -3.83 20.18 -7 22 C-9.67 22.14 -12.32 22.04 -15 22 C-14.88 22.89 -14.75 23.77 -14.62 24.69 C-15.03 28.31 -15.24 28.63 -17.88 30.81 C-24.34 35.33 -31.37 34.51 -39 34 C-42.49 33.19 -43.29 32.58 -46 30 C-48.51 25.18 -49.42 20.43 -49 15 C-47.02 15 -45.04 15 -43 15 C-42.79 15.61 -42.58 16.23 -42.37 16.86 C-40.65 21.61 -40.65 21.61 -37.35 25.27 C-33.95 26.78 -30.67 27.6 -27 27 C-24.72 25.6 -24.72 25.6 -23 24 C-23.33 23.01 -23.66 22.02 -24 21 C-25.98 20.34 -25.98 20.34 -28 20 C-29 19 -29 19 -29.06 15.94 C-29.04 14.97 -29.02 14 -29 13 C-28.34 13.16 -27.67 13.33 -26.99 13.5 C-23.37 14.11 -19.84 14.11 -16.19 14.06 C-15.49 14.06 -14.8 14.05 -14.09 14.05 C-12.39 14.04 -10.7 14.02 -9 14 C-7.36 10.71 -7.6 7.07 -7.38 3.43 C-7.19 2.23 -7.19 2.23 -7 1 C-4.49 -0.26 -2.78 -0.21 0 0 Z " fill="#F9FCFE" transform="translate(449,1017)"/>
<path d="M0 0 C3.23 -0.06 6.46 -0.09 9.69 -0.12 C10.6 -0.14 11.51 -0.16 12.45 -0.18 C21.11 -0.24 21.11 -0.24 25 2 C27.26 4.8 27.95 6.54 28.31 10.12 C28 13 28 13 26 16 C26.53 18.16 26.53 18.16 27.56 20.38 C29.12 24.65 29.12 24.65 28 27.88 C24.48 31.61 21.59 33.17 16.46 33.36 C14.77 33.36 13.07 33.34 11.38 33.31 C10.52 33.32 9.66 33.32 8.77 33.32 C2.4 33.27 2.4 33.27 -1 31 C-1.36 28.25 -1.36 28.25 -1.33 24.79 C-1.32 23.54 -1.32 22.3 -1.31 21.02 C-1.29 19.71 -1.27 18.41 -1.25 17.06 C-1.24 15.76 -1.24 14.46 -1.23 13.12 C-1.15 3.46 -1.15 3.46 0 0 Z " fill="#EFF4F8" transform="translate(794,953)"/>
<path d="M0 0 C4.02 4.12 7.42 8.8 7.69 14.69 C7.27 19.1 6.06 22.73 3 26 C-3.05 30.08 -8.85 31.17 -16.06 31.31 C-17.29 31.35 -18.52 31.39 -19.79 31.43 C-23 31 -23 31 -24.93 28.98 C-25.29 28.33 -25.64 27.67 -26 27 C-25.67 26.34 -25.34 25.68 -25 25 C-24.85 23.04 -24.75 21.08 -24.68 19.12 C-24.62 17.37 -24.62 17.37 -24.56 15.58 C-24.52 14.36 -24.48 13.14 -24.44 11.88 C-24.39 10.64 -24.35 9.41 -24.31 8.14 C-24.2 5.1 -24.1 2.05 -24 -1 C-22.08 -1.16 -20.16 -1.33 -18.25 -1.49 C-17.18 -1.58 -16.11 -1.67 -15.01 -1.76 C-9.45 -2.2 -5.06 -2.53 0 0 Z " fill="#F9FCFE" transform="translate(337,955)"/>
<path d="M0 0 C1.92 2.07 1.92 2.07 3.75 4.56 C4.36 5.39 4.98 6.22 5.61 7.07 C6.07 7.7 6.53 8.34 7 9 C7.66 6.03 8.32 3.06 9 0 C13.41 -1.1 14.89 -0.59 19 1 C19.17 5.25 19.33 9.51 19.48 13.76 C19.54 15.21 19.59 16.66 19.65 18.11 C19.73 20.18 19.81 22.26 19.88 24.34 C19.93 25.59 19.97 26.84 20.02 28.13 C20 31 20 31 19 32 C15.87 32.65 13.12 32.7 10 32 C5.57 28.52 2.81 23.81 0 19 C-0.06 19.85 -0.12 20.71 -0.18 21.59 C-0.27 22.69 -0.35 23.8 -0.44 24.94 C-0.52 26.04 -0.6 27.14 -0.68 28.28 C-1 31 -1 31 -2 32 C-7.74 32.27 -7.74 32.27 -10 32 C-12 30 -12 30 -12.24 27.77 C-12.24 26.86 -12.23 25.96 -12.23 25.02 C-12.23 24.02 -12.23 23.02 -12.22 21.99 C-12.21 20.94 -12.2 19.89 -12.19 18.81 C-12.19 17.78 -12.19 16.75 -12.19 15.69 C-12.15 10.36 -11.93 5.25 -11 0 C-3.29 -1.34 -3.29 -1.34 0 0 Z " fill="#F9FCFE" transform="translate(208,954)"/>
<path d="M0 0 C1.39 1.96 2.73 3.96 4 6 C4.99 6.66 5.98 7.32 7 8 C7.05 7.36 7.1 6.72 7.15 6.07 C7.22 5.24 7.3 4.41 7.38 3.56 C7.44 2.74 7.51 1.92 7.59 1.07 C7.72 0.38 7.86 -0.3 8 -1 C11.01 -2.51 13.68 -2.18 17 -2 C19 0 19 0 19.24 2.97 C19.24 4.83 19.24 4.83 19.23 6.72 C19.23 7.71 19.23 7.71 19.23 8.72 C19.23 10.12 19.22 11.52 19.21 12.91 C19.19 15.06 19.19 17.2 19.19 19.35 C19.15 29.85 19.15 29.85 18 31 C10.92 31.71 10.92 31.71 7.31 28.94 C5.58 26.74 3.93 24.53 2.31 22.25 C0.38 18.99 0.38 18.99 -2 18 C-2 21.96 -2 25.92 -2 30 C-8.05 30.98 -8.05 30.98 -10 31 C-12 29 -12 29 -12.23 26.02 C-12.22 24.77 -12.21 23.53 -12.2 22.24 C-12.19 21.58 -12.19 20.92 -12.19 20.23 C-12.18 18.11 -12.15 15.99 -12.12 13.88 C-12.11 12.44 -12.11 11 -12.1 9.57 C-12.08 6.04 -12.04 2.52 -12 -1 C-3.74 -2.33 -3.74 -2.33 0 0 Z " fill="#F8FBFE" transform="translate(873,955)"/>
<path d="M0 0 C5.93 6.44 5.93 6.44 6.08 9.94 C5.33 15.68 5.33 15.68 3.38 17.56 C2.92 18.04 2.47 18.51 2 19 C2.18 23.81 3.26 27.06 6 31 C2.81 32.6 -0.53 32.37 -4 32 C-7.35 30.41 -7.88 29.3 -9.25 25.81 C-9.5 24.88 -9.75 23.96 -10 23 C-10.99 23 -11.98 23 -13 23 C-12.81 24.13 -12.63 25.27 -12.44 26.44 C-12.29 27.61 -12.15 28.79 -12 30 C-13 31 -13 31 -15.25 31.13 C-16.16 31.13 -17.07 31.13 -18 31.12 C-19.36 31.13 -19.36 31.13 -20.75 31.13 C-23 31 -23 31 -24 30 C-25.67 20 -25.21 10 -24 0 C-20.94 -0.2 -17.88 -0.38 -14.81 -0.56 C-13.52 -0.65 -13.52 -0.65 -12.19 -0.73 C-3.66 -1.22 -3.66 -1.22 0 0 Z " fill="#F2F6FA" transform="translate(592,954)"/>
<path d="M0 0 C1.49 0.99 1.49 0.99 3 2 C3.37 4.02 3.37 4.02 3.37 6.56 C3.38 7.52 3.38 8.49 3.39 9.48 C3.38 10.55 3.37 11.62 3.36 12.72 C3.36 13.85 3.37 14.98 3.37 16.14 C3.37 19.95 3.36 23.75 3.34 27.56 C3.34 30.28 3.34 33 3.34 35.72 C3.34 41.59 3.33 47.46 3.32 53.33 C3.29 61.81 3.28 70.29 3.28 78.78 C3.27 92.54 3.25 106.31 3.23 120.07 C3.2 133.44 3.18 146.82 3.16 160.19 C3.16 161.01 3.16 161.84 3.16 162.69 C3.16 166.82 3.15 170.95 3.15 175.09 C3.12 209.39 3.07 243.7 3 278 C2.34 278.33 1.68 278.66 1 279 C0.04 276.11 -0.12 274.32 -0.12 271.32 C-0.13 270.35 -0.13 269.39 -0.13 268.39 C-0.13 267.32 -0.12 266.26 -0.12 265.16 C-0.12 264.03 -0.12 262.9 -0.12 261.74 C-0.12 257.93 -0.12 254.13 -0.11 250.32 C-0.11 247.6 -0.11 244.88 -0.11 242.16 C-0.11 236.3 -0.11 230.43 -0.11 224.57 C-0.1 216.09 -0.09 207.61 -0.09 199.13 C-0.09 185.37 -0.08 171.61 -0.08 157.85 C-0.07 144.49 -0.06 131.12 -0.05 117.76 C-0.05 116.93 -0.05 116.11 -0.05 115.26 C-0.05 111.13 -0.05 107 -0.05 102.86 C-0.04 68.58 -0.02 34.29 0 0 Z " fill="#002163" transform="translate(454,621)"/>
<path d="M0 0 C1.77 1.96 3.24 3.99 4.7 6.19 C5.88 8.14 5.88 8.14 8 9 C8.66 6.03 9.32 3.06 10 0 C13.38 -0.62 13.38 -0.62 17 -1 C19 1 19 1 19.23 4.07 C19.22 5.36 19.21 6.65 19.2 7.98 C19.19 8.66 19.19 9.35 19.19 10.05 C19.18 12.24 19.15 14.43 19.12 16.62 C19.11 18.11 19.11 19.59 19.1 21.08 C19.08 24.72 19.04 28.36 19 32 C11.34 32.27 11.34 32.27 8.25 29.81 C7.14 28.42 7.14 28.42 6 27 C5.28 26.11 4.56 25.23 3.81 24.31 C3.21 23.55 2.62 22.79 2 22 C1.34 21.34 0.68 20.68 0 20 C-0.33 23.96 -0.66 27.92 -1 32 C-3.97 32 -6.94 32 -10 32 C-11.46 29.08 -11.11 26.5 -11.1 23.24 C-11.1 22.58 -11.09 21.92 -11.09 21.23 C-11.09 19.11 -11.08 16.99 -11.06 14.88 C-11.06 13.44 -11.05 12 -11.05 10.57 C-11.04 7.04 -11.02 3.52 -11 0 C-6.88 -0.88 -4.06 -1.41 0 0 Z " fill="#F9FCFE" transform="translate(749,954)"/>
<path d="M0 0 C2.24 1.81 3.38 3.55 5 6 C5 6.66 5 7.32 5 8 C6.32 8.33 7.64 8.66 9 9 C9.12 8.43 9.24 7.87 9.37 7.29 C9.53 6.55 9.7 5.82 9.88 5.06 C10.04 4.33 10.2 3.6 10.37 2.85 C11 1 11 1 13 0 C16 -0.25 16 -0.25 19 0 C21.39 3.59 21.23 5.16 21.2 9.42 C21.19 10.67 21.18 11.93 21.18 13.22 C21.16 14.53 21.14 15.84 21.12 17.19 C21.11 18.52 21.11 19.86 21.1 21.19 C21.07 24.46 21.04 27.73 21 31 C18.49 32.36 17.1 33 14.19 33.12 C8.53 31.13 5.1 26.3 2.56 21 C2.38 20.34 2.19 19.68 2 19 C1.34 19 0.68 19 0 19 C0.17 20.09 0.33 21.19 0.5 22.31 C1.02 26.13 1.22 28.35 0 32 C-6.05 32.2 -6.05 32.2 -8 32 C-10 30 -10 30 -10.23 27.11 C-10.22 25.91 -10.21 24.7 -10.2 23.46 C-10.19 21.51 -10.19 21.51 -10.18 19.52 C-10.16 18.14 -10.14 16.76 -10.12 15.38 C-10.11 13.99 -10.11 12.6 -10.1 11.21 C-10.07 7.81 -10.04 4.4 -10 1 C-6.33 -0.22 -3.86 -0.47 0 0 Z " fill="#F6F9FD" transform="translate(452,953)"/>
<path d="M0 0 C3.39 2.05 4.8 3.7 7 7 C7.67 13.9 7.67 13.9 5.25 17.88 C1.72 21.21 -0.92 22.26 -5.77 22.2 C-6.66 22.19 -7.54 22.18 -8.46 22.18 C-9.38 22.16 -10.3 22.14 -11.25 22.12 C-12.19 22.12 -13.12 22.11 -14.09 22.1 C-16.39 22.07 -18.7 22.04 -21 22 C-21 24.31 -21 26.62 -21 29 C-21.66 29 -22.32 29 -23 29 C-23.23 29.64 -23.45 30.28 -23.69 30.94 C-25 33 -25 33 -27.22 33.61 C-35.49 34.77 -43 35.03 -50 30 C-52 28.31 -52 28.31 -53 26 C-53.22 22.98 -53.17 20.02 -53 17 C-51.68 17 -50.36 17 -49 17 C-48.67 18.07 -48.34 19.14 -48 20.25 C-46.3 24.12 -44.24 25.73 -40.41 27.42 C-35.91 28.5 -31.51 27.76 -27 27 C-28.29 24.06 -28.71 23.16 -31.62 21.56 C-32.41 21.05 -33.19 20.53 -34 20 C-34 18.35 -34 16.7 -34 15 C-28.39 15.33 -22.78 15.66 -17 16 C-17.5 12.54 -17.5 12.54 -18 9 C-17.05 5.53 -15.82 3.25 -13 1 C-8.66 -0.45 -4.53 -0.54 0 0 Z " fill="#F9FCFE" transform="translate(541,1016)"/>
<path d="M0 0 C0.33 0.66 0.66 1.32 1 2 C44.22 2.02 87.44 2.04 130.66 2.05 C135.77 2.05 140.89 2.05 146.01 2.05 C147.03 2.06 148.04 2.06 149.09 2.06 C165.53 2.06 181.96 2.07 198.4 2.08 C215.3 2.09 232.19 2.09 249.09 2.09 C259.49 2.1 269.9 2.1 280.3 2.11 C287.46 2.11 294.62 2.11 301.78 2.11 C305.89 2.11 310.01 2.11 314.12 2.12 C333.44 2.14 352.7 1.86 372 1 C372 1.66 372 2.32 372 3 C372.66 3 373.32 3 374 3 C374 3.66 374 4.32 374 5 C249.92 5 125.84 5 -2 5 C-2.33 4.01 -2.66 3.02 -3 2 C-2.01 1.34 -1.02 0.68 0 0 Z " fill="#002163" transform="translate(444,502)"/>
<path d="M0 0 C2.75 2.65 2.39 5.85 2.62 9.56 C5.12 10.25 7 10.56 9.62 10.56 C10.29 7.26 10.94 3.96 11.62 0.56 C15.42 -0.7 17 0.07 20.62 1.56 C22.03 4.37 21.75 6.71 21.76 9.85 C21.76 11.1 21.76 12.35 21.76 13.64 C21.76 14.96 21.75 16.27 21.75 17.62 C21.76 19.6 21.76 19.6 21.76 21.62 C21.76 22.87 21.76 24.12 21.76 25.41 C21.76 26.57 21.76 27.72 21.75 28.91 C21.62 31.56 21.62 31.56 20.62 32.56 C14.89 32.84 14.89 32.84 12.62 32.56 C10.13 30.07 10.27 28.89 10 25.44 C9.93 24.53 9.85 23.62 9.77 22.68 C9.72 21.98 9.68 21.28 9.62 20.56 C7.31 20.23 5 19.9 2.62 19.56 C2.3 23.85 1.96 28.14 1.62 32.56 C0.02 32.62 -1.59 32.69 -3.25 32.75 C-4.15 32.78 -5.06 32.82 -5.99 32.86 C-7.17 32.71 -7.17 32.71 -8.38 32.56 C-10.83 28.88 -10.54 27.29 -10.35 22.93 C-10.3 21.63 -10.25 20.33 -10.2 18.99 C-10.13 17.62 -10.07 16.25 -10 14.88 C-9.94 13.49 -9.88 12.11 -9.83 10.72 C-9.69 7.34 -9.54 3.95 -9.38 0.56 C-2.67 -0.49 -2.67 -0.49 0 0 Z " fill="#F9FCFE" transform="translate(282.375,953.4375)"/>
<path d="M0 0 C1.21 0.01 1.21 0.01 2.45 0.03 C3.37 0.04 3.37 0.04 4.31 0.06 C8.04 6.58 10.68 13.45 13.19 20.5 C13.51 21.39 13.83 22.28 14.16 23.19 C14.46 24.04 14.75 24.88 15.05 25.75 C15.32 26.5 15.59 27.26 15.86 28.04 C16.31 30.06 16.31 30.06 15.31 33.06 C8.89 33.51 6.73 32.67 1.31 29.06 C-1.45 28.72 -3.89 28.87 -6.69 29.06 C-7.02 30.38 -7.35 31.7 -7.69 33.06 C-8.93 33.1 -10.16 33.14 -11.44 33.19 C-12.13 33.21 -12.83 33.23 -13.55 33.26 C-15.99 33.03 -17.57 32.27 -19.69 31.06 C-11.21 8.11 -11.21 8.11 -7.69 1.06 C-4.81 0.1 -2.99 -0.04 0 0 Z " fill="#F5F9FC" transform="translate(364.6875,952.9375)"/>
<path d="M0 0 C0.87 0.01 1.73 0.02 2.62 0.03 C3.92 0.02 3.92 0.02 5.25 0 C7.62 0.53 7.62 0.53 9.25 2.09 C11.05 5.28 12.33 8.6 13.56 12.03 C13.82 12.73 14.08 13.44 14.34 14.16 C16.56 20.24 18.64 26.37 20.62 32.53 C19.07 34.09 17.54 33.78 15.38 33.84 C10.76 33.82 9.18 32.45 5.62 29.53 C2.87 29.18 0.42 29.34 -2.38 29.53 C-3.03 30.85 -3.69 32.17 -4.38 33.53 C-7.34 33.53 -10.31 33.53 -13.38 33.53 C-14.48 29.1 -14.12 27.97 -12.61 23.81 C-12.21 22.72 -11.82 21.62 -11.41 20.49 C-10.99 19.35 -10.56 18.21 -10.12 17.03 C-9.72 15.89 -9.31 14.75 -8.89 13.57 C-4.28 0.96 -4.28 0.96 0 0 Z " fill="#F5F9FC" transform="translate(247.375,952.46875)"/>
<path d="M0 0 C1.16 1.73 1.16 1.73 0.85 5.41 C0.62 6.51 0.4 7.6 0.16 8.73 C-0.83 9.06 -1.82 9.39 -2.84 9.73 C-1.85 10.39 -0.86 11.05 0.16 11.73 C0.35 15.35 0.35 15.35 0.16 18.73 C-3.8 19.06 -7.76 19.39 -11.84 19.73 C-10.84 20.95 -10.84 20.95 -8.84 20.79 C-7.22 20.75 -5.59 20.71 -3.97 20.66 C-1.84 20.73 -1.84 20.73 0.16 21.73 C1.45 28.15 1.45 28.15 0.16 30.73 C-3.67 32 -7.29 31.91 -11.28 31.91 C-12.04 31.93 -12.8 31.94 -13.59 31.95 C-14.33 31.95 -15.07 31.95 -15.83 31.96 C-16.84 31.96 -16.84 31.96 -17.87 31.97 C-19.84 31.73 -19.84 31.73 -23.84 29.73 C-23.84 19.83 -23.84 9.93 -23.84 -0.27 C-18.49 -0.61 -18.49 -0.61 -13.03 -0.96 C-11.34 -1.08 -11.34 -1.08 -9.63 -1.2 C-8.74 -1.25 -7.86 -1.3 -6.94 -1.35 C-6.04 -1.41 -5.13 -1.46 -4.2 -1.52 C-1.84 -1.27 -1.84 -1.27 0 0 Z " fill="#F8FBFE" transform="translate(852.838623046875,954.274169921875)"/>
<path d="M0 0 C2.37 1.61 2.84 3.47 3.68 6.14 C2.85 6.62 2.03 7.09 1.18 7.58 C0.35 8.09 -0.47 8.61 -1.32 9.14 C-1.32 9.47 -1.32 9.8 -1.32 10.14 C-0.66 10.76 -0 11.38 0.68 12.02 C2.68 14.14 2.68 14.14 2.68 17.14 C3.34 17.14 4 17.14 4.68 17.14 C4.49 26.24 4.49 26.24 1.37 29.7 C-3.38 32.24 -7.95 32.95 -13.32 32.14 C-17.43 30.7 -21.38 28.98 -25.32 27.14 C-24.99 26.48 -24.66 25.82 -24.32 25.14 C-23.66 25.14 -23 25.14 -22.32 25.14 C-22.22 24.5 -22.11 23.86 -22.01 23.2 C-21.78 22.52 -21.55 21.84 -21.32 21.14 C-17.77 19.96 -16.62 20.45 -13.13 21.58 C-11.78 22.01 -11.78 22.01 -10.4 22.45 C-9.72 22.68 -9.03 22.91 -8.32 23.14 C-10.52 20.61 -12.03 19.74 -15.32 19.14 C-17.68 18.6 -19.21 18.21 -21.26 16.89 C-23.45 13.29 -23.49 10.09 -22.76 6.02 C-21.36 3.21 -20.15 1.45 -17.43 -0.17 C-12.12 -1.9 -5.24 -1.94 0 0 Z " fill="#F4F8FB" transform="translate(626.3203125,953.859375)"/>
<path d="M0 0 C0 0.66 0 1.32 0 2 C0.66 2 1.32 2 2 2 C0.88 4.97 -0.22 7.33 -2 10 C-1.2 10.87 -0.39 11.73 0.44 12.62 C2.96 15.7 4.09 17.9 4 22 C1.79 26.34 -0.42 29.21 -5 31 C-11.39 31.78 -16.37 31.1 -22 28 C-23.94 26.31 -23.94 26.31 -25 25 C-24.5 23.51 -24.5 23.51 -24 22 C-23.34 22 -22.68 22 -22 22 C-21.34 20.68 -20.68 19.36 -20 18 C-20 18.66 -20 19.32 -20 20 C-19.28 19.96 -18.56 19.92 -17.81 19.88 C-14.79 20.01 -12.73 20.75 -10 22 C-10.99 21.67 -11.98 21.34 -13 21 C-13 20.34 -13 19.68 -13 19 C-13.89 19.12 -14.77 19.25 -15.69 19.38 C-19 19 -19 19 -21.88 16.5 C-24.72 12.6 -24.67 9.72 -24 5 C-22.09 1.62 -20.7 0.32 -17.19 -1.31 C-10.91 -2.67 -5.98 -1.95 0 0 Z " fill="#F6FAFD" transform="translate(957,955)"/>
<path d="M0 0 C2 2 2 2 2.12 5.62 C2.08 6.74 2.04 7.85 2 9 C0.35 9 -1.3 9 -3 9 C-3 9.66 -3 10.32 -3 11 C-4.32 11 -5.64 11 -7 11 C-7 10.34 -7 9.68 -7 9 C-7.99 9.66 -8.98 10.32 -10 11 C-9.22 11.06 -8.44 11.12 -7.63 11.18 C-6.62 11.27 -5.61 11.35 -4.56 11.44 C-3.05 11.56 -3.05 11.56 -1.5 11.68 C1 12 1 12 2 13 C2.14 15.67 2.04 18.32 2 21 C-3.94 20.01 -3.94 20.01 -10 19 C-9.34 20.32 -8.68 21.64 -8 23 C-8 22.67 -8 22.34 -8 22 C-0.25 21.88 -0.25 21.88 2 23 C2 26.3 2 29.6 2 33 C-1.63 33.05 -5.25 33.09 -8.88 33.12 C-9.91 33.14 -10.94 33.16 -12 33.18 C-13.48 33.19 -13.48 33.19 -14.99 33.2 C-16.36 33.21 -16.36 33.21 -17.75 33.23 C-20 33 -20 33 -22 31 C-22.23 28.02 -22.23 28.02 -22.2 24.24 C-22.19 23.58 -22.19 22.92 -22.19 22.23 C-22.18 20.11 -22.15 17.99 -22.12 15.88 C-22.11 14.44 -22.11 13 -22.1 11.57 C-22.08 8.04 -22.04 4.52 -22 1 C-20.12 0.84 -18.23 0.67 -16.35 0.51 C-15.3 0.42 -14.25 0.33 -13.17 0.24 C-3.89 -0.46 -3.89 -0.46 0 0 Z " fill="#F8FBFE" transform="translate(559,953)"/>
<path d="M0 0 C0.09 3.37 0.14 6.75 0.19 10.12 C0.21 11.08 0.24 12.03 0.26 13.01 C0.32 18.43 0.16 22.37 -3 27 C-7.58 30.48 -11.05 31.61 -16.8 31.32 C-23 30.42 -26.95 27.64 -31 23 C-32.19 20.62 -32.13 19.15 -32.13 16.5 C-32.13 15.61 -32.14 14.73 -32.14 13.81 C-32.13 12.88 -32.13 11.96 -32.12 11 C-32.13 10.07 -32.13 9.14 -32.14 8.19 C-32.14 7.3 -32.13 6.41 -32.13 5.5 C-32.13 4.69 -32.13 3.87 -32.13 3.03 C-32 1 -32 1 -31 -1 C-24.85 -1.1 -24.85 -1.1 -23 -1 C-21.45 0.55 -21.78 2.1 -21.68 4.25 C-21.62 5.53 -21.62 5.53 -21.56 6.84 C-21.52 7.74 -21.48 8.64 -21.44 9.56 C-21.39 10.46 -21.35 11.37 -21.31 12.29 C-21.2 14.53 -21.1 16.76 -21 19 C-19.7 19.19 -18.4 19.37 -17.06 19.56 C-16.33 19.67 -15.6 19.77 -14.85 19.88 C-14.24 19.92 -13.63 19.96 -13 20 C-10.85 17.85 -11.62 13.07 -11.5 10.06 C-11.43 8.41 -11.36 6.75 -11.28 5.1 C-11.25 4.36 -11.22 3.62 -11.19 2.86 C-11 1 -11 1 -10 -1 C-5.81 -2.12 -3.74 -2.11 0 0 Z " fill="#F9FCFE" transform="translate(434,955)"/>
<path d="M0 0 C1.12 1.62 1.12 1.62 2 4 C1.31 7.19 1.31 7.19 0 10 C-0.99 10.33 -1.98 10.66 -3 11 C-2.01 11.66 -1.02 12.32 0 13 C0.19 16.62 0.19 16.62 0 20 C-3.63 20.33 -7.26 20.66 -11 21 C-11 21.66 -11 22.32 -11 23 C-7.37 23 -3.74 23 0 23 C0.66 25.31 1.32 27.62 2 30 C0.38 31.95 -0.51 32.91 -3.04 33.37 C-4.18 33.37 -4.18 33.37 -5.34 33.36 C-6.59 33.36 -6.59 33.36 -7.87 33.36 C-8.74 33.35 -9.61 33.33 -10.5 33.31 C-11.37 33.32 -12.24 33.32 -13.13 33.32 C-19.6 33.27 -19.6 33.27 -23 31 C-23.36 28.23 -23.36 28.23 -23.33 24.75 C-23.32 23.5 -23.32 22.25 -23.31 20.97 C-23.29 19.66 -23.27 18.35 -23.25 17 C-23.24 15.69 -23.24 14.38 -23.23 13.03 C-23.15 3.31 -23.15 3.31 -22 1 C-18.71 0.83 -15.42 0.67 -12.12 0.5 C-11.19 0.45 -10.25 0.4 -9.29 0.36 C-8.39 0.31 -7.49 0.27 -6.57 0.22 C-5.74 0.18 -4.92 0.13 -4.06 0.09 C-2.71 0.03 -1.35 0 0 0 Z " fill="#F6FAFD" transform="translate(1029,953)"/>
<path d="M0 0 C1.09 0.29 1.09 0.29 2.2 0.59 C2.75 0.75 3.3 0.9 3.88 1.06 C3.99 4.6 4.06 8.14 4.12 11.69 C4.18 13.19 4.18 13.19 4.23 14.71 C4.31 20.76 4.13 24.58 -0.12 29.06 C-1.12 29.06 -2.11 29.06 -3.12 29.06 C-3.12 29.72 -3.12 30.38 -3.12 31.06 C-7.92 33.46 -14.02 32.41 -18.94 30.88 C-22.61 28.79 -24.6 27.49 -27.12 24.06 C-27.75 19.94 -27.6 15.9 -27.44 11.75 C-27.41 10.63 -27.39 9.51 -27.37 8.35 C-27.31 5.59 -27.23 2.82 -27.12 0.06 C-19.38 -0.06 -19.38 -0.06 -17.12 1.06 C-17.12 7.33 -17.12 13.6 -17.12 20.06 C-14.15 20.39 -11.18 20.72 -8.12 21.06 C-6.98 18.77 -6.93 17.26 -6.81 14.71 C-6.77 13.86 -6.72 13.01 -6.68 12.13 C-6.64 11.24 -6.6 10.35 -6.56 9.44 C-6.52 8.54 -6.48 7.64 -6.43 6.72 C-6.33 4.5 -6.22 2.28 -6.12 0.06 C-3.58 -1.21 -2.7 -0.74 0 0 Z " fill="#F9FCFE" transform="translate(994.125,953.9375)"/>
<path d="M0 0 C0.99 0.49 0.99 0.49 2 1 C2 1.66 2 2.32 2 3 C6.95 3 11.9 3 17 3 C17.33 3.66 17.66 4.32 18 5 C14.44 7.2 11.54 7.26 7.4 7.27 C6.74 7.28 6.08 7.28 5.4 7.29 C3.18 7.31 0.97 7.31 -1.25 7.31 C-2.83 7.31 -4.42 7.32 -6.01 7.33 C-10.33 7.35 -14.64 7.36 -18.95 7.37 C-21.65 7.37 -24.34 7.38 -27.04 7.38 C-36.44 7.41 -45.84 7.42 -55.24 7.43 C-64.01 7.43 -72.77 7.46 -81.54 7.5 C-89.06 7.54 -96.58 7.55 -104.11 7.55 C-108.6 7.55 -113.1 7.56 -117.59 7.59 C-121.82 7.62 -126.04 7.62 -130.27 7.6 C-131.82 7.6 -133.37 7.61 -134.92 7.62 C-137.04 7.64 -139.16 7.63 -141.28 7.61 C-143.05 7.62 -143.05 7.62 -144.87 7.62 C-148.89 6.82 -150.4 5.08 -153 2 C-149.99 2 -146.99 2.02 -143.98 2.04 C-142.72 2.05 -141.47 2.05 -140.17 2.06 C-138.77 2.07 -137.38 2.08 -135.98 2.09 C-134.51 2.1 -133.04 2.11 -131.58 2.12 C-127.59 2.15 -123.6 2.18 -119.61 2.2 C-115.44 2.23 -111.27 2.26 -107.1 2.29 C-99.21 2.34 -91.32 2.39 -83.42 2.45 C-74.44 2.51 -65.45 2.57 -56.46 2.63 C-37.97 2.75 -19.49 2.88 -1 3 C-0.67 2.01 -0.34 1.02 0 0 Z " fill="#012263" transform="translate(740,1036)"/>
<path d="M0 0 C0.99 0.49 0.99 0.49 2 1 C4.13 1.1 6.27 1.14 8.41 1.14 C9.07 1.15 9.74 1.15 10.42 1.16 C12.66 1.17 14.9 1.17 17.14 1.17 C18.74 1.18 20.34 1.19 21.95 1.19 C25.4 1.21 28.85 1.22 32.31 1.23 C37.76 1.25 43.22 1.27 48.68 1.29 C64.2 1.37 79.72 1.43 95.24 1.48 C103.81 1.51 112.38 1.54 120.95 1.58 C126.38 1.61 131.8 1.63 137.23 1.64 C140.61 1.65 143.98 1.67 147.35 1.69 C148.92 1.69 150.49 1.7 152.06 1.7 C154.19 1.7 156.33 1.71 158.46 1.73 C160.26 1.73 160.26 1.73 162.09 1.74 C165 2 165 2 168 4 C165.22 6.78 163.54 6.26 159.64 6.27 C158.65 6.27 158.65 6.27 157.63 6.28 C155.41 6.29 153.19 6.29 150.97 6.29 C149.38 6.3 147.79 6.3 146.2 6.31 C141.87 6.33 137.54 6.33 133.22 6.33 C129.61 6.34 126 6.34 122.39 6.35 C113.88 6.37 105.37 6.37 96.85 6.37 C88.07 6.37 79.28 6.39 70.49 6.42 C62.95 6.45 55.42 6.46 47.88 6.46 C43.37 6.46 38.87 6.46 34.36 6.48 C30.13 6.5 25.89 6.5 21.65 6.49 C20.1 6.49 18.54 6.49 16.98 6.5 C14.86 6.52 12.74 6.51 10.62 6.49 C9.43 6.5 8.24 6.5 7.02 6.5 C3.4 5.9 2.19 4.89 0 2 C0 1.34 0 0.68 0 0 Z " fill="#002163" transform="translate(839,1037)"/>
<path d="M0 0 C2.37 4.96 4.43 9.46 5 15 C5.99 15.33 6.98 15.66 8 16 C9.65 11.05 11.3 6.1 13 1 C19.75 -0.12 19.75 -0.12 24 1 C23.45 7.9 20.97 13.95 18.5 20.38 C18.08 21.48 17.67 22.58 17.24 23.72 C14.15 31.85 14.15 31.85 13 33 C10.64 33.31 10.64 33.31 7.69 33.44 C6.72 33.5 5.76 33.56 4.76 33.62 C2 33 2 33 -0.09 30.7 C-2.86 25.9 -4.49 20.54 -6.25 15.31 C-6.61 14.27 -6.98 13.22 -7.35 12.15 C-10 4.42 -10 4.42 -10 1 C-3.38 0 -3.38 0 0 0 Z " fill="#F8FBFE" transform="translate(507,953)"/>
<path d="M0 0 C2 2 2 2 2.2 3.95 C2.13 5.96 2.07 7.98 2 10 C0.68 10.33 -0.64 10.66 -2 11 C-0.68 11.99 0.64 12.98 2 14 C1.67 16.31 1.34 18.62 1 21 C-3.29 21 -7.58 21 -12 21 C-12 24.63 -12 28.26 -12 32 C-18.05 32.98 -18.05 32.98 -20 33 C-22 31 -22 31 -22.24 28.13 C-22.24 26.93 -22.23 25.73 -22.23 24.5 C-22.23 23.2 -22.23 21.9 -22.22 20.56 C-22.22 19.89 -22.21 19.21 -22.21 18.51 C-22.19 16.44 -22.19 14.37 -22.19 12.3 C-22.14 2.14 -22.14 2.14 -21 1 C-14.22 -0.13 -6.84 -0.7 0 0 Z " fill="#F7FAFD" transform="translate(1060,953)"/>
<path d="M0 0 C9.06 0.19 9.06 0.19 13 3.56 C13.99 4.77 13.99 4.77 15 6 C15.66 6 16.32 6 17 6 C17.35 5.2 17.7 4.39 18.06 3.56 C20 1 20 1 22.12 0.41 C28.36 -0.32 28.36 -0.32 31 1 C30.26 4.58 28.73 7.08 26.71 10.13 C21.96 17.35 20.03 22.21 21 31 C19.11 32.89 16.43 32.18 13.91 32.23 C12 32 12 32 10 30 C10.06 28.85 10.12 27.69 10.19 26.5 C10.37 19.49 6.3 13.6 2.19 8.19 C-0.13 4.81 -0.23 3.89 0 0 Z " fill="#F8FBFE" transform="translate(666,953)"/>
<path d="M0 0 C2 2 2 2 2.25 4.78 C2.25 5.97 2.25 7.17 2.25 8.39 C2.25 9.06 2.25 9.72 2.25 10.41 C2.26 12.64 2.25 14.88 2.24 17.11 C2.24 18.71 2.25 20.31 2.25 21.9 C2.25 26.25 2.25 30.6 2.24 34.95 C2.23 39.5 2.23 44.05 2.23 48.59 C2.23 56.24 2.22 63.88 2.21 71.52 C2.19 80.35 2.18 89.19 2.19 98.02 C2.19 106.51 2.18 115.01 2.17 123.5 C2.17 127.11 2.17 130.73 2.17 134.35 C2.17 138.61 2.16 142.87 2.15 147.13 C2.15 148.69 2.15 150.26 2.15 151.82 C2.15 153.95 2.14 156.09 2.13 158.22 C2.13 159.42 2.13 160.61 2.13 161.84 C2.01 164.69 1.65 167.24 1 170 C0.67 170 0.34 170 0 170 C-0.76 165.29 -1.13 160.78 -1.13 156.01 C-1.13 155.35 -1.13 154.68 -1.13 153.99 C-1.14 151.78 -1.13 149.56 -1.13 147.35 C-1.13 145.75 -1.13 144.16 -1.13 142.56 C-1.14 138.25 -1.14 133.93 -1.13 129.61 C-1.13 125.09 -1.13 120.57 -1.14 116.06 C-1.14 108.47 -1.14 100.89 -1.13 93.31 C-1.12 84.54 -1.13 75.76 -1.13 66.99 C-1.14 59.46 -1.14 51.92 -1.13 44.39 C-1.13 39.89 -1.13 35.39 -1.14 30.89 C-1.14 26.67 -1.14 22.45 -1.13 18.22 C-1.13 16.67 -1.13 15.11 -1.13 13.56 C-1.14 11.45 -1.13 9.34 -1.13 7.22 C-1.13 6.04 -1.13 4.85 -1.13 3.63 C-1 1 -1 1 0 0 Z " fill="#002163" transform="translate(1067,397)"/>
<path d="M0 0 C8.25 0 16.5 0 25 0 C26.88 3.77 27.22 5.03 27 9 C24.03 9 21.06 9 18 9 C18 16.59 18 24.18 18 32 C15.03 32 12.06 32 9 32 C7.42 30.42 7.78 28.72 7.68 26.53 C7.64 25.63 7.6 24.73 7.56 23.8 C7.52 22.86 7.48 21.91 7.44 20.94 C7.39 19.99 7.35 19.04 7.31 18.06 C7.2 15.71 7.1 13.35 7 11 C4.36 10.01 1.72 9.02 -1 8 C-0.67 5.36 -0.34 2.72 0 0 Z " fill="#F8FBFE" transform="translate(635,953)"/>
<path d="M0 0 C2.39 3.58 2.25 5.14 2.25 9.39 C2.26 10.04 2.26 10.69 2.26 11.36 C2.27 13.55 2.27 15.74 2.26 17.93 C2.26 19.49 2.27 21.06 2.27 22.63 C2.28 26.89 2.27 31.16 2.27 35.42 C2.26 39.9 2.27 44.38 2.27 48.85 C2.28 56.38 2.27 63.92 2.26 71.45 C2.25 80.12 2.25 88.79 2.26 97.46 C2.27 104.92 2.27 112.38 2.27 119.85 C2.27 124.29 2.27 128.74 2.27 133.19 C2.28 137.39 2.27 141.58 2.26 145.78 C2.26 147.31 2.26 148.83 2.27 150.36 C2.29 161.36 1.4 172.09 0 183 C-0.33 183 -0.66 183 -1 183 C-1.02 159.44 -1.04 135.87 -1.05 112.31 C-1.06 101.36 -1.06 90.42 -1.08 79.48 C-1.09 69.95 -1.09 60.42 -1.09 50.88 C-1.1 45.83 -1.1 40.78 -1.11 35.73 C-1.11 30.98 -1.11 26.23 -1.11 21.48 C-1.11 19.74 -1.12 17.99 -1.12 16.24 C-1.12 13.87 -1.12 11.49 -1.12 9.11 C-1.12 8.41 -1.13 7.72 -1.13 7 C-1.11 2.23 -1.11 2.23 0 0 Z " fill="#092E6D" transform="translate(773,621)"/>
<path d="M0 0 C7.75 -0.12 7.75 -0.12 10 1 C10.02 5.82 10.04 10.65 10.05 15.47 C10.06 17.11 10.07 18.76 10.08 20.4 C10.09 22.75 10.09 25.11 10.1 27.46 C10.1 28.2 10.11 28.94 10.11 29.7 C10.11 31.47 10.06 33.23 10 35 C9 36 9 36 7.15 36.1 C5.1 36.07 3.05 36.03 1 36 C-0.53 32.93 -0.12 29.73 -0.1 26.37 C-0.1 25.62 -0.09 24.86 -0.09 24.09 C-0.09 21.68 -0.08 19.28 -0.06 16.88 C-0.06 15.25 -0.05 13.62 -0.05 11.99 C-0.04 7.99 -0.02 4 0 0 Z " fill="#FAFDFF" transform="translate(790,1003)"/>
<path d="M0 0 C0.99 0.33 1.98 0.66 3 1 C3.33 34 3.66 67 4 101 C4.66 101.33 5.32 101.66 6 102 C5.01 103.65 4.02 105.3 3 107 C2.01 106.67 1.02 106.34 0 106 C0 71.02 0 36.04 0 0 Z " fill="#002163" transform="translate(364,397)"/>
<path d="M0 0 C7.75 -0.12 7.75 -0.12 10 1 C10.02 5.25 10.04 9.51 10.05 13.76 C10.06 15.21 10.07 16.66 10.08 18.11 C10.09 20.18 10.09 22.26 10.1 24.34 C10.1 25.59 10.11 26.84 10.11 28.13 C10 31 10 31 9 32 C5.56 32.19 5.56 32.19 2 32 C0 30 0 30 -0.23 27.02 C-0.22 25.77 -0.21 24.53 -0.2 23.24 C-0.19 22.58 -0.19 21.92 -0.19 21.23 C-0.18 19.11 -0.15 16.99 -0.12 14.88 C-0.11 13.44 -0.11 12 -0.1 10.57 C-0.08 7.04 -0.04 3.52 0 0 Z " fill="#FAFDFF" transform="translate(719,954)"/>
<path d="M0 0 C6.75 -0.12 6.75 -0.12 9 1 C9.02 5.25 9.04 9.51 9.05 13.76 C9.06 15.21 9.07 16.66 9.08 18.11 C9.09 20.18 9.09 22.26 9.1 24.34 C9.1 25.59 9.11 26.84 9.11 28.13 C9 31 9 31 8 32 C3.97 32.26 2.44 32.29 -1 30 C-1.36 27.34 -1.36 27.34 -1.33 24 C-1.32 22.81 -1.32 21.61 -1.31 20.37 C-1.29 19.12 -1.27 17.86 -1.25 16.56 C-1.24 15.31 -1.24 14.06 -1.23 12.76 C-1.15 3.46 -1.15 3.46 0 0 Z " fill="#FAFDFF" transform="translate(482,954)"/>
<path d="M0 0 C7 0 7 0 9 1 C9 10.9 9 20.8 9 31 C6.03 31 3.06 31 0 31 C0 20.77 0 10.54 0 0 Z " fill="#F9FCFE" transform="translate(901,954)"/>
<path d="M0 0 C8.42 -0.02 16.85 -0.04 25.27 -0.05 C29.18 -0.06 33.09 -0.06 37 -0.08 C40.78 -0.09 44.55 -0.09 48.32 -0.09 C49.76 -0.1 51.2 -0.1 52.65 -0.11 C54.66 -0.11 56.68 -0.11 58.69 -0.11 C60.41 -0.12 60.41 -0.12 62.17 -0.12 C65 0 65 0 68 1 C68 1.66 68 2.32 68 3 C64.5 4.07 61.23 4.16 57.58 4.21 C56.28 4.23 54.98 4.25 53.64 4.27 C52.22 4.28 50.81 4.3 49.39 4.32 C47.94 4.34 46.49 4.36 45.04 4.38 C41.22 4.43 37.41 4.48 33.59 4.53 C29.7 4.58 25.8 4.64 21.91 4.69 C14.27 4.8 6.64 4.9 -1 5 C-0.67 3.35 -0.34 1.7 0 0 Z " fill="#002163" transform="translate(290,1039)"/>
<path d="M0 0 C7.64 -0.08 15.27 -0.13 22.91 -0.16 C25.51 -0.18 28.1 -0.2 30.7 -0.23 C34.43 -0.26 38.16 -0.28 41.89 -0.29 C43.06 -0.31 44.23 -0.32 45.43 -0.34 C47.05 -0.34 47.05 -0.34 48.7 -0.34 C49.66 -0.35 50.61 -0.35 51.59 -0.36 C54.4 0.06 55.27 0.81 57 3 C51.98 3.63 47.07 4.13 42 4 C41.34 5.98 40.68 7.96 40 10 C39.34 9.67 38.68 9.34 38 9 C38 7.35 38 5.7 38 4 C26.12 4 14.24 4 2 4 C1.34 2.68 0.68 1.36 0 0 Z " fill="#012263" transform="translate(206,1039)"/>
<path d="M0 0 C2.44 0.75 2.44 0.75 5 2 C7.92 9.73 5.99 19.99 5 28 C4.01 28.33 3.02 28.66 2 29 C-0.14 25.79 -0.44 23.75 -1 20 C-1.33 19.34 -1.66 18.68 -2 18 C-3.64 18.25 -3.64 18.25 -5.31 18.5 C-9 19 -9 19 -12 19 C-12 17.68 -12 16.36 -12 15 C-10.54 14.97 -9.08 14.95 -7.62 14.94 C-6.81 14.93 -6 14.91 -5.16 14.9 C-3 15 -3 15 -1 16 C-1 13.69 -1 11.38 -1 9 C-2.17 8.93 -2.17 8.93 -3.37 8.85 C-4.38 8.78 -5.39 8.7 -6.44 8.62 C-7.45 8.56 -8.46 8.49 -9.5 8.41 C-10.32 8.28 -11.15 8.14 -12 8 C-12.33 7.34 -12.66 6.68 -13 6 C-11.68 5.67 -10.36 5.34 -9 5 C-9 5.66 -9 6.32 -9 7 C-7.68 7 -6.36 7 -5 7 C-5 6.34 -5 5.68 -5 5 C-3.35 5 -1.7 5 0 5 C0 3.35 0 1.7 0 0 Z " fill="#012264" transform="translate(561,957)"/>
<path d="M0 0 C0.99 0.33 1.98 0.66 3 1 C3 1.66 3 2.32 3 3 C3.64 3.21 4.28 3.41 4.94 3.62 C7 5 7 5 7.88 8 C7.92 8.99 7.96 9.98 8 11 C6 13 6 13 4.12 13.23 C3.38 13.22 2.63 13.21 1.87 13.2 C0.66 13.19 0.66 13.19 -0.57 13.18 C-1.42 13.16 -2.26 13.14 -3.12 13.12 C-4.4 13.11 -4.4 13.11 -5.7 13.1 C-7.8 13.07 -9.9 13.04 -12 13 C-12 9 -12 9 -9.88 6.44 C-7.03 4.03 -4.38 2.54 -1 1 C-0.67 0.67 -0.34 0.34 0 0 Z " fill="#1A437D" transform="translate(681,1019)"/>
<path d="M0 0 C6.64 0.09 13.28 0.2 19.92 0.32 C22.17 0.36 24.43 0.39 26.69 0.42 C29.94 0.47 33.18 0.53 36.43 0.59 C37.94 0.6 37.94 0.6 39.49 0.62 C40.43 0.64 41.38 0.66 42.34 0.68 C43.59 0.7 43.59 0.7 44.85 0.72 C47 1 47 1 50 3 C45.38 7.62 27.88 5.22 21.08 5.24 C18.84 5.25 16.6 5.28 14.36 5.31 C12.92 5.32 11.49 5.32 10.05 5.33 C8.77 5.34 7.49 5.35 6.16 5.36 C3 5 3 5 1.06 3.6 C0 2 0 2 0 0 Z " fill="#002163" transform="translate(1021,1038)"/>
<path d="M0 0 C2.48 0.5 2.48 0.5 5 1 C5.33 10.57 5.66 20.14 6 30 C8.31 30 10.62 30 13 30 C13.99 30.33 14.98 30.66 16 31 C16 31.66 16 32.32 16 33 C14.21 33.08 12.42 33.14 10.62 33.19 C9.13 33.24 9.13 33.24 7.6 33.29 C6.74 33.2 5.88 33.1 5 33 C4.34 32.01 3.68 31.02 3 30 C2.01 29.34 1.02 28.68 0 28 C-0.34 25.2 -0.34 25.2 -0.29 21.68 C-0.28 20.42 -0.27 19.17 -0.26 17.87 C-0.24 16.55 -0.21 15.23 -0.19 13.88 C-0.17 12.54 -0.16 11.2 -0.15 9.86 C-0.11 6.57 -0.06 3.29 0 0 Z " fill="#002163" transform="translate(733,956)"/>
<path d="M0 0 C0.66 0 1.32 0 2 0 C2.66 0.66 3.32 1.32 4 2 C4.66 2 5.32 2 6 2 C6 11.57 6 21.14 6 31 C4.68 31.33 3.36 31.66 2 32 C0.55 29.1 0.78 26.48 0.68 23.24 C0.66 22.58 0.64 21.92 0.62 21.23 C0.56 19.11 0.5 16.99 0.44 14.88 C0.39 13.44 0.35 12 0.31 10.57 C0.2 7.04 0.1 3.52 0 0 Z " fill="#002163" transform="translate(891,954)"/>
<path d="M0 0 C2.48 0.5 2.48 0.5 5 1 C5 9.91 5 18.82 5 28 C3.68 28.33 2.36 28.66 1 29 C-0.38 26.23 -0.11 23.99 -0.1 20.9 C-0.09 19.69 -0.09 18.48 -0.09 17.23 C-0.08 15.96 -0.07 14.68 -0.06 13.38 C-0.06 12.1 -0.05 10.82 -0.05 9.5 C-0.04 6.33 -0.02 3.17 0 0 Z " fill="#002163" transform="translate(304,957)"/>
<path d="M0 0 C0.99 0.5 0.99 0.5 2 1 C3.57 1.07 5.15 1.08 6.72 1.06 C7.65 1.05 8.58 1.05 9.54 1.04 C10.52 1.03 11.49 1.01 12.5 1 C14.43 0.97 16.35 0.95 18.28 0.94 C19.14 0.93 19.99 0.91 20.88 0.9 C23 1 23 1 25 2 C24.69 3.94 24.69 3.94 24 6 C20.17 7.28 16.55 7.18 12.56 7.19 C11.8 7.2 11.03 7.21 10.25 7.22 C3.32 7.24 3.32 7.24 0 5 C0 3.35 0 1.7 0 0 Z " fill="#FAFDFF" transform="translate(829,979)"/>
<path d="M0 0 C3.3 0 6.6 0 10 0 C10 0.66 10 1.32 10 2 C10.99 1.67 11.98 1.34 13 1 C13 11.23 13 21.46 13 32 C11.68 31.34 10.36 30.68 9 30 C9 20.76 9 11.52 9 2 C6.03 1.67 3.06 1.34 0 1 C0 0.67 0 0.34 0 0 Z " fill="#516E99" transform="translate(720,953)"/>
<path d="M0 0 C1.79 2.18 1.96 3.74 2.38 6.5 C2 9 2 9 0.31 11.31 C-2 13 -2 13 -4.62 13.38 C-7 13 -7 13 -9 11 C-9.2 8.4 -9.2 8.4 -9.12 5.38 C-9.11 4.37 -9.09 3.37 -9.07 2.34 C-9.05 1.57 -9.02 0.79 -9 0 C-5.82 -1.59 -3.38 -0.78 0 0 Z " fill="#163D79" transform="translate(331,963)"/>
<path d="M0 0 C0.33 0.66 0.66 1.32 1 2 C1.73 1.97 2.46 1.94 3.21 1.91 C19.48 1.24 35.71 0.84 52 1 C52 1.99 52 2.98 52 4 C35.17 4 18.34 4 1 4 C0.67 2.68 0.34 1.36 0 0 Z " fill="#002163" transform="translate(954,503)"/>
<path d="M0 0 C0.33 0.66 0.66 1.32 1 2 C1.73 1.97 2.46 1.94 3.21 1.91 C19.48 1.24 35.71 0.84 52 1 C52 1.99 52 2.98 52 4 C35.17 4 18.34 4 1 4 C0.67 2.68 0.34 1.36 0 0 Z " fill="#002163" transform="translate(252,503)"/>
<path d="M0 0 C1.11 -0.02 1.11 -0.02 2.25 -0.04 C4.19 -0.04 6.13 0.07 8.06 0.19 C8.72 0.85 9.38 1.51 10.06 2.19 C9.73 3.51 9.4 4.83 9.06 6.19 C4.77 6.19 0.48 6.19 -3.94 6.19 C-4.27 6.85 -4.6 7.51 -4.94 8.19 C-7.41 6.04 -8.5 4.47 -8.94 1.19 C-6.89 -0.86 -2.8 0 0 0 Z " fill="#EEF3F8" transform="translate(827.9375,1002.8125)"/>
<path d="M0 0 C2.46 -0.05 4.92 -0.09 7.38 -0.12 C8.42 -0.15 8.42 -0.15 9.49 -0.18 C11.33 -0.19 13.17 -0.1 15 0 C15.66 0.66 16.32 1.32 17 2 C16.67 3.32 16.34 4.64 16 6 C12.37 6 8.74 6 5 6 C5 6.66 5 7.32 5 8 C2.13 7.43 1.14 7.14 -1 5 C-0.62 2.38 -0.62 2.38 0 0 Z " fill="#F1F5FA" transform="translate(571,1003)"/>
<path d="M0 0 C0.99 0 1.98 0 3 0 C3.03 4.21 3.05 8.42 3.06 12.62 C3.07 13.81 3.08 15 3.09 16.23 C3.09 17.38 3.09 18.54 3.1 19.73 C3.1 20.78 3.11 21.84 3.11 22.93 C3 26.03 2.58 28.95 2 32 C1.34 32 0.68 32 0 32 C-1.23 28.31 -1.15 24.9 -1.12 21.06 C-1.12 20.31 -1.12 19.55 -1.12 18.78 C-1.07 12.49 -0.68 6.26 0 0 Z " fill="#516E99" transform="translate(310,954)"/>
<path d="M0 0 C1.39 0.08 1.39 0.08 2.8 0.15 C3.76 0.22 4.73 0.29 5.72 0.36 C6.68 0.41 7.64 0.47 8.64 0.52 C15.72 0.94 15.72 0.94 19.22 2.11 C19.22 2.77 19.22 3.43 19.22 4.11 C14.92 5.54 10.79 5.29 6.28 5.3 C5.37 5.31 4.47 5.32 3.53 5.33 C2.66 5.34 1.78 5.34 0.88 5.34 C-0.32 5.35 -0.32 5.35 -1.54 5.35 C-4.01 5.08 -5.64 4.34 -7.78 3.11 C-5.33 0.06 -3.85 -0.23 0 0 Z " fill="#002163" transform="translate(767.78125,1037.890625)"/>
<path d="M0 0 C0.66 0.33 1.32 0.66 2 1 C2 10.9 2 20.8 2 31 C1.01 31.33 0.02 31.66 -1 32 C-2.25 25.5 -1.94 19.22 -1.62 12.62 C-1.58 11.52 -1.54 10.42 -1.49 9.28 C-1.13 1.13 -1.13 1.13 0 0 Z " fill="#6A84AA" transform="translate(899,953)"/>
<path d="M0 0 C6.72 0.72 6.72 0.72 8 2 C8.07 4.02 8.08 6.04 8.06 8.06 C8.05 9.17 8.04 10.27 8.04 11.41 C8.02 12.26 8.01 13.12 8 14 C7.01 13.34 6.02 12.68 5 12 C4.71 9.62 4.71 9.62 4.81 6.88 C4.85 5.51 4.85 5.51 4.89 4.12 C4.93 3.42 4.96 2.72 5 2 C4.01 2.5 4.01 2.5 3 3 C3.1 3.63 3.19 4.25 3.29 4.9 C3.4 5.72 3.51 6.53 3.62 7.38 C3.74 8.19 3.86 9 3.98 9.84 C3.98 10.55 3.99 11.26 4 12 C3.34 12.66 2.68 13.32 2 14 C1.34 14 0.68 14 0 14 C-1.31 11.38 -1.13 9.36 -1.12 6.44 C-1.13 5.45 -1.13 4.45 -1.13 3.43 C-1 1 -1 1 0 0 Z " fill="#032365" transform="translate(285,972)"/>
<path d="M0 0 C2 0.81 2 0.81 3.31 2.5 C4.21 5.53 3.69 7.76 3 10.81 C0.75 11.56 0.75 11.56 -2 11.81 C-4.31 9.88 -4.31 9.88 -6 7.81 C-5.4 5.46 -4.73 3.13 -4 0.81 C-2 -0.19 -2 -0.19 0 0 Z " fill="#17417C" transform="translate(1002,1019.1875)"/>
<path d="M0 0 C0.99 -0.01 1.98 -0.03 3 -0.04 C5.56 0.19 5.56 0.19 7.56 2.19 C7.19 4.81 7.19 4.81 6.56 7.19 C5.57 7.19 4.58 7.19 3.56 7.19 C2.9 6.53 2.24 5.87 1.56 5.19 C1.23 5.85 0.9 6.51 0.56 7.19 C-2.31 7.31 -2.31 7.31 -5.44 7.19 C-6.1 6.53 -6.76 5.87 -7.44 5.19 C-6.64 -0.09 -5.06 0.03 0 0 Z " fill="#F6F9FC" transform="translate(253.4375,1041.8125)"/>
<path d="M0 0 C0.99 0.33 1.98 0.66 3 1 C3 8.92 3 16.84 3 25 C2.01 24.67 1.02 24.34 0 24 C-0.94 15.83 -0.94 8.17 0 0 Z " fill="#58749E" transform="translate(440,954)"/>
<path d="M0 0 C1.16 0 2.33 0.01 3.53 0.01 C4.74 0.02 5.96 0.03 7.21 0.04 C8.43 0.04 9.66 0.04 10.92 0.05 C13.96 0.06 16.99 0.08 20.02 0.1 C20.02 0.76 20.02 1.42 20.02 2.1 C15.92 4.15 10.59 3.28 6.08 3.29 C4.97 3.3 3.86 3.31 2.72 3.32 C1.12 3.33 1.12 3.33 -0.51 3.33 C-1.48 3.33 -2.46 3.34 -3.47 3.34 C-5.98 3.1 -5.98 3.1 -8.98 1.1 C-5.74 0.02 -3.4 -0.02 0 0 Z " fill="#032566" transform="translate(636.98046875,841.90234375)"/>
<path d="M0 0 C0.99 0.33 1.98 0.66 3 1 C4.52 1.04 6.04 1.04 7.56 1 C11.78 0.89 11.78 0.89 14 2 C14 3.32 14 4.64 14 6 C6.41 6.33 -1.18 6.66 -9 7 C-9 6.34 -9 5.68 -9 5 C-5.7 4.67 -2.4 4.34 1 4 C0.67 2.68 0.34 1.36 0 0 Z " fill="#D6DEEB" transform="translate(839,974)"/>
<path d="M0 0 C1.47 2.85 0.74 4.9 0 7.94 C-3.38 8.06 -3.38 8.06 -7 7.94 C-9 5.94 -9 5.94 -9.12 2.81 C-9.08 1.86 -9.04 0.91 -9 -0.06 C-2.61 -1.39 -2.61 -1.39 0 0 Z " fill="#E3E9F2" transform="translate(764,1003.0625)"/>
<path d="M0 0 C3.38 -0.12 3.38 -0.12 7 0 C9 2 9 2 9.44 4.44 C9 7 9 7 6.5 8.81 C5.67 9.2 4.85 9.6 4 10 C2 8.94 2 8.94 0 7 C-0.25 3.31 -0.25 3.31 0 0 Z " fill="#23467E" transform="translate(963,1021)"/>
<path d="M0 0 C0.62 2.81 0.62 2.81 1 6 C0.01 7.48 0.01 7.48 -1 9 C-5.75 8.25 -5.75 8.25 -8 6 C-7.75 2.94 -7.75 2.94 -7 0 C-4.33 -1.33 -2.83 -0.67 0 0 Z " fill="#123370" transform="translate(539,1023)"/>
<path d="M0 0 C8.25 0 16.5 0 25 0 C25 0.99 25 1.98 25 3 C21.4 3.09 17.79 3.14 14.19 3.19 C12.65 3.23 12.65 3.23 11.08 3.26 C9.61 3.28 9.61 3.28 8.11 3.29 C7.2 3.31 6.29 3.32 5.36 3.34 C3 3 3 3 0 0 Z " fill="#D0D9E8" transform="translate(635,953)"/>
<path d="M0 0 C0.92 -0.01 1.85 -0.02 2.8 -0.04 C4.13 -0.04 4.13 -0.04 5.49 -0.04 C6.31 -0.05 7.12 -0.05 7.96 -0.06 C10.12 0.19 10.12 0.19 13.12 2.19 C10.77 4.55 4.86 3.37 1.69 3.38 C0.71 3.39 -0.27 3.4 -1.28 3.41 C-2.22 3.41 -3.16 3.42 -4.12 3.42 C-4.98 3.42 -5.85 3.43 -6.74 3.43 C-8.88 3.19 -8.88 3.19 -10.88 1.19 C-8.58 -1.11 -3.08 0 0 0 Z " fill="#002163" transform="translate(548.875,985.8125)"/>
<path d="M0 0 C0.33 0.66 0.66 1.32 1 2 C2.64 2.72 4.31 3.39 6 4 C5.67 7.3 5.34 10.6 5 14 C3.68 14 2.36 14 1 14 C-0.38 11.24 -0.1 8.95 -0.06 5.88 C-0.05 4.78 -0.04 3.68 -0.04 2.55 C-0.02 1.71 -0.01 0.87 0 0 Z " fill="#012364" transform="translate(434,957)"/>
<path d="M0 0 C1.03 0.01 1.03 0.01 2.07 0.01 C3.08 0.01 3.08 0.01 4.1 0 C7.8 0.01 11.23 0.26 14.82 1.14 C11.93 4.03 8.78 3.71 4.89 3.95 C3.79 4.04 3.79 4.04 2.68 4.14 C-2.7 4.49 -2.7 4.49 -5.18 2.65 C-5.67 1.9 -5.67 1.9 -6.18 1.14 C-4.46 -0.58 -2.29 0 0 0 Z " fill="#002163" transform="translate(801.17578125,985.86328125)"/>
<path d="M0 0 C0 0.66 0 1.32 0 2 C0.66 2 1.32 2 2 2 C1.12 7.88 1.12 7.88 0 9 C-1.67 9.04 -3.33 9.04 -5 9 C-6.12 7.25 -6.12 7.25 -7 5 C-6.31 2.81 -6.31 2.81 -5 1 C-2 0 -2 0 0 0 Z " fill="#042667" transform="translate(832,1020)"/>
<path d="M0 0 C2.63 -0.03 5.25 -0.05 7.88 -0.06 C8.62 -0.07 9.37 -0.08 10.14 -0.09 C15.77 -0.11 15.77 -0.11 18 1 C17.67 1.99 17.34 2.98 17 4 C12.38 4 7.76 4 3 4 C3 3.34 3 2.68 3 2 C2.01 1.67 1.02 1.34 0 1 C0 0.67 0 0.34 0 0 Z " fill="#002163" transform="translate(453,1039)"/>
<path d="M0 0 C0.33 0.66 0.66 1.32 1 2 C3.02 2.65 3.02 2.65 5 3 C5 3.66 5 4.32 5 5 C-0.94 5 -6.88 5 -13 5 C-13.33 4.01 -13.66 3.02 -14 2 C-9.6 1.4 -5.44 1 -1 1 C-0.67 0.67 -0.34 0.34 0 0 Z " fill="#0B316F" transform="translate(838,1007)"/>
<path d="M0 0 C3.56 0.12 3.56 0.12 5.56 1.12 C5.56 2.77 5.56 4.42 5.56 6.12 C2.08 7.28 0.1 6.83 -3.44 6.12 C-3.82 4.47 -4.15 2.8 -4.44 1.12 C-3.44 0.12 -3.44 0.12 0 0 Z " fill="#F8FBFE" transform="translate(666.4375,1004.875)"/>
<path d="M0 0 C1.86 0 1.86 0 3.77 0.01 C5.61 0 5.61 0 7.5 0 C10.48 0.11 13.12 0.44 16.02 1.13 C10.96 4.5 5.94 4.51 0.02 4.13 C-2.48 2.63 -2.48 2.63 -3.98 1.13 C-2.98 0.13 -2.98 0.13 0 0 Z " fill="#002163" transform="translate(1011.984375,985.8671875)"/>
<path d="M0 0 C6.75 -0.12 6.75 -0.12 9 1 C8.67 2.98 8.34 4.96 8 7 C5.12 7.12 5.12 7.12 2 7 C0 5 0 5 -0.12 2.38 C-0.08 1.59 -0.04 0.81 0 0 Z " fill="#EFF4F9" transform="translate(1046,1044)"/>
<path d="M0 0 C1.21 0.03 1.21 0.03 2.44 0.06 C3.1 1.71 3.76 3.36 4.44 5.06 C3.12 6.38 1.8 7.7 0.44 9.06 C-1.21 8.07 -2.86 7.08 -4.56 6.06 C-3.49 0.09 -3.49 0.09 0 0 Z " fill="#17417C" transform="translate(579.5625,1020.9375)"/>
<path d="M0 0 C1.94 0.06 1.94 0.06 4 1 C5.17 3.74 6 6.01 6 9 C4.25 9.69 4.25 9.69 2 10 C-0.25 8.56 -0.25 8.56 -2 7 C-1.12 1.12 -1.12 1.12 0 0 Z " fill="#17417C" transform="translate(276,1022)"/>
<path d="M0 0 C0.33 0 0.66 0 1 0 C1.33 8.91 1.66 17.82 2 27 C1.01 27.33 0.02 27.66 -1 28 C-1.03 23.71 -1.05 19.42 -1.06 15.12 C-1.07 13.9 -1.08 12.68 -1.09 11.42 C-1.09 10.25 -1.09 9.08 -1.1 7.88 C-1.1 6.8 -1.11 5.73 -1.11 4.61 C-1 2 -1 2 0 0 Z " fill="#002163" transform="translate(195,958)"/>
<path d="M0 0 C0.99 0.33 1.98 0.66 3 1 C4.19 4.06 4.19 4.06 5 7 C3.25 7.05 1.5 7.09 -0.25 7.12 C-1.22 7.15 -2.2 7.17 -3.2 7.2 C-6.02 7 -7.61 6.45 -10 5 C-9.67 4.34 -9.34 3.68 -9 3 C-6.36 3 -3.72 3 -1 3 C-0.67 2.01 -0.34 1.02 0 0 Z " fill="#002263" transform="translate(588,1005)"/>
<path d="M0 0 C1 1 1 1 1.06 3.56 C1.04 4.37 1.02 5.17 1 6 C-4.62 6.25 -4.62 6.25 -8 4 C-8 2.68 -8 1.36 -8 0 C-4.7 -1.1 -3.29 -0.87 0 0 Z " fill="#F8FBFE" transform="translate(470,1043)"/>
<path d="M0 0 C1.32 0 2.64 0 4 0 C6.44 4.88 7.47 7.53 6 13 C4.68 12.34 3.36 11.68 2 11 C2 8.69 2 6.38 2 4 C1.34 4 0.68 4 0 4 C0 2.68 0 1.36 0 0 Z " fill="#002163" transform="translate(723,1019)"/>
<path d="M0 0 C2.34 2.26 4.19 4.28 6 7 C6 7.99 6 8.98 6 10 C5.34 10 4.68 10 4 10 C4 10.99 4 11.98 4 13 C3.01 13.33 2.02 13.66 1 14 C-0.38 11.24 -0.1 8.95 -0.06 5.88 C-0.05 4.78 -0.04 3.68 -0.04 2.55 C-0.02 1.71 -0.01 0.87 0 0 Z " fill="#002263" transform="translate(207,972)"/>
<path d="M0 0 C5.88 0.88 5.88 0.88 7 2 C7.04 3.67 7.04 5.33 7 7 C3.87 8.04 2.95 8.24 0 7 C-1.25 4.94 -1.25 4.94 -2 3 C-1.34 2.01 -0.68 1.02 0 0 Z " fill="#D9E2EC" transform="translate(443,1003)"/>
<path d="M0 0 C0.33 3.96 0.66 7.92 1 12 C-1.31 11.67 -3.62 11.34 -6 11 C-6 7.09 -4.68 4.49 -3 1 C-1 0 -1 0 0 0 Z " fill="#0D3371" transform="translate(987,1020)"/>
<path d="M0 0 C2.31 0.33 4.62 0.66 7 1 C7.38 2.66 7.71 4.32 8 6 C7 7 7 7 4.06 7.19 C1 7 1 7 -1 5 C-0.62 2.38 -0.62 2.38 0 0 Z " fill="#F5F8FC" transform="translate(230,1004)"/>
<path d="M0 0 C0.33 0 0.66 0 1 0 C1 8.91 1 17.82 1 27 C0.67 27 0.34 27 0 27 C0 24.36 0 21.72 0 19 C-0.66 19 -1.32 19 -2 19 C-2 15.37 -2 11.74 -2 8 C-1.34 8 -0.68 8 0 8 C0 5.36 0 2.72 0 0 Z " fill="#BAC7DC" transform="translate(569,955)"/>
<path d="M0 0 C2.06 0.44 2.06 0.44 4 1 C3.67 1.33 3.34 1.66 3 2 C2.77 4.02 2.59 6.04 2.44 8.06 C2.35 9.17 2.27 10.27 2.18 11.41 C2.12 12.26 2.06 13.12 2 14 C0.68 14.33 -0.64 14.66 -2 15 C-1.86 12.69 -1.71 10.37 -1.56 8.06 C-1.48 6.77 -1.4 5.49 -1.32 4.16 C-1 1 -1 1 0 0 Z " fill="#CBD4E6" transform="translate(379,1018)"/>
<path d="M0 0 C0.99 0.5 0.99 0.5 2 1 C3.45 0.97 3.45 0.97 4.94 0.94 C8 1 8 1 11 3 C10.67 3.99 10.34 4.98 10 6 C3.95 6.2 3.95 6.2 2 6 C1.34 5.34 0.68 4.68 0 4 C0 2.68 0 1.36 0 0 Z " fill="#FAFDFF" transform="translate(676,979)"/>
<path d="M0 0 C2.06 0.44 2.06 0.44 4 1 C4.12 8.75 4.12 8.75 3 11 C1.68 10.34 0.36 9.68 -1 9 C-1.1 2.85 -1.1 2.85 -1 1 C-0.67 0.67 -0.34 0.34 0 0 Z " fill="#002163" transform="translate(285,954)"/>
<path d="M0 0 C1.88 0.25 1.88 0.25 4 1 C5.38 2.81 5.38 2.81 6 5 C5.12 7.25 5.12 7.25 4 9 C2.06 8.62 2.06 8.62 0 8 C-0.33 7.34 -0.66 6.68 -1 6 C-0.67 5.34 -0.34 4.68 0 4 C-0.66 3.67 -1.32 3.34 -2 3 C-1.34 2.01 -0.68 1.02 0 0 Z " fill="#012364" transform="translate(231,1022)"/>
<path d="M0 0 C1.79 -0.03 3.58 -0.05 5.38 -0.06 C6.37 -0.07 7.37 -0.09 8.4 -0.1 C11 0 11 0 13 1 C13 1.99 13 2.98 13 4 C11.4 4.08 9.79 4.14 8.19 4.19 C7.29 4.22 6.4 4.26 5.48 4.29 C3 4 3 4 1.18 2.55 C0 1 0 1 0 0 Z " fill="#002163" transform="translate(375,1039)"/>
<path d="M0 0 C3.3 0 6.6 0 10 0 C10 1.32 10 2.64 10 4 C5.71 4 1.42 4 -3 4 C-2.34 3.67 -1.68 3.34 -1 3 C-0.67 2.01 -0.34 1.02 0 0 Z " fill="#002163" transform="translate(514,1028)"/>
<path d="M0 0 C0.99 0.33 1.98 0.66 3 1 C3 4.63 3 8.26 3 12 C2.01 12 1.02 12 0 12 C-1 11 -1 11 -1.13 8.75 C-1.13 7.84 -1.13 6.93 -1.12 6 C-1.13 5.09 -1.13 4.18 -1.13 3.25 C-1 1 -1 1 0 0 Z " fill="#002163" transform="translate(452,1018)"/>
<path d="M0 0 C0.33 0 0.66 0 1 0 C1 8.91 1 17.82 1 27 C0.01 27.33 -0.98 27.66 -2 28 C-2.33 26.02 -2.66 24.04 -3 22 C-2.01 21.67 -1.02 21.34 0 21 C0 14.07 0 7.14 0 0 Z " fill="#516E99" transform="translate(900,957)"/>
<path d="M0 0 C0.79 0.07 1.59 0.13 2.41 0.2 C4.5 0.75 4.5 0.75 6.5 3.75 C1.88 3.75 -2.74 3.75 -7.5 3.75 C-7.17 2.76 -6.84 1.77 -6.5 0.75 C-4.04 -0.48 -2.72 -0.26 0 0 Z " fill="#53709B" transform="translate(679.5,1028.25)"/>
<path d="M0 0 C2.34 2.13 3.94 4 5 7 C4.62 9.75 4.62 9.75 4 12 C3.01 12.33 2.02 12.66 1 13 C-1 11 -1 11 -1.23 8.65 C-1.22 7.76 -1.2 6.86 -1.19 5.94 C-1.18 5.04 -1.17 4.14 -1.17 3.21 C-1 1 -1 1 0 0 Z " fill="#002163" transform="translate(749,973)"/>
<path d="M0 0 C1.9 -0.03 3.79 -0.05 5.69 -0.06 C6.74 -0.07 7.8 -0.09 8.89 -0.1 C11.72 -0.01 14.24 0.35 17 1 C13.54 3.31 12.02 3.3 7.94 3.31 C6.34 3.34 6.34 3.34 4.71 3.36 C3.82 3.24 2.92 3.12 2 3 C1.34 2.01 0.68 1.02 0 0 Z " fill="#002163" transform="translate(833,986)"/>
<path d="M0 0 C1.98 0 3.96 0 6 0 C6 2.31 6 4.62 6 7 C3.69 7.33 1.38 7.66 -1 8 C-0.65 7.05 -0.3 6.1 0.06 5.12 C1.35 2.13 1.35 2.13 0 0 Z " fill="#002163" transform="translate(628,956)"/>
<path d="M0 0 C1.44 -0.05 2.87 -0.09 4.31 -0.12 C5.11 -0.15 5.91 -0.17 6.74 -0.2 C9 0 9 0 12 2 C11.67 2.99 11.34 3.98 11 5 C10.67 4.34 10.34 3.68 10 3 C8.36 3.25 8.36 3.25 6.69 3.5 C3 4 3 4 0 4 C0 2.68 0 1.36 0 0 Z " fill="#5E79A2" transform="translate(549,972)"/>
<path d="M0 0 C3.38 -0.12 3.38 -0.12 7 0 C7.66 0.66 8.32 1.32 9 2 C8.62 4.12 8.62 4.12 8 6 C6.35 6 4.7 6 3 6 C2.81 5.07 2.81 5.07 2.62 4.12 C2.13 1.81 2.13 1.81 0 0 Z " fill="#FAFDFF" transform="translate(579,1003)"/>
<path d="M0 0 C-2 2 -2 2 -5.04 2.2 C-6.22 2.17 -7.41 2.15 -8.62 2.12 C-9.81 2.11 -11 2.09 -12.23 2.07 C-13.14 2.05 -14.06 2.02 -15 2 C-15.33 1.34 -15.66 0.68 -16 0 C-11.4 -2.3 -4.83 -1.25 0 0 Z " fill="#002163" transform="translate(328,987)"/>
<path d="M0 0 C-4.29 0 -8.58 0 -13 0 C-13 -0.99 -13 -1.98 -13 -3 C-11.59 -3.28 -10.17 -3.52 -8.75 -3.75 C-7.96 -3.89 -7.17 -4.03 -6.36 -4.17 C-4 -4 -4 -4 0 0 Z " fill="#002163" transform="translate(271,989)"/>
<path d="M0 0 C2.05 0.03 4.1 0.07 6.15 0.1 C6.48 1.75 6.81 3.4 7.15 5.1 C3.52 4.77 -0.11 4.44 -3.85 4.1 C-2.53 0.13 -2.53 0.13 0 0 Z " fill="#CDD7E6" transform="translate(552.84765625,974.90234375)"/>
<path d="M0 0 C2.48 0.5 2.48 0.5 5 1 C5 4.96 5 8.92 5 13 C4.01 12.34 3.02 11.68 2 11 C1.71 8.62 1.71 8.62 1.81 5.88 C1.84 4.96 1.87 4.05 1.89 3.12 C1.93 2.42 1.96 1.72 2 1 C1.34 0.67 0.68 0.34 0 0 Z " fill="#002163" transform="translate(288,973)"/>
<path d="M0 0 C3.3 0 6.6 0 10 0 C10 0.66 10 1.32 10 2 C6.69 3.65 3.01 3.1 -0.62 3.06 C-1.43 3.06 -2.23 3.05 -3.05 3.05 C-5.04 3.04 -7.02 3.02 -9 3 C-9 2.67 -9 2.34 -9 2 C-6.03 2 -3.06 2 0 2 C0 1.34 0 0.68 0 0 Z " fill="#CED7E7" transform="translate(804,953)"/>
<path d="M0 0 C5.94 0.99 5.94 0.99 12 2 C12 2.66 12 3.32 12 4 C7.71 4 3.42 4 -1 4 C-0.67 2.68 -0.34 1.36 0 0 Z " fill="#002163" transform="translate(273,985)"/>
<path d="M0 0 C0.99 0 1.98 0 3 0 C3 3.63 3 7.26 3 11 C2.01 11.33 1.02 11.66 0 12 C0 8.04 0 4.08 0 0 Z " fill="#627DA4" transform="translate(310,954)"/>
<path d="M0 0 C1.45 0.03 1.45 0.03 2.94 0.06 C3.27 1.71 3.6 3.36 3.94 5.06 C1.96 5.06 -0.02 5.06 -2.06 5.06 C-2.72 3.74 -3.38 2.42 -4.06 1.06 C-3.06 0.06 -3.06 0.06 0 0 Z " fill="#FAFDFF" transform="translate(536.0625,1005.9375)"/>
<path d="M0 0 C1.65 0.33 3.3 0.66 5 1 C5.56 2.94 5.56 2.94 6 5 C5 6 5 6 2.44 6.06 C1.23 6.03 1.23 6.03 0 6 C-1.12 2.25 -1.12 2.25 0 0 Z " fill="#FAFDFF" transform="translate(832,1003)"/>
<path d="M0 0 C1.79 -0.03 3.58 -0.05 5.38 -0.06 C6.37 -0.07 7.37 -0.09 8.4 -0.1 C11 0 11 0 13 1 C13 1.66 13 2.32 13 3 C9.04 3 5.08 3 1 3 C0.67 2.01 0.34 1.02 0 0 Z " fill="#4F6C98" transform="translate(1017,973)"/>
<path d="M0 0 C1.96 0.4 3.92 0.82 5.88 1.25 C7.51 1.6 7.51 1.6 9.18 1.95 C12 3 12 3 14 7 C10.37 6.01 6.74 5.02 3 4 C3 3.34 3 2.68 3 2 C2.01 1.67 1.02 1.34 0 1 C0 0.67 0 0.34 0 0 Z " fill="#6882A8" transform="translate(605,971)"/>
<path d="M0 0 C1.94 0.31 1.94 0.31 4 1 C5 4 5 4 3.56 7.19 C2.79 8.58 2.79 8.58 2 10 C-0.43 6.36 -0.16 4.29 0 0 Z " fill="#002163" transform="translate(344,965)"/>
<path d="M0 0 C1.32 0 2.64 0 4 0 C4.33 2.64 4.66 5.28 5 8 C1.12 7.12 1.12 7.12 0 6 C-0.04 4 -0.04 2 0 0 Z " fill="#F6FAFD" transform="translate(755,1003)"/>
<path d="M0 0 C4.52 -0.08 8.59 -0.1 13 1 C11 3 11 3 8.62 3.2 C7.71 3.17 6.81 3.15 5.88 3.12 C4.51 3.1 4.51 3.1 3.12 3.07 C2.42 3.05 1.72 3.02 1 3 C0.67 2.01 0.34 1.02 0 0 Z " fill="#002163" transform="translate(509,986)"/>
<path d="M0 0 C3.3 0 6.6 0 10 0 C10 0.99 10 1.98 10 3 C6.37 3 2.74 3 -1 3 C-0.67 2.01 -0.34 1.02 0 0 Z " fill="#C9D3E5" transform="translate(650,953)"/>
<path d="M0 0 C1.32 0.33 2.64 0.66 4 1 C3.89 2.48 3.76 3.96 3.62 5.44 C3.52 6.67 3.52 6.67 3.41 7.93 C3.28 8.62 3.14 9.3 3 10 C2.01 10.49 2.01 10.49 1 11 C-0.28 7.15 -0.07 4.05 0 0 Z " fill="#CAD4E5" transform="translate(442,1018)"/>
<path d="M0 0 C3.72 -0.27 6.46 -0.18 10 1 C10 1.66 10 2.32 10 3 C6.04 3 2.08 3 -2 3 C-1.34 2.01 -0.68 1.02 0 0 Z " fill="#002163" transform="translate(295,986)"/>
<path d="M0 0 C6.62 -0.12 6.62 -0.12 10 1 C10 1.66 10 2.32 10 3 C6.37 3 2.74 3 -1 3 C-0.67 2.01 -0.34 1.02 0 0 Z " fill="#002163" transform="translate(198,986)"/>
<path d="M0 0 C0.99 0.33 1.98 0.66 3 1 C3 1.66 3 2.32 3 3 C3.66 2.67 4.32 2.34 5 2 C7.33 1.96 9.67 1.96 12 2 C11.01 2.33 10.02 2.66 9 3 C10.32 4.32 11.64 5.64 13 7 C9.19 6.33 5.58 5.51 2 4 C0.62 1.88 0.62 1.88 0 0 Z " fill="#7991B4" transform="translate(935,971)"/>
<path d="M0 0 C0.66 0 1.32 0 2 0 C2 3.96 2 7.92 2 12 C1.34 11.67 0.68 11.34 0 11 C-0.45 8.75 -0.45 8.75 -0.69 6 C-0.77 5.09 -0.86 4.18 -0.95 3.25 C-0.97 2.51 -0.98 1.76 -1 1 C-0.67 0.67 -0.34 0.34 0 0 Z " fill="#002163" transform="translate(512,794)"/>
<path d="M0 0 C6.62 -0.12 6.62 -0.12 10 1 C10 1.66 10 2.32 10 3 C6.7 3 3.4 3 0 3 C0 2.01 0 1.02 0 0 Z " fill="#002163" transform="translate(883,986)"/>
<path d="M0 0 C3.3 0 6.6 0 10 0 C10.33 0.66 10.66 1.32 11 2 C8.01 3.49 5.29 3.12 2 3 C1.34 2.67 0.68 2.34 0 2 C0 1.34 0 0.68 0 0 Z " fill="#CED7E7" transform="translate(549,953)"/>
<path d="M0 0 C0.99 0.66 1.98 1.32 3 2 C2.67 3.65 2.34 5.3 2 7 C1.01 7 0.02 7 -1 7 C-1.33 5.02 -1.66 3.04 -2 1 C-1.34 0.67 -0.68 0.34 0 0 Z " fill="#FAFDFF" transform="translate(258,1042)"/>
<path d="M0 0 C2.64 0.33 5.28 0.66 8 1 C5.83 3.5 4.27 4.44 1 5 C0.67 3.35 0.34 1.7 0 0 Z " fill="#002163" transform="translate(434,1039)"/>
<path d="M0 0 C0 0.66 0 1.32 0 2 C0.66 2 1.32 2 2 2 C1.67 3.98 1.34 5.96 1 8 C0.01 7.67 -0.98 7.34 -2 7 C-2 5.35 -2 3.7 -2 2 C-2.66 1.67 -3.32 1.34 -4 1 C-2 0 -2 0 0 0 Z " fill="#5E79A0" transform="translate(832,1020)"/>
<path d="M0 0 C0.33 0.66 0.66 1.32 1 2 C3.02 2.65 3.02 2.65 5 3 C5 3.66 5 4.32 5 5 C1.7 4.67 -1.6 4.34 -5 4 C-3.74 1.49 -2.5 1.13 0 0 Z " fill="#002163" transform="translate(838,1007)"/>
<path d="M0 0 C2.97 0.33 5.94 0.66 9 1 C9 1.66 9 2.32 9 3 C5.7 3 2.4 3 -1 3 C-0.67 2.01 -0.34 1.02 0 0 Z " fill="#002163" transform="translate(760,986)"/>
<path d="M0 0 C0.99 0.33 1.98 0.66 3 1 C3.81 2.88 3.81 2.88 4 5 C3.01 6.49 3.01 6.49 2 8 C1.34 8 0.68 8 0 8 C-1.12 2.25 -1.12 2.25 0 0 Z " fill="#002263" transform="translate(663,955)"/>
</svg>
