<?xml version="1.0" encoding="UTF-8"?>
<!-- Generator: visioncortex VTracer 0.6.3 -->
<svg version="1.1" xmlns="http://www.w3.org/2000/svg" width="1280" height="531">
<path d="M0 0 C422.4 0 844.8 0 1280 0 C1280 175.23 1280 350.46 1280 531 C857.6 531 435.2 531 0 531 C0 355.77 0 180.54 0 0 Z " fill="#FBFCFE" transform="translate(0,0)"/>
<path d="M0 0 C0.33 50.16 0.66 100.32 1 152 C5.65 147.94 10.08 144.04 14.41 139.71 C14.89 139.23 15.36 138.75 15.86 138.26 C17.41 136.71 18.95 135.15 20.5 133.6 C21.59 132.51 22.67 131.42 23.76 130.33 C26.6 127.49 29.43 124.65 32.26 121.8 C35.16 118.89 38.07 115.98 40.97 113.08 C46.65 107.39 52.33 101.69 58 96 C58.66 96.33 59.32 96.66 60 97 C63.07 106.5 64.42 116.77 60 126 C49.68 141 34.17 153.58 20.56 165.52 C20.04 166.01 19.53 166.5 19 167 C19 167.33 19 167.66 19 168 C20.81 168.04 20.81 168.04 22.66 168.08 C27.12 168.17 31.58 168.27 36.03 168.37 C37.97 168.42 39.9 168.46 41.83 168.5 C44.61 168.55 47.38 168.62 50.15 168.68 C51.02 168.7 51.89 168.72 52.79 168.73 C58.89 168.89 58.89 168.89 60 170 C60.09 171.84 60.12 173.69 60.11 175.53 C60.11 176.71 60.11 177.89 60.11 179.11 C60.11 180.39 60.1 181.68 60.1 183 C60.1 184.97 60.1 184.97 60.09 186.97 C60.09 190.45 60.08 193.94 60.07 197.42 C60.06 200.97 60.05 204.52 60.05 208.08 C60.04 215.05 60.02 222.03 60 229 C46.14 229.33 32.28 229.66 18 230 C20.95 232.94 23.9 235.87 26.93 238.9 C29.28 241.24 31.63 243.58 33.97 245.92 C36.45 248.39 38.93 250.86 41.41 253.33 C44.25 256.16 47.09 259 49.93 261.84 C51.27 263.17 51.27 263.17 52.64 264.52 C53.46 265.34 54.28 266.16 55.12 267.01 C55.85 267.73 56.58 268.46 57.32 269.2 C60.45 272.55 60.12 275.05 60.1 279.54 C60.09 280.84 60.09 282.14 60.09 283.48 C60.08 284.86 60.07 286.24 60.06 287.62 C60.06 289.01 60.05 290.4 60.05 291.79 C60.04 295.19 60.02 298.6 60 302 C34.82 291.93 20.17 265.17 1 246 C0.67 296.49 0.34 346.98 0 399 C-13.89 394.37 -27.19 388.67 -39.55 380.76 C-42.39 378.96 -45.25 377.34 -48.26 375.82 C-53.75 372.76 -58.82 369.52 -60.9 363.32 C-62.35 355.21 -61.98 347 -61.78 338.8 C-61.77 336.15 -61.77 333.5 -61.78 330.84 C-61.78 324.61 -61.71 318.37 -61.6 312.14 C-61.48 305.03 -61.45 297.92 -61.43 290.81 C-61.39 276.21 -61.23 261.6 -61 247 C-64.92 250.31 -68.75 253.63 -72.37 257.26 C-73.16 258.04 -73.94 258.82 -74.74 259.63 C-75.56 260.45 -76.37 261.27 -77.21 262.12 C-78.07 262.97 -78.93 263.83 -79.81 264.71 C-82.52 267.43 -85.23 270.15 -87.94 272.88 C-89.78 274.73 -91.63 276.58 -93.48 278.43 C-97.99 282.95 -102.5 287.47 -107 292 C-107.99 291.67 -108.98 291.34 -110 291 C-111.03 288.4 -111.86 285.92 -112.62 283.25 C-112.84 282.53 -113.06 281.82 -113.28 281.08 C-113.88 279.06 -114.47 277.04 -115 275 C-115.24 274.16 -115.48 273.33 -115.73 272.47 C-116 270 -116 270 -115.05 268.25 C-114.51 267.68 -113.97 267.12 -113.41 266.55 C-112.76 265.86 -112.12 265.17 -111.45 264.47 C-110.64 263.65 -109.83 262.84 -109 262 C-107.99 260.96 -106.98 259.93 -105.97 258.89 C-103.07 255.94 -100.14 253 -97.21 250.08 C-95.37 248.24 -93.53 246.4 -91.7 244.56 C-90.51 243.38 -89.33 242.2 -88.15 241.02 C-87.33 240.2 -87.33 240.2 -86.5 239.36 C-83.48 236.36 -80.39 233.6 -77 231 C-80.31 229.34 -84.01 229.8 -87.66 229.75 C-89.42 229.72 -91.18 229.69 -92.94 229.65 C-95.73 229.61 -98.51 229.56 -101.3 229.52 C-103.98 229.48 -106.66 229.43 -109.34 229.38 C-110.18 229.37 -111.02 229.36 -111.88 229.35 C-117.77 229.23 -117.77 229.23 -120 227 C-120.25 224.65 -120.25 224.65 -120.24 221.66 C-120.25 220.55 -120.25 219.43 -120.25 218.29 C-120.25 217.08 -120.24 215.87 -120.23 214.62 C-120.23 213.39 -120.23 212.15 -120.23 210.88 C-120.23 207.59 -120.21 204.31 -120.2 201.02 C-120.18 197.67 -120.19 194.33 -120.19 190.98 C-120.18 188.45 -120.17 185.91 -120.17 183.38 C-120.17 182.17 -120.17 180.96 -120.16 179.71 C-120.16 178.6 -120.15 177.48 -120.15 176.34 C-120.14 175.35 -120.14 174.37 -120.13 173.35 C-120 171 -120 171 -119 169 C-105.14 168.67 -91.28 168.34 -77 168 C-81.53 163.49 -81.53 163.49 -86.15 158.88 C-88.56 156.49 -90.96 154.09 -93.36 151.69 C-95.9 149.16 -98.44 146.63 -100.98 144.1 C-103.89 141.19 -106.8 138.29 -109.71 135.38 C-111.09 134.02 -111.09 134.02 -112.48 132.63 C-113.32 131.79 -114.16 130.95 -115.03 130.08 C-115.77 129.34 -116.52 128.6 -117.29 127.83 C-120.44 124.46 -120.12 121.99 -120.1 117.46 C-120.09 116.16 -120.09 114.86 -120.09 113.52 C-120.08 112.14 -120.07 110.76 -120.06 109.38 C-120.06 107.99 -120.05 106.6 -120.05 105.21 C-120.04 101.81 -120.02 98.4 -120 95 C-115.74 95.47 -113.47 98.14 -110.62 101.05 C-110.1 101.58 -109.57 102.11 -109.03 102.65 C-107.3 104.38 -105.59 106.13 -103.87 107.88 C-102.67 109.08 -101.47 110.29 -100.27 111.5 C-97.11 114.67 -93.96 117.86 -90.81 121.04 C-85.77 126.15 -80.71 131.24 -75.65 136.33 C-73.88 138.11 -72.12 139.89 -70.36 141.68 C-69.28 142.77 -68.2 143.86 -67.12 144.95 C-66.63 145.45 -66.14 145.94 -65.63 146.46 C-63.07 149.06 -63.07 149.06 -60 151 C-60 150.36 -60 149.72 -60 149.05 C-60.02 133.44 -60.04 117.82 -60.05 102.21 C-60.06 94.66 -60.06 87.11 -60.08 79.56 C-60.09 72.98 -60.09 66.4 -60.09 59.82 C-60.1 56.33 -60.1 52.85 -60.11 49.36 C-60.11 45.47 -60.11 41.59 -60.11 37.7 C-60.12 36.54 -60.12 35.38 -60.12 34.18 C-60.12 33.13 -60.12 32.07 -60.12 30.99 C-60.12 30.07 -60.12 29.15 -60.12 28.2 C-60 26 -60 26 -59 24 C-56.85 22.97 -54.71 22.03 -52.5 21.12 C-45.04 17.97 -37.77 14.49 -30.5 10.94 C-3.92 -1.96 -3.92 -1.96 0 0 Z " fill="#E7232D" transform="translate(132,72)"/>
<path d="M0 0 C23 4.87 44.73 15.19 65.7 25.54 C87.71 36.35 109.01 42.03 133.51 42.4 C135.7 42.54 135.7 42.54 140.7 43.54 C140.7 85.45 140.7 127.36 140.7 170.54 C108.19 170.54 79.52 164.29 48.41 155.63 C22.58 148.48 -3.3 143.79 -30.12 142.94 C-31.68 142.88 -31.68 142.88 -33.27 142.83 C-34.21 142.8 -35.15 142.77 -36.13 142.73 C-38.3 142.54 -38.3 142.54 -39.3 141.54 C-39.4 139.7 -39.43 137.85 -39.44 136.01 C-39.45 134.81 -39.45 133.61 -39.46 132.37 C-39.46 131.02 -39.46 129.68 -39.46 128.34 C-39.47 126.93 -39.47 125.52 -39.48 124.12 C-39.49 120.29 -39.5 116.46 -39.5 112.63 C-39.5 110.24 -39.51 107.85 -39.51 105.47 C-39.52 98 -39.53 90.53 -39.54 83.06 C-39.54 74.43 -39.56 65.79 -39.59 57.16 C-39.61 50.49 -39.62 43.83 -39.62 37.16 C-39.62 33.18 -39.63 29.19 -39.65 25.21 C-39.66 21.46 -39.67 17.71 -39.66 13.97 C-39.66 12.59 -39.66 11.21 -39.67 9.83 C-39.68 7.96 -39.68 6.08 -39.67 4.21 C-39.67 3.16 -39.67 2.1 -39.67 1.02 C-39.55 0.2 -39.43 -0.61 -39.3 -1.46 C-29.74 -7.83 -10.65 -2.11 0 0 Z " fill="#E8232D" transform="translate(253.29931640625,63.45556640625)"/>
<path d="M0 0 C28.8 0.12 56.52 4.88 84.55 11.09 C95.52 13.47 106.53 15.06 117.69 16.19 C118.57 16.28 119.44 16.37 120.35 16.46 C129.7 17.34 139.06 17.52 148.44 17.75 C150.12 17.79 151.8 17.84 153.48 17.88 C157.55 17.99 161.62 18.09 165.69 18.19 C166.88 23.05 165.99 26.28 164.25 30.88 C163.97 31.62 163.7 32.37 163.41 33.14 C162.52 35.5 161.61 37.84 160.69 40.19 C160.28 41.26 160.28 41.26 159.87 42.35 C152.22 62.4 139.35 80.62 124.69 96.19 C123.39 97.6 123.39 97.6 122.07 99.05 C102.66 119.44 77.92 131.6 52.12 141.82 C34 149.05 15.52 156.59 -1.06 166.97 C-3.31 168.19 -3.31 168.19 -6.31 168.19 C-7.74 165.33 -7.44 162.89 -7.44 159.69 C-7.44 159.01 -7.44 158.34 -7.44 157.64 C-7.45 155.37 -7.45 153.1 -7.44 150.83 C-7.44 149.21 -7.45 147.58 -7.45 145.96 C-7.45 141.54 -7.45 137.12 -7.45 132.7 C-7.44 128.08 -7.45 123.47 -7.45 118.85 C-7.45 111.1 -7.45 103.35 -7.44 95.6 C-7.44 86.62 -7.44 77.65 -7.44 68.67 C-7.45 60.98 -7.45 53.28 -7.45 45.59 C-7.45 40.99 -7.45 36.39 -7.45 31.79 C-7.45 27.47 -7.45 23.14 -7.44 18.82 C-7.44 17.23 -7.44 15.64 -7.45 14.05 C-7.45 11.88 -7.44 9.72 -7.44 7.56 C-7.44 6.35 -7.44 5.13 -7.44 3.88 C-7.2 -1.15 -4.45 0.02 0 0 Z " fill="#201F1F" transform="translate(221.3125,330.8125)"/>
<path d="M0 0 C2.34 1.99 4.67 3.99 7 6 C8.1 6.94 8.1 6.94 9.22 7.9 C13.61 11.71 17.5 15.63 21.25 20.06 C23.64 22.71 26.3 24.96 29.01 27.27 C31.03 29.02 32.96 30.82 34.88 32.69 C35.71 33.5 35.71 33.5 36.55 34.32 C39.2 37.4 40.25 40.08 40.24 44.13 C40.24 44.94 40.25 45.75 40.25 46.59 C40.24 47.47 40.23 48.36 40.23 49.27 C40.23 50.2 40.23 51.14 40.23 52.11 C40.23 55.2 40.21 58.3 40.2 61.39 C40.19 63.54 40.19 65.68 40.19 67.83 C40.18 73.48 40.16 79.13 40.14 84.78 C40.12 90.54 40.11 96.31 40.1 102.07 C40.08 113.38 40.04 124.69 40 136 C35.79 134.35 31.78 132.43 27.75 130.38 C21.06 126.99 14.31 123.76 7.5 120.61 C4.51 119.23 1.75 117.83 -1 116 C-1.37 113.98 -1.37 113.98 -1.37 111.45 C-1.37 110.49 -1.38 109.53 -1.38 108.54 C-1.38 107.48 -1.37 106.43 -1.36 105.34 C-1.36 104.23 -1.36 103.12 -1.36 101.98 C-1.37 98.3 -1.35 94.62 -1.33 90.94 C-1.33 88.39 -1.32 85.84 -1.32 83.29 C-1.32 77.95 -1.3 72.6 -1.28 67.25 C-1.25 60.39 -1.24 53.52 -1.24 46.65 C-1.23 41.39 -1.22 36.12 -1.21 30.86 C-1.21 28.33 -1.2 25.8 -1.2 23.26 C-1.19 19.73 -1.18 16.19 -1.16 12.66 C-1.16 11.6 -1.16 10.55 -1.16 9.46 C-1.15 8.02 -1.15 8.02 -1.14 6.55 C-1.14 5.72 -1.13 4.88 -1.13 4.02 C-1 2 -1 2 0 0 Z " fill="#263C8F" transform="translate(152,363)"/>
<path d="M0 0 C6.65 6.65 4.21 29.51 4.5 38.75 C4.53 39.64 4.56 40.53 4.59 41.45 C5.21 62.18 5.49 80.32 -8.99 96.44 C-17.12 104.65 -26.26 111.8 -36 118 C-36.99 117.67 -37.98 117.34 -39 117 C-39.05 102.56 -39.08 88.12 -39.1 73.69 C-39.11 66.98 -39.13 60.28 -39.15 53.58 C-39.17 47.11 -39.18 40.65 -39.19 34.18 C-39.19 31.71 -39.2 29.24 -39.21 26.77 C-39.23 23.32 -39.23 19.87 -39.23 16.42 C-39.23 15.39 -39.24 14.36 -39.25 13.29 C-39.25 12.36 -39.24 11.42 -39.24 10.45 C-39.24 9.64 -39.24 8.82 -39.25 7.98 C-39 6 -39 6 -37 4 C-25.19 0.92 -12.22 -1.14 0 0 Z " fill="#263C90" transform="translate(190,60)"/>
<path d="M0 0 C5.5 -0.1 10.99 -0.17 16.49 -0.22 C18.35 -0.24 20.22 -0.27 22.08 -0.3 C43.48 -0.69 43.48 -0.69 51 4 C55.73 8.85 57.9 13.87 58.16 20.65 C57.76 26.61 55.25 30.03 51 33.94 C47.45 37 47.45 37 44 37 C44 37.66 44 38.32 44 39 C44.82 39.06 45.65 39.12 46.5 39.19 C51.61 40.37 56.08 42.54 59.36 46.75 C62.62 52.25 63.43 56.66 63 63 C60.92 69.72 56.86 75.49 50.91 79.36 C38.65 85.67 22.88 84.1 9.44 84.25 C8.43 84.27 7.43 84.29 6.39 84.31 C5.46 84.32 4.52 84.32 3.56 84.33 C2.73 84.34 1.89 84.35 1.04 84.36 C0.36 84.24 -0.31 84.12 -1 84 C-1.66 83.01 -2.32 82.02 -3 81 C-0.42 78.42 1.73 78.27 5.22 77.56 C5.81 77.38 6.4 77.19 7 77 C8.39 74.23 8.13 71.96 8.15 68.85 C8.15 67.56 8.16 66.27 8.16 64.94 C8.17 63.52 8.17 62.11 8.17 60.69 C8.17 59.24 8.17 57.8 8.18 56.35 C8.18 53.31 8.19 50.28 8.19 47.24 C8.19 43.35 8.2 39.46 8.22 35.57 C8.23 32.58 8.23 29.59 8.23 26.6 C8.23 25.16 8.23 23.73 8.24 22.29 C8.25 20.29 8.25 18.28 8.24 16.28 C8.24 15.13 8.25 13.99 8.25 12.81 C8.21 9.79 8.21 9.79 6 7 C4.05 6 4.05 6 1.88 5.31 C1.15 5.06 0.43 4.81 -0.32 4.55 C-0.87 4.37 -1.43 4.19 -2 4 C-1.34 2.68 -0.68 1.36 0 0 Z " fill="#201F1F" transform="translate(464,190)"/>
<path d="M0 0 C5.67 -0.07 11.35 -0.13 17.02 -0.16 C18.95 -0.18 20.88 -0.2 22.8 -0.23 C25.59 -0.26 28.37 -0.28 31.15 -0.29 C32 -0.31 32.85 -0.32 33.73 -0.34 C41.11 -0.34 47.53 1.44 54 5 C59.63 11.25 60.86 17.56 60.45 25.8 C59.43 33.13 55.33 36.97 49.9 41.71 C48 43 48 43 45 43 C50.24 54.34 59.35 71.57 71.06 77.38 C74 79 74 79 74.94 82.25 C74.96 83.16 74.98 84.06 75 85 C66.16 84.97 58.96 83.72 52 78 C44.8 70.05 39.54 60.2 34.25 50.94 C31.56 48.62 30.33 48.65 26.86 48.38 C25.95 48.3 25.04 48.23 24.11 48.15 C23.41 48.1 22.72 48.05 22 48 C22.11 52.46 22.24 56.92 22.38 61.38 C22.41 62.65 22.44 63.92 22.47 65.23 C22.51 66.44 22.55 67.65 22.59 68.9 C22.63 70.58 22.63 70.58 22.68 72.29 C22.73 75.15 22.73 75.15 25 77 C26.96 77.89 26.96 77.89 29.12 78.62 C29.85 78.89 30.57 79.15 31.32 79.41 C32.15 79.7 32.15 79.7 33 80 C33 81.32 33 82.64 33 84 C28.48 84.07 23.96 84.13 19.44 84.16 C17.9 84.18 16.36 84.2 14.82 84.23 C12.61 84.26 10.4 84.28 8.2 84.29 C7.16 84.32 7.16 84.32 6.11 84.34 C4.16 84.34 4.16 84.34 1 84 C0.34 83.01 -0.32 82.02 -1 81 C1.1 78.9 2.38 78.35 5.12 77.38 C6.21 76.98 6.21 76.98 7.32 76.59 C8.15 76.3 8.15 76.3 9 76 C9.02 67.32 9.04 58.63 9.05 49.95 C9.06 45.92 9.06 41.88 9.08 37.85 C9.09 33.96 9.09 30.07 9.09 26.18 C9.1 24.7 9.1 23.21 9.11 21.73 C9.11 19.65 9.11 17.57 9.11 15.49 C9.12 13.72 9.12 13.72 9.12 11.9 C9.13 8.93 9.13 8.93 8 6 C6.89 5.86 5.77 5.71 4.62 5.56 C1 5 1 5 -1 4 C-0.67 2.68 -0.34 1.36 0 0 Z " fill="#201F1F" transform="translate(545,190)"/>
<path d="M0 0 C0.73 -0 1.45 -0.01 2.2 -0.01 C3.75 -0.02 5.3 -0.02 6.85 -0.02 C9.18 -0.02 11.51 -0.04 13.85 -0.06 C37.73 -0.15 37.73 -0.15 45.85 6.17 C51.63 13.3 52.65 20.15 51.85 29.17 C50.03 35.65 44.07 40.29 38.85 44.17 C38.19 44.17 37.53 44.17 36.85 44.17 C40.88 52.05 45.47 59.15 50.85 66.17 C51.51 67.06 52.18 67.95 52.86 68.87 C56.6 73.77 60.19 77.57 65.38 80.91 C65.87 81.33 66.35 81.74 66.85 82.17 C66.85 83.16 66.85 84.15 66.85 85.17 C57.64 85.67 51.3 83.88 43.85 78.17 C38.76 73.33 35.41 67.32 31.81 61.34 C27.82 54.29 27.82 54.29 21.85 49.17 C18.31 49 18.31 49 14.85 49.17 C13.21 50.81 13.72 52.68 13.72 54.94 C13.72 55.91 13.72 56.88 13.71 57.88 C13.72 59.42 13.72 59.42 13.73 60.98 C13.72 61.99 13.72 63 13.71 64.04 C13.72 65.51 13.72 65.51 13.72 67 C13.72 67.89 13.72 68.79 13.72 69.71 C13.85 72.06 14.02 73.96 14.85 76.17 C17.72 78.31 17.72 78.31 20.98 79.04 C22.4 79.6 22.4 79.6 23.85 80.17 C24.18 81.49 24.51 82.81 24.85 84.17 C13.96 84.17 3.07 84.17 -8.15 84.17 C-8.48 82.85 -8.81 81.53 -9.15 80.17 C-7.34 78.36 -4.42 78.7 -1.96 78.45 C-0.13 78.35 -0.13 78.35 0.85 77.17 C0.96 75.06 1 72.95 1.01 70.84 C1.02 70.18 1.02 69.52 1.03 68.84 C1.04 66.65 1.05 64.46 1.05 62.27 C1.06 60.75 1.07 59.23 1.07 57.71 C1.08 54.52 1.09 51.34 1.09 48.15 C1.1 44.06 1.12 39.97 1.15 35.88 C1.17 32.74 1.17 29.6 1.18 26.47 C1.18 24.96 1.19 23.45 1.2 21.94 C1.22 19.83 1.21 17.73 1.21 15.62 C1.21 13.82 1.21 13.82 1.22 11.98 C1.1 11.05 0.98 10.13 0.85 9.17 C-2.13 7.18 -4.75 6.23 -8.15 5.17 C-8.15 -1.36 -5.51 0.01 0 0 Z " fill="#201F1F" transform="translate(910.1484375,310.83203125)"/>
<path d="M0 0 C10.56 0 21.12 0 32 0 C32.5 2.47 32.5 2.47 33 5 C30.03 5.99 27.06 6.98 24 8 C24 17.24 24 26.48 24 36 C37.53 36 51.06 36 65 36 C64.78 29.41 64.78 29.41 64.56 22.69 C64.5 20.61 64.5 20.61 64.43 18.5 C64.39 17.41 64.36 16.32 64.32 15.2 C64.28 14.08 64.24 12.97 64.21 11.82 C64.11 8.92 64.11 8.92 63 6 C60.36 5.67 57.72 5.34 55 5 C54.5 3.51 54.5 3.51 54 2 C54.33 1.34 54.66 0.68 55 0 C65.56 0 76.12 0 87 0 C87.5 2.47 87.5 2.47 88 5 C87.36 5.19 86.72 5.39 86.07 5.59 C85.24 5.85 84.41 6.11 83.56 6.38 C82.74 6.63 81.92 6.89 81.07 7.15 C78.82 7.81 78.82 7.81 78 10 C77.9 12.05 77.86 14.11 77.85 16.16 C77.85 17.46 77.84 18.75 77.84 20.09 C77.83 21.5 77.83 22.92 77.83 24.34 C77.83 25.79 77.83 27.24 77.82 28.69 C77.82 31.73 77.81 34.77 77.81 37.81 C77.81 41.71 77.8 45.61 77.78 49.51 C77.77 52.51 77.77 55.5 77.77 58.5 C77.77 59.93 77.77 61.37 77.76 62.81 C77.75 64.82 77.75 66.83 77.76 68.84 C77.76 69.98 77.75 71.13 77.75 72.31 C77.72 75.15 77.72 75.15 80 77 C81.96 77.89 81.96 77.89 84.12 78.62 C85.21 79.02 85.21 79.02 86.32 79.41 C86.87 79.61 87.43 79.8 88 80 C88 81.32 88 82.64 88 84 C83.34 84.07 78.67 84.13 74.01 84.16 C72.42 84.18 70.84 84.2 69.25 84.23 C66.97 84.26 64.69 84.28 62.41 84.29 C61.7 84.31 60.99 84.32 60.26 84.34 C58.26 84.34 58.26 84.34 55 84 C54.34 83.01 53.68 82.02 53 81 C53.33 80.34 53.66 79.68 54 79 C56.03 78.4 56.03 78.4 58.5 77.94 C61.54 77.54 61.54 77.54 64 76 C64.09 73.62 64.12 71.28 64.1 68.9 C64.1 67.61 64.09 66.31 64.09 64.97 C64.08 63.31 64.07 61.65 64.06 59.94 C64.04 54.68 64.02 49.42 64 44 C43.71 43.5 43.71 43.5 23 43 C23 53.89 23 64.78 23 76 C26.3 76.99 29.6 77.98 33 79 C33.33 80.32 33.66 81.64 34 83 C31.53 85.47 25.46 84.17 21.99 84.19 C21.26 84.19 20.54 84.19 19.79 84.19 C17.58 84.19 15.36 84.21 13.15 84.22 C11.74 84.23 10.34 84.23 8.94 84.23 C7.66 84.23 6.38 84.24 5.06 84.24 C2 84 2 84 0 82 C0 81.01 0 80.02 0 79 C0.64 78.87 1.28 78.73 1.93 78.6 C3.17 78.33 3.17 78.33 4.44 78.06 C5.67 77.8 5.67 77.8 6.93 77.54 C8.98 77.19 8.98 77.19 10 76 C10.12 73.93 10.17 71.86 10.19 69.78 C10.2 69.13 10.21 68.49 10.22 67.82 C10.24 65.66 10.26 63.51 10.27 61.35 C10.28 60.62 10.28 59.88 10.29 59.13 C10.32 55.24 10.34 51.35 10.35 47.46 C10.37 43.44 10.41 39.42 10.46 35.4 C10.5 32.32 10.51 29.23 10.51 26.14 C10.52 24.66 10.54 23.18 10.56 21.69 C10.59 19.62 10.59 17.55 10.58 15.48 C10.59 14.29 10.6 13.11 10.61 11.9 C10.29 8.82 10.29 8.82 7.64 7.17 C5.11 6.05 2.59 4.96 0 4 C0 2.68 0 1.36 0 0 Z " fill="#201F1F" transform="translate(891,190)"/>
<path d="M0 0 C0.76 -0.04 1.53 -0.07 2.32 -0.11 C6.36 -0.18 8.17 -0.08 11.44 2.48 C12.2 3.44 12.96 4.39 13.75 5.38 C14.68 6.43 15.61 7.49 16.55 8.54 C17.53 9.69 18.52 10.84 19.5 12 C20.02 12.61 20.55 13.23 21.09 13.86 C25.72 19.31 30.25 24.82 34.75 30.38 C39.68 36.43 44.62 42.48 49.75 48.38 C50.61 49.38 50.61 49.38 51.5 50.4 C52.1 51.09 52.69 51.79 53.31 52.5 C53.85 53.12 54.39 53.74 54.94 54.38 C57.13 56.8 59.44 59.08 61.75 61.38 C61.8 55.08 61.84 48.78 61.86 42.48 C61.87 40.34 61.88 38.2 61.9 36.05 C61.93 32.97 61.94 29.89 61.95 26.8 C61.96 25.85 61.97 24.9 61.98 23.92 C61.98 18.15 61.36 13.6 58.75 8.38 C56.64 7.47 56.64 7.47 54.19 6.75 C53.36 6.49 52.53 6.23 51.68 5.96 C51.05 5.77 50.41 5.57 49.75 5.38 C49.75 4.06 49.75 2.74 49.75 1.38 C54.21 -0.86 60.35 0.19 65.25 0.19 C66.51 0.18 67.77 0.16 69.07 0.15 C70.28 0.15 71.48 0.15 72.72 0.14 C74.38 0.14 74.38 0.14 76.08 0.13 C78.75 0.38 78.75 0.38 80.75 2.38 C80.75 3.69 80.75 5.01 80.75 6.38 C80.11 6.56 79.47 6.74 78.82 6.93 C77.99 7.18 77.16 7.43 76.31 7.69 C75.49 7.93 74.67 8.17 73.82 8.43 C73.13 8.74 72.45 9.05 71.75 9.38 C68.55 18.98 69.57 30.61 69.43 40.65 C69.4 42.58 69.4 42.58 69.37 44.56 C69.32 47.93 69.27 51.31 69.22 54.69 C69.17 58.15 69.11 61.62 69.06 65.09 C68.95 71.85 68.85 78.61 68.75 85.38 C62.16 84.44 62.16 84.44 59.44 81 C58.85 80.28 58.26 79.55 57.66 78.81 C57.03 78.01 56.4 77.2 55.75 76.38 C54.29 74.6 52.83 72.83 51.38 71.06 C49.83 69.17 48.29 67.27 46.75 65.38 C45.36 63.67 43.96 61.96 42.56 60.25 C41.82 59.35 41.08 58.44 40.32 57.51 C38.38 55.14 36.44 52.79 34.49 50.43 C33.91 49.72 33.32 49.01 32.72 48.28 C31.59 46.91 30.46 45.54 29.33 44.18 C23.38 36.98 17.57 29.67 11.75 22.38 C11.73 28.16 11.71 33.94 11.7 39.72 C11.69 41.68 11.68 43.64 11.67 45.6 C10.8 60.68 10.8 60.68 12.75 75.38 C15.15 77.6 16.76 78.38 19.94 79.31 C20.87 79.66 21.79 80.01 22.75 80.38 C23.08 81.69 23.41 83.01 23.75 84.38 C13.52 84.38 3.29 84.38 -7.25 84.38 C-7.58 83.38 -7.91 82.39 -8.25 81.38 C-7.75 80.38 -7.75 80.38 -7.25 79.38 C-5.24 78.78 -3.22 78.42 -1.16 78.04 C1.13 77.46 1.13 77.46 2.75 74.38 C3.07 71.64 3.07 71.64 3.04 68.51 C3.05 67.31 3.07 66.1 3.08 64.86 C3.08 63.56 3.08 62.26 3.09 60.91 C3.09 59.56 3.1 58.21 3.11 56.86 C3.12 54.03 3.12 51.19 3.12 48.36 C3.12 44.74 3.15 41.11 3.18 37.49 C3.2 34.7 3.21 31.91 3.21 29.12 C3.21 27.13 3.23 25.15 3.25 23.16 C3.25 21.95 3.24 20.74 3.24 19.49 C3.24 18.43 3.24 17.37 3.24 16.27 C2.63 12.66 1.27 10.99 -1.25 8.38 C-3.33 7.18 -3.33 7.18 -5.5 6.56 C-7.36 5.97 -7.36 5.97 -9.25 5.38 C-9.25 -1.46 -5.75 0.1 0 0 Z " fill="#201F1F" transform="translate(572.25,310.625)"/>
<path d="M0 0 C0.36 3.01 0.36 3.01 0.34 6.93 C0.34 8 0.34 8 0.34 9.09 C0.34 11.45 0.32 13.8 0.29 16.16 C0.29 17.8 0.28 19.43 0.28 21.07 C0.27 25.37 0.24 29.67 0.21 33.98 C0.18 38.37 0.16 42.76 0.15 47.15 C0.11 55.77 0.06 64.38 0 73 C-3.72 71.71 -6.09 70.29 -8.86 67.5 C-9.57 66.79 -10.29 66.07 -11.03 65.34 C-11.79 64.57 -12.55 63.79 -13.33 63 C-14.12 62.21 -14.91 61.42 -15.72 60.6 C-17.39 58.93 -19.05 57.26 -20.7 55.58 C-23.25 53 -25.8 50.44 -28.36 47.88 C-29.97 46.25 -31.59 44.63 -33.2 43 C-34.35 41.84 -34.35 41.84 -35.53 40.66 C-36.23 39.95 -36.94 39.24 -37.66 38.5 C-38.28 37.87 -38.91 37.24 -39.55 36.59 C-42.54 33.31 -42.12 30.57 -42.1 26.24 C-42.1 25.58 -42.09 24.92 -42.09 24.23 C-42.09 22.11 -42.08 19.99 -42.06 17.88 C-42.06 16.44 -42.05 15 -42.05 13.57 C-42.04 10.04 -42.02 6.52 -42 3 C-38.4 1.04 -36.18 0.87 -32.06 1.06 C-24.55 1.21 -17.41 0.17 -10.02 -1.11 C-9.15 -1.25 -8.29 -1.39 -7.39 -1.54 C-6.62 -1.68 -5.84 -1.81 -5.05 -1.95 C-3 -2 -3 -2 0 0 Z " fill="#263C90" transform="translate(54,105)"/>
<path d="M0 0 C2.13 -0 4.27 -0.02 6.4 -0.04 C7.75 -0.04 9.1 -0.04 10.45 -0.05 C11.69 -0.05 12.92 -0.05 14.19 -0.06 C17.14 0.19 17.14 0.19 19.14 2.19 C19.05 4.2 19.05 4.2 18.14 6.19 C16.08 7.23 16.08 7.23 13.58 7.94 C12.75 8.18 11.93 8.42 11.08 8.67 C10.44 8.84 9.8 9.01 9.14 9.19 C9.09 15.55 9.06 21.92 9.03 28.29 C9.02 30.45 9.01 32.61 8.99 34.78 C8.97 37.9 8.96 41.02 8.95 44.15 C8.94 45.1 8.93 46.06 8.92 47.04 C8.91 56.6 9.5 64.52 16.34 71.56 C21.98 76.64 27.24 77.51 34.61 77.39 C40.01 76.95 43.73 74.93 47.39 71.06 C53.83 62.9 54.27 52.44 54.27 42.43 C54.28 41.37 54.28 41.37 54.28 40.3 C54.28 38.82 54.28 37.34 54.27 35.87 C54.27 33.62 54.27 31.38 54.28 29.14 C54.28 27.7 54.28 26.25 54.27 24.81 C54.27 22.86 54.27 22.86 54.27 20.88 C54.14 17.22 53.87 13.78 53.14 10.19 C50.64 8.17 48.42 7.28 45.39 6.25 C43.14 5.19 43.14 5.19 42.33 3.06 C42.27 2.44 42.21 1.82 42.14 1.19 C44.95 -0.22 47.29 0.06 50.43 0.05 C51.68 0.05 52.93 0.05 54.22 0.05 C55.54 0.05 56.85 0.06 58.2 0.06 C59.52 0.06 60.84 0.05 62.2 0.05 C63.45 0.05 64.7 0.05 65.99 0.05 C67.14 0.05 68.3 0.05 69.49 0.06 C72.14 0.19 72.14 0.19 73.14 1.19 C73.18 2.85 73.18 4.52 73.14 6.19 C72.5 6.37 71.87 6.55 71.21 6.74 C70.38 6.99 69.56 7.24 68.7 7.5 C67.88 7.74 67.06 7.99 66.21 8.24 C65.53 8.55 64.84 8.86 64.14 9.19 C61.58 16.88 62.08 25.66 61.97 33.72 C61.95 34.46 61.94 35.2 61.93 35.97 C61.88 39.02 61.83 42.07 61.82 45.12 C61.73 57.04 60.71 67.85 52.91 77.47 C46.5 83.71 38.09 86.23 29.33 86.5 C18.33 86.26 9.75 82.5 1.77 74.94 C-3.78 65.56 -3.98 54.49 -4.14 43.88 C-4.16 42.93 -4.18 41.97 -4.2 40.98 C-4.27 36.91 -4.34 32.84 -4.41 28.77 C-4.46 25.79 -4.52 22.8 -4.58 19.82 C-4.59 18.9 -4.6 17.98 -4.62 17.03 C-4.64 16.17 -4.65 15.32 -4.67 14.44 C-4.68 13.69 -4.69 12.94 -4.71 12.16 C-4.79 9.97 -4.79 9.97 -5.86 7.19 C-6.97 7.06 -8.09 6.94 -9.23 6.81 C-12.86 6.19 -12.86 6.19 -14.86 4.19 C-14.86 3.2 -14.86 2.21 -14.86 1.19 C-10.55 -0.97 -4.79 -0 0 0 Z " fill="#201F1F" transform="translate(475.8583984375,310.814697265625)"/>
<path d="M0 0 C1.07 -0.01 2.15 -0.01 3.26 -0.02 C4.42 -0.02 5.59 -0.02 6.79 -0.02 C7.98 -0.03 9.17 -0.03 10.39 -0.03 C12.92 -0.04 15.44 -0.04 17.96 -0.04 C21.83 -0.04 25.7 -0.06 29.57 -0.08 C32.02 -0.08 34.46 -0.08 36.91 -0.09 C38.07 -0.09 39.24 -0.1 40.44 -0.11 C42.05 -0.1 42.05 -0.1 43.7 -0.1 C44.64 -0.1 45.59 -0.1 46.57 -0.1 C48.85 0.15 48.85 0.15 50.85 2.15 C51.17 4.02 51.17 4.02 51.26 6.28 C51.32 7.49 51.32 7.49 51.38 8.72 C51.41 9.56 51.44 10.4 51.47 11.27 C51.53 12.54 51.53 12.54 51.59 13.84 C51.68 15.94 51.77 18.04 51.85 20.15 C50.53 20.48 49.21 20.81 47.85 21.15 C46.09 18.25 44.39 15.34 42.72 12.4 C41.17 9.38 41.17 9.38 39.85 8.15 C34.5 7.15 29.33 7.02 23.91 7.08 C21.25 7.1 18.59 7.12 15.85 7.15 C16.34 22.49 16.34 22.49 16.85 38.15 C20.93 37.93 20.93 37.93 25.1 37.71 C25.95 37.66 26.8 37.62 27.68 37.58 C28.36 37.54 29.04 37.5 29.74 37.46 C30.78 37.41 30.78 37.41 31.83 37.35 C33.91 37.14 35.83 36.7 37.85 36.15 C38.51 33.84 39.17 31.53 39.85 29.15 C41.79 28.58 41.79 28.58 43.85 28.15 C44.85 29.15 44.85 29.15 44.96 31.55 C44.96 32.6 44.95 33.64 44.95 34.71 C44.94 35.84 44.94 36.96 44.94 38.12 C44.92 39.9 44.92 39.9 44.91 41.71 C44.91 42.9 44.9 44.08 44.9 45.31 C44.88 48.25 44.87 51.2 44.85 54.15 C42.46 53.83 42.46 53.83 39.85 53.15 C36.85 48.28 36.85 48.28 36.85 45.15 C29.92 44.82 22.99 44.49 15.85 44.15 C15.92 48.52 16 52.9 16.11 57.28 C16.14 58.77 16.17 60.26 16.19 61.75 C16.23 63.89 16.28 66.03 16.34 68.17 C16.36 69.46 16.39 70.75 16.42 72.07 C16.56 73.09 16.7 74.1 16.85 75.15 C22.91 79.19 29.81 78.32 36.85 78.15 C38.13 78.12 39.41 78.1 40.72 78.08 C45.26 76.72 47.32 74.05 49.85 70.15 C51.04 67.83 51.95 65.59 52.85 63.15 C54.5 63.48 56.15 63.81 57.85 64.15 C57.56 66.17 57.27 68.19 56.97 70.21 C56.81 71.33 56.65 72.46 56.48 73.62 C55.84 77.18 54.84 80.67 53.85 84.15 C33.72 84.15 13.59 84.15 -7.15 84.15 C-7.48 82.83 -7.81 81.51 -8.15 80.15 C-6.27 78.26 -3.58 78.74 -1.06 78.52 C1.08 78.28 1.08 78.28 2.85 76.15 C3.15 73.29 3.15 73.29 3.09 69.91 C3.09 68.6 3.1 67.28 3.1 65.93 C3.09 64.49 3.09 63.06 3.08 61.62 C3.08 60.15 3.08 58.68 3.08 57.21 C3.08 54.13 3.07 51.04 3.05 47.96 C3.04 44.01 3.03 40.06 3.03 36.1 C3.03 33.07 3.03 30.03 3.02 27 C3.02 25.54 3.02 24.08 3.01 22.62 C3.01 20.59 3 18.55 2.99 16.51 C2.99 15.35 2.99 14.19 2.98 13 C2.97 10.07 2.97 10.07 1.85 7.15 C0.73 7.02 -0.38 6.9 -1.53 6.77 C-5.15 6.15 -5.15 6.15 -7.15 4.15 C-7.15 3.16 -7.15 2.17 -7.15 1.15 C-4.62 -0.12 -2.84 0.01 0 0 Z " fill="#201F1F" transform="translate(827.15234375,310.854736328125)"/>
<path d="M0 0 C-0.58 5.96 -1.46 11.68 -2.81 17.51 C-2.99 18.28 -3.16 19.05 -3.34 19.84 C-3.89 22.27 -4.44 24.7 -5 27.12 C-5.56 29.56 -6.11 32 -6.66 34.43 C-7 35.94 -7.35 37.44 -7.69 38.95 C-8.68 43.29 -9.43 47.59 -10 52 C-9.01 51.01 -8.06 49.99 -7.1 48.96 C0.16 41.38 7.73 34.89 18 32 C20.75 32.19 20.75 32.19 23 33 C26.56 38.34 25.49 44.43 24.32 50.55 C23.41 54.36 22.44 58.15 21.44 61.94 C20.76 64.51 20.09 67.08 19.43 69.65 C19.14 70.78 18.84 71.9 18.53 73.06 C18.02 75.87 18.03 77.36 19 80 C19.76 79.32 20.53 78.64 21.31 77.94 C22.2 77.3 23.09 76.66 24 76 C24.99 76.33 25.98 76.66 27 77 C27.33 77.99 27.66 78.98 28 80 C23.44 85.08 18.54 89.68 12 92 C9.56 91.78 8.31 91.23 6.34 89.78 C5 88 5 88 5.07 85.57 C5.28 84.62 5.48 83.67 5.7 82.7 C5.92 81.64 6.14 80.59 6.36 79.51 C6.61 78.39 6.87 77.27 7.12 76.12 C7.37 74.99 7.61 73.86 7.85 72.69 C9.09 66.92 10.42 61.17 11.81 55.44 C12.92 50.81 13.28 46.74 13 42 C7.98 43.31 4.76 45.54 1.06 49.06 C0.33 49.72 0.33 49.72 -0.41 50.4 C-2 51.88 -3.51 53.42 -5 55 C-5.61 55.64 -6.21 56.27 -6.84 56.93 C-12.95 63.95 -13.99 71.3 -15.42 80.29 C-16.03 83.43 -16.6 86.12 -18 89 C-20.89 90.87 -23.6 91.58 -27 92 C-29 89 -29 89 -28.86 86.83 C-28.67 85.98 -28.49 85.14 -28.3 84.27 C-27.99 82.82 -27.99 82.82 -27.68 81.35 C-27.44 80.3 -27.21 79.25 -26.96 78.18 C-26.73 77.08 -26.49 75.99 -26.25 74.86 C-25.49 71.34 -24.72 67.83 -23.94 64.31 C-23.44 62.02 -22.94 59.74 -22.45 57.45 C-21.46 52.89 -20.47 48.34 -19.48 43.78 C-19.24 42.66 -18.99 41.55 -18.74 40.39 C-18.24 38.11 -17.74 35.83 -17.23 33.56 C-16.5 30.26 -15.78 26.97 -15.07 23.67 C-14.84 22.68 -14.62 21.69 -14.39 20.67 C-13.34 15.8 -12.67 11.93 -14 7 C-15.98 7 -17.96 7 -20 7 C-20.33 6.34 -20.66 5.68 -21 5 C-20.67 4.34 -20.34 3.68 -20 3 C-17.39 2.17 -14.84 1.46 -12.19 0.81 C-11.46 0.62 -10.74 0.43 -9.99 0.24 C-6.27 -0.69 -3.66 -1.13 0 0 Z " fill="#201F1F" transform="translate(560,62)"/>
<path d="M0 0 C1.3 -0 2.59 -0 3.93 -0 C4.95 -0 4.95 -0 5.98 0 C8.05 0.01 10.13 0 12.2 -0 C13.49 -0 14.79 -0 16.12 0 C17.92 0 17.92 0 19.75 0 C22.5 0.13 22.5 0.13 23.5 1.13 C23.54 2.8 23.54 4.47 23.5 6.13 C20.86 6.46 18.22 6.79 15.5 7.13 C16.42 11.92 17.48 16.34 19.33 20.85 C19.69 21.72 20.04 22.59 20.41 23.49 C20.77 24.36 21.13 25.23 21.5 26.13 C22.14 27.73 22.78 29.32 23.43 30.92 C23.74 31.71 24.06 32.5 24.39 33.31 C33.19 55.2 33.19 55.2 36.5 65.13 C37.16 65.13 37.82 65.13 38.5 65.13 C38.73 64.3 38.73 64.3 38.96 63.45 C41.19 55.7 44.03 48.22 46.93 40.7 C48.79 35.84 50.65 30.99 52.5 26.13 C52.9 25.08 53.31 24.02 53.73 22.94 C54.09 21.97 54.45 21.01 54.83 20.02 C55.15 19.18 55.46 18.35 55.79 17.48 C56.86 13.92 56.78 10.83 56.5 7.13 C55.38 7.05 54.27 6.97 53.12 6.88 C49.5 6.13 49.5 6.13 48.06 4.07 C47.78 3.11 47.78 3.11 47.5 2.13 C50.22 -0.59 51.72 -0.13 55.53 -0.13 C56.73 -0.14 57.93 -0.14 59.17 -0.14 C60.43 -0.13 61.7 -0.13 63 -0.12 C64.26 -0.12 65.52 -0.13 66.82 -0.14 C68.02 -0.14 69.23 -0.14 70.46 -0.13 C71.57 -0.13 72.68 -0.13 73.82 -0.13 C76.5 0.13 76.5 0.13 78.5 2.13 C78.39 4.19 78.39 4.19 77.5 6.13 C75.61 6.83 75.61 6.83 73.25 7.26 C70.51 8.1 68.92 8.63 67.07 10.84 C65.69 13.55 64.59 16.29 63.5 19.13 C62.86 20.69 62.23 22.26 61.59 23.82 C60.23 27.18 58.88 30.56 57.56 33.94 C56.11 37.62 54.6 41.28 53.07 44.94 C50.37 51.37 47.86 57.87 45.37 64.38 C44.94 65.5 44.51 66.62 44.07 67.77 C41.86 73.55 39.66 79.34 37.5 85.13 C35.52 85.13 33.54 85.13 31.5 85.13 C28.82 79.28 26.39 73.39 24.18 67.35 C23.56 65.68 22.94 64 22.32 62.33 C22 61.47 21.68 60.61 21.35 59.73 C16.67 47.08 11.97 34.43 6.87 21.95 C6.49 21 6.12 20.05 5.73 19.08 C3.65 14.07 1.73 10.58 -2.5 7.13 C-3.41 6.78 -4.32 6.43 -5.25 6.07 C-6 5.76 -6.74 5.45 -7.5 5.13 C-8.32 3.01 -8.32 3.01 -8.5 1.13 C-5.65 -0.3 -3.19 0 0 0 Z " fill="#201F1F" transform="translate(726.50390625,310.8671875)"/>
<path d="M0 0 C1.26 -0 2.51 -0 3.8 -0 C4.46 -0 5.12 0 5.8 0 C7.8 0.01 9.81 0 11.82 -0 C13.08 -0 14.33 -0 15.62 0 C16.79 0 17.95 0 19.14 0 C21.81 0.13 21.81 0.13 22.81 1.13 C22.85 2.8 22.86 4.47 22.81 6.13 C20.5 6.46 18.19 6.79 15.81 7.13 C18.33 15.16 22.63 22 27.1 29.06 C27.58 29.82 28.06 30.57 28.55 31.35 C28.98 32.03 29.42 32.71 29.87 33.41 C30.81 35.13 30.81 35.13 30.81 37.13 C31.47 37.13 32.13 37.13 32.81 37.13 C32.81 37.79 32.81 38.45 32.81 39.13 C36.98 37.05 38.73 31.12 40.81 27.13 C41.56 25.75 42.31 24.37 43.05 22.98 C43.81 21.56 44.56 20.13 45.31 18.7 C45.69 18.01 46.06 17.32 46.45 16.62 C48.48 12.84 48.48 12.84 48.19 8.72 C46.84 6.91 46.84 6.91 44.25 6.13 C43.45 5.8 42.64 5.47 41.81 5.13 C41 3.01 41 3.01 40.81 1.13 C45.16 -1.04 51.04 -0.05 55.81 -0.05 C57.03 -0.07 58.24 -0.08 59.49 -0.09 C61.23 -0.09 61.23 -0.09 63 -0.1 C64.6 -0.1 64.6 -0.1 66.23 -0.11 C68.81 0.13 68.81 0.13 70.81 2.13 C70.73 4.18 70.73 4.18 69.81 6.13 C67.74 6.87 67.74 6.87 65.13 7.34 C59.82 8.75 57.88 10.77 55.07 15.39 C54.39 16.63 54.39 16.63 53.69 17.88 C53.19 18.73 52.69 19.57 52.17 20.44 C50.68 22.98 49.24 25.55 47.81 28.13 C47.39 28.89 46.97 29.65 46.54 30.43 C44.21 34.62 41.98 38.86 39.81 43.13 C39.28 44.01 39.28 44.01 38.74 44.9 C36.83 49.51 37.48 54.8 37.5 59.71 C37.5 61.76 37.48 63.8 37.45 65.84 C37.45 67.13 37.45 68.41 37.45 69.73 C37.45 70.91 37.44 72.09 37.44 73.31 C37.56 74.24 37.69 75.17 37.81 76.13 C41.26 78.43 43.75 78.67 47.81 79.13 C48.14 80.78 48.47 82.43 48.81 84.13 C37.26 84.13 25.71 84.13 13.81 84.13 C13.48 82.81 13.15 81.49 12.81 80.13 C14.7 78.25 17.38 78.73 19.9 78.51 C22.05 78.27 22.05 78.27 23.81 76.13 C25.73 61.41 25.71 47.29 16.81 35.13 C15.52 32.99 14.28 30.83 13.05 28.65 C11.38 25.74 9.66 22.87 7.93 20 C6.98 18.41 6.05 16.8 5.12 15.19 C1.8 9.7 -1.2 7.51 -7.19 5.13 C-7.19 -1.08 -5.65 0.01 0 0 Z " fill="#201F1F" transform="translate(1204.1875,310.8671875)"/>
<path d="M0 0 C0.54 0.32 1.08 0.65 1.64 0.98 C4.52 2.22 6.67 2.25 9.81 2.26 C10.97 2.27 12.14 2.27 13.35 2.28 C14.6 2.27 15.86 2.27 17.16 2.27 C18.45 2.27 19.75 2.27 21.08 2.27 C23.82 2.27 26.55 2.27 29.29 2.26 C32.79 2.25 36.3 2.26 39.8 2.27 C43.15 2.28 46.5 2.27 49.84 2.27 C51.73 2.27 51.73 2.27 53.65 2.28 C55.41 2.27 55.41 2.27 57.19 2.26 C58.22 2.26 59.25 2.26 60.31 2.25 C63.03 2 64.68 1.4 67 0 C70.33 6.66 69.15 16.67 69 24 C67.68 24 66.36 24 65 24 C64.65 23.16 64.3 22.31 63.93 21.45 C61.16 14.81 61.16 14.81 55.94 10.25 C50.3 9.89 44.65 10 39 10 C39 32.77 39 55.54 39 79 C43 80.6 46.86 81.86 51 83 C51.33 84.32 51.66 85.64 52 87 C40.12 87 28.24 87 16 87 C15.67 85.68 15.34 84.36 15 83 C16.65 81.35 18.81 81.37 21.06 80.94 C22.44 80.67 22.44 80.67 23.85 80.4 C24.56 80.27 25.27 80.14 26 80 C26.02 71.02 26.04 62.04 26.05 53.06 C26.06 48.89 26.06 44.72 26.08 40.56 C26.09 36.54 26.09 32.52 26.09 28.5 C26.1 26.96 26.1 25.42 26.11 23.88 C26.11 21.74 26.11 19.59 26.11 17.45 C26.12 16.22 26.12 15 26.12 13.74 C26.31 11.09 26.31 11.09 25 10 C22.19 9.96 19.43 10.01 16.62 10.12 C15.84 10.14 15.06 10.15 14.26 10.16 C12.06 10.25 10.12 10.41 8 11 C5.96 13.17 5.96 13.17 5 16 C4.61 16.81 4.23 17.62 3.83 18.46 C3.5 19.23 3.16 20.01 2.81 20.81 C2.47 21.6 2.12 22.39 1.77 23.21 C1.52 23.8 1.26 24.39 1 25 C-0.32 24.67 -1.64 24.34 -3 24 C-3.2 8.24 -3.2 8.24 -2 2 C-1.34 1.34 -0.68 0.68 0 0 Z " fill="#201F1F" transform="translate(1110,308)"/>
<path d="M0 0 C3.51 6.02 3.14 13.25 3 20 C0.83 19.49 -1 19 -3 18 C-4.34 15.53 -5.5 12.99 -6.68 10.45 C-7.94 8.12 -8.95 6.64 -11 5 C-16.67 3.44 -20.94 4.23 -26 7 C-29.66 10.25 -29.9 12.6 -30.25 17.44 C-29.93 22 -28.93 24.2 -25.58 27.32 C-21.66 30.48 -17.44 32.89 -13.02 35.27 C-0.59 42 -0.59 42 3 48 C3.4 48.61 3.81 49.23 4.23 49.86 C7.31 55.1 7.91 60.01 7 66 C5.23 72.17 2.19 77.16 -3 81 C-11.7 85.43 -21.72 86.67 -31.22 84.14 C-34.57 82.92 -37.81 81.59 -41 80 C-41.85 77.05 -41.85 77.05 -42.62 73.31 C-42.89 72.09 -43.15 70.87 -43.41 69.61 C-43.95 66.32 -44.11 63.32 -44 60 C-42.02 59.5 -42.02 59.5 -40 59 C-39.56 59.88 -39.13 60.76 -38.68 61.67 C-33.57 72.07 -33.57 72.07 -24 78 C-19.06 78.4 -14.53 78.66 -9.94 76.69 C-7.28 74.37 -6.1 72.65 -5.56 69.14 C-5.24 61.38 -5.24 61.38 -8.69 54.69 C-13.74 49.82 -19.97 46.5 -26 43 C-32.45 39.1 -39.27 34.95 -41.88 27.5 C-41.94 26.26 -41.94 26.26 -42 25 C-42.12 23.39 -42.12 23.39 -42.25 21.75 C-41.78 14.7 -40.24 9.74 -35.12 4.69 C-25.54 -3.09 -11.3 -5.8 0 0 Z " fill="#201F1F" transform="translate(1033,312)"/>
<path d="M0 0 C2.82 4.43 3.44 8.18 3.69 13.38 C3.75 14.62 3.82 15.87 3.89 17.15 C3.94 18.56 3.94 18.56 4 20 C2.68 20.33 1.36 20.66 0 21 C0 20.34 0 19.68 0 19 C-0.66 19 -1.32 19 -2 19 C-2.33 18.11 -2.33 18.11 -2.66 17.21 C-4.91 11.62 -6.76 8.12 -12 5 C-16.17 4.14 -19.34 4.76 -23.31 6.19 C-27.25 8.84 -28.51 11.4 -29.88 15.88 C-30.04 19.92 -29.3 22.72 -27 26 C-22.58 30.43 -17.55 33.32 -11.94 36 C-4.15 39.76 2.2 44.47 6.14 52.35 C8.18 58.65 8.36 65.47 5.96 71.69 C2.36 77.63 -3.19 82.27 -9.77 84.64 C-18.71 86.09 -29.55 86.17 -37.95 82.59 C-41.33 79.97 -41.92 76.92 -42.65 72.83 C-42.76 71.9 -42.88 70.96 -43 70 C-43.2 68.8 -43.2 68.8 -43.41 67.57 C-44.22 62.44 -44.22 62.44 -43 60 C-40.61 60.21 -40.61 60.21 -38 61 C-36.95 63.04 -36.95 63.04 -36.25 65.62 C-34.06 71.72 -30.74 75.05 -25 78 C-20.2 79.41 -15.8 79.59 -11.06 77.88 C-7.56 75.73 -6.37 74.87 -5 71 C-3.97 65.89 -3.9 61.84 -6.63 57.27 C-11.15 51.92 -15.99 48.53 -22.22 45.43 C-29.63 41.62 -36.07 37.13 -40.25 29.81 C-42.27 22.25 -41.36 16.07 -37.54 9.26 C-33.72 3.65 -29.05 0.35 -22.52 -1.54 C-15.11 -2.9 -7.03 -2.81 0 0 Z " fill="#201F1F" transform="translate(867,190)"/>
<path d="M0 0 C5.88 0.88 5.88 0.88 7 2 C8.77 2.1 10.54 2.14 12.31 2.15 C14.02 2.15 14.02 2.15 15.75 2.16 C17.61 2.17 17.61 2.17 19.5 2.17 C20.76 2.17 22.01 2.17 23.31 2.18 C25.98 2.18 28.65 2.19 31.32 2.19 C34.74 2.19 38.17 2.2 41.59 2.22 C44.85 2.23 48.11 2.23 51.37 2.23 C52.6 2.24 53.84 2.24 55.11 2.25 C56.25 2.25 57.38 2.25 58.56 2.24 C59.56 2.24 60.57 2.25 61.6 2.25 C64.18 2.24 64.18 2.24 66 0 C68.12 0.38 68.12 0.38 70 1 C70.85 8.69 71.12 16.26 71 24 C69.68 24 68.36 24 67 24 C67 23.34 67 22.68 67 22 C66.34 22 65.68 22 65 22 C64.35 20.05 63.7 18.09 63.05 16.14 C61.87 13.43 61.87 13.43 58 10 C52.39 9.67 46.78 9.34 41 9 C41 32.1 41 55.2 41 79 C44.63 79.99 48.26 80.98 52 82 C52.33 83.65 52.66 85.3 53 87 C48.05 87.07 43.1 87.13 38.16 87.16 C36.47 87.18 34.79 87.2 33.1 87.23 C30.69 87.26 28.27 87.28 25.85 87.29 C25.1 87.31 24.34 87.32 23.56 87.34 C21.44 87.34 21.44 87.34 18 87 C17.34 86.01 16.68 85.02 16 84 C16.33 83.34 16.66 82.68 17 82 C19.29 81.37 19.29 81.37 22.06 80.88 C22.98 80.71 23.9 80.54 24.85 80.37 C25.56 80.25 26.27 80.12 27 80 C28.12 76.64 28.16 74.05 28.21 70.51 C28.22 69.86 28.23 69.2 28.24 68.53 C28.27 66.37 28.29 64.21 28.32 62.05 C28.34 60.55 28.36 59.06 28.38 57.56 C28.43 53.62 28.48 49.68 28.53 45.74 C28.58 41.71 28.64 37.69 28.69 33.67 C28.8 25.78 28.9 17.89 29 10 C26.44 9.95 23.88 9.91 21.31 9.88 C20.59 9.86 19.87 9.84 19.13 9.82 C14.98 9.79 11.65 9.95 8 12 C6.32 14.83 6.32 14.83 5.19 18.12 C4.77 19.22 4.35 20.32 3.92 21.45 C3.62 22.29 3.31 23.13 3 24 C1.06 23.62 1.06 23.62 -1 23 C-2.27 20.45 -1.95 19.04 -1.66 16.21 C-1.57 15.27 -1.47 14.33 -1.38 13.36 C-1.27 12.37 -1.17 11.39 -1.06 10.38 C-0.96 9.38 -0.86 8.39 -0.76 7.37 C-0.51 4.91 -0.26 2.46 0 0 Z " fill="#201F1F" transform="translate(684,187)"/>
<path d="M0 0 C2 0.32 4 0.65 6 1 C7.89 1.09 9.78 1.13 11.67 1.13 C13.3 1.13 13.3 1.13 14.96 1.14 C16.7 1.14 16.7 1.14 18.48 1.13 C19.68 1.13 20.88 1.13 22.12 1.14 C24.66 1.14 27.19 1.13 29.73 1.13 C33.62 1.13 37.5 1.13 41.39 1.14 C43.86 1.14 46.32 1.13 48.79 1.13 C49.95 1.13 51.12 1.14 52.32 1.14 C53.4 1.14 54.48 1.13 55.59 1.13 C57.02 1.13 57.02 1.13 58.47 1.13 C60.97 1.09 60.97 1.09 63.21 0.43 C65 0 65 0 67 1 C66.01 8.26 65.02 15.52 64 23 C62.68 23.33 61.36 23.66 60 24 C57.61 21.61 57.71 20.83 57.5 17.56 C57.27 14.06 57.04 13.06 55 10 C50.96 8.83 46.95 8.97 42.77 8.98 C41.15 8.98 41.15 8.98 39.5 8.99 C38.26 8.99 38.26 8.99 37 9 C36.89 9.69 36.77 10.38 36.65 11.09 C36.09 14.48 35.51 17.86 34.94 21.25 C34.72 22.52 34.51 23.8 34.28 25.11 C32.98 32.68 31.58 40.23 30.07 47.77 C29.91 48.58 29.75 49.39 29.58 50.23 C28.78 54.23 27.97 58.23 27.15 62.23 C26.85 63.7 26.55 65.18 26.26 66.66 C26.12 67.33 25.97 68 25.83 68.69 C25.09 72.42 24.88 75.34 26 79 C27.97 80.97 31.35 80.66 34 81 C34.33 82.65 34.66 84.3 35 86 C23.78 86 12.56 86 1 86 C0.67 85.34 0.34 84.68 0 84 C0.5 83.01 0.5 83.01 1 82 C3.25 81.56 5.49 81.3 7.77 81.05 C10.61 79.71 11.11 78.16 12.24 75.33 C13.88 70.29 14.73 65.05 15.7 59.84 C16.06 57.94 16.06 57.94 16.43 56.01 C16.93 53.35 17.43 50.69 17.93 48.02 C18.56 44.62 19.2 41.22 19.85 37.82 C20.47 34.55 21.09 31.29 21.7 28.03 C21.93 26.81 22.16 25.6 22.4 24.34 C22.72 22.64 22.72 22.64 23.04 20.89 C23.22 19.9 23.41 18.9 23.6 17.88 C24.02 14.88 24.07 12.02 24 9 C14.79 8.62 14.79 8.62 6 11 C4.24 13.47 3.18 15.31 2 18 C0.78 20.15 -0.5 22.01 -2 24 C-2.99 24 -3.98 24 -5 24 C-6.05 20.78 -5.92 18.74 -5.04 15.49 C-4.81 14.65 -4.59 13.81 -4.36 12.94 C-4.12 12.08 -3.87 11.21 -3.62 10.31 C-3.39 9.43 -3.16 8.55 -2.91 7.65 C-1.15 1.15 -1.15 1.15 0 0 Z " fill="#201F1F" transform="translate(468,66)"/>
<path d="M0 0 C1.19 0.01 2.38 0.02 3.6 0.03 C4.52 0.04 5.43 0.05 6.38 0.06 C6.76 0.82 7.15 1.57 7.55 2.35 C9.02 5.21 10.5 8.08 11.97 10.94 C12.6 12.17 13.24 13.39 13.87 14.62 C17.67 22.03 21.61 29.33 25.88 36.49 C27.25 38.85 28.49 41.23 29.69 43.69 C31.14 47.04 31.14 47.04 33.38 49.06 C33.4 44.4 33.42 39.74 33.43 35.09 C33.43 33.5 33.44 31.92 33.45 30.34 C33.51 20.09 33.39 10.15 31.38 0.06 C35.66 0.39 39.96 0.72 44.38 1.06 C43.9 3.48 43.9 3.48 43.41 5.95 C41.69 17.17 41.9 28.55 41.75 39.88 C41.71 42.22 41.67 44.57 41.63 46.92 C41.54 52.64 41.45 58.35 41.38 64.06 C39.59 64.11 37.81 64.14 36.03 64.16 C34.54 64.19 34.54 64.19 33.02 64.22 C30.38 64.06 30.38 64.06 27.88 62.44 C26.14 59.69 24.65 56.95 23.25 54 C22.65 52.75 22.04 51.5 21.43 50.26 C21.11 49.59 20.78 48.92 20.44 48.22 C18.47 44.24 16.39 40.31 14.31 36.38 C13.91 35.62 13.51 34.86 13.1 34.08 C9.92 28.04 6.65 22.05 3.38 16.06 C3.35 21.61 3.33 27.16 3.32 32.71 C3.32 34.6 3.31 36.48 3.3 38.37 C3.29 41.09 3.28 43.81 3.28 46.53 C3.27 47.36 3.27 48.2 3.26 49.06 C3.26 54.15 3.64 59.02 4.38 64.06 C0.42 64.06 -3.55 64.06 -7.62 64.06 C-7.46 62.79 -7.3 61.52 -7.13 60.2 C-6.56 55.06 -6.48 49.98 -6.49 44.8 C-6.49 43.38 -6.49 43.38 -6.49 41.93 C-6.49 39.95 -6.49 37.96 -6.49 35.97 C-6.5 32.94 -6.49 29.91 -6.49 26.88 C-6.49 24.94 -6.49 23 -6.49 21.05 C-6.49 20.16 -6.49 19.26 -6.49 18.33 C-6.51 12.4 -6.73 6.74 -8.62 1.06 C-5.74 -0.38 -3.21 -0.03 0 0 Z " fill="#201F1F" transform="translate(508.625,434.9375)"/>
<path d="M0 0 C1.3 -0.02 1.3 -0.02 2.63 -0.04 C10.96 -0.06 18.91 0.57 25.44 6.19 C30.03 11.74 29.88 16.82 29.87 23.88 C29.2 28.96 27.25 31.42 23.56 34.88 C18.33 38.74 14.62 39.43 8.12 39.31 C6.24 39.29 6.24 39.29 4.32 39.26 C2.9 39.22 2.9 39.22 1.44 39.19 C1.55 42.23 1.68 45.27 1.81 48.31 C1.86 49.6 1.86 49.6 1.91 50.91 C1.94 51.74 1.98 52.58 2.02 53.45 C2.05 54.21 2.09 54.97 2.12 55.76 C2.45 58.85 2.45 58.85 4.44 64.19 C-0.18 64.19 -4.8 64.19 -9.56 64.19 C-10.91 61.49 -10.18 60.1 -9.56 57.19 C-9.47 55.57 -9.42 53.96 -9.42 52.34 C-9.41 51.41 -9.4 50.47 -9.4 49.51 C-9.4 48.51 -9.4 47.51 -9.39 46.48 C-9.39 45.44 -9.39 44.4 -9.38 43.33 C-9.38 41.13 -9.38 38.94 -9.38 36.74 C-9.38 33.4 -9.36 30.05 -9.34 26.71 C-9.33 24.57 -9.33 22.43 -9.33 20.29 C-9.32 19.3 -9.32 18.31 -9.31 17.28 C-9.33 11.57 -9.93 6.67 -11.56 1.19 C-8.01 -0.59 -3.91 0 0 0 Z " fill="#201F1F" transform="translate(810.5625,434.8125)"/>
<path d="M0 0 C3.23 2.08 4.87 3.8 7 7 C7.76 10.78 7.78 14.39 6.08 17.9 C-0.69 26.7 -12.55 31.37 -23 34 C-23.99 34 -24.98 34 -26 34 C-26.09 41.88 -26.09 41.88 -22.88 48.75 C-19.1 50.39 -17.1 50.61 -13 50 C-7.98 48 -3.82 45.83 0 42 C0.66 42 1.32 42 2 42 C2.66 43.32 3.32 44.64 4 46 C-2.34 53.31 -9.92 58.77 -19.69 60.12 C-24.94 60.34 -28.78 59.13 -33 56 C-37.99 50.69 -37.4 44.06 -37.28 37.22 C-36.78 26.28 -31.75 16.17 -23.75 8.75 C-16.98 3.32 -8.77 -0.76 0 0 Z " fill="#201F1F" transform="translate(633,94)"/>
<path d="M0 0 C0 3.63 0 7.26 0 11 C-4.74 8.24 -4.74 8.24 -6.75 6.42 C-11.47 3.44 -17.63 4.47 -23 5 C-28.5 6.43 -31.8 9.31 -34.99 13.93 C-39.08 22.35 -39.74 33.61 -36.94 42.56 C-34.27 47.3 -31.22 50.67 -26.12 52.78 C-20.88 54.23 -15.4 54.56 -10 55 C-10.14 51.94 -10.29 48.87 -10.44 45.81 C-10.48 44.95 -10.52 44.08 -10.56 43.19 C-10.76 39.04 -11 35.05 -12 31 C-9.9 30.95 -7.79 30.91 -5.69 30.88 C-3.93 30.84 -3.93 30.84 -2.14 30.8 C1 31 1 31 4 33 C3.34 33.99 2.68 34.98 2 36 C0.63 40.8 0.66 45.85 0.44 50.81 C0.37 52.14 0.37 52.14 0.31 53.49 C0.2 55.66 0.1 57.83 0 60 C-13.51 63.23 -27.2 63.5 -39.44 56.06 C-46.21 50.96 -48.64 43.12 -50 35 C-51.21 24.87 -47.78 14.07 -41.83 5.87 C-32.19 -3.99 -11.8 -6.91 0 0 Z " fill="#201F1F" transform="translate(715,438)"/>
<path d="M0 0 C0.7 -0 1.41 -0 2.13 -0.01 C3.62 -0.01 5.1 -0 6.59 0 C8.87 0.02 11.14 0 13.42 -0.01 C14.86 -0.01 16.31 -0 17.75 0 C19.07 0 20.38 0 21.74 0.01 C24.88 0.27 24.88 0.27 26.88 2.27 C26.5 4.39 26.5 4.39 25.88 6.27 C24.92 6.43 24.92 6.43 23.94 6.6 C23.12 6.76 22.29 6.91 21.44 7.08 C20.61 7.23 19.79 7.38 18.94 7.54 C18.26 7.78 17.58 8.02 16.88 8.27 C15.77 11.57 15.73 14.06 15.71 17.54 C15.7 18.84 15.69 20.13 15.68 21.46 C15.68 22.88 15.68 24.29 15.67 25.71 C15.67 27.16 15.66 28.6 15.65 30.05 C15.64 33.09 15.64 36.12 15.63 39.15 C15.63 43.05 15.61 46.94 15.58 50.83 C15.56 53.82 15.55 56.81 15.55 59.8 C15.55 61.24 15.54 62.67 15.53 64.11 C15.51 66.11 15.51 68.12 15.52 70.12 C15.51 71.26 15.51 72.4 15.51 73.58 C15.63 74.46 15.75 75.35 15.88 76.27 C19.16 78.46 22.08 79.26 25.88 80.27 C25.88 81.59 25.88 82.91 25.88 84.27 C14.65 84.27 3.43 84.27 -8.12 84.27 C-8.45 83.61 -8.79 82.95 -9.12 82.27 C-7.12 79.27 -7.12 79.27 -5.21 78.82 C-4.5 78.78 -3.79 78.74 -3.06 78.7 C-1.11 78.49 -1.11 78.49 0.88 78.27 C2.27 75.47 2 73.16 2 70.03 C2.01 68.72 2.01 67.4 2.01 66.05 C2.01 64.61 2.01 63.18 2.01 61.74 C2.01 60.27 2.01 58.8 2.01 57.33 C2.01 54.25 2.01 51.16 2.01 48.08 C2 44.13 2 40.18 2.01 36.22 C2.01 33.19 2.01 30.15 2.01 27.12 C2.01 25.66 2.01 24.2 2.01 22.74 C2.01 20.71 2.01 18.67 2 16.63 C2 15.47 2 14.31 2 13.12 C2 10.19 2 10.19 0.88 7.27 C-0.4 7.18 -1.68 7.1 -3 7.02 C-5.21 6.75 -5.21 6.75 -7.12 6.27 C-8.62 4.2 -8.62 4.2 -9.12 2.27 C-6.22 -0.64 -4.06 0.01 0 0 Z " fill="#201F1F" transform="translate(1064.125,310.734375)"/>
<path d="M0 0 C4.66 -0.05 9.33 -0.09 13.99 -0.11 C15.58 -0.12 17.16 -0.13 18.75 -0.15 C21.03 -0.18 23.31 -0.19 25.59 -0.2 C26.3 -0.21 27.01 -0.22 27.74 -0.23 C29.5 -0.23 31.25 -0.12 33 0 C35 2 35 2 35 5 C34.29 5.19 33.58 5.39 32.85 5.59 C31.47 5.98 31.47 5.98 30.06 6.38 C28.69 6.76 28.69 6.76 27.29 7.15 C24.83 7.77 24.83 7.77 24 10 C23.88 12.05 23.83 14.1 23.81 16.15 C23.79 17.44 23.78 18.73 23.76 20.06 C23.75 21.48 23.74 22.89 23.73 24.31 C23.72 25.02 23.72 25.73 23.71 26.46 C23.68 30.23 23.66 33.99 23.65 37.76 C23.63 41.65 23.59 45.54 23.54 49.43 C23.5 52.42 23.49 55.41 23.49 58.4 C23.48 59.84 23.46 61.27 23.44 62.71 C23.41 64.71 23.41 66.72 23.42 68.72 C23.41 69.87 23.4 71.01 23.39 72.19 C23.72 75.19 23.72 75.19 26.36 76.82 C28.89 77.95 31.41 79.04 34 80 C34 81.32 34 82.64 34 84 C29.34 84.07 24.67 84.13 20.01 84.16 C18.42 84.18 16.84 84.2 15.25 84.23 C12.97 84.26 10.69 84.28 8.41 84.29 C7.7 84.31 6.99 84.32 6.26 84.34 C4.26 84.34 4.26 84.34 1 84 C0.34 83.01 -0.32 82.02 -1 81 C-0.5 80.01 -0.5 80.01 0 79 C2.03 78.4 2.03 78.4 4.5 77.94 C7.54 77.54 7.54 77.54 10 76 C10.12 73.93 10.17 71.86 10.19 69.78 C10.2 69.13 10.21 68.49 10.22 67.82 C10.24 65.66 10.26 63.51 10.27 61.35 C10.28 60.62 10.28 59.88 10.29 59.13 C10.32 55.24 10.34 51.35 10.35 47.46 C10.37 43.44 10.41 39.42 10.46 35.4 C10.5 32.32 10.51 29.23 10.51 26.14 C10.52 24.66 10.54 23.18 10.56 21.69 C10.59 19.62 10.59 17.55 10.58 15.48 C10.59 14.29 10.6 13.11 10.61 11.9 C10.29 8.82 10.29 8.82 7.64 7.17 C5.11 6.05 2.59 4.96 0 4 C0 2.68 0 1.36 0 0 Z " fill="#201F1F" transform="translate(771,190)"/>
<path d="M0 0 C0.68 -0 1.37 -0 2.07 -0 C3.51 -0 4.96 -0 6.4 0 C8.62 0.01 10.83 0 13.05 -0 C14.45 -0 15.85 -0 17.25 0 C18.53 0 19.81 0 21.13 0 C24.06 0.13 24.06 0.13 25.06 1.13 C25.1 2.8 25.1 4.47 25.06 6.13 C24.1 6.3 24.1 6.3 23.12 6.46 C22.3 6.62 21.47 6.78 20.62 6.95 C19.8 7.1 18.97 7.25 18.12 7.4 C17.44 7.64 16.76 7.88 16.06 8.13 C14.94 11.49 14.94 14 14.95 17.53 C14.94 18.18 14.94 18.82 14.94 19.48 C14.95 21.61 14.95 23.74 14.96 25.86 C14.96 27.34 14.96 28.81 14.97 30.29 C14.97 34.17 14.98 38.05 14.99 41.93 C15 45.9 15 49.86 15.01 53.82 C15.02 61.59 15.04 69.36 15.06 77.13 C19.51 78.12 19.51 78.12 24.06 79.13 C24.39 80.78 24.72 82.43 25.06 84.13 C14.17 84.13 3.28 84.13 -7.94 84.13 C-8.27 82.81 -8.6 81.49 -8.94 80.13 C-7.38 78.57 -5.52 78.52 -3.38 78.07 C-2.14 77.81 -2.14 77.81 -0.88 77.54 C-0.24 77.4 0.4 77.27 1.06 77.13 C1.08 68.45 1.1 59.77 1.11 51.08 C1.12 47.05 1.12 43.02 1.13 38.98 C1.14 35.09 1.15 31.2 1.15 27.31 C1.16 25.83 1.16 24.34 1.16 22.86 C1.17 20.78 1.17 18.7 1.17 16.62 C1.18 14.85 1.18 14.85 1.18 13.04 C1.19 10.07 1.19 10.07 0.06 7.13 C-1.06 7.01 -2.17 6.89 -3.32 6.76 C-6.94 6.13 -6.94 6.13 -8.94 4.13 C-8.94 3.14 -8.94 2.15 -8.94 1.13 C-5.98 -0.35 -3.3 0 0 0 Z " fill="#201F1F" transform="translate(677.94140625,310.8671875)"/>
<path d="M0 0 C10.89 0 21.78 0 33 0 C33.5 2.47 33.5 2.47 34 5 C30.7 5.66 27.4 6.32 24 7 C23.67 29.77 23.34 52.54 23 76 C26.3 76.99 29.6 77.98 33 79 C33.33 80.65 33.66 82.3 34 84 C24.79 84.09 15.58 84.16 6.38 83.62 C5.17 83.56 3.96 83.49 2.71 83.41 C1.82 83.28 0.92 83.14 0 83 C-0.33 82.34 -0.66 81.68 -1 81 C-0.5 80.01 -0.5 80.01 0 79 C2.03 78.4 2.03 78.4 4.5 77.94 C7.54 77.54 7.54 77.54 10 76 C10.1 73.96 10.14 71.92 10.15 69.88 C10.15 68.56 10.16 67.25 10.16 65.9 C10.17 64.46 10.17 63.01 10.17 61.57 C10.17 60.1 10.17 58.63 10.18 57.16 C10.18 54.07 10.19 50.98 10.19 47.89 C10.19 43.93 10.2 39.97 10.22 36.01 C10.23 32.97 10.23 29.93 10.23 26.89 C10.23 25.43 10.23 23.97 10.24 22.51 C10.25 20.47 10.25 18.43 10.24 16.38 C10.24 15.22 10.25 14.06 10.25 12.86 C10.21 9.8 10.21 9.8 8 7 C6.05 6 6.05 6 3.88 5.31 C3.15 5.06 2.43 4.81 1.68 4.55 C1.13 4.37 0.57 4.19 0 4 C0 2.68 0 1.36 0 0 Z " fill="#201F1F" transform="translate(632,190)"/>
<path d="M0 0 C1.12 -0 1.12 -0 2.27 -0.01 C3.85 -0.02 5.44 -0.02 7.03 -0.02 C9.46 -0.02 11.89 -0.04 14.32 -0.06 C15.86 -0.06 17.4 -0.06 18.94 -0.06 C20.03 -0.07 20.03 -0.07 21.15 -0.08 C26.31 -0.06 26.31 -0.06 28.54 2.17 C28.73 4.33 28.73 4.33 28.66 6.79 C28.64 7.61 28.62 8.43 28.61 9.27 C28.58 9.9 28.56 10.52 28.54 11.17 C27.55 10.69 26.56 10.22 25.54 9.73 C18.86 7.17 11.58 7.46 4.54 7.17 C4.87 14.43 5.2 21.69 5.54 29.17 C12.8 28.71 19.55 28.22 26.54 26.17 C27.03 33.59 27.03 33.59 27.54 41.17 C26.55 40.67 26.55 40.67 25.54 40.17 C25.54 39.51 25.54 38.85 25.54 38.17 C18.4 36.43 11.88 35.98 4.54 36.17 C4.87 42.77 5.2 49.37 5.54 56.17 C8.24 56.23 10.94 56.29 13.72 56.36 C14.56 56.38 15.41 56.41 16.27 56.44 C20.94 56.49 23.63 55.97 27.54 53.17 C28.2 53.17 28.86 53.17 29.54 53.17 C30.03 52.18 30.03 52.18 30.54 51.17 C30.21 55.46 29.88 59.75 29.54 64.17 C17.33 64.17 5.12 64.17 -7.46 64.17 C-7.79 63.51 -8.12 62.85 -8.46 62.17 C-8.13 61.51 -7.8 60.85 -7.46 60.17 C-6.13 51.57 -6.28 42.78 -6.28 34.1 C-6.28 31.8 -6.26 29.51 -6.24 27.21 C-6.21 19.13 -6.62 11.47 -8.13 3.49 C-8.24 2.72 -8.35 1.96 -8.46 1.17 C-6.5 -0.8 -2.69 0 0 0 Z " fill="#201F1F" transform="translate(615.46484375,434.83203125)"/>
<path d="M0 0 C2.94 -0.05 5.87 -0.09 8.81 -0.12 C10.06 -0.15 10.06 -0.15 11.34 -0.18 C12.14 -0.18 12.94 -0.19 13.77 -0.2 C14.51 -0.21 15.25 -0.22 16.01 -0.23 C18 0 18 0 21 2 C20.01 2.99 19.02 3.98 18 5 C21.67 17.55 21.67 17.55 30 27 C30.23 26.22 30.45 25.43 30.69 24.62 C31.8 21.56 33.05 18.93 34.56 16.06 C37.42 10.46 38.55 6.22 37 0 C42.94 0.33 48.88 0.66 55 1 C53.35 2.65 51.7 4.3 50 6 C48.39 8.19 48.39 8.19 47.06 10.48 C46.56 11.31 46.06 12.14 45.55 12.99 C43.46 16.54 41.38 20.1 39.33 23.67 C38.28 25.51 37.2 27.34 36.11 29.16 C30.47 39.65 32.17 52.85 35 64 C30.38 64 25.76 64 21 64 C20.67 63.34 20.34 62.68 20 62 C20.33 61.34 20.66 60.68 21 60 C22.48 46.41 22.46 34.98 14.19 23.73 C11.93 20.45 10.14 16.88 8.25 13.38 C5.91 9.04 3.58 5.43 0 2 C0 1.34 0 0.68 0 0 Z " fill="#201F1F" transform="translate(731,435)"/>
<path d="M0 0 C1.29 0 1.29 0 2.61 0 C3.54 0.01 4.47 0.01 5.43 0.02 C6.38 0.02 7.33 0.02 8.31 0.02 C11.36 0.03 14.4 0.04 17.45 0.05 C19.51 0.06 21.58 0.06 23.64 0.06 C28.7 0.08 33.76 0.09 38.83 0.11 C40.43 3.33 39.88 6.55 39.83 10.11 C38.9 9.8 37.97 9.49 37.01 9.18 C33.7 8.21 30.5 7.83 27.06 7.55 C26.08 7.46 25.1 7.38 24.08 7.29 C23.34 7.24 22.59 7.18 21.83 7.11 C21.92 14.27 22.03 21.42 22.14 28.57 C22.18 31.01 22.22 33.44 22.25 35.87 C22.29 39.37 22.35 42.87 22.41 46.37 C22.42 47.46 22.43 48.54 22.45 49.66 C22.47 50.68 22.49 51.7 22.51 52.75 C22.52 53.64 22.53 54.54 22.55 55.46 C22.79 58.74 22.79 58.74 24.83 64.11 C19.88 64.11 14.93 64.11 9.83 64.11 C9.99 62.86 10.15 61.6 10.32 60.31 C10.92 54.85 10.95 49.44 10.92 43.95 C10.92 42.92 10.92 41.89 10.92 40.83 C10.91 37.57 10.9 34.31 10.89 31.05 C10.88 28.83 10.88 26.6 10.87 24.38 C10.86 18.96 10.85 13.54 10.83 8.11 C9.4 8.07 7.97 8.04 6.54 8.02 C5.75 8 4.95 7.98 4.13 7.96 C0.92 8.17 -1.4 9.56 -4.17 11.11 C-4.83 10.78 -5.49 10.45 -6.17 10.11 C-6.17 7.14 -6.17 4.17 -6.17 1.11 C-3.87 -0.04 -2.57 -0.01 0 0 Z " fill="#201F1F" transform="translate(862.17431640625,434.886474609375)"/>
<path d="M0 0 C6.96 0.09 13.09 1.24 18.56 5.69 C22.89 11.23 23.17 15.77 23.07 22.75 C22.4 27.38 20.85 29.68 17.48 32.83 C12.01 36.89 5.18 37.18 -1.44 36.25 C-3.57 35.18 -3.57 35.18 -5.44 33.25 C-5.91 29.99 -5.91 29.99 -5.86 25.99 C-5.86 25.29 -5.86 24.58 -5.85 23.86 C-5.84 22.38 -5.82 20.89 -5.79 19.41 C-5.75 17.13 -5.73 14.85 -5.72 12.57 C-5.6 0.1 -5.6 0.1 0 0 Z " fill="#FBFCFE" transform="translate(490.4375,231.75)"/>
<path d="M0 0 C4.22 3.62 7.82 8.21 8.39 13.89 C8.52 19.96 7.9 24.91 3.61 29.61 C-2.19 34.92 -6.98 34.98 -14.61 35.11 C-16.81 34.88 -16.81 34.88 -18.81 32.88 C-19.07 30.07 -19.07 30.07 -19.08 26.51 C-19.08 25.23 -19.08 23.95 -19.09 22.63 C-19.08 21.97 -19.08 21.3 -19.07 20.61 C-19.06 18.58 -19.07 16.55 -19.09 14.53 C-19.08 12.6 -19.08 12.6 -19.08 10.64 C-19.08 9.46 -19.07 8.28 -19.07 7.07 C-18.81 3.9 -18.26 1.69 -16.81 -1.12 C-11.84 -3.39 -4.88 -1.95 0 0 Z " fill="#FCFDFF" transform="translate(941.8125,319.125)"/>
<path d="M0 0 C5.48 1.53 8.01 3.68 11.05 8.28 C13.96 13.56 13.77 20.1 12.25 25.81 C9.58 30.48 6.87 33.64 2 36 C-1.52 36.33 -1.52 36.33 -5.25 36.25 C-6.49 36.23 -7.74 36.22 -9.02 36.2 C-12 36 -12 36 -13 35 C-13.24 30.48 -13.23 25.95 -13.24 21.42 C-13.25 19.14 -13.28 16.87 -13.31 14.59 C-13.32 13.15 -13.32 11.7 -13.33 10.26 C-13.34 8.94 -13.35 7.62 -13.36 6.26 C-13 3 -13 3 -11.62 1.07 C-8.19 -1.2 -3.93 -0.42 0 0 Z " fill="#FCFDFF" transform="translate(580,196)"/>
<path d="M0 0 C1.6 -0.02 1.6 -0.02 3.24 -0.04 C6.12 0.19 6.12 0.19 9.12 2.19 C8.13 3.67 8.13 3.67 7.12 5.19 C5.69 14.17 5.94 23.47 5.94 32.55 C5.94 34.69 5.92 36.82 5.9 38.95 C5.87 47.54 6.59 55.71 8.12 64.19 C3.5 64.19 -1.12 64.19 -5.88 64.19 C-6.2 63.53 -6.54 62.87 -6.88 62.19 C-6.55 61.2 -6.21 60.21 -5.88 59.19 C-5.78 57.48 -5.75 55.77 -5.75 54.06 C-5.74 53.02 -5.74 51.97 -5.74 50.9 C-5.74 49.77 -5.74 48.64 -5.74 47.48 C-5.74 46.32 -5.74 45.16 -5.74 43.96 C-5.74 41.5 -5.74 39.05 -5.74 36.59 C-5.75 32.83 -5.74 29.08 -5.74 25.32 C-5.74 22.93 -5.74 20.55 -5.74 18.16 C-5.74 17.04 -5.74 15.92 -5.74 14.76 C-5.74 13.71 -5.74 12.66 -5.75 11.57 C-5.75 10.65 -5.75 9.73 -5.75 8.78 C-5.81 6.14 -5.81 6.14 -6.45 3.41 C-6.59 2.68 -6.73 1.94 -6.88 1.19 C-5.08 -0.61 -2.42 0.01 0 0 Z " fill="#201F1F" transform="translate(468.875,434.8125)"/>
<path d="M0 0 C0 17.49 0 34.98 0 53 C-4.84 50.1 -6.3 48.63 -9.31 44.12 C-9.69 43.56 -10.07 42.99 -10.46 42.41 C-11.65 40.61 -12.83 38.81 -14 37 C-14.59 36.11 -14.59 36.11 -15.19 35.2 C-16.33 33.48 -17.45 31.74 -18.56 30 C-19.22 28.97 -19.89 27.94 -20.57 26.88 C-22.12 23.75 -22.45 22.42 -22 19 C-20.3 16.69 -20.3 16.69 -17.95 14.36 C-17.11 13.51 -16.26 12.67 -15.39 11.81 C-14.5 10.94 -13.61 10.08 -12.69 9.19 C-11.81 8.3 -10.93 7.42 -10.02 6.51 C-3.41 0 -3.41 0 0 0 Z " fill="#263C90" transform="translate(54,364)"/>
<path d="M0 0 C4.08 2.69 7.43 5.3 9 10 C10.15 21.41 10.15 21.41 6.81 25.62 C2.1 29.61 -1.64 30.26 -7.75 30.19 C-8.9 30.18 -10.05 30.17 -11.23 30.17 C-14 30 -14 30 -15 29 C-15.09 26.93 -15.11 24.85 -15.1 22.78 C-15.09 21.52 -15.09 20.26 -15.09 18.96 C-15.08 17.62 -15.07 16.28 -15.06 14.94 C-15.06 13.59 -15.05 12.25 -15.05 10.9 C-15.04 7.6 -15.02 4.3 -15 1 C-9.53 -0.89 -5.6 -1.8 0 0 Z " fill="#FCFDFF" transform="translate(500,196)"/>
<path d="M0 0 C1.77 -0.06 3.54 -0.1 5.31 -0.14 C6.29 -0.17 7.28 -0.19 8.29 -0.22 C11 0 11 0 14.06 2.25 C14.7 3.16 15.34 4.06 16 5 C16.43 5.6 16.87 6.2 17.31 6.81 C18.69 11.19 18.41 15.45 17.25 19.81 C15.77 22.41 14.55 23.45 12 25 C9.24 25.33 9.24 25.33 6.31 25.25 C5.34 25.23 4.37 25.22 3.36 25.2 C1 25 1 25 0 24 C-0.09 22.22 -0.11 20.44 -0.1 18.65 C-0.09 17.57 -0.09 16.49 -0.09 15.38 C-0.08 14.24 -0.07 13.11 -0.06 11.94 C-0.06 10.8 -0.05 9.66 -0.05 8.48 C-0.04 5.65 -0.02 2.83 0 0 Z " fill="#FCFDFF" transform="translate(812,442)"/>
<path d="M0 0 C2.47 2.14 2.93 3.69 3.62 6.88 C2.68 11.59 -0.12 13.39 -4 16 C-8.55 18.75 -12.65 20.46 -18 21 C-19.55 16.36 -17.42 13.24 -15.54 8.89 C-12.17 2.56 -7.26 -0.74 0 0 Z " fill="#FCFDFF" transform="translate(627,101)"/>
</svg>
