<?xml version="1.0" encoding="UTF-8"?>
<!-- Generator: visioncortex VTracer 0.6.3 -->
<svg version="1.1" xmlns="http://www.w3.org/2000/svg" width="1280" height="838">
<path d="M0 0 C422.4 0 844.8 0 1280 0 C1280 276.54 1280 553.08 1280 838 C857.6 838 435.2 838 0 838 C0 561.46 0 284.92 0 0 Z " fill="#F9FCFE" transform="translate(0,0)"/>
<path d="M0 0 C1.34 0.29 2.68 0.63 4 1 C5.01 0.94 6.02 0.88 7.06 0.81 C10 1 10 1 11.88 2.88 C13 5 13 5 13 7 C14.11 6.81 15.23 6.63 16.38 6.44 C20 6 20 6 22 7 C22 7.66 22 8.32 22 9 C22.99 9.33 23.98 9.66 25 10 C25.66 11.81 25.66 11.81 26.06 14 C26.43 16.14 26.43 16.14 27 18 C27.66 18.33 28.32 18.66 29 19 C28.01 16.03 28.01 16.03 27 13 C28.32 13.33 29.64 13.66 31 14 C31.5 16.48 31.5 16.48 32 19 C33.32 19 34.64 19 36 19 C36 19.66 36 20.32 36 21 C36.66 21 37.32 21 38 21 C38.06 21.62 38.12 22.24 38.19 22.88 C38.46 23.58 38.72 24.28 39 25 C40.18 25.34 40.18 25.34 41.38 25.69 C44.55 27.28 44.75 28.12 45.94 31.38 C46.9 34.27 47.23 35.43 46.07 38.29 C45.71 38.85 45.36 39.42 45 40 C45.99 40 46.98 40 48 40 C48.33 39.01 48.66 38.02 49 37 C50.8 39.76 51.01 40.89 50.62 44.25 C50.42 45.16 50.21 46.06 50 47 C50.62 47.29 51.24 47.58 51.88 47.88 C54 49 54 49 56 51 C56.4 53.32 56.74 55.66 57 58 C54.69 58 52.38 58 50 58 C50.33 58.66 50.66 59.32 51 60 C52.49 60.5 52.49 60.5 54 61 C54 60.34 54 59.68 54 59 C54.66 59 55.32 59 56 59 C56.33 59.99 56.66 60.98 57 62 C57.66 62.66 58.32 63.32 59 64 C49.67 64 40.33 64 31 64 C31 63.34 31 62.68 31 62 C30.34 62 29.68 62 29 62 C29 60.35 29 58.7 29 57 C27.02 57 25.04 57 23 57 C23 59.97 23 62.94 23 66 C24.65 66.33 26.3 66.66 28 67 C28 68.32 28 69.64 28 71 C31.3 71 34.6 71 38 71 C38.33 72.98 38.66 74.96 39 77 C38.34 77 37.68 77 37 77 C37 76.34 37 75.68 37 75 C34.22 76.39 34.02 78.16 33 81 C29.62 81.62 29.62 81.62 26 82 C25.34 81.34 24.68 80.68 24 80 C24 79.01 24 78.02 24 77 C21.69 76.34 19.38 75.68 17 75 C17 73.35 17 71.7 17 70 C16.01 70.66 15.02 71.32 14 72 C14 71.01 14 70.02 14 69 C13.34 69 12.68 69 12 69 C11.97 67.56 11.95 66.13 11.94 64.69 C11.93 63.89 11.91 63.09 11.9 62.26 C12 60 12 60 13 57 C11.84 57.03 11.84 57.03 10.66 57.07 C9.66 57.09 8.66 57.11 7.62 57.12 C6.63 57.15 5.63 57.17 4.6 57.2 C2 57 2 57 0 55 C0.38 52.38 0.38 52.38 1 50 C0.42 50.19 -0.15 50.37 -0.75 50.56 C-3.21 51.04 -4.64 50.76 -7 50 C-7.5 50.99 -7.5 50.99 -8 52 C-8 51.34 -8 50.68 -8 50 C-9.65 50 -11.3 50 -13 50 C-13.5 50.99 -13.5 50.99 -14 52 C-14.33 51.34 -14.66 50.68 -15 50 C-15.68 50.08 -16.35 50.17 -17.05 50.25 C-17.94 50.36 -18.83 50.46 -19.75 50.56 C-21.07 50.72 -21.07 50.72 -22.42 50.88 C-25 51 -25 51 -29 50 C-28.67 52.97 -28.34 55.94 -28 59 C-26.68 58.34 -25.36 57.68 -24 57 C-23.01 57.66 -22.02 58.32 -21 59 C-21 58.34 -21 57.68 -21 57 C-20.34 57 -19.68 57 -19 57 C-17.65 59.71 -17.93 62.01 -18 65 C-16.99 64.63 -15.98 64.26 -14.94 63.88 C-10.82 62.68 -8.03 63.56 -4 65 C-2.67 65.34 -1.34 65.68 0 66 C0 65.01 0 64.02 0 63 C1.32 62.34 2.64 61.68 4 61 C4.66 61.66 5.32 62.32 6 63 C5.62 66 5.62 66 5 69 C5 69.66 5 70.32 5 71 C6.65 71 8.3 71 10 71 C10.25 71.97 10.5 72.94 10.75 73.94 C11.16 74.95 11.58 75.96 12 77 C14.02 77.73 14.02 77.73 16 78 C17 81 17 81 16 84 C16.8 83.81 17.61 83.63 18.44 83.44 C19.71 83.22 19.71 83.22 21 83 C22 84 22 84 22.06 87.06 C22.04 88.03 22.02 89 22 90 C23.32 89.67 24.64 89.34 26 89 C26.66 90.98 27.32 92.96 28 95 C29.32 94.34 30.64 93.68 32 93 C32.33 94.65 32.66 96.3 33 98 C29.53 98.5 29.53 98.5 26 99 C26.33 100.65 26.66 102.3 27 104 C24 105 24 105 21 105 C20.82 106.81 20.82 106.81 20.63 108.65 C20.46 110.22 20.29 111.8 20.12 113.38 C20.05 114.17 19.97 114.96 19.89 115.78 C19.23 121.77 19.23 121.77 17 124 C17 123.34 17 122.68 17 122 C15.68 122 14.36 122 13 122 C12.94 122.85 12.88 123.71 12.82 124.59 C12.69 126.25 12.69 126.25 12.56 127.94 C12.44 129.59 12.44 129.59 12.32 131.28 C12 134 12 134 11 135 C9.33 135.04 7.67 135.04 6 135 C6 137.31 6 139.62 6 142 C4.35 142 2.7 142 1 142 C0.67 144.31 0.34 146.62 0 149 C-1.32 149 -2.64 149 -4 149 C-4.66 151.31 -5.32 153.62 -6 156 C-6.66 155.67 -7.32 155.34 -8 155 C-8 153.35 -8 151.7 -8 150 C-8.99 150 -9.98 150 -11 150 C-12.11 145.96 -12 142.17 -12 138 C-12.96 137.85 -12.96 137.85 -13.94 137.69 C-14.96 137.35 -14.96 137.35 -16 137 C-16.33 136.01 -16.66 135.02 -17 134 C-13.25 132.88 -13.25 132.88 -11 134 C-11.33 131.36 -11.66 128.72 -12 126 C-13.32 125.67 -14.64 125.34 -16 125 C-17.17 117.23 -17.17 117.23 -16 113 C-16.39 110.32 -16.39 110.32 -17 108 C-17.66 108.99 -18.32 109.98 -19 111 C-19.66 109.68 -20.32 108.36 -21 107 C-21.66 107 -22.32 107 -23 107 C-23.66 107.66 -24.32 108.32 -25 109 C-25 108.01 -25 107.02 -25 106 C-26.32 106 -27.64 106 -29 106 C-29.33 106.66 -29.66 107.32 -30 108 C-30 107.34 -30 106.68 -30 106 C-30.76 106.1 -31.52 106.19 -32.3 106.29 C-33.29 106.4 -34.29 106.51 -35.31 106.62 C-36.3 106.74 -37.28 106.86 -38.3 106.98 C-41 107 -41 107 -44 105 C-44.19 102.38 -44.19 102.38 -44 100 C-45.65 99.67 -47.3 99.34 -49 99 C-49.5 96.52 -49.5 96.52 -50 94 C-50.62 93.86 -51.24 93.71 -51.88 93.56 C-54 93 -54 93 -56 92 C-56.12 84.25 -56.12 84.25 -55 82 C-56.65 82 -58.3 82 -60 82 C-59.01 81.5 -59.01 81.5 -58 81 C-58 80.34 -58 79.68 -58 79 C-54.91 77.24 -53.77 77 -50 77 C-49.67 75.35 -49.34 73.7 -49 72 C-46.52 71.5 -46.52 71.5 -44 71 C-44.52 70.48 -45.03 69.97 -45.56 69.44 C-47.57 66.03 -46.8 63.77 -46 60 C-45.81 60.62 -45.63 61.24 -45.44 61.88 C-43.29 65.06 -40.62 65.19 -37 66 C-37.35 65.32 -37.7 64.64 -38.06 63.94 C-39.25 60.23 -38.64 57.83 -38 54 C-38 51.63 -38.06 49.28 -38.16 46.92 C-38 45 -38 45 -36 43 C-35.67 43.99 -35.34 44.98 -35 46 C-33.33 45.97 -33.33 45.97 -31.62 45.94 C-28 46 -28 46 -26 47 C-26.5 42.55 -26.5 42.55 -27 38 C-27.99 38.66 -28.98 39.32 -30 40 C-31.8 36.17 -32.28 33.22 -32 29 C-31.67 28.34 -31.34 27.68 -31 27 C-30.34 27 -29.68 27 -29 27 C-27.38 29 -27.38 29 -26 31 C-26.66 31 -27.32 31 -28 31 C-27.5 32.49 -27.5 32.49 -27 34 C-23.04 34 -19.08 34 -15 34 C-15 33.01 -15 32.02 -15 31 C-15.66 30.67 -16.32 30.34 -17 30 C-17 29.34 -17 28.68 -17 28 C-16.34 28 -15.68 28 -15 28 C-15.66 27.01 -16.32 26.02 -17 25 C-18.65 25.33 -20.3 25.66 -22 26 C-21.67 24.35 -21.34 22.7 -21 21 C-19.35 21.33 -17.7 21.66 -16 22 C-16.28 20.82 -16.28 20.82 -16.56 19.62 C-17 17 -17 17 -16 15 C-13.41 14.68 -10.91 14.49 -8.31 14.38 C-7.25 14.32 -7.25 14.32 -6.17 14.26 C-2.11 14.05 1.93 13.96 6 14 C6 13.01 6 12.02 6 11 C5.01 10.01 5.01 10.01 4 9 C4.33 8.01 4.66 7.02 5 6 C3.35 6 1.7 6 0 6 C-0.66 4.68 -1.32 3.36 -2 2 C-1.34 1.34 -0.68 0.68 0 0 Z " fill="#537098" transform="translate(516,339)"/>
<path d="M0 0 C1.05 -0.01 2.09 -0.03 3.17 -0.04 C4.87 -0.04 4.87 -0.04 6.61 -0.05 C8.37 -0.06 8.37 -0.06 10.16 -0.07 C12.64 -0.08 15.12 -0.08 17.61 -0.08 C21.38 -0.08 25.15 -0.12 28.93 -0.16 C31.34 -0.16 33.76 -0.17 36.17 -0.17 C37.85 -0.19 37.85 -0.19 39.56 -0.21 C47.65 -0.17 55.86 0.77 62.23 6.2 C67.41 11.6 69.01 16.9 69.3 24.29 C69.14 31.25 66.72 36.12 61.99 41.29 C61 41.95 60.01 42.61 58.99 43.29 C59.51 43.63 60.03 43.97 60.56 44.32 C66.2 48.24 70.37 52.49 72.6 59.11 C73.96 66.75 74.53 76.62 69.99 83.29 C62.96 91.31 55.4 94.27 44.99 95.29 C41.14 95.43 37.29 95.43 33.44 95.42 C32.34 95.42 31.25 95.43 30.12 95.43 C27.82 95.43 25.51 95.43 23.21 95.42 C19.67 95.42 16.14 95.42 12.6 95.43 C10.36 95.43 8.12 95.43 5.88 95.42 C4.82 95.43 3.75 95.43 2.66 95.43 C1.68 95.43 0.7 95.42 -0.3 95.42 C-1.6 95.42 -1.6 95.42 -2.92 95.42 C-5.01 95.29 -5.01 95.29 -7.01 94.29 C-7.06 82.33 -7.09 70.37 -7.11 58.41 C-7.12 52.85 -7.14 47.3 -7.16 41.75 C-7.18 36.39 -7.19 31.04 -7.2 25.68 C-7.2 23.63 -7.21 21.59 -7.22 19.54 C-7.24 16.68 -7.24 13.82 -7.24 10.96 C-7.25 9.68 -7.25 9.68 -7.26 8.38 C-7.24 1.94 -6.55 0.05 0 0 Z " fill="#325484" transform="translate(601.009521484375,340.70947265625)"/>
<path d="M0 0 C0.79 0.01 1.57 0.02 2.38 0.03 C3.23 0.04 4.08 0.04 4.96 0.05 C6.29 0.08 6.29 0.08 7.65 0.1 C9 0.12 9 0.12 10.37 0.13 C12.59 0.15 14.81 0.19 17.03 0.23 C18.41 2.99 18.17 5.24 18.19 8.33 C18.2 9.61 18.21 10.89 18.22 12.21 C18.22 12.9 18.22 13.58 18.23 14.29 C18.24 16.45 18.26 18.6 18.28 20.75 C18.34 26.87 18.4 32.99 18.43 39.11 C18.45 42.86 18.49 46.6 18.53 50.34 C18.55 51.77 18.55 53.19 18.56 54.62 C18.56 56.61 18.59 58.61 18.61 60.61 C18.62 61.75 18.63 62.88 18.64 64.05 C19.24 68.92 20.92 72.18 24.47 75.54 C28.85 78.43 32.7 78.39 37.9 78.41 C39.1 78.43 40.29 78.44 41.52 78.46 C45.21 78.21 47.72 77.91 51.03 76.23 C56.39 69.63 55.6 62.04 55.57 53.96 C55.58 52.47 55.59 50.98 55.6 49.5 C55.64 45.6 55.65 41.7 55.65 37.8 C55.66 31.55 55.69 25.3 55.74 19.04 C55.76 16.86 55.75 14.67 55.75 12.49 C55.76 11.17 55.77 9.85 55.77 8.49 C55.77 7.33 55.78 6.16 55.78 4.96 C56.03 2.23 56.03 2.23 58.03 0.23 C59.89 -0.02 59.89 -0.02 62.13 -0 C62.93 -0 63.73 0 64.55 0 C65.39 0.01 66.23 0.03 67.09 0.04 C68.35 0.04 68.35 0.04 69.64 0.04 C75.89 0.09 75.89 0.09 77.03 1.23 C77.14 3.38 77.19 5.54 77.21 7.7 C77.21 8.38 77.22 9.05 77.23 9.75 C77.25 12 77.26 14.25 77.27 16.5 C77.27 17.27 77.28 18.04 77.28 18.84 C77.3 22.92 77.31 27 77.32 31.09 C77.33 35.29 77.37 39.49 77.41 43.69 C77.44 46.93 77.44 50.17 77.45 53.41 C77.45 54.96 77.46 56.51 77.48 58.05 C77.62 69.81 76.5 79.56 68.08 88.47 C57.04 97.93 42.79 98.13 29.03 97.23 C18.55 96.01 10.41 92.16 3.15 84.41 C-2.14 76.47 -4.08 68.28 -4.12 58.79 C-4.12 57.54 -4.13 56.29 -4.14 54.99 C-4.14 53.64 -4.14 52.28 -4.14 50.93 C-4.14 49.53 -4.15 48.13 -4.15 46.73 C-4.16 43.81 -4.16 40.89 -4.16 37.97 C-4.16 34.22 -4.17 30.47 -4.19 26.72 C-4.2 23.84 -4.2 20.95 -4.2 18.07 C-4.2 16.69 -4.21 15.31 -4.21 13.92 C-4.22 12 -4.22 10.07 -4.21 8.14 C-4.22 7.05 -4.22 5.95 -4.22 4.82 C-3.92 1.67 -3.27 0.38 0 0 Z " fill="#325484" transform="translate(687.97119140625,340.77294921875)"/>
<path d="M0 0 C0.78 0 1.57 0 2.37 0 C12.55 0.22 21.89 3.07 29.24 10.35 C34.83 16.32 39.06 21.82 39.85 30.12 C39.93 30.92 40.01 31.72 40.09 32.55 C40.14 33.15 40.19 33.75 40.25 34.38 C37.15 34.52 34.04 34.61 30.94 34.69 C30.06 34.73 29.18 34.77 28.27 34.81 C25.84 34.86 23.64 34.85 21.25 34.38 C19.29 32.08 19.29 32.08 18.25 29.38 C15.25 24.49 12.86 21.35 7.25 19.38 C0.37 17.91 -5.59 18.23 -11.92 21.5 C-19.67 26.64 -22.61 34.62 -24.75 43.38 C-25.79 54.5 -24.1 63.02 -18.94 72.81 C-15.42 76.94 -11.12 79.36 -5.75 80.38 C4.29 81.19 4.29 81.19 13.25 77.38 C17.68 73.15 19.13 69.37 20.57 63.45 C20.91 62.42 20.91 62.42 21.25 61.38 C24.55 59.73 28.19 60.23 31.81 60.25 C32.61 60.25 33.4 60.24 34.22 60.24 C40.12 60.25 40.12 60.25 41.25 61.38 C41.36 72.67 37.34 81.13 29.61 89.18 C20.1 98.04 9.3 100.15 -3.43 99.72 C-14.41 99.04 -23.37 95.43 -31.75 88.38 C-32.4 87.86 -33.04 87.35 -33.71 86.82 C-41.56 79.93 -45.94 68.48 -46.97 58.18 C-47.75 43.08 -45.7 29.98 -36.75 17.38 C-36.35 16.75 -35.94 16.13 -35.52 15.49 C-32.41 11.24 -28.38 8.69 -23.88 6.06 C-23.3 5.72 -22.72 5.39 -22.13 5.04 C-15.04 1.12 -8.04 -0.02 0 0 Z " fill="#325484" transform="translate(822.75,338.625)"/>
<path d="M0 0 C1.34 0.29 2.68 0.63 4 1 C5.01 0.94 6.02 0.88 7.06 0.81 C10 1 10 1 11.88 2.88 C13 5 13 5 13 7 C14.11 6.81 15.23 6.63 16.38 6.44 C20 6 20 6 22 7 C22 7.66 22 8.32 22 9 C22.99 9.33 23.98 9.66 25 10 C25.66 11.81 25.66 11.81 26.06 14 C26.43 16.14 26.43 16.14 27 18 C27.66 18.33 28.32 18.66 29 19 C28.01 16.03 28.01 16.03 27 13 C28.32 13.33 29.64 13.66 31 14 C31.5 16.48 31.5 16.48 32 19 C33.32 19 34.64 19 36 19 C36 19.66 36 20.32 36 21 C36.66 21 37.32 21 38 21 C38.06 21.62 38.12 22.24 38.19 22.88 C38.46 23.58 38.72 24.28 39 25 C40.18 25.34 40.18 25.34 41.38 25.69 C44.55 27.28 44.75 28.12 45.94 31.38 C46.9 34.27 47.23 35.43 46.07 38.29 C45.71 38.85 45.36 39.42 45 40 C45.99 40 46.98 40 48 40 C48.33 39.01 48.66 38.02 49 37 C50.8 39.76 51.01 40.89 50.62 44.25 C50.42 45.16 50.21 46.06 50 47 C50.62 47.29 51.24 47.58 51.88 47.88 C54 49 54 49 56 51 C56.4 53.32 56.74 55.66 57 58 C54.69 58 52.38 58 50 58 C50.33 58.66 50.66 59.32 51 60 C52.49 60.5 52.49 60.5 54 61 C54 60.34 54 59.68 54 59 C54.66 59 55.32 59 56 59 C56.33 59.99 56.66 60.98 57 62 C57.66 62.66 58.32 63.32 59 64 C49.67 64 40.33 64 31 64 C31 63.34 31 62.68 31 62 C30.34 62 29.68 62 29 62 C29 60.35 29 58.7 29 57 C27.02 57 25.04 57 23 57 C23 59.97 23 62.94 23 66 C24.65 66.33 26.3 66.66 28 67 C28 68.32 28 69.64 28 71 C31.3 71 34.6 71 38 71 C38.33 72.98 38.66 74.96 39 77 C38.34 77 37.68 77 37 77 C37 76.34 37 75.68 37 75 C34.22 76.39 34.02 78.16 33 81 C29.62 81.62 29.62 81.62 26 82 C25.01 81.01 25.01 81.01 24 80 C24 79.01 24 78.02 24 77 C21.69 76.34 19.38 75.68 17 75 C17 73.35 17 71.7 17 70 C16.01 70.66 15.02 71.32 14 72 C14 71.01 14 70.02 14 69 C13.34 69 12.68 69 12 69 C11.97 67.56 11.95 66.13 11.94 64.69 C11.93 63.89 11.91 63.09 11.9 62.26 C12 60 12 60 13 57 C11.84 57.03 11.84 57.03 10.66 57.07 C9.66 57.09 8.66 57.11 7.62 57.12 C6.63 57.15 5.63 57.17 4.6 57.2 C2 57 2 57 0 55 C0.38 52.38 0.38 52.38 1 50 C0.42 50.19 -0.15 50.37 -0.75 50.56 C-3.21 51.04 -4.64 50.76 -7 50 C-7.33 50.66 -7.66 51.32 -8 52 C-8 51.34 -8 50.68 -8 50 C-9.65 50 -11.3 50 -13 50 C-13.33 50.66 -13.66 51.32 -14 52 C-14.33 51.34 -14.66 50.68 -15 50 C-17.29 50.11 -19.58 50.24 -21.88 50.38 C-23.79 50.48 -23.79 50.48 -25.74 50.59 C-29.08 50.67 -29.08 50.67 -31 53 C-33.45 52.6 -35.64 51.79 -38 51 C-38.12 48.12 -38.12 48.12 -38 45 C-37.34 44.34 -36.68 43.68 -36 43 C-35.67 43.99 -35.34 44.98 -35 46 C-33.33 45.97 -33.33 45.97 -31.62 45.94 C-28 46 -28 46 -26 47 C-26.33 44.03 -26.66 41.06 -27 38 C-27.99 38.66 -28.98 39.32 -30 40 C-31.8 36.17 -32.28 33.22 -32 29 C-31.67 28.34 -31.34 27.68 -31 27 C-30.34 27 -29.68 27 -29 27 C-27.38 29 -27.38 29 -26 31 C-26.66 31 -27.32 31 -28 31 C-27.67 31.99 -27.34 32.98 -27 34 C-23.04 34 -19.08 34 -15 34 C-15 33.01 -15 32.02 -15 31 C-15.66 30.67 -16.32 30.34 -17 30 C-17 29.34 -17 28.68 -17 28 C-16.34 28 -15.68 28 -15 28 C-15.66 27.01 -16.32 26.02 -17 25 C-18.65 25.33 -20.3 25.66 -22 26 C-21.67 24.35 -21.34 22.7 -21 21 C-19.35 21.33 -17.7 21.66 -16 22 C-16.19 21.22 -16.37 20.43 -16.56 19.62 C-17 17 -17 17 -16 15 C-13.41 14.68 -10.91 14.49 -8.31 14.38 C-7.6 14.34 -6.9 14.3 -6.17 14.26 C-2.11 14.05 1.93 13.96 6 14 C6 13.01 6 12.02 6 11 C5.34 10.34 4.68 9.68 4 9 C4.33 8.01 4.66 7.02 5 6 C3.35 6 1.7 6 0 6 C-0.66 4.68 -1.32 3.36 -2 2 C-1.34 1.34 -0.68 0.68 0 0 Z " fill="#5B779D" transform="translate(516,339)"/>
<path d="M0 0 C0.99 0 1.98 0.01 3.01 0.01 C3.97 -0.01 4.94 -0.02 5.93 -0.04 C12.1 -0.04 17.89 0.43 23.44 3.32 C27.35 8 28.09 11.97 27.84 18.01 C27.27 21.35 25.95 23.1 23.44 25.32 C20.04 26.46 17.42 26.45 13.84 26.46 C12.55 26.46 11.25 26.46 9.92 26.46 C8.91 26.46 8.91 26.46 7.88 26.45 C5.82 26.45 3.76 26.45 1.69 26.46 C0.4 26.46 -0.89 26.46 -2.22 26.46 C-3.41 26.45 -4.6 26.45 -5.83 26.45 C-8.56 26.32 -8.56 26.32 -9.56 25.32 C-9.81 21.52 -9.74 17.7 -9.74 13.88 C-9.76 12.81 -9.77 11.73 -9.78 10.62 C-9.78 9.6 -9.79 8.57 -9.79 7.51 C-9.79 6.57 -9.8 5.62 -9.8 4.64 C-9.2 -1.04 -4.5 0.03 0 0 Z " fill="#FAFDFF" transform="translate(625.556640625,392.677734375)"/>
<path d="M0 0 C1.01 0 2.01 0.01 3.05 0.01 C4.04 -0.01 5.03 -0.02 6.05 -0.04 C11.51 -0.04 15.66 0.09 20.3 3.32 C23.14 6.21 23.73 8.31 23.73 12.32 C23.64 15.83 23.54 16.99 21.42 19.88 C17.84 22.3 15.76 22.45 11.45 22.46 C10.29 22.46 9.13 22.46 7.93 22.46 C6.71 22.46 5.49 22.45 4.23 22.45 C3.01 22.45 1.79 22.45 0.53 22.46 C-0.63 22.46 -1.79 22.46 -2.99 22.46 C-4.06 22.45 -5.13 22.45 -6.23 22.45 C-8.7 22.32 -8.7 22.32 -9.7 21.32 C-9.95 18.18 -9.89 15.03 -9.89 11.88 C-9.9 11 -9.92 10.11 -9.93 9.2 C-9.93 8.36 -9.93 7.51 -9.93 6.64 C-9.94 5.86 -9.94 5.08 -9.95 4.28 C-9.28 -1.12 -4.19 0.03 0 0 Z " fill="#FAFDFF" transform="translate(625.703125,356.677734375)"/>
<path d="M0 0 C0.66 0 1.32 0 2 0 C3.19 2.12 3.19 2.12 4 5 C3.29 6.39 3.29 6.39 2.56 7.81 C0.54 11.95 0.94 14.63 2 19 C2.96 21.87 2.96 21.87 4 24 C1.83 23.49 0 23 -2 22 C-1.51 22.4 -1.02 22.8 -0.51 23.21 C1.43 25.51 1.32 26.72 1.19 29.69 C1.16 30.5 1.13 31.3 1.11 32.14 C1.07 32.75 1.04 33.37 1 34 C1.94 34.09 1.94 34.09 2.91 34.19 C3.6 34.46 4.29 34.72 5 35 C6.03 37.55 6.51 40.07 7.09 42.75 C7.39 43.49 7.69 44.24 8 45 C9.99 45.74 9.99 45.74 12 46 C12.33 46.66 12.66 47.32 13 48 C13.99 48.66 14.98 49.32 16 50 C15.01 50 14.02 50 13 50 C13 50.66 13 51.32 13 52 C14.65 52 16.3 52 18 52 C19.59 56.34 20.35 60.43 21 65 C21.64 67.01 22.31 69.01 23 71 C23 71.66 23 72.32 23 73 C17.65 72.03 17.65 72.03 15 71 C13.96 69.36 12.96 67.69 12 66 C9.44 64.41 6.77 63.18 4 62 C3.67 62.66 3.34 63.32 3 64 C2.28 62.35 1.56 60.7 0.86 59.04 C0.07 57.16 -0.75 55.3 -1.56 53.44 C-3.44 48.45 -3.93 43.24 -4.57 37.98 C-4.83 35.08 -4.83 35.08 -6 33 C-6.35 27.9 -5.96 23.02 -5 18 C-4.88 16.74 -4.75 15.48 -4.62 14.19 C-4.1 9.82 -3.22 3.22 0 0 Z " fill="#3F5F8C" transform="translate(425,391)"/>
<path d="M0 0 C1.92 4.98 2.55 9.73 3 15 C4.32 15.33 5.64 15.66 7 16 C6.75 15.42 6.5 14.85 6.25 14.25 C6 12 6 12 7.5 9.81 C10.77 7.45 12.98 7 17 7 C19.44 8.62 19.44 8.62 21 11 C21.25 13.75 21.25 13.75 21 16 C22.32 16.33 23.64 16.66 25 17 C24.91 15.61 24.91 15.61 24.81 14.19 C25 11 25 11 26.06 9.19 C28.94 7.42 31.68 7.25 35 7 C36 8 36 8 36.13 10.47 C36.13 11.47 36.13 12.47 36.12 13.5 C36.13 15 36.13 15 36.13 16.53 C36 19 36 19 35 20 C32.02 20.13 29.06 20.19 26.07 20.2 C24.73 20.21 24.73 20.21 23.35 20.22 C21.44 20.23 19.53 20.24 17.63 20.24 C14.71 20.25 11.79 20.28 8.88 20.31 C7.03 20.32 5.18 20.32 3.32 20.33 C2.45 20.34 1.58 20.35 0.68 20.37 C-5.42 20.34 -5.42 20.34 -8.58 18.48 C-9.28 17.75 -9.28 17.75 -10 17 C-9.51 10.53 -9.51 10.53 -7.12 8.06 C-5 7 -5 7 -2 7 C-2 6.34 -2 5.68 -2 5 C-4.48 4.01 -4.48 4.01 -7 3 C-7 2.34 -7 1.68 -7 1 C-4.54 -0.23 -2.72 -0.07 0 0 Z " fill="#3F5F8C" transform="translate(793,472)"/>
<path d="M0 0 C0.66 0.33 1.32 0.66 2 1 C2.03 3.63 2.05 6.25 2.06 8.88 C2.07 9.62 2.08 10.37 2.09 11.14 C2.11 16.77 2.11 16.77 1 19 C-5.8 19.03 -12.6 19.04 -19.4 19.05 C-21.71 19.06 -24.03 19.07 -26.34 19.08 C-29.66 19.09 -32.98 19.09 -36.3 19.1 C-37.86 19.11 -37.86 19.11 -39.46 19.11 C-40.42 19.11 -41.38 19.11 -42.37 19.11 C-43.21 19.12 -44.06 19.12 -44.94 19.12 C-47 19 -47 19 -49 18 C-50.03 12.97 -51.38 5.76 -49 1 C-48.01 1 -47.02 1 -46 1 C-46 5.62 -46 10.24 -46 15 C-38.08 15.33 -30.16 15.66 -22 16 C-22.33 15.01 -22.66 14.02 -23 13 C-22.19 10.38 -22.19 10.38 -21 8 C-17.92 6.46 -15.39 6.7 -12 7 C-9.48 9.36 -8.6 11.64 -8 15 C-6.02 15.33 -4.04 15.66 -2 16 C-2.11 15.1 -2.21 14.19 -2.32 13.26 C-2.44 12.08 -2.56 10.9 -2.69 9.69 C-2.82 8.52 -2.94 7.34 -3.07 6.14 C-3 3 -3 3 -1.52 1.08 C-1.02 0.72 -0.52 0.37 0 0 Z " fill="#3B5B89" transform="translate(686,473)"/>
<path d="M0 0 C1.05 0.08 1.05 0.08 2.12 0.17 C4 0.81 4 0.81 5.24 2.57 C6.08 5.05 6.2 6.95 6.12 9.56 C6.11 10.36 6.09 11.16 6.07 11.98 C6.05 12.59 6.02 13.19 6 13.81 C4.83 13.83 3.66 13.84 2.46 13.86 C0.91 13.9 -0.64 13.95 -2.19 14 C-2.96 14.01 -3.73 14.01 -4.52 14.02 C-8.92 14.19 -10.54 14.43 -14.05 17.36 C-14.69 18.17 -15.34 18.98 -16 19.81 C-16.99 19.48 -17.98 19.15 -19 18.81 C-18.86 16.35 -18.71 13.9 -18.56 11.44 C-18.52 10.74 -18.48 10.04 -18.44 9.32 C-18.11 4.04 -18.11 4.04 -17 1.81 C-16.01 1.81 -15.02 1.81 -14 1.81 C-13.67 4.12 -13.34 6.43 -13 8.81 C-10.52 9.8 -10.52 9.8 -8 10.81 C-7.34 9.16 -6.68 7.51 -6 5.81 C-4 5.77 -2 5.77 0 5.81 C0.33 6.14 0.66 6.47 1 6.81 C1.33 6.15 1.66 5.49 2 4.81 C-0.97 4.81 -3.94 4.81 -7 4.81 C-6.67 3.49 -6.34 2.17 -6 0.81 C-3.66 -0.36 -2.57 -0.25 0 0 Z " fill="#355685" transform="translate(628,478.1875)"/>
<path d="M0 0 C3 1 3 1 5 4 C5.33 5.65 5.66 7.3 6 9 C19.86 9.33 33.72 9.66 48 10 C48 7.69 48 5.38 48 3 C48.99 2.34 49.98 1.68 51 1 C52 2 52 2 52.13 4.25 C52.13 5.16 52.13 6.06 52.12 7 C52.13 8.36 52.13 8.36 52.13 9.75 C52 12 52 12 51 13 C49.25 13.09 47.5 13.12 45.75 13.11 C44.62 13.11 43.5 13.11 42.35 13.11 C40.52 13.11 40.52 13.11 38.65 13.1 C37.41 13.1 36.17 13.09 34.89 13.09 C31.58 13.09 28.28 13.08 24.97 13.07 C21.6 13.06 18.23 13.05 14.86 13.05 C8.24 13.04 1.62 13.02 -5 13 C-5.33 12.34 -5.66 11.68 -6 11 C-2.53 10.5 -2.53 10.5 1 10 C0.01 7.03 -0.98 4.06 -2 1 C-1.34 0.67 -0.68 0.34 0 0 Z " fill="#325484" transform="translate(725,479)"/>
<path d="M0 0 C2 2 2 2 2.2 5.04 C2.13 8.36 2.07 11.68 2 15 C8.93 15.33 15.86 15.66 23 16 C22.34 14.68 21.68 13.36 21 12 C19.02 12.33 17.04 12.66 15 13 C14 11 14 11 14.56 8.94 C16 7 16 7 18.75 5.81 C22.47 6.03 22.89 6.43 25.31 9.06 C27.97 12.24 28.4 14.95 29 19 C24.91 19.05 20.81 19.09 16.72 19.11 C15.33 19.12 13.93 19.13 12.54 19.15 C10.54 19.18 8.54 19.19 6.54 19.2 C5.33 19.21 4.13 19.22 2.89 19.23 C0 19 0 19 -2 17 C-2.52 13.85 -2.52 13.85 -2.81 10.06 C-2.92 8.82 -3.03 7.57 -3.14 6.29 C-3 3 -3 3 -1.51 1.06 C-1.01 0.71 -0.51 0.36 0 0 Z " fill="#325484" transform="translate(834,473)"/>
<path d="M0 0 C6.27 0 12.54 0 19 0 C19 0.66 19 1.32 19 2 C20.32 2.33 21.64 2.66 23 3 C23.33 2.34 23.66 1.68 24 1 C25.65 1 27.3 1 29 1 C28.49 1.9 28.49 1.9 27.98 2.83 C27.53 3.63 27.08 4.43 26.62 5.25 C26.18 6.04 25.74 6.83 25.29 7.64 C24.14 9.74 23.05 11.85 22 14 C20 12 20 12 18.69 8.44 C17.39 4.81 17.39 4.81 14.38 4 C13.59 4 12.81 4 12 4 C10.42 5.58 10.65 7.38 10.44 9.56 C10.35 10.39 10.27 11.22 10.18 12.07 C10.12 12.7 10.06 13.34 10 14 C7 12 7 12 6.49 10.05 C6.24 7.03 6.24 7.03 6 4 C5.01 4 4.02 4 3 4 C2.67 7.3 2.34 10.6 2 14 C1.01 13.67 0.02 13.34 -1 13 C-2.25 5.62 -2.25 5.62 0 0 Z " fill="#325484" transform="translate(744,449)"/>
<path d="M0 0 C0.95 0.04 1.9 0.08 2.88 0.12 C5.31 5.8 6.41 9.94 5.88 16.12 C3.88 18.12 3.88 18.12 0.5 18.5 C-3.12 18.12 -3.12 18.12 -5.62 16.44 C-7.12 14.12 -7.12 14.12 -7 11.62 C-6.12 9.12 -6.12 9.12 -5 7 C-3.79 4.97 -3.79 4.97 -5.12 2.12 C-3.12 0.12 -3.12 0.12 0 0 Z " fill="#4B6993" transform="translate(601.125,473.875)"/>
<path d="M0 0 C2.97 0.33 5.94 0.66 9 1 C8.67 2.32 8.34 3.64 8 5 C6.35 5 4.7 5 3 5 C3.06 6.22 3.12 7.43 3.19 8.69 C3.14 12.67 2.93 15.07 0 18 C-4.28 19.38 -8.51 20 -13 20 C-12.34 18.35 -11.68 16.7 -11 15 C-9.35 15 -7.7 15 -6 15 C-6.27 14.44 -6.54 13.89 -6.81 13.31 C-6.87 12.55 -6.94 11.79 -7 11 C-5.36 9.31 -3.69 7.65 -2 6 C-0.66 2.83 -0.66 2.83 0 0 Z " fill="#3C5D8A" transform="translate(456,358)"/>
<path d="M0 0 C2.02 0.07 4.04 0.13 6.05 0.2 C8.31 4.7 8.3 8.26 8.05 13.2 C7.05 14.2 7.05 14.2 5.06 14.33 C4.25 14.33 3.45 14.32 2.62 14.32 C1.81 14.32 1.01 14.33 0.18 14.33 C-1.95 14.2 -1.95 14.2 -3.95 13.2 C-4 11.4 -4.04 9.61 -4.07 7.82 C-4.09 6.82 -4.12 5.82 -4.14 4.8 C-3.9 1.65 -3.28 0.33 0 0 Z " fill="#42628E" transform="translate(597.9453125,448.8046875)"/>
<path d="M0 0 C2.19 1.61 2.91 2.49 3.36 5.19 C3.35 5.97 3.33 6.76 3.31 7.56 C3.31 8.35 3.3 9.13 3.3 9.94 C3 12 3 12 1 14 C-3.34 14.32 -5.33 14.45 -9 12 C-10.5 7.83 -9.73 5 -8 1 C-5.2 -0.4 -3.1 -0.25 0 0 Z " fill="#325484" transform="translate(860,449)"/>
<path d="M0 0 C3.56 0.31 3.56 0.31 5.26 1.55 C6.91 3.79 6.96 5.12 6.94 7.88 C6.95 8.66 6.95 9.45 6.96 10.25 C6.83 10.93 6.7 11.61 6.56 12.31 C2.92 14.74 0.85 14.47 -3.44 14.31 C-6.05 10.39 -5.73 6.87 -5.44 2.31 C-3.44 0.31 -3.44 0.31 0 0 Z " fill="#325484" transform="translate(626.4375,448.6875)"/>
<path d="M0 0 C0.99 0 1.98 0 3 0 C3.33 4.29 3.66 8.58 4 13 C6.97 13.5 6.97 13.5 10 14 C9.98 13.05 9.96 12.1 9.94 11.12 C10 8 10 8 11 6 C11.99 6 12.98 6 14 6 C14 9.96 14 13.92 14 18 C12.06 18.02 10.12 18.04 8.12 18.06 C7.03 18.07 5.94 18.09 4.82 18.1 C2 18 2 18 0 17 C-0.34 14.3 -0.56 11.71 -0.69 9 C-0.73 8.25 -0.78 7.5 -0.83 6.73 C-0.94 4.82 -0.97 2.91 -1 1 C-0.67 0.67 -0.34 0.34 0 0 Z " fill="#325484" transform="translate(691,474)"/>
<path d="M0 0 C1.45 0.03 1.45 0.03 2.94 0.06 C3.27 1.71 3.6 3.36 3.94 5.06 C4.6 5.06 5.26 5.06 5.94 5.06 C5.94 5.72 5.94 6.38 5.94 7.06 C6.6 7.06 7.26 7.06 7.94 7.06 C8.27 5.08 8.6 3.1 8.94 1.06 C9.93 0.73 10.92 0.4 11.94 0.06 C12.27 1.38 12.6 2.7 12.94 4.06 C12.28 4.06 11.62 4.06 10.94 4.06 C10.28 7.03 9.62 10 8.94 13.06 C4.94 13.06 4.94 13.06 2.94 12.06 C1.73 9.12 0.88 6.1 -0.06 3.06 C-0.72 6.69 -1.38 10.32 -2.06 14.06 C-2.72 13.73 -3.38 13.4 -4.06 13.06 C-4.09 11.08 -4.11 9.1 -4.12 7.12 C-4.14 6.02 -4.15 4.92 -4.16 3.79 C-4.02 -0.08 -3.91 0.08 0 0 Z " fill="#325484" transform="translate(690.0625,448.9375)"/>
<path d="M0 0 C1.91 0.23 1.91 0.23 3.91 2.23 C4.11 5.05 4.11 5.05 4.04 8.36 C4.02 9.45 4 10.55 3.98 11.68 C3.96 12.52 3.93 13.36 3.91 14.23 C1.91 12.86 1.91 12.86 -0.09 11.23 C-0.09 10.57 -0.09 9.91 -0.09 9.23 C-1.08 9.23 -2.07 9.23 -3.09 9.23 C-3.42 10.88 -3.75 12.53 -4.09 14.23 C-5.08 13.9 -6.07 13.57 -7.09 13.23 C-7.12 11.25 -7.14 9.27 -7.15 7.29 C-7.16 6.19 -7.18 5.09 -7.19 3.95 C-7.01 -1.08 -4.46 0.09 0 0 Z " fill="#42618D" transform="translate(643.08984375,448.76953125)"/>
<path d="M0 0 C1.24 0.02 1.24 0.02 2.5 0.04 C3.32 0.04 4.15 0.05 5 0.06 C5.64 0.07 6.28 0.09 6.93 0.1 C8.32 2.86 8.03 5.14 8 8.22 C7.99 9.32 7.98 10.41 7.97 11.54 C7.96 12.39 7.95 13.23 7.93 14.1 C5.93 12.72 5.93 12.72 3.93 11.1 C3.93 10.44 3.93 9.78 3.93 9.1 C2.94 9.43 1.95 9.76 0.93 10.1 C0.6 11.09 0.27 12.08 -0.07 13.1 C-1.06 13.1 -2.05 13.1 -3.07 13.1 C-3.09 11.12 -3.11 9.14 -3.13 7.16 C-3.14 6.06 -3.15 4.96 -3.16 3.82 C-3.03 0.14 -3.03 0.14 0 0 Z " fill="#42618E" transform="translate(840.06640625,448.90234375)"/>
<path d="M0 0 C1.05 0.01 1.05 0.01 2.12 0.02 C2.83 0.02 3.53 0.01 4.25 0 C6.12 0.4 6.12 0.4 8.12 3.4 C8.1 6.1 8.1 6.1 7.75 9.09 C7.58 10.58 7.58 10.58 7.41 12.1 C7.27 13.24 7.27 13.24 7.12 14.4 C6.53 13.76 5.93 13.12 5.31 12.46 C3.22 10.2 3.22 10.2 0.12 9.4 C-0.21 10.72 -0.53 12.04 -0.88 13.4 C-1.87 13.07 -2.86 12.74 -3.88 12.4 C-3.93 10.96 -3.97 9.52 -4 8.09 C-4.02 7.29 -4.05 6.48 -4.07 5.66 C-3.81 2.68 -3.13 0.66 0 0 Z " fill="#44638F" transform="translate(719.875,448.6015625)"/>
<path d="M0 0 C0.66 0 1.32 0 2 0 C3.19 2.12 3.19 2.12 4 5 C3.29 6.39 3.29 6.39 2.56 7.81 C0.54 11.95 0.94 14.63 2 19 C2.96 21.87 2.96 21.87 4 24 C1.13 23.43 0.14 23.14 -2 21 C-2.66 21.33 -3.32 21.66 -4 22 C-5.8 14.34 -3.75 8.26 -1 1 C-0.67 0.67 -0.34 0.34 0 0 Z " fill="#325484" transform="translate(425,391)"/>
<path d="M0 0 C0.33 1.32 0.66 2.64 1 4 C-1.97 3.5 -1.97 3.5 -5 3 C-5 3.66 -5 4.32 -5 5 C-3.86 5.19 -3.86 5.19 -2.69 5.38 C0 6 0 6 3 8 C3 9.32 3 10.64 3 12 C-0.64 14.43 -2.71 14.16 -7 14 C-7.66 12.68 -8.32 11.36 -9 10 C-7.02 10 -5.04 10 -3 10 C-3.97 9.4 -4.94 8.8 -5.94 8.19 C-9 6 -9 6 -10 3 C-9.34 3 -8.68 3 -8 3 C-8 2.34 -8 1.68 -8 1 C-5.29 -0.35 -2.99 -0.07 0 0 Z " fill="#325484" transform="translate(739,449)"/>
<path d="M0 0 C6.75 -0.12 6.75 -0.12 9 1 C9 1.66 9 2.32 9 3 C7.02 3.33 5.04 3.66 3 4 C5.48 4.99 5.48 4.99 8 6 C8 6.66 8 7.32 8 8 C7.36 8.12 6.72 8.25 6.06 8.38 C5.38 8.58 4.7 8.79 4 9 C3.67 9.66 3.34 10.32 3 11 C5.97 11.5 5.97 11.5 9 12 C9 12.66 9 13.32 9 14 C7.54 14.03 6.08 14.05 4.62 14.06 C3.81 14.07 3 14.09 2.16 14.1 C0 14 0 14 -2 13 C-2.19 8.18 -1.76 4.5 0 0 Z " fill="#325484" transform="translate(705,449)"/>
<path d="M0 0 C0.66 0.66 1.32 1.32 2 2 C1.37 2.46 0.75 2.92 0.1 3.39 C-0.72 4 -1.53 4.62 -2.38 5.25 C-3.19 5.85 -4 6.46 -4.84 7.08 C-6.97 8.97 -7.95 10.38 -9 13 C-8.34 13 -7.68 13 -7 13 C-8.75 16.88 -8.75 16.88 -11 18 C-11.33 17.34 -11.66 16.68 -12 16 C-16.74 20.02 -18.71 22.86 -19.97 28.95 C-20.2 31.32 -20.2 31.32 -18 34 C-19.65 33.34 -21.3 32.68 -23 32 C-23 32.66 -23 33.32 -23 34 C-23.66 34 -24.32 34 -25 34 C-24.49 30.28 -23.88 27.27 -22 24 C-21.34 24 -20.68 24 -20 24 C-19.9 23.45 -19.81 22.89 -19.71 22.32 C-16.75 12.66 -7.76 5.78 0 0 Z " fill="#325484" transform="translate(452,354)"/>
<path d="M0 0 C1.98 1.65 3.96 3.3 6 5 C6.66 3.68 7.32 2.36 8 1 C8.66 1 9.32 1 10 1 C10 5.29 10 9.58 10 14 C4.38 11.75 4.38 11.75 2 9 C1.67 10.65 1.34 12.3 1 14 C0.34 13.67 -0.32 13.34 -1 13 C-1.03 11.02 -1.05 9.04 -1.06 7.06 C-1.07 5.96 -1.09 4.86 -1.1 3.72 C-1 1 -1 1 0 0 Z " fill="#365786" transform="translate(673,449)"/>
<path d="M0 0 C0.66 0.33 1.32 0.66 2 1 C2.05 2.79 2.09 4.58 2.12 6.38 C2.15 7.37 2.17 8.37 2.2 9.4 C2 12 2 12 0 14 C-4.34 14.32 -6.33 14.45 -10 12 C-10.29 9.62 -10.29 9.62 -10.19 6.88 C-10.16 5.96 -10.13 5.05 -10.11 4.12 C-10.07 3.42 -10.04 2.72 -10 2 C-9.01 1.67 -8.02 1.34 -7 1 C-7 3.97 -7 6.94 -7 10 C-5.35 10.33 -3.7 10.66 -2 11 C-2.02 10.37 -2.05 9.75 -2.07 9.1 C-2.1 7.88 -2.1 7.88 -2.12 6.62 C-2.15 5.81 -2.17 5 -2.2 4.16 C-2 2 -2 2 0 0 Z " fill="#325484" transform="translate(667,449)"/>
<path d="M0 0 C0.66 0 1.32 0 2 0 C2.66 1.65 3.32 3.3 4 5 C4.66 5 5.32 5 6 5 C6.33 5.33 6.66 5.66 7 6 C7.33 4.35 7.66 2.7 8 1 C8.66 1 9.32 1 10 1 C10 4.96 10 8.92 10 13 C4.38 11.88 4.38 11.88 2 9 C1.67 10.65 1.34 12.3 1 14 C0.34 13.67 -0.32 13.34 -1 13 C-1.03 11.02 -1.05 9.04 -1.06 7.06 C-1.07 5.96 -1.09 4.86 -1.1 3.72 C-1 1 -1 1 0 0 Z " fill="#325484" transform="translate(786,449)"/>
<path d="M0 0 C0.33 1.32 0.66 2.64 1 4 C-0.98 4 -2.96 4 -5 4 C-5.66 5.98 -6.32 7.96 -7 10 C-3.51 10.1 -0.41 9.78 3 9 C3 9.99 3 10.98 3 12 C-0.51 14.34 -1.86 14.5 -6 14 C-8.94 12.44 -8.94 12.44 -11 10 C-11.07 6.18 -10.86 3.99 -8.31 1.06 C-5.41 -0.27 -3.16 -0.22 0 0 Z " fill="#325484" transform="translate(814,449)"/>
<path d="M0 0 C0.66 0 1.32 0 2 0 C2.84 1.96 3.67 3.92 4.5 5.88 C4.96 6.97 5.43 8.06 5.91 9.18 C7 12 7 12 7 14 C5.93 13.63 4.86 13.26 3.75 12.88 C0.18 11.69 0.18 11.69 -2.44 12.88 C-2.95 13.25 -3.47 13.62 -4 14 C-4.32 8.74 -3.7 5.54 -1 1 C-0.67 0.67 -0.34 0.34 0 0 Z " fill="#365786" transform="translate(613,449)"/>
<path d="M0 0 C3.1 2.07 3.53 2.58 4.75 5.88 C5.01 6.55 5.28 7.23 5.55 7.93 C6.07 10.3 5.76 11.72 5 14 C4.01 13.34 3.02 12.68 2 12 C-0.03 12.26 -0.03 12.26 -2 13 C-2.99 13.33 -3.98 13.66 -5 14 C-4.09 5.06 -4.09 5.06 -2 1 C-1.34 0.67 -0.68 0.34 0 0 Z " fill="#345585" transform="translate(823,449)"/>
<path d="M0 0 C0.99 0 1.98 0 3 0 C4.09 6.55 4.57 11.22 1 17 C-1.19 17.94 -1.19 17.94 -3 18 C-3.33 17.34 -3.66 16.68 -4 16 C-3.34 15.67 -2.68 15.34 -2 15 C-2.02 14.08 -2.05 13.17 -2.07 12.23 C-2.09 11.04 -2.11 9.85 -2.12 8.62 C-2.15 7.44 -2.17 6.26 -2.2 5.04 C-2 2 -2 2 0 0 Z " fill="#325484" transform="translate(714,480)"/>
<path d="M0 0 C1.42 0.28 1.42 0.28 2.88 0.56 C5.9 1.29 5.9 1.29 8 0 C8.94 3.79 8.98 6.94 8.56 10.81 C8.46 11.79 8.36 12.76 8.25 13.77 C8.17 14.51 8.09 15.24 8 16 C6.68 15.67 5.36 15.34 4 15 C4.33 12.03 4.66 9.06 5 6 C3.35 5.67 1.7 5.34 0 5 C-0.33 4.01 -0.66 3.02 -1 2 C-0.67 1.34 -0.34 0.68 0 0 Z " fill="#325484" transform="translate(564,404)"/>
<path d="M0 0 C0.99 0 1.98 0 3 0 C3 0.99 3 1.98 3 3 C3.66 3.33 4.32 3.66 5 4 C4.67 5.65 4.34 7.3 4 9 C4.62 9.08 5.24 9.17 5.88 9.25 C8 10 8 10 9.25 12.06 C9.5 12.7 9.75 13.34 10 14 C3.3 12.06 3.3 12.06 1 9 C1 8.34 1 7.68 1 7 C0.01 6.67 -0.98 6.34 -2 6 C-3.19 3.94 -3.19 3.94 -4 2 C-3.34 1.67 -2.68 1.34 -2 1 C-1.34 1.33 -0.68 1.66 0 2 C0 1.34 0 0.68 0 0 Z " fill="#325484" transform="translate(434,458)"/>
<path d="M0 0 C1.32 0.66 2.64 1.32 4 2 C4 2.99 4 3.98 4 5 C5.32 5.66 6.64 6.32 8 7 C6.68 7.33 5.36 7.66 4 8 C4.66 11.3 5.32 14.6 6 18 C5.34 18 4.68 18 4 18 C3.91 16.82 3.91 16.82 3.81 15.62 C3.54 14.76 3.28 13.89 3 13 C0.52 11.63 0.52 11.63 -2 11 C-1.12 3.38 -1.12 3.38 0 0 Z " fill="#325484" transform="translate(448,413)"/>
<path d="M0 0 C0.66 0 1.32 0 2 0 C2 1.65 2 3.3 2 5 C0.35 5.33 -1.3 5.66 -3 6 C-3.33 7.98 -3.66 9.96 -4 12 C-5.32 11.67 -6.64 11.34 -8 11 C-7.69 7.62 -7.69 7.62 -7 4 C-4 2 -4 2 0 2 C0 1.34 0 0.68 0 0 Z " fill="#325484" transform="translate(479,342)"/>
<path d="M0 0 C0.66 0.33 1.32 0.66 2 1 C2 5.29 2 9.58 2 14 C1.34 14 0.68 14 0 14 C0 13.34 0 12.68 0 12 C-0.66 12 -1.32 12 -2 12 C-2.05 10.38 -2.09 8.75 -2.12 7.12 C-2.15 6.22 -2.17 5.32 -2.2 4.38 C-2 2 -2 2 0 0 Z " fill="#325484" transform="translate(780,449)"/>
<path d="M0 0 C1.5 1.19 1.5 1.19 3 3 C3.19 5.69 3.19 5.69 3 8 C1.19 8.62 1.19 8.62 -1 9 C-1.99 8.34 -2.98 7.68 -4 7 C-3.69 4.62 -3.69 4.62 -3 2 C-2.01 1.34 -1.02 0.68 0 0 Z " fill="#FAFDFF" transform="translate(857,451)"/>
<path d="M0 0 C1.32 0 2.64 0 4 0 C4.33 2.31 4.66 4.62 5 7 C1.25 8.12 1.25 8.12 -1 7 C-0.67 4.69 -0.34 2.38 0 0 Z " fill="#FAFDFF" transform="translate(625,452)"/>
<path d="M0 0 C1.13 0.02 2.27 0.04 3.44 0.06 C3.77 1.38 4.1 2.7 4.44 4.06 C1.8 4.39 -0.84 4.72 -3.56 5.06 C-4.12 3.12 -4.12 3.12 -4.56 1.06 C-3.56 0.06 -3.56 0.06 0 0 Z " fill="#325484" transform="translate(670.5625,473.9375)"/>
<path d="M0 0 C1 3 1 3 0.44 5.5 C-0.34 8.24 -0.34 8.24 2 11 C-0.48 10.01 -0.48 10.01 -3 9 C-3 9.66 -3 10.32 -3 11 C-3.66 11 -4.32 11 -5 11 C-4.5 7.31 -4 4.18 -2 1 C-1.34 0.67 -0.68 0.34 0 0 Z " fill="#375887" transform="translate(432,377)"/>
<path d="M0 0 C0 1.32 0 2.64 0 4 C-1.26 4.04 -2.52 4.08 -3.81 4.12 C-4.52 4.15 -5.23 4.17 -5.96 4.2 C-8 4 -8 4 -11 2 C-9.54 1.47 -8.09 0.95 -6.62 0.44 C-5.81 0.15 -5 -0.14 -4.16 -0.44 C-2 -1 -2 -1 0 0 Z " fill="#325484" transform="translate(494,342)"/>
<path d="M0 0 C0.66 0 1.32 0 2 0 C2 3.96 2 7.92 2 12 C1.01 12.5 1.01 12.5 0 13 C-0.95 10.16 -1.13 8.32 -1.12 5.38 C-1.13 4.58 -1.13 3.78 -1.13 2.96 C-1 1 -1 1 0 0 Z " fill="#325484" transform="translate(832,450)"/>
<path d="M0 0 C1.67 0.65 3.34 1.32 5 2 C5.74 2.29 6.49 2.58 7.25 2.88 C9 4 9 4 9.75 6.12 C9.87 7.05 9.87 7.05 10 8 C9.34 8 8.68 8 8 8 C8 7.01 8 6.02 8 5 C7.01 5 6.02 5 5 5 C5 5.66 5 6.32 5 7 C4.01 6.67 3.02 6.34 2 6 C0.81 2.94 0.81 2.94 0 0 Z " fill="#FAFDFF" transform="translate(429,453)"/>
<path d="M0 0 C0.33 0 0.66 0 1 0 C1 1.98 1 3.96 1 6 C-1.64 6 -4.28 6 -7 6 C-6.62 4.06 -6.62 4.06 -6 2 C-5.34 1.67 -4.68 1.34 -4 1 C-3.01 1.33 -2.02 1.66 -1 2 C-0.67 1.34 -0.34 0.68 0 0 Z " fill="#325484" transform="translate(488,347)"/>
<path d="M0 0 C-0.33 0.99 -0.66 1.98 -1 3 C-1.74 2.81 -2.49 2.63 -3.25 2.44 C-5.95 2.01 -7.45 2.15 -10 3 C-10 2.01 -10 1.02 -10 0 C-6.34 -0.75 -3.58 -1.24 0 0 Z " fill="#FAFDFF" transform="translate(524,363)"/>
<path d="M0 0 C3.3 0 6.6 0 10 0 C10 0.99 10 1.98 10 3 C9.26 2.81 8.51 2.63 7.75 2.44 C5.05 2.01 3.55 2.15 1 3 C0.67 2.01 0.34 1.02 0 0 Z " fill="#FAFDFF" transform="translate(469,426)"/>
</svg>
