<?xml version="1.0" encoding="UTF-8"?>
<!-- Generator: visioncortex VTracer 0.6.3 -->
<svg version="1.1" xmlns="http://www.w3.org/2000/svg" width="1280" height="630">
<path d="M0 0 C0.66 0.33 1.32 0.66 2 1 C2 53.8 2 106.6 2 161 C-88.09 161 -178.18 161 -271 161 C-271.33 117.44 -271.66 73.88 -272 29 C-240.53 11.3 -209.18 -5.87 -172.14 3.38 C-161.25 6.52 -151.09 11.94 -140.95 16.9 C-129.54 22.49 -118.32 27.73 -106 31 C-104.98 31.28 -104.98 31.28 -103.94 31.57 C-88.92 35.37 -71.45 34.37 -57 29 C-56.03 28.66 -55.06 28.32 -54.06 27.97 C-38.01 21.84 -23.62 12.03 -9.69 2.15 C-6.34 -0.13 -4.03 -0.17 0 0 Z M-192 2 C-192 2.33 -192 2.66 -192 3 C-190.35 3 -188.7 3 -187 3 C-187 2.67 -187 2.34 -187 2 C-188.65 2 -190.3 2 -192 2 Z M-91 35 C-91 35.33 -91 35.66 -91 36 C-86.71 36 -82.42 36 -78 36 C-78 35.67 -78 35.34 -78 35 C-82.29 35 -86.58 35 -91 35 Z M-239.75 64.9 C-249.29 76.65 -253.01 90.57 -251.6 105.45 C-249.41 118.42 -242.66 130.81 -232.51 139.22 C-227.95 142.46 -223.15 144.85 -218 147 C-216.79 147.51 -216.79 147.51 -215.56 148.04 C-203.56 152.17 -186.79 151.85 -174.95 147.45 C-160.96 140.57 -150.81 130.63 -145 116 C-143.28 110.17 -142.74 105.06 -142.88 99 C-142.88 98.23 -142.89 97.45 -142.9 96.65 C-142.93 94.77 -142.96 92.88 -143 91 C-150.37 90.95 -157.74 90.91 -165.11 90.89 C-167.62 90.88 -170.12 90.87 -172.63 90.85 C-176.23 90.82 -179.83 90.81 -183.43 90.8 C-185.12 90.79 -185.12 90.79 -186.85 90.77 C-187.89 90.77 -188.93 90.77 -190 90.77 C-191.38 90.77 -191.38 90.77 -192.79 90.76 C-195.21 90.79 -195.21 90.79 -197 93 C-197.28 95.37 -197.28 95.37 -197.19 98 C-197.18 99.33 -197.18 99.33 -197.17 100.69 C-197.15 103.03 -197.15 103.03 -196 105 C-182.8 105 -169.6 105 -156 105 C-160.4 119.29 -164.32 126.8 -177 134 C-187.2 138.89 -199.24 139.02 -210 136 C-221.16 131.77 -228.73 125.52 -233.99 114.79 C-234.88 112.83 -234.88 112.83 -237 112 C-240.06 98.81 -238.27 86.6 -231.19 75.19 C-224.02 65.19 -213.69 59.74 -201.73 57.43 C-197.5 56.77 -193.32 56.64 -189.05 56.59 C-187.71 56.56 -187.71 56.56 -186.34 56.53 C-183.52 56.47 -180.7 56.42 -177.88 56.38 C-175.95 56.34 -174.02 56.3 -172.09 56.26 C-167.39 56.16 -162.7 56.08 -158 56 C-158 52.04 -158 48.08 -158 44 C-163.83 43.9 -169.66 43.83 -175.49 43.78 C-177.47 43.76 -179.45 43.73 -181.42 43.7 C-204.75 43.3 -223.3 47.02 -239.75 64.9 Z M-157 45 C-157 48.96 -157 52.92 -157 57 C-156.67 57 -156.34 57 -156 57 C-156 53.04 -156 49.08 -156 45 C-156.33 45 -156.66 45 -157 45 Z M-128 45 C-129.24 47.49 -129.14 49.18 -129.16 51.96 C-129.17 53 -129.18 54.03 -129.19 55.1 C-129.19 56.23 -129.2 57.35 -129.2 58.52 C-129.21 59.68 -129.21 60.84 -129.22 62.04 C-129.23 64.51 -129.24 66.98 -129.24 69.45 C-129.25 73.19 -129.28 76.93 -129.31 80.67 C-129.41 101.18 -128.31 120.4 -113.22 136.04 C-98.89 148.68 -83 150.8 -64.65 150.17 C-52.41 149.37 -40.91 142.92 -32.62 134 C-25.31 124.99 -21.11 115.37 -19 104 C-18.67 104 -18.34 104 -18 104 C-18 84.53 -18 65.06 -18 45 C-22.29 45 -26.58 45 -31 45 C-32.32 47.63 -32.13 49.61 -32.14 52.56 C-32.15 53.73 -32.16 54.89 -32.16 56.09 C-32.17 57.99 -32.17 57.99 -32.18 59.93 C-32.19 61.92 -32.21 63.92 -32.23 65.91 C-32.27 70.82 -32.31 75.73 -32.33 80.65 C-32.33 83.4 -32.35 86.15 -32.38 88.9 C-32.41 91.48 -32.42 94.07 -32.42 96.66 C-32.59 109.21 -35.92 119.11 -45 128 C-55.04 135.79 -65.43 138.65 -78.09 137.79 C-90.03 136.16 -98.88 130.85 -107 122 C-112.04 115.09 -115.26 108.39 -115.23 99.72 C-115.23 97.89 -115.23 97.89 -115.23 96.02 C-115.22 94.72 -115.21 93.41 -115.2 92.07 C-115.19 90.71 -115.19 89.35 -115.19 87.99 C-115.18 84.43 -115.16 80.87 -115.14 77.31 C-115.12 73.67 -115.11 70.03 -115.1 66.39 C-115.08 59.26 -115.04 52.13 -115 45 C-119.29 45 -123.58 45 -128 45 Z M-199 57 C-199 57.33 -199 57.66 -199 58 C-185.14 58 -171.28 58 -157 58 C-157 57.67 -157 57.34 -157 57 C-170.86 57 -184.72 57 -199 57 Z M-142 92 C-142 95.3 -142 98.6 -142 102 C-141.67 102 -141.34 102 -141 102 C-141 98.7 -141 95.4 -141 92 C-141.33 92 -141.66 92 -142 92 Z M-115 104 C-114 106 -114 106 -114 106 Z M-202 151 C-202 151.33 -202 151.66 -202 152 C-198.37 152 -194.74 152 -191 152 C-191 151.67 -191 151.34 -191 151 C-194.63 151 -198.26 151 -202 151 Z M-79 151 C-79 151.33 -79 151.66 -79 152 C-75.37 152 -71.74 152 -68 152 C-68 151.67 -68 151.34 -68 151 C-71.63 151 -75.26 151 -79 151 Z " fill="#A1CA65" transform="translate(435,293)"/>
<path d="M0 0 C0.99 0 1.97 0 2.99 0 C4.69 -0.01 4.69 -0.01 6.43 -0.01 C8.31 -0.01 8.31 -0.01 10.24 0 C11.58 0 12.92 -0 14.26 -0.01 C17.96 -0.01 21.65 -0.01 25.35 0 C29.33 0.01 33.31 0 37.3 0 C45.1 -0 52.91 0 60.72 0.01 C69.8 0.02 78.88 0.02 87.96 0.02 C104.16 0.02 120.36 0.03 136.57 0.04 C152.3 0.06 168.04 0.06 183.77 0.06 C185.23 0.06 185.23 0.06 186.71 0.06 C187.68 0.06 188.65 0.06 189.64 0.06 C207.53 0.06 225.43 0.07 243.32 0.08 C249.66 0.08 255.99 0.08 262.33 0.08 C270.05 0.08 277.77 0.09 285.49 0.1 C289.43 0.1 293.37 0.1 297.31 0.1 C300.91 0.1 304.52 0.11 308.12 0.11 C310.05 0.12 311.98 0.11 313.91 0.11 C315.05 0.11 316.18 0.12 317.35 0.12 C318.83 0.12 318.83 0.12 320.34 0.12 C322.67 0.25 322.67 0.25 324.67 1.25 C324.67 109.49 324.67 217.73 324.67 329.25 C216.43 329.25 108.19 329.25 -3.33 329.25 C-4.62 326.67 -4.46 324.82 -4.46 321.93 C-4.46 320.23 -4.46 320.23 -4.47 318.49 C-4.47 317.24 -4.47 315.98 -4.46 314.68 C-4.47 313.34 -4.47 312 -4.47 310.66 C-4.48 306.96 -4.48 303.27 -4.48 299.57 C-4.48 295.59 -4.48 291.61 -4.49 287.62 C-4.49 279.82 -4.5 272.01 -4.5 264.2 C-4.5 257.86 -4.5 251.52 -4.5 245.18 C-4.51 227.22 -4.52 209.25 -4.52 191.29 C-4.52 190.32 -4.52 189.35 -4.52 188.35 C-4.52 187.38 -4.52 186.41 -4.52 185.41 C-4.51 169.68 -4.52 153.94 -4.54 138.21 C-4.55 122.07 -4.56 105.93 -4.56 89.79 C-4.56 80.72 -4.56 71.66 -4.57 62.59 C-4.58 54.87 -4.58 47.15 -4.58 39.43 C-4.57 35.49 -4.57 31.55 -4.58 27.61 C-4.59 24 -4.59 20.4 -4.58 16.8 C-4.58 14.87 -4.58 12.94 -4.59 11 C-4.59 9.87 -4.58 8.73 -4.58 7.57 C-4.58 6.58 -4.58 5.59 -4.58 4.58 C-4.23 1.3 -3.28 0.35 0 0 Z M10.67 14.25 C9.43 16.74 9.55 18.38 9.55 21.17 C9.54 22.21 9.54 23.26 9.54 24.33 C9.54 25.49 9.55 26.65 9.55 27.84 C9.55 29.06 9.55 30.28 9.55 31.54 C9.55 34.94 9.55 38.34 9.55 41.75 C9.56 45.47 9.56 49.19 9.56 52.91 C9.56 60.13 9.56 67.36 9.57 74.59 C9.57 82.94 9.57 91.3 9.58 99.66 C9.58 121.73 9.59 143.8 9.61 165.87 C9.63 215.17 9.65 264.46 9.67 315.25 C109 315.25 208.33 315.25 310.67 315.25 C311 215.92 311.33 116.59 311.67 14.25 C212.34 14.25 113.01 14.25 10.67 14.25 Z M311.67 15.25 C311.67 114.58 311.67 213.91 311.67 316.25 C312 316.25 312.33 316.25 312.67 316.25 C312.67 216.92 312.67 117.59 312.67 15.25 C312.34 15.25 312.01 15.25 311.67 15.25 Z " fill="#233B8E" transform="translate(139.3300051689148,149.7504523396492)"/>
<path d="M0 0 C90.42 0.33 180.84 0.66 274 1 C274.33 32.68 274.66 64.36 275 97 C269.37 95.12 265.76 93.12 261 89.81 C259.97 89.13 259.97 89.13 258.92 88.43 C253.26 84.53 249.23 79.97 245.12 74.5 C242.77 71.73 240.23 69.5 237.46 67.16 C235.57 65.5 233.75 63.81 231.94 62.06 C223.16 53.03 223.16 53.03 212 48 C208.52 48.41 205.35 49.18 201.99 50.15 C196.61 51.68 192.03 51.71 187 49 C186.13 48.22 185.27 47.43 184.38 46.62 C180.94 43.61 177.16 42.53 172.88 41.11 C169.91 39.97 167.43 38.56 164.75 36.88 C160.79 34.4 157.64 32.71 153 32 C150.98 32.61 148.98 33.29 147 34 C141.6 34.76 137.52 33.95 132.5 31.88 C127.84 30.04 125.21 29.83 120.46 31.29 C116.4 32.46 112.2 32.82 108.02 33.34 C104.96 33.84 104.96 33.84 102.5 35.53 C99.47 37.31 97.3 37.46 93.81 37.62 C89.75 37.73 89.75 37.73 86 39 C76.32 40.24 66.06 37.29 57.27 33.39 C53.47 31.77 51.09 31.48 47 32 C44.97 33.29 42.97 34.63 41 36 C39.1 36.43 37.2 36.85 35.3 37.25 C32.39 38.2 30.14 39.71 27.56 41.38 C19.87 46.09 10.09 49 1 49 C0.67 32.83 0.34 16.66 0 0 Z " fill="#A1CA65" transform="translate(163,175)"/>
<path d="M0 0 C0.59 0.52 1.19 1.04 1.8 1.58 C4.73 3.47 6.34 2.99 9.75 2.56 C13 2.45 13 2.45 16 3 C18 5.18 18 5.18 19.75 7.94 C22.31 11.78 23.26 12.84 27.87 13.82 C30.69 14.01 33.47 13.99 36.29 13.94 C39.86 14 41.82 14.54 45 16 C48.19 16.2 50.62 16.11 53.69 15.19 C58.31 14.93 61.42 16.75 65.51 18.77 C73.44 22.68 82.51 21.46 90.84 19.34 C93.28 18.96 94.67 19.24 97 20 C97.71 20.22 98.42 20.43 99.15 20.66 C105.92 23.22 108.42 26.91 112 33 C112.74 33.91 113.49 34.81 114.25 35.75 C116 38 116 38 116.83 40.44 C118.24 43.52 119.58 44.44 122.44 46.19 C123.22 46.68 124 47.16 124.81 47.67 C125.53 48.11 126.25 48.55 127 49 C127.99 49.66 128.98 50.32 130 51 C129.86 56.41 127.7 59.19 124.16 62.98 C112.88 73.54 97.51 80.36 82 81 C80.89 81.05 79.78 81.1 78.63 81.16 C41.42 82.04 8.69 65.19 -19.95 42.68 C-31.58 33.56 -43.98 27.07 -58.22 23.17 C-61 22 -61 22 -61.91 19.86 C-61.94 19.25 -61.97 18.63 -62 18 C-61.18 17.66 -60.36 17.32 -59.52 16.98 C-58.44 16.53 -57.36 16.08 -56.25 15.62 C-55.18 15.18 -54.12 14.74 -53.02 14.29 C-50.09 13.13 -50.09 13.13 -47.92 11.71 C-45.13 10.68 -43.68 11.86 -41 13 C-37.99 13.01 -35.11 12.66 -32.12 12.32 C-29 12 -29 12 -26.35 12.05 C-21.97 12.07 -19.76 11.62 -16.3 8.78 C-14.56 7.01 -12.87 5.2 -11.23 3.35 C-7.56 -0.51 -5.14 -1.67 0 0 Z " fill="#A1CA65" transform="translate(280,221)"/>
<path d="M0 0 C0.86 0 1.71 0.01 2.59 0.01 C3.58 0.01 4.56 0.01 5.58 0.01 C6.67 0.02 7.77 0.03 8.89 0.04 C10.05 0.04 11.2 0.04 12.39 0.05 C15.6 0.06 18.81 0.07 22.02 0.09 C25.48 0.1 28.94 0.11 32.4 0.13 C38.4 0.15 44.4 0.17 50.4 0.2 C59.07 0.24 67.74 0.27 76.42 0.3 C90.49 0.35 104.56 0.41 118.63 0.47 C132.3 0.53 145.97 0.58 159.64 0.64 C160.48 0.64 161.32 0.64 162.19 0.65 C166.42 0.66 170.64 0.68 174.86 0.69 C209.93 0.83 245 0.97 280.07 1.12 C279.74 7.06 279.41 13 279.07 19.12 C186.34 19.12 93.61 19.12 -1.93 19.12 C-3.52 15.94 -3.08 12.54 -3.06 9.06 C-3.06 8.31 -3.07 7.56 -3.07 6.8 C-3.06 0.19 -3.06 0.19 0 0 Z " fill="#233B8E" transform="translate(492.9323907494545,341.88221353292465)"/>
<path d="M0 0 C18.58 -0.96 41.02 18.42 55 29 C81.63 49.1 113.07 67.07 147.83 62.5 C169.86 59.03 190.54 48.1 206 32 C210.75 33.88 210.75 33.88 213 35 C213 35.66 213 36.32 213 37 C213.99 37.33 214.98 37.66 216 38 C216 38.66 216 39.32 216 40 C213.63 41.63 211.27 43.14 208.81 44.62 C208.09 45.07 207.36 45.51 206.61 45.97 C205.12 46.88 203.63 47.79 202.13 48.7 C200.23 49.86 198.35 51.04 196.46 52.23 C172.53 67.29 146.25 74.54 117.85 68.92 C106.78 66.28 96.6 61.5 86.62 56.12 C58.29 40.87 32.03 33.93 0.38 43.28 C-0.4 43.52 -1.19 43.75 -2 44 C-2.71 44.21 -3.41 44.42 -4.14 44.63 C-15.36 48.02 -25.87 53.03 -36.44 58.04 C-37.52 58.55 -38.6 59.06 -39.71 59.59 C-40.69 60.05 -41.66 60.52 -42.66 60.99 C-45 62 -45 62 -47 62 C-47.5 41.21 -47.5 41.21 -48 20 C-44.7 18.35 -41.4 16.7 -38 15 C-34.92 11.66 -34.92 11.66 -33.45 9.45 C-31.35 7.35 -29.96 7.29 -27 7 C-23.04 7.02 -19.08 7.17 -15.12 7.39 C-8.77 7.55 -5.78 6.21 -1 2 C-0.67 1.34 -0.34 0.68 0 0 Z M-17 9 C-17 9.33 -17 9.66 -17 10 C-14.69 10 -12.38 10 -10 10 C-10 9.67 -10 9.34 -10 9 C-12.31 9 -14.62 9 -17 9 Z " fill="#A1CA65" transform="translate(211,247)"/>
<path d="M0 0 C1.32 0.69 2.64 1.4 3.94 2.12 C7.98 4.24 10.52 4.24 15 3 C16.52 2.2 16.52 2.2 18.06 1.38 C21.82 -0.38 23.09 -0.38 27 1 C29.23 2.67 31.36 4.45 33.5 6.23 C36.93 8.66 40.48 9.7 44.45 10.97 C47.06 12.03 48.5 13.11 50.5 15.06 C54.69 18.98 59.36 20.35 65 21 C71.21 20.65 76.67 19.17 82 16 C86.3 18.74 90.14 21.71 93.88 25.19 C94.39 25.66 94.91 26.14 95.45 26.63 C99.34 30.25 102.84 34.09 106.18 38.22 C107.93 40.16 107.93 40.16 110.52 41 C113.46 42.19 114.49 43.43 116.31 46 C116.82 46.7 117.34 47.4 117.86 48.12 C119 50 119 50 119 52 C119.66 52 120.32 52 121 52 C122.11 53.21 123.16 54.47 124.19 55.75 C127.49 59.62 130.49 61.78 135 64 C136.65 64.91 138.3 65.83 139.94 66.75 C141.29 67.5 142.65 68.25 144 69 C144 70.32 144 71.64 144 73 C138.42 72.58 134.8 71.02 130.38 67.75 C129.83 67.37 129.28 66.98 128.72 66.59 C125.14 64.03 121.95 61.27 119 58 C119 57.34 119 56.68 119 56 C118.01 55.72 118.01 55.72 117 55.44 C110.34 52.25 105.89 47.17 102 41 C100.35 39.31 98.69 37.64 97 36 C94 32.38 94 32.38 94 30 C93.3 30.08 92.6 30.16 91.88 30.25 C89 30 89 30 86.38 27.88 C81.94 25.41 79.49 26.18 74.68 27.23 C72.03 27.99 69.56 28.97 67 30 C60.56 31.05 56.39 28.33 50.88 25.41 C47.34 23.67 44.92 23 41 23 C39.66 23.65 38.32 24.32 37 25 C33.79 24.67 31.06 24.02 28 23 C27.13 23.04 26.27 23.08 25.38 23.12 C20.84 22.96 17 22.2 13 20 C11.16 18.02 9.72 16.03 8.29 13.74 C7.03 11.69 7.03 11.69 4 11 C2.42 11.01 0.83 11.05 -0.75 11.12 C-4.21 11.18 -6.64 10.97 -9.75 9.44 C-13.63 7.72 -15.01 7.62 -19 9 C-22.8 11.45 -26.21 14.29 -29.56 17.31 C-34.23 20.55 -39.52 20 -45 20 C-45.66 20.33 -46.32 20.66 -47 21 C-53.53 21.23 -53.53 21.23 -56 20 C-60.92 20.37 -63.87 21.42 -68 24 C-80.05 30.78 -80.05 30.78 -86 29.5 C-87.67 29.02 -89.34 28.52 -91 28 C-103.79 25.03 -116.96 25.81 -130 26 C-131.13 21.22 -131.13 21.22 -129.96 19.27 C-127.27 17.53 -124.84 17.21 -121.69 16.69 C-113.99 15.17 -106.92 12.75 -100 9 C-99.34 8.01 -98.68 7.02 -98 6 C-95.4 5.05 -95.4 5.05 -92.38 4.31 C-90.87 3.94 -90.87 3.94 -89.34 3.55 C-88.57 3.37 -87.79 3.19 -87 3 C-87 2.34 -87 1.68 -87 1 C-80.43 -0.58 -77.52 0.5 -71.7 3.72 C-67.01 5.94 -62.11 6.4 -57 7 C-55.63 7.22 -55.63 7.22 -54.23 7.44 C-48.61 8.24 -46.09 7.65 -41 5 C-38.52 4.9 -36.13 4.99 -33.66 5.19 C-30.7 4.98 -28.57 3.97 -25.9 2.74 C-22.6 1.46 -19.19 1.21 -15.69 0.88 C-2.15 -0.52 -2.15 -0.52 0 0 Z M-66 7 C-66 7.33 -66 7.66 -66 8 C-64.02 8 -62.04 8 -60 8 C-60 7.67 -60 7.34 -60 7 C-61.98 7 -63.96 7 -66 7 Z " fill="#223A8C" transform="translate(294,210)"/>
<path d="M0 0 C1.75 0.1 1.75 0.1 3.54 0.21 C4.7 0.26 5.86 0.32 7.06 0.38 C10.16 1.02 10.16 1.02 12.08 2.95 C13.16 5.02 13.16 5.02 13.16 7.02 C13.82 7.02 14.48 7.02 15.16 7.02 C16.45 8.48 16.45 8.48 17.79 10.39 C18.24 11.02 18.68 11.65 19.14 12.29 C20.16 14.02 20.16 14.02 20.16 16.02 C20.82 16.02 21.48 16.02 22.16 16.02 C22.82 17.67 23.48 19.32 24.16 21.02 C24.82 21.02 25.48 21.02 26.16 21.02 C27.45 22.48 27.45 22.48 28.79 24.39 C29.24 25.02 29.68 25.65 30.14 26.29 C31.16 28.02 31.16 28.02 31.16 30.02 C31.82 30.02 32.48 30.02 33.16 30.02 C34.59 31.73 35.93 33.52 37.23 35.33 C37.94 36.32 38.65 37.3 39.39 38.32 C41.16 41.02 41.16 41.02 42.16 44.02 C42.82 44.02 43.48 44.02 44.16 44.02 C44.82 45.01 45.48 46 46.16 47.02 C46.16 31.84 46.16 16.66 46.16 1.02 C50.64 -1.22 56.18 0.64 61.16 1.02 C61.16 25.44 61.16 49.86 61.16 75.02 C57.2 75.02 53.24 75.02 49.16 75.02 C48.83 74.03 48.5 73.04 48.16 72.02 C47.5 72.02 46.84 72.02 46.16 72.02 C44.64 70.22 43.24 68.41 41.85 66.52 C37.43 60.62 32.85 54.88 28.16 49.19 C23 42.91 18.13 36.48 13.16 30.02 C12.83 44.87 12.5 59.72 12.16 75.02 C7.21 75.02 2.26 75.02 -2.84 75.02 C-4.3 72.08 -3.96 69.48 -3.97 66.2 C-3.97 65.15 -3.97 65.15 -3.97 64.07 C-3.98 61.75 -3.97 59.43 -3.97 57.11 C-3.97 55.5 -3.97 53.89 -3.97 52.28 C-3.97 48.91 -3.97 45.54 -3.97 42.16 C-3.96 37.83 -3.96 33.49 -3.97 29.16 C-3.97 25.84 -3.97 22.52 -3.97 19.19 C-3.97 17.6 -3.97 16 -3.97 14.4 C-3.97 12.17 -3.97 9.94 -3.97 7.71 C-3.96 6.44 -3.96 5.17 -3.96 3.86 C-3.79 0.03 -3.79 0.03 0 0 Z " fill="#223A8C" transform="translate(577.8359375,240.98046875)"/>
<path d="M0 0 C0.75 -0.01 1.5 -0.02 2.28 -0.02 C3.88 -0.04 5.48 -0.05 7.08 -0.06 C9.49 -0.07 11.91 -0.12 14.33 -0.16 C24.55 -0.27 32.18 0.66 40.91 6.43 C47.43 13.25 49.93 20.36 49.82 29.64 C49.29 35.84 46.86 40.73 42.6 45.24 C40.94 46.58 39.28 47.92 37.6 49.24 C38.05 49.99 38.51 50.73 38.97 51.5 C40.66 54.27 42.33 57.04 44.01 59.81 C44.73 61.01 45.46 62.21 46.19 63.41 C47.24 65.13 48.28 66.85 49.32 68.57 C49.94 69.61 50.57 70.65 51.22 71.72 C52.6 74.24 52.6 74.24 52.6 76.24 C47.29 77.06 41.81 77.9 36.6 76.24 C32.68 73.11 30.59 68.42 28.46 63.98 C27.33 61.69 25.96 59.61 24.54 57.49 C22.6 54.24 22.6 54.24 22.6 52.24 C17.65 52.24 12.7 52.24 7.6 52.24 C7.6 60.16 7.6 68.08 7.6 76.24 C2.65 76.24 -2.3 76.24 -7.4 76.24 C-8.88 73.28 -8.53 70.63 -8.53 67.33 C-8.53 66.62 -8.54 65.9 -8.54 65.17 C-8.54 62.82 -8.54 60.46 -8.54 58.11 C-8.54 56.48 -8.54 54.85 -8.54 53.22 C-8.54 49.79 -8.54 46.37 -8.53 42.95 C-8.53 38.56 -8.53 34.17 -8.54 29.77 C-8.54 26.4 -8.54 23.03 -8.54 19.66 C-8.54 18.04 -8.54 16.42 -8.54 14.8 C-8.54 12.54 -8.54 10.28 -8.53 8.02 C-8.53 6.73 -8.53 5.44 -8.53 4.12 C-8.29 -1.38 -4.51 0.05 0 0 Z M-6.4 1.24 C-6.4 1.57 -6.4 1.9 -6.4 2.24 C4.49 2.24 15.38 2.24 26.6 2.24 C26.6 1.91 26.6 1.58 26.6 1.24 C15.71 1.24 4.82 1.24 -6.4 1.24 Z M7.6 15.24 C7.6 22.83 7.6 30.42 7.6 38.24 C11.15 38.2 14.69 38.16 18.35 38.11 C20.02 38.12 20.02 38.12 21.72 38.12 C27.7 38.03 27.7 38.03 32.28 34.43 C34.46 29.16 34.05 25.31 32.85 19.8 C31.88 17.07 31.88 17.07 29.54 16.49 C28.9 16.41 28.26 16.32 27.6 16.24 C27.27 15.58 26.94 14.92 26.6 14.24 C23.81 14.21 21.01 14.19 18.22 14.18 C17.43 14.17 16.63 14.16 15.82 14.15 C11.57 14.01 11.57 14.01 7.6 15.24 Z " fill="#223A8D" transform="translate(843.40234375,239.76171875)"/>
<path d="M0 0 C7.6 4.81 7.6 4.81 9 9 C9.66 9 10.32 9 11 9 C11.99 11.47 11.99 11.47 13 14 C12.44 14.23 11.89 14.45 11.31 14.69 C8.78 15.98 8.78 15.98 6.44 18.62 C4 21 4 21 1 21 C0.3 20.09 -0.4 19.19 -1.12 18.25 C-5.02 13.29 -10.36 11.33 -16.5 10.56 C-22.3 11.29 -28.09 12.38 -32 17 C-33.07 19.26 -33.07 19.26 -34 22 C-34.26 22.58 -34.52 23.16 -34.79 23.75 C-37.51 30.06 -38.22 36.12 -36.13 42.75 C-35.15 45.21 -34.1 47.6 -33 50 C-32.67 50.99 -32.34 51.98 -32 53 C-30.27 54.16 -30.27 54.16 -28 55 C-27.15 55.37 -26.31 55.74 -25.44 56.12 C-17.86 58.05 -10.85 57.84 -4 54 C-1.09 52.32 -1.09 52.32 1 50 C1.33 48.02 1.66 46.04 2 44 C-2.62 44 -7.24 44 -12 44 C-13.61 40.79 -13.06 37.56 -13 34 C-10.25 32.63 -8.18 32.99 -5.12 33.12 C-4.07 33.16 -3.02 33.21 -1.93 33.25 C-0.59 33.31 0.75 33.37 2.12 33.44 C6.37 33.62 10.62 33.81 15 34 C15 46.54 15 59.08 15 72 C11.04 72 7.08 72 3 72 C2.67 70.02 2.34 68.04 2 66 C1.46 66.35 0.91 66.7 0.36 67.06 C-0.36 67.51 -1.08 67.97 -1.81 68.44 C-2.52 68.89 -3.23 69.34 -3.96 69.81 C-10.92 73.87 -22.36 73.16 -30.06 71.23 C-41.18 66.18 -48.72 56.17 -53 45 C-55.55 34.99 -54.56 24.52 -49.61 15.45 C-45.79 9.39 -45.79 9.39 -42.87 7.94 C-40.64 7.09 -40.64 7.09 -40 4 C-27.62 -4.34 -13.54 -7.41 0 0 Z M10 12 C11 15 11 15 11 15 Z M-53 30 C-52 32 -52 32 -52 32 Z M-53 38 C-52 40 -52 40 -52 40 Z " fill="#223A8C" transform="translate(544,155)"/>
<path d="M0 0 C1.36 0.03 1.36 0.03 2.74 0.06 C3.76 0.08 4.78 0.1 5.83 0.12 C6.94 0.15 8.05 0.18 9.2 0.2 C10.89 0.24 10.89 0.24 12.62 0.27 C16.25 0.35 19.88 0.44 23.51 0.52 C25.96 0.57 28.41 0.63 30.86 0.68 C36.89 0.81 42.92 0.94 48.94 1.08 C48.94 5.04 48.94 9 48.94 13.08 C37.06 13.41 25.18 13.74 12.94 14.08 C13.44 22 13.44 22 13.94 30.08 C16.94 30.06 16.94 30.06 20 30.05 C21.93 30.04 23.86 30.03 25.8 30.03 C27.8 30.02 29.81 30.01 31.81 29.99 C33.7 29.99 33.7 29.99 35.62 29.98 C37.37 29.98 37.37 29.98 39.15 29.97 C41.94 30.08 41.94 30.08 43.94 31.08 C43.94 35.04 43.94 39 43.94 43.08 C28.6 43.58 28.6 43.58 12.94 44.08 C13.44 52.5 13.44 52.5 13.94 61.08 C17.59 61.06 17.59 61.06 21.31 61.05 C23.66 61.04 26.01 61.03 28.36 61.03 C30 61.02 31.63 61.02 33.27 61.01 C35.61 60.99 37.96 60.99 40.31 60.98 C41.04 60.98 41.78 60.97 42.53 60.97 C47.72 60.97 47.72 60.97 49.94 62.08 C49.94 66.37 49.94 70.66 49.94 75.08 C32.78 75.08 15.62 75.08 -2.06 75.08 C-3.52 72.15 -3.18 69.54 -3.19 66.26 C-3.19 65.21 -3.19 65.21 -3.19 64.14 C-3.2 61.82 -3.19 59.49 -3.19 57.17 C-3.19 55.56 -3.19 53.95 -3.19 52.35 C-3.19 48.97 -3.19 45.6 -3.19 42.22 C-3.18 37.89 -3.18 33.56 -3.19 29.22 C-3.19 25.9 -3.19 22.58 -3.19 19.26 C-3.19 17.66 -3.19 16.06 -3.19 14.46 C-3.2 12.23 -3.19 10 -3.19 7.77 C-3.19 6.5 -3.18 5.23 -3.18 3.92 C-3.01 0.12 -3.01 0.12 0 0 Z " fill="#233B8E" transform="translate(771.0564117431641,240.91770935058594)"/>
<path d="M0 0 C1.6 -0.02 1.6 -0.02 3.24 -0.04 C6.12 0.19 6.12 0.19 9.12 2.19 C9.5 4.04 9.5 4.04 9.51 6.31 C9.52 7.16 9.53 8.01 9.54 8.89 C9.54 9.82 9.53 10.74 9.53 11.69 C9.54 12.64 9.55 13.6 9.56 14.58 C9.6 17.64 9.61 20.69 9.62 23.75 C9.64 27.75 9.67 31.75 9.72 35.75 C9.72 36.66 9.71 37.57 9.71 38.51 C9.79 45.89 10.81 52.4 15.62 58.19 C19.25 61.08 21.99 61.34 26.5 61.38 C27.44 61.39 28.37 61.4 29.34 61.42 C32.35 61.17 34.44 60.56 37.12 59.19 C40.61 54.63 42.23 51.14 42.33 45.44 C42.35 44.48 42.37 43.52 42.39 42.53 C42.41 41.49 42.42 40.46 42.44 39.39 C42.46 38.33 42.48 37.27 42.5 36.18 C42.57 32.79 42.63 29.39 42.69 26 C42.73 23.7 42.77 21.4 42.82 19.1 C42.93 13.46 43.03 7.83 43.12 2.19 C46.67 1.01 49.1 1.29 52.81 1.62 C53.99 1.73 55.17 1.83 56.39 1.93 C57.29 2.02 58.19 2.1 59.12 2.19 C59.2 8.82 59.25 15.46 59.29 22.09 C59.3 24.34 59.33 26.6 59.35 28.85 C59.39 32.1 59.4 35.36 59.42 38.61 C59.43 39.61 59.45 40.6 59.46 41.62 C59.47 48.95 59.32 57.78 54.07 63.38 C53.11 64.28 53.11 64.28 52.12 65.19 C51.86 65.83 51.59 66.47 51.31 67.12 C48.95 71.23 44.74 73.5 40.48 75.32 C36.15 76.44 32.14 76.48 27.69 76.44 C26.87 76.45 26.05 76.45 25.2 76.46 C20.13 76.44 15.93 75.82 11.12 74.19 C11.12 73.53 11.12 72.87 11.12 72.19 C10.53 72.08 9.94 71.97 9.34 71.86 C4.21 70.3 1.03 65.7 -1.62 61.27 C-6.13 52.55 -7.03 45.47 -7.01 35.79 C-7.01 34.81 -7.01 33.82 -7.01 32.8 C-7.01 30.72 -7.01 28.64 -7.01 26.56 C-7 23.37 -7.01 20.17 -7.01 16.98 C-7.01 14.96 -7.01 12.94 -7.01 10.92 C-7.01 9.96 -7.01 9 -7.01 8.01 C-7.01 7.13 -7.01 6.24 -7 5.34 C-7 4.56 -7 3.78 -7 2.98 C-6.72 -1.06 -3.31 0.02 0 0 Z M44.12 3.19 C44.12 15.73 44.12 28.27 44.12 41.19 C44.46 41.19 44.78 41.19 45.12 41.19 C45.12 28.65 45.12 16.11 45.12 3.19 C44.79 3.19 44.47 3.19 44.12 3.19 Z M44.12 42.19 C45.12 45.19 45.12 45.19 45.12 45.19 Z M-5.88 44.19 C-4.88 46.19 -4.88 46.19 -4.88 46.19 Z " fill="#223A8D" transform="translate(496.875,239.8125)"/>
<path d="M0 0 C0.45 0.31 0.9 0.63 1.36 0.95 C0.72 3.97 -0.29 6.47 -1.7 9.2 C-2.06 9.91 -2.42 10.62 -2.8 11.34 C-3.07 11.87 -3.35 12.41 -3.64 12.95 C-6.12 12.41 -7.71 11.91 -9.89 10.52 C-16.16 6.95 -23.63 5.85 -30.7 7.41 C-32.36 7.87 -34 8.41 -35.64 8.95 C-36.12 13.53 -36.12 13.53 -34.42 17.58 C-32.28 19.23 -30.45 19.83 -27.85 20.57 C-26.91 20.85 -25.96 21.12 -24.99 21.41 C-23.03 21.97 -21.07 22.53 -19.1 23.08 C-12.34 25.1 -4.09 27.64 -0.39 34.14 C-0.14 34.74 0.11 35.34 0.36 35.95 C1.02 35.95 1.68 35.95 2.36 35.95 C4.61 42.96 5.28 50.24 2.44 57.22 C1.08 59.41 -0.36 59.82 -2.64 60.95 C-2.93 61.6 -3.21 62.24 -3.51 62.91 C-5.28 66.13 -7.69 66.4 -11.08 67.4 C-15.28 68.31 -19.35 68.35 -23.64 68.27 C-24.89 68.27 -24.89 68.27 -26.18 68.28 C-34.26 68.21 -41.48 67 -48.64 63.08 C-49.56 62.59 -50.49 62.09 -51.45 61.59 C-53.64 59.95 -53.64 59.95 -54.6 58.09 C-54.65 55.11 -53.6 53.31 -52.2 50.7 C-51.73 49.81 -51.25 48.92 -50.77 48 C-50.39 47.32 -50.02 46.65 -49.64 45.95 C-48.96 46.23 -48.28 46.5 -47.57 46.79 C-37.28 50.87 -27.92 54.56 -16.64 52.95 C-15.65 52.29 -14.66 51.63 -13.64 50.95 C-13.24 47.81 -13.01 45.83 -14.89 43.2 C-18.55 40.59 -22.29 39.43 -26.63 38.25 C-36.98 35.44 -44.39 32.08 -51.64 23.95 C-53.91 17.14 -52.81 10.39 -50.68 3.67 C-49.29 1.38 -48.16 1.58 -45.64 0.95 C-44.95 -0.37 -44.28 -1.7 -43.64 -3.05 C-41.83 -4.28 -41.83 -4.28 -39.76 -5.23 C-39.08 -5.56 -38.41 -5.88 -37.71 -6.21 C-24.68 -11.45 -11.17 -7.43 0 0 Z " fill="#223A8D" transform="translate(959.63671875,248.046875)"/>
<path d="M0 0 C5.28 0.33 10.56 0.66 16 1 C21.52 15.4 26.95 29.83 32.29 44.3 C33.11 46.51 33.93 48.71 34.75 50.92 C35.95 54.15 37.15 57.39 38.34 60.63 C38.71 61.61 39.08 62.6 39.46 63.61 C39.8 64.53 40.13 65.44 40.47 66.38 C40.77 67.18 41.07 67.98 41.37 68.8 C42 71 42 71 42 75 C37.05 75 32.1 75 27 75 C24.69 69.06 22.38 63.12 20 57 C12.08 57 4.16 57 -4 57 C-6.4 62.99 -8.76 68.95 -11 75 C-15.95 75 -20.9 75 -26 75 C-27.33 71.02 -26.29 69.45 -24.81 65.56 C-24.34 64.3 -23.87 63.03 -23.39 61.76 C-23.16 61.13 -22.92 60.49 -22.67 59.84 C-21.71 57.21 -20.86 54.54 -20 51.88 C-18.69 47.89 -17.21 44.04 -15.56 40.19 C-13.64 35.69 -12 31.15 -10.5 26.5 C-8.34 19.84 -5.79 13.42 -3 7 C-2.01 4.69 -1.02 2.38 0 0 Z M7 19 C4.36 27.25 1.72 35.5 -1 44 C2.3 45.65 5.99 45.38 9.62 45.56 C10.43 45.61 11.23 45.65 12.05 45.69 C14.04 45.8 16.02 45.9 18 46 C16.55 41.68 15.09 37.37 13.62 33.06 C13.01 31.21 13.01 31.21 12.38 29.33 C11.98 28.16 11.58 26.99 11.16 25.79 C10.8 24.7 10.43 23.62 10.05 22.5 C9.26 19.86 9.26 19.86 7 19 Z " fill="#233B8E" transform="translate(876,152)"/>
<path d="M0 0 C2.7 0.09 5.37 0.24 8.06 0.44 C9.2 0.52 9.2 0.52 10.36 0.6 C12.24 0.73 14.12 0.86 16 1 C16.43 2.16 16.87 3.31 17.31 4.5 C18.37 7.33 19.43 10.15 20.5 12.96 C21 14.29 21.5 15.61 22 16.94 C22.25 17.59 22.5 18.24 22.75 18.91 C24.07 22.41 25.32 25.93 26.48 29.48 C27.92 33.83 29.56 38.07 31.25 42.31 C33.94 49.14 36.49 56.02 38.94 62.94 C39.24 63.8 39.55 64.65 39.87 65.54 C40.15 66.34 40.43 67.14 40.71 67.96 C40.96 68.67 41.21 69.38 41.47 70.11 C42 72 42 72 42 75 C37.05 75 32.1 75 27 75 C24.23 68.98 22.12 63.37 20 57 C11.42 57 2.84 57 -6 57 C-6.66 59.97 -7.32 62.94 -8 66 C-8.91 69.04 -9.95 72 -11 75 C-16.28 75 -21.56 75 -27 75 C-26.64 68.81 -24.93 64.05 -22.44 58.4 C-21.09 55.2 -19.89 52 -18.75 48.73 C-15.97 40.88 -13.08 33.07 -10.18 25.26 C-9.3 22.91 -8.43 20.55 -7.55 18.2 C-6.99 16.68 -6.43 15.17 -5.86 13.65 C-5.6 12.96 -5.35 12.26 -5.08 11.54 C-1.25 1.25 -1.25 1.25 0 0 Z M8 18 C5.38 23.52 3.17 29.1 1.19 34.88 C0.96 35.53 0.73 36.18 0.49 36.86 C-0.88 40.88 -0.88 40.88 0 45 C5.28 45 10.56 45 16 45 C14.83 39.06 13.24 33.33 11.44 27.56 C11.22 26.85 10.99 26.14 10.76 25.41 C9.58 21.63 9.58 21.63 8 18 Z " fill="#233B8E" transform="translate(736,152)"/>
<path d="M0 0 C1.37 0.12 2.74 0.26 4.11 0.42 C5.17 0.52 5.17 0.52 6.24 0.62 C7.97 0.79 9.7 0.98 11.43 1.17 C15.12 9.01 18.38 16.9 21.07 25.14 C23.01 31.06 25.18 36.87 27.43 42.67 C29.67 48.46 31.83 54.26 33.76 60.16 C34.96 63.77 36.32 67.33 37.66 70.89 C38.43 73.17 38.43 73.17 38.43 75.17 C35.99 75.31 33.55 75.41 31.11 75.48 C30.42 75.53 29.73 75.57 29.02 75.61 C27 75.66 27 75.66 23.43 75.17 C20.7 72.03 19.8 68.54 18.8 64.55 C18.08 61.71 17.35 58.95 16.43 56.17 C7.85 56.5 -0.73 56.83 -9.57 57.17 C-10.56 60.8 -11.55 64.43 -12.57 68.17 C-13.23 70.48 -13.89 72.79 -14.57 75.17 C-19.85 75.17 -25.13 75.17 -30.57 75.17 C-30.57 68.49 -30.57 68.49 -28.57 64.17 C-26.01 58.34 -23.79 52.42 -21.64 46.42 C-19.04 39.2 -16.39 32 -13.66 24.82 C-11.48 19.04 -9.59 13.18 -7.75 7.28 C-5.09 0.24 -5.09 0.24 0 0 Z M2.43 19.17 C2.18 19.97 1.94 20.77 1.69 21.59 C-0.38 28.39 -2.55 35.12 -4.94 41.81 C-5.85 44.17 -5.85 44.17 -4.57 46.17 C1.37 46.17 7.31 46.17 13.43 46.17 C13.1 44.19 12.77 42.21 12.43 40.17 C11.77 40.17 11.11 40.17 10.43 40.17 C10.76 39.18 11.09 38.19 11.43 37.17 C10.77 37.17 10.11 37.17 9.43 37.17 C9.76 36.18 10.09 35.19 10.43 34.17 C9.77 34.17 9.11 34.17 8.43 34.17 C8.76 33.18 9.09 32.19 9.43 31.17 C8.77 31.17 8.11 31.17 7.43 31.17 C7.76 30.18 8.09 29.19 8.43 28.17 C7.77 28.17 7.11 28.17 6.43 28.17 C6.76 27.18 7.09 26.19 7.43 25.17 C6.77 25.17 6.11 25.17 5.43 25.17 C5.76 24.18 6.09 23.19 6.43 22.17 C5.77 21.18 5.11 20.19 4.43 19.17 C3.77 19.17 3.11 19.17 2.43 19.17 Z " fill="#233B8E" transform="translate(599.57421875,151.828125)"/>
<path d="M0 0 C2.54 0.09 5.04 0.24 7.56 0.44 C8.63 0.52 8.63 0.52 9.72 0.6 C11.48 0.73 13.24 0.86 15 1 C14.46 8.01 11.86 14.12 9.31 20.62 C8.83 21.87 8.35 23.12 7.87 24.37 C7.09 26.38 6.32 28.39 5.54 30.4 C3.39 35.95 1.29 41.52 -0.81 47.1 C-1.13 47.95 -1.44 48.79 -1.77 49.66 C-3.04 53.03 -4.3 56.4 -5.57 59.76 C-6.45 62.12 -7.34 64.47 -8.23 66.83 C-8.49 67.54 -8.76 68.25 -9.03 68.99 C-10.89 73.89 -10.89 73.89 -12 75 C-14.53 75.07 -17.03 75.09 -19.56 75.06 C-20.63 75.06 -20.63 75.06 -21.72 75.05 C-23.48 75.04 -25.24 75.02 -27 75 C-29.74 69.89 -31.65 65.07 -33.22 59.5 C-34.22 56.3 -35.55 53.34 -36.96 50.3 C-38.79 46.26 -40.38 42.12 -42 38 C-42.31 37.24 -42.61 36.48 -42.93 35.7 C-44.33 32.17 -45.67 28.62 -47 25.06 C-47.26 24.37 -47.52 23.68 -47.79 22.97 C-49.28 19.01 -50.69 15.03 -52 11 C-52.28 10.16 -52.56 9.31 -52.85 8.45 C-53.57 6.3 -54.28 4.15 -55 2 C-54 1 -54 1 -50.62 0.9 C-49.23 0.91 -47.83 0.92 -46.44 0.94 C-45.73 0.94 -45.02 0.95 -44.28 0.95 C-42.52 0.96 -40.76 0.98 -39 1 C-35.24 9.88 -32.15 19 -29 28.11 C-27.93 31.21 -26.85 34.31 -25.77 37.41 C-23.84 42.94 -21.92 48.47 -20 54 C-17.33 47.58 -15.01 41.15 -13 34.5 C-11.21 28.72 -9.36 23.06 -7.01 17.48 C-5.18 12.99 -3.64 8.39 -2.05 3.81 C-1 1 -1 1 0 0 Z " fill="#233B8E" transform="translate(741,241)"/>
<path d="M0 0 C5.89 -1.33 11.59 -2.18 17 1 C22.65 8.03 26.1 16.81 29.53 25.08 C31.01 28.03 32.55 29.83 35 32 C35.33 31.33 35.66 30.66 36 29.97 C39.16 23.58 42.42 17.24 45.75 10.94 C46.14 10.2 46.53 9.46 46.93 8.7 C47.3 8 47.67 7.31 48.05 6.59 C48.38 5.97 48.7 5.35 49.04 4.71 C49.95 3.09 50.97 1.54 52 0 C54.8 -0.06 57.35 0.04 60.12 0.31 C60.88 0.37 61.63 0.43 62.41 0.5 C64.27 0.65 66.14 0.82 68 1 C67.43 4.54 66.55 7.19 64.73 10.27 C64.26 11.09 63.79 11.9 63.3 12.74 C62.79 13.61 62.28 14.48 61.75 15.38 C61.22 16.3 60.7 17.22 60.16 18.17 C57.35 23.08 54.45 27.89 51.35 32.62 C42.28 46.85 40.14 58.19 41 75 C36.38 75 31.76 75 27 75 C25.73 72.46 25.92 70.74 25.96 67.9 C25.97 54.99 25.26 45.22 18.37 34.23 C16.74 31.58 15.23 28.88 13.72 26.16 C11.48 22.15 9.23 18.14 6.95 14.15 C6.45 13.27 5.94 12.38 5.42 11.47 C4.53 9.92 3.63 8.37 2.72 6.83 C0 2.2 0 2.2 0 0 Z " fill="#233B8E" transform="translate(1075,241)"/>
<path d="M0 0 C1.65 0.03 1.65 0.03 3.33 0.06 C4.57 0.08 5.81 0.1 7.09 0.12 C8.46 0.15 9.82 0.18 11.19 0.2 C12.57 0.23 13.96 0.25 15.35 0.27 C19.01 0.34 22.67 0.41 26.34 0.48 C30.07 0.55 33.8 0.61 37.54 0.68 C44.87 0.81 52.2 0.94 59.53 1.08 C59.53 5.04 59.53 9 59.53 13.08 C57.95 13.14 56.37 13.2 54.75 13.27 C52.7 13.35 50.64 13.43 48.59 13.52 C47.03 13.58 47.03 13.58 45.43 13.64 C43.95 13.7 43.95 13.7 42.44 13.77 C41.52 13.8 40.6 13.84 39.66 13.88 C37.54 13.85 37.54 13.85 36.53 15.08 C36.4 16.95 36.35 18.83 36.32 20.7 C36.3 21.9 36.28 23.11 36.26 24.34 C36.24 25.65 36.23 26.96 36.21 28.3 C36.19 29.65 36.17 30.99 36.15 32.34 C36.09 35.88 36.04 39.42 35.99 42.96 C35.94 46.58 35.89 50.19 35.83 53.8 C35.72 60.9 35.62 67.99 35.53 75.08 C30.91 75.08 26.29 75.08 21.53 75.08 C20.19 72.4 20.41 70.35 20.41 67.35 C20.41 66.15 20.41 64.95 20.41 63.71 C20.42 62.41 20.42 61.1 20.43 59.76 C20.43 58.42 20.43 57.08 20.43 55.73 C20.44 52.2 20.45 48.67 20.46 45.13 C20.47 41.53 20.47 37.92 20.48 34.31 C20.49 27.24 20.51 20.16 20.53 13.08 C12.94 13.08 5.35 13.08 -2.47 13.08 C-3.72 10.58 -3.61 8.81 -3.6 6.02 C-3.6 5.12 -3.6 4.22 -3.61 3.3 C-3.42 0.14 -3.17 0.11 0 0 Z " fill="#233B8E" transform="translate(1009.4740142822266,240.91770935058594)"/>
<path d="M0 0 C6.93 0.5 6.93 0.5 14 1 C14 20.8 14 40.6 14 61 C25.76 60.96 25.76 60.96 37.52 60.91 C38.99 60.91 40.46 60.9 41.93 60.9 C42.7 60.9 43.46 60.89 44.25 60.89 C49.77 60.89 49.77 60.89 52 62 C52 66.29 52 70.58 52 75 C34.84 75 17.68 75 0 75 C-1.47 72.06 -1.13 69.46 -1.13 66.18 C-1.13 65.13 -1.13 65.13 -1.13 64.06 C-1.14 61.73 -1.14 59.41 -1.13 57.09 C-1.13 55.48 -1.13 53.87 -1.14 52.26 C-1.14 48.89 -1.14 45.52 -1.13 42.14 C-1.12 37.81 -1.13 33.48 -1.13 29.14 C-1.14 25.82 -1.14 22.5 -1.13 19.17 C-1.13 17.58 -1.13 15.98 -1.14 14.38 C-1.14 12.15 -1.13 9.92 -1.13 7.69 C-1.13 6.42 -1.13 5.15 -1.13 3.84 C-1 1 -1 1 0 0 Z " fill="#233B8E" transform="translate(791,152)"/>
<path d="M0 0 C4.95 0.33 9.9 0.66 15 1 C15 20.8 15 40.6 15 61 C26.76 60.96 26.76 60.96 38.52 60.91 C39.99 60.91 41.46 60.9 42.93 60.9 C43.7 60.9 44.46 60.89 45.25 60.89 C50.77 60.89 50.77 60.89 53 62 C53 66.29 53 70.58 53 75 C35.84 75 18.68 75 1 75 C0.67 50.25 0.34 25.5 0 0 Z " fill="#233B8E" transform="translate(650,152)"/>
<path d="M0 0 C1.16 -0.03 2.33 -0.05 3.52 -0.08 C6.62 0.25 6.62 0.25 8.3 1.33 C10.33 4.28 9.94 6.75 9.87 10.29 C9.86 11 9.86 11.72 9.85 12.45 C9.81 14.8 9.76 17.16 9.7 19.51 C9.67 21.14 9.64 22.78 9.62 24.41 C9.55 28.7 9.46 33 9.37 37.3 C9.28 41.68 9.2 46.06 9.13 50.45 C8.98 59.05 8.81 67.65 8.62 76.25 C3.67 76.25 -1.27 76.25 -6.38 76.25 C-7.54 72.75 -7.5 70.01 -7.5 66.32 C-7.51 65.61 -7.51 64.91 -7.51 64.19 C-7.51 61.87 -7.51 59.56 -7.51 57.24 C-7.51 55.63 -7.51 54.03 -7.51 52.42 C-7.51 49.05 -7.51 45.68 -7.51 42.32 C-7.5 37.99 -7.5 33.67 -7.51 29.34 C-7.51 26.02 -7.51 22.7 -7.51 19.39 C-7.51 17.79 -7.51 16.19 -7.51 14.6 C-7.51 12.37 -7.51 10.15 -7.5 7.93 C-7.5 6.66 -7.5 5.39 -7.5 4.08 C-7.27 -1.08 -4.59 0.06 0 0 Z " fill="#233B8E" transform="translate(665.375,239.75)"/>
<path d="M0 0 C6.93 0.5 6.93 0.5 14 1 C14 25.42 14 49.84 14 75 C9.38 75 4.76 75 0 75 C-1.47 72.06 -1.13 69.46 -1.13 66.18 C-1.13 65.13 -1.13 65.13 -1.13 64.06 C-1.14 61.73 -1.14 59.41 -1.13 57.09 C-1.13 55.48 -1.13 53.87 -1.14 52.26 C-1.14 48.89 -1.14 45.52 -1.13 42.14 C-1.12 37.81 -1.13 33.48 -1.13 29.14 C-1.14 25.82 -1.14 22.5 -1.13 19.17 C-1.13 17.58 -1.13 15.98 -1.14 14.38 C-1.14 12.15 -1.13 9.92 -1.13 7.69 C-1.13 6.42 -1.13 5.15 -1.13 3.84 C-1 1 -1 1 0 0 Z " fill="#233B8E" transform="translate(979,241)"/>
<path d="M0 0 C4.35 2.18 7.41 4.86 10 9 C9.75 11.31 9.75 11.31 9 13 C5.75 13.31 5.75 13.31 2 13 C1.36 12.15 0.72 11.31 0.06 10.44 C-0.62 9.63 -1.3 8.83 -2 8 C-4.87 7.84 -7.15 8.38 -10 9 C-10 9.99 -10 10.98 -10 12 C-8.81 12.36 -8.81 12.36 -7.59 12.73 C-0.73 14.9 4.59 16.81 9.88 21.75 C11.64 25.28 11.32 28.08 11 32 C2.87 40.13 2.87 40.13 -3.81 40.25 C-8.99 40.17 -12.61 39.32 -16.44 35.61 C-18.76 33 -20.87 30.58 -21 27 C-20.34 26.34 -19.68 25.68 -19 25 C-15.5 25.12 -15.5 25.12 -12 26 C-11.69 26.66 -11.38 27.33 -11.06 28.01 C-10.71 28.67 -10.36 29.32 -10 30 C-7.88 30.7 -7.88 30.7 -5.5 30.75 C-4.71 30.81 -3.91 30.86 -3.09 30.92 C-1.73 30.97 -0.36 31 1 31 C1 29.02 1 27.04 1 25 C0.23 24.86 -0.55 24.73 -1.34 24.59 C-8.61 23.09 -14.51 21.22 -19 15 C-19.76 11.01 -19.4 8.97 -17.88 5.25 C-13.16 -0.41 -6.94 -1.02 0 0 Z M2 27 C3 30 3 30 3 30 Z " fill="#7C8182" transform="translate(717,429)"/>
<path d="M0 0 C3.16 -0.11 5.97 0.05 9 1 C10.94 3.83 11.88 5.84 13 9 C13.86 11.04 14.72 13.07 15.58 15.11 C16.47 17.32 17.36 19.54 18.25 21.75 C18.71 22.87 19.17 24 19.64 25.15 C20.07 26.23 20.51 27.31 20.95 28.42 C21.35 29.4 21.74 30.37 22.15 31.38 C23 34 23 34 23 38 C20.36 38 17.72 38 15 38 C13.68 35.36 12.36 32.72 11 30 C7.04 30 3.08 30 -1 30 C-2.32 32.64 -3.64 35.28 -5 38 C-7.64 38 -10.28 38 -13 38 C-14.25 34.24 -13.59 33.31 -12.12 29.69 C-11.67 28.55 -11.21 27.42 -10.75 26.25 C-10.16 24.83 -9.58 23.42 -9 22 C-8.22 20.08 -7.44 18.17 -6.66 16.25 C-4.45 10.83 -2.23 5.41 0 0 Z M4 12 C3.32 13.67 3.32 13.67 2.62 15.38 C1 19 1 19 -1 21 C2.27 21.97 4.39 22 8 22 C7.34 18.7 6.68 15.4 6 12 C5.34 12 4.68 12 4 12 Z " fill="#7C8183" transform="translate(505,430)"/>
<path d="M0 0 C2.34 0.29 4.67 0.62 7 1 C7.02 1.67 7.04 2.34 7.06 3.03 C7.16 6.08 7.27 9.14 7.38 12.19 C7.41 13.24 7.44 14.3 7.47 15.38 C7.51 16.41 7.55 17.43 7.59 18.48 C7.62 19.42 7.65 20.36 7.68 21.32 C8.03 24.23 8.64 26.41 10 29 C13.58 30.37 13.58 30.37 20 30 C20.33 20.43 20.66 10.86 21 1 C23.86 -0.43 25.93 0.4 29 1 C29.1 5.32 29.17 9.65 29.22 13.97 C29.24 15.44 29.27 16.91 29.3 18.38 C29.35 20.5 29.37 22.61 29.39 24.73 C29.41 26 29.43 27.28 29.45 28.59 C28.92 32.58 27.81 34.18 25 37 C21.9 38.55 18.65 38.31 15.25 38.38 C14.19 38.43 14.19 38.43 13.12 38.49 C9.2 38.55 6.73 38.2 3.61 35.73 C-0.6 31.33 -1.25 28.59 -1.23 22.52 C-1.23 21.27 -1.23 20.03 -1.22 18.74 C-1.21 17.45 -1.2 16.15 -1.19 14.81 C-1.19 13.5 -1.19 12.19 -1.19 10.85 C-1.14 1.14 -1.14 1.14 0 0 Z M21 26 C22 28 22 28 22 28 Z " fill="#7C8083" transform="translate(840,430)"/>
<path d="M0 0 C2.31 0.33 4.62 0.66 7 1 C7.67 2.6 8.34 4.21 9 5.81 C9.37 6.71 9.74 7.6 10.12 8.52 C11 11 11 11 11 14 C11.66 14 12.32 14 13 14 C13.29 13.07 13.58 12.15 13.88 11.19 C14.29 9.99 14.7 8.8 15.12 7.56 C15.52 6.37 15.91 5.17 16.32 3.94 C18 1 18 1 20.99 -0.1 C24 0 24 0 25.69 1.51 C26.34 2.25 26.34 2.25 27 3 C25.36 7.51 23.7 12.01 22.04 16.51 C21.47 18.04 20.91 19.57 20.35 21.1 C19.55 23.31 18.73 25.51 17.92 27.71 C17.67 28.39 17.42 29.08 17.17 29.78 C14.88 35.88 14.88 35.88 12 38 C8.53 39.16 5.64 39.07 2 39 C1.34 37.68 0.68 36.36 0 35 C2.22 31.67 3.35 31.25 7 30 C5.78 23.18 3.61 17.04 0.94 10.67 C-0.64 6.72 -1.37 4.1 0 0 Z " fill="#7D8283" transform="translate(1059,440)"/>
<path d="M0 0 C3.68 3.23 3.5 5.39 3.84 10.22 C3.96 12.5 4.06 14.77 4.17 17.05 C4.35 20.58 4.63 23.85 5.56 27.25 C2.92 27.25 0.28 27.25 -2.44 27.25 C-2.44 26.59 -2.44 25.93 -2.44 25.25 C-3.43 25.25 -4.42 25.25 -5.44 25.25 C-5.44 25.91 -5.44 26.57 -5.44 27.25 C-8.59 28.82 -10.96 28.6 -14.44 28.25 C-18.18 25.89 -20.05 24.43 -21.44 20.19 C-21.44 17.03 -21.16 15.84 -19.44 13.25 C-17.2 11.98 -17.2 11.98 -14.56 11 C-13.7 10.66 -12.84 10.33 -11.95 9.98 C-9.44 9.25 -9.44 9.25 -5.44 9.25 C-5.77 8.26 -6.1 7.27 -6.44 6.25 C-9.73 6.63 -9.73 6.63 -12.44 8.25 C-14.78 7.96 -17.11 7.63 -19.44 7.25 C-19.77 6.26 -20.1 5.27 -20.44 4.25 C-14.58 -2.1 -8.03 -4.09 0 0 Z M-12.44 17.25 C-12.77 18.24 -13.1 19.23 -13.44 20.25 C-10.08 21.02 -10.08 21.02 -6.44 21.25 C-4.47 19.96 -4.47 19.96 -3.44 18.25 C-3.77 17.26 -4.1 16.27 -4.44 15.25 C-8.17 15.25 -9.45 15.29 -12.44 17.25 Z " fill="#7B7F82" transform="translate(769.4375,440.75)"/>
<path d="M0 0 C2.77 2.36 3.42 3.64 3.75 7.22 C3.78 7.99 3.81 8.75 3.84 9.53 C3.88 10.37 3.92 11.2 3.96 12.06 C4.03 13.81 4.1 15.56 4.17 17.32 C4.21 18.15 4.24 18.98 4.28 19.84 C4.31 20.6 4.34 21.37 4.37 22.15 C4.5 24.39 4.5 24.39 5.56 27.19 C1.9 27.19 -1.77 27.19 -5.44 27.19 C-6.1 27.33 -6.77 27.47 -7.45 27.62 C-10.89 28.3 -13.38 28.68 -16.62 27.16 C-18.64 25.63 -20.05 24.31 -21.44 22.19 C-21.56 18.59 -21.44 16.44 -19.15 13.59 C-17.14 11.95 -15.4 11.28 -12.94 10.5 C-11.78 10.12 -11.78 10.12 -10.59 9.74 C-8.44 9.19 -8.44 9.19 -5.44 9.19 C-5.44 7.87 -5.44 6.55 -5.44 5.19 C-10.45 5.52 -10.45 5.52 -14.44 8.19 C-17.06 7.81 -17.06 7.81 -19.44 7.19 C-19.77 6.2 -20.1 5.21 -20.44 4.19 C-14.59 -2.15 -7.98 -4.21 0 0 Z M-4.44 7.19 C-3.44 9.19 -3.44 9.19 -3.44 9.19 Z M-12.44 17.19 C-12.11 18.84 -11.78 20.49 -11.44 22.19 C-7.36 20.89 -7.36 20.89 -3.44 19.19 C-3.77 17.87 -4.1 16.55 -4.44 15.19 C-8.2 15.19 -9.35 15.42 -12.44 17.19 Z " fill="#7B7F81" transform="translate(674.4375,440.8125)"/>
<path d="M0 0 C4.72 2.78 7.97 5.4 9.5 10.77 C9.92 14.64 9.47 18.42 7.73 21.93 C5.71 23.06 5.71 23.06 3.73 23.93 C3.05 25.25 2.38 26.59 1.73 27.93 C-1.99 29.17 -5.39 29.46 -9.27 28.93 C-14.22 26.36 -17.76 22.95 -20.27 17.93 C-20.85 12.08 -19.87 7.57 -16.27 2.93 C-11.31 -0.84 -5.87 -2.77 0 0 Z M-9.27 5.93 C-11.33 9.03 -11.56 9.88 -11.58 13.43 C-11.59 14.2 -11.61 14.98 -11.63 15.77 C-11.17 18.47 -10.45 19.32 -8.27 20.93 C-4.66 21.66 -4.66 21.66 -1.27 21.93 C0.08 17.88 0.28 14.16 -0.27 9.93 C-1.77 7.26 -1.77 7.26 -4.27 5.93 C-6.85 5.35 -6.85 5.35 -9.27 5.93 Z " fill="#7C8182" transform="translate(610.265625,440.0703125)"/>
<path d="M0 0 C3.1 1.37 4.62 2.23 6.13 5.3 C7.02 8.07 7.23 10.18 7.2 13.08 C7.19 14.01 7.18 14.94 7.18 15.9 C7.16 16.86 7.14 17.82 7.12 18.81 C7.12 19.79 7.11 20.77 7.1 21.78 C7.07 24.19 7.04 26.59 7 29 C3.62 29.19 3.62 29.19 0 29 C-2.07 25.9 -2.24 25.27 -2.2 21.77 C-2.19 20.97 -2.18 20.16 -2.18 19.34 C-2.16 18.5 -2.14 17.67 -2.12 16.81 C-2.12 15.97 -2.11 15.12 -2.1 14.25 C-2.07 12.17 -2.04 10.08 -2 8 C-4.31 8 -6.62 8 -9 8 C-9.66 14.93 -10.32 21.86 -11 29 C-13.31 29 -15.62 29 -18 29 C-20.06 24.88 -19.18 19.53 -19.19 15 C-19.2 13.88 -19.21 12.76 -19.22 11.61 C-19.23 10.54 -19.23 9.47 -19.23 8.38 C-19.23 7.39 -19.24 6.41 -19.24 5.4 C-19 3 -19 3 -17 1 C-14.69 0.84 -14.69 0.84 -12 0.94 C-7.67 1.08 -4.3 -0.4 0 0 Z " fill="#7C8083" transform="translate(895,439)"/>
<path d="M0 0 C3.47 2.3 3.47 2.3 4.92 4.02 C4.92 5.34 4.92 6.66 4.92 8.02 C2.59 8.07 0.25 8.06 -2.08 8.02 C-2.41 7.69 -2.74 7.36 -3.08 7.02 C-5.06 7.02 -7.04 7.02 -9.08 7.02 C-5.12 8.67 -1.16 10.32 2.92 12.02 C2.92 12.68 2.92 13.34 2.92 14.02 C3.91 14.35 4.9 14.68 5.92 15.02 C7.35 17.88 7.31 19.86 6.92 23.02 C4.42 24.77 4.42 24.77 1.92 26.02 C1.92 26.68 1.92 27.34 1.92 28.02 C-2.71 29.57 -7.47 29.93 -12.15 28.3 C-15.22 26.71 -16.91 25.35 -18.52 22.27 C-18.7 21.53 -18.89 20.79 -19.08 20.02 C-16.08 18.02 -16.08 18.02 -13.52 18.27 C-11.08 19.02 -11.08 19.02 -9.08 21.02 C-6.76 21.42 -4.42 21.76 -2.08 22.02 C-4.41 18.52 -4.98 18.57 -8.89 17.71 C-14.14 16.26 -16.34 14.75 -19.08 10.02 C-19.26 6.26 -18.17 5.13 -15.7 2.27 C-11.22 -1.57 -5.41 -2.54 0 0 Z " fill="#7A8081" transform="translate(1017.078125,439.9765625)"/>
<path d="M0 0 C4.75 2.47 7.49 5.28 10 10 C9.67 10.99 9.34 11.98 9 13 C9.33 13.33 9.66 13.66 10 14 C10 14.99 10 15.98 10 17 C4.72 17.33 -0.56 17.66 -6 18 C-6 18.99 -6 19.98 -6 21 C-3.1 21.68 -3.1 21.68 0 22 C0.66 21.34 1.32 20.68 2 20 C5.62 20.38 5.62 20.38 9 21 C8.46 24.8 6.84 26.5 4 29 C0.8 30.6 -2.52 30.36 -6 30 C-10.29 28.21 -13.93 25.21 -16 21 C-16.91 15.71 -16.67 11.43 -14.38 6.56 C-10.12 1.97 -6.46 -1.08 0 0 Z M-6 8 C-6.73 10.02 -6.73 10.02 -7 12 C-4.36 12 -1.72 12 1 12 C1 10.68 1 9.36 1 8 C-2.01 7.07 -2.87 6.96 -6 8 Z " fill="#7C8182" transform="translate(810,439)"/>
<path d="M0 0 C2.75 2.19 2.75 2.19 3.75 5.19 C4.41 5.19 5.07 5.19 5.75 5.19 C6.41 8.49 7.07 11.79 7.75 15.19 C-0.66 15.68 -0.66 15.68 -9.25 16.19 C-9.25 17.18 -9.25 18.17 -9.25 19.19 C-6.35 19.87 -6.35 19.87 -3.25 20.19 C-2.59 19.53 -1.93 18.87 -1.25 18.19 C1.48 18.22 4.05 18.75 6.75 19.19 C4.97 23.01 3.32 24.81 -0.25 27.19 C-4.6 27.84 -9.22 28.19 -13.23 26.21 C-16.8 23.34 -18.95 20.33 -19.59 15.82 C-19.68 10.05 -19.14 6.75 -15.25 2.19 C-14.75 1.59 -14.26 0.99 -13.75 0.38 C-9.51 -2.98 -4.48 -2.5 0 0 Z M-9.25 6.19 C-9.58 7.84 -9.91 9.49 -10.25 11.19 C-6.95 11.19 -3.65 11.19 -0.25 11.19 C-0.95 8.68 -0.95 8.68 -2.25 6.19 C-5.18 4.86 -6.13 5.15 -9.25 6.19 Z " fill="#7B8082" transform="translate(968.25,440.8125)"/>
<path d="M0 0 C5.73 3.2 5.73 3.2 7 7 C7.08 8.7 7.11 10.4 7.1 12.11 C7.09 13.09 7.09 14.07 7.09 15.08 C7.08 16.11 7.07 17.13 7.06 18.19 C7.06 19.22 7.05 20.26 7.05 21.33 C7.04 23.88 7.02 26.44 7 29 C3.62 29.19 3.62 29.19 0 29 C-2.07 25.9 -2.24 25.27 -2.2 21.77 C-2.19 20.97 -2.18 20.16 -2.18 19.34 C-2.16 18.5 -2.14 17.67 -2.12 16.81 C-2.12 15.97 -2.11 15.12 -2.1 14.25 C-2.07 12.17 -2.04 10.08 -2 8 C-2.95 8.02 -3.9 8.04 -4.88 8.06 C-8 8 -8 8 -10 7 C-9.83 7.57 -9.66 8.14 -9.48 8.73 C-8.97 11.13 -9.04 12.9 -9.34 15.33 C-9.43 16.13 -9.53 16.93 -9.62 17.75 C-9.78 18.99 -9.78 18.99 -9.94 20.25 C-10.04 21.09 -10.14 21.93 -10.24 22.8 C-10.49 24.87 -10.74 26.93 -11 29 C-13.31 29 -15.62 29 -18 29 C-20.06 24.88 -19.18 19.53 -19.19 15 C-19.2 13.88 -19.21 12.76 -19.22 11.61 C-19.23 10.54 -19.23 9.47 -19.23 8.38 C-19.23 7.39 -19.24 6.41 -19.24 5.4 C-19 3 -19 3 -17 1 C-14.69 0.84 -14.69 0.84 -12 0.94 C-7.66 1.08 -4.29 -0.49 0 0 Z " fill="#7C8083" transform="translate(642,439)"/>
<path d="M0 0 C0.84 -0 1.69 -0 2.56 -0 C3.45 -0 4.34 0 5.25 0.01 C6.14 0 7.02 0 7.94 -0 C8.78 -0 9.63 -0 10.5 0 C11.28 0 12.06 0 12.86 0 C14.82 0.13 14.82 0.13 16.82 1.13 C16.82 3.44 16.82 5.75 16.82 8.13 C16.22 8.38 15.62 8.63 15 8.88 C11.9 10.66 10.4 12.98 8.82 16.13 C7.84 17.15 6.84 18.16 5.82 19.13 C8.04 20.43 8.04 20.43 11.82 20.13 C15.82 20.13 15.82 20.13 17.82 21.13 C17.82 23.44 17.82 25.75 17.82 28.13 C9.9 28.13 1.98 28.13 -6.18 28.13 C-6.51 25.82 -6.84 23.51 -7.18 21.13 C-6.19 20.47 -5.2 19.81 -4.18 19.13 C-3.52 18.12 -2.86 17.11 -2.18 16.07 C-0.18 13.13 -0.18 13.13 2.82 12.13 C2.82 10.81 2.82 9.49 2.82 8.13 C1.7 8.19 0.59 8.26 -0.56 8.32 C-1.75 8.26 -2.95 8.2 -4.18 8.13 C-6.18 5.13 -6.18 5.13 -5.87 3.01 C-4.64 -0.36 -3.39 0 0 0 Z " fill="#7A7E81" transform="translate(570.18359375,439.8671875)"/>
<path d="M0 0 C6.48 -0.37 6.48 -0.37 8.62 1.16 C10.42 3.56 10.97 5.78 11.69 8.69 C12.06 10.18 12.06 10.18 12.45 11.7 C12.63 12.46 12.81 13.22 13 14 C13.66 14 14.32 14 15 14 C15.33 14.99 15.66 15.98 16 17 C15.92 16.22 15.84 15.43 15.75 14.62 C16.09 9.63 17.37 5.29 20 1 C23.72 -0.44 25.24 -0.25 29 1 C26.59 10.36 22.76 19.13 19 28 C16.36 28 13.72 28 11 28 C11 27.01 11 26.02 11 25 C10.34 25 9.68 25 9 25 C7.49 21.4 5.99 17.79 4.5 14.19 C4.07 13.16 3.64 12.14 3.2 11.08 C2.79 10.1 2.39 9.12 1.97 8.11 C1.59 7.2 1.21 6.29 0.83 5.36 C0 3 0 3 0 0 Z " fill="#7D8283" transform="translate(919,440)"/>
<path d="M0 0 C0.99 0.66 1.98 1.32 3 2 C3.19 5.12 3.19 5.12 3 8 C4.65 8.33 6.3 8.66 8 9 C8 10.98 8 12.96 8 15 C6.68 15 5.36 15 4 15 C4 19.29 4 23.58 4 28 C6.47 28.99 6.47 28.99 9 30 C9 31.98 9 33.96 9 36 C4.71 37.26 2.06 36.85 -2 35 C-4.67 32.45 -4.99 31.18 -5.19 27.43 C-5.14 26.1 -5.08 24.77 -5 23.44 C-4.5 18.47 -4.5 18.47 -6.51 14.15 C-7 13.77 -7.49 13.39 -8 13 C-7.75 9.37 -5.79 6.11 -4 3 C-1.81 1.12 -1.81 1.12 0 0 Z " fill="#7D8183" transform="translate(1048,432)"/>
<path d="M0 0 C0.56 0.23 1.11 0.45 1.69 0.69 C1.36 1.02 1.03 1.35 0.69 1.69 C0.65 3.69 0.64 5.69 0.69 7.69 C2.34 8.02 3.99 8.35 5.69 8.69 C5.69 10.67 5.69 12.65 5.69 14.69 C4.37 14.69 3.05 14.69 1.69 14.69 C1.36 19.31 1.03 23.93 0.69 28.69 C2.67 29.02 4.65 29.35 6.69 29.69 C6.81 32.06 6.81 32.06 6.69 34.69 C4.69 36.69 4.69 36.69 1.38 37.12 C-2.31 36.69 -2.31 36.69 -5.25 35.06 C-8.15 30.32 -7.6 26.31 -7.29 20.87 C-7.02 17.53 -7.02 17.53 -9.31 14.69 C-9.7 12.7 -10.04 10.7 -10.31 8.69 C-9.65 8.36 -8.99 8.03 -8.31 7.69 C-7.65 8.02 -6.99 8.35 -6.31 8.69 C-6.64 6.71 -6.97 4.73 -7.31 2.69 C-2.88 -0.39 -2.88 -0.39 0 0 Z " fill="#7C8182" transform="translate(786.3125,432.3125)"/>
<path d="M0 0 C-0.33 0.33 -0.66 0.66 -1 1 C-1.04 3 -1.04 5 -1 7 C0.65 7.33 2.3 7.66 4 8 C4 9.98 4 11.96 4 14 C2.68 14 1.36 14 0 14 C-0.33 18.62 -0.66 23.24 -1 28 C0.98 28.33 2.96 28.66 5 29 C4.67 30.98 4.34 32.96 4 35 C2.59 35.11 1.17 35.19 -0.25 35.25 C-1.04 35.3 -1.83 35.34 -2.64 35.39 C-5 35 -5 35 -7.29 33.49 C-9.67 30.02 -9.36 26.91 -9.12 22.88 C-9 20.23 -8.96 17.65 -9 15 C-9.66 14.34 -10.32 13.68 -11 13 C-11.62 10.38 -11.62 10.38 -12 8 C-11.01 7.67 -10.02 7.34 -9 7 C-8.92 6.05 -8.84 5.1 -8.75 4.12 C-8 1 -8 1 -6.19 -0.44 C-3.71 -1.07 -2.38 -0.85 0 0 Z " fill="#7C8083" transform="translate(742,433)"/>
<path d="M0 0 C0 0.66 0 1.32 0 2 C0.99 2 1.98 2 3 2 C3.33 3.32 3.66 4.64 4 6 C3.34 6 2.68 6 2 6 C2 6.99 2 7.98 2 9 C0.58 8.91 0.58 8.91 -0.88 8.81 C-2.42 8.91 -2.42 8.91 -4 9 C-5.98 11.96 -6.26 12.68 -6.41 16.01 C-6.47 17.15 -6.47 17.15 -6.53 18.31 C-6.58 19.49 -6.58 19.49 -6.62 20.69 C-6.68 21.88 -6.68 21.88 -6.74 23.1 C-6.84 25.07 -6.92 27.03 -7 29 C-9.64 29 -12.28 29 -15 29 C-17.06 24.88 -16.18 19.53 -16.19 15 C-16.2 13.88 -16.21 12.76 -16.22 11.61 C-16.23 10.54 -16.23 9.47 -16.23 8.38 C-16.23 7.39 -16.24 6.41 -16.24 5.4 C-16 3 -16 3 -14 1 C-11.91 0.84 -11.91 0.84 -9.5 0.94 C-5.97 1.07 -3.44 0 0 0 Z " fill="#7C8183" transform="translate(995,439)"/>
<path d="M0 0 C1.65 0.66 3.3 1.32 5 2 C5 4.92 4.57 6.65 3.62 9.38 C3.22 10.56 3.22 10.56 2.8 11.77 C1.93 14.21 1 16.61 0 19 C-2.81 19.31 -2.81 19.31 -6 19 C-7.88 16.5 -7.88 16.5 -9 14 C-9.66 15.65 -10.32 17.3 -11 19 C-13.31 19.25 -13.31 19.25 -16 19 C-18.94 15.94 -19.76 12.83 -20.69 8.75 C-20.94 7.67 -21.19 6.59 -21.45 5.48 C-21.72 4.25 -21.72 4.25 -22 3 C-20.35 2.67 -18.7 2.34 -17 2 C-16.01 3.65 -15.02 5.3 -14 7 C-13.01 5.02 -12.02 3.04 -11 1 C-9.35 1.33 -7.7 1.66 -6 2 C-5.67 3.98 -5.34 5.96 -5 8 C-2.65 7.11 -2.65 7.11 -1.94 4 C-1.63 3.01 -1.32 2.02 -1 1 C-0.67 0.67 -0.34 0.34 0 0 Z M-4 9 C-3.34 9.66 -2.68 10.32 -2 11 C-2 10.34 -2 9.68 -2 9 C-2.66 9 -3.32 9 -4 9 Z " fill="#7C8182" transform="translate(554,388)"/>
<path d="M0 0 C4.4 0.07 6.2 0.12 9.94 2.56 C11.84 5.68 12.61 7.79 12.69 11.44 C12.03 12.1 11.37 12.76 10.69 13.44 C9.7 14.92 9.7 14.92 8.69 16.44 C6.56 16.91 6.56 16.91 4.12 17.06 C1.11 17.04 1.11 17.04 -1.31 18.44 C-1.68 20.77 -2.01 23.1 -2.31 25.44 C-3.96 25.44 -5.61 25.44 -7.31 25.44 C-9.2 21.67 -8.5 17.09 -8.5 12.94 C-8.51 11.96 -8.52 10.99 -8.54 9.98 C-8.54 9.05 -8.54 8.12 -8.54 7.16 C-8.55 6.3 -8.55 5.44 -8.56 4.56 C-7.98 -0.46 -4.17 0.08 0 0 Z M-0.31 5.44 C-0.97 6.1 -1.63 6.76 -2.31 7.44 C-2.31 8.76 -2.31 10.08 -2.31 11.44 C1.83 11.65 1.83 11.65 5.69 10.44 C5.03 8.79 4.37 7.14 3.69 5.44 C2.37 5.44 1.05 5.44 -0.31 5.44 Z " fill="#7B8081" transform="translate(498.3125,381.5625)"/>
<path d="M0 0 C1.32 0.33 2.64 0.66 4 1 C4 8.92 4 16.84 4 25 C-7.03 26.45 -7.03 26.45 -11.19 24.5 C-14.04 20.56 -14.18 17 -13.75 12.25 C-12.86 9.59 -12.34 8.56 -10 7 C-4.73 6 -4.73 6 -2 6 C-1.86 5.2 -1.71 4.39 -1.56 3.56 C-1 1 -1 1 0 0 Z M-6.69 12.06 C-8.38 14.12 -8.38 14.12 -7.69 17.69 C-7.46 18.78 -7.23 19.87 -7 21 C-5.35 20.67 -3.7 20.34 -2 20 C-1.73 15.35 -1.73 15.35 -3 11 C-5.05 10.82 -5.05 10.82 -6.69 12.06 Z " fill="#7A7E81" transform="translate(624,382)"/>
<path d="M0 0 C0 0.66 0 1.32 0 2 C0.66 2 1.32 2 2 2 C2 3.65 2 5.3 2 7 C-0.64 7.66 -3.28 8.32 -6 9 C-6.33 10.32 -6.66 11.64 -7 13 C-7.66 13 -8.32 13 -9 13 C-8.67 13.99 -8.34 14.98 -8 16 C-7.93 18.23 -7.92 20.46 -7.94 22.69 C-7.95 23.87 -7.96 25.05 -7.96 26.26 C-7.98 27.17 -7.99 28.07 -8 29 C-10.31 29 -12.62 29 -15 29 C-17.06 24.88 -16.18 19.53 -16.19 15 C-16.2 13.88 -16.21 12.76 -16.22 11.61 C-16.23 10.54 -16.23 9.47 -16.23 8.38 C-16.23 7.39 -16.24 6.41 -16.24 5.4 C-16 3 -16 3 -14 1 C-11.91 0.84 -11.91 0.84 -9.5 0.94 C-5.97 1.07 -3.44 0 0 0 Z " fill="#7D8183" transform="translate(547,439)"/>
<path d="M0 0 C1.68 0.29 3.34 0.62 5 1 C5.66 2.98 6.32 4.96 7 7 C7.54 6.73 8.07 6.46 8.62 6.19 C11 6 11 6 14.25 7.75 C16.4 9.69 16.96 10.77 17.52 13.64 C17.68 18.15 17.74 21 15 24.69 C14.34 25.12 13.68 25.55 13 26 C12.34 25.67 11.68 25.34 11 25 C10.67 25.33 10.34 25.66 10 26 C8.31 26.07 6.62 26.08 4.94 26.06 C4.02 26.05 3.1 26.04 2.15 26.04 C1.44 26.02 0.73 26.01 0 26 C-0.2 21.85 -0.38 17.71 -0.56 13.56 C-0.62 12.38 -0.67 11.19 -0.73 9.97 C-0.78 8.85 -0.83 7.73 -0.88 6.57 C-0.93 5.52 -0.97 4.48 -1.02 3.41 C-1 1 -1 1 0 0 Z M6 12 C5.34 13.98 4.68 15.96 4 18 C5.32 19.32 6.64 20.64 8 22 C8.99 21.34 9.98 20.68 11 20 C11.25 16.42 11.25 16.42 11 13 C9.35 12.67 7.7 12.34 6 12 Z " fill="#7A7F81" transform="translate(642,382)"/>
<path d="M0 0 C91.74 0 183.48 0 278 0 C278 0.33 278 0.66 278 1 C186.26 1 94.52 1 0 1 C0 0.67 0 0.34 0 0 Z " fill="#233B8E" transform="translate(492,341)"/>
<path d="M0 0 C89.1 0 178.2 0 270 0 C270 0.33 270 0.66 270 1 C180.9 1 91.8 1 0 1 C0 0.67 0 0.34 0 0 Z " fill="#A2CB65" transform="translate(165,174)"/>
<path d="M0 0 C3.44 2.6 4.78 4.3 6.06 8.44 C5.99 12.83 4.78 14.66 2 18 C-1.2 19.6 -3.45 19.41 -7 19 C-9.89 17.43 -12.04 15.65 -14 13 C-14.55 9.46 -14.32 7.17 -13.38 3.75 C-9.81 -0.78 -5.3 -1.8 0 0 Z M-7 4 C-8.11 7.33 -7.84 9.62 -7 13 C-5.02 13 -3.04 13 -1 13 C-0.75 9.58 -0.75 9.58 -1 6 C-3.82 3.72 -3.82 3.72 -7 4 Z " fill="#7B8181" transform="translate(526,389)"/>
<path d="M0 0 C2.31 0.66 4.62 1.32 7 2 C7.33 4.31 7.66 6.62 8 9 C8.99 9 9.98 9 11 9 C11.14 7.89 11.29 6.77 11.44 5.62 C12 2 12 2 13 0 C15.97 0.5 15.97 0.5 19 1 C17.46 6.37 15.83 11.71 14.06 17 C13.76 17.91 13.47 18.81 13.16 19.75 C11.79 22.41 10.74 22.94 8 24 C7.67 24.33 7.34 24.66 7 25 C5.33 25.04 3.67 25.04 2 25 C2 23.35 2 21.7 2 20 C3.32 20 4.64 20 6 20 C5.57 18.81 5.13 17.62 4.69 16.39 C4.12 14.82 3.56 13.25 3 11.69 C2.71 10.9 2.43 10.12 2.13 9.31 C1.86 8.55 1.59 7.79 1.31 7.01 C1.06 6.32 0.81 5.62 0.55 4.9 C0 3 0 3 0 0 Z " fill="#7C8183" transform="translate(660,389)"/>
<path d="M0 0 C0 0.66 0 1.32 0 2 C0.99 2.33 1.98 2.66 3 3 C4.03 5.61 4.43 8.24 5 11 C-0.45 11.5 -0.45 11.5 -6 12 C-4.68 12.66 -3.36 13.32 -2 14 C-1.67 13.34 -1.34 12.68 -1 12 C1.48 12.99 1.48 12.99 4 14 C3.67 14.66 3.34 15.32 3 16 C2.34 15.67 1.68 15.34 1 15 C1.33 15.99 1.66 16.98 2 18 C-1.51 19.76 -5.29 18.95 -9 18 C-12.3 15.26 -12.91 13.75 -13.44 9.5 C-12.97 5.78 -12.33 3.91 -10 1 C-6.6 -1.58 -4.01 -0.91 0 0 Z M-4 4 C-4.99 4.5 -4.99 4.5 -6 5 C-6 5.66 -6 6.32 -6 7 C-4.68 6.67 -3.36 6.34 -2 6 C-2.66 5.34 -3.32 4.68 -4 4 Z M-6 17 C-6 17.33 -6 17.66 -6 18 C-4.35 18 -2.7 18 -1 18 C-1 17.67 -1 17.34 -1 17 C-2.65 17 -4.3 17 -6 17 Z " fill="#797E83" transform="translate(604,389)"/>
<path d="M0 0 C0 0.66 0 1.32 0 2 C0.99 2.33 1.98 2.66 3 3 C4.35 5.71 4.07 8.01 4 11 C0.37 11 -3.26 11 -7 11 C-6.67 11.66 -6.34 12.32 -6 13 C-3.98 13.65 -3.98 13.65 -2 14 C-1.67 13.34 -1.34 12.68 -1 12 C1.48 12.99 1.48 12.99 4 14 C3.67 14.66 3.34 15.32 3 16 C2.34 15.67 1.68 15.34 1 15 C1.33 15.99 1.66 16.98 2 18 C-5.85 19.57 -5.85 19.57 -10 17.5 C-12.67 14.16 -13.07 12.28 -13 8 C-12.02 5.09 -10.85 2.46 -9 0 C-5.52 -1.16 -3.54 -0.71 0 0 Z M-4 4 C-4.99 4.5 -4.99 4.5 -6 5 C-6 5.66 -6 6.32 -6 7 C-4.68 6.67 -3.36 6.34 -2 6 C-2.66 5.34 -3.32 4.68 -4 4 Z " fill="#7A7E82" transform="translate(572,389)"/>
<path d="M0 0 C2.31 0.33 4.62 0.66 7 1 C7 9.91 7 18.82 7 28 C4.69 28 2.38 28 0 28 C-0.2 23.52 -0.38 19.04 -0.56 14.56 C-0.62 13.28 -0.67 12 -0.73 10.69 C-0.78 9.47 -0.83 8.26 -0.88 7 C-0.93 5.88 -0.97 4.75 -1.02 3.59 C-1 1 -1 1 0 0 Z " fill="#7D8184" transform="translate(1030,440)"/>
<path d="M0 0 C2.31 0.33 4.62 0.66 7 1 C7 9.91 7 18.82 7 28 C4.69 28 2.38 28 0 28 C-0.2 23.52 -0.38 19.04 -0.56 14.56 C-0.62 13.28 -0.67 12 -0.73 10.69 C-0.78 9.47 -0.83 8.26 -0.88 7 C-0.93 5.88 -0.97 4.75 -1.02 3.59 C-1 1 -1 1 0 0 Z " fill="#7D8184" transform="translate(909,440)"/>
<path d="M0 0 C2.31 0.33 4.62 0.66 7 1 C7 9.91 7 18.82 7 28 C4.69 28 2.38 28 0 28 C-0.2 23.52 -0.38 19.04 -0.56 14.56 C-0.62 13.28 -0.67 12 -0.73 10.69 C-0.78 9.47 -0.83 8.26 -0.88 7 C-0.93 5.88 -0.97 4.75 -1.02 3.59 C-1 1 -1 1 0 0 Z " fill="#7D8184" transform="translate(553,440)"/>
<path d="M0 0 C0.33 0 0.66 0 1 0 C1 41.58 1 83.16 1 126 C0.67 126 0.34 126 0 126 C0 84.42 0 42.84 0 0 Z " fill="#A2CB65" transform="translate(162,324)"/>
<path d="M0 0 C0.68 0.54 1.36 1.07 2.06 1.62 C1.07 2.12 1.07 2.12 0.06 2.62 C0.39 3.62 0.72 4.61 1.06 5.62 C-0.59 5.3 -2.24 4.96 -3.94 4.62 C-4.6 8.92 -5.26 13.2 -5.94 17.62 C-7.26 17.62 -8.58 17.62 -9.94 17.62 C-9.94 12.01 -9.94 6.4 -9.94 0.62 C-2.94 -1.38 -2.94 -1.38 0 0 Z " fill="#7B8083" transform="translate(589.9375,389.375)"/>
<path d="M0 0 C2.44 1.08 4.77 2.2 7.12 3.44 C7.78 3.78 8.44 4.11 9.12 4.46 C10.75 5.3 12.38 6.15 14 7 C14 8.32 14 9.64 14 11 C7.6 10.73 2.76 8.34 -2 4 C-2 3.01 -2 2.02 -2 1 C-1.34 0.67 -0.68 0.34 0 0 Z " fill="#213888" transform="translate(424,272)"/>
<path d="M0 0 C0.33 0 0.66 0 1 0 C1 22.77 1 45.54 1 69 C0.67 69 0.34 69 0 69 C0 46.23 0 23.46 0 0 Z " fill="#233B8E" transform="translate(649,154)"/>
<path d="M0 0 C19.14 0 38.28 0 58 0 C58 0.33 58 0.66 58 1 C38.86 1 19.72 1 0 1 C0 0.67 0 0.34 0 0 Z " fill="#233B8E" transform="translate(1008,240)"/>
<path d="M0 0 C15.51 0 31.02 0 47 0 C47 0.33 47 0.66 47 1 C31.49 1 15.98 1 0 1 C0 0.67 0 0.34 0 0 Z " fill="#233B8E" transform="translate(770,240)"/>
<path d="M0 0 C2.64 0.33 5.28 0.66 8 1 C8 2.98 8 4.96 8 7 C5.69 7 3.38 7 1 7 C0.67 4.69 0.34 2.38 0 0 Z " fill="#7B7F84" transform="translate(908,430)"/>
<path d="M0 0 C0.33 0 0.66 0 1 0 C1 14.52 1 29.04 1 44 C0.67 44 0.34 44 0 44 C0 29.48 0 14.96 0 0 Z " fill="#A2CB65" transform="translate(162,177)"/>
<path d="M0 0 C2.31 0 4.62 0 7 0 C7 1.98 7 3.96 7 6 C4.69 6 2.38 6 0 6 C0 4.02 0 2.04 0 0 Z " fill="#7D8184" transform="translate(1030,431)"/>
<path d="M0 0 C2.31 0 4.62 0 7 0 C7 1.98 7 3.96 7 6 C4.69 6 2.38 6 0 6 C0 4.02 0 2.04 0 0 Z " fill="#7D8184" transform="translate(553,431)"/>
<path d="M0 0 C0.33 0 0.66 0 1 0 C1 12.21 1 24.42 1 37 C0.67 37 0.34 37 0 37 C0 24.79 0 12.58 0 0 Z " fill="#A2CB65" transform="translate(162,268)"/>
<path d="M0 0 C7.92 0 15.84 0 24 0 C24 0.33 24 0.66 24 1 C16.08 1 8.16 1 0 1 C0 0.67 0 0.34 0 0 Z " fill="#233B8E" transform="translate(533,187)"/>
<path d="M0 0 C0.33 0 0.66 0 1 0 C1 7.59 1 15.18 1 23 C0.67 23 0.34 23 0 23 C0 15.41 0 7.82 0 0 Z " fill="#7D8184" transform="translate(1028,442)"/>
<path d="M0 0 C0.33 0 0.66 0 1 0 C1 7.59 1 15.18 1 23 C0.67 23 0.34 23 0 23 C0 15.41 0 7.82 0 0 Z " fill="#7D8184" transform="translate(907,442)"/>
<path d="M0 0 C0.33 0 0.66 0 1 0 C1 6.93 1 13.86 1 21 C0.67 21 0.34 21 0 21 C0 14.07 0 7.14 0 0 Z " fill="#7D8184" transform="translate(640,384)"/>
<path d="M0 0 C0.33 0 0.66 0 1 0 C1 6.6 1 13.2 1 20 C0.67 20 0.34 20 0 20 C0 13.4 0 6.8 0 0 Z " fill="#7D8184" transform="translate(551,445)"/>
<path d="M0 0 C4.29 0 8.58 0 13 0 C13 0.33 13 0.66 13 1 C8.38 1.33 3.76 1.66 -1 2 C-0.67 1.34 -0.34 0.68 0 0 Z " fill="#233B8E" transform="translate(686,240)"/>
<path d="M0 0 C4.29 0 8.58 0 13 0 C13 0.33 13 0.66 13 1 C8.71 1 4.42 1 0 1 C0 0.67 0 0.34 0 0 Z " fill="#233B8E" transform="translate(1076,240)"/>
<path d="M0 0 C3.96 0 7.92 0 12 0 C12 0.33 12 0.66 12 1 C8.04 1 4.08 1 0 1 C0 0.67 0 0.34 0 0 Z " fill="#233B8E" transform="translate(737,151)"/>
<path d="M0 0 C3.63 0 7.26 0 11 0 C11 0.33 11 0.66 11 1 C7.37 1 3.74 1 0 1 C0 0.67 0 0.34 0 0 Z " fill="#233B8E" transform="translate(1129,240)"/>
<path d="M0 0 C3.63 0 7.26 0 11 0 C11 0.33 11 0.66 11 1 C7.37 1 3.74 1 0 1 C0 0.67 0 0.34 0 0 Z " fill="#233B8E" transform="translate(980,240)"/>
<path d="M0 0 C3.63 0 7.26 0 11 0 C11 0.33 11 0.66 11 1 C7.37 1 3.74 1 0 1 C0 0.67 0 0.34 0 0 Z " fill="#233B8E" transform="translate(742,240)"/>
<path d="M0 0 C3.63 0 7.26 0 11 0 C11 0.33 11 0.66 11 1 C7.37 1 3.74 1 0 1 C0 0.67 0 0.34 0 0 Z " fill="#233B8E" transform="translate(626,240)"/>
<path d="M0 0 C3.63 0 7.26 0 11 0 C11 0.33 11 0.66 11 1 C7.37 1 3.74 1 0 1 C0 0.67 0 0.34 0 0 Z " fill="#233B8E" transform="translate(543,240)"/>
<path d="M0 0 C3.63 0 7.26 0 11 0 C11 0.33 11 0.66 11 1 C7.37 1 3.74 1 0 1 C0 0.67 0 0.34 0 0 Z " fill="#233B8E" transform="translate(878,151)"/>
<path d="M0 0 C3.63 0 7.26 0 11 0 C11 0.33 11 0.66 11 1 C7.37 1 3.74 1 0 1 C0 0.67 0 0.34 0 0 Z " fill="#233B8E" transform="translate(792,151)"/>
<path d="M0 0 C3.63 0 7.26 0 11 0 C11 0.33 11 0.66 11 1 C7.37 1 3.74 1 0 1 C0 0.67 0 0.34 0 0 Z " fill="#233B8E" transform="translate(652,151)"/>
<path d="M0 0 C3.63 0 7.26 0 11 0 C11 0.33 11 0.66 11 1 C7.37 1 3.74 1 0 1 C0 0.67 0 0.34 0 0 Z " fill="#233B8E" transform="translate(597,151)"/>
<path d="M0 0 C0 0.99 0 1.98 0 3 C-1.98 3.99 -1.98 3.99 -4 5 C-2.68 3.35 -1.36 1.7 0 0 Z " fill="#37393B" transform="translate(616,462)"/>
<path d="M0 0 C0.33 0 0.66 0 1 0 C1 2.97 1 5.94 1 9 C0.67 9 0.34 9 0 9 C0 6.03 0 3.06 0 0 Z " fill="#7D8184" transform="translate(778,450)"/>
<path d="M0 0 C2.64 0 5.28 0 8 0 C8 0.33 8 0.66 8 1 C5.36 1 2.72 1 0 1 C0 0.67 0 0.34 0 0 Z " fill="#233B8E" transform="translate(576,240)"/>
<path d="M0 0 C0 0.99 0 1.98 0 3 C-0.99 3 -1.98 3 -3 3 C-2.01 2.01 -1.02 1.02 0 0 Z " fill="#0F193E" transform="translate(959,307)"/>
<path d="M0 0 C0 0.99 0 1.98 0 3 C-0.66 2.67 -1.32 2.34 -2 2 C-1.34 1.34 -0.68 0.68 0 0 Z " fill="#323336" transform="translate(1021,464)"/>
<path d="M0 0 C0 0.99 0 1.98 0 3 C-0.66 2.67 -1.32 2.34 -2 2 C-1.34 1.34 -0.68 0.68 0 0 Z " fill="#323336" transform="translate(582,451)"/>
<path d="M0 0 C1.65 0 3.3 0 5 0 C5 0.33 5 0.66 5 1 C3.35 1 1.7 1 0 1 C0 0.67 0 0.34 0 0 Z " fill="#7D8184" transform="translate(507,429)"/>
<path d="M0 0 C0 0.99 0 1.98 0 3 C-0.66 2.67 -1.32 2.34 -2 2 C-1.34 1.34 -0.68 0.68 0 0 Z " fill="#323336" transform="translate(670,411)"/>
<path d="M0 0 C0.33 0 0.66 0 1 0 C1 1.65 1 3.3 1 5 C0.67 5 0.34 5 0 5 C0 3.35 0 1.7 0 0 Z " fill="#7D8184" transform="translate(578,390)"/>
<path d="M0 0 C0 0.99 0 1.98 0 3 C-0.66 2.67 -1.32 2.34 -2 2 C-1.34 1.34 -0.68 0.68 0 0 Z " fill="#0E173A" transform="translate(514,169)"/>
<path d="M0 0 C1 4 1 4 1 4 Z " fill="#7D8184" transform="translate(793,453)"/>
<path d="M0 0 C1 4 1 4 1 4 Z " fill="#7D8184" transform="translate(1028,431)"/>
<path d="M0 0 C1 4 1 4 1 4 Z " fill="#7D8184" transform="translate(551,431)"/>
<path d="M0 0 C4 1 4 1 4 1 Z " fill="#7D8184" transform="translate(1030,429)"/>
<path d="M0 0 C4 1 4 1 4 1 Z " fill="#7D8184" transform="translate(910,429)"/>
<path d="M0 0 C4 1 4 1 4 1 Z " fill="#7D8184" transform="translate(863,429)"/>
<path d="M0 0 C4 1 4 1 4 1 Z " fill="#7D8184" transform="translate(841,429)"/>
<path d="M0 0 C4 1 4 1 4 1 Z " fill="#7D8184" transform="translate(553,429)"/>
<path d="" fill="#7D8184" transform="translate(0,0)"/>
<path d="" fill="#7D8184" transform="translate(0,0)"/>
<path d="" fill="#7D8184" transform="translate(0,0)"/>
<path d="M0 0 C3 1 3 1 3 1 Z " fill="#A2CB65" transform="translate(248,232)"/>
<path d="" fill="#7D8184" transform="translate(0,0)"/>
<path d="" fill="#3E4043" transform="translate(0,0)"/>
<path d="M0 0 C2 1 2 1 2 1 Z " fill="#3E4043" transform="translate(1016,448)"/>
<path d="M0 0 C2 1 2 1 2 1 Z " fill="#3E4043" transform="translate(546,447)"/>
<path d="" fill="#7D8184" transform="translate(0,0)"/>
<path d="" fill="#7D8184" transform="translate(0,0)"/>
<path d="M0 0 C2 1 2 1 2 1 Z " fill="#505E89" transform="translate(1050,432)"/>
<path d="" fill="#7D8184" transform="translate(0,0)"/>
<path d="M0 0 C2 1 2 1 2 1 Z " fill="#7D8184" transform="translate(661,388)"/>
<path d="M0 0 C2 1 2 1 2 1 Z " fill="#7D8184" transform="translate(580,388)"/>
<path d="M0 0 C2 1 2 1 2 1 Z " fill="#7D8184" transform="translate(544,388)"/>
<path d="M0 0 C2 1 2 1 2 1 Z " fill="#7D8184" transform="translate(533,388)"/>
<path d="" fill="#7D8184" transform="translate(0,0)"/>
<path d="" fill="#7D8184" transform="translate(0,0)"/>
<path d="" fill="#000002" transform="translate(0,0)"/>
<path d="" fill="#000002" transform="translate(0,0)"/>
<path d="" fill="#000002" transform="translate(0,0)"/>
<path d="" fill="#000002" transform="translate(0,0)"/>
<path d="" fill="#000002" transform="translate(0,0)"/>
<path d="" fill="#000002" transform="translate(0,0)"/>
<path d="" fill="#7D8184" transform="translate(0,0)"/>
<path d="" fill="#7D8184" transform="translate(0,0)"/>
<path d="" fill="#7D8184" transform="translate(0,0)"/>
<path d="" fill="#000002" transform="translate(0,0)"/>
<path d="" fill="#000002" transform="translate(0,0)"/>
<path d="" fill="#000002" transform="translate(0,0)"/>
<path d="" fill="#7D8184" transform="translate(0,0)"/>
<path d="" fill="#7D8184" transform="translate(0,0)"/>
<path d="" fill="#000002" transform="translate(0,0)"/>
<path d="" fill="#000002" transform="translate(0,0)"/>
<path d="" fill="#000002" transform="translate(0,0)"/>
<path d="" fill="#000002" transform="translate(0,0)"/>
<path d="" fill="#000002" transform="translate(0,0)"/>
<path d="" fill="#000002" transform="translate(0,0)"/>
<path d="" fill="#000002" transform="translate(0,0)"/>
<path d="" fill="#000002" transform="translate(0,0)"/>
<path d="" fill="#000002" transform="translate(0,0)"/>
<path d="" fill="#7D8184" transform="translate(0,0)"/>
<path d="" fill="#7D8184" transform="translate(0,0)"/>
<path d="" fill="#7D8184" transform="translate(0,0)"/>
<path d="" fill="#7D8184" transform="translate(0,0)"/>
<path d="" fill="#000002" transform="translate(0,0)"/>
<path d="" fill="#000002" transform="translate(0,0)"/>
<path d="" fill="#7D8184" transform="translate(0,0)"/>
<path d="" fill="#7D8184" transform="translate(0,0)"/>
<path d="" fill="#7D8184" transform="translate(0,0)"/>
<path d="" fill="#000002" transform="translate(0,0)"/>
<path d="" fill="#000002" transform="translate(0,0)"/>
<path d="" fill="#7D8184" transform="translate(0,0)"/>
<path d="" fill="#7D8184" transform="translate(0,0)"/>
<path d="" fill="#7D8184" transform="translate(0,0)"/>
<path d="" fill="#7D8184" transform="translate(0,0)"/>
<path d="" fill="#7D8184" transform="translate(0,0)"/>
<path d="" fill="#000002" transform="translate(0,0)"/>
<path d="" fill="#000002" transform="translate(0,0)"/>
<path d="" fill="#000002" transform="translate(0,0)"/>
<path d="" fill="#A2CB65" transform="translate(0,0)"/>
<path d="" fill="#233B8E" transform="translate(0,0)"/>
<path d="" fill="#233B8E" transform="translate(0,0)"/>
<path d="" fill="#233B8E" transform="translate(0,0)"/>
<path d="" fill="#A2CB65" transform="translate(0,0)"/>
<path d="" fill="#A2CB65" transform="translate(0,0)"/>
<path d="" fill="#A2CB65" transform="translate(0,0)"/>
<path d="" fill="#233B8E" transform="translate(0,0)"/>
<path d="" fill="#000002" transform="translate(0,0)"/>
<path d="" fill="#233B8E" transform="translate(0,0)"/>
<path d="" fill="#233B8E" transform="translate(0,0)"/>
<path d="" fill="#233B8E" transform="translate(0,0)"/>
</svg>
