<?xml version="1.0" encoding="UTF-8"?>
<!-- Generator: visioncortex VTracer 0.6.3 -->
<svg version="1.1" xmlns="http://www.w3.org/2000/svg" width="1280" height="696">
<path d="M0 0 C131.34 0 262.68 0 398 0 C398 199.98 398 399.96 398 606 C368.96 606.33 339.92 606.66 310 607 C310 636.04 310 665.08 310 695 C306.87 696.56 303.55 696.14 300.12 696.12 C299.29 696.13 298.46 696.13 297.61 696.13 C294.8 696.13 291.98 696.13 289.17 696.12 C287.14 696.12 285.11 696.12 283.07 696.13 C277.44 696.13 271.81 696.13 266.18 696.12 C260.07 696.12 253.96 696.12 247.85 696.12 C237.13 696.12 226.41 696.12 215.68 696.12 C204.18 696.11 192.67 696.11 181.16 696.11 C180.07 696.11 180.07 696.11 178.96 696.11 C175.26 696.11 171.55 696.11 167.85 696.11 C141.04 696.12 114.22 696.11 87.41 696.11 C60.84 696.1 34.28 696.1 7.71 696.09 C6.89 696.09 6.06 696.09 5.22 696.09 C-2.31 696.09 -9.84 696.09 -17.37 696.09 C-36.09 696.09 -54.81 696.09 -73.53 696.09 C-74.38 696.09 -75.23 696.09 -76.11 696.09 C-117.6 696.09 -159.09 696.08 -200.57 696.08 C-214.97 696.07 -229.38 696.07 -243.78 696.07 C-245.12 696.07 -245.12 696.07 -246.48 696.07 C-287.98 696.06 -329.48 696.06 -370.98 696.06 C-373.69 696.05 -376.41 696.05 -379.12 696.05 C-407.41 696.05 -435.7 696.05 -463.99 696.05 C-464.8 696.05 -465.61 696.05 -466.44 696.05 C-467.91 696.05 -469.38 696.05 -470.85 696.05 C-607.9 696.04 -744.95 696.02 -882 696 C-882 495.36 -882 294.72 -882 88 C-590.94 88 -299.88 88 0 88 C0 58.96 0 29.92 0 0 Z " fill="#004A9A" transform="translate(882,0)"/>
<path d="M0 0 C131.34 0 262.68 0 398 0 C398 199.98 398 399.96 398 606 C368.63 606 339.26 606 309 606 C307.2 604.2 307.87 601.73 307.86 599.33 C307.86 598.51 307.86 597.68 307.86 596.83 C307.86 595.96 307.86 595.09 307.85 594.2 C307.84 591.24 307.84 588.28 307.84 585.33 C307.84 583.2 307.83 581.08 307.83 578.95 C307.81 573.08 307.81 567.21 307.8 561.34 C307.79 555.03 307.78 548.71 307.76 542.39 C307.74 531.43 307.72 520.48 307.71 509.52 C307.69 498.02 307.67 486.53 307.65 475.03 C307.65 474.32 307.65 473.6 307.65 472.87 C307.64 469.24 307.64 465.62 307.63 461.99 C307.58 436.29 307.54 410.59 307.5 384.89 C307.46 359.92 307.42 334.95 307.37 309.98 C307.37 309.21 307.37 308.44 307.37 307.65 C307.35 299.92 307.34 292.19 307.33 284.47 C307.3 268.73 307.27 252.99 307.24 237.25 C307.24 236.53 307.24 235.81 307.24 235.06 C307.16 186.71 307.08 138.35 307 90 C306.36 90 305.71 90 305.05 89.99 C266.88 89.89 228.71 89.78 190.54 89.67 C185.96 89.66 181.38 89.64 176.8 89.63 C175.89 89.62 174.98 89.62 174.04 89.62 C159.26 89.58 144.48 89.53 129.7 89.5 C114.55 89.45 99.4 89.41 84.24 89.36 C74.89 89.33 65.53 89.31 56.17 89.28 C49.76 89.27 43.35 89.25 36.95 89.23 C33.24 89.21 29.54 89.2 25.84 89.2 C21.83 89.19 17.83 89.17 13.82 89.16 C12.05 89.16 12.05 89.16 10.24 89.16 C9.17 89.15 8.11 89.14 7.01 89.14 C6.08 89.14 5.16 89.13 4.2 89.13 C2 89 2 89 0 88 C0 58.96 0 29.92 0 0 Z " fill="#FADB03" transform="translate(882,0)"/>
<path d="M0 0 C1.16 0.01 2.33 0.02 3.53 0.03 C4.74 0.05 5.96 0.08 7.21 0.11 C8.43 0.12 9.66 0.13 10.92 0.15 C13.96 0.18 16.99 0.23 20.02 0.29 C23.87 7.45 26.55 14.93 29.27 22.58 C29.76 23.97 30.26 25.36 30.76 26.75 C32.07 30.4 33.37 34.05 34.66 37.69 C35.97 41.37 37.29 45.03 38.6 48.7 C40.31 53.49 42.03 58.28 43.73 63.07 C44.39 64.92 45.06 66.77 45.72 68.62 C46.62 71.18 47.5 73.73 48.36 76.31 C48.58 76.96 48.8 77.61 49.03 78.27 C49.63 80.07 50.23 81.87 50.82 83.66 C51.22 84.53 51.61 85.4 52.02 86.29 C53.01 86.62 54 86.95 55.02 87.29 C55.25 86.64 55.48 85.99 55.71 85.32 C57.91 79.03 60.12 72.74 62.32 66.45 C63.46 63.22 64.59 59.99 65.72 56.76 C68.14 49.85 70.56 42.95 73 36.05 C74.38 32.12 75.75 28.18 77.11 24.24 C78.02 21.62 78.93 19.01 79.84 16.4 C80.48 14.56 81.11 12.73 81.74 10.89 C82.13 9.79 82.51 8.68 82.91 7.55 C83.25 6.58 83.58 5.61 83.93 4.61 C85.02 2.29 85.02 2.29 88.02 0.29 C92.19 -0.15 96.39 -0.03 100.58 -0.02 C101.74 -0.04 102.91 -0.05 104.1 -0.07 C105.77 -0.07 105.77 -0.07 107.46 -0.07 C108.48 -0.07 109.5 -0.08 110.55 -0.08 C111.77 0.1 111.77 0.1 113.02 0.29 C115.19 3.55 115.27 4.44 115.27 8.2 C115.27 9.22 115.28 10.23 115.28 11.27 C115.27 12.38 115.27 13.49 115.26 14.63 C115.26 15.8 115.27 16.97 115.27 18.18 C115.27 22.05 115.26 25.93 115.25 29.8 C115.25 32.48 115.25 35.17 115.25 37.85 C115.25 43.48 115.24 49.11 115.23 54.73 C115.21 61.25 115.2 67.76 115.21 74.28 C115.21 80.53 115.2 86.79 115.19 93.05 C115.19 95.72 115.19 98.39 115.19 101.06 C115.18 104.77 115.18 108.49 115.16 112.21 C115.17 113.33 115.17 114.44 115.17 115.59 C115.16 116.59 115.16 117.6 115.15 118.64 C115.15 119.52 115.15 120.4 115.15 121.3 C115.02 123.29 115.02 123.29 114.02 124.29 C110.57 124.54 107.1 124.48 103.64 124.48 C102.19 124.5 102.19 124.5 100.7 124.52 C99.77 124.52 98.83 124.52 97.87 124.52 C96.58 124.53 96.58 124.53 95.27 124.54 C93.02 124.29 93.02 124.29 90.02 122.29 C89.66 119.58 89.66 119.58 89.68 116.1 C89.68 114.8 89.68 113.5 89.68 112.16 C89.69 110.73 89.71 109.3 89.73 107.88 C89.73 106.42 89.74 104.97 89.74 103.52 C89.75 99.68 89.78 95.85 89.81 92.02 C89.84 88.12 89.86 84.21 89.87 80.3 C89.91 72.63 89.96 64.96 90.02 57.29 C89.36 57.29 88.7 57.29 88.02 57.29 C87.85 57.94 87.69 58.58 87.52 59.25 C85.56 66.66 83.19 73.88 80.64 81.11 C80.23 82.29 79.82 83.47 79.39 84.68 C78.52 87.15 77.66 89.62 76.79 92.08 C75.67 95.25 74.56 98.41 73.46 101.58 C72.4 104.61 71.33 107.64 70.27 110.67 C69.87 111.81 69.47 112.94 69.07 114.12 C68.7 115.16 68.32 116.21 67.94 117.28 C67.46 118.67 67.46 118.67 66.96 120.08 C66.02 122.29 66.02 122.29 64.02 124.29 C60.73 124.74 57.4 124.62 54.08 124.61 C52.7 124.63 52.7 124.63 51.29 124.65 C49.97 124.66 49.97 124.66 48.62 124.66 C47.81 124.66 47 124.66 46.16 124.67 C43.44 124.19 42.78 123.39 41.02 121.29 C40.05 119.22 40.05 119.22 39.21 116.8 C38.89 115.89 38.57 114.98 38.24 114.05 C37.74 112.57 37.74 112.57 37.22 111.06 C36.86 110.04 36.5 109.02 36.13 107.96 C34.98 104.68 33.84 101.39 32.71 98.11 C31.21 93.82 29.72 89.53 28.22 85.25 C27.86 84.22 27.5 83.18 27.13 82.12 C24.22 73.8 21.18 65.53 18.02 57.29 C17.69 57.29 17.36 57.29 17.02 57.29 C17.01 58.12 17 58.94 16.99 59.79 C16.89 67.55 16.79 75.3 16.68 83.06 C16.62 87.04 16.57 91.03 16.52 95.02 C16.47 98.86 16.42 102.71 16.37 106.55 C16.35 108.02 16.33 109.49 16.31 110.96 C16.29 113.02 16.26 115.07 16.22 117.12 C16.21 118.29 16.19 119.46 16.18 120.67 C16.02 123.29 16.02 123.29 15.02 124.29 C13.41 124.39 11.79 124.42 10.18 124.43 C9.2 124.43 8.22 124.43 7.21 124.43 C5.66 124.42 5.66 124.42 4.08 124.42 C2.54 124.42 2.54 124.42 0.97 124.43 C-0.01 124.43 -1 124.43 -2.01 124.43 C-2.91 124.42 -3.82 124.42 -4.75 124.42 C-6.98 124.29 -6.98 124.29 -8.98 123.29 C-9.05 107.7 -9.1 92.1 -9.14 76.51 C-9.15 69.27 -9.17 62.03 -9.21 54.79 C-9.24 48.48 -9.26 42.17 -9.26 35.86 C-9.27 32.52 -9.28 29.18 -9.3 25.83 C-9.32 22.11 -9.32 18.38 -9.32 14.65 C-9.33 13.54 -9.34 12.43 -9.35 11.28 C-9.35 10.27 -9.35 9.25 -9.34 8.21 C-9.34 7.33 -9.35 6.45 -9.35 5.54 C-8.45 0.09 -4.86 -0.07 0 0 Z " fill="#F9FCFE" transform="translate(96.98046875,320.70703125)"/>
<path d="M0 0 C9.61 8.04 16.13 20.62 17.31 33.04 C18.19 48.19 16.26 61.65 6.75 74 C-1.14 82.38 -10.21 85.92 -21.5 86.28 C-30.74 85.99 -37.98 82.24 -45.56 77.19 C-45.59 78.48 -45.61 79.78 -45.64 81.12 C-45.73 85.91 -45.83 90.71 -45.93 95.5 C-45.98 97.58 -46.02 99.66 -46.06 101.74 C-46.12 104.72 -46.18 107.7 -46.25 110.68 C-46.27 112.09 -46.27 112.09 -46.3 113.52 C-46.32 114.38 -46.34 115.24 -46.36 116.13 C-46.37 116.89 -46.39 117.65 -46.4 118.43 C-46.56 120.19 -46.56 120.19 -47.56 121.19 C-51.01 121.44 -54.48 121.37 -57.94 121.38 C-59.4 121.39 -59.4 121.39 -60.88 121.41 C-61.82 121.41 -62.75 121.42 -63.71 121.42 C-65 121.42 -65 121.42 -66.31 121.43 C-68.56 121.19 -68.56 121.19 -71.56 119.19 C-71.94 117.08 -71.94 117.08 -71.95 114.42 C-71.96 113.41 -71.97 112.4 -71.98 111.37 C-71.97 109.7 -71.97 109.7 -71.97 108.01 C-71.97 106.84 -71.98 105.68 -71.99 104.48 C-72.01 100.61 -72 96.75 -72 92.88 C-72 90.88 -72 88.88 -72.01 86.88 C-72.02 80.58 -72.02 74.28 -72.01 67.99 C-72 61.49 -72.01 54.99 -72.04 48.5 C-72.06 42.92 -72.07 37.34 -72.06 31.77 C-72.06 28.44 -72.06 25.1 -72.08 21.77 C-72.09 18.06 -72.08 14.34 -72.06 10.63 C-72.07 9.52 -72.08 8.42 -72.09 7.28 C-72.08 6.27 -72.07 5.25 -72.06 4.21 C-72.06 3.33 -72.06 2.45 -72.06 1.55 C-71.4 -1.59 -70.01 -2.8 -67.56 -4.81 C-64.59 -5.61 -61.63 -5.46 -58.56 -5.44 C-57.76 -5.47 -56.95 -5.5 -56.12 -5.54 C-53.77 -5.54 -51.82 -5.46 -49.56 -4.81 C-47.19 -1.77 -47.19 -1.77 -45.56 1.19 C-42.19 1.19 -41.49 0.67 -38.81 -1.19 C-27.15 -8.63 -11.36 -7.77 0 0 Z " fill="#FAFDFF" transform="translate(635.5625,360.8125)"/>
<path d="M0 0 C1.25 -0 1.25 -0 2.53 -0 C3.39 0.02 4.26 0.04 5.15 0.06 C6.02 0.05 6.89 0.04 7.79 0.04 C12.58 0.09 12.58 0.09 14.52 0.5 C16.96 4.15 16.81 6.88 16.79 11.11 C16.8 11.89 16.81 12.66 16.81 13.46 C16.82 15.14 16.83 16.83 16.83 18.51 C16.83 21.18 16.85 23.85 16.87 26.52 C16.92 34.11 16.96 41.71 16.98 49.3 C17 53.95 17.03 58.59 17.06 63.24 C17.08 65 17.08 66.77 17.08 68.53 C16.75 84.04 16.75 84.04 22.84 97.93 C29.21 104.02 36.21 104.83 44.68 104.7 C50.92 104.25 55.69 102.85 59.96 98.12 C67.09 88.67 65.68 76.46 65.72 65.16 C65.73 62.58 65.75 60.01 65.78 57.43 C65.84 50.11 65.89 42.8 65.92 35.48 C65.95 30.99 65.98 26.5 66.03 22.01 C66.04 20.3 66.05 18.59 66.05 16.88 C66.06 14.5 66.08 12.12 66.11 9.74 C66.1 8.68 66.1 8.68 66.1 7.59 C66.13 5.64 66.13 5.64 66.52 2.5 C70.71 -0.29 74.17 0.17 79.09 0.18 C79.96 0.17 80.84 0.15 81.74 0.13 C82.58 0.13 83.41 0.13 84.28 0.13 C85.04 0.13 85.81 0.13 86.6 0.12 C87.23 0.25 87.87 0.37 88.52 0.5 C91.03 4.25 90.81 7.19 90.8 11.54 C90.8 12.36 90.81 13.18 90.81 14.03 C90.83 16.74 90.83 19.46 90.82 22.18 C90.83 24.07 90.83 25.97 90.84 27.87 C90.84 31.85 90.84 35.83 90.84 39.81 C90.83 44.88 90.85 49.95 90.87 55.03 C90.89 58.95 90.89 62.87 90.89 66.79 C90.89 68.66 90.89 70.52 90.9 72.39 C90.98 88.43 89.97 102.13 78.64 114.56 C66.58 125.86 52.37 127.03 36.6 126.74 C23.61 126.26 12.72 121.55 3.09 112.75 C-9 99.61 -8.95 80.07 -8.91 63.23 C-8.91 61.54 -8.92 59.84 -8.93 58.15 C-8.93 54.64 -8.93 51.12 -8.92 47.61 C-8.91 43.11 -8.93 38.61 -8.96 34.11 C-8.98 30.63 -8.98 27.15 -8.97 23.67 C-8.97 22.01 -8.98 20.35 -8.99 18.69 C-9.01 16.38 -9 14.07 -8.98 11.76 C-8.98 10.45 -8.98 9.14 -8.98 7.79 C-8.16 2.4 -5.4 -0.01 0 0 Z " fill="#FAFDFF" transform="translate(96.4765625,480.50390625)"/>
<path d="M0 0 C9.17 6.74 15.82 17.23 17.82 28.52 C19.24 43.98 18.39 59.15 8.09 71.57 C-0.7 80.98 -10.22 84.47 -22.88 85.41 C-36.27 85.83 -48.08 81.98 -58.29 73.15 C-67.33 63.81 -70.41 51.93 -70.94 39.19 C-70.38 26.1 -66.27 13.64 -56.94 4.19 C-40.91 -9.15 -17.76 -11.06 0 0 Z " fill="#FAFDFF" transform="translate(668.9375,200.8125)"/>
<path d="M0 0 C8.97 7.4 14.78 18.01 16.77 29.46 C17.05 32.55 17.1 35.61 17.08 38.71 C17.07 39.54 17.07 40.37 17.06 41.23 C16.8 54.62 13.08 63.89 4.02 73.71 C-4.67 81.98 -15.08 84.43 -26.8 84.71 C-39.94 84.37 -51.61 79.93 -61.26 70.79 C-70.72 59.59 -72.24 45.91 -71.48 31.87 C-70.52 22.35 -66.76 13.46 -60.23 6.46 C-59.72 5.84 -59.21 5.23 -58.68 4.6 C-44.52 -11.26 -16.83 -11.7 0 0 Z " fill="#FAFDFF" transform="translate(236.234375,201.54296875)"/>
<path d="M0 0 C9.96 7.93 16.21 17.75 18.36 30.42 C19.9 45.45 18.46 58.85 9.1 70.94 C1.68 79.39 -7.81 84.7 -19.14 85.48 C-34.24 86.38 -45.57 83.07 -57.42 73.67 C-65.93 66.04 -69.42 54.7 -70.39 43.57 C-70.9 29.96 -67.38 16.49 -58.14 6.27 C-52.79 1.14 -47.06 -1.96 -40.14 -4.52 C-39.48 -4.76 -38.83 -5.01 -38.15 -5.26 C-26.12 -8.99 -10.37 -7.3 0 0 Z " fill="#FAFDFF" transform="translate(400.13671875,200.515625)"/>
<path d="M0 0 C1.04 0.4 1.04 0.4 2.1 0.81 C13.81 5.89 19.44 16.68 24 28 C25.48 32.91 25.22 38.1 25.25 43.19 C25.27 44.08 25.29 44.98 25.31 45.9 C25.38 58.18 21.21 68.79 12.81 77.75 C3.42 86.6 -6.95 89.01 -19.69 89 C-33.48 88.3 -44.1 83.73 -54.02 74.02 C-63.12 62.82 -64.31 47.81 -63 34 C-61.05 23.76 -56.68 15.13 -49 8 C-47.73 6.76 -47.73 6.76 -46.44 5.5 C-34.19 -4.61 -14.31 -6.07 0 0 Z " fill="#FAFDFF" transform="translate(726,358)"/>
<path d="M0 0 C10.21 8.31 17.47 18.45 18.99 31.85 C19.12 34.57 19.16 37.27 19.12 40 C19.12 40.96 19.11 41.92 19.1 42.91 C18.79 56.21 15.19 65.63 5.74 75.15 C-3.35 83.6 -12.79 86.19 -25.17 86.19 C-39.98 85.47 -50.56 80.91 -60.85 69.98 C-69.15 59.78 -70.29 45.81 -69.31 33.19 C-67.58 21.96 -63.21 10.51 -54.01 3.41 C-37.53 -7.89 -17.64 -9.65 0 0 Z " fill="#FAFDFF" transform="translate(530.3125,360.8125)"/>
<path d="M0 0 C9.51 6.39 15.39 17.15 18.29 28 C18.88 32.01 18.84 35.98 18.82 40.04 C18.82 40.86 18.83 41.69 18.83 42.54 C18.82 48.66 18.82 48.66 17.7 49.79 C16.02 49.9 14.34 49.95 12.66 49.97 C11.58 49.99 10.51 50.01 9.4 50.03 C8.23 50.04 7.06 50.05 5.86 50.07 C4.66 50.08 3.47 50.1 2.24 50.12 C-1.59 50.18 -5.41 50.23 -9.24 50.29 C-14.27 50.35 -19.3 50.43 -24.33 50.5 C-26.08 50.52 -26.08 50.52 -27.87 50.55 C-28.95 50.56 -30.03 50.58 -31.14 50.6 C-32.09 50.61 -33.04 50.62 -34.02 50.63 C-36.34 50.64 -36.34 50.64 -38.3 51.79 C-38.11 55.97 -37.6 57.49 -34.62 60.54 C-29.02 64.66 -23.11 65.59 -16.3 64.79 C-13.25 63.6 -11.09 62.69 -8.94 60.2 C-6.72 58.28 -5.36 58.43 -2.45 58.46 C-1.05 58.46 -1.05 58.46 0.38 58.47 C1.35 58.49 2.32 58.51 3.32 58.54 C4.3 58.54 5.28 58.55 6.29 58.55 C13.54 58.63 13.54 58.63 14.7 59.79 C15 65.93 13.41 70.25 9.5 74.93 C1.06 83.61 -8.37 86.85 -20.37 87.04 C-34.58 86.86 -45.13 82.57 -55.68 73.1 C-64.02 64.26 -66.89 50.78 -66.62 38.91 C-65.24 25.13 -60.77 13.21 -50.58 3.54 C-36.18 -7.57 -15.83 -8.35 0 0 Z " fill="#FAFDFF" transform="translate(505.3046875,520.21484375)"/>
<path d="M0 0 C8.59 7.3 14.43 17.48 16.62 28.44 C16.62 35.04 16.62 41.64 16.62 48.44 C-11.59 48.93 -11.59 48.93 -40.38 49.44 C-40.11 56.26 -40.11 56.26 -36.56 59.25 C-31.9 62.45 -29.16 63.73 -23.44 63.75 C-21.91 63.78 -21.91 63.78 -20.35 63.8 C-16.2 63.29 -13.66 61.54 -10.52 58.85 C-7.97 57.17 -6.63 57.09 -3.61 57.14 C-2.72 57.15 -1.83 57.16 -0.91 57.17 C0.01 57.2 0.93 57.22 1.88 57.25 C2.81 57.26 3.75 57.28 4.71 57.29 C7.02 57.33 9.32 57.38 11.62 57.44 C13.67 61.15 13.67 61.15 13.23 63.73 C9.21 73.83 3.24 79.24 -6.66 83.53 C-17.81 87.27 -31.46 86.67 -42.38 82.44 C-53.6 76.74 -61.31 69.82 -65.41 57.8 C-70.02 41.8 -68.76 26.88 -60.69 12.19 C-54.7 2.89 -46.85 -2.27 -36.38 -5.56 C-24.17 -8.03 -10.59 -7.16 0 0 Z " fill="#FAFDFF" transform="translate(295.375,360.5625)"/>
<path d="M0 0 C9.6 10.43 10.38 22.86 10.27 36.4 C10.26 37.72 10.26 39.04 10.26 40.4 C10.25 43.87 10.23 47.35 10.21 50.83 C10.19 54.39 10.18 57.95 10.17 61.51 C10.15 68.47 10.11 75.43 10.07 82.39 C6.84 82.51 3.61 82.58 0.38 82.64 C-0.53 82.68 -1.44 82.71 -2.38 82.75 C-9.23 82.85 -9.23 82.85 -13.07 80.38 C-13.69 79.72 -14.3 79.07 -14.93 78.39 C-15.61 78.74 -16.28 79.09 -16.98 79.45 C-17.87 79.91 -18.76 80.36 -19.68 80.83 C-20.56 81.28 -21.44 81.74 -22.35 82.2 C-30.63 86.03 -41.02 85.45 -49.51 82.5 C-57 79.08 -62.57 74.98 -65.93 67.39 C-68.21 60.55 -68.1 51.1 -65.3 44.39 C-64.18 42.32 -64.18 42.32 -62.93 40.39 C-62.53 39.76 -62.13 39.13 -61.71 38.47 C-56.23 31.04 -46.75 27.95 -37.93 26.39 C-34.86 26.16 -31.82 26.16 -28.74 26.21 C-27.96 26.21 -27.18 26.21 -26.38 26.21 C-22.44 26.24 -18.78 26.43 -14.93 27.39 C-15.04 25.96 -15.17 24.52 -15.3 23.08 C-15.41 21.88 -15.41 21.88 -15.52 20.66 C-15.83 18.12 -15.83 18.12 -17.93 15.39 C-24.08 12.79 -31.86 14.3 -37.93 16.39 C-39.44 18.33 -39.44 18.33 -39.93 20.39 C-42.22 22.69 -47.73 21.58 -50.8 21.58 C-51.73 21.59 -52.65 21.61 -53.61 21.62 C-54.94 21.62 -54.94 21.62 -56.3 21.62 C-57.11 21.63 -57.93 21.63 -58.77 21.64 C-60.93 21.39 -60.93 21.39 -63.93 19.39 C-62.53 11.12 -59.78 5.25 -53.18 -0.15 C-38.63 -9.55 -14.07 -11.7 0 0 Z " fill="#FAFDFF" transform="translate(990.9296875,362.60546875)"/>
<path d="M0 0 C1.27 0.02 2.54 0.04 3.86 0.05 C5.32 0.09 5.32 0.09 6.81 0.12 C10.54 6.09 12.84 12.26 15.14 18.89 C15.53 20.01 15.93 21.13 16.33 22.28 C17.16 24.63 17.98 26.98 18.8 29.33 C20.07 32.95 21.34 36.55 22.61 40.16 C23.41 42.45 24.21 44.73 25.02 47.02 C25.4 48.1 25.78 49.19 26.17 50.3 C26.52 51.3 26.87 52.3 27.22 53.33 C27.53 54.21 27.84 55.09 28.16 56 C28.81 58.12 28.81 58.12 28.81 60.12 C29.47 60.12 30.13 60.12 30.81 60.12 C30.81 60.78 30.81 61.45 30.81 62.12 C31.47 62.12 32.13 62.12 32.81 62.12 C32.98 61.46 33.16 60.8 33.33 60.12 C35.17 53.19 37.32 46.42 39.68 39.66 C40.05 38.61 40.41 37.57 40.79 36.5 C41.55 34.31 42.31 32.13 43.08 29.95 C44.26 26.61 45.41 23.26 46.56 19.91 C47.31 17.79 48.06 15.66 48.81 13.53 C49.15 12.53 49.49 11.53 49.84 10.5 C50.17 9.58 50.51 8.65 50.85 7.7 C51.13 6.88 51.41 6.07 51.71 5.23 C53.04 2.69 54.36 1.59 56.81 0.12 C59.98 -0.27 59.98 -0.27 63.44 -0.25 C64.58 -0.26 65.73 -0.27 66.91 -0.27 C68.35 -0.08 68.35 -0.08 69.81 0.12 C74.3 6.85 73.14 16.46 71.81 24.12 C68.8 35.54 63.76 46.47 59.18 57.32 C57.85 60.48 56.55 63.67 55.26 66.85 C36.97 111.7 36.97 111.7 25.06 117.12 C18.8 119.05 13.13 119.28 6.62 119.25 C5.71 119.25 4.8 119.26 3.85 119.26 C2.98 119.26 2.11 119.26 1.21 119.26 C0.41 119.26 -0.38 119.26 -1.2 119.25 C-3.19 119.12 -3.19 119.12 -5.19 118.12 C-5.27 115.35 -5.33 112.58 -5.38 109.81 C-5.41 108.63 -5.41 108.63 -5.45 107.43 C-5.47 106.3 -5.47 106.3 -5.48 105.14 C-5.5 104.44 -5.51 103.74 -5.53 103.03 C-5.08 100.51 -4.22 99.65 -2.19 98.12 C0.35 97.85 2.71 97.7 5.25 97.69 C10.6 97.66 10.6 97.66 15.35 95.53 C17.05 92.73 16.86 91.35 16.32 88.19 C15.33 84.14 13.67 80.36 12.06 76.52 C11.68 75.6 11.3 74.68 10.91 73.73 C9.7 70.8 8.47 67.87 7.25 64.94 C6.45 63.02 5.66 61.1 4.87 59.18 C4.47 58.24 4.08 57.29 3.68 56.32 C2.89 54.41 2.1 52.5 1.32 50.59 C-0.61 45.93 -2.55 41.27 -4.54 36.63 C-11.51 20.16 -11.51 20.16 -10.88 11 C-10.86 10.15 -10.85 9.31 -10.84 8.43 C-10.76 5.99 -10.76 5.99 -10.19 2.12 C-6.45 -0.37 -4.44 -0.08 0 0 Z " fill="#FAFDFF" transform="translate(822.1875,515.875)"/>
<path d="M0 0 C3.75 2.33 6.12 4.85 8.49 8.54 C8.95 9.2 9.41 9.86 9.88 10.54 C16.15 20.39 15.79 32.53 15.68 43.84 C15.68 45.05 15.68 46.25 15.68 47.49 C15.66 51.28 15.64 55.07 15.61 58.86 C15.6 61.45 15.59 64.04 15.59 66.63 C15.56 72.93 15.53 79.24 15.49 85.54 C11.7 85.57 7.91 85.59 4.11 85.61 C2.49 85.62 2.49 85.62 0.84 85.63 C-0.19 85.63 -1.22 85.64 -2.29 85.64 C-3.24 85.65 -4.19 85.65 -5.17 85.66 C-7.51 85.54 -7.51 85.54 -9.51 84.54 C-9.52 83.87 -9.52 83.2 -9.53 82.51 C-9.59 75.5 -9.68 68.49 -9.77 61.48 C-9.81 58.87 -9.84 56.26 -9.86 53.65 C-9.89 49.88 -9.94 46.12 -10 42.36 C-10.01 41.19 -10.01 40.03 -10.02 38.83 C-10.19 28.28 -10.19 28.28 -15.57 19.54 C-21.43 17.55 -27.21 17.63 -32.89 20.17 C-37.82 23.02 -39.92 26.63 -41.59 32.03 C-42.85 37.32 -42.85 42.59 -42.89 48.01 C-42.91 49.08 -42.92 50.16 -42.94 51.26 C-42.99 54.67 -43.04 58.07 -43.07 61.48 C-43.12 64.91 -43.16 68.34 -43.22 71.77 C-43.25 73.9 -43.28 76.03 -43.3 78.16 C-43.31 79.12 -43.32 80.07 -43.34 81.06 C-43.35 81.9 -43.36 82.75 -43.37 83.62 C-43.51 85.54 -43.51 85.54 -44.51 86.54 C-47.96 86.79 -51.43 86.73 -54.89 86.73 C-56.34 86.75 -56.34 86.75 -57.83 86.77 C-58.77 86.77 -59.7 86.77 -60.66 86.77 C-61.95 86.78 -61.95 86.78 -63.26 86.79 C-65.51 86.54 -65.51 86.54 -68.51 84.54 C-68.82 81.87 -68.93 79.43 -68.92 76.76 C-68.92 75.96 -68.93 75.15 -68.94 74.33 C-68.95 71.66 -68.95 69 -68.95 66.33 C-68.95 64.48 -68.96 62.64 -68.96 60.79 C-68.97 56.91 -68.97 53.03 -68.96 49.15 C-68.95 44.18 -68.97 39.21 -69 34.23 C-69.01 30.41 -69.01 26.6 -69.01 22.78 C-69.01 20.94 -69.01 19.11 -69.03 17.28 C-69.04 14.71 -69.03 12.15 -69.01 9.58 C-69.02 8.83 -69.03 8.07 -69.04 7.29 C-68.99 3.86 -68.76 1.89 -66.72 -0.92 C-63.39 -3.24 -60.06 -3.18 -56.14 -3.14 C-55.37 -3.14 -54.61 -3.14 -53.82 -3.14 C-50.27 -3.02 -48.09 -2.83 -45.06 -0.88 C-43.6 0.87 -42.48 2.48 -41.51 4.54 C-40.86 4.13 -40.21 3.72 -39.54 3.3 C-38.66 2.76 -37.79 2.22 -36.89 1.67 C-36.03 1.13 -35.17 0.6 -34.29 0.05 C-23.7 -5.7 -10.7 -5.17 0 0 Z " fill="#F9FCFE" transform="translate(273.51171875,519.45703125)"/>
<path d="M0 0 C7.14 5.53 11.48 13.94 12.9 22.75 C13.17 27.53 13.13 32.3 13.09 37.09 C13.09 38.47 13.09 39.85 13.09 41.23 C13.08 44.83 13.06 48.44 13.04 52.04 C13.02 55.73 13.01 59.41 13 63.1 C12.97 70.32 12.94 77.53 12.9 84.75 C9.29 84.81 5.69 84.84 2.09 84.88 C1.06 84.89 0.04 84.91 -1.02 84.93 C-2 84.93 -2.98 84.94 -4 84.95 C-4.9 84.96 -5.81 84.97 -6.74 84.98 C-9.1 84.75 -9.1 84.75 -12.1 82.75 C-12.47 80.39 -12.47 80.39 -12.47 77.4 C-12.48 76.28 -12.48 75.16 -12.49 74.01 C-12.49 72.8 -12.48 71.58 -12.47 70.33 C-12.49 67.77 -12.51 65.21 -12.53 62.65 C-12.54 58.61 -12.54 54.57 -12.54 50.52 C-12.54 46.62 -12.57 42.73 -12.6 38.83 C-12.59 37.63 -12.58 36.42 -12.57 35.18 C-12.63 28.52 -12.97 24.1 -17.1 18.75 C-21.72 16.23 -26.11 16.49 -31.1 17.75 C-34.98 18.98 -38.08 20.28 -40.46 23.69 C-42.82 28.33 -44.22 32.52 -44.29 37.76 C-44.31 38.77 -44.32 39.79 -44.34 40.84 C-44.36 41.94 -44.37 43.03 -44.38 44.16 C-44.4 45.29 -44.42 46.41 -44.44 47.57 C-44.52 52.4 -44.59 57.22 -44.65 62.05 C-44.71 65.57 -44.76 69.08 -44.82 72.6 C-44.83 73.7 -44.85 74.8 -44.86 75.94 C-44.88 76.95 -44.89 77.96 -44.91 79 C-44.93 80.34 -44.93 80.34 -44.95 81.71 C-45.1 83.75 -45.1 83.75 -46.1 84.75 C-47.71 84.85 -49.33 84.88 -50.94 84.88 C-51.92 84.88 -52.9 84.89 -53.91 84.89 C-55.46 84.88 -55.46 84.88 -57.04 84.88 C-58.58 84.88 -58.58 84.88 -60.15 84.89 C-61.14 84.89 -62.12 84.88 -63.13 84.88 C-64.03 84.88 -64.94 84.88 -65.87 84.88 C-68.1 84.75 -68.1 84.75 -70.1 83.75 C-70.15 72.85 -70.18 61.95 -70.21 51.05 C-70.22 45.99 -70.23 40.93 -70.25 35.86 C-70.27 30.98 -70.29 26.1 -70.29 21.22 C-70.3 19.35 -70.3 17.49 -70.31 15.62 C-70.33 13.02 -70.33 10.41 -70.33 7.8 C-70.34 7.03 -70.34 6.25 -70.35 5.45 C-70.34 1.67 -70.25 -0.02 -68.1 -3.25 C-64.86 -3.96 -61.54 -3.81 -58.23 -3.81 C-56.86 -3.87 -56.86 -3.87 -55.46 -3.92 C-48.9 -3.97 -48.9 -3.97 -46.58 -1.87 C-45.47 -0.21 -45.47 -0.21 -44.1 2.75 C-42.13 1.77 -40.16 0.78 -38.21 -0.25 C-25.59 -6.83 -12.54 -7.46 0 0 Z " fill="#FAFDFF" transform="translate(1090.1015625,360.25)"/>
<path d="M0 0 C6.27 5 11.05 12.65 12.6 20.56 C12.68 22.67 12.72 24.78 12.71 26.89 C12.71 28.81 12.71 28.81 12.71 30.77 C12.71 32.17 12.7 33.56 12.7 34.95 C12.69 36.38 12.69 37.81 12.69 39.24 C12.69 43 12.68 46.75 12.67 50.51 C12.66 54.34 12.65 58.17 12.65 62.01 C12.64 69.53 12.62 77.04 12.6 84.56 C8.97 84.59 5.35 84.61 1.72 84.62 C0.17 84.64 0.17 84.64 -1.41 84.65 C-2.39 84.65 -3.38 84.66 -4.39 84.66 C-5.31 84.67 -6.22 84.67 -7.16 84.68 C-9.4 84.56 -9.4 84.56 -11.4 83.56 C-11.41 82.54 -11.41 82.54 -11.41 81.49 C-11.46 74.35 -11.52 67.21 -11.61 60.08 C-11.64 57.41 -11.66 54.75 -11.67 52.09 C-11.69 48.26 -11.74 44.43 -11.79 40.59 C-11.79 39.41 -11.8 38.23 -11.8 37.01 C-11.92 30.09 -12.61 25.41 -16.4 19.56 C-21.11 16.42 -25.89 17.02 -31.4 17.56 C-35.61 18.57 -38.4 19.97 -40.74 23.69 C-43.17 28.94 -44.51 33.83 -44.61 39.61 C-44.63 40.61 -44.65 41.61 -44.67 42.64 C-44.69 44.25 -44.69 44.25 -44.72 45.89 C-44.74 46.99 -44.76 48.1 -44.78 49.24 C-44.85 52.76 -44.91 56.29 -44.96 59.81 C-45.01 62.2 -45.05 64.59 -45.1 66.98 C-45.2 72.84 -45.3 78.7 -45.4 84.56 C-49.19 84.62 -52.99 84.66 -56.78 84.69 C-57.86 84.7 -58.94 84.72 -60.05 84.74 C-61.08 84.74 -62.11 84.75 -63.18 84.76 C-64.13 84.77 -65.08 84.78 -66.06 84.79 C-68.4 84.56 -68.4 84.56 -70.4 82.56 C-70.6 79.96 -70.68 77.47 -70.66 74.87 C-70.66 74.08 -70.67 73.28 -70.67 72.47 C-70.68 69.83 -70.67 67.2 -70.67 64.57 C-70.67 62.74 -70.67 60.92 -70.67 59.09 C-70.68 55.26 -70.67 51.43 -70.66 47.6 C-70.65 42.69 -70.66 37.77 -70.67 32.86 C-70.68 29.09 -70.68 25.32 -70.67 21.54 C-70.67 19.73 -70.67 17.92 -70.67 16.11 C-70.68 13.58 -70.67 11.05 -70.66 8.51 C-70.67 7.76 -70.67 7.01 -70.67 6.24 C-70.64 2.21 -70.26 0.28 -68.4 -3.44 C-61.8 -3.44 -55.2 -3.44 -48.4 -3.44 C-47.74 -1.79 -47.08 -0.14 -46.4 1.56 C-45.74 1.56 -45.08 1.56 -44.4 1.56 C-44.4 2.22 -44.4 2.88 -44.4 3.56 C-43.81 3.16 -43.21 2.77 -42.6 2.36 C-29.05 -6.31 -14.36 -8.6 0 0 Z " fill="#FAFDFF" transform="translate(503.40234375,199.4375)"/>
<path d="M0 0 C5.49 4.54 8.1 9.03 8.82 16.09 C8.94 17.65 9.06 19.22 9.16 20.79 C5.58 20.88 2 20.93 -1.59 20.98 C-2.6 21 -3.62 21.03 -4.66 21.05 C-5.64 21.06 -6.62 21.07 -7.63 21.08 C-8.53 21.1 -9.43 21.11 -10.36 21.13 C-13.32 20.72 -14.7 19.84 -16.84 17.79 C-16.84 17.13 -16.84 16.47 -16.84 15.79 C-23.8 13.93 -31.18 13.99 -37.84 16.79 C-38.17 19.1 -38.5 21.41 -38.84 23.79 C-35.91 26.26 -33.75 27.25 -29.98 27.85 C-28.58 28.09 -28.58 28.09 -27.15 28.33 C-26.18 28.48 -25.21 28.63 -24.21 28.79 C-11.45 30.84 -0.9 32.76 7.87 42.91 C12.26 49.28 11.83 56.34 11.16 63.79 C9.32 70.71 4.15 76.18 -1.75 80.04 C-13.59 86.43 -30 86.74 -42.9 83.73 C-51.01 81.02 -59.3 76.16 -63.84 68.79 C-67.76 58.18 -67.76 58.18 -65.84 53.79 C-61.66 52.4 -57.71 52.49 -53.34 52.41 C-52.03 52.36 -52.03 52.36 -50.71 52.3 C-48.32 52.27 -46.18 52.29 -43.84 52.79 C-41.86 55.17 -41.86 55.17 -40.84 57.79 C-38.26 60.78 -36.69 62.1 -32.84 62.79 C-26.79 63.08 -20.76 63.11 -14.84 61.79 C-14.74 59.9 -14.74 59.9 -14.65 57.98 C-14.6 56.92 -14.6 56.92 -14.54 55.83 C-14.93 53.14 -15.73 52.48 -17.84 50.79 C-20.23 50.02 -20.23 50.02 -22.96 49.61 C-23.97 49.43 -24.98 49.24 -26.03 49.05 C-27.1 48.86 -28.17 48.67 -29.27 48.48 C-41.85 46.04 -53.04 42.77 -61.84 32.79 C-65.36 27.07 -65.65 21.33 -64.84 14.79 C-63.08 8.2 -59.52 2.63 -53.84 -1.21 C-36.82 -8.86 -16.22 -10.73 0 0 Z " fill="#FAFDFF" transform="translate(671.8359375,522.2109375)"/>
<path d="M0 0 C0.94 -0 1.89 -0.01 2.86 -0.01 C5.98 -0.02 9.09 0 12.21 0.02 C14.38 0.03 16.54 0.03 18.71 0.03 C23.24 0.03 27.77 0.05 32.31 0.07 C38.13 0.11 43.95 0.12 49.77 0.11 C54.24 0.11 58.71 0.13 63.18 0.14 C65.33 0.15 67.47 0.15 69.62 0.15 C72.62 0.16 75.61 0.17 78.61 0.2 C79.5 0.19 80.39 0.19 81.31 0.19 C87.44 0.26 87.44 0.26 89.67 2.49 C89.9 4.46 89.9 4.46 89.87 6.84 C89.86 7.69 89.86 8.54 89.85 9.42 C89.82 10.75 89.82 10.75 89.8 12.11 C89.79 13.01 89.78 13.91 89.77 14.83 C89.75 17.05 89.71 19.27 89.67 21.49 C88.63 21.5 87.58 21.52 86.51 21.53 C82.63 21.59 78.76 21.67 74.88 21.75 C73.21 21.78 71.53 21.81 69.85 21.83 C67.44 21.87 65.03 21.92 62.62 21.97 C61.87 21.98 61.12 21.99 60.35 21.99 C56.41 22.04 56.41 22.04 52.98 23.76 C51.38 25.88 51.29 26.97 51.27 29.61 C51.26 30.86 51.26 30.86 51.24 32.14 C51.24 33.51 51.24 33.51 51.24 34.91 C51.23 35.88 51.22 36.85 51.21 37.84 C51.18 41.04 51.17 44.24 51.16 47.44 C51.14 49.65 51.13 51.87 51.11 54.08 C51.06 59.92 51.03 65.75 51 71.58 C50.97 77.54 50.93 83.49 50.88 89.44 C50.8 101.12 50.73 112.8 50.67 124.49 C47.05 124.51 43.42 124.53 39.8 124.55 C38.25 124.56 38.25 124.56 36.67 124.57 C35.68 124.58 34.7 124.58 33.68 124.58 C32.77 124.59 31.86 124.59 30.92 124.6 C28.67 124.49 28.67 124.49 26.67 123.49 C26.66 121.63 26.66 121.63 26.65 119.74 C26.57 108.12 26.48 96.49 26.39 84.87 C26.34 78.89 26.29 72.91 26.25 66.93 C26.21 61.17 26.17 55.41 26.12 49.64 C26.1 47.44 26.08 45.24 26.07 43.03 C26.05 39.95 26.02 36.88 25.99 33.8 C25.99 32.88 25.99 31.96 25.99 31.02 C25.97 30.18 25.96 29.35 25.95 28.48 C25.95 27.76 25.94 27.03 25.94 26.28 C25.82 24.23 25.82 24.23 23.67 22.49 C21.05 22.25 18.52 22.14 15.89 22.11 C14.74 22.08 14.74 22.08 13.56 22.06 C11.1 22 8.64 21.96 6.17 21.92 C3.71 21.88 1.25 21.83 -1.21 21.78 C-2.75 21.75 -4.28 21.72 -5.82 21.7 C-11.1 21.6 -11.1 21.6 -13.33 20.49 C-13.43 17.9 -13.51 15.32 -13.58 12.74 C-13.61 12.01 -13.64 11.28 -13.68 10.52 C-13.74 7.29 -13.67 5.02 -11.89 2.27 C-8.04 -0.41 -4.58 -0.06 0 0 Z " fill="#FAFDFF" transform="translate(90.32666015625,159.51416015625)"/>
<path d="M0 0 C1.23 -0.05 2.45 -0.1 3.71 -0.16 C7.06 0.5 7.06 0.5 9 2.87 C11.78 7.38 13.53 12.35 15.39 17.3 C15.78 18.33 16.18 19.36 16.58 20.42 C17.41 22.59 18.23 24.75 19.05 26.92 C20.31 30.26 21.59 33.58 22.86 36.91 C23.66 39.02 24.46 41.13 25.27 43.23 C25.65 44.23 26.03 45.23 26.42 46.26 C26.77 47.18 27.12 48.1 27.47 49.05 C27.78 49.87 28.09 50.68 28.41 51.52 C29.06 53.5 29.06 53.5 29.06 55.5 C30.05 55.83 31.04 56.16 32.06 56.5 C32.41 55.6 32.41 55.6 32.76 54.68 C35.18 48.42 37.6 42.16 40.02 35.89 C40.92 33.56 41.82 31.22 42.72 28.89 C44.01 25.53 45.31 22.17 46.61 18.8 C47.01 17.76 47.41 16.72 47.83 15.65 C52.84 2.73 52.84 2.73 55.06 0.5 C57.76 0.43 60.43 0.41 63.12 0.44 C63.88 0.44 64.64 0.45 65.42 0.45 C67.3 0.46 69.18 0.48 71.06 0.5 C72.83 4.04 72.55 7.97 72.69 11.88 C72.76 12.7 72.83 13.52 72.9 14.38 C73.18 24.13 68.47 32.22 64.35 40.79 C62.24 45.24 60.28 49.76 58.32 54.28 C57.53 56.07 56.75 57.85 55.97 59.64 C55.19 61.42 54.41 63.21 53.62 65 C52.04 68.62 50.46 72.23 48.88 75.84 C48.52 76.66 48.17 77.47 47.8 78.31 C47.31 79.44 47.31 79.44 46.8 80.6 C46.51 81.26 46.22 81.92 45.93 82.6 C45.02 84.59 44.05 86.55 43.06 88.5 C39.65 88.62 36.23 88.69 32.81 88.75 C31.84 88.78 30.88 88.82 29.88 88.85 C28.48 88.87 28.48 88.87 27.05 88.89 C26.19 88.91 25.33 88.93 24.44 88.95 C21.08 88.31 20.16 87.22 18.06 84.5 C16.48 81.61 15.15 78.64 13.83 75.62 C13.44 74.75 13.04 73.87 12.64 72.96 C11.37 70.14 10.12 67.32 8.88 64.5 C8.05 62.66 7.23 60.83 6.41 58.99 C5.18 56.24 3.95 53.49 2.74 50.74 C0.71 46.15 -1.36 41.58 -3.53 37.06 C-11.41 20.48 -11.41 20.48 -10.69 11.38 C-10.67 10.53 -10.66 9.68 -10.64 8.81 C-10.55 6.37 -10.55 6.37 -9.94 2.5 C-6.32 0.09 -4.31 0.11 0 0 Z " fill="#FAFDFF" transform="translate(356.9375,516.5)"/>
<path d="M0 0 C0.93 -0 1.86 -0.01 2.82 -0.01 C4.29 0 4.29 0 5.78 0.02 C6.76 0.01 7.73 0 8.74 -0.01 C9.67 -0.01 10.6 -0 11.56 0 C12.42 0 13.28 0 14.16 0.01 C16.28 0.27 16.28 0.27 18.28 2.27 C18.56 4.81 18.75 7.27 18.84 9.83 C18.64 14.42 18.64 14.42 20.28 18.27 C21.67 18.39 23.07 18.45 24.46 18.48 C25.31 18.5 26.15 18.53 27.03 18.56 C28.82 18.61 30.61 18.66 32.4 18.7 C33.25 18.73 34.09 18.76 34.96 18.79 C35.74 18.81 36.52 18.83 37.33 18.85 C39.28 19.27 39.28 19.27 41.28 22.27 C41.45 25.18 41.51 27.98 41.47 30.89 C41.47 32.07 41.47 32.07 41.47 33.28 C41.42 39.13 41.42 39.13 40.28 40.27 C38.65 40.42 37.01 40.52 35.37 40.58 C34.38 40.62 33.39 40.67 32.37 40.71 C31.33 40.75 30.29 40.79 29.22 40.83 C28.17 40.87 27.13 40.91 26.05 40.96 C23.46 41.07 20.87 41.17 18.28 41.27 C18.35 47.21 18.44 53.16 18.54 59.1 C18.58 61.12 18.61 63.15 18.63 65.17 C18.66 68.07 18.71 70.98 18.77 73.88 C18.78 74.79 18.78 75.7 18.79 76.64 C18.82 77.9 18.82 77.9 18.85 79.18 C18.87 80.3 18.87 80.3 18.88 81.43 C19.15 83.68 19.15 83.68 22.28 85.27 C25.93 85.58 29.55 85.73 33.21 85.83 C39.08 86.07 39.08 86.07 41.28 88.27 C41.52 90.13 41.52 90.13 41.51 92.36 C41.51 93.16 41.51 93.97 41.51 94.79 C41.49 95.63 41.48 96.47 41.47 97.33 C41.47 98.59 41.47 98.59 41.47 99.88 C41.42 106.13 41.42 106.13 40.28 107.27 C36.64 107.55 32.99 107.5 29.34 107.52 C28.34 107.54 27.33 107.56 26.29 107.58 C15.63 107.63 7.25 105.53 -0.72 98.27 C-6.83 91.84 -7.01 85.27 -6.91 76.84 C-6.91 75.85 -6.91 74.86 -6.91 73.83 C-6.89 70.69 -6.87 67.54 -6.84 64.39 C-6.83 62.25 -6.82 60.11 -6.82 57.97 C-6.79 52.73 -6.76 47.5 -6.72 42.27 C-7.38 42.27 -8.04 42.27 -8.72 42.27 C-8.72 41.61 -8.72 40.95 -8.72 40.27 C-9.56 40.28 -10.4 40.29 -11.27 40.3 C-12.37 40.31 -13.46 40.32 -14.59 40.33 C-15.68 40.34 -16.77 40.35 -17.9 40.36 C-20.72 40.27 -20.72 40.27 -22.72 39.27 C-22.77 36.49 -22.81 33.72 -22.84 30.95 C-22.86 30.17 -22.88 29.38 -22.89 28.57 C-22.9 27.44 -22.9 27.44 -22.91 26.28 C-22.92 25.58 -22.94 24.88 -22.95 24.17 C-22.72 22.27 -22.72 22.27 -20.72 19.27 C-17.68 18.75 -17.68 18.75 -14.09 18.58 C-12.91 18.51 -11.72 18.45 -10.49 18.38 C-9.58 18.34 -8.66 18.3 -7.72 18.27 C-7.67 17.13 -7.62 16 -7.57 14.84 C-7.5 13.35 -7.42 11.87 -7.34 10.39 C-7.31 9.64 -7.28 8.9 -7.25 8.13 C-6.92 2.03 -6.25 0.02 0 0 Z " fill="#FAFDFF" transform="translate(872.71875,337.734375)"/>
<path d="M0 0 C0.84 -0 1.68 -0.01 2.54 -0.01 C3.85 0 3.85 0 5.18 0.02 C6.06 0.01 6.94 0 7.84 -0.01 C8.68 -0.01 9.51 -0 10.38 0 C11.14 0 11.91 0 12.7 0.01 C14.62 0.27 14.62 0.27 16.62 2.27 C16.77 5.01 16.81 7.65 16.75 10.39 C16.74 11.14 16.73 11.9 16.72 12.68 C16.7 14.54 16.66 16.4 16.62 18.27 C19.35 19.17 21.24 19.45 24.07 19.58 C25.34 19.64 25.34 19.64 26.64 19.71 C27.52 19.75 28.4 19.79 29.31 19.83 C30.65 19.89 30.65 19.89 32.01 19.96 C34.22 20.06 36.42 20.17 38.62 20.27 C39.8 22.61 39.74 24 39.72 26.62 C39.72 27.38 39.71 28.15 39.71 28.94 C39.7 29.91 39.69 30.89 39.68 31.89 C39.66 34.98 39.64 38.08 39.62 41.27 C32.36 41.6 25.1 41.93 17.62 42.27 C17.74 48.23 17.86 54.19 17.99 60.16 C18.04 62.19 18.08 64.22 18.12 66.25 C18.18 69.16 18.24 72.07 18.3 74.98 C18.32 75.89 18.34 76.81 18.36 77.75 C18.04 81.83 18.04 81.83 19.62 85.27 C23.45 85.5 27.27 85.66 31.1 85.78 C31.9 85.82 32.7 85.85 33.52 85.89 C34.63 85.92 34.63 85.92 35.76 85.96 C37.62 86.27 37.62 86.27 39.62 88.27 C39.86 90.22 39.86 90.22 39.85 92.58 C39.85 93.43 39.85 94.27 39.85 95.15 C39.83 96.47 39.83 96.47 39.81 97.83 C39.81 98.72 39.81 99.61 39.81 100.52 C39.76 107.13 39.76 107.13 38.62 108.27 C23.61 108.92 9.75 109.4 -2.38 99.27 C-5.89 94.92 -7.51 90.25 -7.49 84.7 C-7.49 83.78 -7.49 82.86 -7.49 81.91 C-7.49 80.92 -7.48 79.93 -7.48 78.91 C-7.48 77.89 -7.47 76.88 -7.47 75.83 C-7.47 72.58 -7.45 69.33 -7.44 66.08 C-7.44 63.88 -7.43 61.67 -7.43 59.47 C-7.42 54.07 -7.4 48.67 -7.38 43.27 C-8.04 43.27 -8.7 43.27 -9.38 43.27 C-9.38 42.61 -9.38 41.95 -9.38 41.27 C-10.22 41.28 -11.07 41.29 -11.93 41.3 C-13.03 41.31 -14.12 41.32 -15.25 41.33 C-16.34 41.34 -17.43 41.35 -18.56 41.36 C-21.38 41.27 -21.38 41.27 -23.38 40.27 C-23.43 37.31 -23.47 34.35 -23.5 31.39 C-23.52 30.55 -23.54 29.71 -23.55 28.84 C-23.56 28.03 -23.57 27.23 -23.57 26.4 C-23.58 25.65 -23.6 24.91 -23.61 24.15 C-23.38 22.27 -23.38 22.27 -21.38 20.27 C-18.34 19.85 -18.34 19.85 -14.75 19.64 C-13.57 19.57 -12.38 19.49 -11.15 19.41 C-9.78 19.34 -9.78 19.34 -8.38 19.27 C-8.34 18.06 -8.3 16.86 -8.27 15.62 C-8.2 14.04 -8.13 12.47 -8.07 10.89 C-8.04 10.1 -8.02 9.3 -8 8.48 C-7.9 6.4 -7.65 4.33 -7.38 2.27 C-4.27 0.19 -3.54 0.01 0 0 Z " fill="#FAFDFF" transform="translate(759.37890625,497.734375)"/>
<path d="M0 0 C2.25 -0.34 2.25 -0.34 5.01 -0.29 C5.99 -0.28 6.98 -0.27 8 -0.26 C9.03 -0.24 10.06 -0.21 11.12 -0.19 C12.69 -0.17 12.69 -0.17 14.28 -0.15 C16.85 -0.11 19.43 -0.06 22 0 C23.53 3.07 23.1 6.27 23.06 9.62 C23.06 10.33 23.05 11.04 23.05 11.77 C23.04 13.51 23.02 15.26 23 17 C25.73 17.91 27.62 18.18 30.45 18.32 C31.72 18.38 31.72 18.38 33.02 18.44 C33.9 18.48 34.78 18.52 35.69 18.56 C37.03 18.63 37.03 18.63 38.39 18.69 C40.59 18.8 42.8 18.9 45 19 C46.17 21.35 46.12 22.74 46.1 25.35 C46.1 26.12 46.09 26.88 46.09 27.67 C46.08 28.65 46.07 29.62 46.06 30.62 C46.04 33.72 46.02 36.81 46 40 C38.74 40.33 31.48 40.66 24 41 C24 55.19 24 69.38 24 84 C26.66 84.89 28.48 85.18 31.23 85.32 C32.03 85.36 32.84 85.4 33.66 85.44 C34.5 85.48 35.33 85.52 36.19 85.56 C37.45 85.63 37.45 85.63 38.75 85.69 C40.83 85.8 42.92 85.9 45 86 C46.14 88.28 46.13 89.57 46.13 92.1 C46.13 93.3 46.13 93.3 46.14 94.53 C46.13 95.36 46.13 96.2 46.12 97.06 C46.13 98.32 46.13 98.32 46.14 99.61 C46.13 105.87 46.13 105.87 45 107 C41.51 107.25 38 107.19 34.5 107.19 C33.53 107.2 32.56 107.21 31.56 107.22 C23.13 107.24 15.59 106.78 8.62 101.62 C7.41 100.75 7.41 100.75 6.16 99.85 C-0.06 94.53 -1.55 87.61 -2.19 79.64 C-2.54 73.18 -2.61 66.72 -2.69 60.25 C-2.72 58.28 -2.76 56.31 -2.79 54.34 C-2.88 49.56 -2.94 44.78 -3 40 C-3.84 40.01 -4.69 40.02 -5.55 40.04 C-6.65 40.04 -7.75 40.05 -8.88 40.06 C-9.97 40.07 -11.06 40.09 -12.18 40.1 C-15 40 -15 40 -17 39 C-17.05 36.04 -17.09 33.08 -17.12 30.12 C-17.14 29.28 -17.16 28.44 -17.18 27.57 C-17.18 26.77 -17.19 25.96 -17.2 25.13 C-17.21 24.39 -17.22 23.65 -17.23 22.88 C-17 21 -17 21 -15 19 C-11.96 18.8 -11.96 18.8 -8.38 18.88 C-6.59 18.9 -6.59 18.9 -4.77 18.93 C-3.86 18.95 -2.94 18.98 -2 19 C-2.02 17.88 -2.05 16.76 -2.07 15.61 C-2.09 14.13 -2.11 12.66 -2.12 11.19 C-2.14 10.45 -2.16 9.71 -2.18 8.95 C-2.21 5.09 -2.19 3.29 0 0 Z " fill="#FAFDFF" transform="translate(336,338)"/>
<path d="M0 0 C0.88 -0.02 1.75 -0.03 2.65 -0.05 C3.49 -0.05 4.33 -0.05 5.19 -0.05 C6.34 -0.06 6.34 -0.06 7.51 -0.06 C8.15 0.06 8.78 0.19 9.44 0.31 C11.89 3.99 11.67 6.76 11.56 11 C11.55 11.7 11.54 12.4 11.54 13.13 C11.51 14.86 11.48 16.58 11.44 18.31 C14.16 19.22 16.06 19.5 18.89 19.63 C20.16 19.69 20.16 19.69 21.46 19.76 C22.34 19.8 23.22 19.83 24.12 19.88 C25.46 19.94 25.46 19.94 26.83 20.01 C29.03 20.11 31.23 20.21 33.44 20.31 C34.58 22.59 34.57 23.88 34.57 26.41 C34.57 27.61 34.57 27.61 34.57 28.84 C34.57 29.68 34.57 30.51 34.56 31.38 C34.57 32.64 34.57 32.64 34.57 33.92 C34.56 40.19 34.56 40.19 33.44 41.31 C31.88 41.47 30.31 41.56 28.75 41.63 C27.33 41.69 27.33 41.69 25.88 41.76 C24.89 41.8 23.9 41.83 22.88 41.88 C21.88 41.92 20.88 41.96 19.85 42.01 C17.38 42.11 14.91 42.21 12.44 42.31 C12.36 48.1 12.31 53.88 12.27 59.66 C12.26 61.63 12.24 63.6 12.21 65.57 C12.17 68.4 12.16 71.22 12.14 74.05 C12.13 74.93 12.11 75.81 12.1 76.72 C12.1 77.95 12.1 77.95 12.1 79.21 C12.09 79.93 12.08 80.65 12.08 81.4 C12.54 83.88 13.48 84.76 15.44 86.31 C17.46 86.81 17.46 86.81 19.67 86.82 C20.87 86.88 20.87 86.88 22.1 86.93 C22.93 86.95 23.77 86.98 24.62 87 C25.47 87.03 26.31 87.07 27.19 87.1 C29.27 87.19 31.35 87.25 33.44 87.31 C34.61 89.66 34.55 91.05 34.54 93.66 C34.53 94.51 34.53 95.37 34.53 96.24 C34.51 97.58 34.51 97.58 34.5 98.94 C34.5 99.83 34.49 100.73 34.49 101.66 C34.47 103.88 34.46 106.09 34.44 108.31 C30.31 108.43 26.19 108.5 22.06 108.56 C20.91 108.6 19.75 108.63 18.56 108.66 C8.85 108.77 0.78 107.16 -6.56 100.44 C-7.65 99.48 -7.65 99.48 -8.75 98.51 C-13.27 93.03 -12.88 86.52 -12.94 79.77 C-12.96 78.76 -12.98 77.76 -12.99 76.72 C-13.05 73.52 -13.09 70.32 -13.12 67.12 C-13.17 63.91 -13.22 60.7 -13.27 57.5 C-13.3 55.5 -13.33 53.51 -13.35 51.51 C-13.36 50.61 -13.38 49.71 -13.39 48.78 C-13.4 47.99 -13.41 47.2 -13.42 46.38 C-13.49 44.11 -13.49 44.11 -14.56 41.31 C-15.41 41.32 -16.25 41.34 -17.12 41.35 C-18.21 41.36 -19.31 41.37 -20.44 41.38 C-21.53 41.39 -22.62 41.4 -23.74 41.41 C-26.56 41.31 -26.56 41.31 -28.56 40.31 C-28.64 37.35 -28.7 34.4 -28.75 31.44 C-28.78 30.6 -28.8 29.75 -28.83 28.89 C-28.84 28.08 -28.85 27.28 -28.86 26.45 C-28.87 25.7 -28.89 24.96 -28.9 24.19 C-28.73 23.26 -28.73 23.26 -28.56 22.31 C-25.16 20.04 -23.4 19.95 -19.38 19.69 C-18.29 19.61 -17.2 19.54 -16.08 19.46 C-15.25 19.41 -14.42 19.36 -13.56 19.31 C-13.53 18.11 -13.49 16.9 -13.45 15.66 C-13.38 14.09 -13.32 12.51 -13.25 10.94 C-13.23 10.14 -13.2 9.35 -13.18 8.53 C-13.08 6.45 -12.83 4.38 -12.56 2.31 C-8.38 -0.48 -4.91 -0.02 0 0 Z " fill="#FAFDFF" transform="translate(555.5625,175.6875)"/>
<path d="M0 0 C0.93 -0.01 1.86 -0.02 2.81 -0.04 C3.7 -0.04 4.59 -0.04 5.5 -0.04 C6.31 -0.05 7.13 -0.05 7.97 -0.06 C10 0.19 10 0.19 12 2.19 C12.25 4.32 12.25 4.32 12.25 7.01 C12.25 8.03 12.26 9.05 12.26 10.1 C12.25 11.79 12.25 11.79 12.24 13.51 C12.24 14.68 12.25 15.86 12.25 17.08 C12.25 20.32 12.25 23.55 12.24 26.79 C12.23 30.17 12.23 33.56 12.23 36.94 C12.23 42.62 12.22 48.3 12.21 53.98 C12.19 60.56 12.18 67.13 12.19 73.71 C12.19 80.02 12.18 86.34 12.17 92.66 C12.17 95.35 12.17 98.04 12.17 100.73 C12.16 104.49 12.16 108.24 12.15 112 C12.15 113.69 12.15 113.69 12.15 115.41 C12.14 116.42 12.14 117.44 12.13 118.49 C12.13 119.38 12.13 120.26 12.13 121.18 C12 123.19 12 123.19 11 124.19 C7.55 124.44 4.08 124.37 0.62 124.38 C-0.83 124.39 -0.83 124.39 -2.32 124.41 C-3.25 124.41 -4.19 124.42 -5.15 124.42 C-6.44 124.42 -6.44 124.42 -7.75 124.43 C-10 124.19 -10 124.19 -13 122.19 C-13.37 120.11 -13.37 120.11 -13.37 117.49 C-13.37 116.5 -13.38 115.5 -13.38 114.48 C-13.38 113.39 -13.37 112.3 -13.36 111.18 C-13.36 110.03 -13.36 108.88 -13.36 107.7 C-13.37 103.9 -13.35 100.09 -13.33 96.29 C-13.33 93.65 -13.32 91.01 -13.32 88.38 C-13.32 82.85 -13.3 77.32 -13.28 71.79 C-13.25 64.69 -13.24 57.59 -13.24 50.49 C-13.23 45.04 -13.22 39.6 -13.21 34.15 C-13.21 31.53 -13.2 28.92 -13.2 26.3 C-13.19 22.64 -13.18 18.98 -13.16 15.33 C-13.16 14.24 -13.16 13.15 -13.16 12.03 C-13.15 11.03 -13.15 10.04 -13.14 9.01 C-13.14 7.72 -13.14 7.72 -13.13 6.39 C-13 4.19 -13 4.19 -12 1.19 C-8.35 -0.64 -4.02 0 0 0 Z " fill="#FAFDFF" transform="translate(779,320.8125)"/>
<path d="M0 0 C0.81 -0.03 1.61 -0.06 2.45 -0.1 C4.79 -0.1 6.74 -0.01 9 0.62 C13 5.17 13 5.17 13 8.62 C13.66 8.62 14.32 8.62 15 8.62 C15.33 7.63 15.66 6.64 16 5.62 C24.17 0.54 34.58 -0.58 44 0.62 C46.58 4.49 46.29 7.71 46.25 12.19 C46.26 13.36 46.26 13.36 46.27 14.55 C46.25 20.37 46.25 20.37 44 22.62 C40.32 22.89 36.69 22.99 33 23.02 C27.25 23.19 22.78 24.31 18 27.62 C16.31 29.47 16.31 29.47 15.56 31.56 C15.13 32.54 15.13 32.54 14.69 33.53 C13.37 37.53 12.87 41.38 12.81 45.58 C12.79 46.54 12.78 47.5 12.76 48.48 C12.75 49.51 12.73 50.53 12.72 51.58 C12.7 52.63 12.68 53.69 12.66 54.78 C12.58 59.29 12.52 63.8 12.45 68.32 C12.4 71.61 12.34 74.91 12.28 78.2 C12.27 79.23 12.25 80.26 12.24 81.32 C12.22 82.27 12.21 83.21 12.19 84.18 C12.17 85.44 12.17 85.44 12.15 86.72 C12 88.62 12 88.62 11 89.62 C7.55 89.88 4.08 89.81 0.62 89.81 C-0.83 89.83 -0.83 89.83 -2.32 89.85 C-3.25 89.85 -4.19 89.85 -5.15 89.86 C-6.44 89.86 -6.44 89.86 -7.75 89.87 C-10 89.62 -10 89.62 -13 87.62 C-13.31 84.96 -13.42 82.52 -13.4 79.84 C-13.41 79.04 -13.42 78.24 -13.42 77.41 C-13.44 74.74 -13.44 72.08 -13.43 69.41 C-13.44 67.57 -13.44 65.72 -13.45 63.87 C-13.46 59.99 -13.46 56.11 -13.45 52.23 C-13.43 47.26 -13.45 42.29 -13.48 37.32 C-13.5 33.5 -13.5 29.68 -13.5 25.86 C-13.5 24.02 -13.5 22.19 -13.51 20.36 C-13.53 17.79 -13.52 15.23 -13.5 12.67 C-13.51 11.91 -13.52 11.15 -13.53 10.37 C-13.48 6.86 -13.27 4.97 -11.1 2.16 C-7.57 -0.42 -4.23 -0.03 0 0 Z " fill="#FAFDFF" transform="translate(412,355.375)"/>
<path d="M0 0 C0.85 0 1.7 0.01 2.58 0.01 C3.47 0.02 4.36 0.03 5.27 0.04 C6.17 0.04 7.07 0.04 7.99 0.05 C10.21 0.06 12.43 0.08 14.65 0.1 C15.31 1.75 15.97 3.4 16.65 5.1 C17.31 5.1 17.97 5.1 18.65 5.1 C18.65 5.76 18.65 6.42 18.65 7.1 C19.14 6.76 19.64 6.42 20.15 6.07 C20.83 5.63 21.51 5.18 22.21 4.72 C22.87 4.28 23.53 3.84 24.21 3.39 C29.97 0.34 35.59 -0.24 41.96 -0.21 C42.68 -0.23 43.39 -0.25 44.13 -0.26 C46.2 -0.27 46.2 -0.27 49.65 0.1 C52.24 3.98 51.91 7.23 51.84 11.72 C51.84 12.51 51.83 13.3 51.83 14.11 C51.79 19.96 51.79 19.96 50.65 21.1 C48.15 21.26 45.65 21.38 43.15 21.47 C35.87 21.85 29.49 22.57 23.27 26.66 C18.47 33.86 18.19 42.4 18.14 50.79 C18.12 51.87 18.1 52.94 18.08 54.05 C18.03 57.44 17.99 60.83 17.96 64.22 C17.93 66.54 17.89 68.85 17.86 71.17 C17.77 76.81 17.7 82.45 17.65 88.1 C13.86 88.16 10.07 88.19 6.27 88.22 C5.19 88.24 4.11 88.26 3 88.27 C1.97 88.28 0.94 88.29 -0.12 88.29 C-1.08 88.3 -2.03 88.31 -3.01 88.32 C-5.35 88.1 -5.35 88.1 -7.35 86.1 C-7.54 83.49 -7.61 81 -7.59 78.39 C-7.6 77.6 -7.6 76.8 -7.6 75.98 C-7.6 73.34 -7.59 70.71 -7.58 68.07 C-7.58 66.24 -7.58 64.41 -7.58 62.59 C-7.58 58.75 -7.57 54.91 -7.56 51.08 C-7.54 46.16 -7.54 41.24 -7.54 36.31 C-7.54 32.54 -7.53 28.76 -7.52 24.98 C-7.52 23.17 -7.52 21.35 -7.52 19.54 C-7.52 17 -7.51 14.47 -7.5 11.93 C-7.5 11.18 -7.5 10.43 -7.5 9.65 C-7.48 6.53 -7.35 4.08 -6.35 1.1 C-4 -0.08 -2.61 -0.02 0 0 Z " fill="#FAFDFF" transform="translate(545.3515625,516.90234375)"/>
<path d="M0 0 C0.86 -0.03 1.73 -0.07 2.62 -0.1 C8.98 -0.15 8.98 -0.15 12.23 2.84 C13.62 5.44 13.62 5.44 13.62 7.44 C14.12 7.1 14.62 6.76 15.13 6.41 C15.81 5.97 16.49 5.52 17.19 5.06 C17.85 4.62 18.51 4.18 19.19 3.73 C24.96 0.67 30.55 0.12 36.94 0.19 C37.65 0.18 38.37 0.17 39.1 0.16 C44.37 0.18 44.37 0.18 46.62 2.44 C46.87 4.3 46.87 4.3 46.86 6.54 C46.85 7.34 46.85 8.14 46.85 8.96 C46.83 10.22 46.83 10.22 46.81 11.5 C46.81 12.34 46.81 13.18 46.81 14.05 C46.77 20.3 46.77 20.3 45.62 21.44 C43.61 21.53 41.6 21.62 39.59 21.68 C28.38 21.68 28.38 21.68 18.62 26.44 C13.38 34.22 13.46 43.25 13.31 52.3 C13.29 53.34 13.27 54.37 13.25 55.44 C13.18 58.73 13.12 62.02 13.06 65.31 C13.02 67.55 12.98 69.79 12.93 72.02 C12.82 77.49 12.72 82.97 12.62 88.44 C9 88.47 5.38 88.48 1.75 88.5 C0.2 88.51 0.2 88.51 -1.38 88.53 C-2.37 88.53 -3.35 88.53 -4.37 88.54 C-5.28 88.54 -6.19 88.55 -7.13 88.55 C-9.38 88.44 -9.38 88.44 -11.38 87.44 C-11.42 76.39 -11.46 65.34 -11.48 54.29 C-11.49 49.16 -11.5 44.03 -11.53 38.9 C-11.55 33.96 -11.56 29.01 -11.56 24.06 C-11.57 22.17 -11.58 20.28 -11.59 18.39 C-11.6 15.75 -11.6 13.11 -11.6 10.47 C-11.61 9.68 -11.62 8.89 -11.62 8.08 C-11.59 -0.75 -7.47 0.05 0 0 Z " fill="#FAFDFF" transform="translate(280.375,195.5625)"/>
<path d="M0 0 C0.94 0 1.88 0.01 2.85 0.01 C3.84 0.02 4.82 0.03 5.84 0.04 C6.83 0.04 7.82 0.04 8.84 0.05 C11.3 0.06 13.76 0.08 16.21 0.1 C17.8 3.28 17.34 6.72 17.32 10.22 C17.32 11.06 17.32 11.9 17.32 12.76 C17.32 15.54 17.32 18.32 17.31 21.11 C17.31 23.03 17.31 24.96 17.3 26.88 C17.3 31.95 17.29 37.03 17.28 42.1 C17.27 47.28 17.26 52.45 17.26 57.62 C17.25 67.78 17.23 77.94 17.21 88.1 C13.42 88.16 9.63 88.19 5.84 88.22 C4.76 88.24 3.68 88.26 2.56 88.27 C1.53 88.28 0.5 88.29 -0.56 88.29 C-1.52 88.3 -2.47 88.31 -3.45 88.32 C-5.79 88.1 -5.79 88.1 -7.79 86.1 C-7.98 83.49 -8.05 81 -8.03 78.39 C-8.03 77.6 -8.04 76.8 -8.04 75.98 C-8.04 73.34 -8.03 70.71 -8.02 68.07 C-8.02 66.24 -8.02 64.41 -8.02 62.59 C-8.02 58.75 -8.01 54.91 -7.99 51.08 C-7.98 46.16 -7.97 41.24 -7.97 36.31 C-7.97 32.54 -7.97 28.76 -7.96 24.98 C-7.96 23.17 -7.96 21.35 -7.96 19.54 C-7.95 17 -7.95 14.47 -7.93 11.93 C-7.93 11.18 -7.94 10.43 -7.94 9.65 C-7.92 6.53 -7.78 4.08 -6.79 1.1 C-4.34 -0.13 -2.74 -0.02 0 0 Z " fill="#FAFDFF" transform="translate(314.7890625,516.90234375)"/>
<path d="M0 0 C0.84 -0 1.68 -0.01 2.54 -0.01 C3.85 0 3.85 0 5.18 0.02 C6.5 0 6.5 0 7.84 -0.01 C8.68 -0.01 9.51 -0 10.38 0 C11.14 0 11.91 0 12.7 0.01 C14.62 0.27 14.62 0.27 16.62 2.27 C16.81 5.04 16.87 7.71 16.85 10.48 C16.85 11.33 16.85 12.18 16.85 13.05 C16.85 15.87 16.83 18.68 16.82 21.49 C16.81 23.44 16.81 25.39 16.81 27.34 C16.8 32.47 16.78 37.6 16.76 42.73 C16.74 47.97 16.73 53.2 16.72 58.44 C16.7 68.71 16.66 78.99 16.62 89.27 C13 89.29 9.37 89.31 5.75 89.33 C4.2 89.34 4.2 89.34 2.62 89.35 C1.63 89.36 0.64 89.36 -0.37 89.36 C-1.28 89.37 -2.19 89.37 -3.13 89.38 C-5.38 89.27 -5.38 89.27 -7.38 88.27 C-7.45 77.09 -7.5 65.91 -7.53 54.73 C-7.55 49.54 -7.57 44.35 -7.61 39.16 C-7.64 34.15 -7.66 29.15 -7.66 24.14 C-7.67 22.23 -7.68 20.32 -7.7 18.4 C-7.72 15.73 -7.72 13.06 -7.72 10.39 C-7.73 9.59 -7.74 8.79 -7.75 7.97 C-7.74 5.77 -7.74 5.77 -7.38 2.27 C-4.27 0.19 -3.54 0.01 0 0 Z " fill="#FAFDFF" transform="translate(819.37890625,355.734375)"/>
<path d="M0 0 C0.89 0.01 1.79 0.01 2.71 0.02 C4.1 0.04 4.1 0.04 5.52 0.07 C6.46 0.08 7.4 0.09 8.37 0.1 C10.69 0.12 13.01 0.15 15.33 0.2 C16.92 3.38 16.46 6.82 16.45 10.32 C16.45 11.16 16.45 12 16.45 12.86 C16.45 15.64 16.44 18.42 16.43 21.2 C16.43 23.13 16.43 25.05 16.43 26.98 C16.42 32.05 16.41 37.13 16.4 42.2 C16.39 47.37 16.39 52.55 16.38 57.72 C16.37 67.88 16.35 78.04 16.33 88.2 C12.71 88.22 9.08 88.24 5.46 88.26 C3.91 88.27 3.91 88.27 2.33 88.28 C1.34 88.29 0.36 88.29 -0.66 88.29 C-1.57 88.3 -2.48 88.3 -3.42 88.31 C-5.67 88.2 -5.67 88.2 -7.67 87.2 C-7.74 76.15 -7.79 65.1 -7.82 54.05 C-7.84 48.92 -7.86 43.79 -7.89 38.66 C-7.93 33.71 -7.94 28.77 -7.95 23.82 C-7.96 21.93 -7.97 20.04 -7.99 18.15 C-8.01 15.51 -8.01 12.87 -8.01 10.23 C-8.02 9.44 -8.03 8.65 -8.04 7.84 C-8.03 5.66 -8.03 5.66 -7.67 2.2 C-4.46 0.06 -3.67 -0.05 0 0 Z " fill="#FAFDFF" transform="translate(705.66796875,516.8046875)"/>
<path d="M0 0 C5.43 3.22 8.46 7.37 10.52 13.3 C12.54 22.07 12.92 32.93 8.38 41 C5.81 44.3 3.42 46.65 -0.62 48 C-8.45 48.79 -15.47 49.1 -21.85 44.02 C-27.52 37.58 -28.23 29.43 -27.95 21.15 C-27.26 14.43 -25.83 7.65 -20.62 3 C-13.63 -1.19 -7.93 -2.19 0 0 Z " fill="#004B9B" transform="translate(616.625,377)"/>
<path d="M0 0 C5.24 2.94 7.66 7.19 9.59 12.75 C11.85 21.78 11.79 32.77 6.99 40.95 C4.74 43.91 2.11 45.85 -1.19 47.5 C-9.11 48.33 -16 48.54 -22.41 43.37 C-28.16 37.31 -28.76 30.55 -28.66 22.46 C-28.34 14.99 -26.48 9.41 -21.88 3.56 C-15.09 -1.65 -7.94 -3.36 0 0 Z " fill="#004B9B" transform="translate(514.1875,377.5)"/>
<path d="M0 0 C6 3.33 9.39 8.38 11.38 14.88 C11.81 18.01 11.85 21.09 11.81 24.25 C11.8 25.09 11.8 25.93 11.79 26.8 C11.59 33.89 10.53 38.9 6.08 44.51 C2.23 48.13 -1.93 48.33 -7.06 48.56 C-13.02 48.36 -16.78 47.59 -21.18 43.51 C-26.52 37.46 -28.08 30.16 -27.88 22.24 C-27.16 15.51 -25.06 9.05 -20.62 3.88 C-14 -0.84 -7.88 -2.45 0 0 Z " fill="#004B9B" transform="translate(650.625,216.125)"/>
<path d="M0 0 C2.7 1.97 3.99 3.74 5.65 6.62 C6.15 7.47 6.65 8.31 7.17 9.18 C10.77 16.68 10.58 26.82 8.21 34.69 C6.17 39.96 3.14 43.59 -1.6 46.75 C-8.47 47.61 -15.66 48 -21.79 44.38 C-27.41 39.81 -29.19 34.42 -29.97 27.38 C-30.3 18.19 -28.94 10.2 -23.35 2.75 C-16.16 -2.48 -8.26 -3.97 0 0 Z " fill="#004B9B" transform="translate(384.59765625,217.25)"/>
<path d="M0 0 C5.26 4.1 8.3 9.82 9.32 16.39 C9.47 18.93 9.48 21.43 9.43 23.97 C9.45 24.82 9.46 25.67 9.48 26.54 C9.44 33.16 7.89 38.49 3.51 43.56 C-0.24 47.21 -4.45 47.37 -9.5 47.6 C-15.33 47.38 -19.24 46.76 -23.55 42.73 C-29.21 35.95 -30.49 28.68 -30.07 19.91 C-28.7 12.97 -26.9 7.2 -22.07 1.91 C-15.19 -2.1 -7.42 -3.91 0 0 Z " fill="#004B9B" transform="translate(219.06640625,217.08984375)"/>
<path d="M0 0 C5.35 2.94 7.93 7.86 9.81 13.5 C10.09 16.89 10.09 20.29 10.12 23.69 C10.15 24.61 10.18 25.53 10.21 26.48 C10.28 33.44 9.05 38.84 4.35 44.15 C0.72 47.62 -3.17 47.95 -8.06 48.19 C-14.83 47.91 -19.5 46.51 -24.19 41.5 C-29.21 34.14 -29.8 25.48 -28.56 16.88 C-27.31 11.03 -25.3 5.85 -20.41 2.16 C-13.8 -1.76 -7.15 -3.08 0 0 Z " fill="#004B9B" transform="translate(716.1875,377.5)"/>
<path d="M0 0 C0.87 -0.01 1.74 -0.01 2.64 -0.02 C7.44 0.03 7.44 0.03 9.38 0.44 C11.43 3.52 11.62 4.16 11.61 7.63 C11.6 8.43 11.6 9.23 11.6 10.05 C11.58 11.29 11.58 11.29 11.56 12.56 C11.56 13.4 11.56 14.24 11.56 15.1 C11.52 21.3 11.52 21.3 10.38 22.44 C6.92 22.69 3.46 22.62 0 22.62 C-0.97 22.64 -1.94 22.65 -2.95 22.66 C-4.35 22.67 -4.35 22.67 -5.77 22.67 C-7.06 22.67 -7.06 22.67 -8.37 22.68 C-10.62 22.44 -10.62 22.44 -13.62 20.44 C-13.96 17.71 -14.09 15.28 -14.06 12.56 C-14.08 11.84 -14.1 11.12 -14.12 10.38 C-14.12 7.12 -13.83 4.8 -12.2 1.96 C-8.23 -0.38 -4.52 -0.1 0 0 Z " fill="#FAFDFF" transform="translate(320.625,480.5625)"/>
<path d="M0 0 C0.88 -0.02 1.75 -0.03 2.65 -0.05 C3.49 -0.05 4.33 -0.05 5.19 -0.05 C5.96 -0.05 6.72 -0.06 7.51 -0.06 C8.15 0.06 8.78 0.19 9.44 0.31 C11.97 4.11 11.96 7.45 12.19 11.88 C12.24 12.66 12.3 13.44 12.36 14.24 C12.47 16.26 12.46 18.29 12.44 20.31 C10.44 22.31 10.44 22.31 8.31 22.56 C7.03 22.55 7.03 22.55 5.72 22.54 C4.79 22.54 3.85 22.54 2.89 22.54 C1.43 22.52 1.43 22.52 -0.06 22.5 C-1.04 22.5 -2.01 22.5 -3.02 22.5 C-10.28 22.45 -10.28 22.45 -12.56 21.31 C-12.65 18.19 -12.7 15.06 -12.75 11.94 C-12.78 11.05 -12.8 10.16 -12.83 9.24 C-12.84 8.39 -12.85 7.54 -12.86 6.66 C-12.87 5.88 -12.89 5.09 -12.9 4.28 C-12.79 3.63 -12.68 2.98 -12.56 2.31 C-8.38 -0.48 -4.91 -0.02 0 0 Z " fill="#FAFDFF" transform="translate(710.5625,480.6875)"/>
<path d="M0 0 C0.89 0.01 1.79 0.01 2.71 0.02 C4.1 0.04 4.1 0.04 5.52 0.07 C6.46 0.08 7.4 0.09 8.37 0.1 C10.69 0.12 13.01 0.15 15.33 0.2 C16.51 2.54 16.45 3.93 16.43 6.55 C16.43 7.4 16.42 8.25 16.42 9.12 C16.41 10.01 16.4 10.9 16.39 11.82 C16.39 12.72 16.39 13.61 16.38 14.54 C16.37 16.76 16.35 18.98 16.33 21.2 C12.71 21.22 9.08 21.24 5.46 21.26 C3.91 21.27 3.91 21.27 2.33 21.28 C1.34 21.29 0.36 21.29 -0.66 21.29 C-2.03 21.3 -2.03 21.3 -3.42 21.31 C-5.67 21.2 -5.67 21.2 -7.67 20.2 C-7.75 17.24 -7.81 14.28 -7.86 11.32 C-7.88 10.48 -7.91 9.64 -7.93 8.77 C-7.94 7.96 -7.95 7.16 -7.96 6.33 C-7.98 5.58 -7.99 4.84 -8.01 4.07 C-7.9 3.45 -7.78 2.83 -7.67 2.2 C-4.46 0.06 -3.67 -0.05 0 0 Z " fill="#FAFDFF" transform="translate(819.66796875,320.8046875)"/>
<path d="M0 0 C2.51 3.77 2.53 5.53 2 10 C-0.15 13.76 -2.95 16.44 -7 18 C-12.49 18.61 -18.84 19.22 -23.81 16.44 C-26 14 -26 14 -26.56 10.56 C-25.96 6.78 -25.49 4.9 -23 2 C-16.4 -2.16 -7.34 -2.45 0 0 Z " fill="#004B9B" transform="translate(975,407)"/>
<path d="M0 0 C3.54 2.38 6.15 5 7.88 8.94 C7.88 10.92 7.88 12.9 7.88 14.94 C-1.69 14.94 -11.26 14.94 -21.12 14.94 C-21.12 14.28 -21.12 13.62 -21.12 12.94 C-21.78 12.94 -22.44 12.94 -23.12 12.94 C-21.95 7.47 -20.66 4.54 -16.12 0.94 C-10.68 -1.55 -5.68 -1.93 0 0 Z " fill="#004B9B" transform="translate(277.125,377.0625)"/>
<path d="M0 0 C2.73 2.41 4.42 4.65 6.12 7.88 C6.19 9.87 6.2 11.88 6.12 13.88 C2.03 13.92 -2.06 13.96 -6.16 13.98 C-7.55 13.99 -8.94 14.01 -10.33 14.03 C-12.33 14.05 -14.34 14.06 -16.34 14.07 C-17.54 14.08 -18.74 14.09 -19.99 14.1 C-22.88 13.88 -22.88 13.88 -24.88 11.88 C-22.77 6.4 -20.98 2.7 -15.75 -0.38 C-10.47 -1.75 -5.12 -2.01 0 0 Z " fill="#004B9B" transform="translate(490.875,538.125)"/>
</svg>
