<?xml version="1.0" encoding="UTF-8"?>
<!-- Generator: visioncortex VTracer 0.6.3 -->
<svg version="1.1" xmlns="http://www.w3.org/2000/svg" width="1280" height="231">
<path d="M0 0 C25.08 0 50.16 0 76 0 C76 25.08 76 50.16 76 76 C96.13 76 116.26 76 137 76 C137 50.92 137 25.84 137 0 C162.41 0 187.82 0 214 0 C214 74.25 214 148.5 214 225 C188.92 225 163.84 225 138 225 C138 196.95 138 168.9 138 140 C117.87 140 97.74 140 77 140 C77 168.05 77 196.1 77 225 C51.59 225 26.18 225 0 225 C0 150.75 0 76.5 0 0 Z " fill="#1B1D1B" transform="translate(1065,0)"/>
<path d="M0 0 C25.41 0 50.82 0 77 0 C77.04 9.77 77.07 19.55 77.11 29.62 C77.14 35.82 77.17 42.01 77.21 48.21 C77.26 58.04 77.31 67.88 77.35 77.71 C77.37 84.88 77.4 92.04 77.45 99.2 C77.47 102.99 77.49 106.78 77.5 110.57 C77.5 114.14 77.52 117.72 77.55 121.29 C77.57 123.22 77.57 125.14 77.56 127.06 C77.67 137 79.13 144.9 85 153 C85 153.66 85 154.32 85 155 C86.33 155.67 87.67 156.33 89 157 C89.68 157.35 90.35 157.71 91.05 158.07 C99.97 162.23 110.15 162.69 119.5 159.5 C125.75 156.56 130.03 151.55 132.88 145.31 C134.5 140.52 135.13 136.26 135.16 131.2 C135.17 130.04 135.18 128.88 135.19 127.68 C135.19 126.42 135.2 125.16 135.21 123.86 C135.21 122.51 135.22 121.16 135.24 119.8 C135.26 116.15 135.28 112.49 135.3 108.83 C135.33 105 135.35 101.18 135.38 97.35 C135.43 90.11 135.47 82.86 135.52 75.62 C135.58 65.83 135.64 56.04 135.71 46.26 C135.81 30.84 135.9 15.42 136 0 C161.08 0 186.16 0 212 0 C212.12 36.18 212.12 36.18 212.15 51.42 C212.16 61.92 212.19 72.42 212.23 82.91 C212.26 90.56 212.28 98.21 212.28 105.85 C212.29 109.89 212.3 113.94 212.32 117.98 C212.49 150.43 209.55 179.48 186 204 C172.89 217.04 155.91 225 138 229 C137.28 229.18 136.55 229.37 135.81 229.55 C126.79 231.56 117.61 231.37 108.42 231.37 C105.53 231.37 102.65 231.41 99.77 231.45 C72.14 231.62 45.81 223.93 25.43 204.58 C7.95 187.27 0.15 164 -0.24 139.74 C-0.25 137.13 -0.24 134.52 -0.23 131.92 C-0.23 130.47 -0.23 129.02 -0.23 127.57 C-0.23 123.68 -0.22 119.79 -0.2 115.9 C-0.19 111.81 -0.19 107.73 -0.19 103.65 C-0.18 95.94 -0.16 88.23 -0.14 80.52 C-0.12 70.09 -0.11 59.65 -0.1 49.22 C-0.08 32.81 -0.04 16.41 0 0 Z " fill="#1A1C1A" transform="translate(831,0)"/>
<path d="M0 0 C0.79 0.01 1.58 0.01 2.4 0.02 C3.17 0.02 3.93 0.02 4.73 0.02 C5.71 0.03 6.69 0.04 7.7 0.05 C10.82 0.07 13.93 0.09 17.14 0.11 C17.14 7.04 17.14 13.97 17.14 21.11 C27.37 21.11 37.6 21.11 48.14 21.11 C50.78 27.05 53.16 32.74 55.16 38.87 C55.42 39.65 55.68 40.44 55.95 41.25 C56.77 43.72 57.58 46.2 58.39 48.68 C58.95 50.37 59.51 52.06 60.07 53.76 C61.43 57.87 62.79 61.99 64.14 66.11 C68 57.13 70.88 47.86 73.83 38.55 C74.58 36.2 75.32 33.85 76.07 31.51 C76.54 30.06 77 28.61 77.45 27.15 C79.03 22.23 79.03 22.23 80.14 21.11 C81.56 21.03 82.98 21.01 84.4 21.02 C85.68 21.02 85.68 21.02 86.98 21.03 C88.33 21.04 88.33 21.04 89.7 21.05 C90.61 21.06 91.51 21.06 92.44 21.06 C94.67 21.08 96.91 21.09 99.14 21.11 C100.14 23.11 100.14 23.11 99.32 25.92 C98.87 27.11 98.42 28.31 97.96 29.54 C97.72 30.2 97.48 30.87 97.23 31.55 C96.41 33.74 95.59 35.94 94.76 38.13 C94.19 39.66 93.62 41.19 93.05 42.73 C91.85 45.95 90.65 49.18 89.44 52.4 C87.9 56.49 86.38 60.59 84.86 64.69 C83.68 67.86 82.49 71.04 81.31 74.21 C80.74 75.72 80.18 77.22 79.62 78.73 C76.85 86.16 74.03 93.56 71 100.89 C70.54 101.99 70.09 103.09 69.62 104.22 C66.87 109.6 62.95 112.89 57.47 115.27 C53.21 116.35 49.27 116.37 44.89 116.3 C44.08 116.3 43.26 116.3 42.42 116.3 C36.42 116.25 36.42 116.25 34.14 115.11 C34.14 109.83 34.14 104.55 34.14 99.11 C35.67 99.15 37.19 99.2 38.77 99.24 C42.94 99.23 46.34 99.01 50.14 97.11 C52.2 94.7 52.16 93.37 51.94 90.21 C51.07 84.66 48.88 79.5 46.89 74.27 C46.47 73.15 46.05 72.03 45.61 70.87 C44.28 67.31 42.93 63.74 41.58 60.18 C40.67 57.75 39.76 55.33 38.85 52.9 C36.62 46.97 34.38 41.04 32.14 35.11 C27.19 35.11 22.24 35.11 17.14 35.11 C17.26 40.33 17.38 45.54 17.51 50.76 C17.56 52.53 17.6 54.3 17.64 56.08 C17.7 58.63 17.76 61.18 17.83 63.73 C17.84 64.52 17.86 65.31 17.88 66.13 C17.96 69.36 18.11 72.03 19.14 75.11 C21.58 76.33 23.56 76.43 26.27 76.68 C27.88 76.82 29.48 76.96 31.14 77.11 C31.14 82.06 31.14 87.01 31.14 92.11 C25.65 94.86 15.43 93.67 9.52 92.3 C5.12 90.75 2.19 89.54 -0.61 85.74 C-3.31 80.07 -2.99 74.37 -2.96 68.22 C-2.95 67.27 -2.95 66.32 -2.95 65.35 C-2.95 62.33 -2.93 59.32 -2.92 56.3 C-2.92 54.25 -2.91 52.2 -2.91 50.15 C-2.9 45.14 -2.88 40.13 -2.86 35.11 C-6.49 35.11 -10.12 35.11 -13.86 35.11 C-13.86 30.49 -13.86 25.87 -13.86 21.11 C-10.23 21.11 -6.6 21.11 -2.86 21.11 C-2.88 18.97 -2.88 18.97 -2.89 16.77 C-2.9 14.91 -2.91 13.04 -2.92 11.18 C-2.93 10.23 -2.94 9.28 -2.95 8.31 C-2.95 7.41 -2.95 6.51 -2.96 5.59 C-2.96 4.75 -2.97 3.92 -2.97 3.06 C-2.82 0.48 -2.59 0.16 0 0 Z " fill="#1B1D1B" transform="translate(491.857666015625,4.886474609375)"/>
<path d="M0 0 C7.26 0 14.52 0 22 0 C22 12.21 22 24.42 22 37 C34.54 37 47.08 37 60 37 C60 24.79 60 12.58 60 0 C67.26 0 74.52 0 82 0 C82 32.01 82 64.02 82 97 C75.07 97 68.14 97 61 97 C60 96 60 96 59.89 92.12 C59.89 90.39 59.89 88.66 59.9 86.93 C59.9 86.02 59.91 85.12 59.91 84.18 C59.91 81.27 59.92 78.35 59.94 75.44 C59.94 73.47 59.95 71.5 59.95 69.53 C59.96 64.68 59.98 59.84 60 55 C47.46 55 34.92 55 22 55 C22 68.86 22 82.72 22 97 C14.74 97 7.48 97 0 97 C0 64.99 0 32.98 0 0 Z " fill="#1B1D1B" transform="translate(0,120)"/>
<path d="M0 0 C0 4.95 0 9.9 0 15 C-2.51 15.16 -5.01 15.33 -7.52 15.49 C-10.37 16.08 -11.31 16.66 -13 19 C-13.73 22.61 -13.73 22.61 -14 26 C-9.71 26 -5.42 26 -1 26 C-1 30.62 -1 35.24 -1 40 C-5.29 40 -9.58 40 -14 40 C-14 58.81 -14 77.62 -14 97 C-20.6 97 -27.2 97 -34 97 C-34 78.19 -34 59.38 -34 40 C-41.92 40 -49.84 40 -58 40 C-57.88 44.89 -57.76 49.79 -57.63 54.68 C-57.58 56.34 -57.54 58.01 -57.5 59.67 C-57.44 62.06 -57.38 64.46 -57.32 66.86 C-57.3 67.6 -57.28 68.34 -57.27 69.1 C-57.16 72.82 -57.06 76.42 -56 80 C-53.57 81.22 -51.58 81.32 -48.88 81.56 C-47.27 81.71 -45.66 81.85 -44 82 C-44 86.95 -44 91.9 -44 97 C-49.49 99.75 -59.71 98.55 -65.62 97.19 C-69.77 95.73 -72.76 94.47 -75.62 91.08 C-77.7 86.44 -77.37 82.04 -77.29 77.01 C-77.29 75.95 -77.28 74.9 -77.28 73.8 C-77.26 70.43 -77.23 67.06 -77.19 63.69 C-77.17 61.4 -77.16 59.11 -77.15 56.82 C-77.11 51.21 -77.06 45.61 -77 40 C-80.96 40 -84.92 40 -89 40 C-89 35.38 -89 30.76 -89 26 C-85.04 26 -81.08 26 -77 26 C-77.08 24.57 -77.17 23.14 -77.25 21.66 C-77.36 19.79 -77.46 17.93 -77.56 16.06 C-77.62 15.12 -77.67 14.17 -77.73 13.2 C-77.78 12.3 -77.83 11.4 -77.88 10.47 C-77.93 9.64 -77.97 8.81 -78.02 7.95 C-78 6 -78 6 -77 5 C-75.58 4.91 -74.16 4.89 -72.75 4.9 C-71.98 4.9 -71.21 4.91 -70.42 4.91 C-69.43 4.92 -68.45 4.93 -67.44 4.94 C-64.32 4.96 -61.21 4.98 -58 5 C-58 11.93 -58 18.86 -58 26 C-50.08 26 -42.16 26 -34 26 C-34 22.7 -34 19.4 -34 16 C-32.36 9.43 -29.86 5.52 -24 2 C-15.73 -1.57 -8.82 -1.47 0 0 Z " fill="#1B1D1B" transform="translate(304,120)"/>
<path d="M0 0 C7.26 0 14.52 0 22 0 C22.01 2.06 22.03 4.12 22.04 6.24 C22.09 13.05 22.16 19.87 22.24 26.68 C22.28 30.81 22.32 34.94 22.35 39.07 C22.37 43.06 22.41 47.04 22.46 51.03 C22.48 52.55 22.49 54.07 22.5 55.59 C22.51 57.72 22.54 59.85 22.57 61.98 C22.58 63.2 22.59 64.41 22.6 65.66 C23.22 70.86 24.8 74.03 28.88 77.31 C35.5 80.89 42.61 80.89 49.75 78.81 C53.72 77.36 55.82 75.72 58 72 C59.18 68.46 59.16 65.02 59.21 61.3 C59.22 60.64 59.23 59.98 59.24 59.29 C59.27 57.11 59.29 54.92 59.32 52.73 C59.34 51.22 59.36 49.7 59.38 48.18 C59.43 44.19 59.48 40.19 59.53 36.2 C59.58 32.13 59.64 28.05 59.69 23.98 C59.8 15.98 59.9 7.99 60 0 C67.26 0 74.52 0 82 0 C82.09 9.07 82.16 18.13 82.21 27.2 C82.23 31.41 82.26 35.62 82.3 39.84 C82.35 43.91 82.37 47.98 82.38 52.05 C82.39 53.6 82.4 55.14 82.42 56.69 C82.58 68.32 81.48 78.87 73.81 88.22 C64.83 97.05 53.15 99.25 41 99.38 C29.55 99.26 19.19 97.27 10 90 C2.58 82.28 -0.13 73.57 -0.11 63.01 C-0.11 61.98 -0.11 61.98 -0.11 60.94 C-0.11 58.69 -0.11 56.44 -0.1 54.2 C-0.1 52.64 -0.09 51.07 -0.09 49.51 C-0.09 45.41 -0.08 41.31 -0.07 37.21 C-0.06 33.02 -0.05 28.83 -0.05 24.64 C-0.04 16.43 -0.02 8.21 0 0 Z " fill="#1A1C1A" transform="translate(0,0)"/>
<path d="M0 0 C6.27 0 12.54 0 19 0 C19 32.01 19 64.02 19 97 C13.06 97 7.12 97 1 97 C0.34 95.02 -0.32 93.04 -1 91 C-1.89 91.78 -2.77 92.57 -3.69 93.38 C-9.85 98.82 -16.96 98.58 -24.76 98.37 C-32.69 97.87 -37.9 94.45 -43.38 88.88 C-51.8 78.7 -52.9 65.71 -52 53 C-49.85 42.43 -44.76 34.26 -36 28 C-29.27 23.85 -21.7 24.12 -14 25 C-8.78 26.72 -4.82 29.08 -1 33 C-1.01 32.04 -1.01 31.07 -1.02 30.08 C-1.03 26.51 -1.05 22.95 -1.05 19.38 C-1.06 17.84 -1.07 16.29 -1.08 14.75 C-1.09 12.53 -1.09 10.31 -1.1 8.1 C-1.1 7.4 -1.11 6.71 -1.11 5.99 C-1.11 4.33 -1.06 2.66 -1 1 C-0.67 0.67 -0.34 0.34 0 0 Z M-27 44 C-32.97 51.75 -32.55 59.57 -32 69 C-30.93 74.6 -28.39 78.36 -24 82 C-19.7 84.54 -15.87 84.53 -11 84 C-6.88 82.68 -4.87 81.2 -2.69 77.56 C-0.13 72.17 0.21 67.62 0.25 61.69 C0.27 60.95 0.29 60.22 0.31 59.46 C0.35 53.63 -0.54 48.79 -4.54 44.26 C-11.82 38.86 -19.73 37.42 -27 44 Z " fill="#1A1C1A" transform="translate(483,120)"/>
<path d="M0 0 C6.6 0 13.2 0 20 0 C20.33 10.89 20.66 21.78 21 33 C23.97 30.53 23.97 30.53 27 28 C33.76 23.83 41.27 24.27 49 25 C55.32 26.56 59.49 29.42 63 35 C66.04 42.41 66.41 49.43 66.29 57.35 C66.29 58.49 66.28 59.63 66.28 60.81 C66.26 64.41 66.23 68.02 66.19 71.62 C66.17 74.08 66.16 76.54 66.15 79 C66.11 85 66.06 91 66 97 C62.85 97.03 59.71 97.05 56.56 97.06 C55.66 97.07 54.77 97.08 53.84 97.09 C52.56 97.09 52.56 97.09 51.25 97.1 C50.46 97.1 49.67 97.11 48.86 97.11 C47 97 47 97 46 96 C45.89 94.59 45.85 93.18 45.84 91.77 C45.83 90.88 45.82 89.98 45.81 89.05 C45.8 88.07 45.8 87.09 45.79 86.09 C45.76 84.02 45.73 81.96 45.7 79.9 C45.66 76.64 45.63 73.39 45.6 70.13 C45.57 66.99 45.53 63.85 45.48 60.71 C45.47 59.74 45.47 58.78 45.47 57.78 C45.36 52.11 44.74 48.01 42 43 C38.2 40.24 33.84 40.81 29.38 41.42 C25.47 42.37 24.14 43.59 22 47 C19.2 57.26 19.56 68.2 19.38 78.75 C19.34 80.53 19.3 82.3 19.26 84.08 C19.16 88.39 19.08 92.69 19 97 C12.73 97 6.46 97 0 97 C0 64.99 0 32.98 0 0 Z " fill="#1A1C1A" transform="translate(580,120)"/>
<path d="M0 0 C8.01 6.47 12.26 13.7 14.73 23.6 C15.09 27.92 14.98 32.27 14.98 36.6 C-1.52 36.6 -18.02 36.6 -35.02 36.6 C-34.36 39.57 -33.7 42.54 -33.02 45.6 C-32.77 47.02 -32.77 47.02 -32.52 48.48 C-30.26 51.68 -27.47 52.22 -23.75 53.16 C-17.99 54.09 -13.71 53.52 -8.58 50.73 C-5.86 48.68 -5.86 48.68 -4.02 45.6 C-2.14 45.26 -2.14 45.26 0.11 45.31 C0.92 45.32 1.72 45.33 2.55 45.34 C3.4 45.36 4.24 45.39 5.11 45.41 C5.95 45.43 6.8 45.44 7.68 45.46 C9.78 45.49 11.88 45.54 13.98 45.6 C10.71 54.9 6.52 62.17 -2.63 66.67 C-13.63 70.95 -25.01 70.61 -36.02 66.6 C-45.05 62.09 -50.31 55.03 -54.18 45.84 C-56.91 35.27 -56.3 22.2 -51.02 12.6 C-45.26 2.88 -37.28 -2.07 -26.58 -5.09 C-17.16 -6.24 -8 -5.46 0 0 Z M-31.64 14.48 C-33.73 17.7 -35.02 19.7 -35.02 23.6 C-25.12 23.6 -15.22 23.6 -5.02 23.6 C-6.02 18.61 -6.84 16.45 -10.02 12.6 C-17.11 8.73 -25.85 7.79 -31.64 14.48 Z " fill="#1A1C1A" transform="translate(787.01953125,149.3984375)"/>
<path d="M0 0 C8.22 6.86 12.01 15.2 14.44 25.5 C14.76 29.09 14.69 32.71 14.69 36.31 C-1.81 36.31 -18.31 36.31 -35.31 36.31 C-34.03 44.13 -34.03 44.13 -30.31 50.31 C-25.29 53.41 -20.4 53.7 -14.65 52.89 C-9.83 51.69 -7.02 49.37 -4.31 45.31 C-1.36 45.09 1.37 45.03 4.31 45.12 C5.52 45.15 5.52 45.15 6.74 45.17 C8.72 45.2 10.71 45.26 12.69 45.31 C11.38 53.28 6.94 58.77 0.8 63.84 C-7.31 69.49 -17.69 70.35 -27.24 68.85 C-37 66.74 -44.31 62.77 -50.03 54.45 C-56.12 44.28 -57.71 34.03 -55.19 22.44 C-52.58 12.82 -47.7 4.88 -39.31 -0.69 C-26.82 -6.94 -11.98 -8.39 0 0 Z M-32.75 14.62 C-34.74 17.68 -34.74 17.68 -35.31 23.31 C-25.41 23.31 -15.51 23.31 -5.31 23.31 C-7.35 14.81 -7.35 14.81 -11 11.81 C-18.99 8.19 -26.26 8.47 -32.75 14.62 Z " fill="#1A1C1A" transform="translate(317.3125,29.6875)"/>
<path d="M0 0 C8.01 6.47 12.26 13.7 14.73 23.6 C15.09 27.92 14.98 32.27 14.98 36.6 C-1.52 36.6 -18.02 36.6 -35.02 36.6 C-33.75 46.08 -33.75 46.08 -28.02 51.6 C-22.59 53.9 -17.67 54.04 -12.02 52.6 C-8.26 50.55 -6.39 49.16 -4.02 45.6 C-1.07 45.38 1.66 45.32 4.61 45.41 C5.81 45.43 5.81 45.43 7.04 45.46 C9.02 45.49 11 45.54 12.98 45.6 C11.67 53.57 7.23 59.06 1.09 64.13 C-7.02 69.78 -17.4 70.64 -26.95 69.14 C-36.61 67.05 -44.14 63.1 -49.73 54.76 C-50.37 53.69 -50.37 53.69 -51.02 52.6 C-51.43 51.92 -51.85 51.24 -52.27 50.54 C-57.03 41 -56.71 27.4 -53.39 17.41 C-49.2 7.95 -42.59 0.61 -32.83 -3.21 C-21.74 -6.66 -9.91 -6.76 0 0 Z M-32.39 14.85 C-34.54 18.09 -34.54 18.09 -35.02 24.6 C-25.12 24.6 -15.22 24.6 -5.02 24.6 C-5.97 18.92 -6.45 16.83 -10.02 12.6 C-18.03 8.15 -25.52 8.33 -32.39 14.85 Z " fill="#1A1C1A" transform="translate(147.01953125,149.3984375)"/>
<path d="M0 0 C8.42 7.05 12.88 16.2 14 27 C14.8 38.75 11.31 48.82 3.69 57.69 C-4.82 65.01 -14.27 68.65 -25.6 68.22 C-35.86 67.28 -44.64 63.36 -52 56 C-58.96 46.21 -61.32 34.86 -59.57 23.09 C-57.46 12.96 -52.78 4.01 -44.04 -1.86 C-30.04 -9.7 -13.24 -8.88 0 0 Z M-35.25 13.06 C-39.99 21.01 -41.5 29.94 -39.27 38.93 C-37.53 44.27 -36.06 48.07 -31 51 C-27.07 52.96 -22.29 52.34 -18 52 C-13.14 50.04 -10.25 46.49 -7.91 41.85 C-5.4 34.02 -5.68 23.59 -9.19 16.12 C-11.32 12.63 -13.02 10.36 -17 9 C-24.15 7.31 -29.6 7.88 -35.25 13.06 Z " fill="#1A1C1A" transform="translate(365,151)"/>
<path d="M0 0 C6.82 6.23 10.64 15.14 11.2 24.32 C11.36 37.23 9.3 46.96 0.41 56.75 C-7.15 63.87 -17.28 66.38 -27.45 66.21 C-38.56 65.29 -47.04 61.29 -54.81 53.38 C-62.44 43.98 -62.97 32.57 -62 21 C-60.47 11.55 -55.47 3.26 -47.99 -2.72 C-33.25 -12.21 -13.42 -11.31 0 0 Z M-37.25 10.69 C-43.02 18.31 -42.74 26.79 -42 36 C-40.9 41.61 -38.37 45.3 -34 49 C-29.81 51.09 -24.56 50.42 -20 50 C-14.52 47.55 -12.48 44.25 -10 39 C-7.58 29.18 -8.57 19.84 -13.69 11.12 C-20.9 4.5 -29.5 4.88 -37.25 10.69 Z " fill="#1A1C1A" transform="translate(686,33)"/>
<path d="M0 0 C6.05 4.69 7.88 10.16 8.99 17.54 C9.24 21.47 9.25 25.39 9.22 29.32 C9.22 30.42 9.22 31.51 9.22 32.64 C9.21 34.94 9.21 37.23 9.19 39.53 C9.18 43.06 9.17 46.59 9.17 50.12 C9.17 52.36 9.16 54.59 9.16 56.82 C9.16 57.88 9.15 58.94 9.15 60.04 C9.15 61.01 9.14 61.98 9.13 62.98 C9.13 63.84 9.13 64.7 9.12 65.59 C8.99 67.54 8.99 67.54 7.99 68.54 C6.66 68.64 5.32 68.67 3.99 68.68 C3.18 68.68 2.38 68.68 1.55 68.68 C0.71 68.68 -0.14 68.67 -1.01 68.67 C-1.86 68.67 -2.7 68.68 -3.57 68.68 C-4.38 68.68 -5.18 68.68 -6.01 68.68 C-6.75 68.67 -7.5 68.67 -8.26 68.67 C-10.01 68.54 -10.01 68.54 -11.01 67.54 C-11.12 66.17 -11.16 64.8 -11.17 63.43 C-11.18 62.55 -11.19 61.68 -11.2 60.77 C-11.21 59.82 -11.22 58.87 -11.22 57.88 C-11.25 55.87 -11.28 53.86 -11.31 51.85 C-11.35 48.67 -11.39 45.5 -11.41 42.32 C-11.44 39.26 -11.49 36.19 -11.54 33.13 C-11.54 32.19 -11.54 31.25 -11.55 30.28 C-11.65 24.38 -12.51 19.91 -15.01 14.54 C-18.73 11.72 -23.19 12.36 -27.64 12.95 C-31.4 13.89 -32.88 15.34 -35.01 18.54 C-37 24.72 -37.34 30.95 -37.43 37.39 C-37.45 38.29 -37.46 39.19 -37.48 40.11 C-37.54 42.94 -37.59 45.77 -37.64 48.61 C-37.67 50.54 -37.71 52.47 -37.75 54.41 C-37.85 59.12 -37.93 63.83 -38.01 68.54 C-41.16 68.57 -44.3 68.59 -47.45 68.61 C-48.35 68.61 -49.24 68.62 -50.17 68.63 C-51.45 68.64 -51.45 68.64 -52.76 68.64 C-53.55 68.65 -54.34 68.65 -55.15 68.66 C-57.01 68.54 -57.01 68.54 -58.01 67.54 C-58.11 65.4 -58.14 63.26 -58.14 61.11 C-58.14 60.44 -58.14 59.77 -58.15 59.08 C-58.15 56.85 -58.15 54.62 -58.14 52.39 C-58.15 50.84 -58.15 49.3 -58.15 47.76 C-58.15 44.52 -58.15 41.28 -58.14 38.04 C-58.14 33.88 -58.14 29.72 -58.15 25.56 C-58.15 22.37 -58.15 19.19 -58.15 16 C-58.14 14.47 -58.15 12.93 -58.15 11.4 C-58.15 9.26 -58.15 7.12 -58.14 4.97 C-58.14 3.75 -58.14 2.53 -58.14 1.28 C-58.01 -1.46 -58.01 -1.46 -57.01 -2.46 C-55.67 -2.54 -54.32 -2.56 -52.98 -2.55 C-52.17 -2.55 -51.36 -2.55 -50.53 -2.54 C-49.68 -2.54 -48.83 -2.53 -47.95 -2.52 C-47.1 -2.52 -46.24 -2.51 -45.36 -2.51 C-43.24 -2.49 -41.13 -2.48 -39.01 -2.46 C-38.68 0.18 -38.35 2.82 -38.01 5.54 C-37.5 5.06 -37 4.58 -36.47 4.08 C-35.78 3.45 -35.1 2.82 -34.39 2.17 C-33.71 1.54 -33.04 0.91 -32.35 0.27 C-23.74 -6.09 -8.94 -5.37 0 0 Z " fill="#1A1C1A" transform="translate(151.01171875,28.45703125)"/>
<path d="M0 0 C3.92 3.35 7.85 7.21 9.56 12.19 C9.56 14.17 9.56 16.15 9.56 18.19 C3.29 18.19 -2.98 18.19 -9.44 18.19 C-9.93 15.22 -9.93 15.22 -10.44 12.19 C-15.87 9.84 -21.6 9.37 -27.44 10.19 C-29.74 11.6 -29.74 11.6 -31.44 13.19 C-31.58 16.11 -31.58 16.11 -30.44 19.19 C-23.41 22.35 -15.85 24 -8.39 25.85 C-0.28 27.96 4.87 30.84 10.56 37.19 C12.51 43.03 12.59 49.75 10.06 55.44 C5.82 62.66 0.22 66.38 -7.71 68.6 C-12.11 69.55 -16.39 69.68 -20.88 69.62 C-22.25 69.61 -22.25 69.61 -23.66 69.6 C-33.73 69.35 -41.45 67.15 -48.84 60.04 C-53.2 54.97 -53.44 51.04 -53.44 44.19 C-47.5 44.19 -41.56 44.19 -35.44 44.19 C-34.12 46.83 -32.8 49.47 -31.44 52.19 C-27.21 55.41 -23.02 55.72 -17.85 55.53 C-14.11 55 -12.07 53.89 -9.44 51.19 C-8.94 47.52 -8.94 47.52 -9.44 44.19 C-15.83 41.03 -21.98 39.23 -28.94 37.81 C-37.36 35.95 -44.78 34.16 -50.12 26.9 C-52.73 21.53 -52.5 14.62 -50.75 8.96 C-47.4 2.61 -41.98 -1.05 -35.36 -3.25 C-23.81 -6.61 -10.66 -5.62 0 0 Z " fill="#1A1C1A" transform="translate(436.4375,28.8125)"/>
<path d="M0 0 C7 6 8.47 8.56 10.62 18.25 C4.36 18.25 -1.91 18.25 -8.38 18.25 C-9.37 16.27 -10.36 14.29 -11.38 12.25 C-16.28 9.41 -21.87 9.56 -27.38 10.25 C-30.24 11.69 -30.24 11.69 -31.38 14.25 C-31.87 16.89 -31.87 16.89 -30.38 19.25 C-23.93 22.03 -17.26 23.64 -10.44 25.27 C-1.02 27.63 6.08 30.93 11.62 39.25 C12.66 46.43 11.9 52.73 8.3 59.05 C3.58 65.23 -2.85 67.97 -10.38 69.25 C-23.05 70.39 -35.81 70.52 -46.31 62.5 C-49.64 59.32 -52.12 55.7 -53.38 51.25 C-53.38 48.94 -53.38 46.63 -53.38 44.25 C-47.43 44.25 -41.5 44.25 -35.38 44.25 C-34.05 46.89 -32.74 49.53 -31.38 52.25 C-26.51 55.96 -21.25 55.83 -15.38 55.25 C-11.91 54.38 -11.91 54.38 -9.38 53.25 C-8.44 49.23 -8.44 49.23 -8.9 45.2 C-11.13 42.24 -14.13 41.7 -17.56 40.75 C-18.27 40.54 -18.98 40.33 -19.71 40.11 C-23.3 39.06 -26.9 38.11 -30.52 37.22 C-45.22 33.6 -45.22 33.6 -50.02 26.98 C-52.51 21.96 -52.07 16.71 -51.38 11.25 C-49.25 5.34 -44.99 0.97 -39.38 -1.75 C-26.48 -6.38 -12.31 -6.38 0 0 Z " fill="#1A1C1A" transform="translate(563.375,148.75)"/>
<path d="M0 0 C6.93 0 13.86 0 21 0 C25.62 14.85 30.24 29.7 35 45 C39.26 32.38 43.48 19.78 47.18 6.98 C48.9 1.1 48.9 1.1 50 0 C51.42 -0.09 52.84 -0.11 54.25 -0.1 C55.53 -0.09 55.53 -0.09 56.84 -0.09 C57.74 -0.08 58.64 -0.07 59.56 -0.06 C60.46 -0.06 61.37 -0.05 62.29 -0.05 C64.53 -0.04 66.76 -0.02 69 0 C67.46 7.79 65.06 15.17 62.5 22.68 C62.06 23.98 61.62 25.29 61.18 26.59 C60.26 29.3 59.34 32.01 58.41 34.72 C57.23 38.19 56.06 41.67 54.88 45.14 C53.98 47.82 53.07 50.51 52.16 53.19 C51.51 55.09 50.87 56.99 50.22 58.9 C49.83 60.05 49.44 61.2 49.03 62.39 C48.69 63.4 48.34 64.41 47.99 65.46 C47 68 47 68 45 71 C42.85 71.34 42.85 71.34 40.21 71.29 C39.27 71.28 38.33 71.27 37.36 71.26 C36.37 71.24 35.39 71.21 34.38 71.19 C32.89 71.17 32.89 71.17 31.37 71.15 C28.91 71.11 26.46 71.06 24 71 C18.3 55.27 12.75 39.49 7.33 23.66 C6.69 21.8 6.05 19.94 5.41 18.08 C4.51 15.45 3.61 12.81 2.71 10.18 C2.44 9.38 2.16 8.58 1.88 7.76 C0 2.23 0 2.23 0 0 Z " fill="#1B1D1B" transform="translate(193,26)"/>
<path d="M0 0 C1.23 0.01 1.23 0.01 2.48 0.02 C8.47 0.1 8.47 0.1 9.62 1.25 C9.72 3.41 9.75 5.58 9.75 7.75 C9.75 9.53 9.75 9.53 9.76 11.34 C9.62 14.25 9.62 14.25 8.62 15.25 C6.11 15.49 3.59 15.63 1.07 15.77 C-1.77 16.33 -2.69 16.92 -4.38 19.25 C-5.11 22.86 -5.11 22.86 -5.38 26.25 C-1.09 26.25 3.21 26.25 7.62 26.25 C7.62 30.87 7.62 35.49 7.62 40.25 C3.34 40.25 -0.96 40.25 -5.38 40.25 C-5.38 59.06 -5.38 77.87 -5.38 97.25 C-11.98 97.25 -18.58 97.25 -25.38 97.25 C-25.38 78.44 -25.38 59.63 -25.38 40.25 C-29 40.25 -32.63 40.25 -36.38 40.25 C-36.38 35.63 -36.38 31.01 -36.38 26.25 C-32.75 26.25 -29.12 26.25 -25.38 26.25 C-25.46 24.97 -25.54 23.69 -25.62 22.38 C-25.61 15.73 -23.67 9.67 -19.06 4.81 C-12.41 0.94 -7.62 -0.2 0 0 Z " fill="#1A1C1A" transform="translate(733.375,-0.25)"/>
<path d="M0 0 C0 5.94 0 11.88 0 18 C-1.51 17.96 -3.01 17.92 -4.56 17.88 C-10.47 17.9 -15 18.41 -19.75 22.19 C-24.62 28.27 -25.45 33.67 -25.51 41.21 C-25.53 42.07 -25.55 42.93 -25.57 43.81 C-25.62 46.52 -25.65 49.23 -25.69 51.94 C-25.72 53.78 -25.76 55.63 -25.79 57.48 C-25.88 61.99 -25.94 66.49 -26 71 C-32.6 71 -39.2 71 -46 71 C-46 47.9 -46 24.8 -46 1 C-39.73 1 -33.46 1 -27 1 C-26.67 4.3 -26.34 7.6 -26 11 C-25.55 10.3 -25.09 9.6 -24.62 8.88 C-17.49 1.06 -10.31 -1.47 0 0 Z " fill="#1A1C1A" transform="translate(384,25)"/>
<path d="M0 0 C0 5.94 0 11.88 0 18 C-1.51 17.96 -3.01 17.92 -4.56 17.88 C-10.45 17.9 -14.97 18.43 -19.75 22.12 C-24.58 28.29 -25.45 34.52 -25.51 42.09 C-25.53 42.93 -25.55 43.76 -25.57 44.62 C-25.62 47.24 -25.65 49.87 -25.69 52.5 C-25.72 54.29 -25.76 56.09 -25.79 57.88 C-25.88 62.26 -25.94 66.63 -26 71 C-32.6 71 -39.2 71 -46 71 C-46.02 62.02 -46.04 53.04 -46.05 44.06 C-46.06 39.89 -46.06 35.72 -46.08 31.56 C-46.09 27.54 -46.09 23.52 -46.09 19.5 C-46.1 17.96 -46.1 16.42 -46.11 14.88 C-46.11 12.74 -46.11 10.59 -46.11 8.45 C-46.12 7.22 -46.12 6 -46.12 4.74 C-46 2 -46 2 -45 1 C-43.66 0.91 -42.31 0.89 -40.96 0.9 C-40.16 0.91 -39.35 0.91 -38.51 0.91 C-37.66 0.92 -36.81 0.93 -35.94 0.94 C-35.08 0.94 -34.23 0.95 -33.35 0.95 C-31.23 0.96 -29.12 0.98 -27 1 C-26.67 4.63 -26.34 8.26 -26 12 C-25.69 11.3 -25.38 10.6 -25.06 9.88 C-18.93 1.32 -10.09 -1.44 0 0 Z " fill="#1A1C1A" transform="translate(734,145)"/>
<path d="M0 0 C0 5.94 0 11.88 0 18 C-1.65 17.94 -3.3 17.88 -5 17.81 C-11.52 17.83 -16.58 18.58 -21.38 23.38 C-24.89 29.06 -25.33 33.7 -25.41 40.24 C-25.43 41.12 -25.45 42 -25.47 42.91 C-25.53 45.71 -25.58 48.51 -25.62 51.31 C-25.66 53.22 -25.7 55.12 -25.74 57.03 C-25.84 61.68 -25.92 66.34 -26 71 C-32.6 71 -39.2 71 -46 71 C-46 47.9 -46 24.8 -46 1 C-40.06 1 -34.12 1 -28 1 C-26.42 2.58 -26.65 4.38 -26.44 6.56 C-26.31 7.8 -26.31 7.8 -26.18 9.07 C-26.12 9.7 -26.06 10.34 -26 11 C-25.66 10.54 -25.32 10.08 -24.97 9.61 C-19.61 2.83 -9 -4.5 0 0 Z " fill="#1A1C1A" transform="translate(433,145)"/>
<path d="M0 0 C0 5.94 0 11.88 0 18 C-2.23 17.91 -2.23 17.91 -4.5 17.81 C-10.63 17.82 -15.34 19.06 -20.31 22.69 C-24.69 28.68 -25.45 34.91 -25.51 42.09 C-25.53 42.93 -25.55 43.76 -25.57 44.62 C-25.62 47.24 -25.65 49.87 -25.69 52.5 C-25.72 54.29 -25.76 56.09 -25.79 57.88 C-25.88 62.26 -25.94 66.63 -26 71 C-32.6 71 -39.2 71 -46 71 C-46.02 62.02 -46.04 53.04 -46.05 44.06 C-46.06 39.89 -46.06 35.72 -46.08 31.56 C-46.09 27.54 -46.09 23.52 -46.09 19.5 C-46.1 17.96 -46.1 16.42 -46.11 14.88 C-46.11 12.74 -46.11 10.59 -46.11 8.45 C-46.12 7.22 -46.12 6 -46.12 4.74 C-46 2 -46 2 -45 1 C-43.66 0.91 -42.31 0.89 -40.96 0.9 C-40.16 0.91 -39.35 0.91 -38.51 0.91 C-37.66 0.92 -36.81 0.93 -35.94 0.94 C-35.08 0.94 -34.23 0.95 -33.35 0.95 C-31.23 0.96 -29.12 0.98 -27 1 C-26.67 4.63 -26.34 8.26 -26 12 C-25.01 10.76 -24.02 9.53 -23 8.25 C-19.47 4.21 -16.02 1.83 -11 0 C-10.41 -0.22 -9.81 -0.44 -9.2 -0.66 C-7 -1 -7 -1 0 0 Z " fill="#1A1C1A" transform="translate(212,145)"/>
<path d="M0 0 C6.27 0 12.54 0 19 0 C20 1 20 1 20.12 3.78 C20.12 5.64 20.12 5.64 20.11 7.54 C20.11 8.22 20.11 8.91 20.11 9.61 C20.11 11.88 20.11 14.14 20.1 16.41 C20.1 17.98 20.09 19.55 20.09 21.11 C20.09 25.25 20.08 29.38 20.07 33.52 C20.06 37.73 20.05 41.95 20.05 46.17 C20.04 54.44 20.02 62.72 20 71 C13.4 71 6.8 71 0 71 C0 47.57 0 24.14 0 0 Z " fill="#1B1D1B" transform="translate(455,26)"/>
<path d="M0 0 C6.27 0 12.54 0 19 0 C19 23.43 19 46.86 19 71 C12.73 71 6.46 71 0 71 C-1.86 69.14 -1.13 66.05 -1.13 63.57 C-1.13 62.9 -1.13 62.23 -1.13 61.53 C-1.14 59.3 -1.14 57.07 -1.13 54.84 C-1.13 53.3 -1.13 51.76 -1.14 50.21 C-1.14 46.98 -1.14 43.74 -1.13 40.5 C-1.12 36.34 -1.13 32.18 -1.13 28.02 C-1.14 24.83 -1.14 21.64 -1.13 18.46 C-1.13 16.92 -1.13 15.39 -1.14 13.85 C-1.14 11.71 -1.13 9.57 -1.13 7.43 C-1.13 6.21 -1.13 4.99 -1.13 3.73 C-1 1 -1 1 0 0 Z " fill="#1B1D1B" transform="translate(658,146)"/>
<path d="M0 0 C6.27 0 12.54 0 19 0 C20.86 1.86 20.13 4.95 20.13 7.43 C20.13 8.1 20.13 8.77 20.13 9.47 C20.14 11.7 20.14 13.93 20.13 16.16 C20.13 17.7 20.13 19.24 20.14 20.79 C20.14 24.02 20.14 27.26 20.13 30.5 C20.12 34.66 20.13 38.82 20.13 42.98 C20.14 46.17 20.14 49.36 20.13 52.54 C20.13 54.08 20.13 55.61 20.14 57.15 C20.14 59.29 20.13 61.43 20.13 63.57 C20.13 64.79 20.13 66.01 20.13 67.27 C20 70 20 70 19 71 C12.73 71 6.46 71 0 71 C0 47.57 0 24.14 0 0 Z " fill="#1B1D1B" transform="translate(170,26)"/>
<path d="M0 0 C6.6 0 13.2 0 20 0 C20 5.28 20 10.56 20 16 C13.4 16 6.8 16 0 16 C0 10.72 0 5.44 0 0 Z " fill="#1B1D1B" transform="translate(657,120)"/>
<path d="M0 0 C6.6 0 13.2 0 20 0 C20 5.28 20 10.56 20 16 C13.4 16 6.8 16 0 16 C0 10.72 0 5.44 0 0 Z " fill="#1B1D1B" transform="translate(455,0)"/>
<path d="M0 0 C6.6 0 13.2 0 20 0 C20 5.28 20 10.56 20 16 C13.4 16 6.8 16 0 16 C0 10.72 0 5.44 0 0 Z " fill="#1B1D1B" transform="translate(170,0)"/>
</svg>
