<?xml version="1.0" encoding="UTF-8"?>
<!-- Generator: visioncortex VTracer 0.6.3 -->
<svg version="1.1" xmlns="http://www.w3.org/2000/svg" width="1280" height="672">
<path d="M0 0 C422.4 0 844.8 0 1280 0 C1280 221.76 1280 443.52 1280 672 C857.6 672 435.2 672 0 672 C0 450.24 0 228.48 0 0 Z " fill="#FBFCFE" transform="translate(0,0)"/>
<path d="M0 0 C0.94 -0.01 1.89 -0.01 2.86 -0.02 C4.85 -0.03 6.83 -0.03 8.82 -0.04 C11.84 -0.05 14.85 -0.08 17.87 -0.11 C19.81 -0.12 21.75 -0.12 23.69 -0.12 C24.58 -0.14 25.47 -0.15 26.38 -0.16 C35.06 -0.13 43.17 1.64 50.04 7.2 C55.56 13.34 56.58 17.82 56.41 26 C55.88 30.6 54.58 33.24 51.04 36.2 C48.14 38.1 45.18 39.72 42.04 41.2 C43.71 42.32 45.4 43.41 47.13 44.43 C53.23 48.15 57.47 52.19 59.65 59.14 C60.93 65.89 60.61 72.23 57.04 78.2 C51.25 84.7 44.46 86.97 36.04 88.2 C34.16 88.28 32.28 88.32 30.4 88.32 C29.32 88.32 28.24 88.32 27.13 88.32 C25.98 88.31 24.83 88.31 23.64 88.3 C21.86 88.3 21.86 88.3 20.04 88.3 C16.25 88.29 12.46 88.28 8.67 88.27 C6.09 88.26 3.52 88.26 0.95 88.25 C-5.36 88.24 -11.66 88.22 -17.96 88.2 C-18.52 86.3 -18.52 86.3 -18.96 84.2 C-17.69 82 -16.42 81.34 -14.01 80.64 C-12.93 80.4 -12.93 80.4 -11.83 80.14 C-10.55 79.83 -9.27 79.52 -7.96 79.2 C-6.58 76.46 -6.81 74.24 -6.8 71.16 C-6.79 69.9 -6.78 68.63 -6.77 67.32 C-6.76 65.93 -6.76 64.54 -6.75 63.15 C-6.75 61.73 -6.74 60.3 -6.74 58.88 C-6.73 55.9 -6.72 52.91 -6.72 49.93 C-6.71 46.11 -6.69 42.28 -6.66 38.46 C-6.64 35.52 -6.63 32.58 -6.63 29.64 C-6.63 28.24 -6.62 26.83 -6.61 25.42 C-6.59 23.45 -6.6 21.47 -6.6 19.5 C-6.6 17.82 -6.6 17.82 -6.59 16.1 C-7 12.87 -7.7 11.51 -9.96 9.2 C-12.21 8.3 -12.21 8.3 -14.64 7.95 C-15.45 7.8 -16.26 7.65 -17.09 7.5 C-17.71 7.4 -18.32 7.3 -18.96 7.2 C-18.08 2.33 -18.08 2.33 -16.96 1.2 C-11.3 0.15 -5.74 0.03 0 0 Z " fill="#58244A" transform="translate(603.95703125,253.796875)"/>
<path d="M0 0 C1.29 0.01 1.29 0.01 2.61 0.01 C4.02 0.02 4.02 0.02 5.45 0.02 C6.43 0.03 7.41 0.04 8.42 0.06 C9.41 0.06 10.39 0.06 11.41 0.06 C18.72 0.1 18.72 0.1 19.86 1.24 C19.96 3.19 19.98 5.14 19.98 7.1 C19.98 8.37 19.98 9.64 19.99 10.95 C19.98 12.37 19.98 13.8 19.97 15.22 C19.97 16.71 19.97 18.19 19.98 19.68 C19.98 23.73 19.97 27.78 19.96 31.84 C19.96 36.07 19.96 40.29 19.95 44.52 C19.95 52.54 19.94 60.55 19.93 68.57 C19.92 77.69 19.92 86.81 19.91 95.93 C19.9 114.7 19.88 133.47 19.86 152.24 C18.92 152.69 18.92 152.69 17.97 153.15 C15.14 154.49 12.31 155.84 9.49 157.18 C8.5 157.65 7.52 158.12 6.5 158.6 C5.56 159.05 4.62 159.5 3.65 159.96 C2.78 160.37 1.91 160.79 1.02 161.21 C-0.37 161.88 -1.76 162.55 -3.14 163.24 C-4.25 159.91 -4.27 157.41 -4.27 153.9 C-4.27 153.25 -4.28 152.6 -4.28 151.94 C-4.29 149.77 -4.29 147.6 -4.28 145.43 C-4.29 143.88 -4.29 142.32 -4.29 140.77 C-4.3 136.55 -4.31 132.32 -4.31 128.1 C-4.31 124.58 -4.31 121.06 -4.31 117.53 C-4.32 109.23 -4.32 100.93 -4.32 92.62 C-4.32 84.04 -4.33 75.47 -4.35 66.89 C-4.36 59.53 -4.37 52.17 -4.37 44.82 C-4.37 40.42 -4.37 36.02 -4.38 31.62 C-4.39 27.49 -4.39 23.36 -4.38 19.23 C-4.38 17.71 -4.38 16.19 -4.39 14.67 C-4.4 12.6 -4.39 10.53 -4.39 8.46 C-4.39 7.3 -4.39 6.14 -4.39 4.95 C-4.08 1.61 -3.44 0.39 0 0 Z " fill="#58244A" transform="translate(506.138916015625,252.757080078125)"/>
<path d="M0 0 C0.68 -0 1.36 -0 2.06 -0.01 C4.33 -0.01 6.59 -0.01 8.85 -0 C10.42 -0 11.98 -0.01 13.55 -0.01 C16.83 -0.01 20.12 -0.01 23.4 -0 C27.62 0 31.85 0 36.07 -0 C39.3 -0.01 42.53 -0.01 45.77 -0 C47.32 -0 48.88 -0 50.44 -0.01 C52.61 -0.01 54.78 -0.01 56.95 0 C58.19 0 59.43 0 60.71 0 C63.48 0.13 63.48 0.13 64.48 1.13 C64.63 2.76 64.73 4.4 64.79 6.04 C64.83 7.03 64.88 8.02 64.92 9.04 C64.96 10.08 65 11.12 65.04 12.19 C65.08 13.24 65.13 14.28 65.17 15.36 C65.28 17.95 65.38 20.54 65.48 23.13 C59.73 23.25 59.73 23.25 57.48 22.13 C56.75 20.42 56.03 18.7 55.32 16.98 C54.09 14.28 52.54 12.26 50.48 10.13 C47.4 9.06 44.51 9.01 41.27 9.03 C40.39 9.03 39.51 9.04 38.6 9.04 C37.48 9.05 36.37 9.06 35.23 9.07 C29.91 9.1 29.91 9.1 24.48 9.13 C24.48 18.04 24.48 26.95 24.48 36.13 C29.43 36.13 34.38 36.13 39.48 36.13 C39.85 34.83 40.22 33.53 40.6 32.19 C41.41 29.98 41.41 29.98 42.48 28.13 C45.6 27.07 45.6 27.07 48.48 27.13 C49.48 28.13 49.48 28.13 49.59 30.81 C49.58 31.98 49.58 33.15 49.57 34.35 C49.57 35.61 49.57 36.87 49.56 38.17 C49.56 39.51 49.55 40.85 49.54 42.19 C49.53 43.54 49.53 44.88 49.53 46.23 C49.51 49.53 49.5 52.83 49.48 56.13 C47.5 56.13 45.52 56.13 43.48 56.13 C43.2 55.56 42.92 55 42.64 54.41 C42.09 53.31 42.09 53.31 41.54 52.19 C41.18 51.46 40.82 50.73 40.45 49.98 C39.61 48.17 39.61 48.17 38.48 47.13 C36.31 47.03 34.14 47 31.98 47 C30.79 47 29.6 47 28.38 47 C25.58 46.8 25.58 46.8 24.48 48.13 C24.39 50.2 24.37 52.28 24.38 54.35 C24.38 55.61 24.39 56.87 24.39 58.17 C24.4 59.51 24.41 60.85 24.41 62.19 C24.42 63.54 24.42 64.88 24.43 66.23 C24.44 69.53 24.46 72.83 24.48 76.13 C29.7 78.01 33.93 78.46 39.41 78.44 C40.57 78.47 40.57 78.47 41.76 78.49 C47.98 78.5 52.93 77.46 57.66 73.13 C60.32 68.73 61.87 64 63.48 59.13 C65.47 58.75 67.47 58.42 69.48 58.13 C70.48 59.13 70.48 59.13 70.61 61.29 C70.59 69.98 70.02 78.41 69.48 87.13 C44.07 87.13 18.66 87.13 -7.52 87.13 C-8.02 84.65 -8.02 84.65 -8.52 82.13 C-6.21 79.82 -5.11 79.67 -1.96 79.07 C1.04 78.66 1.04 78.66 3.48 77.13 C3.59 75.13 3.64 73.12 3.65 71.11 C3.67 69.82 3.68 68.54 3.69 67.21 C3.7 65.79 3.71 64.37 3.71 62.95 C3.72 61.89 3.72 61.89 3.73 60.8 C3.75 57.03 3.76 53.27 3.77 49.5 C3.78 45.61 3.82 41.72 3.86 37.83 C3.88 34.84 3.89 31.85 3.9 28.86 C3.9 27.43 3.91 25.99 3.93 24.56 C3.95 22.55 3.95 20.54 3.95 18.53 C3.95 17.39 3.96 16.25 3.96 15.07 C3.37 11.49 2.3 10.34 -0.52 8.13 C-2.62 7.25 -2.62 7.25 -4.77 6.88 C-6.01 6.63 -7.25 6.38 -8.52 6.13 C-7.37 -0.32 -6.53 0 0 0 Z " fill="#58244A" transform="translate(777.5234375,254.87060546875)"/>
<path d="M0 0 C1.36 0.01 1.36 0.01 2.74 0.01 C3.72 0.01 4.71 0.02 5.72 0.02 C6.74 0.03 7.77 0.04 8.83 0.06 C9.86 0.06 10.9 0.06 11.96 0.06 C19.63 0.1 19.63 0.1 20.77 1.24 C20.88 4.15 20.93 7.04 20.93 9.95 C20.94 10.86 20.94 11.77 20.95 12.72 C20.96 15.76 20.97 18.8 20.97 21.85 C20.98 23.97 20.98 26.08 20.99 28.2 C21 32.66 21.01 37.11 21.01 41.56 C21.01 47.24 21.04 52.92 21.07 58.59 C21.09 62.98 21.09 67.36 21.09 71.74 C21.1 73.83 21.1 75.92 21.12 78.01 C21.2 92.43 21.07 106.42 14.14 119.49 C13.8 120.16 13.46 120.82 13.11 121.51 C9.86 127.56 5.69 132.47 0.77 137.24 C-0.35 138.36 -0.35 138.36 -1.5 139.51 C-2.07 140.08 -2.64 140.65 -3.23 141.24 C-4.27 138.14 -4.36 135.99 -4.36 132.73 C-4.37 131.59 -4.37 130.44 -4.38 129.26 C-4.38 127.37 -4.38 127.37 -4.38 125.45 C-4.38 124.11 -4.38 122.78 -4.39 121.44 C-4.39 117.81 -4.4 114.17 -4.4 110.54 C-4.4 107.51 -4.4 104.48 -4.41 101.45 C-4.41 94.31 -4.42 87.17 -4.42 80.02 C-4.42 72.64 -4.43 65.26 -4.44 57.89 C-4.45 51.56 -4.46 45.23 -4.46 38.9 C-4.46 35.11 -4.46 31.33 -4.47 27.55 C-4.48 23.99 -4.48 20.44 -4.48 16.88 C-4.47 14.95 -4.48 13.02 -4.49 11.09 C-4.49 9.95 -4.48 8.8 -4.48 7.63 C-4.48 6.63 -4.48 5.63 -4.48 4.6 C-4.14 1.38 -3.25 0.35 0 0 Z " fill="#58244A" transform="translate(547.230712890625,252.757080078125)"/>
<path d="M0 0 C1.11 0 1.11 0 2.24 0 C3.49 -0 3.49 -0 4.78 -0.01 C5.68 0 6.59 0.01 7.52 0.02 C8.45 0.02 9.37 0.02 10.33 0.02 C12.29 0.02 14.25 0.03 16.21 0.04 C19.23 0.06 22.24 0.06 25.25 0.06 C27.15 0.07 29.06 0.07 30.96 0.08 C31.86 0.08 32.77 0.08 33.71 0.08 C40.06 0.13 40.06 0.13 41.17 1.25 C41.21 3.25 41.21 5.25 41.17 7.25 C39.22 7.64 37.27 8.03 35.31 8.42 C32.23 9.61 31.14 10.51 29.17 13.25 C28.55 16.98 28.61 20.7 28.64 24.48 C28.64 25.58 28.63 26.69 28.63 27.83 C28.63 30.17 28.63 32.5 28.65 34.84 C28.67 38.4 28.65 41.96 28.62 45.52 C28.63 47.8 28.63 50.08 28.64 52.35 C28.63 53.41 28.62 54.47 28.62 55.55 C28.7 62.12 29.54 67.65 33.17 73.25 C39.06 78.79 44.51 79.57 52.42 79.45 C58.18 79.02 61.78 76.96 65.55 72.75 C72.77 63.94 70.36 48.35 70.36 37.49 C70.36 34.92 70.38 32.35 70.4 29.78 C70.4 28.13 70.4 26.48 70.4 24.82 C70.41 23.69 70.41 23.69 70.42 22.53 C70.4 17.74 69.68 13.8 68.17 9.25 C63.72 8.26 63.72 8.26 59.17 7.25 C58.55 4.87 58.55 4.87 58.17 2.25 C60.17 0.25 60.17 0.25 63.14 0 C64.38 0.01 65.62 0.01 66.89 0.02 C67.56 0.02 68.22 0.02 68.9 0.02 C70.29 0.02 71.69 0.03 73.09 0.04 C75.23 0.06 77.37 0.06 79.52 0.06 C90.02 0.1 90.02 0.1 91.17 1.25 C91.21 3.25 91.21 5.25 91.17 7.25 C90.55 7.42 89.92 7.59 89.27 7.76 C88.46 8.01 87.64 8.25 86.8 8.5 C85.98 8.73 85.17 8.96 84.34 9.2 C81.61 10.52 81.27 11.46 80.17 14.25 C79.87 16.65 79.87 16.65 79.9 19.24 C79.89 20.23 79.88 21.22 79.87 22.25 C79.87 23.31 79.87 24.38 79.86 25.48 C79.84 27.75 79.81 30.02 79.79 32.29 C79.76 35.86 79.73 39.43 79.72 43 C79.69 46.45 79.65 49.9 79.61 53.35 C79.61 54.41 79.61 55.47 79.61 56.55 C79.47 67.21 77.13 74.31 69.7 82.08 C63.83 87.11 56.77 88.9 49.17 89.25 C48.03 89.32 48.03 89.32 46.87 89.4 C35.38 89.84 25.05 86.65 16.17 79.25 C10.79 72.94 8.92 65.76 8.58 57.59 C8.54 56.85 8.5 56.12 8.47 55.36 C8 45.67 7.82 35.97 7.62 26.27 C7.57 23.83 7.51 21.38 7.45 18.94 C7.44 18.19 7.43 17.45 7.41 16.68 C7.38 12.84 7.38 12.84 6.17 9.25 C4.05 8.56 4.05 8.56 1.61 8.12 C0.78 7.95 -0.04 7.79 -0.89 7.61 C-1.53 7.49 -2.17 7.37 -2.83 7.25 C-3.45 4.87 -3.45 4.87 -3.83 2.25 C-1.83 0.25 -1.83 0.25 0 0 Z " fill="#58244A" transform="translate(672.8282623291016,254.7527618408203)"/>
<path d="M0 0 C1.46 2.91 1.17 5.49 1.21 8.74 C1.22 9.44 1.23 10.13 1.24 10.84 C1.27 13.14 1.29 15.43 1.32 17.73 C1.34 19.32 1.36 20.9 1.38 22.49 C1.43 26.68 1.48 30.86 1.53 35.05 C1.58 39.32 1.64 43.59 1.69 47.86 C1.8 56.24 1.9 64.62 2 73 C3.13 73.04 3.13 73.04 4.28 73.08 C7.67 73.19 11.05 73.31 14.44 73.44 C15.62 73.48 16.81 73.52 18.03 73.56 C19.15 73.6 20.27 73.64 21.43 73.68 C22.48 73.72 23.52 73.76 24.59 73.79 C27 74 27 74 28 75 C28.07 76.52 28.08 78.04 28.06 79.56 C28.05 80.39 28.04 81.22 28.04 82.07 C28.02 82.7 28.01 83.34 28 84 C27.25 84.03 26.5 84.05 25.72 84.08 C22.33 84.19 18.95 84.31 15.56 84.44 C14.38 84.48 13.19 84.52 11.97 84.56 C10.85 84.6 9.73 84.64 8.57 84.68 C7.52 84.72 6.48 84.76 5.41 84.79 C3.05 84.74 3.05 84.74 2 86 C1.88 87.96 1.82 89.93 1.79 91.9 C1.77 93.16 1.75 94.42 1.73 95.72 C1.72 97.11 1.7 98.49 1.68 99.88 C1.66 101.29 1.64 102.7 1.62 104.11 C1.57 107.83 1.52 111.55 1.47 115.27 C1.42 119.07 1.36 122.86 1.31 126.65 C1.2 134.1 1.1 141.55 1 149 C-0.46 148.21 -1.92 147.42 -3.38 146.62 C-4.59 145.96 -4.59 145.96 -5.84 145.29 C-8 144 -8 144 -10 142 C-10.23 139.74 -10.23 139.74 -10.21 136.88 C-10.21 135.81 -10.2 134.74 -10.2 133.64 C-10.19 132.48 -10.17 131.33 -10.16 130.13 C-10.15 128.95 -10.15 127.76 -10.14 126.54 C-10.13 122.73 -10.1 118.93 -10.06 115.12 C-10.03 111.33 -10.01 107.53 -9.99 103.73 C-9.98 101.37 -9.96 99 -9.94 96.64 C-9.93 95.56 -9.92 94.49 -9.92 93.38 C-9.91 92.44 -9.9 91.49 -9.89 90.52 C-9.93 87.72 -9.93 87.72 -11 84 C-23.87 83.5 -23.87 83.5 -37 83 C-38 78 -38 78 -37 75 C-34.34 73.67 -32.31 73.89 -29.34 73.9 C-27.65 73.91 -27.65 73.91 -25.94 73.91 C-24.76 73.92 -23.59 73.93 -22.38 73.94 C-21.19 73.94 -20.01 73.95 -18.79 73.95 C-15.86 73.96 -12.93 73.98 -10 74 C-10.01 73.12 -10.01 72.23 -10.02 71.32 C-10.08 63.01 -10.13 54.7 -10.16 46.38 C-10.17 42.11 -10.19 37.84 -10.23 33.56 C-10.26 29.44 -10.28 25.31 -10.28 21.19 C-10.29 19.62 -10.3 18.04 -10.32 16.47 C-10.34 14.26 -10.34 12.06 -10.34 9.86 C-10.35 8.6 -10.35 7.35 -10.36 6.06 C-10 3 -10 3 -8.71 1.08 C-5.93 -0.68 -3.19 -0.18 0 0 Z " fill="#58244A" transform="translate(468,253)"/>
<path d="M0 0 C1.29 0.01 1.29 0.01 2.61 0.01 C4.02 0.02 4.02 0.02 5.45 0.02 C6.43 0.03 7.41 0.04 8.42 0.06 C9.41 0.06 10.39 0.06 11.41 0.06 C18.72 0.1 18.72 0.1 19.86 1.24 C20 4.28 20.07 7.28 20.1 10.32 C20.11 11.23 20.12 12.15 20.12 13.09 C20.14 15.04 20.15 16.99 20.16 18.93 C20.17 21.9 20.22 24.87 20.26 27.83 C20.27 29.72 20.28 31.61 20.29 33.5 C20.3 34.39 20.32 35.27 20.34 36.19 C20.31 43.98 17.26 48.09 11.82 53.55 C10.7 54.67 10.7 54.67 9.56 55.81 C8.8 56.57 8.03 57.33 7.24 58.12 C6.46 58.9 5.68 59.69 4.88 60.49 C4.14 61.23 3.4 61.97 2.63 62.74 C1.62 63.75 1.62 63.75 0.59 64.78 C-1.14 66.24 -1.14 66.24 -3.14 66.24 C-4.21 63.03 -4.27 60.71 -4.28 57.33 C-4.29 56.12 -4.3 54.91 -4.3 53.65 C-4.3 52.34 -4.31 51.03 -4.31 49.68 C-4.31 48.32 -4.31 46.96 -4.32 45.6 C-4.32 42.76 -4.32 39.91 -4.32 37.06 C-4.32 33.41 -4.34 29.76 -4.35 26.11 C-4.37 23.31 -4.37 20.5 -4.37 17.7 C-4.37 15.7 -4.38 13.69 -4.39 11.69 C-4.39 10.48 -4.39 9.27 -4.38 8.02 C-4.38 6.95 -4.38 5.88 -4.39 4.78 C-4.07 1.53 -3.32 0.38 0 0 Z " fill="#5A274C" transform="translate(476.138916015625,252.757080078125)"/>
<path d="M0 0 C3.49 1.65 5.78 3.53 8.51 6.28 C9.77 7.54 9.77 7.54 11.06 8.83 C11.92 9.71 12.79 10.59 13.69 11.5 C14.57 12.38 15.45 13.26 16.35 14.17 C24.1 21.97 24.1 21.97 24.21 27.36 C24.23 28.26 24.25 29.16 24.27 30.09 C24.28 31.06 24.3 32.04 24.32 33.04 C24.34 34.04 24.36 35.03 24.38 36.06 C24.44 39.25 24.5 42.44 24.56 45.62 C24.61 47.78 24.65 49.94 24.69 52.1 C24.8 57.4 24.9 62.7 25 68 C24.47 67.66 23.94 67.33 23.4 66.98 C18.19 63.69 18.19 63.69 12.75 60.8 C12.06 60.46 11.37 60.12 10.66 59.77 C9.97 59.43 9.28 59.1 8.56 58.75 C1.12 55.12 1.12 55.12 0 54 C-0.09 52.31 -0.12 50.62 -0.11 48.93 C-0.11 47.85 -0.11 46.77 -0.11 45.65 C-0.11 44.48 -0.1 43.3 -0.1 42.09 C-0.1 40.89 -0.09 39.7 -0.09 38.46 C-0.09 34.62 -0.08 30.78 -0.06 26.94 C-0.06 24.34 -0.05 21.74 -0.05 19.15 C-0.04 12.76 -0.02 6.38 0 0 Z " fill="#58244A" transform="translate(472,349)"/>
<path d="M0 0 C1.29 0.01 1.29 0.01 2.61 0.01 C4.02 0.02 4.02 0.02 5.45 0.02 C6.43 0.03 7.41 0.04 8.42 0.06 C9.41 0.06 10.39 0.06 11.41 0.06 C18.72 0.1 18.72 0.1 19.86 1.24 C19.95 3.08 19.98 4.93 19.97 6.77 C19.97 7.95 19.97 9.13 19.97 10.35 C19.97 11.64 19.96 12.92 19.96 14.25 C19.96 15.55 19.96 16.86 19.95 18.21 C19.95 21.69 19.94 25.18 19.93 28.66 C19.92 32.21 19.91 35.77 19.91 39.32 C19.9 46.29 19.88 53.27 19.86 60.24 C-1.81 47.31 -1.81 47.31 -4.68 36.13 C-6.45 25.22 -5.92 13.13 -4.14 2.24 C-2.14 0.24 -2.14 0.24 0 0 Z " fill="#58244A" transform="translate(434.138916015625,252.757080078125)"/>
<path d="M0 0 C5.3 0.08 8.83 0.41 12.98 3.76 C16.83 8.61 17.74 12.89 17.75 19 C17.78 20.92 17.78 20.92 17.81 22.88 C17.24 26.98 16.23 28.56 13.31 31.44 C8.05 34.37 4.18 35 -1.69 34.44 C-5.12 33.12 -5.12 33.12 -7.69 31.44 C-9.41 26.26 -8.87 20.79 -8.88 15.38 C-8.89 14.17 -8.9 12.96 -8.91 11.71 C-8.91 10.56 -8.92 9.4 -8.92 8.21 C-8.92 7.16 -8.93 6.1 -8.93 5 C-8.41 -0.51 -4.66 0.08 0 0 Z " fill="#FCFDFF" transform="translate(625.6875,299.5625)"/>
<path d="M0 0 C6.73 0.16 11.19 2.13 15.88 6.94 C18.01 11.83 18.4 16.13 17.38 21.38 C15.12 25.4 12.77 27.91 8.38 29.38 C6 29.47 3.63 29.5 1.25 29.5 C-0.64 29.5 -0.64 29.5 -2.57 29.51 C-5.62 29.38 -5.62 29.38 -6.62 28.38 C-6.88 24.07 -6.81 19.75 -6.81 15.44 C-6.83 13.61 -6.83 13.61 -6.85 11.74 C-6.85 10.58 -6.85 9.42 -6.86 8.22 C-6.86 7.15 -6.86 6.08 -6.87 4.97 C-6.43 0.33 -4.14 0.06 0 0 Z " fill="#FCFDFF" transform="translate(623.625,261.625)"/>
<path d="M0 0 C0 13.53 0 27.06 0 41 C-7.97 36.22 -14.65 28.83 -18 20 C-18.34 17.44 -18.34 17.44 -18 15 C-16.53 13.26 -16.53 13.26 -14.5 11.69 C-10.59 8.53 -7.13 5.14 -3.66 1.5 C-2 0 -2 0 0 0 Z " fill="#58244A" transform="translate(454,350)"/>
<path d="M0 0 C3 1 3 1 5 4 C8.46 4.5 8.46 4.5 12 4 C13.67 2.5 13.67 2.5 15 1 C17.19 1.31 17.19 1.31 19 2 C20.12 7.75 20.12 7.75 19 10 C17.77 9.75 17.77 9.75 16.52 9.49 C12.55 8.94 8.74 8.97 4.76 9.12 C3.99 9.14 3.22 9.17 2.43 9.19 C-0.01 9.27 -2.44 9.35 -4.88 9.44 C-6.53 9.49 -8.19 9.54 -9.85 9.6 C-13.9 9.72 -17.95 9.86 -22 10 C-22.66 11.32 -23.32 12.64 -24 14 C-25.65 13.67 -27.3 13.34 -29 13 C-29 12.34 -29 11.68 -29 11 C-27.35 10.67 -25.7 10.34 -24 10 C-24.33 8.35 -24.66 6.7 -25 5 C-22.21 4.07 -19.78 3.98 -16.88 4.06 C-12.99 4.45 -12.99 4.45 -11 2 C-10.34 2.33 -9.68 2.66 -9 3 C-9 3.66 -9 4.32 -9 5 C-8.01 4.34 -7.02 3.68 -6 3 C-4.68 3 -3.36 3 -2 3 C-2 2.34 -2 1.68 -2 1 C-1.34 0.67 -0.68 0.34 0 0 Z " fill="#5C2A4F" transform="translate(615,398)"/>
<path d="M0 0 C0.66 0.33 1.32 0.66 2 1 C2 2.32 2 3.64 2 5 C4.97 5.33 7.94 5.66 11 6 C11.33 4.35 11.66 2.7 12 1 C13.65 0.67 15.3 0.34 17 0 C17.99 1.98 18.98 3.96 20 6 C25.16 5.63 25.16 5.63 29.44 2.94 C29.95 2.3 30.47 1.66 31 1 C33.46 3.14 34.69 4.7 35 8 C34.34 8.99 33.68 9.98 33 11 C32.33 10.84 31.67 10.67 30.98 10.51 C27.4 9.9 23.91 9.88 20.29 9.9 C19.57 9.9 18.84 9.91 18.09 9.91 C15.79 9.91 13.49 9.92 11.19 9.94 C9.62 9.94 8.05 9.95 6.49 9.95 C2.66 9.96 -1.17 9.98 -5 10 C-5.33 9.01 -5.66 8.02 -6 7 C-4.69 4.81 -4.69 4.81 -3 3 C-2.34 3 -1.68 3 -1 3 C-0.67 2.01 -0.34 1.02 0 0 Z " fill="#5A274D" transform="translate(779,397)"/>
<path d="M0 0 C0.47 0.64 0.95 1.28 1.44 1.94 C2.84 3.88 2.84 3.88 4 5 C5.68 4.71 7.34 4.38 9 4 C9.35 4.64 9.7 5.28 10.06 5.94 C12.77 8.82 15.16 8.71 19 9 C19.33 8.01 19.66 7.02 20 6 C20.66 6.33 21.32 6.66 22 7 C21.67 8.98 21.34 10.96 21 13 C16.46 13.02 11.92 13.04 7.38 13.05 C5.84 13.06 4.29 13.07 2.75 13.08 C0.53 13.09 -1.69 13.09 -3.9 13.1 C-4.94 13.11 -4.94 13.11 -6.01 13.11 C-7.67 13.11 -9.34 13.06 -11 13 C-12 12 -12 12 -12.1 9.93 C-12.09 9.11 -12.07 8.29 -12.06 7.44 C-12.05 6.61 -12.04 5.78 -12.04 4.93 C-12.02 4.3 -12.01 3.66 -12 3 C-10.68 2.67 -9.36 2.34 -8 2 C-8 3.98 -8 5.96 -8 8 C-5.69 8.33 -3.38 8.66 -1 9 C-1.21 7.89 -1.41 6.77 -1.62 5.62 C-1.81 3.83 -1.81 3.83 -2 2 C-1.34 1.34 -0.68 0.68 0 0 Z " fill="#5C294E" transform="translate(713,394)"/>
<path d="M0 0 C2.79 -0.5 4.29 -0.67 7 0 C10.34 2.42 13.07 5.36 15.88 8.38 C16.65 9.17 17.42 9.96 18.21 10.78 C24.98 17.81 24.98 17.81 25.06 22.12 C25.04 23.07 25.02 24.02 25 25 C21.16 22.88 18.24 20.49 15.14 17.4 C13.81 16.08 13.81 16.08 12.45 14.72 C11.54 13.8 10.63 12.89 9.69 11.94 C8.76 11.01 7.82 10.09 6.87 9.14 C5.99 8.26 5.11 7.37 4.2 6.46 C3.39 5.66 2.59 4.85 1.76 4.02 C0 2 0 2 0 0 Z " fill="#58244A" transform="translate(471,340)"/>
<path d="M0 0 C0 2 0 2 -1.31 3.4 C-1.87 3.93 -2.42 4.46 -3 5 C-4.03 6.18 -5.05 7.37 -6.06 8.56 C-10.46 13.63 -15.22 18.31 -20 23 C-20.33 22.01 -20.66 21.02 -21 20 C-21.66 20 -22.32 20 -23 20 C-21.73 16.34 -20.35 13.98 -17.59 11.27 C-16.6 10.28 -16.6 10.28 -15.59 9.28 C-14.9 8.61 -14.21 7.94 -13.5 7.25 C-12.81 6.57 -12.12 5.88 -11.41 5.18 C-4.72 -1.41 -4.72 -1.41 0 0 Z " fill="#58244A" transform="translate(456,341)"/>
<path d="M0 0 C0.99 0.33 1.98 0.66 3 1 C2.67 3.31 2.34 5.62 2 8 C2.64 8.27 3.28 8.54 3.94 8.81 C6 10 6 10 7 13 C2.03 14.99 -2.12 15.25 -7.38 15.12 C-8.48 15.11 -8.48 15.11 -9.61 15.1 C-11.4 15.07 -13.2 15.04 -15 15 C-15.94 11.58 -16.08 8.55 -16 5 C-14.68 4.67 -13.36 4.34 -12 4 C-12 5.98 -12 7.96 -12 10 C-9.36 10.33 -6.72 10.66 -4 11 C-3.67 9.68 -3.34 8.36 -3 7 C-2.34 7 -1.68 7 -1 7 C-1.02 6.03 -1.04 5.06 -1.06 4.06 C-1 1 -1 1 0 0 Z " fill="#58244A" transform="translate(832,392)"/>
<path d="M0 0 C0.52 0.66 1.03 1.32 1.56 2 C4.83 4.68 6.88 4.3 11 4 C13.19 4 15.38 4.05 17.56 4.12 C21.07 4.39 21.07 4.39 23 2 C24 3 24 3 24.06 6.06 C24.04 7.03 24.02 8 24 9 C19.73 9.06 15.46 9.09 11.19 9.12 C9.97 9.14 8.76 9.16 7.51 9.18 C6.34 9.18 5.18 9.19 3.98 9.2 C2.37 9.21 2.37 9.21 0.73 9.23 C-2 9 -2 9 -5 7 C-4.6 4.11 -4.21 3.18 -1.94 1.25 C-1.3 0.84 -0.66 0.43 0 0 Z " fill="#58244A" transform="translate(674,398)"/>
<path d="M0 0 C2.64 0 5.28 0 8 0 C10.04 4.35 10.61 8.26 11 13 C10.67 13.66 10.34 14.32 10 15 C7.03 15 4.06 15 1 15 C-0.44 12.12 -0.09 9.58 -0.06 6.38 C-0.05 5.19 -0.04 4 -0.04 2.77 C-0.02 1.86 -0.01 0.94 0 0 Z " fill="#7F5875" transform="translate(628,356)"/>
<path d="M0 0 C0.66 0.33 1.32 0.66 2 1 C2.37 3.11 2.37 3.11 2 6 C0.31 8.38 -1.75 10.32 -3.88 12.31 C-4.71 13.14 -4.71 13.14 -5.56 13.98 C-9.7 18 -9.7 18 -12 18 C-12.33 18.99 -12.66 19.98 -13 21 C-14.98 21.33 -16.96 21.66 -19 22 C-19 19 -19 19 -17.26 16.92 C-16.46 16.13 -15.66 15.35 -14.84 14.55 C-13.56 13.28 -13.56 13.28 -12.25 11.98 C-10.89 10.66 -10.89 10.66 -9.5 9.31 C-8.59 8.42 -7.69 7.53 -6.75 6.61 C-4.51 4.4 -2.26 2.2 0 0 Z " fill="#58244A" transform="translate(494,301)"/>
<path d="M0 0 C2.61 2.61 2.24 4.47 2.27 8.03 C2 10 2 10 0 13 C-3.35 13.13 -6.59 12.86 -9.93 12.62 C-10.95 12.74 -11.96 12.87 -13 13 C-14.68 15.46 -14.68 15.46 -16 18 C-17.32 18 -18.64 18 -20 18 C-20 17.01 -20 16.02 -20 15 C-18.68 14.67 -17.36 14.34 -16 14 C-16.33 12.02 -16.66 10.04 -17 8 C-14.69 7.34 -12.38 6.68 -10 6 C-9.34 6.66 -8.68 7.32 -8 8 C-5.68 8.4 -3.34 8.74 -1 9 C-1.21 7.89 -1.41 6.77 -1.62 5.62 C-1.75 4.43 -1.87 3.23 -2 2 C-1.34 1.34 -0.68 0.68 0 0 Z " fill="#59254B" transform="translate(757,394)"/>
<path d="M0 0 C3.52 1.51 5.81 3.55 8.51 6.25 C9.77 7.5 9.77 7.5 11.06 8.78 C11.92 9.66 12.79 10.54 13.69 11.44 C15.01 12.75 15.01 12.75 16.35 14.08 C17.19 14.92 18.03 15.76 18.89 16.62 C20.03 17.77 20.03 17.77 21.21 18.95 C23 21 23 21 24 24 C19.19 23.54 16.89 22.53 13.48 19.14 C12.68 18.35 11.89 17.57 11.07 16.76 C10.27 15.93 9.46 15.1 8.62 14.25 C7.79 13.44 6.96 12.63 6.11 11.79 C5.32 11 4.54 10.21 3.73 9.39 C2.65 8.31 2.65 8.31 1.56 7.2 C-0.3 4.58 -0.33 3.14 0 0 Z " fill="#58244A" transform="translate(430,299)"/>
<path d="M0 0 C1.26 2.52 1.1 4.31 1.06 7.12 C1.05 8.04 1.04 8.95 1.04 9.88 C1.02 10.58 1.01 11.28 1 12 C-0.42 12.12 -0.42 12.12 -1.88 12.25 C-5.09 12.65 -5.09 12.65 -6.31 15 C-6.54 15.66 -6.77 16.32 -7 17 C-8 18 -8 18 -11.44 18.19 C-15 18 -15 18 -17 16 C-16.62 13.88 -16.62 13.88 -16 12 C-15.34 12.66 -14.68 13.32 -14 14 C-11.43 14.65 -11.43 14.65 -9 15 C-9.66 13.68 -10.32 12.36 -11 11 C-9.75 9.5 -9.75 9.5 -8 8 C-6.68 8 -5.36 8 -4 8 C-4.23 7.24 -4.45 6.47 -4.69 5.69 C-5 3 -5 3 -3.69 1.19 C-2 0 -2 0 0 0 Z " fill="#58244A" transform="translate(659,395)"/>
<path d="M0 0 C2.15 -0.03 4.29 -0.05 6.44 -0.06 C7.63 -0.07 8.83 -0.09 10.06 -0.1 C13 0 13 0 14 1 C14.07 3.19 14.08 5.38 14.06 7.56 C14.05 8.76 14.04 9.96 14.04 11.19 C14.02 12.12 14.01 13.05 14 14 C10.18 11.89 7.26 9.53 4.19 6.44 C3.4 5.65 2.61 4.87 1.79 4.06 C0 2 0 2 0 0 Z " fill="#58244A" transform="translate(482,340)"/>
<path d="M0 0 C3.37 1.46 5.61 3.34 8.19 5.94 C9.23 6.97 9.23 6.97 10.29 8.03 C12 10 12 10 13 13 C10.85 13.03 8.71 13.05 6.56 13.06 C5.37 13.07 4.17 13.09 2.94 13.1 C0 13 0 13 -1 12 C-1.27 3.81 -1.27 3.81 0 0 Z " fill="#58244A" transform="translate(430,309)"/>
<path d="M0 0 C0.79 0.01 1.59 0.03 2.41 0.04 C3.6 0.05 3.6 0.05 4.81 0.06 C6.91 0.23 6.91 0.23 8.91 1.23 C7.51 4.39 5.85 6.55 3.41 8.98 C2.49 9.9 2.49 9.9 1.56 10.84 C-0.09 12.23 -0.09 12.23 -2.09 12.23 C-3.68 8.75 -4.51 6.07 -4.09 2.23 C-2.09 0.23 -2.09 0.23 0 0 Z " fill="#58244A" transform="translate(434.09375,339.76953125)"/>
<path d="M0 0 C1.32 0.33 2.64 0.66 4 1 C4 2.32 4 3.64 4 5 C3.34 5 2.68 5 2 5 C2 4.34 2 3.68 2 3 C1.34 3 0.68 3 0 3 C1.11 6.34 2.47 7.64 5 10 C4.34 11.32 3.68 12.64 3 14 C1.35 13.67 -0.3 13.34 -2 13 C-2 12.01 -2 11.02 -2 10 C-2.99 10 -3.98 10 -5 10 C-5 9.01 -5 8.02 -5 7 C-4.34 7 -3.68 7 -3 7 C-3 6.01 -3 5.02 -3 4 C-2.34 4 -1.68 4 -1 4 C-0.67 2.68 -0.34 1.36 0 0 Z " fill="#6F4363" transform="translate(816,361)"/>
<path d="M0 0 C3.38 -0.19 3.38 -0.19 7 0 C9 3 9 3 8.62 6.19 C8.42 7.12 8.21 8.04 8 9 C6.02 9 4.04 9 2 9 C2 9.99 2 10.98 2 12 C1.34 11.67 0.68 11.34 0 11 C0 7.37 0 3.74 0 0 Z " fill="#58244A" transform="translate(832,362)"/>
<path d="M0 0 C3.3 0.33 4.62 0.62 7 3 C7.4 5.32 7.74 7.66 8 10 C7.01 10 6.02 10 5 10 C4.34 7.69 3.68 5.38 3 3 C2.67 3 2.34 3 2 3 C2 5.31 2 7.62 2 10 C1.01 9.67 0.02 9.34 -1 9 C-1.62 5.62 -1.62 5.62 -2 2 C-1.34 1.34 -0.68 0.68 0 0 Z " fill="#58244A" transform="translate(786,361)"/>
<path d="M0 0 C2.48 0.5 2.48 0.5 5 1 C4.01 1.5 4.01 1.5 3 2 C3.16 3.07 3.33 4.14 3.5 5.25 C4 9 4 9 4 13 C4.99 13.66 5.98 14.32 7 15 C5.02 15 3.04 15 1 15 C-0.44 12.12 -0.09 9.58 -0.06 6.38 C-0.05 5.19 -0.04 4 -0.04 2.77 C-0.02 1.86 -0.01 0.94 0 0 Z " fill="#58244A" transform="translate(628,356)"/>
<path d="M0 0 C1.49 0.99 1.49 0.99 3 2 C3.51 5.04 3.51 5.04 3.69 8.62 C3.75 9.81 3.82 11 3.89 12.23 C3.92 13.14 3.96 14.06 4 15 C3.01 15.33 2.02 15.66 1 16 C-0.41 13.19 -0.38 10.57 -0.62 7.44 C-0.72 6.26 -0.82 5.08 -0.91 3.87 C-0.96 2.45 -0.96 2.45 -1 1 C-0.67 0.67 -0.34 0.34 0 0 Z " fill="#58244A" transform="translate(801,355)"/>
<path d="M0 0 C3 1 3 1 4 3 C4.04 5 4.04 7 4 9 C3.34 8.67 2.68 8.34 2 8 C2.33 6.68 2.66 5.36 3 4 C1.68 3.67 0.36 3.34 -1 3 C-0.67 5.31 -0.34 7.62 0 10 C-1.94 9.38 -1.94 9.38 -4 8 C-4.75 4.88 -4.75 4.88 -5 2 C-4.34 1.67 -3.68 1.34 -3 1 C-2.01 1.33 -1.02 1.66 0 2 C0 1.34 0 0.68 0 0 Z " fill="#58244A" transform="translate(709,361)"/>
<path d="M0 0 C0.66 0.33 1.32 0.66 2 1 C2 3.31 2 5.62 2 8 C-0.31 8 -2.62 8 -5 8 C-5 5 -5 5 -2.5 2.31 C-1.68 1.55 -0.85 0.79 0 0 Z " fill="#58244A" transform="translate(494,314)"/>
<path d="M0 0 C2.48 0.5 2.48 0.5 5 1 C4.67 1.66 4.34 2.32 4 3 C3.93 4.87 3.92 6.75 3.94 8.62 C3.95 9.63 3.96 10.63 3.96 11.66 C3.98 12.43 3.99 13.21 4 14 C2.02 12.86 2.02 12.86 0 11 C-0.39 8.3 -0.39 8.3 -0.25 5.31 C-0.21 4.32 -0.18 3.32 -0.14 2.3 C-0.09 1.54 -0.05 0.78 0 0 Z " fill="#58244A" transform="translate(689,356)"/>
<path d="M0 0 C1.49 0.99 1.49 0.99 3 2 C3.29 4.82 3.29 4.82 3.19 8.12 C3.16 9.22 3.13 10.32 3.11 11.45 C3.07 12.29 3.04 13.13 3 14 C2.01 13.67 1.02 13.34 0 13 C0 8.71 0 4.42 0 0 Z " fill="#58244A" transform="translate(591,356)"/>
<path d="M0 0 C1.49 0.99 1.49 0.99 3 2 C3.29 4.82 3.29 4.82 3.19 8.12 C3.16 9.22 3.13 10.32 3.11 11.45 C3.07 12.29 3.04 13.13 3 14 C2.34 14 1.68 14 1 14 C-0.38 11.24 -0.1 8.95 -0.06 5.88 C-0.05 4.78 -0.04 3.68 -0.04 2.55 C-0.02 1.71 -0.01 0.87 0 0 Z " fill="#58244A" transform="translate(672,356)"/>
<path d="M0 0 C1.49 1.14 1.49 1.14 3 3 C3.29 5.7 3.29 5.7 3.19 8.69 C3.16 9.68 3.13 10.68 3.11 11.7 C3.07 12.46 3.04 13.22 3 14 C2.01 14.5 2.01 14.5 1 15 C-0.1 11.71 -0.1 9.26 -0.06 5.81 C-0.05 4.73 -0.04 3.64 -0.04 2.52 C-0.02 1.69 -0.01 0.86 0 0 Z " fill="#58244A" transform="translate(601,356)"/>
<path d="M0 0 C0.99 0 1.98 0 3 0 C3.33 1.98 3.66 3.96 4 6 C2.06 6.56 2.06 6.56 0 7 C-1 6 -1 6 -1.12 3.5 C-1 1 -1 1 0 0 Z " fill="#FCFDFF" transform="translate(835,363)"/>
<path d="M0 0 C1.49 1.27 1.49 1.27 3 3 C3.19 6.69 3.19 6.69 3 10 C3.99 10.33 4.98 10.66 6 11 C1.12 10.12 1.12 10.12 0 9 C-0.07 7.48 -0.08 5.96 -0.06 4.44 C-0.05 3.61 -0.04 2.78 -0.04 1.93 C-0.02 1.3 -0.01 0.66 0 0 Z " fill="#58244A" transform="translate(654,360)"/>
<path d="M0 0 C0.66 0.33 1.32 0.66 2 1 C2.05 2.44 2.09 3.87 2.12 5.31 C2.15 6.11 2.17 6.91 2.2 7.74 C2 10 2 10 0 13 C-0.19 11.21 -0.38 9.42 -0.56 7.62 C-0.67 6.63 -0.77 5.63 -0.88 4.6 C-1 2 -1 2 0 0 Z " fill="#58244A" transform="translate(844,395)"/>
<path d="M0 0 C0.99 0 1.98 0 3 0 C3.66 1.65 4.32 3.3 5 5 C3.35 5.33 1.7 5.66 0 6 C-0.38 4.34 -0.71 2.68 -1 1 C-0.67 0.67 -0.34 0.34 0 0 Z " fill="#FCFDFF" transform="translate(632,364)"/>
<path d="M0 0 C3 2 3 2 3.51 3.95 C3.67 5.96 3.84 7.98 4 10 C3.01 10 2.02 10 1 10 C-0.61 6.79 -0.06 3.56 0 0 Z " fill="#58244A" transform="translate(779,361)"/>
<path d="M0 0 C0.99 0.33 1.98 0.66 3 1 C3.33 3.97 3.66 6.94 4 10 C3.01 9.67 2.02 9.34 1 9 C-0.48 6.04 -0.06 3.26 0 0 Z " fill="#58244A" transform="translate(759,361)"/>
</svg>
